<?xml version="1.0" standalone="no"?>
<!DOCTYPE svg PUBLIC "-//W3C//DTD SVG 1.1//EN" "http://www.w3.org/Graphics/SVG/1.1/DTD/svg11.dtd" >
<svg xmlns="http://www.w3.org/2000/svg" xmlns:xlink="http://www.w3.org/1999/xlink" version="1.1">
<metadata>
Created by FontForge 20161003 at Thu Aug  3 09:01:17 2017
 By www-data
Copyright (c) 2008 by Hubert Jocham. All rights reserved.
</metadata>
<defs>
<font id="UVFNarzissDrops" horiz-adv-x="500" >
  <font-face 
    font-family="UVF NarzissDrops"
    font-weight="400"
    font-stretch="normal"
    units-per-em="1000"
    panose-1="2 0 5 6 0 0 0 2 0 4"
    ascent="750"
    descent="-250"
    x-height="507"
    cap-height="700"
    bbox="-100 -204 1059 1011"
    underline-thickness="50"
    underline-position="-100"
    unicode-range="U+0021-1EEBB"
  />
<missing-glyph horiz-adv-x="260" 
 />
    <glyph glyph-name="fi" unicode="fi" horiz-adv-x="489" 
d="M422 3h62v-3h-202v3h63v501h-216q10 -31 18 -70t8 -101v-330h62v-3h-202v3h63v501h-63v3h63v20q0 96 51.5 149.5t141.5 53.5q39 0 68.5 -10t49.5 -26t30.5 -36t10.5 -40q0 -26 -15 -43t-38 -17q-22 0 -36.5 14t-14.5 36q0 27 16 39.5t34 12.5q8 0 14.5 -2t8.5 -2q5 0 5 3
q0 7 -7.5 18.5t-24 22.5t-41.5 19t-60 8q-72 0 -115 -35t-43 -100q0 -22 3.5 -40.5t11.5 -44.5h294v-504z" />
    <glyph glyph-name="fl" unicode="fl" horiz-adv-x="519" 
d="M365 608q0 21 -4.5 42.5t-16 38.5t-32.5 27.5t-54 10.5q-65 0 -105 -35t-40 -100q0 -22 3.5 -40.5t11.5 -44.5h140v-3h-139q10 -31 18 -70t8 -101v-330h62v-3h-202v3h63v501h-63v3h63v20q0 96 51 149.5t137 53.5q50 0 83.5 -11.5t54 -30.5t29.5 -45t9 -54v-586h62v-3
h-202v3h63v605z" />
    <glyph glyph-name=".notdef" horiz-adv-x="260" 
 />
    <glyph glyph-name=".null" horiz-adv-x="0" 
 />
    <glyph glyph-name="nonmarkingreturn" horiz-adv-x="260" 
 />
    <glyph glyph-name="space" unicode="&#xa0;" horiz-adv-x="260" 
 />
    <glyph glyph-name="space" unicode=" " horiz-adv-x="260" 
 />
    <glyph glyph-name="e" unicode="e" horiz-adv-x="489" 
d="M292 -5q33 0 58.5 10.5t43.5 24.5t27 28t9 22q0 5 -5 5q-2 0 -10 -4t-20 -4q-19 0 -34.5 13t-15.5 38q0 21 14.5 36t38.5 15q22 0 36.5 -16t14.5 -41q0 -23 -12 -46t-34 -42.5t-54 -31.5t-72 -12q-50 0 -92.5 20.5t-73.5 56t-48.5 83.5t-17.5 103t17 103.5t47.5 85
t72.5 57.5t92 21q38 0 69.5 -9.5t54.5 -27t36 -41.5t13 -53q0 -44 -22.5 -69.5t-56 -41.5t-73 -27t-73 -25.5t-56 -38t-22.5 -64.5q0 -26 10 -49t29.5 -40.5t46.5 -28t62 -10.5zM274 517q-35 0 -62.5 -21.5t-46 -58.5t-28 -85.5t-9.5 -103.5q0 -56 10 -99q7 26 26.5 43.5
t45 31.5t53 27t50.5 31t38 43t15 63q0 56 -23.5 92.5t-68.5 36.5z" />
    <glyph glyph-name="c" unicode="c" horiz-adv-x="471" 
d="M306 4q24 0 46 8t40 23t30 36.5t15 49.5h4q-6 -57 -50 -94t-120 -37q-50 0 -91.5 20.5t-71.5 56t-46.5 83.5t-16.5 103t18 103.5t49.5 85t75 57.5t93.5 21q40 0 70 -11t49 -29t28.5 -40.5t9.5 -44.5q0 -25 -14.5 -42.5t-36.5 -17.5q-24 0 -38.5 15t-14.5 36q0 25 15.5 38
t34.5 13q12 0 20 -4t10 -4q5 0 5 5q0 8 -7 21.5t-21.5 27t-38 23t-56.5 9.5q-39 0 -70 -18t-53 -51t-33.5 -80.5t-11.5 -107.5q0 -55 12.5 -101.5t36 -80.5t56 -53t73.5 -19z" />
    <glyph glyph-name="d" unicode="d" horiz-adv-x="577" 
d="M283 4q57 0 91 34t34 94v254q0 58 -33.5 90.5t-86.5 32.5q-39 0 -69 -19t-50 -53t-30.5 -81t-10.5 -102t10.5 -101t30 -79t48.5 -51.5t66 -18.5zM262 -10q-50 0 -90 20t-68.5 55t-43.5 82t-15 102t17 104.5t47.5 86.5t72 58.5t89.5 21.5q50 0 85 -23.5t52 -58.5v259h-65
v3h139v-630q0 -24 13 -35.5t30 -11.5t29.5 13t14.5 34h3q-1 -11 -6 -25t-15.5 -26t-26.5 -20.5t-38 -8.5q-69 0 -78 90q-17 -38 -54.5 -64t-91.5 -26z" />
    <glyph glyph-name="u" unicode="u" horiz-adv-x="572" 
d="M396 91q-7 -18 -20.5 -36.5t-33 -32.5t-45 -23t-56.5 -9q-74 0 -110 52t-36 138v257q0 24 -13 35.5t-30 11.5t-29.5 -13t-14.5 -34h-3q1 11 6 25t15.5 26t26.5 20.5t38 8.5q39 0 60.5 -29t21.5 -82v-297q0 -51 26.5 -77.5t72.5 -26.5q28 0 51 11.5t39.5 30t25 42.5
t8.5 50v365h-62v3h138v-437q0 -24 13 -35.5t30 -11.5t29.5 13t14.5 34h3q-1 -11 -6 -25t-15.5 -26t-26.5 -20.5t-38 -8.5q-34 0 -55 27.5t-25 73.5z" />
    <glyph glyph-name="o" unicode="o" horiz-adv-x="557" 
d="M429 253q0 55 -9 102.5t-27.5 82.5t-46.5 55.5t-65 20.5q-39 0 -68 -19.5t-47.5 -54t-28 -81.5t-9.5 -102t9 -102.5t27.5 -83t46.5 -56t65 -20.5q39 0 68 19.5t47.5 54t28 82t9.5 102.5zM512 258q0 -55 -18.5 -103.5t-51 -85t-75.5 -57.5t-91 -21q-50 0 -92.5 20
t-73 55.5t-48 83t-17.5 102.5t18.5 103.5t51 84.5t75.5 57t91 21q50 0 92.5 -20t73 -55t48 -82.5t17.5 -102.5z" />
    <glyph glyph-name="b" unicode="b" horiz-adv-x="547" 
d="M264 505q-57 0 -91 -33.5t-34 -93.5v-254q0 -64 34.5 -95t87.5 -31q39 0 68.5 19.5t49.5 54t30 82t10 102.5t-10.5 100.5t-30 78.5t-48.5 51.5t-66 18.5zM0 697v3h139v-269q17 38 54.5 63.5t91.5 25.5q50 0 90 -20t68.5 -55t43.5 -82t15 -102t-18 -104t-49 -85.5
t-73.5 -58t-90.5 -21.5q-38 0 -64 10.5t-45 22.5t-34 22.5t-32 10.5q-21 0 -31.5 -19t-25.5 -71h-5q6 21 11.5 38t10 33.5t7 34t2.5 39.5v584h-65z" />
    <glyph glyph-name="i" unicode="i" horiz-adv-x="222" 
d="M155 3h62v-3h-202v3h63v501h-63v3h140v-504zM163 654q0 -22 -14.5 -36.5t-34.5 -14.5q-21 0 -34.5 14t-13.5 36q0 23 14 37.5t34 14.5q22 0 35.5 -14t13.5 -37z" />
    <glyph glyph-name="g" unicode="g" horiz-adv-x="506" 
d="M427 358q0 -35 -14 -65t-38.5 -52t-59 -35t-74.5 -13q-29 0 -47.5 3.5t-37.5 3.5q-16 0 -31.5 -4.5t-27.5 -13.5t-19 -22.5t-7 -32.5q0 -27 18 -45.5t50 -18.5q26 0 49.5 14t49 31.5t54.5 31.5t67 14q33 0 56 -10t38 -26t22 -37t7 -43q0 -39 -17 -73t-49 -58.5
t-77.5 -38.5t-102.5 -14q-53 0 -90.5 13t-62.5 32.5t-36.5 43.5t-11.5 47q0 25 14.5 42.5t36.5 17.5q24 0 38.5 -15t14.5 -36q0 -25 -15.5 -38t-34.5 -13q-12 0 -20 4t-10 4q-5 0 -5 -5q0 -10 9.5 -25t29.5 -29.5t50.5 -24.5t72.5 -10q44 0 79 12.5t59 34t37 51t13 63.5
q0 47 -23.5 72t-71.5 25q-26 0 -46.5 -9.5t-40 -20.5t-39.5 -20.5t-44 -9.5q-35 0 -53.5 19t-18.5 48q0 37 27.5 57.5t62.5 26.5q-45 19 -70.5 57t-25.5 86q0 34 14 64t38.5 52.5t58.5 35t75 12.5q15 0 26 -1.5t21 -3t20.5 -2.5t24.5 -1q16 0 31.5 4.5t27.5 12t19.5 17.5
t7.5 22q0 5 -5 5q-2 0 -10 -4t-20 -4q-19 0 -34.5 12.5t-15.5 37.5q0 21 14.5 35.5t38.5 14.5q22 0 38.5 -14.5t16.5 -39.5q0 -41 -31.5 -72t-88.5 -34q47 -19 73 -57t26 -88zM350 355q0 33 -5.5 62.5t-18 51t-32 34t-47.5 12.5q-30 0 -51 -12t-34 -33t-18.5 -50t-5.5 -63
q0 -33 5.5 -62.5t18 -51.5t32 -34.5t47.5 -12.5q30 0 51 12t34 33.5t18.5 50.5t5.5 63z" />
    <glyph glyph-name="h" unicode="h" horiz-adv-x="551" 
d="M456 70q0 -24 13 -35.5t30 -11.5t29.5 13t14.5 34h3q-1 -11 -6 -25t-15.5 -26t-26.5 -20.5t-38 -8.5q-39 0 -60.5 29t-21.5 82v297q0 51 -26.5 77.5t-72.5 26.5q-29 0 -51.5 -12t-39 -32t-25 -45t-8.5 -50v-360h62v-3h-202v3h63v694h-63v3h140v-289q7 18 20.5 37t33 34.5
t45 25t56.5 9.5q74 0 110 -52t36 -138v-257z" />
    <glyph glyph-name="j" unicode="j" horiz-adv-x="216" 
d="M156 654q0 -22 -14.5 -36.5t-34.5 -14.5q-21 0 -34.5 14t-13.5 36q0 23 14 37.5t34 14.5q22 0 35.5 -14t13.5 -37zM71 504h-63v3h140v-475q0 -39 -8 -74.5t-24.5 -63.5t-40.5 -44.5t-55 -16.5q-39 0 -66 22t-27 61q0 28 16 46t38 18q24 0 37 -14.5t13 -35.5
q0 -25 -15.5 -38t-34.5 -13q-12 0 -20 4t-10 4q-5 0 -5 -5q0 -7 5.5 -15t15 -15t23 -12t30.5 -5t34.5 6.5t32 19.5t23.5 30.5t9 40.5q0 34 -7.5 62t-16.5 60t-16.5 72.5t-7.5 97.5v280z" />
    <glyph glyph-name="k" unicode="k" horiz-adv-x="523" 
d="M339 517q65 0 99.5 -27t34.5 -77q0 -47 -24 -71.5t-59 -38.5t-76 -22.5t-74 -23.5l136 -179q23 -29 43 -42t46 -13q19 0 32.5 13t15.5 34h3q-1 -11 -6 -25t-15.5 -26t-26.5 -20.5t-38 -8.5q-53 0 -94.5 32.5t-85.5 89.5l-72 93q11 24 31.5 38.5t44.5 25.5t48.5 20.5
t44.5 24t32.5 36.5t12.5 57q0 45 -24 69t-64 24q-29 0 -55.5 -13.5t-47.5 -37t-33.5 -54.5t-12.5 -66v-326h62v-3h-202v3h63v694h-63v3h140v-322q7 21 22 45.5t38 45t54 34.5t70 14z" />
    <glyph glyph-name="m" unicode="m" horiz-adv-x="811" 
d="M716 70q0 -24 13 -35.5t30 -11.5t29.5 13t14.5 34h3q-1 -11 -6 -25t-15.5 -26t-26.5 -20.5t-38 -8.5q-39 0 -60.5 29t-21.5 82v297q0 51 -23 77.5t-65 26.5q-27 0 -48.5 -11t-36 -29.5t-22.5 -42.5t-8 -49v-367h62v-3h-202v3h63v395q0 51 -23 77.5t-65 26.5
q-27 0 -48.5 -11t-36 -29.5t-22.5 -42.5t-8 -49v-367h62v-3h-202v3h63v501h-63v3h140v-89q7 18 20 35.5t31.5 32t42 23t52.5 8.5q54 0 86.5 -30.5t42.5 -84.5q17 51 55 83t96 32q70 0 102.5 -52t32.5 -138v-257z" />
    <glyph glyph-name="p" unicode="p" horiz-adv-x="553" 
d="M270 506q-57 0 -91 -34t-34 -94v-244q0 -58 33.5 -90.5t86.5 -32.5q39 0 69 18.5t50 51.5t30.5 79t10.5 101t-10.5 100t-30 77t-48.5 50t-66 18zM145 -143h62v-3h-202v3h63v647h-63v3h140v-77q17 38 54.5 64t91.5 26q50 0 90 -19t68.5 -53t43.5 -80.5t15 -101.5
t-17 -103.5t-47.5 -84.5t-72 -57t-89.5 -21q-50 0 -85 23.5t-52 58.5v-225z" />
    <glyph glyph-name="q" unicode="q" horiz-adv-x="552" 
d="M283 15q57 0 91 33.5t34 93.5v244q0 64 -34.5 95t-87.5 31q-39 0 -68.5 -19t-49.5 -52.5t-30 -80t-10 -101.5t10.5 -100t30 -77t48.5 -49.5t66 -17.5zM408 -143v232q-17 -38 -54.5 -63.5t-91.5 -25.5q-50 0 -90 19t-68.5 53t-43.5 80.5t-15 101.5t18 103t49 84t73.5 56.5
t90.5 20.5q38 0 64 -10.5t45 -22.5t34 -22.5t32 -10.5q21 0 31.5 19t25.5 71h5q-6 -21 -11.5 -38t-10 -33.5t-7 -34t-2.5 -39.5v-540h65v-3h-204v3h65z" />
    <glyph glyph-name="r" unicode="r" horiz-adv-x="426" 
d="M306 512q-33 0 -60.5 -16t-48 -43t-31.5 -62.5t-11 -75.5v-312h62v-3h-202v3h63v501h-63v3h140v-123q7 18 19 40.5t30 43t43.5 34t58.5 13.5q28 0 49 -9t34.5 -23.5t20 -33t6.5 -38.5q0 -27 -16 -44t-40 -17q-23 0 -38.5 15t-15.5 39q0 26 16.5 39.5t36.5 13.5q9 0 16 -2
t9 -2q5 0 5 6t-4.5 15.5t-14.5 17.5t-26 14t-38 6z" />
    <glyph glyph-name="t" unicode="t" horiz-adv-x="326" 
d="M65 507v104l76 38v-142h165v-3h-165v-372q0 -112 94 -112q28 0 51 17.5t27 46.5h3q-2 -18 -12 -34.5t-26 -30t-37 -21.5t-45 -8q-68 0 -99.5 41.5t-31.5 109.5v363h-65v3h65z" />
    <glyph glyph-name="v" unicode="v" horiz-adv-x="533" 
d="M363 504v3h170v-3h-4q-18 0 -31.5 -9t-25 -24t-20 -35t-15.5 -42l-145 -394h-37l-199 504h-56v3h203v-3h-66l173 -444l123 335q8 22 9.5 42t-6 35t-23.5 23.5t-43 8.5h-7z" />
    <glyph glyph-name="w" unicode="w" horiz-adv-x="752" 
d="M582 504v3h170v-3h-4q-18 0 -31.5 -9t-25 -24t-20 -35t-15.5 -42l-125 -394h-37l-115 356l-121 -356h-37l-165 504h-56v3h202v-3h-66l140 -439l101 298l-45 141h-56v3h198v-3h-66l140 -436l104 327q8 22 9.5 42t-6 35t-23.5 23.5t-43 8.5h-7z" />
    <glyph glyph-name="x" unicode="x" horiz-adv-x="543" 
d="M189 3v-3h-169v3h4q17 0 33 9.5t32 24.5t31.5 35t32.5 41l88 120l-184 271h-52v3h207v-3h-67l150 -221l82 112q16 22 24 42t5.5 35t-15.5 23.5t-40 8.5h-7v3h170v-3h-4q-18 0 -34 -9.5t-31.5 -24.5t-31.5 -35t-32 -41l-84 -114l189 -277h52v-3h-207v3h67l-155 227
l-86 -118q-16 -22 -24 -42t-6 -35t15 -23.5t40 -8.5h7z" />
    <glyph glyph-name="y" unicode="y" horiz-adv-x="509" 
d="M452 431q0 11 -9 11q-5 0 -12.5 -4t-21.5 -4q-19 0 -35 13.5t-16 39.5q0 21 14 36.5t38 15.5q26 0 42.5 -19t16.5 -48q0 -40 -18.5 -85.5t-46 -93.5t-59.5 -97t-59.5 -95t-46 -87.5t-18.5 -74.5q0 -10 9 -10q5 0 12.5 4t21.5 4q19 0 35 -13.5t16 -39.5q0 -22 -14 -37
t-38 -15q-26 0 -42.5 19t-16.5 48q0 37 16 78.5t40 86.5l-204 440h-56v3h204v-3h-69l168 -368q26 42 52.5 82.5t48 78.5t35 72t13.5 62z" />
    <glyph glyph-name="a" unicode="a" horiz-adv-x="509" 
d="M115 432q19 0 34.5 -13t15.5 -38q0 -21 -14.5 -36t-38.5 -15q-22 0 -36.5 16t-14.5 41q0 22 11 45.5t32.5 43t52.5 31.5t71 12q87 0 135.5 -53.5t48.5 -140.5v-255q0 -24 12.5 -35.5t29.5 -11.5q19 0 32 13t15 34h3q-1 -11 -6 -25t-15 -26t-25.5 -20.5t-37.5 -8.5
q-39 0 -59.5 23t-24.5 73q-8 -17 -22 -34t-34 -30.5t-45.5 -22.5t-55.5 -9q-27 0 -51 8t-42.5 23.5t-29.5 38t-11 51.5q0 47 22 74t55.5 43.5t72.5 28.5t72.5 28.5t55.5 44t22 75.5q0 54 -33.5 81.5t-98.5 27.5q-33 0 -58 -10.5t-41.5 -24.5t-25 -28t-8.5 -22q0 -5 5 -5
q2 0 10 4t20 4zM335 339q-14 -23 -35 -38.5t-44 -28t-46.5 -25t-42 -29.5t-30 -41t-11.5 -59q0 -46 27 -73t72 -27q25 0 45.5 8.5t34.5 22.5t22 32.5t8 38.5v219z" />
    <glyph glyph-name="z" unicode="z" horiz-adv-x="487" 
d="M62 507h380l-314 -484q31 0 56 -5t49.5 -10.5t50.5 -10.5t59 -5q14 0 18.5 4.5t4.5 12.5t-4.5 14.5t-4.5 20.5q0 19 13.5 35t39.5 16q22 0 37 -13.5t15 -37.5q0 -26 -18.5 -46.5t-61.5 -20.5t-75 6.5t-60.5 15t-56.5 15t-62 6.5q-25 0 -50.5 -4.5t-47.5 -15.5l327 504
h-135q-37 0 -67 -11.5t-52.5 -30t-37 -41.5t-20.5 -45h-3z" />
    <glyph glyph-name="f" unicode="f" horiz-adv-x="287" 
d="M155 3h62v-3h-202v3h63v501h-63v3h63v24q0 86 34 137.5t98 51.5q55 0 81 -30t26 -73q0 -26 -15.5 -44t-37.5 -18q-23 0 -37 14t-14 35q0 25 15 38.5t35 13.5q12 0 20 -4t10 -4q5 0 5 5q0 8 -4.5 19t-14.5 21.5t-27 17.5t-42 7q-45 0 -73.5 -29.5t-28.5 -76.5q0 -31 6 -55
t14 -50h140v-3h-139q10 -31 18 -70t8 -101v-330z" />
    <glyph glyph-name="s" unicode="s" horiz-adv-x="442" 
d="M224 519q28 0 47 -4t33 -9.5t25.5 -9.5t26.5 -4q14 0 21 7.5t7 19.5h3v-159h-3q-6 31 -18 59t-31 49t-46.5 33.5t-64.5 12.5q-62 0 -89.5 -30t-27.5 -72q0 -40 22 -63.5t54.5 -39.5t71 -28.5t71 -29.5t54.5 -43.5t22 -70.5q0 -32 -14 -59t-39 -46.5t-58 -30.5t-72 -11
q-40 0 -73 11.5t-56.5 29.5t-36.5 41t-13 46q0 25 14.5 41t36.5 16q24 0 38.5 -15t14.5 -36q0 -25 -15.5 -38t-34.5 -13q-12 0 -20 4t-10 4q-5 0 -5 -5q0 -8 10.5 -21.5t30 -27t48.5 -23t65 -9.5q60 0 94.5 30t34.5 74q0 39 -22 62.5t-54.5 39.5t-71 28.5t-71 30t-54.5 44
t-22 70.5q0 33 12.5 59.5t35.5 45.5t55.5 29.5t73.5 10.5z" />
    <glyph glyph-name="I" unicode="I" horiz-adv-x="247" 
d="M20 697v3h207v-3h-62v-694h62v-3h-207v3h63v694h-63z" />
    <glyph glyph-name="H" unicode="H" horiz-adv-x="671" 
d="M444 697v3h207v-3h-62v-694h62v-3h-207v3h63v343h-342v-343h62v-3h-207v3h63v694h-63v3h207v-3h-62v-348h342v348h-63z" />
    <glyph glyph-name="V" unicode="V" horiz-adv-x="655" 
d="M485 697v3h170v-3h-4q-18 0 -31.5 -9t-25 -24t-20 -35t-15.5 -42l-204 -587h-37l-262 697h-56v3h210v-3h-66l232 -623l179 514q8 22 9.5 42t-6 35t-23.5 23.5t-43 8.5h-7z" />
    <glyph glyph-name="W" unicode="W" horiz-adv-x="930" 
d="M755 697v3h170v-3h-4q-35 0 -58 -32.5t-36 -77.5l-164 -587h-37l-162 550l-165 -550h-37l-201 697h-56v3h208v-3h-66l173 -612l142 473l-41 139h-56v3h203v-3h-66l180 -614l141 505q6 22 7.5 42t-5 35t-21.5 23.5t-42 8.5h-7z" />
    <glyph glyph-name="B" unicode="B" horiz-adv-x="563" 
d="M20 697v3h269q106 0 163 -47.5t57 -126.5q0 -35 -14 -65t-38.5 -52.5t-59 -37t-76.5 -19.5q104 -3 163 -49.5t59 -122.5q0 -40 -19 -73t-53 -57t-79.5 -37t-98.5 -13h-273v3h63v694h-63zM165 349v-346h116q46 0 79.5 13t54.5 36.5t31 55t10 69.5q0 36 -10 67.5t-31 55
t-53.5 36.5t-76.5 13h-120zM165 697v-345h98q45 0 75 12.5t49 35.5t27 54t8 69q0 36 -8.5 68t-27 55.5t-48 37t-71.5 13.5h-102z" />
    <glyph glyph-name="P" unicode="P" horiz-adv-x="563" 
d="M20 697v3h287q55 0 98.5 -13t74 -37t47 -57t16.5 -72q0 -40 -19 -74t-53 -59t-79.5 -39.5t-98.5 -14.5h-128v-331h62v-3h-207v3h63v694h-63zM165 337h116q46 0 79.5 14t54.5 39t31 57.5t10 70.5q0 36 -10 68.5t-31 57t-53.5 39t-76.5 14.5h-120v-360z" />
    <glyph glyph-name="R" unicode="R" horiz-adv-x="610" 
d="M513 121q0 -45 7.5 -67.5t30.5 -22.5q17 0 26.5 14.5t9.5 35.5v21h3v-21q0 -16 -4 -32.5t-13 -29.5t-23.5 -21t-35.5 -8q-25 0 -40.5 9.5t-24 27t-11.5 41.5t-3 53q0 50 -6 90.5t-22.5 69t-46.5 44t-78 15.5h-117v-337h62v-3h-207v3h63v694h-63v3h287q55 0 98.5 -12.5
t74 -36t47 -56t16.5 -71.5q0 -36 -16 -67.5t-44.5 -55.5t-67.5 -39.5t-85 -19.5q96 -8 139.5 -66t43.5 -155zM165 343h116q46 0 79.5 13.5t54.5 37.5t31 56.5t10 70.5q0 36 -10 68t-31 56t-53.5 38t-76.5 14h-120v-354z" />
    <glyph glyph-name="S" unicode="S" horiz-adv-x="513" 
d="M264 -6q37 0 65.5 11.5t48 31t29 46.5t9.5 58q0 41 -16 69.5t-42.5 48.5t-60 34.5t-69 28t-69 29t-60 37t-42.5 52.5t-16 76q0 44 15.5 80t44 61.5t69.5 39t91 13.5q32 0 55 -6t41.5 -12.5t34.5 -12.5t34 -6q17 0 26 10t9 27h3v-209h-3q-9 45 -24 82.5t-38.5 64.5
t-57.5 42.5t-80 15.5q-38 0 -66.5 -11.5t-48 -31t-29.5 -45t-10 -54.5q0 -41 16 -69.5t42.5 -48.5t60.5 -34.5t69 -28t69 -29t60.5 -37t42.5 -52t16 -75.5q0 -44 -17 -80.5t-47 -63t-70 -41.5t-85 -15q-41 0 -68 8.5t-47 18.5t-38 18.5t-42 8.5q-17 0 -26 -10t-9 -26h-4v209
h4q8 -48 28 -89t49.5 -71t68 -46.5t84.5 -16.5z" />
    <glyph glyph-name="O" unicode="O" horiz-adv-x="704" 
d="M352 710q78 0 138.5 -27t101 -74.5t61.5 -112.5t21 -142q0 -78 -23.5 -144.5t-66 -115.5t-102 -77t-130.5 -28q-78 0 -138.5 27t-101 74.5t-61.5 113t-21 142.5q0 78 23.5 144.5t66 115t102 76.5t130.5 28zM352 -7q63 0 106.5 28t71.5 76.5t40.5 113t12.5 137.5
q0 71 -14 135.5t-42.5 114t-72 79t-102.5 29.5q-63 0 -106.5 -28t-71.5 -76t-40.5 -112.5t-12.5 -137.5q0 -71 14 -136t42.5 -114.5t72 -79t102.5 -29.5z" />
    <glyph glyph-name="C" unicode="C" horiz-adv-x="581" 
d="M121 352q0 -74 17.5 -137t49 -109t76.5 -72t100 -26q34 0 64.5 10.5t54.5 30.5t39 49.5t20 68.5h4q-4 -39 -20.5 -71.5t-44.5 -56t-68 -36.5t-91 -13q-65 0 -119 28t-92.5 76t-59.5 113t-21 139q0 78 23.5 144.5t65 115t99 76.5t125.5 28q32 0 54 -6t39.5 -12.5
t32.5 -12.5t33 -6q17 0 26 10t9 27h3v-209h-3q-9 45 -23 82.5t-36.5 64.5t-55.5 42.5t-79 15.5q-60 0 -102 -28t-69 -76t-39 -112.5t-12 -137.5z" />
    <glyph glyph-name="U" unicode="U" horiz-adv-x="671" 
d="M572 237q0 -55 -19.5 -100t-53.5 -77.5t-79 -50.5t-96 -18q-52 0 -96 18t-76.5 50t-50.5 75t-18 94v469h-63v3h207v-3h-62v-464q0 -44 15.5 -79.5t43 -61t65 -39.5t81.5 -14q42 0 78 13t62.5 38t42 62t15.5 86v349q0 57 -19.5 83.5t-58.5 26.5h-4v3h170v-3h-4
q-39 0 -59.5 -26.5t-20.5 -83.5v-350z" />
    <glyph glyph-name="Q" unicode="Q" horiz-adv-x="704" 
d="M426 2q-37 -8 -74 -8q-78 0 -138.5 26.5t-101 74t-61.5 112.5t-21 142q0 78 23.5 144t66 114t102 75.5t130.5 27.5q78 0 138.5 -26.5t101 -73.5t61.5 -111.5t21 -141.5q0 -111 -46.5 -196.5t-126.5 -129.5q3 -24 3 -53q0 -45 7.5 -67.5t30.5 -22.5q17 0 26.5 14.5
t9.5 35.5v21h3v-21q0 -16 -4 -32.5t-13 -29.5t-23.5 -21t-35.5 -8q-25 0 -40.5 9.5t-24 27t-11.5 41.5t-3 53v24zM121 355q0 -71 13.5 -135t42 -113t71.5 -78.5t102 -30.5v22q0 16 4 32.5t13 29.5t23.5 21t35.5 8q30 0 46.5 -14.5t23.5 -40.5q46 48 66.5 125t20.5 170
q0 71 -14 135.5t-42.5 113t-72 77.5t-102.5 29q-63 0 -106.5 -27.5t-71.5 -75t-40.5 -111.5t-12.5 -137zM353 -2q40 0 73 12q0 60 -36 60q-17 0 -27 -14.5t-10 -35.5v-22z" />
    <glyph glyph-name="D" unicode="D" horiz-adv-x="637" 
d="M165 697v-694h99q63 0 110 26.5t78.5 73t47.5 109.5t16 136q0 71 -17.5 134.5t-50 111t-79.5 75.5t-106 28h-98zM272 700q78 0 140.5 -25t105.5 -71t66 -109.5t23 -140.5q0 -78 -25.5 -143t-70.5 -112t-106.5 -73t-132.5 -26h-252v3h63v694h-63v3h252z" />
    <glyph glyph-name="T" unicode="T" horiz-adv-x="604" 
d="M223 697q-47 0 -80 -9t-55 -29.5t-34 -52.5t-16 -78h-3v209h3q0 -17 9 -27t26 -10h458q17 0 26 10t9 27h3v-209h-3q-4 46 -16 78t-34 52.5t-55.5 29.5t-79.5 9h-38v-694h62v-3h-207v3h63v694h-38z" />
    <glyph glyph-name="E" unicode="E" horiz-adv-x="564" 
d="M165 349v-346h161q44 0 74 9.5t50 30t32 53t20 78.5h2v-174h-484v3h63v694h-63v3h474v-174h-2q-8 46 -20 78.5t-32 53t-50 30t-74 9.5h-151v-345h96q68 0 97.5 28t36.5 80h3v-219h-3q-7 52 -36.5 80t-97.5 28h-96z" />
    <glyph glyph-name="F" unicode="F" horiz-adv-x="529" 
d="M228 3v-3h-208v3h63v694h-63v3h474v-174h-2q-8 46 -20 78.5t-32 53t-50 30t-74 9.5h-151v-352h96q68 0 97.5 28t36.5 80h3v-219h-3q-7 52 -36.5 80t-97.5 28h-96v-339h63z" />
    <glyph glyph-name="A" unicode="A" horiz-adv-x="675" 
d="M170 3v-3h-170v3h4q18 0 31.5 9t24.5 24t19.5 35t16.5 42l214 587h37l272 -697h56v-3h-210v3h66l-116 297h-247l-68 -188q-8 -22 -9.5 -42t6 -35t23.5 -23.5t43 -8.5h7zM169 303h245l-126 325z" />
    <glyph glyph-name="X" unicode="X" horiz-adv-x="644" 
d="M179 3v-3h-169v3h4q17 0 33.5 9.5t33 24.5t32.5 35t33 41l146 212l-235 372h-52v3h213v-3h-67l193 -310l138 201q15 22 23.5 42t7 35t-14 23.5t-39.5 8.5h-7v3h170v-3h-4q-18 0 -35 -9t-33.5 -24t-32.5 -35t-31 -42l-140 -204l241 -380h52v-3h-213v3h67l-199 319
l-144 -210q-16 -22 -24.5 -42t-7 -35t14 -23.5t39.5 -8.5h7z" />
    <glyph glyph-name="Y" unicode="Y" horiz-adv-x="649" 
d="M479 697v3h170v-3h-4q-18 0 -35 -9t-33.5 -24t-32.5 -35t-31 -42l-155 -234v-350h62v-3h-207v3h63v339l-224 355h-52v3h213v-3h-67l212 -338l151 229q15 22 23.5 42t7 35t-14 23.5t-39.5 8.5h-7z" />
    <glyph glyph-name="Z" unicode="Z" horiz-adv-x="608" 
d="M464 697h-224q-44 0 -74 -9.5t-50 -30t-32 -53t-20 -78.5h-2v174h495l-424 -697h247q44 0 74 9.5t50 30t32 53t20 78.5h2v-174h-518z" />
    <glyph glyph-name="K" unicode="K" horiz-adv-x="625" 
d="M410 697v3h170v-3h-4q-18 0 -35.5 -9t-35 -24t-35 -34t-35.5 -39l-131 -153l264 -435h52v-3h-215v3h67l-223 370l-84 -99v-271h62v-3h-207v3h63v694h-63v3h207v-3h-62v-418l266 313q18 20 28.5 39t9.5 33.5t-13 23.5t-39 9h-7z" />
    <glyph glyph-name="M" unicode="M" horiz-adv-x="744" 
d="M724 700v-3h-62v-694h62v-3h-205v3h63v684l-217 -687h-34l-244 686v-558q0 -67 21 -96t47 -29h5v-3h-140v3q26 0 44.5 29t18.5 96v569h-63v3h148l218 -622l196 622h142z" />
    <glyph glyph-name="J" unicode="J" horiz-adv-x="333" 
d="M106 697v3h207v-3h-62v-499q0 -41 -6 -78t-20.5 -65.5t-38.5 -45.5t-59 -17q-52 0 -79.5 31.5t-27.5 75.5q0 29 17 48.5t40 19.5q26 0 39.5 -15t13.5 -38q0 -26 -16.5 -40t-36.5 -14q-13 0 -21 4t-11 4q-5 0 -5 -5q0 -8 5 -20t15.5 -23t27 -18.5t39.5 -7.5q40 0 66.5 25
t26.5 73q0 36 -8 64.5t-17.5 61t-17.5 73.5t-8 102v304h-63z" />
    <glyph glyph-name="G" unicode="G" horiz-adv-x="646" 
d="M332 -6q69 0 112 38t43 113v142h-74v3h213v-3h-58v-304h-4v13q0 38 -8.5 55t-29.5 17q-20 0 -37 -12t-38 -27t-49 -27t-70 -12q-65 0 -120.5 28t-96 76t-63 113t-22.5 139q0 78 23.5 144.5t65 115t99 76.5t125.5 28q32 0 54 -6t39.5 -12.5t32.5 -12.5t33 -6q17 0 26 10
t9 27h3v-209h-3q-9 45 -23 82.5t-36.5 64.5t-55.5 42.5t-79 15.5q-60 0 -102 -28t-69 -76t-39 -112.5t-12 -137.5q0 -74 13 -139t39 -114t65.5 -77t93.5 -28z" />
    <glyph glyph-name="N" unicode="N" horiz-adv-x="643" 
d="M87 690v-562q0 -67 21 -96t47 -29h5v-3h-140v3q27 0 45 29t18 96v569h-63v3h154l387 -663v535q0 67 -21 96t-47 29h-5v3h140v-3q-27 0 -45 -29t-18 -96v-572h-70z" />
    <glyph glyph-name="L" unicode="L" horiz-adv-x="534" 
d="M165 3h161q44 0 74 9.5t50 30t32 53t20 78.5h2v-174h-484v3h63v694h-63v3h208v-3h-63v-694z" />
    <glyph glyph-name="period" unicode="." horiz-adv-x="222" 
d="M163 45q0 -22 -14.5 -36.5t-34.5 -14.5q-21 0 -34.5 14t-13.5 36q0 23 14 37.5t34 14.5q22 0 35.5 -14t13.5 -37z" />
    <glyph glyph-name="comma" unicode="," horiz-adv-x="222" 
d="M70 -91q22 6 37 18.5t24.5 26t14 27t4.5 22.5q0 5 -5 5q-2 0 -10 -4t-20 -4q-19 0 -34.5 13t-15.5 38q0 21 13.5 36t36.5 15q25 0 39.5 -17.5t14.5 -42.5q0 -18 -6 -39t-18 -40t-31 -34.5t-44 -22.5v3z" />
    <glyph glyph-name="colon" unicode=":" horiz-adv-x="222" 
d="M163 45q0 -22 -14.5 -36.5t-34.5 -14.5q-21 0 -34.5 14t-13.5 36q0 23 14 37.5t34 14.5q22 0 35.5 -14t13.5 -37zM163 456q0 -22 -14.5 -36.5t-34.5 -14.5q-21 0 -34.5 14t-13.5 36q0 23 14 37.5t34 14.5q22 0 35.5 -14t13.5 -37z" />
    <glyph glyph-name="semicolon" unicode=";" horiz-adv-x="222" 
d="M70 -91q22 6 37 18.5t24.5 26t14 27t4.5 22.5q0 5 -5 5q-2 0 -10 -4t-20 -4q-19 0 -34.5 13t-15.5 38q0 21 13.5 36t36.5 15q25 0 39.5 -17.5t14.5 -42.5q0 -18 -6 -39t-18 -40t-31 -34.5t-44 -22.5v3zM163 456q0 -22 -14.5 -36.5t-34.5 -14.5q-21 0 -34.5 14t-13.5 36
q0 23 14 37.5t34 14.5q22 0 35.5 -14t13.5 -37z" />
    <glyph glyph-name="exclam" unicode="!" horiz-adv-x="222" 
d="M163 45q0 -22 -14.5 -36.5t-34.5 -14.5q-21 0 -34.5 14t-13.5 36q0 23 14 37.5t34 14.5q22 0 35.5 -14t13.5 -37zM112 227q0 62 -7 119.5t-16 110t-16 99.5t-7 88q0 30 14 45.5t34 15.5t34 -15.5t14 -45.5q0 -41 -7 -88t-16 -99.5t-16 -110t-7 -119.5h-4z" />
    <glyph glyph-name="exclamdown" unicode="&#xa1;" horiz-adv-x="222" 
d="M66 456q0 22 14.5 36.5t34.5 14.5q21 0 34.5 -14t13.5 -36q0 -23 -14 -37.5t-34 -14.5q-22 0 -35.5 14t-13.5 37zM117 274q0 -62 7 -119.5t16 -110t16 -99.5t7 -88q0 -30 -14 -45.5t-34 -15.5t-34 15.5t-14 45.5q0 41 7 88t16 99.5t16 110t7 119.5h4z" />
    <glyph glyph-name="question" unicode="?" horiz-adv-x="373" 
d="M159 218q-13 43 -13 77q0 32 9.5 56t23.5 44t30 38.5t30 39t23.5 45.5t9.5 58q0 54 -29.5 88t-82.5 34q-33 0 -56 -10.5t-37.5 -25.5t-21 -30.5t-6.5 -25.5q0 -5 5 -5q2 0 10 4t20 4q19 0 34.5 -13t15.5 -38q0 -21 -14.5 -36t-38.5 -15q-22 0 -36.5 16t-14.5 41t9.5 50
t28.5 45t48.5 32.5t69.5 12.5q77 0 122 -38t45 -104q0 -40 -14 -70t-34.5 -54.5t-44.5 -45.5t-44.5 -41.5t-34.5 -43.5t-14 -52q0 -18 6 -37h-4zM223 45q0 -22 -14.5 -36.5t-34.5 -14.5q-21 0 -34.5 14t-13.5 36q0 23 14 37.5t34 14.5q22 0 35.5 -14t13.5 -37z" />
    <glyph glyph-name="questiondown" unicode="&#xbf;" horiz-adv-x="373" 
d="M204 283q13 -43 13 -77q0 -32 -9.5 -56t-23.5 -44t-30 -38.5t-30 -39t-23.5 -45.5t-9.5 -58q0 -54 29.5 -88t82.5 -34q33 0 56 10.5t37.5 25.5t21 30.5t6.5 25.5q0 5 -5 5q-2 0 -10 -4t-20 -4q-19 0 -34.5 13t-15.5 38q0 21 14.5 36t38.5 15q22 0 36.5 -16t14.5 -41
t-9.5 -50t-28.5 -45t-48.5 -32.5t-69.5 -12.5q-77 0 -122 38t-45 104q0 40 14 70t34.5 54.5t44.5 45.5t44.5 41.5t34.5 43.5t14 52q0 17 -6 37h4zM140 456q0 22 14.5 36.5t34.5 14.5q21 0 34.5 -14t13.5 -36q0 -23 -14 -37.5t-34 -14.5q-22 0 -35.5 14t-13.5 37z" />
    <glyph glyph-name="quotesinglbase" unicode="&#x201a;" horiz-adv-x="222" 
d="M70 -91q22 6 37 18.5t24.5 26t14 27t4.5 22.5q0 5 -5 5q-2 0 -10 -4t-20 -4q-19 0 -34.5 13t-15.5 38q0 21 13.5 36t36.5 15q25 0 39.5 -17.5t14.5 -42.5q0 -18 -6 -39t-18 -40t-31 -34.5t-44 -22.5v3z" />
    <glyph glyph-name="quotedblbase" unicode="&#x201e;" horiz-adv-x="368" 
d="M70 -91q22 6 37 18.5t24.5 26t14 27t4.5 22.5q0 5 -5 5q-2 0 -10 -4t-20 -4q-19 0 -34.5 13t-15.5 38q0 21 13.5 36t36.5 15q25 0 39.5 -17.5t14.5 -42.5q0 -18 -6 -39t-18 -40t-31 -34.5t-44 -22.5v3zM216 -91q22 6 37 18.5t24.5 26t14 27t4.5 22.5q0 5 -5 5
q-2 0 -10 -4t-20 -4q-19 0 -34.5 13t-15.5 38q0 21 13.5 36t36.5 15q25 0 39.5 -17.5t14.5 -42.5q0 -18 -6 -39t-18 -40t-31 -34.5t-44 -22.5v3z" />
    <glyph glyph-name="quotedblright" unicode="&#x201d;" horiz-adv-x="368" 
d="M70 512q22 6 37 18.5t24.5 26t14 27t4.5 22.5q0 5 -5 5q-2 0 -10 -4t-20 -4q-19 0 -34.5 13t-15.5 38q0 21 13.5 36t36.5 15q25 0 39.5 -17.5t14.5 -42.5q0 -18 -6 -39t-18 -40t-31 -34.5t-44 -22.5v3zM216 512q22 6 37 18.5t24.5 26t14 27t4.5 22.5q0 5 -5 5
q-2 0 -10 -4t-20 -4q-19 0 -34.5 13t-15.5 38q0 21 13.5 36t36.5 15q25 0 39.5 -17.5t14.5 -42.5q0 -18 -6 -39t-18 -40t-31 -34.5t-44 -22.5v3z" />
    <glyph glyph-name="quoteright" unicode="&#x2019;" horiz-adv-x="222" 
d="M70 512q22 6 37 18.5t24.5 26t14 27t4.5 22.5q0 5 -5 5q-2 0 -10 -4t-20 -4q-19 0 -34.5 13t-15.5 38q0 21 13.5 36t36.5 15q25 0 39.5 -17.5t14.5 -42.5q0 -18 -6 -39t-18 -40t-31 -34.5t-44 -22.5v3z" />
    <glyph glyph-name="parenleft" unicode="(" horiz-adv-x="317" 
d="M60 324q0 90 20.5 164t54.5 130t78.5 92.5t93.5 50.5v-4q-38 -11 -68 -39t-52 -78.5t-33.5 -126.5t-11.5 -182q0 -107 11.5 -183.5t33.5 -128t52 -80.5t68 -40v-4q-49 14 -93.5 49.5t-78.5 90t-54.5 127t-20.5 162.5z" />
    <glyph glyph-name="parenright" unicode=")" horiz-adv-x="317" 
d="M257 324q0 -90 -20.5 -162.5t-54.5 -127t-78.5 -90t-93.5 -49.5v4q37 11 67.5 40t52.5 80.5t33.5 128t11.5 183.5q0 106 -11.5 182t-33.5 126.5t-52.5 78.5t-67.5 39v4q49 -14 93.5 -50.5t78.5 -92.5t54.5 -130t20.5 -164z" />
    <glyph glyph-name="one" unicode="1" horiz-adv-x="247" 
d="M20 483v3l145 28v-511h62v-3h-207v3h63v492z" />
    <glyph glyph-name="zero" unicode="0" horiz-adv-x="586" 
d="M457 253q0 55 -10 102.5t-30 82.5t-50.5 55.5t-71.5 20.5q-43 0 -74.5 -19.5t-52 -54t-30.5 -81.5t-10 -102t10 -102.5t30 -83t50.5 -56t71.5 -20.5q43 0 74.5 19.5t52 54t30.5 82t10 102.5zM541 258q0 -55 -20 -103.5t-54 -85t-80 -57.5t-97 -21q-53 0 -98 20
t-77.5 55.5t-51 83t-18.5 102.5t20 103.5t54 84.5t79.5 57t96.5 21q53 0 98 -20t78 -55t51.5 -82.5t18.5 -102.5z" />
    <glyph glyph-name="three" unicode="3" horiz-adv-x="529" 
d="M253 517q48 0 88 -10t69.5 -29.5t45.5 -49t16 -68.5q0 -33 -15 -61.5t-41.5 -50.5t-62.5 -36.5t-79 -19.5q50 -2 90.5 -14t69.5 -32.5t44.5 -48.5t15.5 -62q0 -39 -17.5 -72.5t-49.5 -57.5t-77.5 -37.5t-102.5 -13.5q-53 0 -90.5 13t-62.5 32.5t-36.5 43.5t-11.5 47
q0 25 14.5 42.5t36.5 17.5q24 0 38.5 -15t14.5 -36q0 -25 -15.5 -38t-34.5 -13q-12 0 -20 4t-10 4q-5 0 -5 -5q0 -10 9.5 -25t29.5 -29.5t50.5 -24.5t72.5 -10q44 0 78 13t57.5 35t35.5 51.5t12 63.5q0 35 -11.5 65t-34 52.5t-56 35t-77.5 12.5h-71v3h70q42 1 71.5 14t48 35
t27 51.5t8.5 63.5q0 73 -29.5 114.5t-102.5 41.5q-37 0 -66 -12t-51 -32.5t-36.5 -49t-21.5 -61.5h-3v159h3q0 -12 7 -19.5t21 -7.5q15 0 30 4t32.5 9.5t38 9.5t46.5 4z" />
    <glyph glyph-name="five" unicode="5" horiz-adv-x="529" 
d="M140 489h160q41 0 73 3t56 11t40 23.5t26 40.5h3l-51 -144h-317l-50 -262q18 21 44 39q23 15 57 27.5t81 12.5q103 0 164 -45.5t61 -135.5q0 -44 -17.5 -81t-49.5 -65t-77.5 -43.5t-102.5 -15.5q-53 0 -90.5 14.5t-62.5 36t-36.5 47t-11.5 48.5q0 25 14.5 42.5t36.5 17.5
q24 0 38.5 -15t14.5 -36q0 -25 -15.5 -38t-34.5 -13q-12 0 -20 4t-10 4q-5 0 -5 -5q0 -10 9.5 -26.5t29.5 -32.5t50.5 -28t72.5 -12q44 0 78 14.5t57.5 40t35.5 60t12 74.5q0 85 -40.5 132t-125.5 47q-40 0 -69 -11.5t-49 -25.5q-23 -16 -39 -36h-3z" />
    <glyph glyph-name="two" unicode="2" horiz-adv-x="529" 
d="M62 357q0 26 12.5 54.5t36.5 52t60.5 38.5t84.5 15t88 -10t69 -29.5t45 -49t16 -68.5q0 -37 -13 -66t-38 -53.5t-60 -47t-80 -46.5l-142 -81h166q41 0 73 3t56 11t40 23.5t26 40.5h3l-51 -144h-414l225 159q59 42 90.5 90t31.5 113q0 70 -34.5 109.5t-110.5 39.5
q-43 0 -73.5 -13.5t-50 -32t-28.5 -37.5t-9 -29q0 -5 5 -5q2 0 10 4t20 4q19 0 34.5 -13t15.5 -38q0 -21 -14.5 -36t-38.5 -15q-22 0 -36.5 16t-14.5 41z" />
    <glyph glyph-name="seven" unicode="7" horiz-adv-x="529" 
d="M342 218q-23 -41 -37 -79.5t-22 -74.5t-10.5 -69t-3.5 -62q-2 -89 -54 -89q-16 0 -26.5 10.5t-10.5 30.5q0 43 43.5 123t118.5 213l125 220h-233q-41 0 -73 -3t-56 -11t-40 -23.5t-26 -40.5h-3l51 144h421z" />
    <glyph glyph-name="four" unicode="4" horiz-adv-x="529" 
d="M393 64q25 1 44.5 5t33.5 12t24.5 21.5t18.5 33.5h3l-51 -136h-73v-143h62v-3h-198v3h63v143h-302l375 530v-466zM320 63v359l-253 -359h253z" />
    <glyph glyph-name="eight" unicode="8" horiz-adv-x="572" 
d="M286 -8q-114 0 -177.5 47.5t-63.5 126.5q0 34 15.5 63.5t44 51t68.5 34.5t90 15q-86 10 -138.5 52t-52.5 108q0 38 16.5 68.5t45 52t68 33t84.5 11.5q46 0 85.5 -10.5t68 -31t44.5 -50t16 -67.5q0 -33 -14 -61t-39 -49.5t-60 -36t-78 -19.5q50 -2 90 -14t68.5 -32.5
t44 -49t15.5 -62.5q0 -39 -16.5 -72t-47.5 -57t-75.5 -37.5t-101.5 -13.5zM286 -4q40 0 70 12.5t49 35t28.5 53t9.5 65.5q0 34 -10.5 64t-30.5 52.5t-49.5 36t-68.5 13.5t-68 -12.5t-48.5 -34.5t-29 -51.5t-9.5 -63.5q0 -36 9.5 -67t28.5 -54t48.5 -36t70.5 -13zM159 488
q0 -31 6.5 -59.5t21.5 -50t39 -34.5t58 -13q35 0 59.5 13.5t40 36t22.5 51.5t7 61q0 34 -7 63t-22 50t-39.5 33t-58.5 12q-35 0 -59 -12.5t-39 -34.5t-22 -52t-7 -64z" />
    <glyph glyph-name="six" unicode="6" horiz-adv-x="548" 
d="M292 384q100 0 158 -48t58 -139q0 -44 -18 -81t-49 -65t-72.5 -43.5t-88.5 -15.5q-51 0 -93.5 15t-72.5 45.5t-47 77.5t-17 111q0 92 31.5 164.5t80 125.5t106 87t109.5 48v-4q-36 -10 -75 -32t-73 -61t-59.5 -97t-34.5 -141q24 18 63.5 35.5t93.5 17.5zM280 -4
q36 0 63 15.5t45 42t27 61.5t9 74q0 84 -38.5 134.5t-118.5 50.5q-45 0 -78 -15t-54 -32q-2 -19 -3 -39t-1 -42q0 -60 11.5 -106.5t32 -78.5t47.5 -48.5t58 -16.5z" />
    <glyph glyph-name="nine" unicode="9" horiz-adv-x="548" 
d="M266 124q-100 0 -158 50.5t-58 141.5q0 43 18 80t49 63.5t72.5 41.5t88.5 15q51 0 93.5 -15t72.5 -46t47 -77.5t17 -110.5q0 -92 -31.5 -164.5t-80 -125.5t-106 -87t-109.5 -48v4q36 10 74.5 32t72.5 60.5t59.5 96.5t34.5 141q-24 -18 -63 -35t-93 -17zM278 512
q-36 0 -63 -15t-45 -40.5t-27 -59.5t-9 -73q0 -84 38.5 -137t118.5 -53q45 0 77.5 15t54.5 32q2 19 3 39t1 42q0 60 -11.5 106.5t-32 78.5t-47.5 48.5t-58 16.5z" />
    <glyph glyph-name="hyphen" unicode="-" horiz-adv-x="397" 
d="M347 282q-34 0 -55 -1t-36.5 -1.5t-28 -1.5t-30.5 -1q-19 0 -32 1t-27.5 1.5t-34.5 1.5t-53 1v3q33 0 53 1t34.5 1.5t27.5 1.5t32 1q18 0 30.5 -1t28 -1.5t36.5 -1.5t55 -1v-3z" />
    <glyph glyph-name="quoteleft" unicode="&#x2018;" horiz-adv-x="222" 
d="M158 724q-22 -6 -37 -18.5t-24.5 -26t-14 -27t-4.5 -22.5q0 -5 5 -5q2 0 10 4t20 4q19 0 34.5 -13t15.5 -38q0 -21 -13.5 -36t-36.5 -15q-25 0 -39.5 17.5t-14.5 42.5q0 18 6 39t18 40t30.5 34.5t44.5 22.5v-3z" />
    <glyph glyph-name="quotedblleft" unicode="&#x201c;" horiz-adv-x="368" 
d="M303 724q-22 -6 -37 -18.5t-24.5 -26t-14 -27t-4.5 -22.5q0 -5 5 -5q2 0 10 4t20 4q19 0 34.5 -13t15.5 -38q0 -21 -13.5 -36t-36.5 -15q-25 0 -39.5 17.5t-14.5 42.5q0 18 6 39t18 40t30.5 34.5t44.5 22.5v-3zM157 724q-22 -6 -37 -18.5t-24.5 -26t-14 -27t-4.5 -22.5
q0 -5 5 -5q2 0 10 4t20 4q19 0 34.5 -13t15.5 -38q0 -21 -13.5 -36t-36.5 -15q-25 0 -39.5 17.5t-14.5 42.5q0 18 6 39t18 40t30.5 34.5t44.5 22.5v-3z" />
    <glyph glyph-name="quotesingle" unicode="'" horiz-adv-x="222" 
d="M152 659q0 -17 -6 -33.5t-13.5 -35t-13.5 -39t-6 -45.5h-3q0 25 -6.5 45.5t-14 39t-13.5 35t-6 33.5q0 22 12 34t29 12t29 -12t12 -34z" />
    <glyph glyph-name="quotedbl" unicode="&#x22;" horiz-adv-x="368" 
d="M152 659q0 -17 -6 -33.5t-13.5 -35t-13.5 -39t-6 -45.5h-3q0 25 -6.5 45.5t-14 39t-13.5 35t-6 33.5q0 22 12 34t29 12t29 -12t12 -34zM298 659q0 -17 -6 -33.5t-13.5 -35t-13.5 -39t-6 -45.5h-3q0 25 -6.5 45.5t-14 39t-13.5 35t-6 33.5q0 22 12 34t29 12t29 -12t12 -34
z" />
    <glyph glyph-name="asterisk" unicode="*" horiz-adv-x="367" 
d="M78 614q12 -4 23 -13t23 -19t26.5 -20t32.5 -16q0 19 -5.5 36t-11.5 31.5t-11 28t-5 26.5q0 17 9.5 27t23.5 10t23.5 -10t9.5 -27q0 -13 -5 -26.5t-10.5 -28t-10.5 -31.5t-5 -36q18 6 32 16t26 20t23 19t23 13q17 5 29 -1t17 -19q4 -13 -2.5 -25.5t-22.5 -17.5
q-13 -4 -27 -3.5t-29.5 1.5t-32.5 1t-35 -6q12 -15 25.5 -25.5t26.5 -19t24.5 -16t19.5 -17.5q10 -14 8 -28t-13 -22t-24.5 -6t-24.5 16q-8 11 -11.5 24.5t-7 28.5t-8.5 31.5t-17 32.5q-11 -16 -16.5 -32.5t-9.5 -31.5t-7.5 -28.5t-11.5 -24.5q-11 -14 -24.5 -16t-24.5 6
t-13 22t8 28q8 10 19.5 17.5t25 16t27 19t25.5 25.5q-18 6 -35.5 6t-33 -1t-30 -1.5t-26.5 3.5q-16 5 -22.5 17.5t-2.5 25.5q5 13 17 19t29 1z" />
    <glyph glyph-name="endash" unicode="&#x2013;" 
d="M450 281q-45 0 -73.5 -1t-49 -1.5t-38 -1.5t-41.5 -1q-26 0 -43.5 1t-37 1.5t-46.5 1.5t-71 1v3q44 0 71 1t46.5 1.5t37 1.5t43.5 1q24 0 41.5 -1t38 -1.5t49 -1.5t73.5 -1v-3z" />
    <glyph glyph-name="emdash" unicode="&#x2014;" horiz-adv-x="700" 
d="M650 281q-68 0 -111 -1t-73.5 -1.5t-57 -1.5t-61.5 -1q-38 0 -64.5 1t-56.5 1.5t-70 1.5t-106 1v3q66 0 106 1t70 1.5t56.5 1.5t64.5 1q35 0 61.5 -1t57 -1.5t73.5 -1.5t111 -1v-3z" />
    <glyph glyph-name="minus" unicode="&#x2212;" 
d="M450 261q-45 0 -73.5 -1t-49 -1.5t-38 -1.5t-41.5 -1q-26 0 -43.5 1t-37 1.5t-46.5 1.5t-71 1v3q44 0 71 1t46.5 1.5t37 1.5t43.5 1q24 0 41.5 -1t38 -1.5t49 -1.5t73.5 -1v-3z" />
    <glyph glyph-name="plus" unicode="+" 
d="M252 463q0 -44 0.5 -71.5t1.5 -47.5t2 -36.5t1 -38.5q21 0 37.5 -1t36.5 -2t47.5 -1.5t71.5 -0.5v-3q-44 0 -71.5 -1t-47.5 -1.5t-36.5 -1.5t-37.5 -1q0 -23 -1 -40.5t-2 -37.5t-1.5 -46.5t-0.5 -68.5h-3q0 42 -1 68.5t-1.5 46.5t-1.5 37.5t-1 40.5q-24 0 -41 1t-37 1.5
t-47 1.5t-69 1v3q42 0 69 0.5t47 1.5t37 2t41 1q0 22 1 38.5t1.5 36.5t1.5 47.5t1 71.5h3z" />
    <glyph glyph-name="multiply" unicode="&#xd7;" 
d="M95 419q31 -31 53.5 -52t39.5 -37t31.5 -29.5t30.5 -29.5q16 16 30 29.5t31.5 29.5t39.5 37t54 52l1 -1q-31 -32 -52 -54t-37 -39.5t-29.5 -31.5t-29.5 -30q17 -17 31 -32.5t30 -32.5t36.5 -38.5t50.5 -51.5l-1 -1q-30 30 -52 50.5t-39 36.5t-32 30t-32 31
q-17 -17 -32.5 -31t-32.5 -30t-38.5 -36.5t-51.5 -50.5l-1 1q30 30 50.5 51.5t36.5 38.5t30 32.5t31 32.5q-16 16 -29.5 30t-29.5 31.5t-37 39.5t-52 54z" />
    <glyph glyph-name="bar" unicode="|" horiz-adv-x="213" 
d="M108 731q0 -67 0.5 -115.5t1 -86t1 -66.5t1 -55.5t1 -54t0.5 -62.5q0 -56 -1 -96t-1.5 -84t-1.5 -104t-1 -156h-3q0 96 -1 156t-1.5 104t-1.5 84t-1 96q0 35 0.5 62.5t1 54t1 55.5t1 66.5t1 86t0.5 115.5h3z" />
    <glyph glyph-name="brokenbar" unicode="&#xa6;" horiz-adv-x="213" 
d="M108 730q0 -45 1 -73.5t1.5 -48.5t1.5 -37t1 -41q0 -26 -1 -43.5t-1.5 -38t-1.5 -47.5t-1 -71h-3q0 44 -1 71t-1.5 47.5t-1.5 38t-1 43.5q0 24 1 41t1.5 37t1.5 48.5t1 73.5h3zM108 251q0 -45 1 -73.5t1.5 -48.5t1.5 -37t1 -41q0 -26 -1 -43.5t-1.5 -38t-1.5 -47.5
t-1 -71h-3q0 44 -1 71t-1.5 47.5t-1.5 38t-1 43.5q0 24 1 41t1.5 37t1.5 48.5t1 73.5h3z" />
    <glyph glyph-name="equal" unicode="=" 
d="M450 321q-45 0 -73.5 -1t-49 -1.5t-38 -1.5t-41.5 -1q-26 0 -43.5 1t-37 1.5t-46.5 1.5t-71 1v3q44 0 71 1t46.5 1.5t37 1.5t43.5 1q24 0 41.5 -1t38 -1.5t49 -1.5t73.5 -1v-3zM450 201q-45 0 -73.5 -1t-49 -1.5t-38 -1.5t-41.5 -1q-26 0 -43.5 1t-37 1.5t-46.5 1.5
t-71 1v3q44 0 71 1t46.5 1.5t37 1.5t43.5 1q24 0 41.5 -1t38 -1.5t49 -1.5t73.5 -1v-3z" />
    <glyph glyph-name="notequal" unicode="&#x2260;" 
d="M316 463q-17 -53 -25.5 -82.5t-14.5 -51.5q16 0 31 -1t34 -2t45 -1.5t64 -0.5v-3q-39 0 -65 -0.5t-45 -1.5t-34.5 -2t-32.5 -1l-34 -107q27 0 46.5 -1t41 -1.5t50 -1.5t73.5 -1v-3q-45 0 -74 -1t-51 -1.5t-42.5 -1.5t-49.5 -1q-8 -23 -18.5 -52t-27.5 -81h-3q17 52 25 81
t14 52q-18 0 -33 1t-33.5 2t-43.5 1.5t-63 0.5v3q39 0 64 0.5t43.5 1.5t34 2t34.5 1l35 107q-31 0 -51 1t-41 1.5t-48 1.5t-71 1v3q44 0 71 1t48.5 1.5t43 1.5t54.5 1q8 22 18.5 51.5t27.5 82.5h3z" />
    <glyph glyph-name="numbersign" unicode="#" 
d="M465 334q-44 0 -71 -0.5t-47 -1.5q-2 -18 -4 -35.5t-6 -40.5q-4 -19 -6.5 -34t-5.5 -29q20 -1 47 -1.5t70 -0.5v-3q-44 0 -71 -0.5t-47 -1.5q-3 -16 -6.5 -33t-7.5 -38.5t-9 -49t-11 -65.5h-3q6 38 10 65.5t7 48.5t5 38t4 33q-18 -1 -34 -1.5t-37 -0.5q-25 0 -42 0.5
t-36 1.5q-3 -16 -6.5 -33t-7.5 -38t-9 -48.5t-11 -65.5h-3q6 38 10 65.5t7 49t5 38.5t4 33q-20 1 -45.5 1.5t-65.5 0.5v3q41 0 66.5 0.5t45.5 1.5q2 14 4 29t6 34l13 76q-20 1 -45.5 1.5t-66.5 0.5v3q42 0 68 0.5t46 1.5q3 14 6 30t6.5 36.5t8 46.5t10.5 60h3
q-11 -68 -16 -106.5t-9 -66.5q19 1 36 2t41 1q22 0 38.5 -1t35.5 -2q5 28 12.5 66.5t18.5 106.5h3q-6 -34 -9.5 -60t-6.5 -46.5t-5 -36.5t-4 -30q20 -1 47 -1.5t70 -0.5v-3zM242 196q22 0 38 -1t34 -2q3 27 10 63l13 75q-18 -1 -34 -1.5t-38 -0.5q-25 0 -42 0.5t-36 1.5
q-2 -17 -4 -34.5t-6 -40.5l-12 -63q19 1 36 2t41 1z" />
    <glyph glyph-name="ampersand" unicode="&#x26;" horiz-adv-x="759" 
d="M507 317q36 0 62.5 8t43 20t24.5 26t8 26q0 5 -5 5q-2 0 -10 -4t-20 -4q-19 0 -34.5 13t-15.5 38q0 21 14.5 36t38.5 15q22 0 36.5 -16t14.5 -41q0 -48 -33 -83t-97 -41q79 -6 125.5 -40.5t46.5 -88.5q0 -37 -18.5 -72.5t-57.5 -63t-99.5 -44.5t-144.5 -17
q-88 0 -151.5 15.5t-104.5 43t-60.5 65t-19.5 80.5t20 78t53.5 60t78.5 40t95 19q-34 6 -64.5 16t-53.5 27t-36.5 41t-13.5 57q0 38 16 68.5t44 51.5t66.5 32.5t82.5 11.5q48 0 81.5 -12t55.5 -31.5t32 -43t10 -45.5q0 -25 -15 -41t-37 -16q-24 0 -38 13.5t-14 34.5
q0 25 15.5 38t34.5 13q12 0 20 -4t10 -4q5 0 5 5q0 10 -7 24.5t-24 28t-45 23t-70 9.5q-33 0 -60.5 -10.5t-47 -30t-30 -47.5t-10.5 -62q0 -68 36.5 -108t102.5 -40h9v-3h-17q-44 0 -81.5 -14t-64.5 -39.5t-42.5 -61.5t-15.5 -80q0 -36 15 -71.5t46 -64t79 -46t115 -17.5
q65 0 111.5 15.5t76.5 41.5t44.5 59.5t14.5 69.5q0 63 -30.5 99t-95.5 37q-36 0 -62.5 -7.5t-44.5 -19.5t-26.5 -25.5t-8.5 -25.5q0 -5 5 -5q2 0 10 4t20 4q19 0 34.5 -13t15.5 -38q0 -21 -14.5 -36t-38.5 -15q-22 0 -36.5 16t-14.5 41q0 54 42 88.5t119 34.5z" />
    <glyph glyph-name="circumflex" unicode="&#x2c6;" 
d="M260 730q14 -12 23.5 -21t20 -20t25.5 -25t40 -35l-2 -2q-26 21 -41.5 33t-27.5 20l-22.5 15t-25.5 19q-15 -12 -25.5 -19l-22.5 -15t-28 -20t-41 -33l-2 2q25 21 39.5 35t25 24.5l20 20t24.5 21.5q11 9 20 0z" />
    <glyph glyph-name="acircumflex" unicode="&#xe2;" horiz-adv-x="509" 
d="M115 432q19 0 34.5 -13t15.5 -38q0 -21 -14.5 -36t-38.5 -15q-22 0 -36.5 16t-14.5 41q0 22 11 45.5t32.5 43t52.5 31.5t71 12q87 0 135.5 -53.5t48.5 -140.5v-255q0 -24 12.5 -35.5t29.5 -11.5q19 0 32 13t15 34h3q-1 -11 -6 -25t-15 -26t-25.5 -20.5t-37.5 -8.5
q-39 0 -59.5 23t-24.5 73q-8 -17 -22 -34t-34 -30.5t-45.5 -22.5t-55.5 -9q-27 0 -51 8t-42.5 23.5t-29.5 38t-11 51.5q0 47 22 74t55.5 43.5t72.5 28.5t72.5 28.5t55.5 44t22 75.5q0 54 -33.5 81.5t-98.5 27.5q-33 0 -58 -10.5t-41.5 -24.5t-25 -28t-8.5 -22q0 -5 5 -5
q2 0 10 4t20 4zM335 339q-14 -23 -35 -38.5t-44 -28t-46.5 -25t-42 -29.5t-30 -41t-11.5 -59q0 -46 27 -73t72 -27q25 0 45.5 8.5t34.5 22.5t22 32.5t8 38.5v219zM249 669q14 -12 23.5 -21t20 -20t25.5 -25t40 -35l-2 -2q-26 21 -41.5 33t-27.5 20l-22.5 15t-25.5 19
q-15 -12 -25.5 -19l-22.5 -15t-28 -20t-41 -33l-2 2q25 21 39.5 35t25 24.5l20 20t24.5 21.5q11 9 20 0z" />
    <glyph glyph-name="grave" unicode="`" 
d="M152 704q-5 2 -8.5 5t-3.5 7q0 9 9 9q4 0 10 -2q35 -15 78 -40.5t103 -51.5l-1 -3q-60 28 -106 45t-81 31z" />
    <glyph glyph-name="agrave" unicode="&#xe0;" horiz-adv-x="509" 
d="M115 432q19 0 34.5 -13t15.5 -38q0 -21 -14.5 -36t-38.5 -15q-22 0 -36.5 16t-14.5 41q0 22 11 45.5t32.5 43t52.5 31.5t71 12q87 0 135.5 -53.5t48.5 -140.5v-255q0 -24 12.5 -35.5t29.5 -11.5q19 0 32 13t15 34h3q-1 -11 -6 -25t-15 -26t-25.5 -20.5t-37.5 -8.5
q-39 0 -59.5 23t-24.5 73q-8 -17 -22 -34t-34 -30.5t-45.5 -22.5t-55.5 -9q-27 0 -51 8t-42.5 23.5t-29.5 38t-11 51.5q0 47 22 74t55.5 43.5t72.5 28.5t72.5 28.5t55.5 44t22 75.5q0 54 -33.5 81.5t-98.5 27.5q-33 0 -58 -10.5t-41.5 -24.5t-25 -28t-8.5 -22q0 -5 5 -5
q2 0 10 4t20 4zM335 339q-14 -23 -35 -38.5t-44 -28t-46.5 -25t-42 -29.5t-30 -41t-11.5 -59q0 -46 27 -73t72 -27q25 0 45.5 8.5t34.5 22.5t22 32.5t8 38.5v219zM166 704q-5 2 -8.5 5t-3.5 7q0 9 9 9q4 0 10 -2q35 -15 78 -40.5t103 -51.5l-1 -3q-60 28 -106 45t-81 31z
" />
    <glyph glyph-name="aacute" unicode="&#xe1;" horiz-adv-x="509" 
d="M115 432q19 0 34.5 -13t15.5 -38q0 -21 -14.5 -36t-38.5 -15q-22 0 -36.5 16t-14.5 41q0 22 11 45.5t32.5 43t52.5 31.5t71 12q87 0 135.5 -53.5t48.5 -140.5v-255q0 -24 12.5 -35.5t29.5 -11.5q19 0 32 13t15 34h3q-1 -11 -6 -25t-15 -26t-25.5 -20.5t-37.5 -8.5
q-39 0 -59.5 23t-24.5 73q-8 -17 -22 -34t-34 -30.5t-45.5 -22.5t-55.5 -9q-27 0 -51 8t-42.5 23.5t-29.5 38t-11 51.5q0 47 22 74t55.5 43.5t72.5 28.5t72.5 28.5t55.5 44t22 75.5q0 54 -33.5 81.5t-98.5 27.5q-33 0 -58 -10.5t-41.5 -24.5t-25 -28t-8.5 -22q0 -5 5 -5
q2 0 10 4t20 4zM335 339q-14 -23 -35 -38.5t-44 -28t-46.5 -25t-42 -29.5t-30 -41t-11.5 -59q0 -46 27 -73t72 -27q25 0 45.5 8.5t34.5 22.5t22 32.5t8 38.5v219zM350 704q-35 -14 -81 -31t-106 -45l-1 3q60 26 103 51.5t78 40.5q6 2 10 2q9 0 9 -9q0 -4 -3.5 -7t-8.5 -5z
" />
    <glyph glyph-name="caron" unicode="&#x2c7;" 
d="M260 637q-9 -9 -20 0q-15 12 -24.5 21.5l-20 20t-25 24.5t-39.5 35l2 2q25 -21 41 -33t28 -20l22.5 -15t25.5 -19q15 12 25.5 19l22.5 15t27.5 20t41.5 33l2 -2q-25 -21 -40 -35t-25.5 -25t-20 -20t-23.5 -21z" />
    <glyph glyph-name="odieresis" unicode="&#xf6;" horiz-adv-x="557" 
d="M429 253q0 55 -9 102.5t-27.5 82.5t-46.5 55.5t-65 20.5q-39 0 -68 -19.5t-47.5 -54t-28 -81.5t-9.5 -102t9 -102.5t27.5 -83t46.5 -56t65 -20.5q39 0 68 19.5t47.5 54t28 82t9.5 102.5zM512 258q0 -55 -18.5 -103.5t-51 -85t-75.5 -57.5t-91 -21q-50 0 -92.5 20
t-73 55.5t-48 83t-17.5 102.5t18.5 103.5t51 84.5t75.5 57t91 21q50 0 92.5 -20t73 -55t48 -82.5t17.5 -102.5zM249 654q0 -22 -14.5 -36.5t-34.5 -14.5q-21 0 -34.5 14t-13.5 36q0 23 14 37.5t34 14.5q22 0 35.5 -14t13.5 -37zM408 654q0 -22 -14.5 -36.5t-34.5 -14.5
q-21 0 -34.5 14t-13.5 36q0 23 14 37.5t34 14.5q22 0 35.5 -14t13.5 -37z" />
    <glyph glyph-name="acute" unicode="&#xb4;" 
d="M348 704q-35 -14 -81 -31t-106 -45l-1 3q60 26 103 51.5t78 40.5q6 2 10 2q9 0 9 -9q0 -4 -3.5 -7t-8.5 -5z" />
    <glyph glyph-name="dieresis" unicode="&#xa8;" 
d="M219 654q0 -22 -14.5 -36.5t-34.5 -14.5q-21 0 -34.5 14t-13.5 36q0 23 14 37.5t34 14.5q22 0 35.5 -14t13.5 -37zM378 654q0 -22 -14.5 -36.5t-34.5 -14.5q-21 0 -34.5 14t-13.5 36q0 23 14 37.5t34 14.5q22 0 35.5 -14t13.5 -37z" />
    <glyph glyph-name="adieresis" unicode="&#xe4;" horiz-adv-x="509" 
d="M115 432q19 0 34.5 -13t15.5 -38q0 -21 -14.5 -36t-38.5 -15q-22 0 -36.5 16t-14.5 41q0 22 11 45.5t32.5 43t52.5 31.5t71 12q87 0 135.5 -53.5t48.5 -140.5v-255q0 -24 12.5 -35.5t29.5 -11.5q19 0 32 13t15 34h3q-1 -11 -6 -25t-15 -26t-25.5 -20.5t-37.5 -8.5
q-39 0 -59.5 23t-24.5 73q-8 -17 -22 -34t-34 -30.5t-45.5 -22.5t-55.5 -9q-27 0 -51 8t-42.5 23.5t-29.5 38t-11 51.5q0 47 22 74t55.5 43.5t72.5 28.5t72.5 28.5t55.5 44t22 75.5q0 54 -33.5 81.5t-98.5 27.5q-33 0 -58 -10.5t-41.5 -24.5t-25 -28t-8.5 -22q0 -5 5 -5
q2 0 10 4t20 4zM335 339q-14 -23 -35 -38.5t-44 -28t-46.5 -25t-42 -29.5t-30 -41t-11.5 -59q0 -46 27 -73t72 -27q25 0 45.5 8.5t34.5 22.5t22 32.5t8 38.5v219zM228 654q0 -22 -14.5 -36.5t-34.5 -14.5q-21 0 -34.5 14t-13.5 36q0 23 14 37.5t34 14.5q22 0 35.5 -14
t13.5 -37zM387 654q0 -22 -14.5 -36.5t-34.5 -14.5q-21 0 -34.5 14t-13.5 36q0 23 14 37.5t34 14.5q22 0 35.5 -14t13.5 -37z" />
    <glyph glyph-name="udieresis" unicode="&#xfc;" horiz-adv-x="572" 
d="M396 91q-7 -18 -20.5 -36.5t-33 -32.5t-45 -23t-56.5 -9q-74 0 -110 52t-36 138v257q0 24 -13 35.5t-30 11.5t-29.5 -13t-14.5 -34h-3q1 11 6 25t15.5 26t26.5 20.5t38 8.5q39 0 60.5 -29t21.5 -82v-297q0 -51 26.5 -77.5t72.5 -26.5q28 0 51 11.5t39.5 30t25 42.5
t8.5 50v365h-62v3h138v-437q0 -24 13 -35.5t30 -11.5t29.5 13t14.5 34h3q-1 -11 -6 -25t-15.5 -26t-26.5 -20.5t-38 -8.5q-34 0 -55 27.5t-25 73.5zM224 654q0 -22 -14.5 -36.5t-34.5 -14.5q-21 0 -34.5 14t-13.5 36q0 23 14 37.5t34 14.5q22 0 35.5 -14t13.5 -37zM383 654
q0 -22 -14.5 -36.5t-34.5 -14.5q-21 0 -34.5 14t-13.5 36q0 23 14 37.5t34 14.5q22 0 35.5 -14t13.5 -37z" />
    <glyph glyph-name="slash" unicode="/" horiz-adv-x="312" 
d="M272 723q-17 -56 -29.5 -98t-21.5 -73.5t-16 -56.5t-13.5 -47.5t-13 -46t-15.5 -52.5q-10 -32 -18 -56.5t-15.5 -48t-16 -48t-18.5 -55.5t-22.5 -71t-29.5 -95h-3q17 55 29 95t21 71t15.5 55.5t13.5 48t14 48t17 56.5q13 44 23.5 76t23 70t29.5 90.5t43 137.5h3z" />
    <glyph glyph-name="backslash" unicode="\" horiz-adv-x="312" 
d="M43 723q26 -85 43 -137.5t29.5 -90.5t23 -70t23.5 -76q10 -32 17 -56.5t14 -48t13.5 -48t15.5 -55.5t21 -71t29 -95h-3q-17 55 -29.5 95t-22.5 71t-18.5 55.5t-16 48t-15.5 48t-18 56.5q-9 29 -15.5 52.5t-13 46t-13.5 47.5t-16 56.5t-21.5 73t-29.5 98.5h3z" />
    <glyph glyph-name="less" unicode="&#x3c;" 
d="M449 135q-58 18 -101 31.5t-76.5 23.5t-59.5 17.5t-50 14.5t-49 14.5t-55 17.5q-8 3 -8 8t8 8q31 10 55.5 17.5t48.5 14.5t50 14.5t59.5 17.5t76.5 23t101 32l1 -3q-84 -27 -137.5 -44.5t-92.5 -31t-71 -24.5t-74 -24q28 -9 51 -17t46 -15.5t48 -16.5t57.5 -19.5
t74.5 -24l98 -31.5z" />
    <glyph glyph-name="greater" unicode="&#x3e;" 
d="M50 138l98 31.5t74.5 24t57.5 19.5t48 16.5t46 15.5t51 17q-42 13 -74 24t-71 24.5t-92.5 31t-137.5 44.5l1 3q58 -18 101 -31.5t76.5 -23.5t59.5 -17.5t50 -14.5t48.5 -14.5t55.5 -17.5q8 -3 8 -8t-8 -8q-30 -10 -55 -17.5t-49 -14.5t-50 -14.5t-59.5 -17.5t-76.5 -23.5
t-101 -31.5z" />
    <glyph glyph-name="lessequal" unicode="&#x2264;" 
d="M449 185q-58 18 -101 31.5t-76.5 23.5t-59.5 17.5t-50 14.5t-49 14.5t-55 17.5q-8 3 -8 8t8 8q31 10 55.5 17.5t48.5 14.5t50 14.5t59.5 17.5t76.5 23t101 32l1 -3q-84 -27 -137.5 -44.5t-92.5 -31t-71 -24.5t-74 -24q28 -9 51 -17t46 -15.5t48 -16.5t57.5 -19.5
t74.5 -24l98 -31.5zM450 95q-45 0 -73.5 -1t-49 -1.5t-38 -1.5t-41.5 -1q-26 0 -43.5 1t-37 1.5t-46.5 1.5t-71 1v3q44 0 71 1t46.5 1.5t37 1.5t43.5 1q24 0 41.5 -1t38 -1.5t49 -1.5t73.5 -1v-3z" />
    <glyph glyph-name="greaterequal" unicode="&#x2265;" 
d="M50 98q45 0 73.5 1t49 1.5t38 1.5t41.5 1q25 0 43 -1t37.5 -1.5t46.5 -1.5t71 -1v-3q-44 0 -71 -1t-46.5 -1.5t-37.5 -1.5t-43 -1q-24 0 -41.5 1t-38 1.5t-49 1.5t-73.5 1v3zM50 188l98 31.5t74.5 24t57.5 19.5t48 16.5t46 15.5t51 17q-42 13 -74 24t-71 24.5t-92.5 31
t-137.5 44.5l1 3q58 -18 101 -31.5t76.5 -23.5t59.5 -17.5t50 -14.5t48.5 -14.5t55.5 -17.5q8 -3 8 -8t-8 -8q-30 -10 -55 -17.5t-49 -14.5t-50 -14.5t-59.5 -17.5t-76.5 -23.5t-101 -31.5z" />
    <glyph glyph-name="plusminus" unicode="&#xb1;" 
d="M252 493q0 -39 0.5 -64t1.5 -43t2 -33t1 -34q21 0 37.5 -1t36.5 -2t47.5 -1.5t71.5 -0.5v-3q-44 0 -71.5 -1t-47.5 -1.5t-36.5 -1.5t-37.5 -1q0 -21 -1 -36.5t-2 -33.5t-1.5 -42t-0.5 -61h-3q0 37 -1 61t-1.5 42t-1.5 33.5t-1 36.5q-24 0 -41 1t-37 1.5t-47 1.5t-69 1v3
q42 0 69 0.5t47 1.5t37 2t41 1q0 19 1 34t1.5 33t1.5 43t1 64h3zM450 95q-45 0 -73.5 -1t-49 -1.5t-38 -1.5t-41.5 -1q-26 0 -43.5 1t-37 1.5t-46.5 1.5t-71 1v3q44 0 71 1t46.5 1.5t37 1.5t43.5 1q24 0 41.5 -1t38 -1.5t49 -1.5t73.5 -1v-3z" />
    <glyph glyph-name="ellipsis" unicode="&#x2026;" horiz-adv-x="666" 
d="M163 45q0 -22 -14.5 -36.5t-34.5 -14.5q-21 0 -34.5 14t-13.5 36q0 23 14 37.5t34 14.5q22 0 35.5 -14t13.5 -37zM385 45q0 -22 -14.5 -36.5t-34.5 -14.5q-21 0 -34.5 14t-13.5 36q0 23 14 37.5t34 14.5q22 0 35.5 -14t13.5 -37zM607 45q0 -22 -14.5 -36.5t-34.5 -14.5
q-21 0 -34.5 14t-13.5 36q0 23 14 37.5t34 14.5q22 0 35.5 -14t13.5 -37z" />
    <glyph glyph-name="divide" unicode="&#xf7;" 
d="M450 261q-45 0 -73.5 -1t-48.5 -1.5t-37 -1.5t-41 -1q-26 0 -43.5 1t-38 1.5t-47.5 1.5t-71 1v3q44 0 71 1t47.5 1.5t38 1.5t43.5 1q24 0 41 -1t37 -1.5t48.5 -1.5t73.5 -1v-3zM231 433q0 8 5.5 14t13.5 6t14 -6t6 -14t-6 -13.5t-14 -5.5q-19 0 -19 19zM231 91
q0 8 5.5 14t13.5 6t14 -6t6 -14t-6 -13.5t-14 -5.5q-19 0 -19 19z" />
    <glyph glyph-name="asciicircum" unicode="^" 
d="M374 62q-27 84 -44.5 137.5t-30.5 92.5t-24.5 71t-24.5 74q-14 -42 -24.5 -74t-24 -71t-31 -92.5t-44.5 -137.5l-3 1q18 58 31.5 101t23.5 76.5t17.5 59.5t14.5 50t14.5 48.5t17.5 55.5q3 8 8 8t8 -8q10 -30 17.5 -55t14.5 -49t14.5 -50t17.5 -59.5t23 -76.5t32 -101z
" />
    <glyph glyph-name="underscore" unicode="_" 
d="M502 -104h-504v3h504v-3z" />
    <glyph glyph-name="dotaccent" unicode="&#x2d9;" 
d="M298 654q0 -22 -14.5 -36.5t-34.5 -14.5q-21 0 -34.5 14t-13.5 36q0 23 14 37.5t34 14.5q22 0 35.5 -14t13.5 -37z" />
    <glyph glyph-name="macron" unicode="&#xaf;" 
d="M400 669q-34 0 -55 -1t-36.5 -1.5t-28 -1.5t-30.5 -1q-19 0 -32 1t-27.5 1.5t-34.5 1.5t-53 1v3q33 0 53 1t34.5 1.5t27.5 1.5t32 1q18 0 30.5 -1t28 -1.5t36.5 -1.5t55 -1v-3z" />
    <glyph glyph-name="ring" unicode="&#x2da;" 
d="M154 682q0 39 27 66.5t66 27.5q19 0 36.5 -7.5t30 -20t20 -30t7.5 -36.5q0 -39 -27.5 -66t-66.5 -27t-66 27t-27 66zM170 682q0 -37 19.5 -63.5t57.5 -26.5t58 26.5t20 63.5t-20 64t-58 27t-57.5 -27t-19.5 -64z" />
    <glyph glyph-name="degree" unicode="&#xb0;" horiz-adv-x="358" 
d="M70 599q0 23 8.5 43t23 35t34 23.5t42.5 8.5t43 -8.5t35 -23.5t23.5 -35t8.5 -43t-8.5 -42.5t-23.5 -34t-35 -23t-43 -8.5t-42.5 8.5t-34 23t-23 34t-8.5 42.5zM89 599q0 -43 22 -74t67 -31t68 31t23 74q0 44 -23 75.5t-68 31.5q-22 0 -38.5 -8.5t-28 -23t-17 -34
t-5.5 -41.5z" />
    <glyph glyph-name="tilde" unicode="&#x2dc;" 
d="M335 657q31 0 51 14.5t36 49.5h3q-17 -38 -38.5 -58.5t-59.5 -20.5q-32 0 -52.5 11t-37.5 24.5t-33 24.5t-39 11q-31 0 -51 -14.5t-36 -49.5h-3q17 38 38.5 58.5t59.5 20.5q25 0 42.5 -11t34.5 -24.5t36.5 -24.5t48.5 -11z" />
    <glyph glyph-name="breve" unicode="&#x2d8;" 
d="M250 644q52 0 93 20.5t60 64.5h3q-20 -48 -59 -73.5t-97 -25.5t-97 25.5t-59 73.5h3q19 -44 60 -64.5t93 -20.5z" />
    <glyph glyph-name="hungarumlaut" unicode="&#x2dd;" 
d="M324 742q-31 -20 -73.5 -45.5t-95.5 -63.5l-2 2q54 37 91.5 70t69.5 54q4 3 9 4q10 2 11 -7q1 -4 -2 -8t-8 -6zM381 676q-35 -14 -81 -31t-106 -45l-1 3q60 26 103 51.5t78 40.5q6 2 10 2q9 0 9 -9q0 -4 -3.5 -7t-8.5 -5z" />
    <glyph glyph-name="asciitilde" unicode="~" 
d="M348 236q35 0 58.5 16t41.5 51h3q-19 -39 -43.5 -59.5t-68.5 -20.5q-37 0 -60.5 11.5t-43 25.5t-38 25.5t-44.5 11.5q-35 0 -58.5 -16t-41.5 -51h-3q19 39 43.5 59.5t68.5 20.5q29 0 49 -11.5t39.5 -25.5t42 -25.5t55.5 -11.5z" />
    <glyph glyph-name="approxequal" unicode="&#x2248;" 
d="M348 295q35 0 58.5 16t41.5 51h3q-19 -39 -43.5 -59.5t-68.5 -20.5q-37 0 -60.5 11.5t-43 25.5t-38 25.5t-44.5 11.5q-35 0 -58.5 -16t-41.5 -51h-3q19 39 43.5 59.5t68.5 20.5q29 0 49 -11.5t39.5 -25.5t42 -25.5t55.5 -11.5zM348 175q35 0 58.5 16t41.5 51h3
q-19 -39 -43.5 -59.5t-68.5 -20.5q-37 0 -60.5 11.5t-43 25.5t-38 25.5t-44.5 11.5q-35 0 -58.5 -16t-41.5 -51h-3q19 39 43.5 59.5t68.5 20.5q29 0 49 -11.5t39.5 -25.5t42 -25.5t55.5 -11.5z" />
    <glyph glyph-name="cedilla" unicode="&#xb8;" 
d="M242 -2h3l-72 -75q2 1 17.5 7.5t45.5 6.5q37 0 62.5 -14t25.5 -44t-27 -49.5t-69 -19.5t-62 16.5t-20 32.5q0 8 6 14.5t14 6.5q10 0 15.5 -5.5t5.5 -13.5t-6 -13t-13 -5q-5 0 -8 2t-4 2q-2 0 -2 -2q0 -7 16.5 -19.5t48.5 -12.5q41 0 61 17.5t20 45.5q0 29 -19.5 43.5
t-54.5 14.5q-14 0 -24.5 -2.5t-16.5 -5.5q-8 -4 -12 -7h-6z" />
    <glyph glyph-name="ccedilla" unicode="&#xe7;" horiz-adv-x="471" 
d="M269 -10q-50 0 -91 21t-70.5 56.5t-46 83t-16.5 102.5t18 103.5t49.5 85t75 57.5t93.5 21q40 0 70 -11t49 -29t28.5 -40.5t9.5 -44.5q0 -25 -14.5 -42.5t-36.5 -17.5q-24 0 -38.5 15t-14.5 36q0 25 15.5 38t34.5 13q12 0 20 -4t10 -4q5 0 5 5q0 8 -7 21.5t-21.5 27
t-38 23t-56.5 9.5q-39 0 -70 -18t-53 -51t-33.5 -80.5t-11.5 -107.5q0 -55 12.5 -101.5t36 -80.5t56 -53t73.5 -19q24 0 46 8t40 23t30 36.5t15 49.5h4q-6 -57 -50 -93.5t-119 -37.5l-64 -66q2 1 17 7t46 6q37 0 62.5 -14t25.5 -44t-27 -49.5t-69 -19.5t-62 16.5t-20 32.5
q0 8 6 14.5t14 6.5q10 0 15.5 -5.5t5.5 -13.5t-6 -13t-13 -5q-5 0 -8 2t-4 2q-2 0 -2 -2q0 -7 16.5 -19.5t48.5 -12.5q41 0 61 17.5t20 45.5q0 29 -19.5 43.5t-54.5 14.5q-14 0 -24 -2.5t-17 -5.5q-8 -4 -13 -7h-6z" />
    <glyph glyph-name="ogonek" unicode="&#x2db;" 
d="M258 2l1 -2q-26 -6 -46 -18q-17 -11 -31 -29.5t-14 -47.5q0 -33 22 -54t73 -21q19 0 33 4.5t23.5 10.5t14.5 12.5t5 10.5q0 3 -2 3q-1 0 -4.5 -2.5t-9.5 -2.5q-8 0 -15 6t-7 15q0 8 6.5 15.5t18.5 7.5q9 0 15.5 -8t6.5 -17q0 -19 -23.5 -38.5t-71.5 -19.5t-77.5 20.5
t-29.5 56.5q0 29 16 47.5t36 29.5q23 12 52 19z" />
    <glyph glyph-name="atilde" unicode="&#xe3;" horiz-adv-x="509" 
d="M115 432q19 0 34.5 -13t15.5 -38q0 -21 -14.5 -36t-38.5 -15q-22 0 -36.5 16t-14.5 41q0 22 11 45.5t32.5 43t52.5 31.5t71 12q87 0 135.5 -53.5t48.5 -140.5v-255q0 -24 12.5 -35.5t29.5 -11.5q19 0 32 13t15 34h3q-1 -11 -6 -25t-15 -26t-25.5 -20.5t-37.5 -8.5
q-39 0 -59.5 23t-24.5 73q-8 -17 -22 -34t-34 -30.5t-45.5 -22.5t-55.5 -9q-27 0 -51 8t-42.5 23.5t-29.5 38t-11 51.5q0 47 22 74t55.5 43.5t72.5 28.5t72.5 28.5t55.5 44t22 75.5q0 54 -33.5 81.5t-98.5 27.5q-33 0 -58 -10.5t-41.5 -24.5t-25 -28t-8.5 -22q0 -5 5 -5
q2 0 10 4t20 4zM335 339q-14 -23 -35 -38.5t-44 -28t-46.5 -25t-42 -29.5t-30 -41t-11.5 -59q0 -46 27 -73t72 -27q25 0 45.5 8.5t34.5 22.5t22 32.5t8 38.5v219zM324 628q31 0 51 14.5t36 49.5h3q-17 -38 -38.5 -58.5t-59.5 -20.5q-32 0 -52.5 11t-37.5 24.5t-33 24.5
t-39 11q-31 0 -51 -14.5t-36 -49.5h-3q17 38 38.5 58.5t59.5 20.5q25 0 42.5 -11t34.5 -24.5t36.5 -24.5t48.5 -11z" />
    <glyph glyph-name="aring" unicode="&#xe5;" horiz-adv-x="509" 
d="M115 432q19 0 34.5 -13t15.5 -38q0 -21 -14.5 -36t-38.5 -15q-22 0 -36.5 16t-14.5 41q0 22 11 45.5t32.5 43t52.5 31.5t71 12q87 0 135.5 -53.5t48.5 -140.5v-255q0 -24 12.5 -35.5t29.5 -11.5q19 0 32 13t15 34h3q-1 -11 -6 -25t-15 -26t-25.5 -20.5t-37.5 -8.5
q-39 0 -59.5 23t-24.5 73q-8 -17 -22 -34t-34 -30.5t-45.5 -22.5t-55.5 -9q-27 0 -51 8t-42.5 23.5t-29.5 38t-11 51.5q0 47 22 74t55.5 43.5t72.5 28.5t72.5 28.5t55.5 44t22 75.5q0 54 -33.5 81.5t-98.5 27.5q-33 0 -58 -10.5t-41.5 -24.5t-25 -28t-8.5 -22q0 -5 5 -5
q2 0 10 4t20 4zM335 339q-14 -23 -35 -38.5t-44 -28t-46.5 -25t-42 -29.5t-30 -41t-11.5 -59q0 -46 27 -73t72 -27q25 0 45.5 8.5t34.5 22.5t22 32.5t8 38.5v219zM158 682q0 39 27 66.5t66 27.5q19 0 36.5 -7.5t30 -20t20 -30t7.5 -36.5q0 -39 -27.5 -66t-66.5 -27t-66 27
t-27 66zM174 682q0 -37 19.5 -63.5t57.5 -26.5t58 26.5t20 63.5t-20 64t-58 27t-57.5 -27t-19.5 -64z" />
    <glyph glyph-name="eacute" unicode="&#xe9;" horiz-adv-x="489" 
d="M292 -5q33 0 58.5 10.5t43.5 24.5t27 28t9 22q0 5 -5 5q-2 0 -10 -4t-20 -4q-19 0 -34.5 13t-15.5 38q0 21 14.5 36t38.5 15q22 0 36.5 -16t14.5 -41q0 -23 -12 -46t-34 -42.5t-54 -31.5t-72 -12q-50 0 -92.5 20.5t-73.5 56t-48.5 83.5t-17.5 103t17 103.5t47.5 85
t72.5 57.5t92 21q38 0 69.5 -9.5t54.5 -27t36 -41.5t13 -53q0 -44 -22.5 -69.5t-56 -41.5t-73 -27t-73 -25.5t-56 -38t-22.5 -64.5q0 -26 10 -49t29.5 -40.5t46.5 -28t62 -10.5zM274 517q-35 0 -62.5 -21.5t-46 -58.5t-28 -85.5t-9.5 -103.5q0 -56 10 -99q7 26 26.5 43.5
t45 31.5t53 27t50.5 31t38 43t15 63q0 56 -23.5 92.5t-68.5 36.5zM355 704q-35 -14 -81 -31t-106 -45l-1 3q60 26 103 51.5t78 40.5q6 2 10 2q9 0 9 -9q0 -4 -3.5 -7t-8.5 -5z" />
    <glyph glyph-name="egrave" unicode="&#xe8;" horiz-adv-x="489" 
d="M292 -5q33 0 58.5 10.5t43.5 24.5t27 28t9 22q0 5 -5 5q-2 0 -10 -4t-20 -4q-19 0 -34.5 13t-15.5 38q0 21 14.5 36t38.5 15q22 0 36.5 -16t14.5 -41q0 -23 -12 -46t-34 -42.5t-54 -31.5t-72 -12q-50 0 -92.5 20.5t-73.5 56t-48.5 83.5t-17.5 103t17 103.5t47.5 85
t72.5 57.5t92 21q38 0 69.5 -9.5t54.5 -27t36 -41.5t13 -53q0 -44 -22.5 -69.5t-56 -41.5t-73 -27t-73 -25.5t-56 -38t-22.5 -64.5q0 -26 10 -49t29.5 -40.5t46.5 -28t62 -10.5zM274 517q-35 0 -62.5 -21.5t-46 -58.5t-28 -85.5t-9.5 -103.5q0 -56 10 -99q7 26 26.5 43.5
t45 31.5t53 27t50.5 31t38 43t15 63q0 56 -23.5 92.5t-68.5 36.5zM162 704q-5 2 -8.5 5t-3.5 7q0 9 9 9q4 0 10 -2q35 -15 78 -40.5t103 -51.5l-1 -3q-60 28 -106 45t-81 31z" />
    <glyph glyph-name="ecircumflex" unicode="&#xea;" horiz-adv-x="489" 
d="M292 -5q33 0 58.5 10.5t43.5 24.5t27 28t9 22q0 5 -5 5q-2 0 -10 -4t-20 -4q-19 0 -34.5 13t-15.5 38q0 21 14.5 36t38.5 15q22 0 36.5 -16t14.5 -41q0 -23 -12 -46t-34 -42.5t-54 -31.5t-72 -12q-50 0 -92.5 20.5t-73.5 56t-48.5 83.5t-17.5 103t17 103.5t47.5 85
t72.5 57.5t92 21q38 0 69.5 -9.5t54.5 -27t36 -41.5t13 -53q0 -44 -22.5 -69.5t-56 -41.5t-73 -27t-73 -25.5t-56 -38t-22.5 -64.5q0 -26 10 -49t29.5 -40.5t46.5 -28t62 -10.5zM274 517q-35 0 -62.5 -21.5t-46 -58.5t-28 -85.5t-9.5 -103.5q0 -56 10 -99q7 26 26.5 43.5
t45 31.5t53 27t50.5 31t38 43t15 63q0 56 -23.5 92.5t-68.5 36.5zM270 669q14 -12 23.5 -21t20 -20t25.5 -25t40 -35l-2 -2q-26 21 -41.5 33t-27.5 20l-22.5 15t-25.5 19q-15 -12 -25.5 -19l-22.5 -15t-28 -20t-41 -33l-2 2q25 21 39.5 35t25 24.5l20 20t24.5 21.5
q11 9 20 0z" />
    <glyph glyph-name="dotlessi" unicode="&#x131;" horiz-adv-x="222" 
d="M155 3h62v-3h-202v3h63v501h-63v3h140v-504z" />
    <glyph glyph-name="edieresis" unicode="&#xeb;" horiz-adv-x="489" 
d="M292 -5q33 0 58.5 10.5t43.5 24.5t27 28t9 22q0 5 -5 5q-2 0 -10 -4t-20 -4q-19 0 -34.5 13t-15.5 38q0 21 14.5 36t38.5 15q22 0 36.5 -16t14.5 -41q0 -23 -12 -46t-34 -42.5t-54 -31.5t-72 -12q-50 0 -92.5 20.5t-73.5 56t-48.5 83.5t-17.5 103t17 103.5t47.5 85
t72.5 57.5t92 21q38 0 69.5 -9.5t54.5 -27t36 -41.5t13 -53q0 -44 -22.5 -69.5t-56 -41.5t-73 -27t-73 -25.5t-56 -38t-22.5 -64.5q0 -26 10 -49t29.5 -40.5t46.5 -28t62 -10.5zM274 517q-35 0 -62.5 -21.5t-46 -58.5t-28 -85.5t-9.5 -103.5q0 -56 10 -99q7 26 26.5 43.5
t45 31.5t53 27t50.5 31t38 43t15 63q0 56 -23.5 92.5t-68.5 36.5zM232 654q0 -22 -14.5 -36.5t-34.5 -14.5q-21 0 -34.5 14t-13.5 36q0 23 14 37.5t34 14.5q22 0 35.5 -14t13.5 -37zM391 654q0 -22 -14.5 -36.5t-34.5 -14.5q-21 0 -34.5 14t-13.5 36q0 23 14 37.5t34 14.5
q22 0 35.5 -14t13.5 -37z" />
    <glyph glyph-name="iacute" unicode="&#xed;" horiz-adv-x="222" 
d="M155 3h62v-3h-202v3h63v501h-63v3h140v-504zM199 704q-35 -14 -81 -31t-106 -45l-1 3q60 26 103 51.5t78 40.5q6 2 10 2q9 0 9 -9q0 -4 -3.5 -7t-8.5 -5z" />
    <glyph glyph-name="igrave" unicode="&#xec;" horiz-adv-x="222" 
d="M155 3h62v-3h-202v3h63v501h-63v3h140v-504zM7 704q-5 2 -8.5 5t-3.5 7q0 9 9 9q4 0 10 -2q35 -15 78 -40.5t103 -51.5l-1 -3q-60 28 -106 45t-81 31z" />
    <glyph glyph-name="icircumflex" unicode="&#xee;" horiz-adv-x="222" 
d="M155 3h62v-3h-202v3h63v501h-63v3h140v-504zM121 730q14 -12 23.5 -21t20 -20t25.5 -25t40 -35l-2 -2q-26 21 -41.5 33t-27.5 20l-22.5 15t-25.5 19q-15 -12 -25.5 -19l-22.5 -15t-28 -20t-41 -33l-2 2q25 21 39.5 35t25 24.5l20 20t24.5 21.5q11 9 20 0z" />
    <glyph glyph-name="idieresis" unicode="&#xef;" horiz-adv-x="222" 
d="M155 3h62v-3h-202v3h63v501h-63v3h140v-504zM80 654q0 -22 -14.5 -36.5t-34.5 -14.5q-21 0 -34.5 14t-13.5 36q0 23 14 37.5t34 14.5q22 0 35.5 -14t13.5 -37zM239 654q0 -22 -14.5 -36.5t-34.5 -14.5q-21 0 -34.5 14t-13.5 36q0 23 14 37.5t34 14.5q22 0 35.5 -14
t13.5 -37z" />
    <glyph glyph-name="ntilde" unicode="&#xf1;" horiz-adv-x="551" 
d="M456 70q0 -24 13 -35.5t30 -11.5t29.5 13t14.5 34h3q-1 -11 -6 -25t-15.5 -26t-26.5 -20.5t-38 -8.5q-39 0 -60.5 29t-21.5 82v297q0 51 -26.5 77.5t-72.5 26.5q-29 0 -51.5 -12t-39 -32t-25 -45t-8.5 -50v-360h62v-3h-202v3h63v501h-63v3h140v-96q7 18 20.5 37t33 34.5
t45 25t56.5 9.5q74 0 110 -52t36 -138v-257zM352 657q31 0 51 14.5t36 49.5h3q-17 -38 -38.5 -58.5t-59.5 -20.5q-32 0 -52.5 11t-37.5 24.5t-33 24.5t-39 11q-31 0 -51 -14.5t-36 -49.5h-3q17 38 38.5 58.5t59.5 20.5q25 0 42.5 -11t34.5 -24.5t36.5 -24.5t48.5 -11z" />
    <glyph glyph-name="oacute" unicode="&#xf3;" horiz-adv-x="557" 
d="M429 253q0 55 -9 102.5t-27.5 82.5t-46.5 55.5t-65 20.5q-39 0 -68 -19.5t-47.5 -54t-28 -81.5t-9.5 -102t9 -102.5t27.5 -83t46.5 -56t65 -20.5q39 0 68 19.5t47.5 54t28 82t9.5 102.5zM512 258q0 -55 -18.5 -103.5t-51 -85t-75.5 -57.5t-91 -21q-50 0 -92.5 20
t-73 55.5t-48 83t-17.5 102.5t18.5 103.5t51 84.5t75.5 57t91 21q50 0 92.5 -20t73 -55t48 -82.5t17.5 -102.5zM376 704q-35 -14 -81 -31t-106 -45l-1 3q60 26 103 51.5t78 40.5q6 2 10 2q9 0 9 -9q0 -4 -3.5 -7t-8.5 -5z" />
    <glyph glyph-name="ograve" unicode="&#xf2;" horiz-adv-x="557" 
d="M429 253q0 55 -9 102.5t-27.5 82.5t-46.5 55.5t-65 20.5q-39 0 -68 -19.5t-47.5 -54t-28 -81.5t-9.5 -102t9 -102.5t27.5 -83t46.5 -56t65 -20.5q39 0 68 19.5t47.5 54t28 82t9.5 102.5zM512 258q0 -55 -18.5 -103.5t-51 -85t-75.5 -57.5t-91 -21q-50 0 -92.5 20
t-73 55.5t-48 83t-17.5 102.5t18.5 103.5t51 84.5t75.5 57t91 21q50 0 92.5 -20t73 -55t48 -82.5t17.5 -102.5zM190 704q-5 2 -8.5 5t-3.5 7q0 9 9 9q4 0 10 -2q35 -15 78 -40.5t103 -51.5l-1 -3q-60 28 -106 45t-81 31z" />
    <glyph glyph-name="ocircumflex" unicode="&#xf4;" horiz-adv-x="557" 
d="M429 253q0 55 -9 102.5t-27.5 82.5t-46.5 55.5t-65 20.5q-39 0 -68 -19.5t-47.5 -54t-28 -81.5t-9.5 -102t9 -102.5t27.5 -83t46.5 -56t65 -20.5q39 0 68 19.5t47.5 54t28 82t9.5 102.5zM512 258q0 -55 -18.5 -103.5t-51 -85t-75.5 -57.5t-91 -21q-50 0 -92.5 20
t-73 55.5t-48 83t-17.5 102.5t18.5 103.5t51 84.5t75.5 57t91 21q50 0 92.5 -20t73 -55t48 -82.5t17.5 -102.5zM288 669q14 -12 23.5 -21t20 -20t25.5 -25t40 -35l-2 -2q-26 21 -41.5 33t-27.5 20l-22.5 15t-25.5 19q-15 -12 -25.5 -19l-22.5 -15t-28 -20t-41 -33l-2 2
q25 21 39.5 35t25 24.5l20 20t24.5 21.5q11 9 20 0z" />
    <glyph glyph-name="otilde" unicode="&#xf5;" horiz-adv-x="557" 
d="M429 253q0 55 -9 102.5t-27.5 82.5t-46.5 55.5t-65 20.5q-39 0 -68 -19.5t-47.5 -54t-28 -81.5t-9.5 -102t9 -102.5t27.5 -83t46.5 -56t65 -20.5q39 0 68 19.5t47.5 54t28 82t9.5 102.5zM512 258q0 -55 -18.5 -103.5t-51 -85t-75.5 -57.5t-91 -21q-50 0 -92.5 20
t-73 55.5t-48 83t-17.5 102.5t18.5 103.5t51 84.5t75.5 57t91 21q50 0 92.5 -20t73 -55t48 -82.5t17.5 -102.5zM370 628q31 0 51 14.5t36 49.5h3q-17 -38 -38.5 -58.5t-59.5 -20.5q-32 0 -52.5 11t-37.5 24.5t-33 24.5t-39 11q-31 0 -51 -14.5t-36 -49.5h-3q17 38 38.5 58.5
t59.5 20.5q25 0 42.5 -11t34.5 -24.5t36.5 -24.5t48.5 -11z" />
    <glyph glyph-name="uacute" unicode="&#xfa;" horiz-adv-x="572" 
d="M396 91q-7 -18 -20.5 -36.5t-33 -32.5t-45 -23t-56.5 -9q-74 0 -110 52t-36 138v257q0 24 -13 35.5t-30 11.5t-29.5 -13t-14.5 -34h-3q1 11 6 25t15.5 26t26.5 20.5t38 8.5q39 0 60.5 -29t21.5 -82v-297q0 -51 26.5 -77.5t72.5 -26.5q28 0 51 11.5t39.5 30t25 42.5
t8.5 50v365h-62v3h138v-437q0 -24 13 -35.5t30 -11.5t29.5 13t14.5 34h3q-1 -11 -6 -25t-15.5 -26t-26.5 -20.5t-38 -8.5q-34 0 -55 27.5t-25 73.5zM362 704q-35 -14 -81 -31t-106 -45l-1 3q60 26 103 51.5t78 40.5q6 2 10 2q9 0 9 -9q0 -4 -3.5 -7t-8.5 -5z" />
    <glyph glyph-name="ugrave" unicode="&#xf9;" horiz-adv-x="572" 
d="M396 91q-7 -18 -20.5 -36.5t-33 -32.5t-45 -23t-56.5 -9q-74 0 -110 52t-36 138v257q0 24 -13 35.5t-30 11.5t-29.5 -13t-14.5 -34h-3q1 11 6 25t15.5 26t26.5 20.5t38 8.5q39 0 60.5 -29t21.5 -82v-297q0 -51 26.5 -77.5t72.5 -26.5q28 0 51 11.5t39.5 30t25 42.5
t8.5 50v365h-62v3h138v-437q0 -24 13 -35.5t30 -11.5t29.5 13t14.5 34h3q-1 -11 -6 -25t-15.5 -26t-26.5 -20.5t-38 -8.5q-34 0 -55 27.5t-25 73.5zM166 704q-5 2 -8.5 5t-3.5 7q0 9 9 9q4 0 10 -2q35 -15 78 -40.5t103 -51.5l-1 -3q-60 28 -106 45t-81 31z" />
    <glyph glyph-name="ucircumflex" unicode="&#xfb;" horiz-adv-x="572" 
d="M396 91q-7 -18 -20.5 -36.5t-33 -32.5t-45 -23t-56.5 -9q-74 0 -110 52t-36 138v257q0 24 -13 35.5t-30 11.5t-29.5 -13t-14.5 -34h-3q1 11 6 25t15.5 26t26.5 20.5t38 8.5q39 0 60.5 -29t21.5 -82v-297q0 -51 26.5 -77.5t72.5 -26.5q28 0 51 11.5t39.5 30t25 42.5
t8.5 50v365h-62v3h138v-437q0 -24 13 -35.5t30 -11.5t29.5 13t14.5 34h3q-1 -11 -6 -25t-15.5 -26t-26.5 -20.5t-38 -8.5q-34 0 -55 27.5t-25 73.5zM264 730q14 -12 23.5 -21t20 -20t25.5 -25t40 -35l-2 -2q-26 21 -41.5 33t-27.5 20l-22.5 15t-25.5 19q-15 -12 -25.5 -19
l-22.5 -15t-28 -20t-41 -33l-2 2q25 21 39.5 35t25 24.5l20 20t24.5 21.5q11 9 20 0z" />
    <glyph glyph-name="zcaron" unicode="&#x17e;" horiz-adv-x="487" 
d="M62 507h380l-314 -484q31 0 56 -5t49.5 -10.5t50.5 -10.5t59 -5q14 0 18.5 4.5t4.5 12.5t-4.5 14.5t-4.5 20.5q0 19 13.5 35t39.5 16q22 0 37 -13.5t15 -37.5q0 -26 -18.5 -46.5t-61.5 -20.5t-75 6.5t-60.5 15t-56.5 15t-62 6.5q-25 0 -50.5 -4.5t-47.5 -15.5l327 504
h-135q-37 0 -67 -11.5t-52.5 -30t-37 -41.5t-20.5 -45h-3zM254 637q-9 -9 -20 0q-15 12 -24.5 21.5l-20 20t-25 24.5t-39.5 35l2 2q25 -21 41 -33t28 -20l22.5 -15t25.5 -19q15 12 25.5 19l22.5 15t27.5 20t41.5 33l2 -2q-25 -21 -40 -35t-25.5 -25t-20 -20t-23.5 -21z" />
    <glyph glyph-name="scaron" unicode="&#x161;" horiz-adv-x="442" 
d="M224 519q28 0 47 -4t33 -9.5t25.5 -9.5t26.5 -4q14 0 21 7.5t7 19.5h3v-159h-3q-6 31 -18 59t-31 49t-46.5 33.5t-64.5 12.5q-62 0 -89.5 -30t-27.5 -72q0 -40 22 -63.5t54.5 -39.5t71 -28.5t71 -29.5t54.5 -43.5t22 -70.5q0 -32 -14 -59t-39 -46.5t-58 -30.5t-72 -11
q-40 0 -73 11.5t-56.5 29.5t-36.5 41t-13 46q0 25 14.5 41t36.5 16q24 0 38.5 -15t14.5 -36q0 -25 -15.5 -38t-34.5 -13q-12 0 -20 4t-10 4q-5 0 -5 -5q0 -8 10.5 -21.5t30 -27t48.5 -23t65 -9.5q60 0 94.5 30t34.5 74q0 39 -22 62.5t-54.5 39.5t-71 28.5t-71 30t-54.5 44
t-22 70.5q0 33 12.5 59.5t35.5 45.5t55.5 29.5t73.5 10.5zM236 637q-9 -9 -20 0q-15 12 -24.5 21.5l-20 20t-25 24.5t-39.5 35l2 2q25 -21 41 -33t28 -20l22.5 -15t25.5 -19q15 12 25.5 19l22.5 15t27.5 20t41.5 33l2 -2q-25 -21 -40 -35t-25.5 -25t-20 -20t-23.5 -21z" />
    <glyph glyph-name="yacute" unicode="&#xfd;" horiz-adv-x="509" 
d="M452 431q0 11 -9 11q-5 0 -12.5 -4t-21.5 -4q-19 0 -35 13.5t-16 39.5q0 21 14 36.5t38 15.5q26 0 42.5 -19t16.5 -48q0 -40 -18.5 -85.5t-46 -93.5t-59.5 -97t-59.5 -95t-46 -87.5t-18.5 -74.5q0 -10 9 -10q5 0 12.5 4t21.5 4q19 0 35 -13.5t16 -39.5q0 -22 -14 -37
t-38 -15q-26 0 -42.5 19t-16.5 48q0 37 16 78.5t40 86.5l-204 440h-56v3h204v-3h-69l168 -368q26 42 52.5 82.5t48 78.5t35 72t13.5 62zM384 704q-35 -14 -81 -31t-106 -45l-1 3q60 26 103 51.5t78 40.5q6 2 10 2q9 0 9 -9q0 -4 -3.5 -7t-8.5 -5z" />
    <glyph glyph-name="ydieresis" unicode="&#xff;" horiz-adv-x="509" 
d="M452 431q0 11 -9 11q-5 0 -12.5 -4t-21.5 -4q-19 0 -35 13.5t-16 39.5q0 21 14 36.5t38 15.5q26 0 42.5 -19t16.5 -48q0 -40 -18.5 -85.5t-46 -93.5t-59.5 -97t-59.5 -95t-46 -87.5t-18.5 -74.5q0 -10 9 -10q5 0 12.5 4t21.5 4q19 0 35 -13.5t16 -39.5q0 -22 -14 -37
t-38 -15q-26 0 -42.5 19t-16.5 48q0 37 16 78.5t40 86.5l-204 440h-56v3h204v-3h-69l168 -368q26 42 52.5 82.5t48 78.5t35 72t13.5 62zM265 654q0 -22 -14.5 -36.5t-34.5 -14.5q-21 0 -34.5 14t-13.5 36q0 23 14 37.5t34 14.5q22 0 35.5 -14t13.5 -37zM424 654
q0 -22 -14.5 -36.5t-34.5 -14.5q-21 0 -34.5 14t-13.5 36q0 23 14 37.5t34 14.5q22 0 35.5 -14t13.5 -37z" />
    <glyph glyph-name="Scaron" unicode="&#x160;" horiz-adv-x="513" 
d="M264 -6q37 0 65.5 11.5t48 31t29 46.5t9.5 58q0 41 -16 69.5t-42.5 48.5t-60 34.5t-69 28t-69 29t-60 37t-42.5 52.5t-16 76q0 44 15.5 80t44 61.5t69.5 39t91 13.5q32 0 55 -6t41.5 -12.5t34.5 -12.5t34 -6q17 0 26 10t9 27h3v-209h-3q-9 45 -24 82.5t-38.5 64.5
t-57.5 42.5t-80 15.5q-38 0 -66.5 -11.5t-48 -31t-29.5 -45t-10 -54.5q0 -41 16 -69.5t42.5 -48.5t60.5 -34.5t69 -28t69 -29t60.5 -37t42.5 -52t16 -75.5q0 -44 -17 -80.5t-47 -63t-70 -41.5t-85 -15q-41 0 -68 8.5t-47 18.5t-38 18.5t-42 8.5q-17 0 -26 -10t-9 -26h-4v209
h4q8 -48 28 -89t49.5 -71t68 -46.5t84.5 -16.5zM274 780q-9 -9 -20 0q-15 12 -24.5 21.5l-20 20t-25 24.5t-39.5 35l2 2q25 -21 41 -33t28 -20l22.5 -15t25.5 -19q15 12 25.5 19l22.5 15t27.5 20t41.5 33l2 -2q-25 -21 -40 -35t-25.5 -25t-20 -20t-23.5 -21z" />
    <glyph glyph-name="Zcaron" unicode="&#x17d;" horiz-adv-x="608" 
d="M464 697h-224q-44 0 -74 -9.5t-50 -30t-32 -53t-20 -78.5h-2v174h495l-424 -697h247q44 0 74 9.5t50 30t32 53t20 78.5h2v-174h-518zM314 780q-9 -9 -20 0q-15 12 -24.5 21.5l-20 20t-25 24.5t-39.5 35l2 2q25 -21 41 -33t28 -20l22.5 -15t25.5 -19q15 12 25.5 19
l22.5 15t27.5 20t41.5 33l2 -2q-25 -21 -40 -35t-25.5 -25t-20 -20t-23.5 -21z" />
    <glyph glyph-name="Adieresis" unicode="&#xc4;" horiz-adv-x="675" 
d="M170 3v-3h-170v3h4q18 0 31.5 9t24.5 24t19.5 35t16.5 42l214 587h37l272 -697h56v-3h-210v3h66l-116 297h-247l-68 -188q-8 -22 -9.5 -42t6 -35t23.5 -23.5t43 -8.5h7zM169 303h245l-126 325zM298 817q0 -22 -14.5 -36.5t-34.5 -14.5q-21 0 -34.5 14t-13.5 36
q0 23 14 37.5t34 14.5q22 0 35.5 -14t13.5 -37zM457 817q0 -22 -14.5 -36.5t-34.5 -14.5q-21 0 -34.5 14t-13.5 36q0 23 14 37.5t34 14.5q22 0 35.5 -14t13.5 -37z" />
    <glyph glyph-name="Aring" unicode="&#xc5;" horiz-adv-x="675" 
d="M170 3v-3h-170v3h4q18 0 31.5 9t24.5 24t19.5 35t16.5 42l214 587h37l272 -697h56v-3h-210v3h66l-116 297h-247l-68 -188q-8 -22 -9.5 -42t6 -35t23.5 -23.5t43 -8.5h7zM169 303h245l-126 325zM234 845q0 39 27 66.5t66 27.5q19 0 36.5 -7.5t30 -20t20 -30t7.5 -36.5
q0 -39 -27.5 -66t-66.5 -27t-66 27t-27 66zM250 845q0 -37 19.5 -63.5t57.5 -26.5t58 26.5t20 63.5t-20 64t-58 27t-57.5 -27t-19.5 -64z" />
    <glyph glyph-name="Ccedilla" unicode="&#xc7;" horiz-adv-x="581" 
d="M321 -10q-65 0 -118.5 28t-92 76.5t-59.5 113t-21 138.5q0 78 23.5 144.5t65 115t99 76.5t125.5 28q32 0 54 -6t39.5 -12.5t32.5 -12.5t33 -6q17 0 26 10t9 27h3v-209h-3q-9 45 -23 82.5t-36.5 64.5t-55.5 42.5t-79 15.5q-60 0 -102 -28t-69 -76t-39 -112.5t-12 -137.5
q0 -74 17.5 -137t49 -109t76.5 -72t100 -26q34 0 64.5 10.5t54.5 30.5t39 49.5t20 68.5h4q-4 -39 -20 -71t-44 -55.5t-67.5 -37t-90.5 -13.5l-64 -67q2 1 17.5 7.5t45.5 6.5q37 0 62.5 -14t25.5 -44t-27 -49.5t-69 -19.5t-62 16.5t-20 32.5q0 8 6 14.5t14 6.5
q10 0 15.5 -5.5t5.5 -13.5t-6 -13t-13 -5q-5 0 -8 2t-4 2q-2 0 -2 -2q0 -7 16.5 -19.5t48.5 -12.5q41 0 61 17.5t20 45.5q0 29 -19.5 43.5t-54.5 14.5q-14 0 -24.5 -2.5t-16.5 -5.5q-8 -4 -12 -7h-6z" />
    <glyph glyph-name="Eacute" unicode="&#xc9;" horiz-adv-x="564" 
d="M165 349v-346h161q44 0 74 9.5t50 30t32 53t20 78.5h2v-174h-484v3h63v694h-63v3h474v-174h-2q-8 46 -20 78.5t-32 53t-50 30t-74 9.5h-151v-345h96q68 0 97.5 28t36.5 80h3v-219h-3q-7 52 -36.5 80t-97.5 28h-96zM370 847q-35 -14 -81 -31t-106 -45l-1 3q60 26 103 51.5
t78 40.5q6 2 10 2q9 0 9 -9q0 -4 -3.5 -7t-8.5 -5z" />
    <glyph glyph-name="Ntilde" unicode="&#xd1;" horiz-adv-x="643" 
d="M87 690v-562q0 -67 21 -96t47 -29h5v-3h-140v3q27 0 45 29t18 96v569h-63v3h154l387 -663v535q0 67 -21 96t-47 29h-5v3h140v-3q-27 0 -45 -29t-18 -96v-572h-70zM415 800q31 0 51 14.5t36 49.5h3q-17 -38 -38.5 -58.5t-59.5 -20.5q-32 0 -52.5 11t-37.5 24.5t-33 24.5
t-39 11q-31 0 -51 -14.5t-36 -49.5h-3q17 38 38.5 58.5t59.5 20.5q25 0 42.5 -11t34.5 -24.5t36.5 -24.5t48.5 -11z" />
    <glyph glyph-name="Odieresis" unicode="&#xd6;" horiz-adv-x="704" 
d="M352 710q78 0 138.5 -27t101 -74.5t61.5 -112.5t21 -142q0 -78 -23.5 -144.5t-66 -115.5t-102 -77t-130.5 -28q-78 0 -138.5 27t-101 74.5t-61.5 113t-21 142.5q0 78 23.5 144.5t66 115t102 76.5t130.5 28zM352 -7q63 0 106.5 28t71.5 76.5t40.5 113t12.5 137.5
q0 71 -14 135.5t-42.5 114t-72 79t-102.5 29.5q-63 0 -106.5 -28t-71.5 -76t-40.5 -112.5t-12.5 -137.5q0 -71 14 -136t42.5 -114.5t72 -79t102.5 -29.5zM323 817q0 -22 -14.5 -36.5t-34.5 -14.5q-21 0 -34.5 14t-13.5 36q0 23 14 37.5t34 14.5q22 0 35.5 -14t13.5 -37z
M482 817q0 -22 -14.5 -36.5t-34.5 -14.5q-21 0 -34.5 14t-13.5 36q0 23 14 37.5t34 14.5q22 0 35.5 -14t13.5 -37z" />
    <glyph glyph-name="Udieresis" unicode="&#xdc;" horiz-adv-x="671" 
d="M572 237q0 -55 -19.5 -100t-53.5 -77.5t-79 -50.5t-96 -18q-52 0 -96 18t-76.5 50t-50.5 75t-18 94v469h-63v3h207v-3h-62v-464q0 -44 15.5 -79.5t43 -61t65 -39.5t81.5 -14q42 0 78 13t62.5 38t42 62t15.5 86v349q0 57 -19.5 83.5t-58.5 26.5h-4v3h170v-3h-4
q-39 0 -59.5 -26.5t-20.5 -83.5v-350zM316 817q0 -22 -14.5 -36.5t-34.5 -14.5q-21 0 -34.5 14t-13.5 36q0 23 14 37.5t34 14.5q22 0 35.5 -14t13.5 -37zM475 817q0 -22 -14.5 -36.5t-34.5 -14.5q-21 0 -34.5 14t-13.5 36q0 23 14 37.5t34 14.5q22 0 35.5 -14t13.5 -37z" />
    <glyph glyph-name="Agrave" unicode="&#xc0;" horiz-adv-x="675" 
d="M170 3v-3h-170v3h4q18 0 31.5 9t24.5 24t19.5 35t16.5 42l214 587h37l272 -697h56v-3h-210v3h66l-116 297h-247l-68 -188q-8 -22 -9.5 -42t6 -35t23.5 -23.5t43 -8.5h7zM169 303h245l-126 325zM239 847q-5 2 -8.5 5t-3.5 7q0 9 9 9q4 0 10 -2q35 -15 78 -40.5t103 -51.5
l-1 -3q-60 28 -106 45t-81 31z" />
    <glyph glyph-name="Atilde" unicode="&#xc3;" horiz-adv-x="675" 
d="M170 3v-3h-170v3h4q18 0 31.5 9t24.5 24t19.5 35t16.5 42l214 587h37l272 -697h56v-3h-210v3h66l-116 297h-247l-68 -188q-8 -22 -9.5 -42t6 -35t23.5 -23.5t43 -8.5h7zM169 303h245l-126 325zM423 800q31 0 51 14.5t36 49.5h3q-17 -38 -38.5 -58.5t-59.5 -20.5
q-32 0 -52.5 11t-37.5 24.5t-33 24.5t-39 11q-31 0 -51 -14.5t-36 -49.5h-3q17 38 38.5 58.5t59.5 20.5q25 0 42.5 -11t34.5 -24.5t36.5 -24.5t48.5 -11z" />
    <glyph glyph-name="Otilde" unicode="&#xd5;" horiz-adv-x="704" 
d="M352 710q78 0 138.5 -27t101 -74.5t61.5 -112.5t21 -142q0 -78 -23.5 -144.5t-66 -115.5t-102 -77t-130.5 -28q-78 0 -138.5 27t-101 74.5t-61.5 113t-21 142.5q0 78 23.5 144.5t66 115t102 76.5t130.5 28zM352 -7q63 0 106.5 28t71.5 76.5t40.5 113t12.5 137.5
q0 71 -14 135.5t-42.5 114t-72 79t-102.5 29.5q-63 0 -106.5 -28t-71.5 -76t-40.5 -112.5t-12.5 -137.5q0 -71 14 -136t42.5 -114.5t72 -79t102.5 -29.5zM437 800q31 0 51 14.5t36 49.5h3q-17 -38 -38.5 -58.5t-59.5 -20.5q-32 0 -52.5 11t-37.5 24.5t-33 24.5t-39 11
q-31 0 -51 -14.5t-36 -49.5h-3q17 38 38.5 58.5t59.5 20.5q25 0 42.5 -11t34.5 -24.5t36.5 -24.5t48.5 -11z" />
    <glyph glyph-name="Acircumflex" unicode="&#xc2;" horiz-adv-x="675" 
d="M170 3v-3h-170v3h4q18 0 31.5 9t24.5 24t19.5 35t16.5 42l214 587h37l272 -697h56v-3h-210v3h66l-116 297h-247l-68 -188q-8 -22 -9.5 -42t6 -35t23.5 -23.5t43 -8.5h7zM169 303h245l-126 325zM337 873q14 -12 23.5 -21t20 -20t25.5 -25t40 -35l-2 -2q-26 21 -41.5 33
t-27.5 20l-22.5 15t-25.5 19q-15 -12 -25.5 -19l-22.5 -15t-28 -20t-41 -33l-2 2q25 21 39.5 35t25 24.5l20 20t24.5 21.5q11 9 20 0z" />
    <glyph glyph-name="Ecircumflex" unicode="&#xca;" horiz-adv-x="564" 
d="M165 349v-346h161q44 0 74 9.5t50 30t32 53t20 78.5h2v-174h-484v3h63v694h-63v3h474v-174h-2q-8 46 -20 78.5t-32 53t-50 30t-74 9.5h-151v-345h96q68 0 97.5 28t36.5 80h3v-219h-3q-7 52 -36.5 80t-97.5 28h-96zM290 873q14 -12 23.5 -21t20 -20t25.5 -25t40 -35l-2 -2
q-26 21 -41.5 33t-27.5 20l-22.5 15t-25.5 19q-15 -12 -25.5 -19l-22.5 -15t-28 -20t-41 -33l-2 2q25 21 39.5 35t25 24.5l20 20t24.5 21.5q11 9 20 0z" />
    <glyph glyph-name="Aacute" unicode="&#xc1;" horiz-adv-x="675" 
d="M170 3v-3h-170v3h4q18 0 31.5 9t24.5 24t19.5 35t16.5 42l214 587h37l272 -697h56v-3h-210v3h66l-116 297h-247l-68 -188q-8 -22 -9.5 -42t6 -35t23.5 -23.5t43 -8.5h7zM169 303h245l-126 325zM425 847q-35 -14 -81 -31t-106 -45l-1 3q60 26 103 51.5t78 40.5q6 2 10 2
q9 0 9 -9q0 -4 -3.5 -7t-8.5 -5z" />
    <glyph glyph-name="Edieresis" unicode="&#xcb;" horiz-adv-x="564" 
d="M165 349v-346h161q44 0 74 9.5t50 30t32 53t20 78.5h2v-174h-484v3h63v694h-63v3h474v-174h-2q-8 46 -20 78.5t-32 53t-50 30t-74 9.5h-151v-345h96q68 0 97.5 28t36.5 80h3v-219h-3q-7 52 -36.5 80t-97.5 28h-96zM251 817q0 -22 -14.5 -36.5t-34.5 -14.5q-21 0 -34.5 14
t-13.5 36q0 23 14 37.5t34 14.5q22 0 35.5 -14t13.5 -37zM410 817q0 -22 -14.5 -36.5t-34.5 -14.5q-21 0 -34.5 14t-13.5 36q0 23 14 37.5t34 14.5q22 0 35.5 -14t13.5 -37z" />
    <glyph glyph-name="Egrave" unicode="&#xc8;" horiz-adv-x="564" 
d="M165 349v-346h161q44 0 74 9.5t50 30t32 53t20 78.5h2v-174h-484v3h63v694h-63v3h474v-174h-2q-8 46 -20 78.5t-32 53t-50 30t-74 9.5h-151v-345h96q68 0 97.5 28t36.5 80h3v-219h-3q-7 52 -36.5 80t-97.5 28h-96zM184 847q-5 2 -8.5 5t-3.5 7q0 9 9 9q4 0 10 -2
q35 -15 78 -40.5t103 -51.5l-1 -3q-60 28 -106 45t-81 31z" />
    <glyph glyph-name="Iacute" unicode="&#xcd;" horiz-adv-x="247" 
d="M20 697v3h207v-3h-62v-694h62v-3h-207v3h63v694h-63zM212 847q-35 -14 -81 -31t-106 -45l-1 3q60 26 103 51.5t78 40.5q6 2 10 2q9 0 9 -9q0 -4 -3.5 -7t-8.5 -5z" />
    <glyph glyph-name="Idieresis" unicode="&#xcf;" horiz-adv-x="247" 
d="M20 697v3h207v-3h-62v-694h62v-3h-207v3h63v694h-63zM93 817q0 -22 -14.5 -36.5t-34.5 -14.5q-21 0 -34.5 14t-13.5 36q0 23 14 37.5t34 14.5q22 0 35.5 -14t13.5 -37zM252 817q0 -22 -14.5 -36.5t-34.5 -14.5q-21 0 -34.5 14t-13.5 36q0 23 14 37.5t34 14.5
q22 0 35.5 -14t13.5 -37z" />
    <glyph glyph-name="Icircumflex" unicode="&#xce;" horiz-adv-x="247" 
d="M20 697v3h207v-3h-62v-694h62v-3h-207v3h63v694h-63zM134 873q14 -12 23.5 -21t20 -20t25.5 -25t40 -35l-2 -2q-26 21 -41.5 33t-27.5 20l-22.5 15t-25.5 19q-15 -12 -25.5 -19l-22.5 -15t-28 -20t-41 -33l-2 2q25 21 39.5 35t25 24.5l20 20t24.5 21.5q11 9 20 0z" />
    <glyph glyph-name="Igrave" unicode="&#xcc;" horiz-adv-x="247" 
d="M20 697v3h207v-3h-62v-694h62v-3h-207v3h63v694h-63zM36 847q-5 2 -8.5 5t-3.5 7q0 9 9 9q4 0 10 -2q35 -15 78 -40.5t103 -51.5l-1 -3q-60 28 -106 45t-81 31z" />
    <glyph glyph-name="Oacute" unicode="&#xd3;" horiz-adv-x="704" 
d="M352 710q78 0 138.5 -27t101 -74.5t61.5 -112.5t21 -142q0 -78 -23.5 -144.5t-66 -115.5t-102 -77t-130.5 -28q-78 0 -138.5 27t-101 74.5t-61.5 113t-21 142.5q0 78 23.5 144.5t66 115t102 76.5t130.5 28zM352 -7q63 0 106.5 28t71.5 76.5t40.5 113t12.5 137.5
q0 71 -14 135.5t-42.5 114t-72 79t-102.5 29.5q-63 0 -106.5 -28t-71.5 -76t-40.5 -112.5t-12.5 -137.5q0 -71 14 -136t42.5 -114.5t72 -79t102.5 -29.5zM440 847q-35 -14 -81 -31t-106 -45l-1 3q60 26 103 51.5t78 40.5q6 2 10 2q9 0 9 -9q0 -4 -3.5 -7t-8.5 -5z" />
    <glyph glyph-name="Ydieresis" unicode="&#x178;" horiz-adv-x="649" 
d="M479 697v3h170v-3h-4q-18 0 -35 -9t-33.5 -24t-32.5 -35t-31 -42l-155 -234v-350h62v-3h-207v3h63v339l-224 355h-52v3h213v-3h-67l212 -338l151 229q15 22 23.5 42t7 35t-14 23.5t-39.5 8.5h-7zM307 817q0 -22 -14.5 -36.5t-34.5 -14.5q-21 0 -34.5 14t-13.5 36
q0 23 14 37.5t34 14.5q22 0 35.5 -14t13.5 -37zM466 817q0 -22 -14.5 -36.5t-34.5 -14.5q-21 0 -34.5 14t-13.5 36q0 23 14 37.5t34 14.5q22 0 35.5 -14t13.5 -37z" />
    <glyph glyph-name="Ocircumflex" unicode="&#xd4;" horiz-adv-x="704" 
d="M352 710q78 0 138.5 -27t101 -74.5t61.5 -112.5t21 -142q0 -78 -23.5 -144.5t-66 -115.5t-102 -77t-130.5 -28q-78 0 -138.5 27t-101 74.5t-61.5 113t-21 142.5q0 78 23.5 144.5t66 115t102 76.5t130.5 28zM352 -7q63 0 106.5 28t71.5 76.5t40.5 113t12.5 137.5
q0 71 -14 135.5t-42.5 114t-72 79t-102.5 29.5q-63 0 -106.5 -28t-71.5 -76t-40.5 -112.5t-12.5 -137.5q0 -71 14 -136t42.5 -114.5t72 -79t102.5 -29.5zM362 873q14 -12 23.5 -21t20 -20t25.5 -25t40 -35l-2 -2q-26 21 -41.5 33t-27.5 20l-22.5 15t-25.5 19
q-15 -12 -25.5 -19l-22.5 -15t-28 -20t-41 -33l-2 2q25 21 39.5 35t25 24.5l20 20t24.5 21.5q11 9 20 0z" />
    <glyph glyph-name="Ograve" unicode="&#xd2;" horiz-adv-x="704" 
d="M352 710q78 0 138.5 -27t101 -74.5t61.5 -112.5t21 -142q0 -78 -23.5 -144.5t-66 -115.5t-102 -77t-130.5 -28q-78 0 -138.5 27t-101 74.5t-61.5 113t-21 142.5q0 78 23.5 144.5t66 115t102 76.5t130.5 28zM352 -7q63 0 106.5 28t71.5 76.5t40.5 113t12.5 137.5
q0 71 -14 135.5t-42.5 114t-72 79t-102.5 29.5q-63 0 -106.5 -28t-71.5 -76t-40.5 -112.5t-12.5 -137.5q0 -71 14 -136t42.5 -114.5t72 -79t102.5 -29.5zM264 847q-5 2 -8.5 5t-3.5 7q0 9 9 9q4 0 10 -2q35 -15 78 -40.5t103 -51.5l-1 -3q-60 28 -106 45t-81 31z" />
    <glyph glyph-name="Uacute" unicode="&#xda;" horiz-adv-x="671" 
d="M572 237q0 -55 -19.5 -100t-53.5 -77.5t-79 -50.5t-96 -18q-52 0 -96 18t-76.5 50t-50.5 75t-18 94v469h-63v3h207v-3h-62v-464q0 -44 15.5 -79.5t43 -61t65 -39.5t81.5 -14q42 0 78 13t62.5 38t42 62t15.5 86v349q0 57 -19.5 83.5t-58.5 26.5h-4v3h170v-3h-4
q-39 0 -59.5 -26.5t-20.5 -83.5v-350zM453 847q-35 -14 -81 -31t-106 -45l-1 3q60 26 103 51.5t78 40.5q6 2 10 2q9 0 9 -9q0 -4 -3.5 -7t-8.5 -5z" />
    <glyph glyph-name="Ucircumflex" unicode="&#xdb;" horiz-adv-x="671" 
d="M572 237q0 -55 -19.5 -100t-53.5 -77.5t-79 -50.5t-96 -18q-52 0 -96 18t-76.5 50t-50.5 75t-18 94v469h-63v3h207v-3h-62v-464q0 -44 15.5 -79.5t43 -61t65 -39.5t81.5 -14q42 0 78 13t62.5 38t42 62t15.5 86v349q0 57 -19.5 83.5t-58.5 26.5h-4v3h170v-3h-4
q-39 0 -59.5 -26.5t-20.5 -83.5v-350zM365 873q14 -12 23.5 -21t20 -20t25.5 -25t40 -35l-2 -2q-26 21 -41.5 33t-27.5 20l-22.5 15t-25.5 19q-15 -12 -25.5 -19l-22.5 -15t-28 -20t-41 -33l-2 2q25 21 39.5 35t25 24.5l20 20t24.5 21.5q11 9 20 0z" />
    <glyph glyph-name="Ugrave" unicode="&#xd9;" horiz-adv-x="671" 
d="M572 237q0 -55 -19.5 -100t-53.5 -77.5t-79 -50.5t-96 -18q-52 0 -96 18t-76.5 50t-50.5 75t-18 94v469h-63v3h207v-3h-62v-464q0 -44 15.5 -79.5t43 -61t65 -39.5t81.5 -14q42 0 78 13t62.5 38t42 62t15.5 86v349q0 57 -19.5 83.5t-58.5 26.5h-4v3h170v-3h-4
q-39 0 -59.5 -26.5t-20.5 -83.5v-350zM247 847q-5 2 -8.5 5t-3.5 7q0 9 9 9q4 0 10 -2q35 -15 78 -40.5t103 -51.5l-1 -3q-60 28 -106 45t-81 31z" />
    <glyph glyph-name="thorn" unicode="&#xfe;" horiz-adv-x="548" 
d="M265 506q-57 0 -91 -34t-34 -94v-244q0 -58 33.5 -90.5t86.5 -32.5q39 0 69 18.5t50 51.5t30.5 79t10.5 101t-10.5 100t-30 77t-48.5 50t-66 18zM140 -143h62v-3h-202v3h63v840h-63v3h140v-270q17 38 54.5 64t91.5 26q50 0 90 -19t68.5 -53t43.5 -80.5t15 -101.5
t-17 -103.5t-47.5 -84.5t-72 -57t-89.5 -21q-50 0 -85 23.5t-52 58.5v-225z" />
    <glyph glyph-name="Thorn" unicode="&#xde;" horiz-adv-x="563" 
d="M228 697h-63v-138h142q55 0 98.5 -13t74 -37t47 -57t16.5 -72q0 -40 -19 -74t-53 -59t-79.5 -39.5t-98.5 -14.5h-128v-190h62v-3h-207v3h63v694h-63v3h208v-3zM165 196h116q46 0 79.5 14t54.5 39t31 57.5t10 70.5q0 36 -10 68.5t-31 57t-53.5 39t-76.5 14.5h-120v-360z
" />
    <glyph glyph-name="Yacute" unicode="&#xdd;" horiz-adv-x="649" 
d="M479 697v3h170v-3h-4q-18 0 -35 -9t-33.5 -24t-32.5 -35t-31 -42l-155 -234v-350h62v-3h-207v3h63v339l-224 355h-52v3h213v-3h-67l212 -338l151 229q15 22 23.5 42t7 35t-14 23.5t-39.5 8.5h-7zM436 847q-35 -14 -81 -31t-106 -45l-1 3q60 26 103 51.5t78 40.5q6 2 10 2
q9 0 9 -9q0 -4 -3.5 -7t-8.5 -5z" />
    <glyph glyph-name="Eth" unicode="&#xd0;" horiz-adv-x="637" 
d="M272 700q78 0 140.5 -25t105.5 -71t66 -109.5t23 -140.5q0 -78 -25.5 -143t-70.5 -112t-106.5 -73t-132.5 -26h-252v3h63v343h-61v3h61v348h-63v3h252zM165 346v-343h99q63 0 110 26.5t78.5 73t47.5 109.5t16 136q0 71 -17.5 134.5t-50 111t-79.5 75.5t-106 28h-98v-348
h164v-3h-164z" />
    <glyph glyph-name="Lslash" unicode="&#x141;" horiz-adv-x="534" 
d="M287 491l-122 -87v-401h161q44 0 74 9.5t50 30t32 53t20 78.5h2v-174h-484v3h63v346l-83 -59v6l83 59v342h-63v3h208v-3h-63v-287l122 87v-6z" />
    <glyph glyph-name="lslash" unicode="&#x142;" horiz-adv-x="232" 
d="M232 483l-77 -60v-420h62v-3h-202v3h63v360l-78 -60v6l78 60v328h-63v3h140v-271l77 60v-6z" />
    <glyph glyph-name="eth" unicode="&#xf0;" horiz-adv-x="547" 
d="M272 -10q-51 0 -93 19t-71.5 52.5t-46 79t-16.5 98.5t17 100.5t47.5 83t72 56.5t89.5 21q45 0 77.5 -19.5t52.5 -48.5q-16 56 -39 99t-51 75l-125 -61v5l122 60q-32 35 -66.5 57t-66.5 31v4q36 -11 75.5 -31t77.5 -51l121 60v-5l-117 -58q34 -29 65 -65.5t54.5 -80.5
t37 -96t13.5 -111q0 -64 -17 -114.5t-47 -86t-72.5 -54.5t-93.5 -19zM421 258q0 50 -5.5 92.5t-20 73t-40.5 48t-67 17.5q-39 0 -69 -18.5t-50 -51t-30.5 -77.5t-10.5 -98t10 -98.5t29.5 -79t49.5 -52.5t69 -19q33 0 58 18.5t42.5 53t26 83t8.5 108.5z" />
    <glyph glyph-name="dollar" unicode="$" horiz-adv-x="513" 
d="M265 799v-89q32 0 54 -6t40 -13t33.5 -12.5t33.5 -5.5q17 0 26 10t9 27h3v-209h-3q-9 44 -23.5 81.5t-37.5 65t-56 43t-79 15.5v-311q38 -15 77 -30.5t70.5 -38t51 -55t19.5 -81.5q0 -44 -17 -80.5t-47 -63t-69.5 -41.5t-84.5 -15v-71h-3v71q-41 0 -67.5 8.5t-46.5 18.5
t-38 18.5t-41 8.5q-17 0 -26 -10t-9 -26h-4v209h4q8 -48 27.5 -89t49 -70.5t67.5 -46.5t84 -17v314q-39 15 -77.5 31t-70 38.5t-51 55.5t-19.5 83q0 44 15.5 79.5t44 61t68.5 39.5t90 14v89h3zM416 141q0 36 -12.5 62t-33 45t-48 33t-57.5 26v-313q75 1 113 42.5t38 104.5z
M110 564q0 -36 12.5 -62.5t33.5 -46t48.5 -33.5t57.5 -26v310q-37 0 -65.5 -11.5t-47.5 -31t-29 -45.5t-10 -54z" />
    <glyph glyph-name="cent" unicode="&#xa2;" horiz-adv-x="471" 
d="M275 602v-82h6q40 0 70 -11t49 -29t28.5 -40.5t9.5 -44.5q0 -25 -14.5 -42.5t-36.5 -17.5q-24 0 -38.5 15t-14.5 36q0 25 15.5 38t34.5 13q12 0 20 -4t10 -4q5 0 5 5q0 8 -7 21.5t-21.5 27t-38 23t-56.5 9.5h-11t-10 -1v-507q15 -3 31 -3q24 0 46 8t40 23t30 36.5
t15 49.5h4q-6 -57 -49 -93t-117 -38v-71h-3v71h-1q-50 0 -91.5 20.5t-71.5 56t-46.5 83.5t-16.5 103q0 53 17 100.5t47.5 84t72 58.5t90.5 24v82h3zM128 258q0 -49 10 -91t28.5 -75t45.5 -55t60 -29v505q-68 -11 -106 -78t-38 -177z" />
    <glyph glyph-name="section" unicode="&#xa7;" horiz-adv-x="545" 
d="M45 358q0 57 19.5 91t48.5 53q-9 25 -9 56q0 33 12.5 59.5t35.5 45.5t55.5 29.5t73.5 10.5q26 0 44.5 -4t33 -9.5t27 -9.5t27.5 -4q14 0 21 7.5t7 19.5h3v-159h-3q-8 33 -20 61.5t-30.5 49t-45.5 32.5t-64 12q-57 0 -87 -30.5t-30 -72.5q0 -48 25 -82t62 -60.5t81 -50.5
t81 -52.5t62 -65.5t25 -91q0 -57 -20 -91.5t-49 -53.5q5 -13 7.5 -26.5t2.5 -28.5q0 -33 -12.5 -59.5t-35.5 -45.5t-56 -29.5t-73 -10.5q-26 0 -44.5 4t-33 9.5t-27 9.5t-27.5 4q-14 0 -21 -7.5t-7 -19.5h-3v159h3q7 -33 19.5 -61.5t31 -49t45.5 -32.5t64 -12q57 0 87 30.5
t30 72.5q0 48 -25 82t-62 60.5t-81 50.5t-81 52.5t-62 65.5t-25 91zM69 408q0 -45 22.5 -77.5t57.5 -59t78 -49t83 -47t72.5 -54t47.5 -69.5q21 15 33.5 37.5t12.5 54.5q0 45 -22.5 77.5t-57.5 59t-78 49t-83 47t-73 53.5t-48 69q-21 -14 -33 -36.5t-12 -54.5z" />
    <glyph glyph-name="germandbls" unicode="&#xdf;" horiz-adv-x="526" 
d="M291 408q0 -28 15 -47t38 -34.5t49.5 -30t49.5 -33.5t38 -45t15 -65q0 -35 -13 -64.5t-36.5 -51t-55 -33.5t-67.5 -12q-25 0 -48 7.5t-41 21.5t-28.5 33.5t-10.5 42.5q0 25 14.5 41t36.5 16q24 0 38.5 -15t14.5 -36q0 -25 -15.5 -38t-34.5 -13q-12 0 -20 4t-10 4
q-5 0 -5 -5q0 -8 8 -18.5t22.5 -19.5t34.5 -15.5t44 -6.5q57 0 84.5 34.5t27.5 85.5q0 34 -14.5 57.5t-36.5 41t-48 31t-48 29.5t-36.5 36t-14.5 49q0 26 9 44t22.5 32t29.5 27.5t29.5 32.5t22.5 45t9 65q0 58 -24.5 85.5t-79.5 27.5q-34 0 -56 -14t-34.5 -36.5t-17 -52.5
t-4.5 -61v-554h-139v3h63v491q0 54 14.5 96.5t40 71.5t60 44t73.5 15q80 0 127.5 -29.5t47.5 -82.5q0 -28 -10.5 -45.5t-26 -30.5t-33.5 -24t-33.5 -24t-26 -31t-10.5 -46z" />
    <glyph glyph-name="periodcentered" unicode="&#xb7;" horiz-adv-x="397" 
d="M244 284q0 -22 -14.5 -36.5t-34.5 -14.5q-21 0 -34.5 14t-13.5 36q0 23 14 37.5t34 14.5q22 0 35.5 -14t13.5 -37z" />
    <glyph glyph-name="bullet" unicode="&#x2022;" horiz-adv-x="397" 
d="M273 284q0 -35 -23 -58.5t-55 -23.5q-34 0 -55.5 22.5t-21.5 57.5q0 36 22.5 60t54.5 24q35 0 56.5 -23t21.5 -59z" />
    <glyph glyph-name="dagger" unicode="&#x2020;" horiz-adv-x="568" 
d="M91 476q16 0 39 -6t48.5 -13.5t52.5 -13.5t52 -6q0 32 -6 64.5t-13 62t-13 54t-6 41.5q0 22 11 34t28 12t28 -12t11 -34q0 -17 -6 -41.5t-13 -54t-13 -62t-6 -64.5q25 0 52 6t52.5 13.5t48 13.5t39.5 6q22 0 34 -12t12 -29t-12 -29t-34 -12q-17 0 -39.5 6.5t-48 14
t-52.5 14t-52 6.5q0 -92 6 -172.5t13.5 -149t14 -123.5t6.5 -96q0 -22 -12 -34t-29 -12t-29 12t-12 34q0 41 6 96t13.5 123.5t14 149t6.5 172.5q-25 0 -52 -6.5t-52.5 -14t-48.5 -14t-39 -6.5q-22 0 -34 12t-12 29t12 29t34 12z" />
    <glyph glyph-name="daggerdbl" unicode="&#x2021;" horiz-adv-x="568" 
d="M91 486q16 0 39 -6t48.5 -13.5t52.5 -13.5t52 -6q0 32 -6 63t-13 58.5t-13 50.5t-6 40q0 22 11 34t28 12t28 -12t11 -34q0 -17 -6 -40t-13 -50.5t-13 -58.5t-6 -63q25 0 52 6t52.5 13.5t48 13.5t39.5 6q22 0 34 -12t12 -29t-12 -29t-34 -12q-17 0 -39.5 6.5t-48 14
t-52.5 14t-52 6.5q0 -23 4 -45.5t8.5 -43.5t8.5 -41t4 -39t-4 -39t-8.5 -41t-8.5 -43t-4 -45q25 0 52 6.5t52.5 14t48 14t39.5 6.5q22 0 34 -12t12 -29t-12 -29t-34 -12q-17 0 -39.5 6t-48 13t-52.5 13.5t-52 6.5q0 -32 6 -63t13 -58.5t13 -51t6 -39.5q0 -22 -11 -34
t-28 -12t-28 12t-11 34q0 16 6 39.5t13 51t13 58.5t6 63q-25 0 -52 -6.5t-52.5 -13.5t-48.5 -13t-39 -6q-22 0 -34 12t-12 29t12 29t34 12q16 0 39 -6.5t48.5 -14t52.5 -14t52 -6.5q0 23 -4 45t-8.5 43t-8.5 41t-4 39t4 39t8.5 41t8.5 43.5t4 45.5q-25 0 -52 -6.5t-52.5 -14
t-48.5 -14t-39 -6.5q-22 0 -34 12t-12 29t12 29t34 12z" />
    <glyph glyph-name="Oslash" unicode="&#xd8;" horiz-adv-x="704" 
d="M584 740l-47 -83q68 -46 102.5 -124.5t34.5 -178.5q0 -78 -23.5 -144.5t-66 -115.5t-102 -77t-130.5 -28q-52 0 -95.5 11.5t-78.5 33.5l-50 -86h-3q14 26 27 47t24 41q-72 45 -109 126t-37 184q0 78 23.5 144.5t66 115t102 76.5t130.5 28q55 0 100.5 -13.5t82.5 -37.5
q11 18 22 38t25 43h2zM121 352q0 -83 18.5 -156t56.5 -124q27 46 45.5 79.5t35 63t33.5 59.5t40 70q22 37 39 66t34.5 59t38.5 65t51 86q-29 40 -69 63t-92 23q-63 0 -106.5 -28t-71.5 -76t-40.5 -112.5t-12.5 -137.5zM352 -7q63 0 106.5 28t71.5 76.5t40.5 113t12.5 137.5
q0 78 -17 148.5t-52 121.5q-28 -50 -47.5 -85.5t-36 -65t-32.5 -58t-37 -65.5q-23 -40 -41 -70l-36 -60t-38 -63.5t-48 -81.5q28 -35 66 -55.5t88 -20.5z" />
    <glyph glyph-name="oslash" unicode="&#xf8;" horiz-adv-x="557" 
d="M462 579q-17 -30 -31 -55t-25 -46q49 -34 77.5 -91.5t28.5 -128.5q0 -55 -18.5 -103.5t-51 -85t-75.5 -57.5t-91 -21q-34 0 -64.5 9.5t-56.5 26.5l-51 -91h-2l51 93q-50 34 -79 92.5t-29 130.5q0 55 18.5 103.5t51 84.5t75.5 57t91 21q35 0 66 -10t57 -28
q12 20 25.5 44.5t30.5 54.5h2zM128 257q0 -60 10.5 -110t31.5 -86q17 31 29.5 54.5t24 45t23.5 44t29 52.5q15 27 27.5 48.5t24.5 42.5t26 44.5t32 55.5q-18 31 -44 48.5t-61 17.5q-39 0 -68 -19.5t-47.5 -54t-28 -81.5t-9.5 -102zM429 253q0 57 -10.5 106.5t-30.5 85.5
q-17 -31 -29 -54t-22.5 -44t-21.5 -42t-26 -48q-17 -30 -30.5 -53t-26.5 -45t-27.5 -46t-32.5 -56q19 -29 44.5 -45.5t59.5 -16.5q39 0 68 19.5t47.5 54t28 82t9.5 102.5z" />
    <glyph glyph-name="ae" unicode="&#xe6;" horiz-adv-x="767" 
d="M552 520q38 0 69.5 -9.5t54.5 -27t36 -41.5t13 -53q0 -44 -22.5 -69.5t-56 -41.5t-73 -27t-73 -25.5t-56 -38t-22.5 -64.5q0 -26 10 -49t29.5 -40.5t46.5 -28t62 -10.5q33 0 58.5 10.5t43.5 24.5t27 28t9 22q0 5 -5 5q-2 0 -10 -4t-20 -4q-19 0 -34.5 13t-15.5 38
q0 21 14.5 36t38.5 15q22 0 36.5 -16t14.5 -41q0 -23 -12 -46t-34 -42.5t-54 -31.5t-72 -12q-63 0 -117.5 33t-83.5 92q-6 -24 -19.5 -46.5t-35 -40t-51.5 -28t-69 -10.5q-27 0 -51 8t-42.5 23.5t-29.5 38t-11 51.5q0 47 22 74t55.5 43.5t72.5 28.5t72.5 28.5t55.5 44
t22 75.5q0 54 -33.5 81.5t-98.5 27.5q-33 0 -58 -10.5t-41.5 -24.5t-25 -28t-8.5 -22q0 -5 5 -5q2 0 10 4t20 4q19 0 34.5 -13t15.5 -38q0 -21 -14.5 -36t-38.5 -15q-22 0 -36.5 16t-14.5 41q0 22 11 45.5t32.5 43t52.5 31.5t71 12q54 0 93 -22t62 -60q30 38 74 60.5
t95 22.5zM323 253q0 45 10 84q-14 -22 -35 -37.5t-44 -28l-46 -25t-41 -29t-29.5 -40.5t-11.5 -59q0 -46 28 -73.5t73 -27.5q52 0 84 27.5t32 79.5q0 16 -3 26.5t-7 23t-7 30.5t-3 49zM552 517q-35 0 -62.5 -21.5t-46 -58.5t-28 -85.5t-9.5 -103.5q0 -56 10 -99
q7 26 26.5 43.5t45 31.5t53 27t50.5 31t38 43t15 63q0 56 -23.5 92.5t-68.5 36.5z" />
    <glyph glyph-name="oe" unicode="&#x153;" horiz-adv-x="874" 
d="M429 253q0 55 -9 102.5t-27.5 82.5t-46.5 55.5t-65 20.5q-39 0 -68 -19.5t-47.5 -54t-28 -81.5t-9.5 -102t9 -102.5t27.5 -83t46.5 -56t65 -20.5q39 0 68 19.5t47.5 54t28 82t9.5 102.5zM662 -10q-64 0 -114.5 32t-79.5 86q-31 -54 -81.5 -85.5t-110.5 -31.5
q-50 0 -92.5 20t-73 55.5t-48 83t-17.5 102.5t18.5 103.5t51 84.5t75.5 57t91 21q63 0 111.5 -31t77.5 -83q29 53 78 84.5t111 31.5q38 0 69.5 -9.5t54.5 -27t36 -41.5t13 -53q0 -44 -22.5 -69.5t-56 -41.5t-73 -27t-73 -25.5t-56 -38t-22.5 -64.5q0 -26 10 -49t29.5 -40.5
t46.5 -28t62 -10.5q33 0 58.5 10.5t43.5 24.5t27 28t9 22q0 5 -5 5q-2 0 -10 -4t-20 -4q-19 0 -34.5 13t-15.5 38q0 21 14.5 36t38.5 15q22 0 36.5 -16t14.5 -41q0 -23 -12 -46t-34 -42.5t-54 -31.5t-72 -12zM659 517q-35 0 -62.5 -21.5t-46 -58.5t-28 -85.5t-9.5 -103.5
q0 -56 10 -99q7 26 26.5 43.5t45 31.5t53 27t50.5 31t38 43t15 63q0 56 -23.5 92.5t-68.5 36.5z" />
    <glyph glyph-name="OE" unicode="&#x152;" horiz-adv-x="985" 
d="M451 697q54 -15 96 -47t70 -76.5t42.5 -100t14.5 -119.5v-2h21q68 0 97.5 28t36.5 80h3v-219h-3q-7 52 -36.5 80t-97.5 28h-21q-1 -63 -17.5 -119.5t-46 -101.5t-71.5 -77t-93 -48h301q44 0 74 9.5t50 30t32 53t20 78.5h2v-174h-449q-14 0 -31 -1.5t-34 -4t-32.5 -4
t-26.5 -1.5q-78 0 -138.5 27t-101 74.5t-61.5 113t-21 142.5q0 78 23.5 144.5t66 115t102 76.5t130.5 28q12 0 29 -1.5t35.5 -3.5t36.5 -3.5t32 -1.5h430v-174h-2q-8 46 -20 78.5t-32 53t-50 30t-74 9.5h-286zM352 -7q63 0 106.5 28t71.5 76.5t40.5 113t12.5 137.5
q0 71 -14 135.5t-42.5 114t-72 79t-102.5 29.5q-63 0 -106.5 -28t-71.5 -76t-40.5 -112.5t-12.5 -137.5q0 -71 14 -136t42.5 -114.5t72 -79t102.5 -29.5z" />
    <glyph glyph-name="AE" unicode="&#xc6;" horiz-adv-x="983" 
d="M439 0v3h63v346h-215l-146 -237q-14 -22 -20.5 -42t-3.5 -35t16.5 -23.5t40.5 -8.5h7v-3h-169v3h4q18 0 34 9t31 24t29 35t27 42l361 584h-88v3h503v-174h-2q-8 46 -20 78.5t-32 53t-50 30t-74 9.5h-151v-345h96q68 0 97.5 28t36.5 80h3v-219h-3q-7 52 -36.5 80t-97.5 28
h-96v-346h161q44 0 74 9.5t50 30t32 53t20 78.5h2v-174h-484zM502 697l-213 -345h213v345z" />
    <glyph glyph-name="partialdiff" unicode="&#x2202;" horiz-adv-x="547" 
d="M272 -10q-51 0 -93 19t-71.5 52.5t-46 79t-16.5 98.5t17 100.5t47.5 83t72 56.5t89.5 21q45 0 77.5 -19.5t52.5 -48.5q-17 60 -42.5 106t-56.5 78.5t-64 52.5t-63 29v4q52 -14 109.5 -50t106 -91.5t80 -130t31.5 -166.5q0 -64 -17 -114.5t-47 -86t-72.5 -54.5t-93.5 -19z
M421 258q0 50 -5.5 92.5t-20 73t-40.5 48t-67 17.5q-39 0 -69 -18.5t-50 -51t-30.5 -77.5t-10.5 -98t10 -98.5t29.5 -79t49.5 -52.5t69 -19q33 0 58 18.5t42.5 53t26 83t8.5 108.5z" />
    <glyph glyph-name="Euro" unicode="&#x20ac;" horiz-adv-x="621" 
d="M405 408h-218q-1 -14 -1 -28v-28q0 -33 3 -61h216v-3h-216q7 -63 26 -114.5t47.5 -88.5t65.5 -57t79 -20q31 0 60 10.5t52 30.5t38 49.5t20 68.5h4q-4 -39 -20 -71.5t-43.5 -56t-66 -36.5t-86.5 -13q-51 0 -95.5 22t-79 62t-57.5 94.5t-30 119.5h-98v3h98q-3 27 -3 55
q0 32 3 62h-98v3h99q8 65 31.5 120t59 94.5t82.5 62t101 22.5q32 0 54 -6t39.5 -12.5t32.5 -12.5t33 -6q17 0 26 10t9 27h3v-209h-3q-9 45 -23 82.5t-36.5 64.5t-55.5 42.5t-79 15.5q-47 0 -81.5 -22.5t-57.5 -62.5t-35.5 -93.5t-16.5 -116.5h218v-3z" />
    <glyph glyph-name="infinity" unicode="&#x221e;" horiz-adv-x="507" 
d="M45 262q0 23 8.5 43t22.5 35t33.5 23.5t42.5 8.5q36 0 63 -21t38 -53q11 32 37.5 53t62.5 21q23 0 43 -8.5t34.5 -23.5t23 -35t8.5 -43t-8.5 -42.5t-23 -34t-34.5 -23t-43 -8.5q-36 0 -62.5 20t-37.5 52q-11 -32 -38 -52t-63 -20q-23 0 -42.5 8.5t-33.5 23t-22.5 34
t-8.5 42.5zM263 262q0 -43 22.5 -74t67.5 -31t67.5 31t22.5 74q0 44 -22.5 75.5t-67.5 31.5q-22 0 -39 -8.5t-28 -23t-17 -34t-6 -41.5zM64 262q0 -43 21.5 -74t66.5 -31t68.5 31t23.5 74q0 44 -23.5 75.5t-68.5 31.5q-22 0 -38.5 -8.5t-27.5 -23t-16.5 -34t-5.5 -41.5z" />
    <glyph glyph-name="yen" unicode="&#xa5;" horiz-adv-x="649" 
d="M561 298h-203v-295h62v-3h-207v3h63v295h-194v3h194v111l-3 5h-191v3h189l-179 277h-52v3h213v-3h-67l172 -269l111 160q15 22 23.5 42t7 35t-14 23.5t-39.5 8.5h-7v3h170v-3h-4q-18 0 -35 -9t-33.5 -24t-32.5 -35t-31 -42l-115 -165v-2h203v-3h-203v-116h203v-3z" />
    <glyph glyph-name="paragraph" unicode="&#xb6;" horiz-adv-x="563" 
d="M464 697h-143v-697h-3v334h-28q-53 0 -98.5 14.5t-79.5 39.5t-53 59t-19 74q0 39 16.5 72t47 57t74 37t98.5 13h257v-3h-66v-697h-3v697zM318 697h-20q-44 0 -76.5 -14.5t-53.5 -39t-31 -57t-10 -68.5q0 -38 10 -70.5t31 -57.5t54 -39t80 -14h16v360z" />
    <glyph glyph-name="mu" unicode="&#x3bc;" horiz-adv-x="539" 
d="M145 109q0 -51 26.5 -77.5t72.5 -26.5q28 0 51 11.5t39.5 30t25 42.5t8.5 50v365h-62v3h138v-437q0 -24 13 -35.5t30 -11.5t29.5 13t14.5 34h3q-1 -11 -6 -25t-15.5 -26t-26.5 -20.5t-38 -8.5q-34 0 -55 27.5t-25 73.5q-7 -18 -19.5 -36t-31.5 -32t-43.5 -22.5
t-55.5 -8.5q-17 0 -31 3t-23 7q-11 4 -19 10v-155h62v-3h-202v3h63v647h-63v3h140v-398z" />
    <glyph glyph-name="mu" unicode="&#xb5;" horiz-adv-x="539" 
d="M145 109q0 -51 26.5 -77.5t72.5 -26.5q28 0 51 11.5t39.5 30t25 42.5t8.5 50v365h-62v3h138v-437q0 -24 13 -35.5t30 -11.5t29.5 13t14.5 34h3q-1 -11 -6 -25t-15.5 -26t-26.5 -20.5t-38 -8.5q-34 0 -55 27.5t-25 73.5q-7 -18 -19.5 -36t-31.5 -32t-43.5 -22.5
t-55.5 -8.5q-17 0 -31 3t-23 7q-11 4 -19 10v-155h62v-3h-202v3h63v647h-63v3h140v-398z" />
    <glyph glyph-name="product" unicode="&#x220f;" horiz-adv-x="567" 
d="M165 697v-694h62v-3h-207v3h63v694h-63v3h527v-3h-62v-694h62v-3h-207v3h63v694h-238z" />
    <glyph glyph-name="pi" unicode="&#x3c0;" horiz-adv-x="482" 
d="M327 504h-172v-501h62v-3h-202v3h63v501h-63v3h452v-3h-63v-501h63v-3h-202v3h62v501z" />
    <glyph glyph-name="florin" unicode="&#x192;" horiz-adv-x="287" 
d="M155 32q0 -39 -8 -74.5t-24.5 -63.5t-40.5 -44.5t-55 -16.5q-39 0 -66 22t-27 61q0 28 16 46t38 18q24 0 37 -14.5t13 -35.5q0 -25 -15.5 -38t-34.5 -13q-12 0 -20 4t-10 4q-5 0 -5 -5q0 -7 5.5 -15t15 -15t23 -12t30.5 -5t34.5 6.5t32 19.5t23.5 30.5t9 40.5
q0 34 -7.5 62t-16.5 60t-16.5 72.5t-7.5 97.5v280h-63v3h63v24q0 86 34 137.5t98 51.5q55 0 81 -30t26 -73q0 -26 -15.5 -44t-37.5 -18q-23 0 -37 14t-14 35q0 25 15 38.5t35 13.5q12 0 20 -4t10 -4q5 0 5 5q0 8 -4.5 19t-14.5 21.5t-27 17.5t-42 7q-45 0 -73.5 -29.5
t-28.5 -76.5q0 -31 6 -55t14 -50h140v-3h-139q10 -31 18 -70t8 -101v-301z" />
    <glyph glyph-name="integral" unicode="&#x222b;" horiz-adv-x="287" 
d="M78 531q0 86 34 137.5t98 51.5q55 0 81 -30t26 -73q0 -26 -15.5 -44t-37.5 -18q-23 0 -37 14t-14 35q0 25 15 38.5t35 13.5q12 0 20 -4t10 -4q5 0 5 5q0 8 -4.5 19t-14.5 21.5t-27 17.5t-42 7q-45 0 -73.5 -29.5t-28.5 -76.5q0 -34 7.5 -60t16 -55.5t16 -68t7.5 -95.5
v-301q0 -39 -8 -74.5t-24.5 -63.5t-40.5 -44.5t-55 -16.5q-39 0 -66 22t-27 61q0 28 16 46t38 18q24 0 37 -14.5t13 -35.5q0 -25 -15.5 -38t-34.5 -13q-12 0 -20 4t-10 4q-5 0 -5 -5q0 -7 5.5 -15t15 -15t23 -12t30.5 -5t34.5 6.5t32 19.5t23.5 30.5t9 40.5q0 34 -7.5 62
t-16.5 60t-16.5 72.5t-7.5 97.5v307z" />
    <glyph glyph-name="percent" unicode="%" horiz-adv-x="744" 
d="M532 723q-23 -56 -40 -98t-29.5 -73.5t-22 -56.5t-18 -47.5t-17.5 -46t-21 -52.5q-13 -32 -24.5 -56.5t-22 -48t-21.5 -48t-24 -55.5t-30.5 -71t-39.5 -95h-3q22 55 38.5 95t28.5 71t21.5 55.5t19 48t19.5 48t23 56.5q18 44 32 76t30.5 70t39.5 90.5t58 137.5h3zM635 171
q0 37 -5.5 69.5t-17 56.5t-28.5 38t-39 14q-24 0 -41.5 -13t-29 -36.5t-17 -55.5t-5.5 -70t5.5 -70.5t17 -56.5t28 -38t39.5 -14q24 0 41.5 13.5t29 37t17 55.5t5.5 70zM704 175q0 -38 -13 -71.5t-35 -58.5t-51.5 -39.5t-62.5 -14.5q-35 0 -64 14t-50 38t-33 56.5t-12 70.5
t13 71.5t35 58t51.5 39t62.5 14.5q34 0 63.5 -14t50.5 -38t33 -56.5t12 -69.5zM292 527q0 37 -5.5 69.5t-17 56.5t-28.5 38t-39 14q-24 0 -41.5 -13t-29 -36.5t-17 -55.5t-5.5 -70t5.5 -70.5t17 -56.5t28 -38t39.5 -14q24 0 41.5 13.5t29 37t17 55.5t5.5 70zM361 531
q0 -38 -13 -71.5t-35 -58.5t-51.5 -39.5t-62.5 -14.5q-35 0 -64 14t-50 38t-33 56.5t-12 70.5t13 71.5t35 58t51.5 39t62.5 14.5q34 0 63.5 -14t50.5 -38t33 -56.5t12 -69.5z" />
    <glyph glyph-name="fraction" unicode="&#x2044;" horiz-adv-x="113" 
d="M213 723q-23 -56 -40 -98t-29.5 -73.5t-22 -56.5t-18 -47.5t-17.5 -46t-21 -52.5q-14 -32 -24.5 -56.5t-21.5 -48t-21.5 -48t-24.5 -55.5t-31 -71t-39 -95h-3q22 55 38.5 95t28.5 71t21.5 55.5t19 48t19.5 48t23 56.5q18 44 32 76t30.5 70t39.5 90.5t58 137.5h3z" />
    <glyph glyph-name="perthousand" unicode="&#x2030;" horiz-adv-x="1099" 
d="M532 723q-23 -56 -40 -98t-29.5 -73.5t-22 -56.5t-18 -47.5t-17.5 -46t-21 -52.5q-13 -32 -24.5 -56.5t-22 -48t-21.5 -48t-24 -55.5t-30.5 -71t-39.5 -95h-3q22 55 38.5 95t28.5 71t21.5 55.5t19 48t19.5 48t23 56.5q18 44 32 76t30.5 70t39.5 90.5t58 137.5h3zM635 171
q0 37 -5.5 69.5t-17 56.5t-28.5 38t-39 14q-24 0 -41.5 -13t-29 -36.5t-17 -55.5t-5.5 -70t5.5 -70.5t17 -56.5t28 -38t39.5 -14q24 0 41.5 13.5t29 37t17 55.5t5.5 70zM704 175q0 -38 -13 -71.5t-35 -58.5t-51.5 -39.5t-62.5 -14.5q-35 0 -64 14t-50 38t-33 56.5t-12 70.5
t13 71.5t35 58t51.5 39t62.5 14.5q34 0 63.5 -14t50.5 -38t33 -56.5t12 -69.5zM292 527q0 37 -5.5 69.5t-17 56.5t-28.5 38t-39 14q-24 0 -41.5 -13t-29 -36.5t-17 -55.5t-5.5 -70t5.5 -70.5t17 -56.5t28 -38t39.5 -14q24 0 41.5 13.5t29 37t17 55.5t5.5 70zM361 531
q0 -38 -13 -71.5t-35 -58.5t-51.5 -39.5t-62.5 -14.5q-35 0 -64 14t-50 38t-33 56.5t-12 70.5t13 71.5t35 58t51.5 39t62.5 14.5q34 0 63.5 -14t50.5 -38t33 -56.5t12 -69.5zM990 171q0 37 -5.5 69.5t-17 56.5t-28.5 38t-39 14q-24 0 -41.5 -13t-29 -36.5t-17 -55.5
t-5.5 -70t5.5 -70.5t17 -56.5t28 -38t39.5 -14q24 0 41.5 13.5t29 37t17 55.5t5.5 70zM1059 175q0 -38 -13 -71.5t-35 -58.5t-51.5 -39.5t-62.5 -14.5q-35 0 -64 14t-50 38t-33 56.5t-12 70.5t13 71.5t35 58t51.5 39t62.5 14.5q34 0 63.5 -14t50.5 -38t33 -56.5t12 -69.5z
" />
    <glyph glyph-name="registered" unicode="&#xae;" horiz-adv-x="842" 
d="M792 351q0 -78 -28 -144.5t-77.5 -114.5t-117.5 -75.5t-148 -27.5t-148 27.5t-117.5 75.5t-77.5 114t-28 143q0 78 28 144.5t77.5 114.5t117.5 75.5t148 27.5t148 -27.5t117.5 -75.5t77.5 -114t28 -143zM751 350q0 80 -21.5 146t-63.5 113t-103.5 73t-141.5 26
t-141.5 -26t-103.5 -73t-63.5 -113t-21.5 -146t21.5 -146t63.5 -113t103.5 -73t141.5 -26t141.5 26t103.5 73t63.5 113t21.5 146zM588 216q0 -27 1.5 -40.5t17.5 -13.5q11 0 17.5 8.5t6.5 21.5v12h3v-12q0 -20 -12 -37.5t-41 -17.5q-35 0 -49.5 22t-14.5 57q0 30 -2 54
t-11.5 41.5t-28.5 27t-53 9.5h-72v-202h44v-3h-155v3h44v414h-44v3h201q77 0 121 -29t44 -77q0 -22 -11.5 -40.5t-31.5 -33t-47 -23.5t-59 -12q69 -5 100.5 -38.5t31.5 -93.5zM350 351h72q32 0 53.5 8t34.5 22t18.5 33t5.5 42q0 22 -5.5 41t-18.5 33t-34 22t-52 8h-74v-209z
" />
    <glyph glyph-name="copyright" unicode="&#xa9;" horiz-adv-x="842" 
d="M792 351q0 -78 -28 -144.5t-77.5 -114.5t-117.5 -75.5t-148 -27.5t-148 27.5t-117.5 75.5t-77.5 114t-28 143q0 78 28 144.5t77.5 114.5t117.5 75.5t148 27.5t148 -27.5t117.5 -75.5t77.5 -114t28 -143zM751 350q0 80 -21.5 146t-63.5 113t-103.5 73t-141.5 26
t-141.5 -26t-103.5 -73t-63.5 -113t-21.5 -146t21.5 -146t63.5 -113t103.5 -73t141.5 -26t141.5 26t103.5 73t63.5 113t21.5 146zM469 148q22 0 42.5 6.5t37 18.5t27.5 30t14 41h4q-6 -48 -46.5 -78t-110.5 -30q-47 0 -85 17t-66 46t-43 69t-15 85t17 85t46 70t69 47.5
t86 17.5q37 0 64.5 -9t45.5 -24t26.5 -34t8.5 -40q0 -22 -13.5 -37.5t-33.5 -15.5q-23 0 -36 13t-13 33q0 23 14.5 34.5t32.5 11.5q11 0 18 -3.5t9 -3.5q4 0 4 4q0 7 -6 18t-19.5 21.5t-35.5 18.5t-53 8q-72 0 -113 -56t-41 -155q0 -45 11.5 -83.5t33 -66t51.5 -43.5t68 -16
z" />
    <glyph glyph-name="at" unicode="@" horiz-adv-x="842" 
d="M745 57q-28 -35 -69 -62q-36 -23 -91.5 -42t-135.5 -19q-85 0 -158 29t-126.5 80t-84 121t-30.5 152q0 83 30.5 153.5t84.5 121.5t127 80t158 29q83 0 150.5 -26.5t115 -72.5t73.5 -107.5t26 -131.5q0 -60 -15.5 -108t-42 -81t-61.5 -51t-74 -18q-17 0 -33 4.5t-29 13.5
t-21.5 23.5t-9.5 34.5q-6 -14 -18 -28t-28.5 -25t-37.5 -18.5t-45 -7.5q-22 0 -43 6.5t-37.5 19.5t-26.5 31.5t-10 42.5q0 38 18.5 60t47 35.5t61 23t61 23.5t47 36.5t18.5 61.5q0 89 -106 89q-27 0 -48 -8.5t-35 -20t-21.5 -23t-7.5 -17.5q0 -4 5 -4q2 0 8 3t17 3
q14 0 27 -10.5t13 -30.5q0 -18 -12 -30t-30 -12q-19 0 -31 13t-12 33q0 18 9 37.5t27 35.5t44 26t60 10q72 0 111.5 -43.5t39.5 -114.5v-211q0 -53 53 -53q28 0 57.5 17t53.5 49t39 78t15 105q0 70 -26 131t-73 106.5t-114 71.5t-149 26q-85 0 -149.5 -30.5t-108.5 -82
t-66.5 -120.5t-22.5 -147t22.5 -147t66 -120.5t108 -82t149.5 -30.5q78 0 133.5 18.5t90.5 41.5q41 26 68 60h4zM528 388q-18 -29 -46.5 -44.5t-56.5 -31.5t-48 -39.5t-20 -66.5q0 -37 22 -59t58 -22q42 0 66.5 25t24.5 58v180z" />
    <glyph glyph-name="sterling" unicode="&#xa3;" horiz-adv-x="545" 
d="M416 288h-176v-7q0 -3 0.5 -6.5t0.5 -7.5q0 -56 -28.5 -88t-68.5 -38q36 -4 68 -17.5t64.5 -28.5t66.5 -27t74 -12q39 2 68 26.5t45 65.5h3l-67 -168h-26q-44 0 -78.5 11.5t-63 29t-52 38t-45 38t-43 29t-45.5 11.5q-34 0 -50.5 -14.5t-16.5 -30.5q0 -5 5 -5q2 0 10 4
t20 4q19 0 34.5 -13t15.5 -38q0 -21 -14.5 -34.5t-38.5 -13.5q-22 0 -36.5 16t-14.5 41q0 39 24.5 64t71.5 25q18 0 34.5 5t30 16t21.5 27.5t8 39.5q0 30 -11 58h-130v3h129q-12 28 -30.5 53.5t-36 53t-30 61.5t-12.5 79q0 35 13.5 65.5t38.5 52.5t59.5 34.5t76.5 12.5
q26 0 46.5 -4t37.5 -9.5t31.5 -9.5t29.5 -4q14 0 21 7.5t7 19.5h3v-171h-3q-14 82 -54.5 124.5t-118.5 42.5q-62 0 -95 -37t-33 -92q0 -50 10.5 -85t24 -65t27.5 -60t21 -69h177v-3z" />
    <glyph glyph-name="bracketleft" unicode="[" horiz-adv-x="317" 
d="M307 750v-3h-153v-838h153v-3h-224v844h224z" />
    <glyph glyph-name="bracketright" unicode="]" horiz-adv-x="317" 
d="M234 750v-844h-224v3h153v838h-153v3h224z" />
    <glyph glyph-name="braceleft" unicode="{" horiz-adv-x="317" 
d="M154 388q0 25 -15.5 46t-34 43t-34 49t-15.5 65q0 34 17 64.5t49.5 54t79 37.5t106.5 14v-4q-92 0 -137 -37t-45 -96q0 -34 12.5 -60.5t27 -50t27 -46.5t12.5 -50q0 -19 -9.5 -34.5t-24.5 -27t-34 -18.5t-38 -9q19 -2 38 -9t34 -18.5t24.5 -27t9.5 -34.5q0 -27 -12.5 -50
t-27 -46.5t-27 -50t-12.5 -60.5q0 -59 45 -96t137 -37v-4q-60 0 -106.5 14t-79 37.5t-49.5 54t-17 64.5q0 38 15.5 65t34 49t34 42.5t15.5 46.5q0 32 -19.5 45t-57.5 13v4q38 0 57.5 13t19.5 45z" />
    <glyph glyph-name="braceright" unicode="}" horiz-adv-x="317" 
d="M163 388q0 -32 19.5 -45t57.5 -13v-4q-38 0 -57.5 -13t-19.5 -45q0 -26 15.5 -46.5t34 -42.5t34 -49t15.5 -65q0 -34 -17 -64.5t-49.5 -54t-79 -37.5t-106.5 -14v4q92 0 137 37t45 96q0 34 -12.5 60.5t-27 50t-27 46.5t-12.5 50q0 19 9.5 34.5t24.5 27t34 18.5t38 9
q-19 2 -38 9t-34 18.5t-24.5 27t-9.5 34.5q0 27 12.5 50t27 46.5t27 50t12.5 60.5q0 59 -45 96t-137 37v4q60 0 106.5 -14t79 -37.5t49.5 -54t17 -64.5q0 -38 -15.5 -65t-34 -49t-34 -43t-15.5 -46z" />
    <glyph glyph-name="guilsinglleft" unicode="&#x2039;" horiz-adv-x="394" 
d="M343 35q-42 33 -73.5 56.5t-55.5 41.5t-43.5 31.5t-37 26t-35.5 26t-40 30.5q-8 6 -8 14q0 9 8 15q22 17 40 30.5t35.5 26t37 26t43.5 31.5t55.5 41.5t73.5 56.5l1 -5q-62 -48 -101 -80t-67.5 -55t-52 -43t-53.5 -44q20 -16 37 -30t33.5 -27.5t35 -29t42.5 -35
t54.5 -43.5t71.5 -56z" />
    <glyph glyph-name="guillemotleft" unicode="&#xab;" horiz-adv-x="520" 
d="M343 35q-42 33 -73.5 56.5t-55.5 41.5t-43.5 31.5t-37 26t-35.5 26t-40 30.5q-8 6 -8 14q0 9 8 15q22 17 40 30.5t35.5 26t37 26t43.5 31.5t55.5 41.5t73.5 56.5l1 -5q-62 -48 -101 -80t-67.5 -55t-52 -43t-53.5 -44q20 -16 37 -30t33.5 -27.5t35 -29t42.5 -35
t54.5 -43.5t71.5 -56zM469 58q-63 44 -103 70.5t-69.5 45.5t-54.5 35t-58 39q-8 6 -8 13q0 8 8 14q33 23 58 39t54.5 35t69.5 45.5t103 70.5l1 -4q-41 -29 -71.5 -51t-54.5 -39.5t-42.5 -31t-35 -26t-33.5 -25t-37 -27.5q30 -22 53.5 -39.5t52 -39t67.5 -49.5t101 -71z" />
    <glyph glyph-name="guillemotright" unicode="&#xbb;" horiz-adv-x="520" 
d="M50 62q61 43 100.5 71t68 49.5t52 39t53.5 39.5q-30 22 -53.5 40t-52 39t-68 49t-100.5 72l1 4q63 -44 103 -70.5t69.5 -45.5t54.5 -35t58 -39q8 -6 8 -14q0 -7 -8 -13q-33 -23 -58 -39t-54.5 -35t-69.5 -45.5t-103 -70.5zM176 40q61 48 100.5 79.5t68 55t52 43
t53.5 43.5q-30 24 -53.5 44t-52 43t-68 55t-100.5 80l1 5q42 -33 73.5 -56.5t55.5 -41.5t43.5 -31.5t37 -26t35.5 -26t40 -30.5q8 -6 8 -15q0 -8 -8 -14q-22 -17 -40 -30.5t-35.5 -26t-37 -26t-43.5 -31.5t-55.5 -41.5t-73.5 -56.5z" />
    <glyph glyph-name="guilsinglright" unicode="&#x203a;" horiz-adv-x="394" 
d="M50 40q61 48 100.5 79.5t68 55t52 43t53.5 43.5q-30 24 -53.5 44t-52 43t-68 55t-100.5 80l1 5q42 -33 73.5 -56.5t55.5 -41.5t43.5 -31.5t37 -26t35.5 -26t40 -30.5q8 -6 8 -15q0 -8 -8 -14q-22 -17 -40 -30.5t-35.5 -26t-37 -26t-43.5 -31.5t-55.5 -41.5t-73.5 -56.5z
" />
    <glyph glyph-name="ordfeminine" unicode="&#xaa;" 
d="M155 645q14 0 26.5 -9.5t12.5 -28.5q0 -17 -11 -28t-30 -11q-17 0 -28 12.5t-11 30.5q0 16 8.5 32.5t24.5 30.5t39.5 23t53.5 9q66 0 102 -37t36 -100v-177q0 -16 9 -24t21 -8q14 0 23.5 8t11.5 24h2q-1 -8 -4.5 -17.5t-11 -18.5t-19 -15t-27.5 -6q-56 0 -64 64
q-12 -23 -42 -43.5t-74 -20.5q-41 0 -71 22t-30 64q0 33 16.5 51.5t41.5 30t54 19.5t54 20t41.5 31t16.5 52q0 76 -97 76q-24 0 -42.5 -7t-31 -17t-19 -19.5t-6.5 -15.5q0 -2 3 -2q2 0 7.5 2.5t14.5 2.5zM318 574q-17 -21 -43.5 -34t-51 -26.5t-42 -33.5t-17.5 -54
q0 -32 20.5 -50.5t53.5 -18.5q37 0 58.5 21t21.5 49v147z" />
    <glyph glyph-name="ordmasculine" unicode="&#xba;" 
d="M362 520q0 38 -7 71t-20.5 58t-34 39t-47.5 14q-29 0 -50.5 -13.5t-35.5 -37.5t-21 -57t-7 -71t7 -71t20.5 -57.5t34.5 -39t48 -14.5q28 0 49.5 14t35.5 38t21 56.5t7 70.5zM426 524q0 -39 -14 -73t-38 -59.5t-56.5 -40t-68.5 -14.5q-38 0 -70 14t-55 38.5t-36 58
t-13 71.5q0 39 14 73t38 59.5t56.5 40.5t69.5 15t68.5 -14t55 -39t36.5 -58t13 -72z" />
    <glyph glyph-name="summation" unicode="&#x2211;" horiz-adv-x="529" 
d="M284 269l-209 -364h233q41 0 73 3t56 11t40 23.5t26 40.5h3l-51 -144h-421l246 430l-246 431h421l51 -144h-3q-10 25 -26 40.5t-40 23.5t-56 11t-73 3h-233z" />
    <glyph glyph-name="trademark" unicode="&#x2122;" horiz-adv-x="848" 
d="M158 747q-53 0 -76.5 -20.5t-28.5 -69.5h-3v112h2q0 -19 19 -19h265q18 0 21 19h2v-112h-3q-5 49 -28 69.5t-77 20.5h-16v-353h36v-3h-134v3h36v353h-15zM808 750v-3h-34v-352h34v-3h-132v3h36v343l-106 -348h-30l-129 349v-281q0 -35 12.5 -49.5t29.5 -15.5v-3h-82v3
q14 0 25 15t11 50v289h-36v3h102l110 -305l93 305h96z" />
    <glyph glyph-name="logicalnot" unicode="&#xac;" 
d="M441 331q14 0 14 -13q0 -31 -1 -54t-2.5 -49t-2.5 -61.5t-1 -90.5h-3q0 55 -1 90t-2.5 61t-2.5 48.5t-1 53.5q-48 0 -82.5 1t-73.5 2t-92.5 2t-139.5 1v3q86 0 140 1t93.5 2t74.5 2t83 1z" />
    <glyph glyph-name="Delta" unicode="&#x2206;" horiz-adv-x="675" 
d="M56 0v3l254 697h37l272 -697v-3h-563zM288 628l-188 -516q-8 -22 -9.5 -41.5t5 -34t22 -23.5t40.5 -10h373z" />
    <glyph glyph-name="Delta" unicode="&#x394;" horiz-adv-x="675" 
d="M56 0v3l254 697h37l272 -697v-3h-563zM288 628l-188 -516q-8 -22 -9.5 -41.5t5 -34t22 -23.5t40.5 -10h373z" />
    <glyph glyph-name="lozenge" unicode="&#x25ca;" horiz-adv-x="533" 
d="M20 348l215 352h42l229 -348l-215 -352h-42zM67 418l245 -376l147 239l-245 377z" />
    <glyph glyph-name="Omega" unicode="&#x2126;" horiz-adv-x="704" 
d="M121 362q0 -58 8 -104.5t21.5 -82.5t30.5 -62.5t35 -45.5q42 -45 96 -63v-4h-241l-51 144h3q20 -50 74 -69t127 -19q-32 18 -66.5 47t-63 67.5t-46.5 86.5t-18 106q0 72 23.5 135.5t66 110.5t102 74t130.5 27q78 0 138.5 -26.5t101 -72.5t61.5 -108.5t21 -133.5
q0 -58 -18 -107t-46 -89t-62 -69.5t-66 -47.5q73 0 126 19t73 69h3l-51 -144h-241v4q53 17 95 61q18 19 35 45t30.5 62t22 82t8.5 104q0 69 -14 132t-42.5 111t-72 76.5t-102.5 28.5q-63 0 -106.5 -27t-71.5 -73.5t-40.5 -109.5t-12.5 -134z" />
    <glyph glyph-name="Omega" unicode="&#x3a9;" horiz-adv-x="704" 
d="M121 362q0 -58 8 -104.5t21.5 -82.5t30.5 -62.5t35 -45.5q42 -45 96 -63v-4h-241l-51 144h3q20 -50 74 -69t127 -19q-32 18 -66.5 47t-63 67.5t-46.5 86.5t-18 106q0 72 23.5 135.5t66 110.5t102 74t130.5 27q78 0 138.5 -26.5t101 -72.5t61.5 -108.5t21 -133.5
q0 -58 -18 -107t-46 -89t-62 -69.5t-66 -47.5q73 0 126 19t73 69h3l-51 -144h-241v4q53 17 95 61q18 19 35 45t30.5 62t22 82t8.5 104q0 69 -14 132t-42.5 111t-72 76.5t-102.5 28.5q-63 0 -106.5 -27t-71.5 -73.5t-40.5 -109.5t-12.5 -134z" />
    <glyph glyph-name="radical" unicode="&#x221a;" horiz-adv-x="533" 
d="M536 750v-3h-92l-181 -747h-38l-169 504h-56v3h136l141 -433l164 676h95z" />
    <glyph glyph-name="Abreve" unicode="&#x102;" horiz-adv-x="675" 
d="M170 3v-3h-170v3h4q18 0 31.5 9t24.5 24t19.5 35t16.5 42l214 587h37l272 -697h56v-3h-210v3h66l-116 297h-247l-68 -188q-8 -22 -9.5 -42t6 -35t23.5 -23.5t43 -8.5h7zM169 303h245l-126 325zM325 808q52 0 93 20.5t60 64.5h3q-20 -48 -59 -73.5t-97 -25.5t-97 25.5
t-59 73.5h3q19 -44 60 -64.5t93 -20.5z" />
    <glyph glyph-name="abreve" unicode="&#x103;" horiz-adv-x="509" 
d="M115 432q19 0 34.5 -13t15.5 -38q0 -21 -14.5 -36t-38.5 -15q-22 0 -36.5 16t-14.5 41q0 22 11 45.5t32.5 43t52.5 31.5t71 12q87 0 135.5 -53.5t48.5 -140.5v-255q0 -24 12.5 -35.5t29.5 -11.5q19 0 32 13t15 34h3q-1 -11 -6 -25t-15 -26t-25.5 -20.5t-37.5 -8.5
q-39 0 -59.5 23t-24.5 73q-8 -17 -22 -34t-34 -30.5t-45.5 -22.5t-55.5 -9q-27 0 -51 8t-42.5 23.5t-29.5 38t-11 51.5q0 47 22 74t55.5 43.5t72.5 28.5t72.5 28.5t55.5 44t22 75.5q0 54 -33.5 81.5t-98.5 27.5q-33 0 -58 -10.5t-41.5 -24.5t-25 -28t-8.5 -22q0 -5 5 -5
q2 0 10 4t20 4zM335 339q-14 -23 -35 -38.5t-44 -28t-46.5 -25t-42 -29.5t-30 -41t-11.5 -59q0 -46 27 -73t72 -27q25 0 45.5 8.5t34.5 22.5t22 32.5t8 38.5v219zM243 609q52 0 93 20.5t60 64.5h3q-20 -48 -59 -73.5t-97 -25.5t-97 25.5t-59 73.5h3q19 -44 60 -64.5
t93 -20.5z" />
    <glyph glyph-name="dotbelowcomb" unicode="&#x323;" 
d="M298 -118q0 -22 -14.5 -36.5t-34.5 -14.5q-21 0 -34.5 14t-13.5 36q0 23 14 37.5t34 14.5q22 0 35.5 -14t13.5 -37z" />
    <glyph glyph-name="uni1EA0" unicode="&#x1ea0;" horiz-adv-x="675" 
d="M170 3v-3h-170v3h4q18 0 31.5 9t24.5 24t19.5 35t16.5 42l214 587h37l272 -697h56v-3h-210v3h66l-116 297h-247l-68 -188q-8 -22 -9.5 -42t6 -35t23.5 -23.5t43 -8.5h7zM169 303h245l-126 325zM366 -118q0 -22 -14.5 -36.5t-34.5 -14.5q-21 0 -34.5 14t-13.5 36
q0 23 14 37.5t34 14.5q22 0 35.5 -14t13.5 -37z" />
    <glyph glyph-name="uni1EA1" unicode="&#x1ea1;" horiz-adv-x="509" 
d="M115 432q19 0 34.5 -13t15.5 -38q0 -21 -14.5 -36t-38.5 -15q-22 0 -36.5 16t-14.5 41q0 22 11 45.5t32.5 43t52.5 31.5t71 12q87 0 135.5 -53.5t48.5 -140.5v-255q0 -24 12.5 -35.5t29.5 -11.5q19 0 32 13t15 34h3q-1 -11 -6 -25t-15 -26t-25.5 -20.5t-37.5 -8.5
q-39 0 -59.5 23t-24.5 73q-8 -17 -22 -34t-34 -30.5t-45.5 -22.5t-55.5 -9q-27 0 -51 8t-42.5 23.5t-29.5 38t-11 51.5q0 47 22 74t55.5 43.5t72.5 28.5t72.5 28.5t55.5 44t22 75.5q0 54 -33.5 81.5t-98.5 27.5q-33 0 -58 -10.5t-41.5 -24.5t-25 -28t-8.5 -22q0 -5 5 -5
q2 0 10 4t20 4zM335 339q-14 -23 -35 -38.5t-44 -28t-46.5 -25t-42 -29.5t-30 -41t-11.5 -59q0 -46 27 -73t72 -27q25 0 45.5 8.5t34.5 22.5t22 32.5t8 38.5v219zM287 -118q0 -22 -14.5 -36.5t-34.5 -14.5q-21 0 -34.5 14t-13.5 36q0 23 14 37.5t34 14.5q22 0 35.5 -14
t13.5 -37z" />
    <glyph glyph-name="Itilde" unicode="&#x128;" horiz-adv-x="247" 
d="M215 800q31 0 51 14.5t36 49.5h3q-17 -38 -38.5 -58.5t-59.5 -20.5q-32 0 -52.5 11t-37.5 24.5t-33 24.5t-39 11q-31 0 -51 -14.5t-36 -49.5h-3q17 38 38.5 58.5t59.5 20.5q25 0 42.5 -11t34.5 -24.5t36.5 -24.5t48.5 -11zM20 697v3h207v-3h-62v-694h62v-3h-207v3h63v694
h-63z" />
    <glyph glyph-name="itilde" unicode="&#x129;" horiz-adv-x="222" 
d="M155 3h62v-3h-202v3h63v501h-63v3h140v-504zM189 628q31 0 51 14.5t36 49.5h3q-17 -38 -38.5 -58.5t-59.5 -20.5q-32 0 -52.5 11t-37.5 24.5t-33 24.5t-39 11q-31 0 -51 -14.5t-36 -49.5h-3q17 38 38.5 58.5t59.5 20.5q25 0 42.5 -11t34.5 -24.5t36.5 -24.5t48.5 -11z
" />
    <glyph glyph-name="Utilde" unicode="&#x168;" horiz-adv-x="671" 
d="M437 800q31 0 51 14.5t36 49.5h3q-17 -38 -38.5 -58.5t-59.5 -20.5q-32 0 -52.5 11t-37.5 24.5t-33 24.5t-39 11q-31 0 -51 -14.5t-36 -49.5h-3q17 38 38.5 58.5t59.5 20.5q25 0 42.5 -11t34.5 -24.5t36.5 -24.5t48.5 -11zM572 237q0 -55 -19.5 -100t-53.5 -77.5
t-79 -50.5t-96 -18q-52 0 -96 18t-76.5 50t-50.5 75t-18 94v469h-63v3h207v-3h-62v-464q0 -44 15.5 -79.5t43 -61t65 -39.5t81.5 -14q42 0 78 13t62.5 38t42 62t15.5 86v349q0 57 -19.5 83.5t-58.5 26.5h-4v3h170v-3h-4q-39 0 -59.5 -26.5t-20.5 -83.5v-350z" />
    <glyph glyph-name="utilde" unicode="&#x169;" horiz-adv-x="572" 
d="M357 628q31 0 51 14.5t36 49.5h3q-17 -38 -38.5 -58.5t-59.5 -20.5q-32 0 -52.5 11t-37.5 24.5t-33 24.5t-39 11q-31 0 -51 -14.5t-36 -49.5h-3q17 38 38.5 58.5t59.5 20.5q25 0 42.5 -11t34.5 -24.5t36.5 -24.5t48.5 -11zM396 91q-7 -18 -20.5 -36.5t-33 -32.5t-45 -23
t-56.5 -9q-74 0 -110 52t-36 138v257q0 24 -13 35.5t-30 11.5t-29.5 -13t-14.5 -34h-3q1 11 6 25t15.5 26t26.5 20.5t38 8.5q39 0 60.5 -29t21.5 -82v-297q0 -51 26.5 -77.5t72.5 -26.5q28 0 51 11.5t39.5 30t25 42.5t8.5 50v365h-62v3h138v-437q0 -24 13 -35.5t30 -11.5
t29.5 13t14.5 34h3q-1 -11 -6 -25t-15.5 -26t-26.5 -20.5t-38 -8.5q-34 0 -55 27.5t-25 73.5z" />
    <glyph glyph-name="hookabovecomb" unicode="&#x309;" horiz-adv-x="429" 
d="M184 536q-3 6 -6 15t-3 17q0 11 7 19t15 15.5t15 16t7 20.5q0 13 -5.5 24.5t-23.5 13.5q-17 1 -28.5 -10.5t-9.5 -21.5l1 -1q3 -1 4.5 0.5t5.5 1.5q6 0 11.5 -4t4.5 -12t-6.5 -12.5t-16.5 -3.5q-10 1 -14.5 7.5t-4.5 15.5q0 16 14 29.5t40 13.5t43 -13t17 -31
t-10.5 -29.5t-23 -20.5t-23 -18t-10.5 -22q0 -6 2 -10h-2z" />
    <glyph glyph-name="uni1EA2" unicode="&#x1ea2;" horiz-adv-x="675" 
d="M170 3v-3h-170v3h4q18 0 31.5 9t24.5 24t19.5 35t16.5 42l214 587h37l272 -697h56v-3h-210v3h66l-116 297h-247l-68 -188q-8 -22 -9.5 -42t6 -35t23.5 -23.5t43 -8.5h7zM169 303h245l-126 325zM331 750q-3 6 -6 15t-3 17q0 11 7 19t15 15.5t15 16t7 20.5q0 13 -5.5 24.5
t-23.5 13.5q-17 1 -28.5 -10.5t-9.5 -21.5l1 -1q3 -1 4.5 0.5t5.5 1.5q6 0 11.5 -4t4.5 -12t-6.5 -12.5t-16.5 -3.5q-10 1 -14.5 7.5t-4.5 15.5q0 16 14 29.5t40 13.5t43 -13t17 -31t-10.5 -29.5t-23 -20.5t-23 -18t-10.5 -22q0 -6 2 -10h-2z" />
    <glyph glyph-name="uni1EA3" unicode="&#x1ea3;" horiz-adv-x="509" 
d="M115 432q19 0 34.5 -13t15.5 -38q0 -21 -14.5 -36t-38.5 -15q-22 0 -36.5 16t-14.5 41q0 22 11 45.5t32.5 43t52.5 31.5t71 12q87 0 135.5 -53.5t48.5 -140.5v-255q0 -24 12.5 -35.5t29.5 -11.5q19 0 32 13t15 34h3q-1 -11 -6 -25t-15 -26t-25.5 -20.5t-37.5 -8.5
q-39 0 -59.5 23t-24.5 73q-8 -17 -22 -34t-34 -30.5t-45.5 -22.5t-55.5 -9q-27 0 -51 8t-42.5 23.5t-29.5 38t-11 51.5q0 47 22 74t55.5 43.5t72.5 28.5t72.5 28.5t55.5 44t22 75.5q0 54 -33.5 81.5t-98.5 27.5q-33 0 -58 -10.5t-41.5 -24.5t-25 -28t-8.5 -22q0 -5 5 -5
q2 0 10 4t20 4zM335 339q-14 -23 -35 -38.5t-44 -28t-46.5 -25t-42 -29.5t-30 -41t-11.5 -59q0 -46 27 -73t72 -27q25 0 45.5 8.5t34.5 22.5t22 32.5t8 38.5v219zM246 570q-3 6 -6 15t-3 17q0 11 7 19t15 15.5t15 16t7 20.5q0 13 -5.5 24.5t-23.5 13.5q-17 1 -28.5 -10.5
t-9.5 -21.5l1 -1q3 -1 4.5 0.5t5.5 1.5q6 0 11.5 -4t4.5 -12t-6.5 -12.5t-16.5 -3.5q-10 1 -14.5 7.5t-4.5 15.5q0 16 14 29.5t40 13.5t43 -13t17 -31t-10.5 -29.5t-23 -20.5t-23 -18t-10.5 -22q0 -6 2 -10h-2z" />
    <glyph glyph-name="Ohorn" unicode="&#x1a0;" horiz-adv-x="704" 
d="M352 710q60 0 109 -16t87 -45q16 8 26.5 19.5t14.5 20.5q4 4 -2 6q-2 1 -11 0.5t-20 4.5q-17 8 -26 26.5t2 41.5q9 19 28 27t39 -2q23 -11 29 -32.5t-5 -44.5q-9 -20 -27 -39.5t-43 -31.5q60 -48 90.5 -122.5t30.5 -168.5q0 -78 -23.5 -144.5t-66 -115.5t-102 -77
t-130.5 -28q-78 0 -138.5 27t-101 74.5t-61.5 113t-21 142.5q0 78 23.5 144.5t66 115t102 76.5t130.5 28zM352 -7q63 0 106.5 28t71.5 76.5t40.5 113t12.5 137.5q0 71 -14 135.5t-42.5 114t-72 79t-102.5 29.5q-63 0 -106.5 -28t-71.5 -76t-40.5 -112.5t-12.5 -137.5
q0 -71 14 -136t42.5 -114.5t72 -79t102.5 -29.5z" />
    <glyph glyph-name="ohorn" unicode="&#x1a1;" horiz-adv-x="557" 
d="M512 258q0 -55 -18.5 -103.5t-51 -85t-75.5 -57.5t-91 -21q-50 0 -92.5 20t-73 55.5t-48 83t-17.5 102.5t18.5 103.5t51 84.5t75.5 57t91 21q53 0 96.5 -22.5t74.5 -60.5q28 7 45.5 23t23.5 28q4 4 -2 6q-2 1 -11 0.5t-20 4.5q-17 8 -26 26.5t2 41.5q9 19 28 27t39 -2
q23 -11 29 -32.5t-5 -44.5q-12 -26 -38 -49.5t-62 -31.5q27 -35 42 -79t15 -95zM429 253q0 55 -9 102.5t-27.5 82.5t-46.5 55.5t-65 20.5q-39 0 -68 -19.5t-47.5 -54t-28 -81.5t-9.5 -102t9 -102.5t27.5 -83t46.5 -56t65 -20.5q39 0 68 19.5t47.5 54t28 82t9.5 102.5z" />
    <glyph glyph-name="Uhorn" unicode="&#x1af;" horiz-adv-x="671" 
d="M572 237q0 -55 -19.5 -100t-53.5 -77.5t-79 -50.5t-96 -18q-52 0 -96 18t-76.5 50t-50.5 75t-18 94v469h-63v3h207v-3h-62v-464q0 -44 15.5 -79.5t43 -61t65 -39.5t81.5 -14q42 0 78 13t62.5 38t42 62t15.5 86v349q0 57 -19.5 83.5t-58.5 26.5h-4v3h86q12 0 18.5 3
t12.5 8q4 5 0 8q-2 2 -9.5 5.5t-15.5 13.5q-11 15 -9.5 35.5t21.5 35.5q17 12 37 10t33 -20q15 -20 10 -42t-25 -37q-9 -7 -22 -10.5t-24.5 -9t-19.5 -14.5t-7 -26v-423v0z" />
    <glyph glyph-name="uhorn" unicode="&#x1b0;" horiz-adv-x="572" 
d="M396 91q-7 -18 -20.5 -36.5t-33 -32.5t-45 -23t-56.5 -9q-74 0 -110 52t-36 138v257q0 24 -13 35.5t-30 11.5t-29.5 -13t-14.5 -34h-3q1 11 6 25t15.5 26t26.5 20.5t38 8.5q39 0 60.5 -29t21.5 -82v-297q0 -51 26.5 -77.5t72.5 -26.5q28 0 51 11.5t39.5 30t25 42.5
t8.5 50v365h-62v3h138v-71q26 7 43.5 22.5t23.5 27.5q4 4 -2 6q-2 1 -11 0.5t-20 4.5q-17 8 -26 26.5t2 41.5q9 19 28 27t39 -2q23 -11 29 -32.5t-5 -44.5q-12 -26 -38.5 -49.5t-62.5 -31.5v-362q0 -24 13 -35.5t30 -11.5t29.5 13t14.5 34h3q-1 -11 -6 -25t-15.5 -26
t-26.5 -20.5t-38 -8.5q-34 0 -55 27.5t-25 73.5z" />
    <glyph glyph-name="uni1EA4" unicode="&#x1ea4;" horiz-adv-x="675" 
d="M170 3v-3h-170v3h4q18 0 31.5 9t24.5 24t19.5 35t16.5 42l214 587h37l272 -697h56v-3h-210v3h66l-116 297h-247l-68 -188q-8 -22 -9.5 -42t6 -35t23.5 -23.5t43 -8.5h7zM169 303h245l-126 325zM337 873q14 -12 23.5 -21t20 -20t25.5 -25t40 -35l-2 -2q-26 21 -41.5 33
t-27.5 20l-22.5 15t-25.5 19q-15 -12 -25.5 -19l-22.5 -15t-28 -20t-41 -33l-2 2q25 21 39.5 35t25 24.5l20 20t24.5 21.5q11 9 20 0zM415 966q-35 -14 -81 -31t-106 -45l-1 3q60 26 103 51.5t78 40.5q6 2 10 2q9 0 9 -9q0 -4 -3.5 -7t-8.5 -5z" />
    <glyph glyph-name="uni1EA5" unicode="&#x1ea5;" horiz-adv-x="509" 
d="M115 432q19 0 34.5 -13t15.5 -38q0 -21 -14.5 -36t-38.5 -15q-22 0 -36.5 16t-14.5 41q0 22 11 45.5t32.5 43t52.5 31.5t71 12q87 0 135.5 -53.5t48.5 -140.5v-255q0 -24 12.5 -35.5t29.5 -11.5q19 0 32 13t15 34h3q-1 -11 -6 -25t-15 -26t-25.5 -20.5t-37.5 -8.5
q-39 0 -59.5 23t-24.5 73q-8 -17 -22 -34t-34 -30.5t-45.5 -22.5t-55.5 -9q-27 0 -51 8t-42.5 23.5t-29.5 38t-11 51.5q0 47 22 74t55.5 43.5t72.5 28.5t72.5 28.5t55.5 44t22 75.5q0 54 -33.5 81.5t-98.5 27.5q-33 0 -58 -10.5t-41.5 -24.5t-25 -28t-8.5 -22q0 -5 5 -5
q2 0 10 4t20 4zM335 339q-14 -23 -35 -38.5t-44 -28t-46.5 -25t-42 -29.5t-30 -41t-11.5 -59q0 -46 27 -73t72 -27q25 0 45.5 8.5t34.5 22.5t22 32.5t8 38.5v219zM249 669q14 -12 23.5 -21t20 -20t25.5 -25t40 -35l-2 -2q-26 21 -41.5 33t-27.5 20l-22.5 15t-25.5 19
q-15 -12 -25.5 -19l-22.5 -15t-28 -20t-41 -33l-2 2q25 21 39.5 35t25 24.5l20 20t24.5 21.5q11 9 20 0zM327 756q-35 -14 -81 -31t-106 -45l-1 3q60 26 103 51.5t78 40.5q6 2 10 2q9 0 9 -9q0 -4 -3.5 -7t-8.5 -5z" />
    <glyph glyph-name="uni1EA6" unicode="&#x1ea6;" horiz-adv-x="675" 
d="M170 3v-3h-170v3h4q18 0 31.5 9t24.5 24t19.5 35t16.5 42l214 587h37l272 -697h56v-3h-210v3h66l-116 297h-247l-68 -188q-8 -22 -9.5 -42t6 -35t23.5 -23.5t43 -8.5h7zM169 303h245l-126 325zM337 873q14 -12 23.5 -21t20 -20t25.5 -25t40 -35l-2 -2q-26 21 -41.5 33
t-27.5 20l-22.5 15t-25.5 19q-15 -12 -25.5 -19l-22.5 -15t-28 -20t-41 -33l-2 2q25 21 39.5 35t25 24.5l20 20t24.5 21.5q11 9 20 0zM239 946q-5 2 -8.5 5t-3.5 7q0 9 9 9q4 0 10 -2q35 -15 78 -40.5t103 -51.5l-1 -3q-60 28 -106 45t-81 31z" />
    <glyph glyph-name="uni1EA7" unicode="&#x1ea7;" horiz-adv-x="509" 
d="M115 432q19 0 34.5 -13t15.5 -38q0 -21 -14.5 -36t-38.5 -15q-22 0 -36.5 16t-14.5 41q0 22 11 45.5t32.5 43t52.5 31.5t71 12q87 0 135.5 -53.5t48.5 -140.5v-255q0 -24 12.5 -35.5t29.5 -11.5q19 0 32 13t15 34h3q-1 -11 -6 -25t-15 -26t-25.5 -20.5t-37.5 -8.5
q-39 0 -59.5 23t-24.5 73q-8 -17 -22 -34t-34 -30.5t-45.5 -22.5t-55.5 -9q-27 0 -51 8t-42.5 23.5t-29.5 38t-11 51.5q0 47 22 74t55.5 43.5t72.5 28.5t72.5 28.5t55.5 44t22 75.5q0 54 -33.5 81.5t-98.5 27.5q-33 0 -58 -10.5t-41.5 -24.5t-25 -28t-8.5 -22q0 -5 5 -5
q2 0 10 4t20 4zM335 339q-14 -23 -35 -38.5t-44 -28t-46.5 -25t-42 -29.5t-30 -41t-11.5 -59q0 -46 27 -73t72 -27q25 0 45.5 8.5t34.5 22.5t22 32.5t8 38.5v219zM249 669q14 -12 23.5 -21t20 -20t25.5 -25t40 -35l-2 -2q-26 21 -41.5 33t-27.5 20l-22.5 15t-25.5 19
q-15 -12 -25.5 -19l-22.5 -15t-28 -20t-41 -33l-2 2q25 21 39.5 35t25 24.5l20 20t24.5 21.5q11 9 20 0zM151 756q-5 2 -8.5 5t-3.5 7q0 9 9 9q4 0 10 -2q35 -15 78 -40.5t103 -51.5l-1 -3q-60 28 -106 45t-81 31z" />
    <glyph glyph-name="uni1EA8" unicode="&#x1ea8;" horiz-adv-x="675" 
d="M170 3v-3h-170v3h4q18 0 31.5 9t24.5 24t19.5 35t16.5 42l214 587h37l272 -697h56v-3h-210v3h66l-116 297h-247l-68 -188q-8 -22 -9.5 -42t6 -35t23.5 -23.5t43 -8.5h7zM169 303h245l-126 325zM337 873q14 -12 23.5 -21t20 -20t25.5 -25t40 -35l-2 -2q-26 21 -41.5 33
t-27.5 20l-22.5 15t-25.5 19q-15 -12 -25.5 -19l-22.5 -15t-28 -20t-41 -33l-2 2q25 21 39.5 35t25 24.5l20 20t24.5 21.5q11 9 20 0zM391 867q-3 6 -6 15t-3 17q0 11 7 19t15 15.5t15 16t7 20.5q0 13 -5.5 24.5t-23.5 13.5q-17 1 -28.5 -10.5t-9.5 -21.5l1 -1q3 -1 4.5 0.5
t5.5 1.5q6 0 11.5 -4t4.5 -12t-6.5 -12.5t-16.5 -3.5q-10 1 -14.5 7.5t-4.5 15.5q0 16 14 29.5t40 13.5t43 -13t17 -31t-10.5 -29.5t-23 -20.5t-23 -18t-10.5 -22q0 -6 2 -10h-2z" />
    <glyph glyph-name="uni1EA9" unicode="&#x1ea9;" horiz-adv-x="509" 
d="M115 432q19 0 34.5 -13t15.5 -38q0 -21 -14.5 -36t-38.5 -15q-22 0 -36.5 16t-14.5 41q0 22 11 45.5t32.5 43t52.5 31.5t71 12q87 0 135.5 -53.5t48.5 -140.5v-255q0 -24 12.5 -35.5t29.5 -11.5q19 0 32 13t15 34h3q-1 -11 -6 -25t-15 -26t-25.5 -20.5t-37.5 -8.5
q-39 0 -59.5 23t-24.5 73q-8 -17 -22 -34t-34 -30.5t-45.5 -22.5t-55.5 -9q-27 0 -51 8t-42.5 23.5t-29.5 38t-11 51.5q0 47 22 74t55.5 43.5t72.5 28.5t72.5 28.5t55.5 44t22 75.5q0 54 -33.5 81.5t-98.5 27.5q-33 0 -58 -10.5t-41.5 -24.5t-25 -28t-8.5 -22q0 -5 5 -5
q2 0 10 4t20 4zM335 339q-14 -23 -35 -38.5t-44 -28t-46.5 -25t-42 -29.5t-30 -41t-11.5 -59q0 -46 27 -73t72 -27q25 0 45.5 8.5t34.5 22.5t22 32.5t8 38.5v219zM249 669q14 -12 23.5 -21t20 -20t25.5 -25t40 -35l-2 -2q-26 21 -41.5 33t-27.5 20l-22.5 15t-25.5 19
q-15 -12 -25.5 -19l-22.5 -15t-28 -20t-41 -33l-2 2q25 21 39.5 35t25 24.5l20 20t24.5 21.5q11 9 20 0zM306 670q-3 6 -6 15t-3 17q0 11 7 19t15 15.5t15 16t7 20.5q0 13 -5.5 24.5t-23.5 13.5q-17 1 -28.5 -10.5t-9.5 -21.5l1 -1q3 -1 4.5 0.5t5.5 1.5q6 0 11.5 -4
t4.5 -12t-6.5 -12.5t-16.5 -3.5q-10 1 -14.5 7.5t-4.5 15.5q0 16 14 29.5t40 13.5t43 -13t17 -31t-10.5 -29.5t-23 -20.5t-23 -18t-10.5 -22q0 -6 2 -10h-2z" />
    <glyph glyph-name="uni1EAA" unicode="&#x1eaa;" horiz-adv-x="675" 
d="M170 3v-3h-170v3h4q18 0 31.5 9t24.5 24t19.5 35t16.5 42l214 587h37l272 -697h56v-3h-210v3h66l-116 297h-247l-68 -188q-8 -22 -9.5 -42t6 -35t23.5 -23.5t43 -8.5h7zM169 303h245l-126 325zM337 873q14 -12 23.5 -21t20 -20t25.5 -25t40 -35l-2 -2q-26 21 -41.5 33
t-27.5 20l-22.5 15t-25.5 19q-15 -12 -25.5 -19l-22.5 -15t-28 -20t-41 -33l-2 2q25 21 39.5 35t25 24.5l20 20t24.5 21.5q11 9 20 0zM411 918q31 0 51 14.5t36 49.5h3q-17 -38 -38.5 -58.5t-59.5 -20.5q-32 0 -52.5 11t-37.5 24.5t-33 24.5t-39 11q-31 0 -51 -14.5
t-36 -49.5h-3q17 38 38.5 58.5t59.5 20.5q25 0 42.5 -11t34.5 -24.5t36.5 -24.5t48.5 -11z" />
    <glyph glyph-name="uni1EAB" unicode="&#x1eab;" horiz-adv-x="509" 
d="M115 432q19 0 34.5 -13t15.5 -38q0 -21 -14.5 -36t-38.5 -15q-22 0 -36.5 16t-14.5 41q0 22 11 45.5t32.5 43t52.5 31.5t71 12q87 0 135.5 -53.5t48.5 -140.5v-255q0 -24 12.5 -35.5t29.5 -11.5q19 0 32 13t15 34h3q-1 -11 -6 -25t-15 -26t-25.5 -20.5t-37.5 -8.5
q-39 0 -59.5 23t-24.5 73q-8 -17 -22 -34t-34 -30.5t-45.5 -22.5t-55.5 -9q-27 0 -51 8t-42.5 23.5t-29.5 38t-11 51.5q0 47 22 74t55.5 43.5t72.5 28.5t72.5 28.5t55.5 44t22 75.5q0 54 -33.5 81.5t-98.5 27.5q-33 0 -58 -10.5t-41.5 -24.5t-25 -28t-8.5 -22q0 -5 5 -5
q2 0 10 4t20 4zM335 339q-14 -23 -35 -38.5t-44 -28t-46.5 -25t-42 -29.5t-30 -41t-11.5 -59q0 -46 27 -73t72 -27q25 0 45.5 8.5t34.5 22.5t22 32.5t8 38.5v219zM249 669q14 -12 23.5 -21t20 -20t25.5 -25t40 -35l-2 -2q-26 21 -41.5 33t-27.5 20l-22.5 15t-25.5 19
q-15 -12 -25.5 -19l-22.5 -15t-28 -20t-41 -33l-2 2q25 21 39.5 35t25 24.5l20 20t24.5 21.5q11 9 20 0zM339 765q31 0 51 14.5t36 49.5h3q-17 -38 -38.5 -58.5t-59.5 -20.5q-32 0 -52.5 11t-37.5 24.5t-33 24.5t-39 11q-31 0 -51 -14.5t-36 -49.5h-3q17 38 38.5 58.5
t59.5 20.5q25 0 42.5 -11t34.5 -24.5t36.5 -24.5t48.5 -11z" />
    <glyph glyph-name="uni1EAC" unicode="&#x1eac;" horiz-adv-x="675" 
d="M170 3v-3h-170v3h4q18 0 31.5 9t24.5 24t19.5 35t16.5 42l214 587h37l272 -697h56v-3h-210v3h66l-116 297h-247l-68 -188q-8 -22 -9.5 -42t6 -35t23.5 -23.5t43 -8.5h7zM169 303h245l-126 325zM366 -118q0 -22 -14.5 -36.5t-34.5 -14.5q-21 0 -34.5 14t-13.5 36
q0 23 14 37.5t34 14.5q22 0 35.5 -14t13.5 -37zM347 923q14 -12 23.5 -21t20 -20t25.5 -25t40 -35l-2 -2q-26 21 -41.5 33t-27.5 20l-22.5 15t-25.5 19q-15 -12 -25.5 -19l-22.5 -15t-28 -20t-41 -33l-2 2q25 21 39.5 35t25 24.5l20 20t24.5 21.5q11 9 20 0z" />
    <glyph glyph-name="uni1EAD" unicode="&#x1ead;" horiz-adv-x="509" 
d="M287 -118q0 -22 -14.5 -36.5t-34.5 -14.5q-21 0 -34.5 14t-13.5 36q0 23 14 37.5t34 14.5q22 0 35.5 -14t13.5 -37zM115 432q19 0 34.5 -13t15.5 -38q0 -21 -14.5 -36t-38.5 -15q-22 0 -36.5 16t-14.5 41q0 22 11 45.5t32.5 43t52.5 31.5t71 12q87 0 135.5 -53.5
t48.5 -140.5v-255q0 -24 12.5 -35.5t29.5 -11.5q19 0 32 13t15 34h3q-1 -11 -6 -25t-15 -26t-25.5 -20.5t-37.5 -8.5q-39 0 -59.5 23t-24.5 73q-8 -17 -22 -34t-34 -30.5t-45.5 -22.5t-55.5 -9q-27 0 -51 8t-42.5 23.5t-29.5 38t-11 51.5q0 47 22 74t55.5 43.5t72.5 28.5
t72.5 28.5t55.5 44t22 75.5q0 54 -33.5 81.5t-98.5 27.5q-33 0 -58 -10.5t-41.5 -24.5t-25 -28t-8.5 -22q0 -5 5 -5q2 0 10 4t20 4zM335 339q-14 -23 -35 -38.5t-44 -28t-46.5 -25t-42 -29.5t-30 -41t-11.5 -59q0 -46 27 -73t72 -27q25 0 45.5 8.5t34.5 22.5t22 32.5t8 38.5
v219zM249 669q14 -12 23.5 -21t20 -20t25.5 -25t40 -35l-2 -2q-26 21 -41.5 33t-27.5 20l-22.5 15t-25.5 19q-15 -12 -25.5 -19l-22.5 -15t-28 -20t-41 -33l-2 2q25 21 39.5 35t25 24.5l20 20t24.5 21.5q11 9 20 0z" />
    <glyph glyph-name="uni1EAE" unicode="&#x1eae;" horiz-adv-x="675" 
d="M170 3v-3h-170v3h4q18 0 31.5 9t24.5 24t19.5 35t16.5 42l214 587h37l272 -697h56v-3h-210v3h66l-116 297h-247l-68 -188q-8 -22 -9.5 -42t6 -35t23.5 -23.5t43 -8.5h7zM169 303h245l-126 325zM325 808q52 0 93 20.5t60 64.5h3q-20 -48 -59 -73.5t-97 -25.5t-97 25.5
t-59 73.5h3q19 -44 60 -64.5t93 -20.5zM470 966q-35 -14 -81 -31t-106 -45l-1 3q60 26 103 51.5t78 40.5q6 2 10 2q9 0 9 -9q0 -4 -3.5 -7t-8.5 -5z" />
    <glyph glyph-name="uni1EAF" unicode="&#x1eaf;" horiz-adv-x="509" 
d="M115 432q19 0 34.5 -13t15.5 -38q0 -21 -14.5 -36t-38.5 -15q-22 0 -36.5 16t-14.5 41q0 22 11 45.5t32.5 43t52.5 31.5t71 12q87 0 135.5 -53.5t48.5 -140.5v-255q0 -24 12.5 -35.5t29.5 -11.5q19 0 32 13t15 34h3q-1 -11 -6 -25t-15 -26t-25.5 -20.5t-37.5 -8.5
q-39 0 -59.5 23t-24.5 73q-8 -17 -22 -34t-34 -30.5t-45.5 -22.5t-55.5 -9q-27 0 -51 8t-42.5 23.5t-29.5 38t-11 51.5q0 47 22 74t55.5 43.5t72.5 28.5t72.5 28.5t55.5 44t22 75.5q0 54 -33.5 81.5t-98.5 27.5q-33 0 -58 -10.5t-41.5 -24.5t-25 -28t-8.5 -22q0 -5 5 -5
q2 0 10 4t20 4zM335 339q-14 -23 -35 -38.5t-44 -28t-46.5 -25t-42 -29.5t-30 -41t-11.5 -59q0 -46 27 -73t72 -27q25 0 45.5 8.5t34.5 22.5t22 32.5t8 38.5v219zM243 609q52 0 93 20.5t60 64.5h3q-20 -48 -59 -73.5t-97 -25.5t-97 25.5t-59 73.5h3q19 -44 60 -64.5
t93 -20.5zM387 783q-35 -14 -81 -31t-106 -45l-1 3q60 26 103 51.5t78 40.5q6 2 10 2q9 0 9 -9q0 -4 -3.5 -7t-8.5 -5z" />
    <glyph glyph-name="uni1EB0" unicode="&#x1eb0;" horiz-adv-x="675" 
d="M170 3v-3h-170v3h4q18 0 31.5 9t24.5 24t19.5 35t16.5 42l214 587h37l272 -697h56v-3h-210v3h66l-116 297h-247l-68 -188q-8 -22 -9.5 -42t6 -35t23.5 -23.5t43 -8.5h7zM169 303h245l-126 325zM325 808q52 0 93 20.5t60 64.5h3q-20 -48 -59 -73.5t-97 -25.5t-97 25.5
t-59 73.5h3q19 -44 60 -64.5t93 -20.5zM190 966q-5 2 -8.5 5t-3.5 7q0 9 9 9q4 0 10 -2q35 -15 78 -40.5t103 -51.5l-1 -3q-60 28 -106 45t-81 31z" />
    <glyph glyph-name="uni1EB1" unicode="&#x1eb1;" horiz-adv-x="509" 
d="M115 432q19 0 34.5 -13t15.5 -38q0 -21 -14.5 -36t-38.5 -15q-22 0 -36.5 16t-14.5 41q0 22 11 45.5t32.5 43t52.5 31.5t71 12q87 0 135.5 -53.5t48.5 -140.5v-255q0 -24 12.5 -35.5t29.5 -11.5q19 0 32 13t15 34h3q-1 -11 -6 -25t-15 -26t-25.5 -20.5t-37.5 -8.5
q-39 0 -59.5 23t-24.5 73q-8 -17 -22 -34t-34 -30.5t-45.5 -22.5t-55.5 -9q-27 0 -51 8t-42.5 23.5t-29.5 38t-11 51.5q0 47 22 74t55.5 43.5t72.5 28.5t72.5 28.5t55.5 44t22 75.5q0 54 -33.5 81.5t-98.5 27.5q-33 0 -58 -10.5t-41.5 -24.5t-25 -28t-8.5 -22q0 -5 5 -5
q2 0 10 4t20 4zM335 339q-14 -23 -35 -38.5t-44 -28t-46.5 -25t-42 -29.5t-30 -41t-11.5 -59q0 -46 27 -73t72 -27q25 0 45.5 8.5t34.5 22.5t22 32.5t8 38.5v219zM243 609q52 0 93 20.5t60 64.5h3q-20 -48 -59 -73.5t-97 -25.5t-97 25.5t-59 73.5h3q19 -44 60 -64.5
t93 -20.5zM103 783q-5 2 -8.5 5t-3.5 7q0 9 9 9q4 0 10 -2q35 -15 78 -40.5t103 -51.5l-1 -3q-60 28 -106 45t-81 31z" />
    <glyph glyph-name="uni1EB2" unicode="&#x1eb2;" horiz-adv-x="675" 
d="M170 3v-3h-170v3h4q18 0 31.5 9t24.5 24t19.5 35t16.5 42l214 587h37l272 -697h56v-3h-210v3h66l-116 297h-247l-68 -188q-8 -22 -9.5 -42t6 -35t23.5 -23.5t43 -8.5h7zM169 303h245l-126 325zM325 808q52 0 93 20.5t60 64.5h3q-20 -48 -59 -73.5t-97 -25.5t-97 25.5
t-59 73.5h3q19 -44 60 -64.5t93 -20.5zM327 867q-3 6 -6 15t-3 17q0 11 7 19t15 15.5t15 16t7 20.5q0 13 -5.5 24.5t-23.5 13.5q-17 1 -28.5 -10.5t-9.5 -21.5l1 -1q3 -1 4.5 0.5t5.5 1.5q6 0 11.5 -4t4.5 -12t-6.5 -12.5t-16.5 -3.5q-10 1 -14.5 7.5t-4.5 15.5
q0 16 14 29.5t40 13.5t43 -13t17 -31t-10.5 -29.5t-23 -20.5t-23 -18t-10.5 -22q0 -6 2 -10h-2z" />
    <glyph glyph-name="uni1EB3" unicode="&#x1eb3;" horiz-adv-x="509" 
d="M115 432q19 0 34.5 -13t15.5 -38q0 -21 -14.5 -36t-38.5 -15q-22 0 -36.5 16t-14.5 41q0 22 11 45.5t32.5 43t52.5 31.5t71 12q87 0 135.5 -53.5t48.5 -140.5v-255q0 -24 12.5 -35.5t29.5 -11.5q19 0 32 13t15 34h3q-1 -11 -6 -25t-15 -26t-25.5 -20.5t-37.5 -8.5
q-39 0 -59.5 23t-24.5 73q-8 -17 -22 -34t-34 -30.5t-45.5 -22.5t-55.5 -9q-27 0 -51 8t-42.5 23.5t-29.5 38t-11 51.5q0 47 22 74t55.5 43.5t72.5 28.5t72.5 28.5t55.5 44t22 75.5q0 54 -33.5 81.5t-98.5 27.5q-33 0 -58 -10.5t-41.5 -24.5t-25 -28t-8.5 -22q0 -5 5 -5
q2 0 10 4t20 4zM335 339q-14 -23 -35 -38.5t-44 -28t-46.5 -25t-42 -29.5t-30 -41t-11.5 -59q0 -46 27 -73t72 -27q25 0 45.5 8.5t34.5 22.5t22 32.5t8 38.5v219zM243 609q52 0 93 20.5t60 64.5h3q-20 -48 -59 -73.5t-97 -25.5t-97 25.5t-59 73.5h3q19 -44 60 -64.5
t93 -20.5zM249 710q-3 6 -6 15t-3 17q0 11 7 19t15 15.5t15 16t7 20.5q0 13 -5.5 24.5t-23.5 13.5q-17 1 -28.5 -10.5t-9.5 -21.5l1 -1q3 -1 4.5 0.5t5.5 1.5q6 0 11.5 -4t4.5 -12t-6.5 -12.5t-16.5 -3.5q-10 1 -14.5 7.5t-4.5 15.5q0 16 14 29.5t40 13.5t43 -13t17 -31
t-10.5 -29.5t-23 -20.5t-23 -18t-10.5 -22q0 -6 2 -10h-2z" />
    <glyph glyph-name="uni1EB4" unicode="&#x1eb4;" horiz-adv-x="675" 
d="M170 3v-3h-170v3h4q18 0 31.5 9t24.5 24t19.5 35t16.5 42l214 587h37l272 -697h56v-3h-210v3h66l-116 297h-247l-68 -188q-8 -22 -9.5 -42t6 -35t23.5 -23.5t43 -8.5h7zM169 303h245l-126 325zM325 808q52 0 93 20.5t60 64.5h3q-20 -48 -59 -73.5t-97 -25.5t-97 25.5
t-59 73.5h3q19 -44 60 -64.5t93 -20.5zM411 940q31 0 51 14.5t36 49.5h3q-17 -38 -38.5 -58.5t-59.5 -20.5q-32 0 -52.5 11t-37.5 24.5t-33 24.5t-39 11q-31 0 -51 -14.5t-36 -49.5h-3q17 38 38.5 58.5t59.5 20.5q25 0 42.5 -11t34.5 -24.5t36.5 -24.5t48.5 -11z" />
    <glyph glyph-name="uni1EB5" unicode="&#x1eb5;" horiz-adv-x="509" 
d="M115 432q19 0 34.5 -13t15.5 -38q0 -21 -14.5 -36t-38.5 -15q-22 0 -36.5 16t-14.5 41q0 22 11 45.5t32.5 43t52.5 31.5t71 12q87 0 135.5 -53.5t48.5 -140.5v-255q0 -24 12.5 -35.5t29.5 -11.5q19 0 32 13t15 34h3q-1 -11 -6 -25t-15 -26t-25.5 -20.5t-37.5 -8.5
q-39 0 -59.5 23t-24.5 73q-8 -17 -22 -34t-34 -30.5t-45.5 -22.5t-55.5 -9q-27 0 -51 8t-42.5 23.5t-29.5 38t-11 51.5q0 47 22 74t55.5 43.5t72.5 28.5t72.5 28.5t55.5 44t22 75.5q0 54 -33.5 81.5t-98.5 27.5q-33 0 -58 -10.5t-41.5 -24.5t-25 -28t-8.5 -22q0 -5 5 -5
q2 0 10 4t20 4zM335 339q-14 -23 -35 -38.5t-44 -28t-46.5 -25t-42 -29.5t-30 -41t-11.5 -59q0 -46 27 -73t72 -27q25 0 45.5 8.5t34.5 22.5t22 32.5t8 38.5v219zM243 609q52 0 93 20.5t60 64.5h3q-20 -48 -59 -73.5t-97 -25.5t-97 25.5t-59 73.5h3q19 -44 60 -64.5
t93 -20.5zM331 765q31 0 51 14.5t36 49.5h3q-17 -38 -38.5 -58.5t-59.5 -20.5q-32 0 -52.5 11t-37.5 24.5t-33 24.5t-39 11q-31 0 -51 -14.5t-36 -49.5h-3q17 38 38.5 58.5t59.5 20.5q25 0 42.5 -11t34.5 -24.5t36.5 -24.5t48.5 -11z" />
    <glyph glyph-name="uni1EB6" unicode="&#x1eb6;" horiz-adv-x="675" 
d="M366 -118q0 -22 -14.5 -36.5t-34.5 -14.5q-21 0 -34.5 14t-13.5 36q0 23 14 37.5t34 14.5q22 0 35.5 -14t13.5 -37zM170 3v-3h-170v3h4q18 0 31.5 9t24.5 24t19.5 35t16.5 42l214 587h37l272 -697h56v-3h-210v3h66l-116 297h-247l-68 -188q-8 -22 -9.5 -42t6 -35
t23.5 -23.5t43 -8.5h7zM169 303h245l-126 325zM325 808q52 0 93 20.5t60 64.5h3q-20 -48 -59 -73.5t-97 -25.5t-97 25.5t-59 73.5h3q19 -44 60 -64.5t93 -20.5z" />
    <glyph glyph-name="uni1EB7" unicode="&#x1eb7;" horiz-adv-x="509" 
d="M287 -118q0 -22 -14.5 -36.5t-34.5 -14.5q-21 0 -34.5 14t-13.5 36q0 23 14 37.5t34 14.5q22 0 35.5 -14t13.5 -37zM115 432q19 0 34.5 -13t15.5 -38q0 -21 -14.5 -36t-38.5 -15q-22 0 -36.5 16t-14.5 41q0 22 11 45.5t32.5 43t52.5 31.5t71 12q87 0 135.5 -53.5
t48.5 -140.5v-255q0 -24 12.5 -35.5t29.5 -11.5q19 0 32 13t15 34h3q-1 -11 -6 -25t-15 -26t-25.5 -20.5t-37.5 -8.5q-39 0 -59.5 23t-24.5 73q-8 -17 -22 -34t-34 -30.5t-45.5 -22.5t-55.5 -9q-27 0 -51 8t-42.5 23.5t-29.5 38t-11 51.5q0 47 22 74t55.5 43.5t72.5 28.5
t72.5 28.5t55.5 44t22 75.5q0 54 -33.5 81.5t-98.5 27.5q-33 0 -58 -10.5t-41.5 -24.5t-25 -28t-8.5 -22q0 -5 5 -5q2 0 10 4t20 4zM335 339q-14 -23 -35 -38.5t-44 -28t-46.5 -25t-42 -29.5t-30 -41t-11.5 -59q0 -46 27 -73t72 -27q25 0 45.5 8.5t34.5 22.5t22 32.5t8 38.5
v219zM243 609q52 0 93 20.5t60 64.5h3q-20 -48 -59 -73.5t-97 -25.5t-97 25.5t-59 73.5h3q19 -44 60 -64.5t93 -20.5z" />
    <glyph glyph-name="uni1EB8" unicode="&#x1eb8;" horiz-adv-x="564" 
d="M165 349v-346h161q44 0 74 9.5t50 30t32 53t20 78.5h2v-174h-484v3h63v694h-63v3h474v-174h-2q-8 46 -20 78.5t-32 53t-50 30t-74 9.5h-151v-345h96q68 0 97.5 28t36.5 80h3v-219h-3q-7 52 -36.5 80t-97.5 28h-96zM330 -118q0 -22 -14.5 -36.5t-34.5 -14.5
q-21 0 -34.5 14t-13.5 36q0 23 14 37.5t34 14.5q22 0 35.5 -14t13.5 -37z" />
    <glyph glyph-name="uni1EB9" unicode="&#x1eb9;" horiz-adv-x="489" 
d="M292 -5q33 0 58.5 10.5t43.5 24.5t27 28t9 22q0 5 -5 5q-2 0 -10 -4t-20 -4q-19 0 -34.5 13t-15.5 38q0 21 14.5 36t38.5 15q22 0 36.5 -16t14.5 -41q0 -23 -12 -46t-34 -42.5t-54 -31.5t-72 -12q-50 0 -92.5 20.5t-73.5 56t-48.5 83.5t-17.5 103t17 103.5t47.5 85
t72.5 57.5t92 21q38 0 69.5 -9.5t54.5 -27t36 -41.5t13 -53q0 -44 -22.5 -69.5t-56 -41.5t-73 -27t-73 -25.5t-56 -38t-22.5 -64.5q0 -26 10 -49t29.5 -40.5t46.5 -28t62 -10.5zM274 517q-35 0 -62.5 -21.5t-46 -58.5t-28 -85.5t-9.5 -103.5q0 -56 10 -99q7 26 26.5 43.5
t45 31.5t53 27t50.5 31t38 43t15 63q0 56 -23.5 92.5t-68.5 36.5zM312 -118q0 -22 -14.5 -36.5t-34.5 -14.5q-21 0 -34.5 14t-13.5 36q0 23 14 37.5t34 14.5q22 0 35.5 -14t13.5 -37z" />
    <glyph glyph-name="uni1EBA" unicode="&#x1eba;" horiz-adv-x="564" 
d="M165 349v-346h161q44 0 74 9.5t50 30t32 53t20 78.5h2v-174h-484v3h63v694h-63v3h474v-174h-2q-8 46 -20 78.5t-32 53t-50 30t-74 9.5h-151v-345h96q68 0 97.5 28t36.5 80h3v-219h-3q-7 52 -36.5 80t-97.5 28h-96zM301 770q-3 6 -6 15t-3 17q0 11 7 19t15 15.5t15 16
t7 20.5q0 13 -5.5 24.5t-23.5 13.5q-17 1 -28.5 -10.5t-9.5 -21.5l1 -1q3 -1 4.5 0.5t5.5 1.5q6 0 11.5 -4t4.5 -12t-6.5 -12.5t-16.5 -3.5q-10 1 -14.5 7.5t-4.5 15.5q0 16 14 29.5t40 13.5t43 -13t17 -31t-10.5 -29.5t-23 -20.5t-23 -18t-10.5 -22q0 -6 2 -10h-2z" />
    <glyph glyph-name="u1EEBB" unicode="&#x1eebb;" horiz-adv-x="0" 
 />
    <glyph glyph-name="uni1EBB" unicode="&#x1ebb;" horiz-adv-x="489" 
d="M292 -5q33 0 58.5 10.5t43.5 24.5t27 28t9 22q0 5 -5 5q-2 0 -10 -4t-20 -4q-19 0 -34.5 13t-15.5 38q0 21 14.5 36t38.5 15q22 0 36.5 -16t14.5 -41q0 -23 -12 -46t-34 -42.5t-54 -31.5t-72 -12q-50 0 -92.5 20.5t-73.5 56t-48.5 83.5t-17.5 103t17 103.5t47.5 85
t72.5 57.5t92 21q38 0 69.5 -9.5t54.5 -27t36 -41.5t13 -53q0 -44 -22.5 -69.5t-56 -41.5t-73 -27t-73 -25.5t-56 -38t-22.5 -64.5q0 -26 10 -49t29.5 -40.5t46.5 -28t62 -10.5zM274 517q-35 0 -62.5 -21.5t-46 -58.5t-28 -85.5t-9.5 -103.5q0 -56 10 -99q7 26 26.5 43.5
t45 31.5t53 27t50.5 31t38 43t15 63q0 56 -23.5 92.5t-68.5 36.5zM285 570q-3 6 -6 15t-3 17q0 11 7 19t15 15.5t15 16t7 20.5q0 13 -5.5 24.5t-23.5 13.5q-17 1 -28.5 -10.5t-9.5 -21.5l1 -1q3 -1 4.5 0.5t5.5 1.5q6 0 11.5 -4t4.5 -12t-6.5 -12.5t-16.5 -3.5
q-10 1 -14.5 7.5t-4.5 15.5q0 16 14 29.5t40 13.5t43 -13t17 -31t-10.5 -29.5t-23 -20.5t-23 -18t-10.5 -22q0 -6 2 -10h-2z" />
    <glyph glyph-name="uni1EBC" unicode="&#x1ebc;" horiz-adv-x="564" 
d="M165 349v-346h161q44 0 74 9.5t50 30t32 53t20 78.5h2v-174h-484v3h63v694h-63v3h474v-174h-2q-8 46 -20 78.5t-32 53t-50 30t-74 9.5h-151v-345h96q68 0 97.5 28t36.5 80h3v-219h-3q-7 52 -36.5 80t-97.5 28h-96zM367 850q31 0 51 14.5t36 49.5h3q-17 -38 -38.5 -58.5
t-59.5 -20.5q-32 0 -52.5 11t-37.5 24.5t-33 24.5t-39 11q-31 0 -51 -14.5t-36 -49.5h-3q17 38 38.5 58.5t59.5 20.5q25 0 42.5 -11t34.5 -24.5t36.5 -24.5t48.5 -11z" />
    <glyph glyph-name="uni1EBD" unicode="&#x1ebd;" horiz-adv-x="489" 
d="M357 628q31 0 51 14.5t36 49.5h3q-17 -38 -38.5 -58.5t-59.5 -20.5q-32 0 -52.5 11t-37.5 24.5t-33 24.5t-39 11q-31 0 -51 -14.5t-36 -49.5h-3q17 38 38.5 58.5t59.5 20.5q25 0 42.5 -11t34.5 -24.5t36.5 -24.5t48.5 -11zM292 -5q33 0 58.5 10.5t43.5 24.5t27 28t9 22
q0 5 -5 5q-2 0 -10 -4t-20 -4q-19 0 -34.5 13t-15.5 38q0 21 14.5 36t38.5 15q22 0 36.5 -16t14.5 -41q0 -23 -12 -46t-34 -42.5t-54 -31.5t-72 -12q-50 0 -92.5 20.5t-73.5 56t-48.5 83.5t-17.5 103t17 103.5t47.5 85t72.5 57.5t92 21q38 0 69.5 -9.5t54.5 -27t36 -41.5
t13 -53q0 -44 -22.5 -69.5t-56 -41.5t-73 -27t-73 -25.5t-56 -38t-22.5 -64.5q0 -26 10 -49t29.5 -40.5t46.5 -28t62 -10.5zM274 517q-35 0 -62.5 -21.5t-46 -58.5t-28 -85.5t-9.5 -103.5q0 -56 10 -99q7 26 26.5 43.5t45 31.5t53 27t50.5 31t38 43t15 63q0 56 -23.5 92.5
t-68.5 36.5z" />
    <glyph glyph-name="uni1EBE" unicode="&#x1ebe;" horiz-adv-x="564" 
d="M165 349v-346h161q44 0 74 9.5t50 30t32 53t20 78.5h2v-174h-484v3h63v694h-63v3h474v-174h-2q-8 46 -20 78.5t-32 53t-50 30t-74 9.5h-151v-345h96q68 0 97.5 28t36.5 80h3v-219h-3q-7 52 -36.5 80t-97.5 28h-96zM290 873q14 -12 23.5 -21t20 -20t25.5 -25t40 -35l-2 -2
q-26 21 -41.5 33t-27.5 20l-22.5 15t-25.5 19q-15 -12 -25.5 -19l-22.5 -15t-28 -20t-41 -33l-2 2q25 21 39.5 35t25 24.5l20 20t24.5 21.5q11 9 20 0zM368 966q-35 -14 -81 -31t-106 -45l-1 3q60 26 103 51.5t78 40.5q6 2 10 2q9 0 9 -9q0 -4 -3.5 -7t-8.5 -5z" />
    <glyph glyph-name="uni1EBF" unicode="&#x1ebf;" horiz-adv-x="489" 
d="M292 -5q33 0 58.5 10.5t43.5 24.5t27 28t9 22q0 5 -5 5q-2 0 -10 -4t-20 -4q-19 0 -34.5 13t-15.5 38q0 21 14.5 36t38.5 15q22 0 36.5 -16t14.5 -41q0 -23 -12 -46t-34 -42.5t-54 -31.5t-72 -12q-50 0 -92.5 20.5t-73.5 56t-48.5 83.5t-17.5 103t17 103.5t47.5 85
t72.5 57.5t92 21q38 0 69.5 -9.5t54.5 -27t36 -41.5t13 -53q0 -44 -22.5 -69.5t-56 -41.5t-73 -27t-73 -25.5t-56 -38t-22.5 -64.5q0 -26 10 -49t29.5 -40.5t46.5 -28t62 -10.5zM274 517q-35 0 -62.5 -21.5t-46 -58.5t-28 -85.5t-9.5 -103.5q0 -56 10 -99q7 26 26.5 43.5
t45 31.5t53 27t50.5 31t38 43t15 63q0 56 -23.5 92.5t-68.5 36.5zM270 669q14 -12 23.5 -21t20 -20t25.5 -25t40 -35l-2 -2q-26 21 -41.5 33t-27.5 20l-22.5 15t-25.5 19q-15 -12 -25.5 -19l-22.5 -15t-28 -20t-41 -33l-2 2q25 21 39.5 35t25 24.5l20 20t24.5 21.5
q11 9 20 0zM348 756q-35 -14 -81 -31t-106 -45l-1 3q60 26 103 51.5t78 40.5q6 2 10 2q9 0 9 -9q0 -4 -3.5 -7t-8.5 -5z" />
    <glyph glyph-name="uni1EC0" unicode="&#x1ec0;" horiz-adv-x="564" 
d="M165 349v-346h161q44 0 74 9.5t50 30t32 53t20 78.5h2v-174h-484v3h63v694h-63v3h474v-174h-2q-8 46 -20 78.5t-32 53t-50 30t-74 9.5h-151v-345h96q68 0 97.5 28t36.5 80h3v-219h-3q-7 52 -36.5 80t-97.5 28h-96zM290 873q14 -12 23.5 -21t20 -20t25.5 -25t40 -35l-2 -2
q-26 21 -41.5 33t-27.5 20l-22.5 15t-25.5 19q-15 -12 -25.5 -19l-22.5 -15t-28 -20t-41 -33l-2 2q25 21 39.5 35t25 24.5l20 20t24.5 21.5q11 9 20 0zM192 946q-5 2 -8.5 5t-3.5 7q0 9 9 9q4 0 10 -2q35 -15 78 -40.5t103 -51.5l-1 -3q-60 28 -106 45t-81 31z" />
    <glyph glyph-name="uni1EC1" unicode="&#x1ec1;" horiz-adv-x="489" 
d="M292 -5q33 0 58.5 10.5t43.5 24.5t27 28t9 22q0 5 -5 5q-2 0 -10 -4t-20 -4q-19 0 -34.5 13t-15.5 38q0 21 14.5 36t38.5 15q22 0 36.5 -16t14.5 -41q0 -23 -12 -46t-34 -42.5t-54 -31.5t-72 -12q-50 0 -92.5 20.5t-73.5 56t-48.5 83.5t-17.5 103t17 103.5t47.5 85
t72.5 57.5t92 21q38 0 69.5 -9.5t54.5 -27t36 -41.5t13 -53q0 -44 -22.5 -69.5t-56 -41.5t-73 -27t-73 -25.5t-56 -38t-22.5 -64.5q0 -26 10 -49t29.5 -40.5t46.5 -28t62 -10.5zM274 517q-35 0 -62.5 -21.5t-46 -58.5t-28 -85.5t-9.5 -103.5q0 -56 10 -99q7 26 26.5 43.5
t45 31.5t53 27t50.5 31t38 43t15 63q0 56 -23.5 92.5t-68.5 36.5zM270 669q14 -12 23.5 -21t20 -20t25.5 -25t40 -35l-2 -2q-26 21 -41.5 33t-27.5 20l-22.5 15t-25.5 19q-15 -12 -25.5 -19l-22.5 -15t-28 -20t-41 -33l-2 2q25 21 39.5 35t25 24.5l20 20t24.5 21.5
q11 9 20 0zM172 756q-5 2 -8.5 5t-3.5 7q0 9 9 9q4 0 10 -2q35 -15 78 -40.5t103 -51.5l-1 -3q-60 28 -106 45t-81 31z" />
    <glyph glyph-name="uni1EC2" unicode="&#x1ec2;" horiz-adv-x="564" 
d="M165 349v-346h161q44 0 74 9.5t50 30t32 53t20 78.5h2v-174h-484v3h63v694h-63v3h474v-174h-2q-8 46 -20 78.5t-32 53t-50 30t-74 9.5h-151v-345h96q68 0 97.5 28t36.5 80h3v-219h-3q-7 52 -36.5 80t-97.5 28h-96zM290 873q14 -12 23.5 -21t20 -20t25.5 -25t40 -35l-2 -2
q-26 21 -41.5 33t-27.5 20l-22.5 15t-25.5 19q-15 -12 -25.5 -19l-22.5 -15t-28 -20t-41 -33l-2 2q25 21 39.5 35t25 24.5l20 20t24.5 21.5q11 9 20 0zM351 867q-3 6 -6 15t-3 17q0 11 7 19t15 15.5t15 16t7 20.5q0 13 -5.5 24.5t-23.5 13.5q-17 1 -28.5 -10.5t-9.5 -21.5
l1 -1q3 -1 4.5 0.5t5.5 1.5q6 0 11.5 -4t4.5 -12t-6.5 -12.5t-16.5 -3.5q-10 1 -14.5 7.5t-4.5 15.5q0 16 14 29.5t40 13.5t43 -13t17 -31t-10.5 -29.5t-23 -20.5t-23 -18t-10.5 -22q0 -6 2 -10h-2z" />
    <glyph glyph-name="uni1EC3" unicode="&#x1ec3;" horiz-adv-x="489" 
d="M292 -5q33 0 58.5 10.5t43.5 24.5t27 28t9 22q0 5 -5 5q-2 0 -10 -4t-20 -4q-19 0 -34.5 13t-15.5 38q0 21 14.5 36t38.5 15q22 0 36.5 -16t14.5 -41q0 -23 -12 -46t-34 -42.5t-54 -31.5t-72 -12q-50 0 -92.5 20.5t-73.5 56t-48.5 83.5t-17.5 103t17 103.5t47.5 85
t72.5 57.5t92 21q38 0 69.5 -9.5t54.5 -27t36 -41.5t13 -53q0 -44 -22.5 -69.5t-56 -41.5t-73 -27t-73 -25.5t-56 -38t-22.5 -64.5q0 -26 10 -49t29.5 -40.5t46.5 -28t62 -10.5zM274 517q-35 0 -62.5 -21.5t-46 -58.5t-28 -85.5t-9.5 -103.5q0 -56 10 -99q7 26 26.5 43.5
t45 31.5t53 27t50.5 31t38 43t15 63q0 56 -23.5 92.5t-68.5 36.5zM270 669q14 -12 23.5 -21t20 -20t25.5 -25t40 -35l-2 -2q-26 21 -41.5 33t-27.5 20l-22.5 15t-25.5 19q-15 -12 -25.5 -19l-22.5 -15t-28 -20t-41 -33l-2 2q25 21 39.5 35t25 24.5l20 20t24.5 21.5
q11 9 20 0zM320 670q-3 6 -6 15t-3 17q0 11 7 19t15 15.5t15 16t7 20.5q0 13 -5.5 24.5t-23.5 13.5q-17 1 -28.5 -10.5t-9.5 -21.5l1 -1q3 -1 4.5 0.5t5.5 1.5q6 0 11.5 -4t4.5 -12t-6.5 -12.5t-16.5 -3.5q-10 1 -14.5 7.5t-4.5 15.5q0 16 14 29.5t40 13.5t43 -13t17 -31
t-10.5 -29.5t-23 -20.5t-23 -18t-10.5 -22q0 -6 2 -10h-2z" />
    <glyph glyph-name="uni1EC4" unicode="&#x1ec4;" horiz-adv-x="564" 
d="M165 349v-346h161q44 0 74 9.5t50 30t32 53t20 78.5h2v-174h-484v3h63v694h-63v3h474v-174h-2q-8 46 -20 78.5t-32 53t-50 30t-74 9.5h-151v-345h96q68 0 97.5 28t36.5 80h3v-219h-3q-7 52 -36.5 80t-97.5 28h-96zM290 873q14 -12 23.5 -21t20 -20t25.5 -25t40 -35l-2 -2
q-26 21 -41.5 33t-27.5 20l-22.5 15t-25.5 19q-15 -12 -25.5 -19l-22.5 -15t-28 -20t-41 -33l-2 2q25 21 39.5 35t25 24.5l20 20t24.5 21.5q11 9 20 0zM364 918q31 0 51 14.5t36 49.5h3q-17 -38 -38.5 -58.5t-59.5 -20.5q-32 0 -52.5 11t-37.5 24.5t-33 24.5t-39 11
q-31 0 -51 -14.5t-36 -49.5h-3q17 38 38.5 58.5t59.5 20.5q25 0 42.5 -11t34.5 -24.5t36.5 -24.5t48.5 -11z" />
    <glyph glyph-name="uni1EC5" unicode="&#x1ec5;" horiz-adv-x="489" 
d="M292 -5q33 0 58.5 10.5t43.5 24.5t27 28t9 22q0 5 -5 5q-2 0 -10 -4t-20 -4q-19 0 -34.5 13t-15.5 38q0 21 14.5 36t38.5 15q22 0 36.5 -16t14.5 -41q0 -23 -12 -46t-34 -42.5t-54 -31.5t-72 -12q-50 0 -92.5 20.5t-73.5 56t-48.5 83.5t-17.5 103t17 103.5t47.5 85
t72.5 57.5t92 21q38 0 69.5 -9.5t54.5 -27t36 -41.5t13 -53q0 -44 -22.5 -69.5t-56 -41.5t-73 -27t-73 -25.5t-56 -38t-22.5 -64.5q0 -26 10 -49t29.5 -40.5t46.5 -28t62 -10.5zM274 517q-35 0 -62.5 -21.5t-46 -58.5t-28 -85.5t-9.5 -103.5q0 -56 10 -99q7 26 26.5 43.5
t45 31.5t53 27t50.5 31t38 43t15 63q0 56 -23.5 92.5t-68.5 36.5zM270 669q14 -12 23.5 -21t20 -20t25.5 -25t40 -35l-2 -2q-26 21 -41.5 33t-27.5 20l-22.5 15t-25.5 19q-15 -12 -25.5 -19l-22.5 -15t-28 -20t-41 -33l-2 2q25 21 39.5 35t25 24.5l20 20t24.5 21.5
q11 9 20 0zM346 765q31 0 51 14.5t36 49.5h3q-17 -38 -38.5 -58.5t-59.5 -20.5q-32 0 -52.5 11t-37.5 24.5t-33 24.5t-39 11q-31 0 -51 -14.5t-36 -49.5h-3q17 38 38.5 58.5t59.5 20.5q25 0 42.5 -11t34.5 -24.5t36.5 -24.5t48.5 -11z" />
    <glyph glyph-name="uni1EC6" unicode="&#x1ec6;" horiz-adv-x="564" 
d="M330 -118q0 -22 -14.5 -36.5t-34.5 -14.5q-21 0 -34.5 14t-13.5 36q0 23 14 37.5t34 14.5q22 0 35.5 -14t13.5 -37zM165 349v-346h161q44 0 74 9.5t50 30t32 53t20 78.5h2v-174h-484v3h63v694h-63v3h474v-174h-2q-8 46 -20 78.5t-32 53t-50 30t-74 9.5h-151v-345h96
q68 0 97.5 28t36.5 80h3v-219h-3q-7 52 -36.5 80t-97.5 28h-96zM290 873q14 -12 23.5 -21t20 -20t25.5 -25t40 -35l-2 -2q-26 21 -41.5 33t-27.5 20l-22.5 15t-25.5 19q-15 -12 -25.5 -19l-22.5 -15t-28 -20t-41 -33l-2 2q25 21 39.5 35t25 24.5l20 20t24.5 21.5q11 9 20 0z
" />
    <glyph glyph-name="uni1EC7" unicode="&#x1ec7;" horiz-adv-x="489" 
d="M312 -118q0 -22 -14.5 -36.5t-34.5 -14.5q-21 0 -34.5 14t-13.5 36q0 23 14 37.5t34 14.5q22 0 35.5 -14t13.5 -37zM292 -5q33 0 58.5 10.5t43.5 24.5t27 28t9 22q0 5 -5 5q-2 0 -10 -4t-20 -4q-19 0 -34.5 13t-15.5 38q0 21 14.5 36t38.5 15q22 0 36.5 -16t14.5 -41
q0 -23 -12 -46t-34 -42.5t-54 -31.5t-72 -12q-50 0 -92.5 20.5t-73.5 56t-48.5 83.5t-17.5 103t17 103.5t47.5 85t72.5 57.5t92 21q38 0 69.5 -9.5t54.5 -27t36 -41.5t13 -53q0 -44 -22.5 -69.5t-56 -41.5t-73 -27t-73 -25.5t-56 -38t-22.5 -64.5q0 -26 10 -49t29.5 -40.5
t46.5 -28t62 -10.5zM274 517q-35 0 -62.5 -21.5t-46 -58.5t-28 -85.5t-9.5 -103.5q0 -56 10 -99q7 26 26.5 43.5t45 31.5t53 27t50.5 31t38 43t15 63q0 56 -23.5 92.5t-68.5 36.5zM270 669q14 -12 23.5 -21t20 -20t25.5 -25t40 -35l-2 -2q-26 21 -41.5 33t-27.5 20l-22.5 15
t-25.5 19q-15 -12 -25.5 -19l-22.5 -15t-28 -20t-41 -33l-2 2q25 21 39.5 35t25 24.5l20 20t24.5 21.5q11 9 20 0z" />
    <glyph glyph-name="uni1EC8" unicode="&#x1ec8;" horiz-adv-x="247" 
d="M20 697v3h207v-3h-62v-694h62v-3h-207v3h63v694h-63zM118 770q-3 6 -6 15t-3 17q0 11 7 19t15 15.5t15 16t7 20.5q0 13 -5.5 24.5t-23.5 13.5q-17 1 -28.5 -10.5t-9.5 -21.5l1 -1q3 -1 4.5 0.5t5.5 1.5q6 0 11.5 -4t4.5 -12t-6.5 -12.5t-16.5 -3.5q-10 1 -14.5 7.5
t-4.5 15.5q0 16 14 29.5t40 13.5t43 -13t17 -31t-10.5 -29.5t-23 -20.5t-23 -18t-10.5 -22q0 -6 2 -10h-2z" />
    <glyph glyph-name="uni1EC9" unicode="&#x1ec9;" horiz-adv-x="222" 
d="M155 3h62v-3h-202v3h63v501h-63v3h140v-504zM116 570q-3 6 -6 15t-3 17q0 11 7 19t15 15.5t15 16t7 20.5q0 13 -5.5 24.5t-23.5 13.5q-17 1 -28.5 -10.5t-9.5 -21.5l1 -1q3 -1 4.5 0.5t5.5 1.5q6 0 11.5 -4t4.5 -12t-6.5 -12.5t-16.5 -3.5q-10 1 -14.5 7.5t-4.5 15.5
q0 16 14 29.5t40 13.5t43 -13t17 -31t-10.5 -29.5t-23 -20.5t-23 -18t-10.5 -22q0 -6 2 -10h-2z" />
    <glyph glyph-name="uni1ECA" unicode="&#x1eca;" horiz-adv-x="247" 
d="M20 697v3h207v-3h-62v-694h62v-3h-207v3h63v694h-63zM172 -118q0 -22 -14.5 -36.5t-34.5 -14.5q-21 0 -34.5 14t-13.5 36q0 23 14 37.5t34 14.5q22 0 35.5 -14t13.5 -37z" />
    <glyph glyph-name="uni1ECB" unicode="&#x1ecb;" horiz-adv-x="222" 
d="M155 3h62v-3h-202v3h63v501h-63v3h140v-504zM163 654q0 -22 -14.5 -36.5t-34.5 -14.5q-21 0 -34.5 14t-13.5 36q0 23 14 37.5t34 14.5q22 0 35.5 -14t13.5 -37zM160 -118q0 -22 -14.5 -36.5t-34.5 -14.5q-21 0 -34.5 14t-13.5 36q0 23 14 37.5t34 14.5q22 0 35.5 -14
t13.5 -37z" />
    <glyph glyph-name="uni1ECC" unicode="&#x1ecc;" horiz-adv-x="704" 
d="M352 710q78 0 138.5 -27t101 -74.5t61.5 -112.5t21 -142q0 -78 -23.5 -144.5t-66 -115.5t-102 -77t-130.5 -28q-78 0 -138.5 27t-101 74.5t-61.5 113t-21 142.5q0 78 23.5 144.5t66 115t102 76.5t130.5 28zM352 -7q63 0 106.5 28t71.5 76.5t40.5 113t12.5 137.5
q0 71 -14 135.5t-42.5 114t-72 79t-102.5 29.5q-63 0 -106.5 -28t-71.5 -76t-40.5 -112.5t-12.5 -137.5q0 -71 14 -136t42.5 -114.5t72 -79t102.5 -29.5zM400 -118q0 -22 -14.5 -36.5t-34.5 -14.5q-21 0 -34.5 14t-13.5 36q0 23 14 37.5t34 14.5q22 0 35.5 -14t13.5 -37z
" />
    <glyph glyph-name="uni1ECD" unicode="&#x1ecd;" horiz-adv-x="557" 
d="M429 253q0 55 -9 102.5t-27.5 82.5t-46.5 55.5t-65 20.5q-39 0 -68 -19.5t-47.5 -54t-28 -81.5t-9.5 -102t9 -102.5t27.5 -83t46.5 -56t65 -20.5q39 0 68 19.5t47.5 54t28 82t9.5 102.5zM512 258q0 -55 -18.5 -103.5t-51 -85t-75.5 -57.5t-91 -21q-50 0 -92.5 20
t-73 55.5t-48 83t-17.5 102.5t18.5 103.5t51 84.5t75.5 57t91 21q50 0 92.5 -20t73 -55t48 -82.5t17.5 -102.5zM327 -118q0 -22 -14.5 -36.5t-34.5 -14.5q-21 0 -34.5 14t-13.5 36q0 23 14 37.5t34 14.5q22 0 35.5 -14t13.5 -37z" />
    <glyph glyph-name="uni1ECE" unicode="&#x1ece;" horiz-adv-x="704" 
d="M352 710q78 0 138.5 -27t101 -74.5t61.5 -112.5t21 -142q0 -78 -23.5 -144.5t-66 -115.5t-102 -77t-130.5 -28q-78 0 -138.5 27t-101 74.5t-61.5 113t-21 142.5q0 78 23.5 144.5t66 115t102 76.5t130.5 28zM352 -7q63 0 106.5 28t71.5 76.5t40.5 113t12.5 137.5
q0 71 -14 135.5t-42.5 114t-72 79t-102.5 29.5q-63 0 -106.5 -28t-71.5 -76t-40.5 -112.5t-12.5 -137.5q0 -71 14 -136t42.5 -114.5t72 -79t102.5 -29.5zM371 770q-3 6 -6 15t-3 17q0 11 7 19t15 15.5t15 16t7 20.5q0 13 -5.5 24.5t-23.5 13.5q-17 1 -28.5 -10.5t-9.5 -21.5
l1 -1q3 -1 4.5 0.5t5.5 1.5q6 0 11.5 -4t4.5 -12t-6.5 -12.5t-16.5 -3.5q-10 1 -14.5 7.5t-4.5 15.5q0 16 14 29.5t40 13.5t43 -13t17 -31t-10.5 -29.5t-23 -20.5t-23 -18t-10.5 -22q0 -6 2 -10h-2z" />
    <glyph glyph-name="uni1ECF" unicode="&#x1ecf;" horiz-adv-x="557" 
d="M429 253q0 55 -9 102.5t-27.5 82.5t-46.5 55.5t-65 20.5q-39 0 -68 -19.5t-47.5 -54t-28 -81.5t-9.5 -102t9 -102.5t27.5 -83t46.5 -56t65 -20.5q39 0 68 19.5t47.5 54t28 82t9.5 102.5zM512 258q0 -55 -18.5 -103.5t-51 -85t-75.5 -57.5t-91 -21q-50 0 -92.5 20
t-73 55.5t-48 83t-17.5 102.5t18.5 103.5t51 84.5t75.5 57t91 21q50 0 92.5 -20t73 -55t48 -82.5t17.5 -102.5zM285 570q-3 6 -6 15t-3 17q0 11 7 19t15 15.5t15 16t7 20.5q0 13 -5.5 24.5t-23.5 13.5q-17 1 -28.5 -10.5t-9.5 -21.5l1 -1q3 -1 4.5 0.5t5.5 1.5q6 0 11.5 -4
t4.5 -12t-6.5 -12.5t-16.5 -3.5q-10 1 -14.5 7.5t-4.5 15.5q0 16 14 29.5t40 13.5t43 -13t17 -31t-10.5 -29.5t-23 -20.5t-23 -18t-10.5 -22q0 -6 2 -10h-2z" />
    <glyph glyph-name="uni1ED0" unicode="&#x1ed0;" horiz-adv-x="704" 
d="M352 710q78 0 138.5 -27t101 -74.5t61.5 -112.5t21 -142q0 -78 -23.5 -144.5t-66 -115.5t-102 -77t-130.5 -28q-78 0 -138.5 27t-101 74.5t-61.5 113t-21 142.5q0 78 23.5 144.5t66 115t102 76.5t130.5 28zM352 -7q63 0 106.5 28t71.5 76.5t40.5 113t12.5 137.5
q0 71 -14 135.5t-42.5 114t-72 79t-102.5 29.5q-63 0 -106.5 -28t-71.5 -76t-40.5 -112.5t-12.5 -137.5q0 -71 14 -136t42.5 -114.5t72 -79t102.5 -29.5zM362 873q14 -12 23.5 -21t20 -20t25.5 -25t40 -35l-2 -2q-26 21 -41.5 33t-27.5 20l-22.5 15t-25.5 19
q-15 -12 -25.5 -19l-22.5 -15t-28 -20t-41 -33l-2 2q25 21 39.5 35t25 24.5l20 20t24.5 21.5q11 9 20 0zM440 966q-35 -14 -81 -31t-106 -45l-1 3q60 26 103 51.5t78 40.5q6 2 10 2q9 0 9 -9q0 -4 -3.5 -7t-8.5 -5z" />
    <glyph glyph-name="uni1ED1" unicode="&#x1ed1;" horiz-adv-x="557" 
d="M429 253q0 55 -9 102.5t-27.5 82.5t-46.5 55.5t-65 20.5q-39 0 -68 -19.5t-47.5 -54t-28 -81.5t-9.5 -102t9 -102.5t27.5 -83t46.5 -56t65 -20.5q39 0 68 19.5t47.5 54t28 82t9.5 102.5zM512 258q0 -55 -18.5 -103.5t-51 -85t-75.5 -57.5t-91 -21q-50 0 -92.5 20
t-73 55.5t-48 83t-17.5 102.5t18.5 103.5t51 84.5t75.5 57t91 21q50 0 92.5 -20t73 -55t48 -82.5t17.5 -102.5zM288 669q14 -12 23.5 -21t20 -20t25.5 -25t40 -35l-2 -2q-26 21 -41.5 33t-27.5 20l-22.5 15t-25.5 19q-15 -12 -25.5 -19l-22.5 -15t-28 -20t-41 -33l-2 2
q25 21 39.5 35t25 24.5l20 20t24.5 21.5q11 9 20 0zM366 756q-35 -14 -81 -31t-106 -45l-1 3q60 26 103 51.5t78 40.5q6 2 10 2q9 0 9 -9q0 -4 -3.5 -7t-8.5 -5z" />
    <glyph glyph-name="uni1ED2" unicode="&#x1ed2;" horiz-adv-x="704" 
d="M352 710q78 0 138.5 -27t101 -74.5t61.5 -112.5t21 -142q0 -78 -23.5 -144.5t-66 -115.5t-102 -77t-130.5 -28q-78 0 -138.5 27t-101 74.5t-61.5 113t-21 142.5q0 78 23.5 144.5t66 115t102 76.5t130.5 28zM352 -7q63 0 106.5 28t71.5 76.5t40.5 113t12.5 137.5
q0 71 -14 135.5t-42.5 114t-72 79t-102.5 29.5q-63 0 -106.5 -28t-71.5 -76t-40.5 -112.5t-12.5 -137.5q0 -71 14 -136t42.5 -114.5t72 -79t102.5 -29.5zM362 873q14 -12 23.5 -21t20 -20t25.5 -25t40 -35l-2 -2q-26 21 -41.5 33t-27.5 20l-22.5 15t-25.5 19
q-15 -12 -25.5 -19l-22.5 -15t-28 -20t-41 -33l-2 2q25 21 39.5 35t25 24.5l20 20t24.5 21.5q11 9 20 0zM266 946q-5 2 -8.5 5t-3.5 7q0 9 9 9q4 0 10 -2q35 -15 78 -40.5t103 -51.5l-1 -3q-60 28 -106 45t-81 31z" />
    <glyph glyph-name="uni1ED3" unicode="&#x1ed3;" horiz-adv-x="557" 
d="M429 253q0 55 -9 102.5t-27.5 82.5t-46.5 55.5t-65 20.5q-39 0 -68 -19.5t-47.5 -54t-28 -81.5t-9.5 -102t9 -102.5t27.5 -83t46.5 -56t65 -20.5q39 0 68 19.5t47.5 54t28 82t9.5 102.5zM512 258q0 -55 -18.5 -103.5t-51 -85t-75.5 -57.5t-91 -21q-50 0 -92.5 20
t-73 55.5t-48 83t-17.5 102.5t18.5 103.5t51 84.5t75.5 57t91 21q50 0 92.5 -20t73 -55t48 -82.5t17.5 -102.5zM288 669q14 -12 23.5 -21t20 -20t25.5 -25t40 -35l-2 -2q-26 21 -41.5 33t-27.5 20l-22.5 15t-25.5 19q-15 -12 -25.5 -19l-22.5 -15t-28 -20t-41 -33l-2 2
q25 21 39.5 35t25 24.5l20 20t24.5 21.5q11 9 20 0zM190 756q-5 2 -8.5 5t-3.5 7q0 9 9 9q4 0 10 -2q35 -15 78 -40.5t103 -51.5l-1 -3q-60 28 -106 45t-81 31z" />
    <glyph glyph-name="uni1ED4" unicode="&#x1ed4;" horiz-adv-x="704" 
d="M352 710q78 0 138.5 -27t101 -74.5t61.5 -112.5t21 -142q0 -78 -23.5 -144.5t-66 -115.5t-102 -77t-130.5 -28q-78 0 -138.5 27t-101 74.5t-61.5 113t-21 142.5q0 78 23.5 144.5t66 115t102 76.5t130.5 28zM352 -7q63 0 106.5 28t71.5 76.5t40.5 113t12.5 137.5
q0 71 -14 135.5t-42.5 114t-72 79t-102.5 29.5q-63 0 -106.5 -28t-71.5 -76t-40.5 -112.5t-12.5 -137.5q0 -71 14 -136t42.5 -114.5t72 -79t102.5 -29.5zM362 873q14 -12 23.5 -21t20 -20t25.5 -25t40 -35l-2 -2q-26 21 -41.5 33t-27.5 20l-22.5 15t-25.5 19
q-15 -12 -25.5 -19l-22.5 -15t-28 -20t-41 -33l-2 2q25 21 39.5 35t25 24.5l20 20t24.5 21.5q11 9 20 0zM422 867q-3 6 -6 15t-3 17q0 11 7 19t15 15.5t15 16t7 20.5q0 13 -5.5 24.5t-23.5 13.5q-17 1 -28.5 -10.5t-9.5 -21.5l1 -1q3 -1 4.5 0.5t5.5 1.5q6 0 11.5 -4
t4.5 -12t-6.5 -12.5t-16.5 -3.5q-10 1 -14.5 7.5t-4.5 15.5q0 16 14 29.5t40 13.5t43 -13t17 -31t-10.5 -29.5t-23 -20.5t-23 -18t-10.5 -22q0 -6 2 -10h-2z" />
    <glyph glyph-name="uni1ED5" unicode="&#x1ed5;" horiz-adv-x="557" 
d="M429 253q0 55 -9 102.5t-27.5 82.5t-46.5 55.5t-65 20.5q-39 0 -68 -19.5t-47.5 -54t-28 -81.5t-9.5 -102t9 -102.5t27.5 -83t46.5 -56t65 -20.5q39 0 68 19.5t47.5 54t28 82t9.5 102.5zM512 258q0 -55 -18.5 -103.5t-51 -85t-75.5 -57.5t-91 -21q-50 0 -92.5 20
t-73 55.5t-48 83t-17.5 102.5t18.5 103.5t51 84.5t75.5 57t91 21q50 0 92.5 -20t73 -55t48 -82.5t17.5 -102.5zM288 669q14 -12 23.5 -21t20 -20t25.5 -25t40 -35l-2 -2q-26 21 -41.5 33t-27.5 20l-22.5 15t-25.5 19q-15 -12 -25.5 -19l-22.5 -15t-28 -20t-41 -33l-2 2
q25 21 39.5 35t25 24.5l20 20t24.5 21.5q11 9 20 0zM335 670q-3 6 -6 15t-3 17q0 11 7 19t15 15.5t15 16t7 20.5q0 13 -5.5 24.5t-23.5 13.5q-17 1 -28.5 -10.5t-9.5 -21.5l1 -1q3 -1 4.5 0.5t5.5 1.5q6 0 11.5 -4t4.5 -12t-6.5 -12.5t-16.5 -3.5q-10 1 -14.5 7.5t-4.5 15.5
q0 16 14 29.5t40 13.5t43 -13t17 -31t-10.5 -29.5t-23 -20.5t-23 -18t-10.5 -22q0 -6 2 -10h-2z" />
    <glyph glyph-name="uni1ED6" unicode="&#x1ed6;" horiz-adv-x="704" 
d="M352 710q78 0 138.5 -27t101 -74.5t61.5 -112.5t21 -142q0 -78 -23.5 -144.5t-66 -115.5t-102 -77t-130.5 -28q-78 0 -138.5 27t-101 74.5t-61.5 113t-21 142.5q0 78 23.5 144.5t66 115t102 76.5t130.5 28zM352 -7q63 0 106.5 28t71.5 76.5t40.5 113t12.5 137.5
q0 71 -14 135.5t-42.5 114t-72 79t-102.5 29.5q-63 0 -106.5 -28t-71.5 -76t-40.5 -112.5t-12.5 -137.5q0 -71 14 -136t42.5 -114.5t72 -79t102.5 -29.5zM362 873q14 -12 23.5 -21t20 -20t25.5 -25t40 -35l-2 -2q-26 21 -41.5 33t-27.5 20l-22.5 15t-25.5 19
q-15 -12 -25.5 -19l-22.5 -15t-28 -20t-41 -33l-2 2q25 21 39.5 35t25 24.5l20 20t24.5 21.5q11 9 20 0zM437 918q31 0 51 14.5t36 49.5h3q-17 -38 -38.5 -58.5t-59.5 -20.5q-32 0 -52.5 11t-37.5 24.5t-33 24.5t-39 11q-31 0 -51 -14.5t-36 -49.5h-3q17 38 38.5 58.5
t59.5 20.5q25 0 42.5 -11t34.5 -24.5t36.5 -24.5t48.5 -11z" />
    <glyph glyph-name="uni1ED7" unicode="&#x1ed7;" horiz-adv-x="557" 
d="M429 253q0 55 -9 102.5t-27.5 82.5t-46.5 55.5t-65 20.5q-39 0 -68 -19.5t-47.5 -54t-28 -81.5t-9.5 -102t9 -102.5t27.5 -83t46.5 -56t65 -20.5q39 0 68 19.5t47.5 54t28 82t9.5 102.5zM512 258q0 -55 -18.5 -103.5t-51 -85t-75.5 -57.5t-91 -21q-50 0 -92.5 20
t-73 55.5t-48 83t-17.5 102.5t18.5 103.5t51 84.5t75.5 57t91 21q50 0 92.5 -20t73 -55t48 -82.5t17.5 -102.5zM288 669q14 -12 23.5 -21t20 -20t25.5 -25t40 -35l-2 -2q-26 21 -41.5 33t-27.5 20l-22.5 15t-25.5 19q-15 -12 -25.5 -19l-22.5 -15t-28 -20t-41 -33l-2 2
q25 21 39.5 35t25 24.5l20 20t24.5 21.5q11 9 20 0zM363 765q31 0 51 14.5t36 49.5h3q-17 -38 -38.5 -58.5t-59.5 -20.5q-32 0 -52.5 11t-37.5 24.5t-33 24.5t-39 11q-31 0 -51 -14.5t-36 -49.5h-3q17 38 38.5 58.5t59.5 20.5q25 0 42.5 -11t34.5 -24.5t36.5 -24.5t48.5 -11
z" />
    <glyph glyph-name="uni1ED8" unicode="&#x1ed8;" horiz-adv-x="704" 
d="M400 -118q0 -22 -14.5 -36.5t-34.5 -14.5q-21 0 -34.5 14t-13.5 36q0 23 14 37.5t34 14.5q22 0 35.5 -14t13.5 -37zM352 710q78 0 138.5 -27t101 -74.5t61.5 -112.5t21 -142q0 -78 -23.5 -144.5t-66 -115.5t-102 -77t-130.5 -28q-78 0 -138.5 27t-101 74.5t-61.5 113
t-21 142.5q0 78 23.5 144.5t66 115t102 76.5t130.5 28zM352 -7q63 0 106.5 28t71.5 76.5t40.5 113t12.5 137.5q0 71 -14 135.5t-42.5 114t-72 79t-102.5 29.5q-63 0 -106.5 -28t-71.5 -76t-40.5 -112.5t-12.5 -137.5q0 -71 14 -136t42.5 -114.5t72 -79t102.5 -29.5zM362 873
q14 -12 23.5 -21t20 -20t25.5 -25t40 -35l-2 -2q-26 21 -41.5 33t-27.5 20l-22.5 15t-25.5 19q-15 -12 -25.5 -19l-22.5 -15t-28 -20t-41 -33l-2 2q25 21 39.5 35t25 24.5l20 20t24.5 21.5q11 9 20 0z" />
    <glyph glyph-name="uni1ED9" unicode="&#x1ed9;" horiz-adv-x="557" 
d="M327 -118q0 -22 -14.5 -36.5t-34.5 -14.5q-21 0 -34.5 14t-13.5 36q0 23 14 37.5t34 14.5q22 0 35.5 -14t13.5 -37zM429 253q0 55 -9 102.5t-27.5 82.5t-46.5 55.5t-65 20.5q-39 0 -68 -19.5t-47.5 -54t-28 -81.5t-9.5 -102t9 -102.5t27.5 -83t46.5 -56t65 -20.5
q39 0 68 19.5t47.5 54t28 82t9.5 102.5zM512 258q0 -55 -18.5 -103.5t-51 -85t-75.5 -57.5t-91 -21q-50 0 -92.5 20t-73 55.5t-48 83t-17.5 102.5t18.5 103.5t51 84.5t75.5 57t91 21q50 0 92.5 -20t73 -55t48 -82.5t17.5 -102.5zM288 669q14 -12 23.5 -21t20 -20t25.5 -25
t40 -35l-2 -2q-26 21 -41.5 33t-27.5 20l-22.5 15t-25.5 19q-15 -12 -25.5 -19l-22.5 -15t-28 -20t-41 -33l-2 2q25 21 39.5 35t25 24.5l20 20t24.5 21.5q11 9 20 0z" />
    <glyph glyph-name="uni1EDA" unicode="&#x1eda;" horiz-adv-x="704" 
d="M440 847q-35 -14 -81 -31t-106 -45l-1 3q60 26 103 51.5t78 40.5q6 2 10 2q9 0 9 -9q0 -4 -3.5 -7t-8.5 -5zM352 710q60 0 109 -16t87 -45q16 8 26.5 19.5t14.5 20.5q4 4 -2 6q-2 1 -11 0.5t-20 4.5q-17 8 -26 26.5t2 41.5q9 19 28 27t39 -2q23 -11 29 -32.5t-5 -44.5
q-9 -20 -27 -39.5t-43 -31.5q60 -48 90.5 -122.5t30.5 -168.5q0 -78 -23.5 -144.5t-66 -115.5t-102 -77t-130.5 -28q-78 0 -138.5 27t-101 74.5t-61.5 113t-21 142.5q0 78 23.5 144.5t66 115t102 76.5t130.5 28zM352 -7q63 0 106.5 28t71.5 76.5t40.5 113t12.5 137.5
q0 71 -14 135.5t-42.5 114t-72 79t-102.5 29.5q-63 0 -106.5 -28t-71.5 -76t-40.5 -112.5t-12.5 -137.5q0 -71 14 -136t42.5 -114.5t72 -79t102.5 -29.5z" />
    <glyph glyph-name="uni1EDB" unicode="&#x1edb;" horiz-adv-x="557" 
d="M376 704q-35 -14 -81 -31t-106 -45l-1 3q60 26 103 51.5t78 40.5q6 2 10 2q9 0 9 -9q0 -4 -3.5 -7t-8.5 -5zM512 258q0 -55 -18.5 -103.5t-51 -85t-75.5 -57.5t-91 -21q-50 0 -92.5 20t-73 55.5t-48 83t-17.5 102.5t18.5 103.5t51 84.5t75.5 57t91 21q53 0 96.5 -22.5
t74.5 -60.5q28 7 45.5 23t23.5 28q4 4 -2 6q-2 1 -11 0.5t-20 4.5q-17 8 -26 26.5t2 41.5q9 19 28 27t39 -2q23 -11 29 -32.5t-5 -44.5q-12 -26 -38 -49.5t-62 -31.5q27 -35 42 -79t15 -95zM429 253q0 55 -9 102.5t-27.5 82.5t-46.5 55.5t-65 20.5q-39 0 -68 -19.5
t-47.5 -54t-28 -81.5t-9.5 -102t9 -102.5t27.5 -83t46.5 -56t65 -20.5q39 0 68 19.5t47.5 54t28 82t9.5 102.5z" />
    <glyph glyph-name="uni1EDC" unicode="&#x1edc;" horiz-adv-x="704" 
d="M264 847q-5 2 -8.5 5t-3.5 7q0 9 9 9q4 0 10 -2q35 -15 78 -40.5t103 -51.5l-1 -3q-60 28 -106 45t-81 31zM352 710q60 0 109 -16t87 -45q16 8 26.5 19.5t14.5 20.5q4 4 -2 6q-2 1 -11 0.5t-20 4.5q-17 8 -26 26.5t2 41.5q9 19 28 27t39 -2q23 -11 29 -32.5t-5 -44.5
q-9 -20 -27 -39.5t-43 -31.5q60 -48 90.5 -122.5t30.5 -168.5q0 -78 -23.5 -144.5t-66 -115.5t-102 -77t-130.5 -28q-78 0 -138.5 27t-101 74.5t-61.5 113t-21 142.5q0 78 23.5 144.5t66 115t102 76.5t130.5 28zM352 -7q63 0 106.5 28t71.5 76.5t40.5 113t12.5 137.5
q0 71 -14 135.5t-42.5 114t-72 79t-102.5 29.5q-63 0 -106.5 -28t-71.5 -76t-40.5 -112.5t-12.5 -137.5q0 -71 14 -136t42.5 -114.5t72 -79t102.5 -29.5z" />
    <glyph glyph-name="uni1EDD" unicode="&#x1edd;" horiz-adv-x="557" 
d="M512 258q0 -55 -18.5 -103.5t-51 -85t-75.5 -57.5t-91 -21q-50 0 -92.5 20t-73 55.5t-48 83t-17.5 102.5t18.5 103.5t51 84.5t75.5 57t91 21q53 0 96.5 -22.5t74.5 -60.5q28 7 45.5 23t23.5 28q4 4 -2 6q-2 1 -11 0.5t-20 4.5q-17 8 -26 26.5t2 41.5q9 19 28 27t39 -2
q23 -11 29 -32.5t-5 -44.5q-12 -26 -38 -49.5t-62 -31.5q27 -35 42 -79t15 -95zM429 253q0 55 -9 102.5t-27.5 82.5t-46.5 55.5t-65 20.5q-39 0 -68 -19.5t-47.5 -54t-28 -81.5t-9.5 -102t9 -102.5t27.5 -83t46.5 -56t65 -20.5q39 0 68 19.5t47.5 54t28 82t9.5 102.5z
M190 704q-5 2 -8.5 5t-3.5 7q0 9 9 9q4 0 10 -2q35 -15 78 -40.5t103 -51.5l-1 -3q-60 28 -106 45t-81 31z" />
    <glyph glyph-name="uni1EDE" unicode="&#x1ede;" horiz-adv-x="704" 
d="M352 710q60 0 109 -16t87 -45q16 8 26.5 19.5t14.5 20.5q4 4 -2 6q-2 1 -11 0.5t-20 4.5q-17 8 -26 26.5t2 41.5q9 19 28 27t39 -2q23 -11 29 -32.5t-5 -44.5q-9 -20 -27 -39.5t-43 -31.5q60 -48 90.5 -122.5t30.5 -168.5q0 -78 -23.5 -144.5t-66 -115.5t-102 -77
t-130.5 -28q-78 0 -138.5 27t-101 74.5t-61.5 113t-21 142.5q0 78 23.5 144.5t66 115t102 76.5t130.5 28zM352 -7q63 0 106.5 28t71.5 76.5t40.5 113t12.5 137.5q0 71 -14 135.5t-42.5 114t-72 79t-102.5 29.5q-63 0 -106.5 -28t-71.5 -76t-40.5 -112.5t-12.5 -137.5
q0 -71 14 -136t42.5 -114.5t72 -79t102.5 -29.5zM371 770q-3 6 -6 15t-3 17q0 11 7 19t15 15.5t15 16t7 20.5q0 13 -5.5 24.5t-23.5 13.5q-17 1 -28.5 -10.5t-9.5 -21.5l1 -1q3 -1 4.5 0.5t5.5 1.5q6 0 11.5 -4t4.5 -12t-6.5 -12.5t-16.5 -3.5q-10 1 -14.5 7.5t-4.5 15.5
q0 16 14 29.5t40 13.5t43 -13t17 -31t-10.5 -29.5t-23 -20.5t-23 -18t-10.5 -22q0 -6 2 -10h-2z" />
    <glyph glyph-name="uni1EDF" unicode="&#x1edf;" horiz-adv-x="557" 
d="M512 258q0 -55 -18.5 -103.5t-51 -85t-75.5 -57.5t-91 -21q-50 0 -92.5 20t-73 55.5t-48 83t-17.5 102.5t18.5 103.5t51 84.5t75.5 57t91 21q53 0 96.5 -22.5t74.5 -60.5q28 7 45.5 23t23.5 28q4 4 -2 6q-2 1 -11 0.5t-20 4.5q-17 8 -26 26.5t2 41.5q9 19 28 27t39 -2
q23 -11 29 -32.5t-5 -44.5q-12 -26 -38 -49.5t-62 -31.5q27 -35 42 -79t15 -95zM429 253q0 55 -9 102.5t-27.5 82.5t-46.5 55.5t-65 20.5q-39 0 -68 -19.5t-47.5 -54t-28 -81.5t-9.5 -102t9 -102.5t27.5 -83t46.5 -56t65 -20.5q39 0 68 19.5t47.5 54t28 82t9.5 102.5z
M285 570q-3 6 -6 15t-3 17q0 11 7 19t15 15.5t15 16t7 20.5q0 13 -5.5 24.5t-23.5 13.5q-17 1 -28.5 -10.5t-9.5 -21.5l1 -1q3 -1 4.5 0.5t5.5 1.5q6 0 11.5 -4t4.5 -12t-6.5 -12.5t-16.5 -3.5q-10 1 -14.5 7.5t-4.5 15.5q0 16 14 29.5t40 13.5t43 -13t17 -31t-10.5 -29.5
t-23 -20.5t-23 -18t-10.5 -22q0 -6 2 -10h-2z" />
    <glyph glyph-name="uni1EE0" unicode="&#x1ee0;" horiz-adv-x="704" 
d="M437 800q31 0 51 14.5t36 49.5h3q-17 -38 -38.5 -58.5t-59.5 -20.5q-32 0 -52.5 11t-37.5 24.5t-33 24.5t-39 11q-31 0 -51 -14.5t-36 -49.5h-3q17 38 38.5 58.5t59.5 20.5q25 0 42.5 -11t34.5 -24.5t36.5 -24.5t48.5 -11zM352 710q60 0 109 -16t87 -45q16 8 26.5 19.5
t14.5 20.5q4 4 -2 6q-2 1 -11 0.5t-20 4.5q-17 8 -26 26.5t2 41.5q9 19 28 27t39 -2q23 -11 29 -32.5t-5 -44.5q-9 -20 -27 -39.5t-43 -31.5q60 -48 90.5 -122.5t30.5 -168.5q0 -78 -23.5 -144.5t-66 -115.5t-102 -77t-130.5 -28q-78 0 -138.5 27t-101 74.5t-61.5 113
t-21 142.5q0 78 23.5 144.5t66 115t102 76.5t130.5 28zM352 -7q63 0 106.5 28t71.5 76.5t40.5 113t12.5 137.5q0 71 -14 135.5t-42.5 114t-72 79t-102.5 29.5q-63 0 -106.5 -28t-71.5 -76t-40.5 -112.5t-12.5 -137.5q0 -71 14 -136t42.5 -114.5t72 -79t102.5 -29.5z" />
    <glyph glyph-name="uni1EE1" unicode="&#x1ee1;" horiz-adv-x="557" 
d="M370 628q31 0 51 14.5t36 49.5h3q-17 -38 -38.5 -58.5t-59.5 -20.5q-32 0 -52.5 11t-37.5 24.5t-33 24.5t-39 11q-31 0 -51 -14.5t-36 -49.5h-3q17 38 38.5 58.5t59.5 20.5q25 0 42.5 -11t34.5 -24.5t36.5 -24.5t48.5 -11zM512 258q0 -55 -18.5 -103.5t-51 -85
t-75.5 -57.5t-91 -21q-50 0 -92.5 20t-73 55.5t-48 83t-17.5 102.5t18.5 103.5t51 84.5t75.5 57t91 21q53 0 96.5 -22.5t74.5 -60.5q28 7 45.5 23t23.5 28q4 4 -2 6q-2 1 -11 0.5t-20 4.5q-17 8 -26 26.5t2 41.5q9 19 28 27t39 -2q23 -11 29 -32.5t-5 -44.5
q-12 -26 -38 -49.5t-62 -31.5q27 -35 42 -79t15 -95zM429 253q0 55 -9 102.5t-27.5 82.5t-46.5 55.5t-65 20.5q-39 0 -68 -19.5t-47.5 -54t-28 -81.5t-9.5 -102t9 -102.5t27.5 -83t46.5 -56t65 -20.5q39 0 68 19.5t47.5 54t28 82t9.5 102.5z" />
    <glyph glyph-name="uni1EE2" unicode="&#x1ee2;" horiz-adv-x="704" 
d="M352 710q60 0 109 -16t87 -45q16 8 26.5 19.5t14.5 20.5q4 4 -2 6q-2 1 -11 0.5t-20 4.5q-17 8 -26 26.5t2 41.5q9 19 28 27t39 -2q23 -11 29 -32.5t-5 -44.5q-9 -20 -27 -39.5t-43 -31.5q60 -48 90.5 -122.5t30.5 -168.5q0 -78 -23.5 -144.5t-66 -115.5t-102 -77
t-130.5 -28q-78 0 -138.5 27t-101 74.5t-61.5 113t-21 142.5q0 78 23.5 144.5t66 115t102 76.5t130.5 28zM352 -7q63 0 106.5 28t71.5 76.5t40.5 113t12.5 137.5q0 71 -14 135.5t-42.5 114t-72 79t-102.5 29.5q-63 0 -106.5 -28t-71.5 -76t-40.5 -112.5t-12.5 -137.5
q0 -71 14 -136t42.5 -114.5t72 -79t102.5 -29.5zM400 -118q0 -22 -14.5 -36.5t-34.5 -14.5q-21 0 -34.5 14t-13.5 36q0 23 14 37.5t34 14.5q22 0 35.5 -14t13.5 -37z" />
    <glyph glyph-name="uni1EE3" unicode="&#x1ee3;" horiz-adv-x="557" 
d="M512 258q0 -55 -18.5 -103.5t-51 -85t-75.5 -57.5t-91 -21q-50 0 -92.5 20t-73 55.5t-48 83t-17.5 102.5t18.5 103.5t51 84.5t75.5 57t91 21q53 0 96.5 -22.5t74.5 -60.5q28 7 45.5 23t23.5 28q4 4 -2 6q-2 1 -11 0.5t-20 4.5q-17 8 -26 26.5t2 41.5q9 19 28 27t39 -2
q23 -11 29 -32.5t-5 -44.5q-12 -26 -38 -49.5t-62 -31.5q27 -35 42 -79t15 -95zM429 253q0 55 -9 102.5t-27.5 82.5t-46.5 55.5t-65 20.5q-39 0 -68 -19.5t-47.5 -54t-28 -81.5t-9.5 -102t9 -102.5t27.5 -83t46.5 -56t65 -20.5q39 0 68 19.5t47.5 54t28 82t9.5 102.5z
M327 -118q0 -22 -14.5 -36.5t-34.5 -14.5q-21 0 -34.5 14t-13.5 36q0 23 14 37.5t34 14.5q22 0 35.5 -14t13.5 -37z" />
    <glyph glyph-name="uni1EE4" unicode="&#x1ee4;" horiz-adv-x="671" 
d="M572 237q0 -55 -19.5 -100t-53.5 -77.5t-79 -50.5t-96 -18q-52 0 -96 18t-76.5 50t-50.5 75t-18 94v469h-63v3h207v-3h-62v-464q0 -44 15.5 -79.5t43 -61t65 -39.5t81.5 -14q42 0 78 13t62.5 38t42 62t15.5 86v349q0 57 -19.5 83.5t-58.5 26.5h-4v3h170v-3h-4
q-39 0 -59.5 -26.5t-20.5 -83.5v-350zM384 -118q0 -22 -14.5 -36.5t-34.5 -14.5q-21 0 -34.5 14t-13.5 36q0 23 14 37.5t34 14.5q22 0 35.5 -14t13.5 -37z" />
    <glyph glyph-name="uni1EE5" unicode="&#x1ee5;" horiz-adv-x="572" 
d="M396 91q-7 -18 -20.5 -36.5t-33 -32.5t-45 -23t-56.5 -9q-74 0 -110 52t-36 138v257q0 24 -13 35.5t-30 11.5t-29.5 -13t-14.5 -34h-3q1 11 6 25t15.5 26t26.5 20.5t38 8.5q39 0 60.5 -29t21.5 -82v-297q0 -51 26.5 -77.5t72.5 -26.5q28 0 51 11.5t39.5 30t25 42.5
t8.5 50v365h-62v3h138v-437q0 -24 13 -35.5t30 -11.5t29.5 13t14.5 34h3q-1 -11 -6 -25t-15.5 -26t-26.5 -20.5t-38 -8.5q-34 0 -55 27.5t-25 73.5zM345 -118q0 -22 -14.5 -36.5t-34.5 -14.5q-21 0 -34.5 14t-13.5 36q0 23 14 37.5t34 14.5q22 0 35.5 -14t13.5 -37z" />
    <glyph glyph-name="uni1EE6" unicode="&#x1ee6;" horiz-adv-x="671" 
d="M572 237q0 -55 -19.5 -100t-53.5 -77.5t-79 -50.5t-96 -18q-52 0 -96 18t-76.5 50t-50.5 75t-18 94v469h-63v3h207v-3h-62v-464q0 -44 15.5 -79.5t43 -61t65 -39.5t81.5 -14q42 0 78 13t62.5 38t42 62t15.5 86v349q0 57 -19.5 83.5t-58.5 26.5h-4v3h170v-3h-4
q-39 0 -59.5 -26.5t-20.5 -83.5v-350zM363 770q-3 6 -6 15t-3 17q0 11 7 19t15 15.5t15 16t7 20.5q0 13 -5.5 24.5t-23.5 13.5q-17 1 -28.5 -10.5t-9.5 -21.5l1 -1q3 -1 4.5 0.5t5.5 1.5q6 0 11.5 -4t4.5 -12t-6.5 -12.5t-16.5 -3.5q-10 1 -14.5 7.5t-4.5 15.5q0 16 14 29.5
t40 13.5t43 -13t17 -31t-10.5 -29.5t-23 -20.5t-23 -18t-10.5 -22q0 -6 2 -10h-2z" />
    <glyph glyph-name="uni1EE7" unicode="&#x1ee7;" horiz-adv-x="572" 
d="M396 91q-7 -18 -20.5 -36.5t-33 -32.5t-45 -23t-56.5 -9q-74 0 -110 52t-36 138v257q0 24 -13 35.5t-30 11.5t-29.5 -13t-14.5 -34h-3q1 11 6 25t15.5 26t26.5 20.5t38 8.5q39 0 60.5 -29t21.5 -82v-297q0 -51 26.5 -77.5t72.5 -26.5q28 0 51 11.5t39.5 30t25 42.5
t8.5 50v365h-62v3h138v-437q0 -24 13 -35.5t30 -11.5t29.5 13t14.5 34h3q-1 -11 -6 -25t-15.5 -26t-26.5 -20.5t-38 -8.5q-34 0 -55 27.5t-25 73.5zM276 570q-3 6 -6 15t-3 17q0 11 7 19t15 15.5t15 16t7 20.5q0 13 -5.5 24.5t-23.5 13.5q-17 1 -28.5 -10.5t-9.5 -21.5l1 -1
q3 -1 4.5 0.5t5.5 1.5q6 0 11.5 -4t4.5 -12t-6.5 -12.5t-16.5 -3.5q-10 1 -14.5 7.5t-4.5 15.5q0 16 14 29.5t40 13.5t43 -13t17 -31t-10.5 -29.5t-23 -20.5t-23 -18t-10.5 -22q0 -6 2 -10h-2z" />
    <glyph glyph-name="uni1EE8" unicode="&#x1ee8;" horiz-adv-x="671" 
d="M453 847q-35 -14 -81 -31t-106 -45l-1 3q60 26 103 51.5t78 40.5q6 2 10 2q9 0 9 -9q0 -4 -3.5 -7t-8.5 -5zM572 237q0 -55 -19.5 -100t-53.5 -77.5t-79 -50.5t-96 -18q-52 0 -96 18t-76.5 50t-50.5 75t-18 94v469h-63v3h207v-3h-62v-464q0 -44 15.5 -79.5t43 -61
t65 -39.5t81.5 -14q42 0 78 13t62.5 38t42 62t15.5 86v349q0 57 -19.5 83.5t-58.5 26.5h-4v3h86q12 0 18.5 3t12.5 8q4 5 0 8q-2 2 -9.5 5.5t-15.5 13.5q-11 15 -9.5 35.5t21.5 35.5q17 12 37 10t33 -20q15 -20 10 -42t-25 -37q-9 -7 -22 -10.5t-24.5 -9t-19.5 -14.5t-7 -26
v-423z" />
    <glyph glyph-name="uni1EE9" unicode="&#x1ee9;" horiz-adv-x="572" 
d="M362 704q-35 -14 -81 -31t-106 -45l-1 3q60 26 103 51.5t78 40.5q6 2 10 2q9 0 9 -9q0 -4 -3.5 -7t-8.5 -5zM396 91q-7 -18 -20.5 -36.5t-33 -32.5t-45 -23t-56.5 -9q-74 0 -110 52t-36 138v257q0 24 -13 35.5t-30 11.5t-29.5 -13t-14.5 -34h-3q1 11 6 25t15.5 26
t26.5 20.5t38 8.5q39 0 60.5 -29t21.5 -82v-297q0 -51 26.5 -77.5t72.5 -26.5q28 0 51 11.5t39.5 30t25 42.5t8.5 50v365h-62v3h138v-71q26 7 43.5 22.5t23.5 27.5q4 4 -2 6q-2 1 -11 0.5t-20 4.5q-17 8 -26 26.5t2 41.5q9 19 28 27t39 -2q23 -11 29 -32.5t-5 -44.5
q-12 -26 -38.5 -49.5t-62.5 -31.5v-362q0 -24 13 -35.5t30 -11.5t29.5 13t14.5 34h3q-1 -11 -6 -25t-15.5 -26t-26.5 -20.5t-38 -8.5q-34 0 -55 27.5t-25 73.5z" />
    <glyph glyph-name="uni1EEA" unicode="&#x1eea;" horiz-adv-x="671" 
d="M247 847q-5 2 -8.5 5t-3.5 7q0 9 9 9q4 0 10 -2q35 -15 78 -40.5t103 -51.5l-1 -3q-60 28 -106 45t-81 31zM572 237q0 -55 -19.5 -100t-53.5 -77.5t-79 -50.5t-96 -18q-52 0 -96 18t-76.5 50t-50.5 75t-18 94v469h-63v3h207v-3h-62v-464q0 -44 15.5 -79.5t43 -61
t65 -39.5t81.5 -14q42 0 78 13t62.5 38t42 62t15.5 86v349q0 57 -19.5 83.5t-58.5 26.5h-4v3h86q12 0 18.5 3t12.5 8q4 5 0 8q-2 2 -9.5 5.5t-15.5 13.5q-11 15 -9.5 35.5t21.5 35.5q17 12 37 10t33 -20q15 -20 10 -42t-25 -37q-9 -7 -22 -10.5t-24.5 -9t-19.5 -14.5t-7 -26
v-423z" />
    <glyph glyph-name="uni1EEB" unicode="&#x1eeb;" horiz-adv-x="572" 
d="M166 704q-5 2 -8.5 5t-3.5 7q0 9 9 9q4 0 10 -2q35 -15 78 -40.5t103 -51.5l-1 -3q-60 28 -106 45t-81 31zM396 91q-7 -18 -20.5 -36.5t-33 -32.5t-45 -23t-56.5 -9q-74 0 -110 52t-36 138v257q0 24 -13 35.5t-30 11.5t-29.5 -13t-14.5 -34h-3q1 11 6 25t15.5 26
t26.5 20.5t38 8.5q39 0 60.5 -29t21.5 -82v-297q0 -51 26.5 -77.5t72.5 -26.5q28 0 51 11.5t39.5 30t25 42.5t8.5 50v365h-62v3h138v-71q26 7 43.5 22.5t23.5 27.5q4 4 -2 6q-2 1 -11 0.5t-20 4.5q-17 8 -26 26.5t2 41.5q9 19 28 27t39 -2q23 -11 29 -32.5t-5 -44.5
q-12 -26 -38.5 -49.5t-62.5 -31.5v-362q0 -24 13 -35.5t30 -11.5t29.5 13t14.5 34h3q-1 -11 -6 -25t-15.5 -26t-26.5 -20.5t-38 -8.5q-34 0 -55 27.5t-25 73.5z" />
    <glyph glyph-name="uni1EEC" unicode="&#x1eec;" horiz-adv-x="671" 
d="M572 237q0 -55 -19.5 -100t-53.5 -77.5t-79 -50.5t-96 -18q-52 0 -96 18t-76.5 50t-50.5 75t-18 94v469h-63v3h207v-3h-62v-464q0 -44 15.5 -79.5t43 -61t65 -39.5t81.5 -14q42 0 78 13t62.5 38t42 62t15.5 86v349q0 57 -19.5 83.5t-58.5 26.5h-4v3h86q12 0 18.5 3
t12.5 8q4 5 0 8q-2 2 -9.5 5.5t-15.5 13.5q-11 15 -9.5 35.5t21.5 35.5q17 12 37 10t33 -20q15 -20 10 -42t-25 -37q-9 -7 -22 -10.5t-24.5 -9t-19.5 -14.5t-7 -26v-423zM363 770q-3 6 -6 15t-3 17q0 11 7 19t15 15.5t15 16t7 20.5q0 13 -5.5 24.5t-23.5 13.5
q-17 1 -28.5 -10.5t-9.5 -21.5l1 -1q3 -1 4.5 0.5t5.5 1.5q6 0 11.5 -4t4.5 -12t-6.5 -12.5t-16.5 -3.5q-10 1 -14.5 7.5t-4.5 15.5q0 16 14 29.5t40 13.5t43 -13t17 -31t-10.5 -29.5t-23 -20.5t-23 -18t-10.5 -22q0 -6 2 -10h-2z" />
    <glyph glyph-name="uni1EED" unicode="&#x1eed;" horiz-adv-x="572" 
d="M396 91q-7 -18 -20.5 -36.5t-33 -32.5t-45 -23t-56.5 -9q-74 0 -110 52t-36 138v257q0 24 -13 35.5t-30 11.5t-29.5 -13t-14.5 -34h-3q1 11 6 25t15.5 26t26.5 20.5t38 8.5q39 0 60.5 -29t21.5 -82v-297q0 -51 26.5 -77.5t72.5 -26.5q28 0 51 11.5t39.5 30t25 42.5
t8.5 50v365h-62v3h138v-71q26 7 43.5 22.5t23.5 27.5q4 4 -2 6q-2 1 -11 0.5t-20 4.5q-17 8 -26 26.5t2 41.5q9 19 28 27t39 -2q23 -11 29 -32.5t-5 -44.5q-12 -26 -38.5 -49.5t-62.5 -31.5v-362q0 -24 13 -35.5t30 -11.5t29.5 13t14.5 34h3q-1 -11 -6 -25t-15.5 -26
t-26.5 -20.5t-38 -8.5q-34 0 -55 27.5t-25 73.5zM276 570q-3 6 -6 15t-3 17q0 11 7 19t15 15.5t15 16t7 20.5q0 13 -5.5 24.5t-23.5 13.5q-17 1 -28.5 -10.5t-9.5 -21.5l1 -1q3 -1 4.5 0.5t5.5 1.5q6 0 11.5 -4t4.5 -12t-6.5 -12.5t-16.5 -3.5q-10 1 -14.5 7.5t-4.5 15.5
q0 16 14 29.5t40 13.5t43 -13t17 -31t-10.5 -29.5t-23 -20.5t-23 -18t-10.5 -22q0 -6 2 -10h-2z" />
    <glyph glyph-name="uni1EEE" unicode="&#x1eee;" horiz-adv-x="671" 
d="M437 800q31 0 51 14.5t36 49.5h3q-17 -38 -38.5 -58.5t-59.5 -20.5q-32 0 -52.5 11t-37.5 24.5t-33 24.5t-39 11q-31 0 -51 -14.5t-36 -49.5h-3q17 38 38.5 58.5t59.5 20.5q25 0 42.5 -11t34.5 -24.5t36.5 -24.5t48.5 -11zM572 237q0 -55 -19.5 -100t-53.5 -77.5
t-79 -50.5t-96 -18q-52 0 -96 18t-76.5 50t-50.5 75t-18 94v469h-63v3h207v-3h-62v-464q0 -44 15.5 -79.5t43 -61t65 -39.5t81.5 -14q42 0 78 13t62.5 38t42 62t15.5 86v349q0 57 -19.5 83.5t-58.5 26.5h-4v3h86q12 0 18.5 3t12.5 8q4 5 0 8q-2 2 -9.5 5.5t-15.5 13.5
q-11 15 -9.5 35.5t21.5 35.5q17 12 37 10t33 -20q15 -20 10 -42t-25 -37q-9 -7 -22 -10.5t-24.5 -9t-19.5 -14.5t-7 -26v-423z" />
    <glyph glyph-name="uni1EEF" unicode="&#x1eef;" horiz-adv-x="572" 
d="M357 628q31 0 51 14.5t36 49.5h3q-17 -38 -38.5 -58.5t-59.5 -20.5q-32 0 -52.5 11t-37.5 24.5t-33 24.5t-39 11q-31 0 -51 -14.5t-36 -49.5h-3q17 38 38.5 58.5t59.5 20.5q25 0 42.5 -11t34.5 -24.5t36.5 -24.5t48.5 -11zM396 91q-7 -18 -20.5 -36.5t-33 -32.5t-45 -23
t-56.5 -9q-74 0 -110 52t-36 138v257q0 24 -13 35.5t-30 11.5t-29.5 -13t-14.5 -34h-3q1 11 6 25t15.5 26t26.5 20.5t38 8.5q39 0 60.5 -29t21.5 -82v-297q0 -51 26.5 -77.5t72.5 -26.5q28 0 51 11.5t39.5 30t25 42.5t8.5 50v365h-62v3h138v-71q26 7 43.5 22.5t23.5 27.5
q4 4 -2 6q-2 1 -11 0.5t-20 4.5q-17 8 -26 26.5t2 41.5q9 19 28 27t39 -2q23 -11 29 -32.5t-5 -44.5q-12 -26 -38.5 -49.5t-62.5 -31.5v-362q0 -24 13 -35.5t30 -11.5t29.5 13t14.5 34h3q-1 -11 -6 -25t-15.5 -26t-26.5 -20.5t-38 -8.5q-34 0 -55 27.5t-25 73.5z" />
    <glyph glyph-name="uni1EF0" unicode="&#x1ef0;" horiz-adv-x="671" 
d="M572 237q0 -55 -19.5 -100t-53.5 -77.5t-79 -50.5t-96 -18q-52 0 -96 18t-76.5 50t-50.5 75t-18 94v469h-63v3h207v-3h-62v-464q0 -44 15.5 -79.5t43 -61t65 -39.5t81.5 -14q42 0 78 13t62.5 38t42 62t15.5 86v349q0 57 -19.5 83.5t-58.5 26.5h-4v3h86q12 0 18.5 3
t12.5 8q4 5 0 8q-2 2 -9.5 5.5t-15.5 13.5q-11 15 -9.5 35.5t21.5 35.5q17 12 37 10t33 -20q15 -20 10 -42t-25 -37q-9 -7 -22 -10.5t-24.5 -9t-19.5 -14.5t-7 -26v-423zM384 -118q0 -22 -14.5 -36.5t-34.5 -14.5q-21 0 -34.5 14t-13.5 36q0 23 14 37.5t34 14.5
q22 0 35.5 -14t13.5 -37z" />
    <glyph glyph-name="uni1EF1" unicode="&#x1ef1;" horiz-adv-x="572" 
d="M396 91q-7 -18 -20.5 -36.5t-33 -32.5t-45 -23t-56.5 -9q-74 0 -110 52t-36 138v257q0 24 -13 35.5t-30 11.5t-29.5 -13t-14.5 -34h-3q1 11 6 25t15.5 26t26.5 20.5t38 8.5q39 0 60.5 -29t21.5 -82v-297q0 -51 26.5 -77.5t72.5 -26.5q28 0 51 11.5t39.5 30t25 42.5
t8.5 50v365h-62v3h138v-71q26 7 43.5 22.5t23.5 27.5q4 4 -2 6q-2 1 -11 0.5t-20 4.5q-17 8 -26 26.5t2 41.5q9 19 28 27t39 -2q23 -11 29 -32.5t-5 -44.5q-12 -26 -38.5 -49.5t-62.5 -31.5v-362q0 -24 13 -35.5t30 -11.5t29.5 13t14.5 34h3q-1 -11 -6 -25t-15.5 -26
t-26.5 -20.5t-38 -8.5q-34 0 -55 27.5t-25 73.5zM345 -118q0 -22 -14.5 -36.5t-34.5 -14.5q-21 0 -34.5 14t-13.5 36q0 23 14 37.5t34 14.5q22 0 35.5 -14t13.5 -37z" />
    <glyph glyph-name="Ygrave" unicode="&#x1ef2;" horiz-adv-x="649" 
d="M479 697v3h170v-3h-4q-18 0 -35 -9t-33.5 -24t-32.5 -35t-31 -42l-155 -234v-350h62v-3h-207v3h63v339l-224 355h-52v3h213v-3h-67l212 -338l151 229q15 22 23.5 42t7 35t-14 23.5t-39.5 8.5h-7zM236 897q-5 2 -8.5 5t-3.5 7q0 9 9 9q4 0 10 -2q35 -15 78 -40.5
t103 -51.5l-1 -3q-60 28 -106 45t-81 31z" />
    <glyph glyph-name="ygrave" unicode="&#x1ef3;" horiz-adv-x="509" 
d="M452 431q0 11 -9 11q-5 0 -12.5 -4t-21.5 -4q-19 0 -35 13.5t-16 39.5q0 21 14 36.5t38 15.5q26 0 42.5 -19t16.5 -48q0 -40 -18.5 -85.5t-46 -93.5t-59.5 -97t-59.5 -95t-46 -87.5t-18.5 -74.5q0 -10 9 -10q5 0 12.5 4t21.5 4q19 0 35 -13.5t16 -39.5q0 -22 -14 -37
t-38 -15q-26 0 -42.5 19t-16.5 48q0 37 16 78.5t40 86.5l-204 440h-56v3h204v-3h-69l168 -368q26 42 52.5 82.5t48 78.5t35 72t13.5 62zM166 704q-5 2 -8.5 5t-3.5 7q0 9 9 9q4 0 10 -2q35 -15 78 -40.5t103 -51.5l-1 -3q-60 28 -106 45t-81 31z" />
    <glyph glyph-name="uni1EF4" unicode="&#x1ef4;" horiz-adv-x="649" 
d="M479 697v3h170v-3h-4q-18 0 -35 -9t-33.5 -24t-32.5 -35t-31 -42l-155 -234v-350h62v-3h-207v3h63v339l-224 355h-52v3h213v-3h-67l212 -338l151 229q15 22 23.5 42t7 35t-14 23.5t-39.5 8.5h-7zM373 -118q0 -22 -14.5 -36.5t-34.5 -14.5q-21 0 -34.5 14t-13.5 36
q0 23 14 37.5t34 14.5q22 0 35.5 -14t13.5 -37z" />
    <glyph glyph-name="uni1EF5" unicode="&#x1ef5;" horiz-adv-x="509" 
d="M383 23q0 -22 -14.5 -36.5t-34.5 -14.5q-21 0 -34.5 14t-13.5 36q0 23 14 37.5t34 14.5q22 0 35.5 -14t13.5 -37zM452 431q0 11 -9 11q-5 0 -12.5 -4t-21.5 -4q-19 0 -35 13.5t-16 39.5q0 21 14 36.5t38 15.5q26 0 42.5 -19t16.5 -48q0 -40 -18.5 -85.5t-46 -93.5
t-59.5 -97t-59.5 -95t-46 -87.5t-18.5 -74.5q0 -10 9 -10q5 0 12.5 4t21.5 4q19 0 35 -13.5t16 -39.5q0 -22 -14 -37t-38 -15q-26 0 -42.5 19t-16.5 48q0 37 16 78.5t40 86.5l-204 440h-56v3h204v-3h-69l168 -368q26 42 52.5 82.5t48 78.5t35 72t13.5 62z" />
    <glyph glyph-name="uni1EF6" unicode="&#x1ef6;" horiz-adv-x="649" 
d="M479 697v3h170v-3h-4q-18 0 -35 -9t-33.5 -24t-32.5 -35t-31 -42l-155 -234v-350h62v-3h-207v3h63v339l-224 355h-52v3h213v-3h-67l212 -338l151 229q15 22 23.5 42t7 35t-14 23.5t-39.5 8.5h-7zM341 770q-3 6 -6 15t-3 17q0 11 7 19t15 15.5t15 16t7 20.5
q0 13 -5.5 24.5t-23.5 13.5q-17 1 -28.5 -10.5t-9.5 -21.5l1 -1q3 -1 4.5 0.5t5.5 1.5q6 0 11.5 -4t4.5 -12t-6.5 -12.5t-16.5 -3.5q-10 1 -14.5 7.5t-4.5 15.5q0 16 14 29.5t40 13.5t43 -13t17 -31t-10.5 -29.5t-23 -20.5t-23 -18t-10.5 -22q0 -6 2 -10h-2z" />
    <glyph glyph-name="uni1EF7" unicode="&#x1ef7;" horiz-adv-x="509" 
d="M452 431q0 11 -9 11q-5 0 -12.5 -4t-21.5 -4q-19 0 -35 13.5t-16 39.5q0 21 14 36.5t38 15.5q26 0 42.5 -19t16.5 -48q0 -40 -18.5 -85.5t-46 -93.5t-59.5 -97t-59.5 -95t-46 -87.5t-18.5 -74.5q0 -10 9 -10q5 0 12.5 4t21.5 4q19 0 35 -13.5t16 -39.5q0 -22 -14 -37
t-38 -15q-26 0 -42.5 19t-16.5 48q0 37 16 78.5t40 86.5l-204 440h-56v3h204v-3h-69l168 -368q26 42 52.5 82.5t48 78.5t35 72t13.5 62zM291 570q-3 6 -6 15t-3 17q0 11 7 19t15 15.5t15 16t7 20.5q0 13 -5.5 24.5t-23.5 13.5q-17 1 -28.5 -10.5t-9.5 -21.5l1 -1
q3 -1 4.5 0.5t5.5 1.5q6 0 11.5 -4t4.5 -12t-6.5 -12.5t-16.5 -3.5q-10 1 -14.5 7.5t-4.5 15.5q0 16 14 29.5t40 13.5t43 -13t17 -31t-10.5 -29.5t-23 -20.5t-23 -18t-10.5 -22q0 -6 2 -10h-2z" />
    <glyph glyph-name="uni1EF8" unicode="&#x1ef8;" horiz-adv-x="649" 
d="M414 800q31 0 51 14.5t36 49.5h3q-17 -38 -38.5 -58.5t-59.5 -20.5q-32 0 -52.5 11t-37.5 24.5t-33 24.5t-39 11q-31 0 -51 -14.5t-36 -49.5h-3q17 38 38.5 58.5t59.5 20.5q25 0 42.5 -11t34.5 -24.5t36.5 -24.5t48.5 -11zM479 697v3h170v-3h-4q-18 0 -35 -9t-33.5 -24
t-32.5 -35t-31 -42l-155 -234v-350h62v-3h-207v3h63v339l-224 355h-52v3h213v-3h-67l212 -338l151 229q15 22 23.5 42t7 35t-14 23.5t-39.5 8.5h-7z" />
    <glyph glyph-name="uni1EF9" unicode="&#x1ef9;" horiz-adv-x="509" 
d="M344 628q31 0 51 14.5t36 49.5h3q-17 -38 -38.5 -58.5t-59.5 -20.5q-32 0 -52.5 11t-37.5 24.5t-33 24.5t-39 11q-31 0 -51 -14.5t-36 -49.5h-3q17 38 38.5 58.5t59.5 20.5q25 0 42.5 -11t34.5 -24.5t36.5 -24.5t48.5 -11zM452 431q0 11 -9 11q-5 0 -12.5 -4t-21.5 -4
q-19 0 -35 13.5t-16 39.5q0 21 14 36.5t38 15.5q26 0 42.5 -19t16.5 -48q0 -40 -18.5 -85.5t-46 -93.5t-59.5 -97t-59.5 -95t-46 -87.5t-18.5 -74.5q0 -10 9 -10q5 0 12.5 4t21.5 4q19 0 35 -13.5t16 -39.5q0 -22 -14 -37t-38 -15q-26 0 -42.5 19t-16.5 48q0 37 16 78.5
t40 86.5l-204 440h-56v3h204v-3h-69l168 -368q26 42 52.5 82.5t48 78.5t35 72t13.5 62z" />
    <glyph glyph-name="Dcroat" unicode="&#x110;" horiz-adv-x="637" 
d="M272 700q78 0 140.5 -25t105.5 -71t66 -109.5t23 -140.5q0 -78 -25.5 -143t-70.5 -112t-106.5 -73t-132.5 -26h-252v3h63v337q-10 0 -19.5 1t-22 1.5t-28.5 1t-39 0.5v3q23 0 39 0.5t28.5 1t22 1t19.5 1.5v346h-63v3h252zM271 344q-43 0 -66 -1t-40 -3v-337h99
q63 0 110 26.5t78.5 73t47.5 109.5t16 136q0 71 -17.5 134.5t-50 111t-79.5 75.5t-106 28h-98v-347q17 -1 40 -2t66 -1v-3z" />
    <glyph glyph-name="dcroat" unicode="&#x111;" horiz-adv-x="577" 
d="M596 590q-48 0 -71.5 -1.5t-42.5 -2.5v-516q0 -24 13 -35.5t30 -11.5t29.5 13t14.5 34h3q-1 -11 -6 -25t-15.5 -26t-26.5 -20.5t-38 -8.5q-69 0 -78 90q-17 -38 -54.5 -64t-91.5 -26q-50 0 -90 20t-68.5 55t-43.5 82t-15 102t17 104.5t47.5 86.5t72 58.5t89.5 21.5
q50 0 85 -23.5t52 -58.5v148q-10 0 -19.5 1t-22 1.5t-28.5 1t-39 0.5v3q23 0 39 0.5t28.5 1t22 1t19.5 1.5v100h-65v3h139v-103q9 -1 19 -1.5t23 -1t30.5 -1t41.5 -0.5v-3zM283 4q57 0 91 34t34 94v254q0 58 -33.5 90.5t-86.5 32.5q-39 0 -69 -19t-50 -53t-30.5 -81
t-10.5 -102t10.5 -101t30 -79t48.5 -51.5t66 -18.5z" />
    <glyph glyph-name="n" unicode="n" horiz-adv-x="551" 
d="M456 70q0 -24 13 -35.5t30 -11.5t29.5 13t14.5 34h3q-1 -11 -6 -25t-15.5 -26t-26.5 -20.5t-38 -8.5q-39 0 -60.5 29t-21.5 82v297q0 51 -26.5 77.5t-72.5 26.5q-29 0 -51.5 -12t-39 -32t-25 -45t-8.5 -50v-360h62v-3h-202v3h63v501h-63v3h140v-96q7 18 20.5 37t33 34.5
t45 25t56.5 9.5q74 0 110 -52t36 -138v-257z" />
    <glyph glyph-name="l" unicode="l" horiz-adv-x="241" 
d="M141 70q0 -24 13 -35.5t30 -11.5t29.5 13t14.5 34h3q-1 -11 -6 -25t-15.5 -26t-26.5 -20.5t-38 -8.5q-39 0 -59.5 29t-20.5 82v596h-65v3h141v-630z" />
    </font>
</defs>
</svg>
