<svg xmlns="http://www.w3.org/2000/svg">
<defs>
<font id="UTMHanzel" horiz-adv-x="1536" >
  <font-face 
    font-family="UTM Hanzel"
    font-weight="400"
    font-stretch="normal"
    units-per-em="2048"
    panose-1="2 4 6 3 5 5 6 2 2 4"
    ascent="1638"
    descent="-410"
    x-height="1081"
    cap-height="1467"
    bbox="-164 -799.001 4942 2212"
    underline-thickness="109"
    underline-position="-143"
    unicode-range="U+0020-U+2026"
  />
<missing-glyph horiz-adv-x="5040" 
d="M3351 2045h10c24.667 -6.66699 37 -24 37 -52c0 -8 -10.667 -27 -32 -57h-28c0 16 9.33301 34 28 54l2 10c-3.33301 8.66699 -6.66602 13.667 -10 15h-9c-5.33301 0 -8.66602 -6.33301 -10 -19h-30c4 32.667 18 49 42 49zM2019 2016l29.001 -31
c0 -10.667 -13.333 -20.667 -40 -30h-19l-59 12l-11 -12l-28 25c7.33301 19.333 21.666 29 42.999 29h11l42 -11h2c6.66699 0 16.667 6 30 18zM468.001 1980h142v-60h-94v-75h89v-59h-89v-129l-5 -5h-49v323zM1155 1980h43l6 -5v-78h30v-52h-30v-188l-6 -5h-49v193h-25v52
h25v78zM1621 1980h41.999l4 -5v-94h3c15.333 16 33.333 24 54 24h2c38.667 0 66.334 -23.667 83.001 -71l2 -39v-143h-52v115c0 53.333 -14 80 -42 80h-7c-28.667 0 -43 -28.667 -43 -86v-109h-51v323zM2200 1980l49 -0.000976562l5 -5v-222c6.66699 -34 21.667 -51 45 -51
c29.333 4.66699 44 24.334 44 59.001v214l5 5h49v-216c0 -56.667 -22 -94 -66 -112c-10 -5.33301 -21.667 -8 -35 -8c-31.333 0 -58.666 18.333 -82 55c-9.33301 16 -14 35 -14 57v224zM2435 1980h159v-60h-56v-268h-53v268h-55v55zM2621 1980l71 0.000976562
c4.66699 -2.66699 32.334 -86.334 83 -251.001h2l80 251h73v-328h-54v242h-2l-74 -242h-44c-2.66699 0 -22 60.667 -58 182l-19 60h-3v-242h-55v328zM3760 1980l52 -0.000976562v-328h-45l-5 5v11l3 2l-3 14c-19.333 -26.667 -45.333 -40 -78 -40
c-44.667 0 -78 30.333 -100 91l-5 39v3c0 62.667 30.667 104.334 92 125.001l23 3c23.333 0 44.333 -10.667 63 -32h3v107zM2057 1928l36 0.00195312l4 -6v-49h-45v-221h-48v23c-15.333 -20.667 -35 -31 -59 -31c-59.333 9.33301 -89 41.666 -89 96.999v156h51v-104

<glyph glyph-name=".notdef" horiz-adv-x="5040" 
d="M3351 2045h10c24.667 -6.66699 37 -24 37 -52c0 -8 -10.667 -27 -32 -57h-28c0 16 9.33301 34 28 54l2 10c-3.33301 8.66699 -6.66602 13.667 -10 15h-9c-5.33301 0 -8.66602 -6.33301 -10 -19h-30c4 32.667 18 49 42 49zM2019 2016l29.001 -31
c0 -10.667 -13.333 -20.667 -40 -30h-19l-59 12l-11 -12l-28 25c7.33301 19.333 21.666 29 42.999 29h11l42 -11h2c6.66699 0 16.667 6 30 18zM468.001 1980h142v-60h-94v-75h89v-59h-89v-129l-5 -5h-49v323zM1155 1980h43l6 -5v-78h30v-52h-30v-188l-6 -5h-49v193h-25v52
h25v78zM1621 1980h41.999l4 -5v-94h3c15.333 16 33.333 24 54 24h2c38.667 0 66.334 -23.667 83.001 -71l2 -39v-143h-52v115c0 53.333 -14 80 -42 80h-7c-28.667 0 -43 -28.667 -43 -86v-109h-51v323zM2200 1980l49 -0.000976562l5 -5v-222c6.66699 -34 21.667 -51 45 -51
c29.333 4.66699 44 24.334 44 59.001v214l5 5h49v-216c0 -56.667 -22 -94 -66 -112c-10 -5.33301 -21.667 -8 -35 -8c-31.333 0 -58.666 18.333 -82 55c-9.33301 16 -14 35 -14 57v224zM2435 1980h159v-60h-56v-268h-53v268h-55v55zM2621 1980l71 0.000976562
c4.66699 -2.66699 32.334 -86.334 83 -251.001h2l80 251h73v-328h-54v242h-2l-74 -242h-44c-2.66699 0 -22 60.667 -58 182l-19 60h-3v-242h-55v328zM3760 1980l52 -0.000976562v-328h-45l-5 5v11l3 2l-3 14c-19.333 -26.667 -45.333 -40 -78 -40
c-44.667 0 -78 30.333 -100 91l-5 39v3c0 62.667 30.667 104.334 92 125.001l23 3c23.333 0 44.333 -10.667 63 -32h3v107zM2057 1928l36 0.00195312l4 -6v-49h-45v-221h-48v23c-15.333 -20.667 -35 -31 -59 -31c-59.333 9.33301 -89 41.666 -89 96.999v156h51v-104
c0 -52.667 8.66699 -81.334 26 -86.001l18 -5h6c17.333 0 30.333 12 39 36l3 26v133h53v25zM3476 1928v-55h-31v-221h-47v25h-2c-10 -22 -29 -33 -57 -33c-45.333 0 -74 26 -86 78l-3 29v146h52v-120c0 -33.333 6.33301 -56 19 -68l21 -7h9c28 0 42 23 42 69v126h27
c2.66699 0 4 9.33301 4 28l3 3h49zM758 1905c45.333 0 79.667 -25.667 103 -77c6 -12 10 -30 12 -54c0 -58.667 -30 -101 -90 -127l-32 -3c-42 0 -75.667 24.333 -101 73c-8 14.667 -12 32 -12 52v10c0 62.667 33.667 104.667 101 126h19zM1011 1905h3
c49.333 0 77 -33.667 83 -101v-152h-51v119c0 50.667 -14 76 -42 76h-5c-29.333 0 -44 -25.333 -44 -76v-119h-52v245h46v-21c20 19.333 40.667 29 62 29zM1466 1905l7 -0.000976562c48 0 83 -29.667 105 -89h-60c-10.667 20.667 -24.667 31 -42 31h-17
c-35.333 -9.33301 -53 -29.666 -53 -60.999l-3 -15c8 -46 28.333 -69 61 -69h9c14.667 0 30.334 9 47.001 27h40l2 3h3l2 -3l2 3l3 -3l2 3l2 -7c-22 -54 -58.667 -81 -110 -81c-50.667 0 -87.334 31.333 -110.001 94l-4 36v3c0 56.667 25.667 96.667 77 120
c10 5.33301 22.333 8 37 8zM3141 1905h1.99902c32.667 0 56 -20 70 -60v-14h-52c0 10.667 -5.33301 16 -16 16h-4c-9.33301 0 -15.666 -4.33301 -18.999 -13v-13c0 -6 22.667 -17.667 68 -35c20 -12.667 30 -32.334 30 -59.001c0 -38.667 -20.333 -65.334 -61 -80.001
l-23 -3c-50.667 8 -76 35.667 -76 83h54c0 -13.333 9 -21.666 27 -24.999h4c12.667 0 20.667 7.66699 24 23c0 14.667 -22.667 29.334 -68 44.001c-22.667 18 -34 37.667 -34 59c0 44 24.667 69.667 74 77zM4203 1905c36.666 0 62.333 -21 77 -63
c4.66602 -12 7 -33.667 7 -65v-125h-52v112c0 55.333 -13.334 83 -40 83h-11c-22 0 -35.334 -18 -40 -54v-141h-52v5h-2l2 2v238h47v-21c16.666 19.333 38 29 64 29zM4432 1905h5c26.666 0 49.666 -13.333 69 -40v18l-3 3l3 11h47v-208c0 -64.667 -28.334 -108.667 -85 -132
l-33 -4h-7c-46.666 0 -81.333 26.667 -104 80h59c16 -14.667 31 -22.334 45 -23.001h13c14.666 0 29 7.33301 43 22c10 8.66699 17.334 26 22 52h-3c-21.334 -26.667 -45.667 -40 -73 -40c-38 0 -70 23.333 -96 70c-6.66602 12 -11.333 33 -14 63
c0 58.667 29 100.334 87 125.001zM3851 1897l53 -0.000976562v-136c4 -39.333 17.333 -59 40 -59h7c30.667 0 46 31 46 93v102h51v-245h-47l-3 10h3l-3 3v5l3 2v3h-4c0 -15.333 -19 -25.666 -57 -30.999h-3c-39.333 0 -67.333 25 -84 75l-2 85v93zM690 1771
c6.66699 -46 27.6689 -69 63.002 -69h7c39.333 9.33301 59 31 59 65v15c-8.66699 43.333 -28.334 65 -59.001 65h-5c-38.667 0 -60.334 -25.333 -65.001 -76zM3630 1774c8.66699 -48 29 -72 61 -72h5c38.667 0 60.667 25 66 75c0 32.667 -17 56 -51 70h-22
c-24.667 0 -43.334 -19 -56 -57zM4374 1774c5.33398 -48 27 -71.999 65 -71.999h5c39.334 8 59 32 59 72c0 40.667 -19.666 65 -59 73h-14c-37.334 -10.667 -56 -31.334 -56 -62.001v-11zM3928 1620h52v-57h-52v57zM1054 1402c28.667 -7.33301 43 -23.667 43 -49v-4
c0 -11.333 -10.667 -31.333 -32 -60h-28c0 16.667 10.333 35.667 31 57v7c0 8 -2.33301 13 -7 15h-12c-6.66699 -2.66699 -10 -9 -10 -19h-28v6c0 21.333 11 36 33 44zM3349 1339c61.333 0 107.333 -33.001 138 -99.001h-60c-24.667 28 -51.334 42 -80 42
c-36.667 0 -65.667 -22.667 -87 -68c-6.66699 -14.667 -10 -30.334 -10 -47.001c0 -52 27 -88.667 81 -110l18 -1c24 0 49 13 75 39h61c-29.333 -64.667 -75.333 -97 -138 -97c-62 0 -109 37.333 -141 112c-6.66699 20.667 -10 41.334 -10 62.001
c0 64.667 30 115.334 90 152.001c19.333 10 40.333 15 63 15zM3664 1339c38 0 72.333 -15.666 103 -46.999c30.667 -34 46 -72.333 46 -115v-20c0 -59.333 -30.333 -108 -91 -146c-22 -8.66699 -43 -13 -63 -13c-59.333 0 -105.333 33.667 -138 101
c-8.66699 22 -13 42 -13 60v18c0 65.333 32.667 115.666 98 150.999c19.333 7.33301 38.666 11 58 11zM2261 1337h2l47 -11h3c7.33301 0 16 3.66699 26 11l18 -36c-12 -12.667 -23.667 -19 -35 -19h-3l-54 10l-20 -7l-20 36c12 10.667 24 16 36 16zM716.002 1334h19
c78.667 0 121.667 -8.66699 129 -26c16.667 -17.333 25 -38 25 -62c-6.66699 -38 -16.667 -57 -30 -57v-6c31.333 -15.333 47 -37.333 47 -66v-18c0 -42 -23 -71.333 -69 -88l-54 -5h-67v328zM2550 1334h53v-217c4 -40.667 19 -61 45 -61c19.333 0 34 13 44 39l3 30v203l4 6
h45l5 -6v-171c0 -78.667 -13.333 -123 -40 -133c-16 -17.333 -37.333 -26 -64 -26c-36.667 0 -67 25.333 -91 76l-4 54v206zM2805 1334h59c2.66699 0 43.334 -79 122 -237h4v237h50l4 -6v-322h-58c-19.333 32 -61 111.333 -125 238h-3v-238h-53v328zM3101 1334h54v-328h-54
v328zM3859 1334l8 0.000976562c103.333 0 161.333 -13.333 174 -40c15.333 -7.33301 31 -32.333 47 -75l4 -36v-11l3 -2c0 -62.667 -27.333 -112.334 -82 -149.001c-23.333 -10 -56.333 -15 -99 -15h-55v328zM4141 1334h153v-60h-103v-75h101v-57h-101v-74l4 -5h99v-57h-157
v322zM3563 1175v-10c0 -50.667 26.333 -86.667 79 -108l19 -1c45.333 0 77.333 28.667 96 86l3 20v15c0 40.667 -20 72 -60 94c-8 5.33301 -21 9 -39 11c-44 0 -76 -27.667 -96 -83zM770.002 1274v-67h9c36 0 54 9.33301 54 28l3 14c-7.33301 16.667 -17 25 -29 25h-37z
M3912 1274v-206.001l2 -3v-2c69.333 0 110 25.333 122 76l2 15v29c0 22.667 -10.667 45.334 -32 68.001c-16.667 15.333 -42.667 23 -78 23h-16zM1041 1259h5c25.333 0 49 -13.333 71 -40v32h49v-245h-49v32c-24 -26.667 -50.667 -40 -80 -40c-50 0 -83.667 32.333 -101 97
l-5 36c0 59.333 28.333 101 85 125zM1314 1259h3c49.333 0 77 -34 83 -102v-151h-51v128c0 44.667 -14 67 -42 67h-10c-22.667 0 -35.667 -20.667 -39 -62v-133h-52v245h47v-21c18.667 19.333 39 29 61 29zM1543 1259h5c30 0 53.667 -13.333 71 -40v32h47v-219
c0 -63.333 -34.667 -105.333 -104 -126h-16c-49.333 0 -85.333 27.333 -108 82h59c17.333 -16.667 32 -25 44 -25h14c34.667 0 56 25.667 64 77c-22 -28 -47.333 -42 -76 -42c-40 0 -73.667 27 -101 81l-7 44v16c0 52.667 28.333 91.667 85 117zM1912 1259l2 0.000976562
c28.667 0 49 -12.333 61 -37h2c21.333 24.667 44.333 37 69 37h4c38 0 64.333 -18.333 79 -55c5.33301 -16.667 8 -31.667 8 -45v-153h-52v138c0 29.333 -7.66699 47.666 -23 54.999l-12 2h-15c-21.333 0 -33.333 -21.667 -36 -65v-130h-52v136c0 39.333 -14.333 59 -43 59
h-8c-21.333 0 -33.333 -19 -36 -57v-138h-54v245h50v-21h2c4 16 22 25.667 54 29zM2282 1259c31.333 0 56.333 -14 75 -42v34h47v-245h-47v32c-24 -26.667 -50 -40 -78 -40c-49.333 0 -83.333 30.667 -102 92l-6 41c0 60 28.333 101.667 85 125zM985.002 1117
c0 -32 20.333 -52.333 61 -61h4c30 0 50.667 15.333 62 46l3 15v22c-8 41.333 -27 62 -57 62h-14c-27.333 0 -47 -19 -59 -57v-27zM1487 1128c0 -32 14.332 -54.667 42.999 -68l18 -4h5c31.333 0 52.333 19 63 57v23c-7.33301 43.333 -26.666 65 -57.999 65h-12
c-33.333 0 -53 -24.333 -59 -73zM2225 1131v-14.001c10 -40.667 29 -61 57 -61h14c38.667 8 58 29.333 58 64v11c0 30 -12.333 51.667 -37 65l-18 5h-10c-42.667 -5.33301 -64 -28.666 -64 -69.999zM770.001 1150v-82c0 -3.33301 2.33301 -5 7 -5c51.333 0 77 15 77 45
c0 22.667 -15.667 36.667 -47 42h-37zM2966 752.999l24 -28l-51 -55c-12 8 -21 16.667 -27 26zM1524 726.999l85 -54c0 -10 -7 -24 -21 -42l-87 54c12 27.333 19.667 41.333 23 42zM2850 692.999h38l55 -60h-54l-21 26l-23 -26h-54c36 40 55.667 60 59 60zM3422 692.999h40
l56 -60h-54l-24 26h-1c0 -3.33301 -6.33301 -12 -19 -26h-54zM622.001 684.999l52 0.00195312c5.33301 -2.66699 21 -48.334 47 -137.001l34 -110c6 5.33301 17.333 38.666 34 99.999l48 147h54v-2l-112 -326h-44zM1159 685.001h51v-54h-51v54zM1354 685.001h46l6 -5v-323
h-52v328zM2317 685.001h45l4 -5v-78h31v-52h-31v-193h-53v193h-26v52h26v78zM2425 685.001h52v-98h2c15.333 15.333 33.333 23 54 23h3c38 0 65 -23.667 81 -71l3 -38v-144h-52v115c0 54 -13 81 -39 81h-10c-28 0 -42 -29 -42 -87v-109h-52v328zM2664 685.001h52v-54h-52v54
zM3028 685.001h44l6 -5v-78h29v-52h-29v-193h-54v193h-27v52h27v78zM3234 685.001h52v-328h-52v328zM3957 685.001h52v-328h-52v328zM4316 685.001h51v-54h-51v54zM1555 610.001h5c55.333 0 92 -34 110 -102l3 -23v-11c0 -55.333 -28.333 -95.333 -85 -120l-35 -5
c-50.667 0 -87.667 32.333 -111 97l-4 32c0 64.667 31 108 93 130zM1811 610.001h4c35.333 0 61.333 -20 78 -60c4.66699 -16.667 7 -43.667 7 -81v-112h-54v146c-4.66699 33.333 -17 50 -37 50h-10c-25.333 0 -39.333 -19 -42 -57v-139h-54v245h49v-21
c17.333 19.333 37 29 59 29zM2046 610.001h4.00098c30 0 51 -13 63 -39h3v31h49v-206c0 -68 -29.667 -113 -89 -135l-28 -3h-5c-48.667 0 -84 27 -106 81h52l37 -20l15 -3h14c33.333 0 53.666 24 60.999 72c-22 -26 -46.333 -39 -73 -39c-41.333 0 -74 25.333 -98 76
c-7.33301 15.333 -11.333 35.333 -12 60c0 56.667 28.667 97.667 86 123zM2866 610.001l2 -0.000976562c54.667 0 91.667 -34.667 111 -104l2 -25l-2 -27h-172c10 -30 25 -45 45 -45l14 -3c19.333 0 35.666 7.33301 49 22h57v-3c-23.333 -50.667 -59.333 -76 -108 -76
c-51.333 0 -88.333 32.333 -111 97l-1 28v8c0 32.667 10.667 62.334 32 89.001c22.667 26 50 39 82 39zM3429 610h5c27.333 0 50.666 -13 70 -39h2v31h47v-245h-47v31h-2c-23.333 -26 -49 -39 -77 -39c-47.333 0 -81 29.667 -101 89l-5 36v14c0 57.333 28 97.333 84 120z
M3711 610l7 -0.000976562c58.667 0 94.334 -42.667 107 -128l-2 -1v-15c0 -43.333 -22 -78.666 -66 -105.999c-14 -7.33301 -29.333 -11 -46 -11c-22.667 0 -44 10.667 -64 32v-99l-5 -5h-49v325h49v-28c20.667 24 43.667 36 69 36zM4151 609.999
c29.334 0 54.334 -13 75 -39v31h49v-245h-49v31c-23.334 -26 -49 -39 -77 -39c-61.333 0 -97.333 44 -108 132c0 56 24.333 96.333 73 121c10 5.33301 22.334 8 37 8zM922.002 601.999h50v-136c2 -40 16 -60 42 -60h5c29.333 0 44 29 44 87v109h52v-245h-47v24h-5
c0 -15.333 -18.667 -26 -56 -32h-3c-36.667 0 -64 22.667 -82 68c-2.66699 23.333 -4 56.333 -4 99v81zM1159 601.999h51v-245h-51v245zM2664 601.999h52v-245h-52v245zM4316 601.999h51v-245h-51v245zM1492 487.999v-15.999c8.66699 -44 28.334 -66 59.001 -66h4
c39.333 0 61.333 25.333 66 76c-8.66699 47.333 -28.334 71 -59.001 71h-11c-39.333 -10.667 -59 -32.334 -59 -65.001zM1987 472c10 -44 29.667 -66 59 -66h11c32 0 51.667 25 59 75v1c-8.66699 47.333 -28.334 71 -59 71h-14c-26 0 -44.667 -19 -56 -57v-24zM2805 506h122
v2c-10.667 30 -30.334 45 -59 45h-7c-23.333 0 -42 -15.667 -56 -47zM3373 474c8.66699 -45.333 29 -68 61 -68h5c34.667 0 56.334 21 65 63v12c-6.66699 48 -25.667 72 -57 72h-16c-37.333 -9.33301 -56 -30.333 -56 -63zM3642 478c8 -48 28.333 -72.001 61 -72.001h3
c33.333 0 55 20 65 60v22c0 28.667 -16.333 50.334 -49 65.001h-22c-31.333 0 -50.666 -24 -58 -72v-3zM4095 471.999c6.66602 -44 28.666 -66 66 -66c28.666 0 49 16 61 48l2 15v16c0 36 -17.334 58.667 -52 68h-18c-28 0 -47.666 -20 -59 -60v-21zM3416 320.999h51v-52
h-51v52zM4137 320.999h51v-52h-51v52zM2733 132.999h4c23.333 0 37.666 -16.667 43 -50v-2c0 -10.667 -8 -24.334 -24 -41.001l-10 -17h-28c0 16.667 9.33301 35.334 28 56.001l3 2v2c-2 12.667 -5 19 -9 19h-10c-5.33301 0 -8.33301 -6.33301 -9 -19h-30
c4 33.333 18 50 42 50zM1546 115.999l52 -60l-26 -19l-52 52zM352.002 78.999h4c50 -32 78.333 -52 85 -60l-20 -37c-58.667 32.667 -88 52 -88 58zM3490 78.999l86 -58l-18 -39c-6.66699 0 -37 18.333 -91 55c10 24 17.667 38 23 42zM4578 75.999l19 -42l-91 -52l-20 39
l92 58v-3zM1204 52.999h51v-19l5 -5h14v-36h-14l-5 -5v-279h-46v31c-22.667 -26.667 -49.667 -40 -81 -40c-48 0 -82 35 -102 105l-3 26c0 68 33.667 111.667 101 131h14c22 0 44 -11 66 -33v59l-6 5h-43v36h49v24zM1480 44.999h40l56 -61h-53l-23 27l-23 -27h-53z
M2641 44.999h33c8 0 29 -20.333 63 -61h-54l-23 27c-12.667 -14 -19 -23 -19 -27h-58v4zM49.002 36.999h160v-60h-56v-268h-50l-4 5v245l2 3v2l-2 2l2 3l-2 2l2 3l-2 3h-54v54zM699.002 36.999h47v-73l2 -2l-2 -3v-3l2 -2l-2 -3v-3l2 -2v-2l-2 -3l2 -3h3
c11.333 16 28.333 24 51 24h3c35.333 0 61 -19.333 77 -58c4.66699 -11.333 7 -25.333 7 -42v-153h-52v127c0 45.333 -13.333 68 -40 68h-8c-28.667 0 -43 -28.667 -43 -86v-109h-52v322zM1297 36.999h47l5 -6v-49h-52v55zM1987 36.999h52v-198l70 115h62l-78 -118l90 -125
v-2h-70c-6.66699 14.667 -31.334 53 -74 115v-115h-52v328zM2271 36.999v-98.999c16 16 33.667 24 53 24c38 0 64.667 -18.667 80 -56c6.66699 -12.667 10 -38.334 10 -77.001v-120h-54v133c0 41.333 -13.667 62 -41 62h-11c-20.667 0 -33 -18.333 -37 -55v-140h-53v314
l-1 3v3l1 2l-1 3l1 3h53zM2458 37h51v-55h-51v55zM3148 37h51v-108c18 22 40.667 33 68 33h3c50 0 85 -31.333 105 -94l5 -37c0 -50 -21.333 -90 -64 -120c-20 -7.33301 -36.333 -11 -49 -11c-27.333 0 -51.333 13.333 -72 40v-31h-47v328zM4275 37h52v-99h2
c15.334 16 33.334 24 54 24h3c40 0 67.334 -24.667 82 -74l2 -41v-138h-52v111c0 54.667 -10.666 82 -32 82l-10 2h-12c-24.666 0 -37 -26.667 -37 -80v-115h-52v328zM329.002 -38h3v-58h-5c-28 0 -42 -19 -42 -57v-138h-53v245h47v-21c12 19.333 28.667 29 50 29z
M564.002 -38c47.333 0 75.999 -29 85.999 -87v-166h-51v136c-4 39.333 -17.667 59 -41 59h-6c-30 0 -45 -28 -45 -84v-111h-52v245h50v-21c16.667 19.333 36.334 29 59.001 29zM1504 -38c48 0 83 -31.333 105 -94l5 -39c-1.33301 -16 -3.66602 -24 -6.99902 -24h-169
c11.333 -31.333 32 -47 62 -47c16 0 32 7 48 21h57c-22 -52.667 -58 -79 -108 -79c-54.667 0 -92.334 35 -113.001 105v37c0 54 29.667 93 89 117zM2657 -38h5c51.333 0 87 -32.333 107 -97l3 -26v-21l-3 -13h-170c12 -31.333 29.667 -47 53 -47h12c14 0 28 7 42 21h59
c-22.667 -52.667 -57.667 -79 -105 -79c-56 0 -94.333 34 -115 102l-2 29c0 62 30.333 104.667 91 128zM2915 -38h3.99902c36 0 62 -20 78 -60c4.66699 -16.667 7 -44 7 -82v-111h-54v138c0 32 -11.667 51 -35 57h-11c-25.333 0 -39.666 -19 -42.999 -57v-138h-54v245h50
v-21c16.667 19.333 36 29 58 29zM3508 -38h6c26.667 0 50 -13.333 70 -40h2v32h47v-245h-47v31h-2c-22.667 -26.667 -48.667 -40 -78 -40c-47.333 0 -81 30 -101 90l-4 37v12c0 54.667 25.667 93.667 77 117c7.33301 4 17.333 6 30 6zM3781 -38h4
c41.333 0 68.666 -26 82 -78l3 -84v-91h-54v138c0 32 -12.667 51 -38 57h-9c-25.333 0 -39.333 -17.333 -42 -52v-143h-54v245h49v-21c17.333 19.333 37 29 59 29zM4133 -38h1c49.334 0 84 -31 104 -93l4 -40c0 -58.667 -28 -100.667 -84 -126l-25 -3
c-27.333 0 -50 11.333 -68 34v-106h-52v326h47v-29c20 24.667 44.334 37 73 37zM4714 -38h5c22.666 0 43.666 -12.333 63 -37c18 24.667 41 37 69 37h6c37.334 0 63.667 -22 79 -66l6 -51v-136h-52v122c0 48.667 -13 73 -39 73h-7c-23.334 0 -37 -16.667 -41 -50v-140l-5 -5
h-48v140c0 28 -10.334 46.333 -31 55h-17c-26.666 0 -40 -25.667 -40 -77v-118h-51v245h47v-21c14.666 19.333 33.333 29 56 29zM359 -46h49l5 -6v-234l-5 -5h-49v245zM1297 -46h52v-245h-52v245zM1649 -46h52v-136c2.66699 -40 17 -60 43 -60h4c29.333 0 44 27 44 81v115
h52v-245h-47v24h-5c-8 -22 -27.667 -33 -59 -33c-34.667 0 -61 21 -79 63c-3.33301 8 -5 19.333 -5 34v157zM2458 -46h51v-245h-51v245zM4515 -46h51v-245h-51v245zM1077 -169c0 -35.333 16.999 -59.666 50.999 -72.999h12c36 0 58 22 66 66v10
c0 35.333 -18 58.666 -54 69.999h-17c-25.333 0 -44.666 -19 -57.999 -57v-16zM1438 -143h122.001c-12 31.333 -29.667 47 -53 47h-7c-28.667 0 -49.334 -14.667 -62.001 -44v-3zM2599 -143h122c-14 31.333 -32 47 -54 47h-7c-30.667 0 -51 -15.667 -61 -47zM3196 -158v-11
c6.66699 -48.667 27 -73 61 -73h5c42.667 5.33301 64 29 64 71v5c0 30 -12.667 51.667 -38 65l-18 5h-14c-40 -9.33301 -60 -30 -60 -62zM3452 -173c9.33301 -46 30 -69 62 -69h11c27.333 0 47 20 59 60v13c-5.33301 48.667 -24 73 -56 73h-17
c-31.333 0 -51 -24.333 -59 -73v-4zM4062 -158v-22c0 -31.333 19.667 -52 59 -62h9c33.334 0 53.667 25.333 61 76c-8.66602 46.667 -28 70 -58 70h-15c-37.333 -11.333 -56 -32 -56 -62z" />
    <glyph glyph-name="space" unicode=" " horiz-adv-x="508" 
 />
    <glyph glyph-name="exclam" unicode="!" horiz-adv-x="621" 
d="M486 342h-351v1125h351v-1125zM486 -26h-349v309h349v-309z" />
    <glyph glyph-name="quotedbl" unicode="&#x22;" horiz-adv-x="658" 
d="M606 834h-237v600h237v-600zM291 834h-238v600h238v-600z" />
    <glyph glyph-name="numbersign" unicode="#" horiz-adv-x="1528" 
d="M1522 1052l-92 -247l-270 1l-64 -187h283l-89 -248h-282l-143 -408h-271l144 408h-181l-145 -408h-268l141 408h-279l93 248h274l63 186h-288l90 247h289l143 408h269l-142 -408h180l144 408h270l-143 -408h274zM894 805h-187l-68 -188h189z" />
    <glyph glyph-name="dollar" unicode="$" horiz-adv-x="1493" 
d="M1436 430c0 -154 -43.001 -268.666 -129.001 -343.999c-87.333 -74.667 -219.666 -112 -396.999 -112h-91v-142h-163v142h-541v307h541v274h-125c-158 0 -276 37.667 -354 113c-79.333 73.333 -119 184.666 -119 333.999c0 160.667 42.333 278.667 127 354
s217 113 397 113h74v131h163v-131h533v-312h-533v-295h136c173.333 0 297 -33.333 371 -100c73.333 -68 110 -178.667 110 -332zM655.999 862.001v294.999h-43c-70 0 -121.333 -13.667 -154 -41c-34 -27.333 -51 -64.666 -51 -111.999c0 -45.333 14.333 -80.333 43 -105
c27.333 -24.667 67 -37 119 -37h86zM1084 428c0 45.333 -13.002 78.332 -39.002 98.999c-27.333 18.667 -76.666 28 -147.999 28h-78v-274h58c74.667 0 127.834 12.333 159.501 37s47.5 61.334 47.5 110.001z" />
    <glyph glyph-name="percent" unicode="%" horiz-adv-x="1829" 
d="M1817 379c0 -140.667 -32.667 -245 -98 -313c-67.333 -70 -170 -105 -308 -105c-133.333 0 -233.833 34.833 -301.5 104.5s-101.5 174.167 -101.5 313.5c0 142 33.333 247.333 100 316c67.333 68 168.333 102 303 102c139.333 0 242 -34 308 -102
c65.333 -70 98 -175.333 98 -316zM1299 1465l-574 -1494h-211l576 1494h209zM826 1053c0 -143.333 -33.667 -249.333 -101 -318c-66.667 -67.333 -170.334 -101 -311.001 -101c-134 0 -233 34.667 -297 104c-65.333 68 -98 173 -98 315s32.667 247 98 315
c64 68.667 165 103 303 103c136.667 0 238.334 -34.333 305.001 -103c67.333 -68 101 -173 101 -315zM1561 379c0 72.667 -13.001 124.668 -39.001 156.001c-23.333 31.333 -59.666 47 -108.999 47c-47.333 0 -83.333 -15.667 -108 -47c-26 -32.667 -39 -84.667 -39 -156
c0 -66.667 13 -117.667 39 -153c24.667 -30.667 60.667 -46 108 -46c48 0 85 16 111 48c24.667 31.333 37 81.666 37 150.999zM567.999 1053c0 68 -12.333 119.334 -37 154.001c-24.667 32.667 -61 49 -109 49c-46 0 -82 -15.667 -108 -47c-26 -33.333 -39 -85.333 -39 -156
c0 -68 13 -120 39 -156c21.333 -30 57.333 -45 108 -45c46.667 0 83 15.667 109 47c24.667 31.333 37 82.666 37 153.999z" />
    <glyph glyph-name="ampersand" unicode="&#x26;" horiz-adv-x="1600" 
d="M1565 565l-180.005 -0.00195312c-26 -106.667 -59.833 -197.5 -101.5 -272.5s-92.5 -137.833 -152.5 -188.5c-61.333 -51.333 -133.666 -90.333 -216.999 -117s-177.666 -40 -282.999 -40c-166.667 0 -298.334 37 -395.001 111c-98.667 73.333 -148 176.333 -148 309
c0 80.667 16.333 149.667 49 207c24.667 46 64.334 89.667 119.001 131c-27.333 22 -50.333 43 -69 63c-19.333 20.667 -36.666 45.334 -51.999 74.001c-32.667 64 -49 136.333 -49 217c0 128.667 40.333 228.834 121 300.501s192 107.5 334 107.5h508v-319l-432 -1
c-61.333 0 -107.666 -13 -138.999 -39c-31.333 -23.333 -47 -55.333 -47 -96c0 -48 12.667 -84.333 38 -109c26 -26 64.333 -39 115 -39h125v-299h-120c-44 0 -79 -12 -105 -36c-26 -26 -39 -61.667 -39 -107c0 -53.333 18.333 -94.333 55 -123
c35.333 -28.667 84.333 -43 147 -43c102.667 0 183.334 27.333 242.001 82c58.667 53.333 101 129 127 227h-192v299h741v-299z" />
    <glyph glyph-name="quotesingle" unicode="'" horiz-adv-x="342" 
d="M291 834h-238v600h238v-600z" />
    <glyph glyph-name="parenleft" unicode="(" horiz-adv-x="690" 
d="M664 -283l-249.998 0.00195312c-106.667 147.333 -187.334 295.666 -242.001 444.999c-56 148.667 -84 292 -84 430s26.667 280 80 426c28.667 78 62.334 152.333 101.001 223c38 71.333 86.333 146.666 145 225.999h246c-50.667 -82 -92.334 -159.333 -125.001 -232
c-32.667 -72 -58.667 -140.5 -78 -205.5s-34 -135.833 -44 -212.5c-9.33301 -76 -14 -151 -14 -225c0 -82 4.66699 -156.333 14 -223c8.66699 -68.667 23 -139 43 -211c21.333 -72.667 47.666 -142.334 78.999 -209.001c30 -67.333 73 -144.666 129 -231.999z" />
    <glyph glyph-name="parenright" unicode=")" horiz-adv-x="690" 
d="M602 592c0 -138 -26.668 -280.668 -80.001 -428.001c-30 -78 -64 -152.167 -102 -222.5s-85.667 -145.166 -143 -224.499h-246c50.667 82 92.334 158.667 125.001 230c31.333 70.667 57.333 141.667 78 213c39.333 131.333 59 275.333 59 432
c0 157.333 -19.667 301.333 -59 432c-19.333 68.667 -45.333 139 -78 211c-32.667 72.667 -73.667 150 -123 232h244c53.333 -74 101 -150 143 -228c38 -70.667 71.333 -143.667 100 -219c28.667 -76.667 50 -149.667 64 -219c12 -69.333 18 -139 18 -209z" />
    <glyph glyph-name="asterisk" unicode="*" horiz-adv-x="994" 
d="M883 981l-109 -186l-168 96v-199h-217v201l-168 -98l-108 186l168 99l-168 98l108 190l168 -100v199h217v-197l168 98l107 -190l-168 -98z" />
    <glyph glyph-name="plus" unicode="+" horiz-adv-x="1655" 
d="M1436 475h-483v-502h-248v502h-484v246h484v500h248v-500h483v-246z" />
    <glyph glyph-name="comma" unicode="," horiz-adv-x="393" 
d="M342 70c0 -60 -11.667 -111.333 -35 -154c-16 -42 -63.667 -94.667 -143 -158v216h-111v303h289v-207z" />
    <glyph glyph-name="hyphen" unicode="-" horiz-adv-x="768" 
d="M744 391h-719v301h719v-301z" />
    <glyph glyph-name="hyphen" unicode="&#x2010;" horiz-adv-x="768" 
d="M744 391h-719v301h719v-301z" />
    <glyph glyph-name="period" unicode="." horiz-adv-x="393" 
d="M342 -26h-289v303h289v-303z" />
    <glyph glyph-name="slash" unicode="/" horiz-adv-x="832" 
d="M879 1483l-725 -1694h-201l723 1694h203z" />
    <glyph glyph-name="zero" unicode="0" 
d="M1508 719c0 -255.333 -60.998 -446.333 -182.998 -573c-122.667 -128.667 -308.334 -193 -557.001 -193c-248 0 -433 62.333 -555 187c-121.333 124 -182 317 -182 579c0 259.333 60 452 180 578c120 124 305.667 186 557 186s437.666 -62.667 558.999 -188
c120.667 -127.333 181 -319.333 181 -576zM1139 719c0 166.667 -30.668 288.334 -92.001 365.001c-61.333 74.667 -154.333 112 -279 112c-126.667 0 -219.334 -37.333 -278.001 -112c-60 -75.333 -90 -197 -90 -365c0 -84.667 6.83301 -156.334 20.5 -215.001
s36.834 -107.667 69.501 -147c58.667 -76 151.334 -114 278.001 -114c124.667 0 217.667 38.667 279 116c61.333 76 92 196 92 360z" />
    <glyph glyph-name="one" unicode="1" horiz-adv-x="525" 
d="M447 -27h-365v1494h365v-1494z" />
    <glyph glyph-name="two" unicode="2" horiz-adv-x="1354" 
d="M1336 1018c0 -144.667 -39.6631 -255.336 -118.996 -332.003c-79.333 -76 -191.333 -114 -336 -114h-270c-79.333 0 -133.333 -13 -162 -39c-30 -27.333 -45 -74.666 -45 -141.999v-118h926l-1 -299h-1298v458c0 161.333 39.667 276 119 344
c77.333 68.667 209.666 103 396.999 103h193c81.333 0 137.333 11.667 168 35c28.667 21.333 43 57.333 43 108c0 52 -13.667 89.667 -41 113c-28.667 22 -85.334 33 -170.001 33h-709v299h840c69.333 0 123.666 -4 162.999 -12
c41.333 -5.33301 77.666 -18.666 108.999 -39.999c64 -36.667 112.333 -87.667 145 -153c32 -67.333 48 -148.666 48 -243.999z" />
    <glyph glyph-name="three" unicode="3" horiz-adv-x="1256" 
d="M1211 383c0 -128 -41.002 -228.332 -123.002 -300.999c-83.333 -72 -198.666 -108 -345.999 -108h-740v299h613c72 0 124.333 12 157 36c32.667 24.667 49 63 49 115c0 48 -15.667 85.667 -47 113c-32.667 26 -85.667 39 -159 39l-500 -2v299h491
c74 0 127.333 11.667 160 35c31.333 22.667 47 60 47 112c0 49.333 -15.667 86.333 -47 111c-16 13.333 -37 23 -63 29c-27.333 5.33301 -59.666 8 -96.999 8h-604v299h709c164 0 288.333 -33 373 -99c83.333 -66.667 125 -170.334 125 -311.001
c0 -70.667 -15.667 -133.334 -47 -188.001c-32.667 -54.667 -75 -102.667 -127 -144c57.333 -35.333 99 -77.666 125 -126.999c34 -57.333 51 -129 51 -215z" />
    <glyph glyph-name="four" unicode="4" 
d="M1501 236h-194v-263h-350v263h-920v319l850 914h420v-934h194v-299zM957 535v536l-498 -536h498z" />
    <glyph glyph-name="five" unicode="5" horiz-adv-x="1362" 
d="M1350 426c0 -146 -45.667 -257.999 -137 -335.999c-92 -77.333 -221.667 -116 -389 -116h-785v299h717c70.667 0 120.334 12 149.001 36c27.333 23.333 41 62.333 41 117c0 56 -13.667 96.333 -41 121c-28.667 23.333 -78.334 35 -149.001 35h-717v885h1238l-1 -299h-870
v-289h485c140.667 0 253.334 -39 338.001 -117c39.333 -40.667 69.666 -88.334 90.999 -143.001c20 -56 30 -120.333 30 -193z" />
    <glyph glyph-name="six" unicode="6" horiz-adv-x="1444" 
d="M1434 432c0 -156.667 -56.667 -275.332 -170 -355.999s-276.666 -121 -489.999 -121c-252 0 -438.333 60.667 -559 182c-120 120.667 -180 310 -180 568c0 260.667 64.333 453 193 577c126.667 123.333 324.334 185 593.001 185h536l-1 -299h-543
c-134.667 0 -232.334 -26 -293.001 -78c-28.667 -24.667 -50.334 -56 -65.001 -94c-16.667 -40 -25 -86 -25 -138h484c174.667 0 305 -34.833 391 -104.5s129 -176.834 129 -321.501zM1047 416.002c0 48 -12.332 84.334 -36.999 109.001
c-24.667 22.667 -62.334 34 -113.001 34h-465c0 -102 28.667 -179 86 -231c56 -53.333 145.667 -80 269 -80c94 0 160.667 13.667 200 41c40 27.333 60 69.666 60 126.999z" />
    <glyph glyph-name="seven" unicode="7" horiz-adv-x="1262" 
d="M1290 1467l-4 -278l-866 -1216h-445l887 1195h-887v299h1315z" />
    <glyph glyph-name="eight" unicode="8" horiz-adv-x="1465" 
d="M1434 383c0 -128 -40.999 -228.333 -122.999 -301c-40.667 -36.667 -88.334 -63.834 -143.001 -81.501s-121.667 -26.5 -201 -26.5h-471c-147.333 0 -262 36 -344 108c-84 72.667 -126 173.667 -126 303c0 46.667 4.33301 88.334 13 125.001
c8 35.333 21.667 68.333 41 99c32.667 47.333 76.334 86.666 131.001 117.999c-53.333 42.667 -93 88.667 -119 138c-32.667 61.333 -49 128.666 -49 201.999c0 134 40.333 235 121 303c83.333 64.667 207.666 97 372.999 97h385c83.333 0 155.666 -8 216.999 -24
c60 -17.333 111.333 -41.666 154 -72.999c83.333 -65.333 125 -165 125 -299c0 -73.333 -17.667 -142 -53 -206c-27.333 -52 -65.666 -98 -114.999 -138c53.333 -28.667 97 -68 131 -118c35.333 -59.333 53 -134.666 53 -225.999zM1047 1020
c0 52 -15.667 89.666 -47 112.999c-32.667 23.333 -86 35 -160 35h-215c-79.333 0 -134 -12.333 -164 -37c-28.667 -20.667 -43 -57.667 -43 -111c0 -49.333 15 -86 45 -110c16.667 -14 38.667 -23.667 66 -29c26 -5.33301 58 -8 96 -8h215c36.667 0 68.667 2.66699 96 8
c26 5.33301 47.333 15 64 29c31.333 22.667 47 59.334 47 110.001zM1049 423.999c0 48 -15.667 85.666 -47 112.999c-32.667 26 -86.667 39 -162 39l-219 -2c-74 0 -126.667 -11.667 -158 -35s-47 -61.666 -47 -114.999c0 -54.667 16.333 -93.667 49 -117
c31.333 -22.667 83.333 -34 156 -34h219c74 0 127.333 12 160 36c32.667 24.667 49 63 49 115z" />
    <glyph glyph-name="nine" unicode="9" horiz-adv-x="1444" 
d="M1409 735c0 -259.333 -63.332 -451 -189.999 -575c-128.667 -124 -327.334 -186 -596.001 -186h-535v299h543c126.667 0 221 26.667 283 80c53.333 50.667 85.333 127 96 229h-481c-87.333 0 -163.5 8.83301 -228.5 26.5s-118.5 43.5 -160.5 77.5
c-44 34.667 -76.333 78.334 -97 131.001c-22 53.333 -33 117 -33 191c0 159.333 56 278.666 168 357.999c110.667 78 274 117 490 117c255.333 0 443 -61.333 563 -184c118.667 -123.333 178 -311.333 178 -564zM1012 879c0 54.667 -7.66504 101.333 -22.998 140
c-14.667 36.667 -36.334 68 -65.001 94c-52 50 -146.333 75 -283 75c-88.667 0 -152.667 -13.667 -192 -41c-34 -23.333 -51 -64.333 -51 -123c0 -48.667 11.333 -84.667 34 -108c23.333 -24.667 61.666 -37 114.999 -37h465z" />
    <glyph glyph-name="colon" unicode=":" horiz-adv-x="422" 
d="M355 512h-289v301h289v-301zM355 -26h-289v303h289v-303z" />
    <glyph glyph-name="semicolon" unicode=";" horiz-adv-x="422" 
d="M355 512h-289v301h289v-301zM355 70c0 -56.667 -11.667 -107.999 -35 -153.999c-11.333 -24.667 -27.833 -49.334 -49.5 -74.001s-53.167 -52.667 -94.5 -84v216h-110v303h289v-207z" />
    <glyph glyph-name="less" unicode="&#x3c;" horiz-adv-x="1655" 
d="M1426 -13l-1194 497v231l1194 494v-273l-823 -338l823 -338v-273z" />
    <glyph glyph-name="equal" unicode="=" horiz-adv-x="1655" 
d="M1436 686h-1215v246h1215v-246zM1436 264h-1215v246h1215v-246z" />
    <glyph glyph-name="greater" unicode="&#x3e;" horiz-adv-x="1655" 
d="M1426 484l-1194 -497v273l823 338l-823 338v273l1194 -494v-231z" />
    <glyph glyph-name="question" unicode="?" horiz-adv-x="1377" 
d="M1346 1016c0 -143.333 -39.667 -253.333 -119 -330c-79.333 -76 -192 -114 -338 -114l-252 -2c-79.333 0 -134 -12.333 -164 -37c-27.333 -27.333 -41 -74.666 -41 -141.999v-63h-376v102c0 157.333 41.333 271.333 124 342c41.333 34.667 95.333 61.667 162 81
c66 17.333 143.333 26 232 26h174c83.333 0 139.333 11 168 33c27.333 20 41 56 41 108c0 53.333 -14.333 91.666 -43 114.999c-30 23.333 -85.333 35 -166 35l-723 -2v299h788c102.667 0 175.667 -4 219 -12c49.333 -6 89.666 -19.333 120.999 -40
c64.667 -35.333 113.334 -87 146.001 -155c31.333 -68.667 47 -150 47 -244zM432 -26h-375v307h375v-307z" />
    <glyph glyph-name="at" unicode="@" horiz-adv-x="1987" 
d="M1927 750c0 -112 -22.501 -215.17 -67.501 -309.503s-107.833 -175.5 -188.5 -243.5c-21.333 -18 -44.333 -33.667 -69 -47c-26 -15.333 -55.333 -29.666 -88 -42.999c-28.667 -8.66699 -57.334 -15.667 -86.001 -21c-30 -5.33301 -58.667 -8 -86 -8
c-72.667 0 -130 15.667 -172 47c-24.667 20 -42 46 -52 78c-28.667 -34.667 -60.667 -61.334 -96 -80.001c-54.667 -28.667 -114 -43 -178 -43c-110.667 0 -194.667 30.667 -252 92s-86 151 -86 269c0 159.333 46.833 295 140.5 407s211.5 168 353.5 168
c57.333 0 106.333 -11.333 147 -34c28.667 -15.333 55.334 -38.666 80.001 -69.999l37 71h221l-149 -616l-7 -17v-16c0 -14.667 5 -25.667 15 -33c8 -8 25.667 -12 53 -12c19.333 0 41.333 6 66 18c24 12.667 47 30 69 52c27.333 26 51.333 53.333 72 82
c19.333 27.333 35.666 58 48.999 92c28.667 65.333 43 139 43 221c0 148.667 -56.667 271 -170 367c-114.667 95.333 -264.334 143 -449.001 143c-50 0 -93.833 -2 -131.5 -6s-76.834 -12 -117.501 -24c-71.333 -19.333 -139.666 -51.666 -204.999 -96.999
c-108 -74 -190 -164 -246 -270c-56 -108 -84 -226.333 -84 -355c0 -190.667 65 -344.334 195 -461.001c128 -117.333 300 -176 516 -176c100.667 0 200.334 16.333 299.001 49c53.333 18 101 37 143 57c49.333 25.333 100 57 152 95l105 -160
c-53.333 -41.333 -108.666 -77.666 -165.999 -108.999c-59.333 -31.333 -117.666 -57.333 -174.999 -78c-117.333 -37.333 -235.333 -56 -354 -56c-124.667 0 -242 15.667 -352 47c-53.333 17.333 -103.333 37.666 -150 60.999c-48 22.667 -93 50.667 -135 84
c-49.333 38 -93 81 -131 129c-40 48 -73.333 100 -100 156c-52 106 -78 226 -78 360c0 108 18.333 215.333 55 322c36 104.667 86.667 196.667 152 276c102 124.667 220 216.334 354 275.001c68 31.333 140.333 54.5 217 69.5s158 22.5 244 22.5c116 0 221 -14.333 315 -43
c53.333 -17.333 100.333 -36.666 141 -57.999c41.333 -20 80.333 -44.333 117 -73c94 -72.667 161 -154 201 -244c46 -92.667 69 -195 69 -307zM1155 687.997c-8 42.667 -24.3311 76.333 -48.998 101s-56.667 37 -96 37c-62.667 0 -119.334 -37.667 -170.001 -113
s-76 -168.333 -76 -279c0 -54 10.333 -93.333 31 -118c20.667 -26.667 52.667 -40 96 -40c45.333 0 89 20 131 60c41.333 38 68.666 85.667 81.999 143z" />
    <glyph glyph-name="A" unicode="A" horiz-adv-x="1436" 
d="M1524 -27h-393l-131 343h-584l-127 -343h-377l625 1494h356zM881 625l-178 455l-170 -455h348z" />
    <glyph glyph-name="B" unicode="B" horiz-adv-x="1499" 
d="M1436 393c0 -142 -41.6631 -248.336 -124.996 -319.003c-40.667 -31.333 -92.834 -55.833 -156.501 -73.5s-137.834 -26.5 -222.501 -26.5h-809v1493h758c90 0 166.333 -5.33301 229 -16c31.333 -5.33301 60 -12.333 86 -21c24.667 -8.66699 46 -19.667 64 -33
c56 -35.333 99 -81.666 129 -138.999s45 -121.666 45 -192.999c0 -83.333 -19 -155.666 -57 -216.999c-16.667 -24.667 -35.334 -47.167 -56.001 -67.5s-45.334 -39.5 -74.001 -57.5c57.333 -31.333 101.333 -69.333 132 -114c38 -56 57 -128 57 -216zM1059 1016
c0 48 -13 83.667 -39 107c-26 21.333 -70.333 32 -133 32h-414v-280h414c61.333 0 104.333 11.667 129 35c28.667 22.667 43 58 43 106zM1061 423.997c0 49.333 -13 86.333 -39 111c-26 22 -69.667 33 -131 33h-418v-287h418c61.333 0 105 11.5 131 34.5s39 59.167 39 108.5
z" />
    <glyph glyph-name="C" unicode="C" horiz-adv-x="1301" 
d="M1256 -26h-535.001c-113.333 0 -202.666 9.66699 -267.999 29c-66.667 18.667 -131 53.334 -193 104.001c-76 64 -132.667 144.333 -170 241c-38 97.333 -57 213 -57 347c0 262 56.667 456.333 170 583c112 126 287.333 189 526 189h527v-299h-521
c-60 0 -109.667 -8 -149 -24c-39.333 -18.667 -72 -46.334 -98 -83.001c-50.667 -73.333 -76 -199.666 -76 -378.999c0 -152.667 24 -258.334 72 -317.001c46 -58.667 129.667 -88 251 -88h521v-303z" />
    <glyph glyph-name="D" unicode="D" horiz-adv-x="1532" 
d="M1499 695c0 -67.333 -4.00195 -129 -12.002 -185c-9.33301 -56 -24.333 -110.667 -45 -164c-39.333 -100.667 -96.666 -180.334 -171.999 -239.001c-58.667 -45.333 -122 -79.333 -190 -102c-71.333 -20.667 -161.666 -31 -270.999 -31h-686v1493h678
c236 0 411.333 -63 526 -189c114.667 -125.333 172 -319.666 172 -582.999zM1120 721c0 168 -22.333 283.999 -67 347.999c-46.667 63.333 -132.667 95 -258 95h-322v-887h322c124 0 209.167 31.333 255.5 94s69.5 179.334 69.5 350.001z" />
    <glyph glyph-name="E" unicode="E" horiz-adv-x="1342" 
d="M1256 -26l-535.002 -0.000976562c-113.333 0 -202.666 9.66699 -267.999 29c-66.667 18.667 -131 53.334 -193 104.001c-76 64 -132.667 144.333 -170 241c-38 97.333 -57 213 -57 347c0 262 56.667 456.333 170 583c112 126 287.333 189 526 189h527v-303h-521
c-99.333 0 -173.666 -24 -222.999 -72c-50.667 -48.667 -80 -119 -88 -211l832 -2v-301h-834c0 -50 6.33301 -94.333 19 -133c10.667 -38 27.667 -68.667 51 -92c48.667 -50.667 129.667 -76 243 -76h521v-303z" />
    <glyph glyph-name="F" unicode="F" horiz-adv-x="1348" 
d="M1321 563h-858v-590h-351v689c0 188 11.333 325.667 34 413c20 86 59.333 160 118 222c32 30 65.667 54.833 101 74.5s76.833 37.167 124.5 52.5s99.5 26.333 155.5 33c54.667 6.66699 119 10 193 10h483v-303h-508c-120 0 -208 -25 -264 -75
c-57.333 -48.667 -86 -123.667 -86 -225h858v-301z" />
    <glyph glyph-name="G" unicode="G" horiz-adv-x="1475" 
d="M1401 -26l-672 -0.000976562c-60 0 -113 2.66699 -159 8c-48 5.33301 -89 13 -123 23c-64.667 21.333 -127 55.333 -187 102c-76 64 -132.667 144.333 -170 241c-38 97.333 -57 213 -57 347c0 262 57.333 456.333 172 583c113.333 126 288 189 524 189h672v-299h-672
c-106 0 -184.333 -35.167 -235 -105.5s-76 -188.166 -76 -353.499c0 -150 24.5 -258.167 73.5 -324.5s128.167 -99.5 237.5 -99.5h313v289h-401v305h760v-905z" />
    <glyph glyph-name="H" unicode="H" horiz-adv-x="1444" 
d="M1323 -27h-350v603h-500v-603h-350v1494h350v-586h500v586h350v-1494z" />
    <glyph glyph-name="I" unicode="I" horiz-adv-x="613" 
d="M490 -27h-365v1494h365v-1494z" />
    <glyph glyph-name="J" unicode="J" horiz-adv-x="1110" 
d="M1010 584c0 -106.667 -10.667 -195.334 -32 -266.001c-24 -72.667 -58.333 -133.667 -103 -183c-49.333 -57.333 -111 -99.333 -185 -126c-34 -11.333 -77 -19.666 -129 -24.999c-52.667 -6.66699 -111.334 -10 -176.001 -10h-418v290h377
c118.667 0 199.334 25.333 242.001 76c40.667 49.333 61 153.333 61 312v815h363v-883z" />
    <glyph glyph-name="K" unicode="K" horiz-adv-x="1333" 
d="M1428 -27h-449l-506 666v-666h-350v1494h350v-643l523 643h426l-592 -729z" />
    <glyph glyph-name="L" unicode="L" horiz-adv-x="1106" 
d="M1118 -26h-405c-134 0 -235.833 12.167 -305.5 36.5s-130.167 65.833 -181.5 124.5c-26 28.667 -47.333 56.667 -64 84c-16.667 26 -31 57 -43 93c-20.667 65.333 -31 156 -31 272v883h353v-873c0 -35.333 0.666992 -68 2 -98c0 -31.333 2 -56 6 -74
c9.33301 -31.333 20.333 -54.333 33 -69c12 -16.667 24.667 -29.667 38 -39c14 -11.333 32.667 -21 56 -29c43.333 -14 98 -21 164 -21h378v-290z" />
    <glyph glyph-name="M" unicode="M" horiz-adv-x="1901" 
d="M1780 -27h-344l21 980l-320 -980h-354l-330 994l24 -994h-354v1494h483l347 -1049l344 1049h483v-1494z" />
    <glyph glyph-name="N" unicode="N" horiz-adv-x="1544" 
d="M1430 -27h-389l-574 1018l12 -1018h-356v1494h420l541 -963l-12 963h358v-1494z" />
    <glyph glyph-name="O" unicode="O" 
d="M1506 721c0 -260.667 -61 -455.333 -183 -584c-121.333 -129.333 -306.333 -194 -555 -194c-254 0 -440.333 64.5 -559 193.5s-178 328.5 -178 598.5c0 255.333 60.667 446 182 572c120 124 305 186 555 186s435.667 -63.333 557 -190
c120.667 -128.667 181 -322.667 181 -582zM1129 721.001c0 164 -29.333 285 -88 363c-58.667 76 -149.667 114 -273 114c-120 0 -210 -37.333 -270 -112c-30 -40 -52.5 -88.667 -67.5 -146s-22.5 -126.333 -22.5 -207c0 -170.667 29.333 -294.667 88 -372
c57.333 -78 148 -117 272 -117c120 0 210.333 39 271 117c60 76 90 196 90 360z" />
    <glyph glyph-name="P" unicode="P" horiz-adv-x="1475" 
d="M1440 971c0 -90 -14.332 -167.001 -42.999 -231.001c-32.667 -70 -75.834 -124.167 -129.501 -162.5s-111.5 -64.166 -173.5 -77.499c-36.667 -6.66699 -76.667 -12 -120 -16c-45.333 -4.66699 -99.333 -7 -162 -7h-339v-504h-350v1494h676c112 0 200.667 -6 266 -18
c38.667 -7.33301 70.667 -15 96 -23c26 -10 49.333 -21.667 70 -35c68 -45.333 119.833 -103.5 155.5 -174.5s53.5 -152.833 53.5 -245.5zM1057 970.999c0 66.667 -18.333 114.333 -55 143c-38.667 28.667 -107.667 43 -207 43h-322v-372h340
c42.667 0 79.667 3.33301 111 10c30 6.66699 55.333 19 76 37c38 30 57 76.333 57 139z" />
    <glyph glyph-name="Q" unicode="Q" 
d="M1635 -26l-432.999 0.000976562l-45 45c-50 -26 -106 -44 -168 -54c-62.667 -13.333 -136.334 -20 -221.001 -20c-252.667 0 -438.334 63.333 -557.001 190c-120 126 -180 321.333 -180 586c0 263.333 60 458 180 584c118.667 125.333 304.334 188 557.001 188
c250 0 435.667 -63.333 557 -190c120.667 -128.667 181 -322.667 181 -582c0 -104 -9.66699 -198 -29 -282c-20 -86.667 -49.333 -159.334 -88 -218.001zM1129 721.001c0 164 -29.334 285 -88.001 363c-58.667 76 -149.667 114 -273 114c-120 0 -210 -38.833 -270 -116.5
s-90 -197.834 -90 -360.501c0 -165.333 29.333 -286.166 88 -362.499s149.334 -114.5 272.001 -114.5c120 0 210.333 39 271 117c60 76 90 196 90 360z" />
    <glyph glyph-name="R" unicode="R" horiz-adv-x="1491" 
d="M1497 -27l-397 0.000976562l-313 565h-314v-565h-350v1494h764c181.333 0 312.333 -37.667 393 -113c86 -74 129 -189.333 129 -346c0 -116 -26 -211 -78 -285c-46 -66.667 -111.333 -112.334 -196 -137.001zM1057 1004c0 56 -15.667 95.667 -47 119
c-35.333 22.667 -100.333 34 -195 34h-342v-311h342c92 0 156.333 12.333 193 37c32.667 24.667 49 65 49 121z" />
    <glyph glyph-name="S" unicode="S" horiz-adv-x="1499" 
d="M1448 430c0 -155.333 -42.999 -270.167 -128.999 -344.5s-217.667 -111.5 -395 -111.5h-823v307h776c38 0 71.333 3 100 9c27.333 4.66699 48.666 13.334 63.999 26.001c29.333 21.333 44 56 44 104c0 49.333 -13.667 86.333 -41 111c-14.667 10.667 -33 18 -55 22
c-23.333 4 -54 6 -92 6h-355c-166 0 -292 35.667 -378 107c-80.667 72 -121 183.333 -121 334c0 159.333 43 277.333 129 354c84.667 75.333 216.667 113 396 113h813v-309l-768 -1c-76.667 0 -130 -13 -160 -39c-30 -22.667 -45 -63.334 -45 -122.001
c0 -41.333 12.333 -73.666 37 -96.999c30 -22.667 71.667 -34 125 -34h397c173.333 0 296.833 -33.833 370.5 -101.5s110.5 -178.834 110.5 -333.501z" />
    <glyph glyph-name="T" unicode="T" horiz-adv-x="1231" 
d="M1260 1161h-465v-1188h-360l-1 1188h-461v304h1287v-304z" />
    <glyph glyph-name="U" unicode="U" horiz-adv-x="1526" 
d="M1409 570c0 -50.667 -1.99902 -95.499 -5.99902 -134.499s-9.33301 -76.833 -16 -113.5c-14 -68.667 -37.333 -120.667 -70 -156c-58.667 -70.667 -133 -122.834 -223 -156.501s-200.667 -50.5 -332 -50.5s-241.333 16.333 -330 49c-90 33.333 -166.333 86 -229 158
c-30 41.333 -51 92 -63 152c-14 60 -21 144 -21 252v897h348v-889c0 -126 21.333 -214 64 -264c44.667 -48.667 121.667 -73 231 -73s186.666 24.333 231.999 73c43.333 50 65 138 65 264v889h350v-897z" />
    <glyph glyph-name="V" unicode="V" horiz-adv-x="1393" 
d="M1503 1467l-616 -1494h-346l-642 1494h396l410 -1028l422 1028h376z" />
    <glyph glyph-name="W" unicode="W" horiz-adv-x="2198" 
d="M2241 1467l-459 -1494h-403l-285 1004l-248 -1004h-403l-492 1494h377l307 -1037l260 1037h393l301 -1039l287 1039h365z" />
    <glyph glyph-name="X" unicode="X" horiz-adv-x="1282" 
d="M1350 -27h-419l-288 480l-303 -480h-420l519 748l-501 746h417l276 -433l277 433h408l-474 -725z" />
    <glyph glyph-name="Y" unicode="Y" horiz-adv-x="1233" 
d="M1360 1467l-571 -836v-658h-350v656l-568 838h402l338 -529l340 529h409z" />
    <glyph glyph-name="Z" unicode="Z" horiz-adv-x="1458" 
d="M1344 -26h-1256v292l785 891h-785v310h1256v-289l-776 -897h776v-307z" />
    <glyph glyph-name="bracketleft" unicode="[" horiz-adv-x="690" 
d="M666 -282h-537v1748h537v-276h-246v-1198h246v-274z" />
    <glyph glyph-name="backslash" unicode="\" horiz-adv-x="832" 
d="M881 -211h-202l-726 1694h205z" />
    <glyph glyph-name="bracketright" unicode="]" horiz-adv-x="690" 
d="M563 -282h-538v274h250v1198h-250v276h538v-1748z" />
    <glyph glyph-name="asciicircum" unicode="^" horiz-adv-x="1987" 
d="M1639 854h-295l-350 355l-353 -355h-295l510 602h273z" />
    <glyph glyph-name="underscore" unicode="_" horiz-adv-x="994" 
d="M1020 -499h-1045v251h1045v-251z" />
    <glyph glyph-name="grave" unicode="`" horiz-adv-x="994" 
d="M703 1157h-196l-404 330h372z" />
    <glyph glyph-name="a" unicode="a" horiz-adv-x="1262" 
d="M1166 -26l-769.999 0.000976562c-106.667 0 -191.334 28.667 -254.001 86c-63.333 56 -95 137.667 -95 245c0 128.667 34.833 221 104.5 277s182.5 84 338.5 84h340c0 53.333 -15.667 91.666 -47 114.999c-32 21.333 -92.333 32 -181 32h-485v268h590
c150 0 264 -34.667 342 -104s117 -174.333 117 -315v-688zM830.001 238.001l-0.000976562 166.001h-301c-60 0 -99 -5.83301 -117 -17.5s-27 -35.834 -27 -72.501c0 -27.333 6.33301 -47.333 19 -60c6.66699 -5.33301 18.834 -9.33301 36.501 -12s40.167 -4 67.5 -4h322z
" />
    <glyph glyph-name="b" unicode="b" horiz-adv-x="1213" 
d="M1190 543c0 -173.333 -47 -311.502 -141 -414.502s-225.667 -154.5 -395 -154.5h-557v1493h327v-386h211c106.667 0 194 -13 262 -39c67.333 -25.333 125.333 -68.666 174 -129.999c18 -23.333 34.667 -48.666 50 -75.999c14.667 -28.667 28 -60 40 -94
c10 -33.333 17.667 -66.333 23 -99c4 -32.667 6 -66 6 -100zM850 519.998c0 104 -21.667 177.334 -65 220.001c-40 43.333 -113.333 65 -220 65l-141 -2v-553h164c95.333 0 163 20.667 203 62c39.333 39.333 59 108.666 59 207.999z" />
    <glyph glyph-name="c" unicode="c" horiz-adv-x="1047" 
d="M1010 -26l-400.999 0.000976562c-49.333 0 -94 2.66699 -134 8c-39.333 5.33301 -76 13 -110 23c-61.333 21.333 -118 56 -170 104c-23.333 23.333 -44.666 51.333 -63.999 84c-20 31.333 -38.333 65.333 -55 102c-13.333 35.333 -23.666 71.666 -30.999 108.999
c-6.66699 36.667 -10 77 -10 121c0 82.667 13.667 160.334 41 233.001c27.333 71.333 67 135.666 119 192.999c47.333 43.333 104 75.666 170 96.999c65.333 22 146.666 33 243.999 33h401v-278h-320c-66.667 0 -120 -4 -160 -12c-39.333 -10 -70 -26.333 -92 -49
c-45.333 -41.333 -68 -113.666 -68 -216.999c0 -57.333 10 -106 30 -146c17.333 -39.333 44.666 -72 81.999 -98l65 -23c18 -2.66699 36.333 -4.66699 55 -6c19.333 -1.33301 48.666 -2 87.999 -2h320v-276z" />
    <glyph glyph-name="d" unicode="d" horiz-adv-x="1211" 
d="M1114 -26h-557c-168 0 -299 49.667 -393 149c-94 100 -141 240 -141 420c0 76.667 9.66699 143 29 199c9.33301 30 21.333 59.333 36 88c15.333 28.667 33.333 56 54 82c50 61.333 107.333 105.333 172 132c68 24.667 155.333 37 262 37h213v386h325v-1493zM789 250
l0.000976562 552.999h-144c-104.667 0 -177.667 -20.333 -219 -61c-40.667 -42.667 -61 -116.667 -61 -222c0 -96.667 18.333 -166 55 -208c19.333 -19.333 46.666 -34.666 81.999 -45.999c34 -10.667 75 -16 123 -16h164z" />
    <glyph glyph-name="e" unicode="e" horiz-adv-x="1047" 
d="M1016 -26l-430.001 0.00195312c-180 0 -316.667 47 -410 141c-94 92.667 -141 230.667 -141 414c0 180 47 317 141 411c94.667 94 231.334 141 410.001 141h430v-270h-391c-94 0 -156 -11.667 -186 -35c-30.667 -24.667 -46 -62.334 -46 -113.001h623v-272h-623
c0 -48.667 13 -85.334 39 -110.001s89.667 -37 191 -37h393v-270z" />
    <glyph glyph-name="f" unicode="f" horiz-adv-x="778" 
d="M789 821h-259.999v-848h-340v848h-197v260h197v85c0 118.667 22.333 197.667 67 237c22 20.667 52.5 36.5 91.5 47.5s90.5 16.5 154.5 16.5h287v-256h-158c-23.333 0 -40.333 -0.666992 -51 -2c-12.667 -1.33301 -24.334 -6.33301 -35.001 -15
c-10.667 -8 -16 -25 -16 -51v-62h260v-260z" />
    <glyph glyph-name="g" unicode="g" horiz-adv-x="1213" 
d="M1129 39c0 -152 -35.1699 -264.832 -105.503 -338.499s-176.5 -110.5 -318.5 -110.5h-565v264h518c46 0 81.333 12 106 36c23.333 21.333 35 52.666 35 93.999v-10h-201c-118.667 0 -204 9.66699 -256 29c-53.333 17.333 -105.166 49.833 -155.499 97.5
s-91.166 109.834 -122.499 186.501c-26 78 -39 158 -39 240c0 86 13 165.667 39 239c17.333 41.333 35 76.333 53 105c18 27.333 41.333 54.666 70 81.999c48.667 44.667 103 77 163 97c60.667 20.667 143.334 31 248.001 31h531v-1042zM798.997 244.001
l0.000976562 561.002h-119h-80c-26 0 -45 -1.33301 -57 -4l-35 -10c-10.667 -2.66699 -22.334 -8.33398 -35.001 -17.001c-36.667 -21.333 -64 -50 -82 -86c-17.333 -36.667 -26 -90.334 -26 -161.001c0 -106.667 21 -180.667 63 -222c49.333 -40.667 133.333 -61 252 -61
h119z" />
    <glyph glyph-name="h" unicode="h" horiz-adv-x="1196" 
d="M1104 -27l-330 0.000976562v666c0 66 -10.667 109 -32 129c-14 11.333 -29.667 19.666 -47 24.999c-19.333 5.33301 -46 8 -80 8l-195 -2v-826h-326v1494h326v-386h219c164 0 282.167 -32 354.5 -96s108.5 -169 108.5 -315z" />
    <glyph glyph-name="i" unicode="i" horiz-adv-x="529" 
d="M436 1151h-342v316h342v-316zM436 -27h-342v1109h342v-1109z" />
    <glyph glyph-name="j" unicode="j" horiz-adv-x="529" 
d="M436 1151h-342v316h342v-316zM436 51c0 -157.333 -32.667 -273.333 -98 -348s-164.333 -112 -297 -112h-205v272h147c38.667 0 65.667 13.333 81 40c20 32 30 85 30 159v1020h342v-1031z" />
    <glyph glyph-name="k" unicode="k" horiz-adv-x="1196" 
d="M1258 1082l-510 -543l508 -566h-443l-383 468v-468h-327v1494h327v-848l408 463h420z" />
    <glyph glyph-name="l" unicode="l" horiz-adv-x="520" 
d="M430 -27h-340v1494h340v-1494z" />
    <glyph glyph-name="m" unicode="m" horiz-adv-x="1743" 
d="M1642 -27h-329v663c0 68 -9.66699 113.667 -29 137c-22.667 19.333 -65 29 -127 29l-127 -3v-826h-333v826h-273v-826h-330v1109h1086c158 0 274.5 -32.5 349.5 -97.5s112.5 -169.833 112.5 -314.5v-697z" />
    <glyph glyph-name="n" unicode="n" horiz-adv-x="1192" 
d="M1104 -27h-328v665c0 70.667 -10 115.667 -30 135c-22 17.333 -64.333 26 -127 26h-197v-826h-328v1109h545c166.667 0 285.5 -32.5 356.5 -97.5s106.5 -169.833 106.5 -314.5z" />
    <glyph glyph-name="o" unicode="o" horiz-adv-x="1211" 
d="M1186 529c0 -173.333 -52.667 -312 -158 -416c-104.667 -104 -245.334 -156 -422.001 -156c-177.333 0 -318.333 52 -423 156c-105.333 102 -158 240.667 -158 416c0 172 52.667 310.333 158 415c103.333 104 244.333 156 423 156
c176.667 0 317.334 -51.333 422.001 -154c105.333 -103.333 158 -242.333 158 -417zM846 529c0 92.667 -22.667 165 -68 217c-40.667 52 -98.667 78 -174 78c-74.667 0 -132.667 -26 -174 -78c-42 -48 -63 -120.333 -63 -217c0 -49.333 5 -91 15 -125
c9.33301 -36 25.333 -67.667 48 -95c42.667 -50.667 100.667 -76 174 -76c75.333 0 133.333 25.333 174 76c45.333 52 68 125.333 68 220z" />
    <glyph glyph-name="p" unicode="p" horiz-adv-x="1213" 
d="M1190 514c0 -65.333 -9.66699 -132.001 -29 -200.001c-12 -36 -24 -65.333 -36 -88c-14 -24.667 -32 -50.667 -54 -78c-46 -61.333 -103.333 -106.333 -172 -135c-70.667 -26 -158.667 -39 -264 -39h-211v-384h-327v1491h557c167.333 0 299 -49.667 395 -149
c94 -99.333 141 -238.666 141 -417.999zM850 536.999c0 99.333 -18.999 168.333 -56.999 207c-36.667 40.667 -105 61 -205 61l-164 -2v-553h141c104 0 178 22.667 222 68c21.333 20 37.666 48 48.999 84c9.33301 35.333 14 80.333 14 135z" />
    <glyph glyph-name="q" unicode="q" horiz-adv-x="1213" 
d="M1116 -410l-325 -0.000976562v384h-213c-108 0 -195.5 12.833 -262.5 38.5s-124.833 70.834 -173.5 135.501c-22 26 -39.333 51 -52 75c-13.333 24.667 -26 55 -38 91c-19.333 64 -29 130.667 -29 200c0 176 47 314.5 141 415.5s225 151.5 393 151.5h559v-1491z
M791 249.999v553h-166c-50.667 0 -92.334 -4 -125.001 -12c-34 -10 -60.667 -25 -80 -45c-36.667 -37.333 -55 -107 -55 -209c0 -105.333 21.667 -179 65 -221c42.667 -44 114.334 -66 215.001 -66h146z" />
    <glyph glyph-name="r" unicode="r" horiz-adv-x="934" 
d="M905 588l-315 -0.000976562v164c0 32.667 -4.16699 52.834 -12.5 60.501s-18.5 12.167 -30.5 13.5s-29.667 2 -53 2h-72v-855h-328v1109h490c117.333 0 198.666 -22 243.999 -66c22.667 -20.667 40.834 -50 54.501 -88s20.5 -83.667 20.5 -137z" />
    <glyph glyph-name="s" unicode="s" horiz-adv-x="1180" 
d="M1131 332c0 -104 -29.3311 -189.333 -87.998 -256c-58.667 -68 -134 -102 -226 -102h-738l-1 270h608c42.667 0 75.667 8.33301 99 25c16.667 10.667 25 29 25 55c0 27.333 -8.33301 47 -25 59c-18 11.333 -51 17 -99 17h-239c-147.333 0 -248.333 24.167 -303 72.5
s-82 132.5 -82 252.5c0 124.667 32.667 215 98 271c61.333 56.667 159.666 85 294.999 85h621v-270h-514c-76.667 0 -124.334 -6 -143.001 -18c-14 -6.66699 -21 -23.667 -21 -51c0 -24.667 6 -42.667 18 -54c19.333 -12 48 -18 86 -18h250c121.333 0 214 -29.333 278 -88
c67.333 -56 101 -139.333 101 -250z" />
    <glyph glyph-name="t" unicode="t" horiz-adv-x="824" 
d="M805 -26h-277.999c-109.333 0 -193.333 30.667 -252 92c-58.667 60 -88 148.667 -88 266v489h-195v260h195v386h327v-386h291v-260h-291v-401c0 -72 10.333 -121 31 -147c23.333 -24.667 63.666 -37 120.999 -37h139v-262z" />
    <glyph glyph-name="u" unicode="u" horiz-adv-x="1196" 
d="M1093 -26h-546c-160 0 -276 32.667 -348 98c-74 65.333 -111 170.333 -111 315v695h325v-672c0 -64 10 -105 30 -123c17.333 -19.333 59 -29 125 -29h198v824h327v-1108z" />
    <glyph glyph-name="v" unicode="v" horiz-adv-x="1213" 
d="M1245 1082l-487 -1109h-332l-463 1109h367l272 -703l289 703h354z" />
    <glyph glyph-name="w" unicode="w" horiz-adv-x="1735" 
d="M1796 1082l-370 -1109h-357l-209 662l-200 -662h-342l-386 1109h347l213 -676l207 676h333l213 -678l213 678h338z" />
    <glyph glyph-name="x" unicode="x" horiz-adv-x="1100" 
d="M1145 1082l-405 -562l401 -547h-385l-207 291l-211 -291h-385l408 556l-406 553h381l213 -299l217 299h379z" />
    <glyph glyph-name="y" unicode="y" horiz-adv-x="1196" 
d="M1093 29c0 -142.667 -34.668 -252.001 -104.001 -328.001c-73.333 -74 -178.333 -111 -315 -111h-567v264h520c45.333 0 80 11.667 104 35c23.333 22 35 53 35 93v-8h-219c-165.333 0 -282.666 34 -351.999 102c-71.333 66.667 -107 176.667 -107 330v676h323v-656
c0 -31.333 1.16699 -58.666 3.5 -81.999s11.833 -43 28.5 -59c16 -18 57.667 -27 125 -27h198v824h327v-1053z" />
    <glyph glyph-name="z" unicode="z" horiz-adv-x="1159" 
d="M1098 -26h-1034v264l580 565h-580v278h1034v-262l-583 -569h583v-276z" />
    <glyph glyph-name="braceleft" unicode="{" horiz-adv-x="994" 
d="M883 -432l-61.998 0.000976562l-38 -2c-28.667 0 -56.667 1.33301 -84 4c-28.667 2.66699 -56 6 -82 10s-48.667 8.66699 -68 14s-37 13 -53 23c-44 28.667 -73.333 64 -88 106c-6.66699 19.333 -12.334 46 -17.001 80c-4 32.667 -6 73.667 -6 123v246
c0 82 -15 140 -45 174c-31.333 33.333 -80.333 50 -147 50l-17 -3l-47 -2v256c27.333 0 43 -0.666992 47 -2h17c69.333 0 119 18 149 54c28.667 35.333 43 92 43 170v245c0 52 1.33301 94.833 4 128.5s9 59.834 19 78.501c16 41.333 45.333 75.666 88 102.999
c30 17.333 69 30.333 117 39c46 8 102.667 12 170 12l38 -2h62v-256h-51l-21 2c-58.667 0 -96.667 -9.66699 -114 -29c-10 -10.667 -17 -27 -21 -49c-6 -23.333 -9 -54 -9 -92l2 -238c0 -100.667 -16 -173.667 -48 -219c-19.333 -28.667 -51.333 -52.667 -96 -72
c43.333 -18.667 75.333 -42.334 96 -71.001c32 -44 48 -117.667 48 -221v-236c0 -72.667 9.33301 -120 28 -142c18.667 -18.667 56.667 -28 114 -28h21c5.33301 0 10.666 0.666992 15.999 2c14 6.66699 25.667 12 35 16v-272z" />
    <glyph glyph-name="bar" unicode="|" horiz-adv-x="994" 
d="M625 -500h-252v2059h252v-2059z" />
    <glyph glyph-name="braceright" unicode="}" horiz-adv-x="994" 
d="M869 391l-60.998 0.00195312c-74 0 -125.333 -15 -154 -45c-27.333 -32.667 -41 -90.667 -41 -174v-246c0 -52 -2 -93.667 -6 -125s-10.333 -58 -19 -80c-8 -23.333 -19 -42.333 -33 -57c-14.667 -16.667 -33.667 -32.334 -57 -47.001c-31.333 -16.667 -71 -29 -119 -37
c-22 -4 -46.667 -7.33301 -74 -10s-58 -4 -92 -4h-37l-61 8v250c28.667 0 45.667 -0.666992 51 -2h19c56 0 93.333 9.33301 112 28c19.333 23.333 29 70.666 29 141.999v234c0 103.333 16.667 177 50 221c21.333 30 52.666 53.667 93.999 71
c-42.667 20.667 -74 45.334 -94 74.001c-33.333 46.667 -50 119.667 -50 219v240c0 73.333 -10.333 119.666 -31 138.999c-8 11.333 -21.167 19 -39.5 23s-41.833 6 -70.5 6h-19l-51 -2v256h90c74 0 133.333 -4.33301 178 -13c45.333 -8 85.666 -21.333 120.999 -40
c34 -19.333 62 -53 84 -101c16.667 -46 25 -114.333 25 -205v-247c0 -44 2.66699 -79.667 8 -107s16.333 -50 33 -68c27.333 -31.333 77 -47 149 -47h18h48v-254z" />
    <glyph glyph-name="asciitilde" unicode="~" horiz-adv-x="1655" 
d="M1512 557c-76.667 -52 -146.997 -90.001 -210.997 -114.001c-30 -11.333 -60.667 -19.666 -92 -24.999c-33.333 -6.66699 -64.333 -10 -93 -10c-26 0 -58 3.33301 -96 10l-90 23l-72 24c-133.333 48 -237 72 -311 72c-31.333 0 -59.333 -2 -84 -6
c-24.667 -5.33301 -52 -14 -82 -26c-48 -17.333 -125.667 -65.333 -233 -144v280c77.333 52 148.333 90.333 213 115c31.333 12.667 62.666 21.667 93.999 27s62.666 8 93.999 8c75.333 0 170.333 -18.333 285 -55l16 -4l47 -16c96 -36 170.667 -54 224 -54
c24 0 49.667 2.66699 77 8c27.333 6 54.666 15 81.999 27c38.667 16 71 32.333 97 49c26 14.667 71 44.667 135 90v-279z" />
    <glyph glyph-name="dieresis" unicode="&#xa8;" horiz-adv-x="1024" 
 />
    <glyph glyph-name="copyright" unicode="&#xa9;" horiz-adv-x="1529" 
 />
    <glyph glyph-name="registered" unicode="&#xae;" horiz-adv-x="1529" 
 />
    <glyph glyph-name="acute" unicode="&#xb4;" horiz-adv-x="1024" 
 />
    <glyph glyph-name="paragraph" unicode="&#xb6;" horiz-adv-x="1024" 
d="M929 1435l-0.000976562 -70h-127v-1365h-82v1365h-166v-1365h-84v738c-116 5.33301 -207.833 39.5 -275.5 102.5s-101.5 144.833 -101.5 245.5c0 104.667 35.833 189 107.5 253s166.834 96 285.501 96h443z" />
    <glyph glyph-name="onequarter" unicode="&#xbc;" horiz-adv-x="1628" 
d="M1616 121h-121v-148h-239v148h-580v195l541 518h278v-525h121v-188zM883 1465l-571 -1494h-207l573 1494h205zM291 606h-250v859h250v-859zM1256 309v267l-277 -267h277z" />
    <glyph glyph-name="onehalf" unicode="&#xbd;" horiz-adv-x="1514" 
d="M1512 570c0 -84.667 -25.999 -148.998 -77.999 -192.998c-52 -45.333 -125 -68 -219 -68h-170c-46.667 0 -79.667 -6.66699 -99 -20c-13.333 -16.667 -20 -40 -20 -70v-55h584v-190h-838v270c0 91.333 26.667 157.666 80 198.999c52 40.667 136.667 61 254 61h121
c51.333 0 85.333 6 102 18c15.333 11.333 23 28 23 50c0 28.667 -7.66699 47.667 -23 57c-14.667 8 -48.667 12 -102 12h-455v190h539c46 0 78.667 -1.33301 98 -4s33.666 -5.33398 42.999 -8.00098l33 -16c43.333 -22 75.333 -52.667 96 -92s31 -86.333 31 -141z
M883.001 1465l-571 -1494h-207l573 1494h205zM291.001 606.002h-250v859h250v-859z" />
    <glyph glyph-name="threequarters" unicode="&#xbe;" horiz-adv-x="2089" 
d="M2077 121h-121v-148h-240v148h-579v195l541 518h278v-525h121v-188zM1346 1464l-574 -1493h-207l574 1493h207zM766 850c0 -82 -26 -142.67 -78 -182.003c-52.667 -41.333 -126.334 -62 -221.001 -62h-475v188h395c42.667 0 75 7.66699 97 23c16 8.66699 24 26 24 52
c0 27.333 -8 45 -24 53c-18 12 -50.333 18 -97 18h-325v190h319c48 0 80.5 6.33301 97.5 19s25.5 30.334 25.5 53.001c0 24.667 -8.33301 43.334 -25 56.001c-20 10.667 -52.667 16 -98 16h-389v190h457c106.667 0 186.334 -19 239.001 -57c52 -39.333 78 -100 78 -182
c0 -40.667 -10.333 -79.667 -31 -117c-12 -20.667 -33 -43 -63 -67l27 -21c14.667 -13.333 26.667 -27.666 36 -42.999c20.667 -32.667 31 -75 31 -127zM1716 308.997v267l-276 -267h276z" />
    <glyph glyph-name="Agrave" unicode="&#xc0;" horiz-adv-x="1436" 
d="M920 1551h-198l-402 329h372zM1524 -27h-393l-131 343h-584l-127 -343h-377l625 1494h356zM881 625l-178 455l-170 -455h348z" />
    <glyph glyph-name="Aacute" unicode="&#xc1;" horiz-adv-x="1436" 
d="M1107 1880l-404 -329h-197l229 329h372zM1524 -27h-393l-131 343h-584l-127 -343h-377l625 1494h356zM881 625l-178 455l-170 -455h348z" />
    <glyph glyph-name="Acircumflex" unicode="&#xc2;" horiz-adv-x="1436" 
d="M1070 1551h-193l-164 141l-162 -141h-194l227 329h258zM1524 -27h-393l-131 343h-584l-127 -343h-377l625 1494h356zM881 625l-178 455l-170 -455h348z" />
    <glyph glyph-name="Atilde" unicode="&#xc3;" horiz-adv-x="1436" 
d="M1053 1868c-6.66699 -48 -16.6699 -89.666 -30.0029 -124.999c-15.333 -36.667 -32.666 -66 -51.999 -88c-39.333 -46.667 -90 -70 -152 -70l-32 4l-35 7l-131 32l-17 5h-16c-18 0 -32.333 -4.33301 -43 -13c-8 -4 -16.333 -23 -25 -57h-149
c9.33301 54.667 21 98.334 35 131.001c12 31.333 27.667 58.666 47 81.999c36.667 43.333 84.334 65 143.001 65l43 -2l33 -6l127 -33l20 -4l27 -2c15.333 2.66699 27 7.66699 35 15c6.66699 5.33301 12 12.666 16 21.999c2.66699 8 6.33398 20.333 11.001 37h145z
M1524 -26.999h-393l-131 343h-584l-127 -343h-377l625 1494h356zM880.997 625.001l-178 455l-170 -455h348z" />
    <glyph glyph-name="Egrave" unicode="&#xc8;" horiz-adv-x="1342" 
d="M967 1551h-196l-404 329h373zM1256 -26l-535.002 -0.000976562c-113.333 0 -202.666 9.66699 -267.999 29c-66.667 18.667 -131 53.334 -193 104.001c-76 64 -132.667 144.333 -170 241c-38 97.333 -57 213 -57 347c0 262 56.667 456.333 170 583
c112 126 287.333 189 526 189h527v-303h-521c-99.333 0 -173.666 -24 -222.999 -72c-50.667 -48.667 -80 -119 -88 -211l832 -2v-301h-834c0 -50 6.33301 -94.333 19 -133c10.667 -38 27.667 -68.667 51 -92c48.667 -50.667 129.667 -76 243 -76h521v-303z" />
    <glyph glyph-name="Eacute" unicode="&#xc9;" horiz-adv-x="1342" 
d="M1156 1880l-404 -329h-199l230 329h373zM1256 -26l-535.002 -0.000976562c-113.333 0 -202.666 9.66699 -267.999 29c-66.667 18.667 -131 53.334 -193 104.001c-76 64 -132.667 144.333 -170 241c-38 97.333 -57 213 -57 347c0 262 56.667 456.333 170 583
c112 126 287.333 189 526 189h527v-303h-521c-99.333 0 -173.666 -24 -222.999 -72c-50.667 -48.667 -80 -119 -88 -211l832 -2v-301h-834c0 -50 6.33301 -94.333 19 -133c10.667 -38 27.667 -68.667 51 -92c48.667 -50.667 129.667 -76 243 -76h521v-303z" />
    <glyph glyph-name="Ecircumflex" unicode="&#xca;" horiz-adv-x="1342" 
d="M1117 1551h-193l-164 141l-162 -141h-194l227 329h260zM1256 -26l-535.002 -0.000976562c-113.333 0 -202.666 9.66699 -267.999 29c-66.667 18.667 -131 53.334 -193 104.001c-76 64 -132.667 144.333 -170 241c-38 97.333 -57 213 -57 347
c0 262 56.667 456.333 170 583c112 126 287.333 189 526 189h527v-303h-521c-99.333 0 -173.666 -24 -222.999 -72c-50.667 -48.667 -80 -119 -88 -211l832 -2v-301h-834c0 -50 6.33301 -94.333 19 -133c10.667 -38 27.667 -68.667 51 -92
c48.667 -50.667 129.667 -76 243 -76h521v-303z" />
    <glyph glyph-name="Igrave" unicode="&#xcc;" horiz-adv-x="613" 
d="M512 1551h-196l-404 329h373zM490 -27h-365v1494h365v-1494z" />
    <glyph glyph-name="Iacute" unicode="&#xcd;" horiz-adv-x="613" 
d="M701 1880l-404 -329h-198l229 329h373zM490 -27h-365v1494h365v-1494z" />
    <glyph glyph-name="Ograve" unicode="&#xd2;" 
d="M971 1551h-197l-403 329h371zM1506 721c0 -260.667 -61 -455.333 -183 -584c-121.333 -129.333 -306.333 -194 -555 -194c-254 0 -440.333 64.5 -559 193.5s-178 328.5 -178 598.5c0 255.333 60.667 446 182 572c120 124 305 186 555 186s435.667 -63.333 557 -190
c120.667 -128.667 181 -322.667 181 -582zM1129 721.001c0 164 -29.333 285 -88 363c-58.667 76 -149.667 114 -273 114c-120 0 -210 -37.333 -270 -112c-30 -40 -52.5 -88.667 -67.5 -146s-22.5 -126.333 -22.5 -207c0 -170.667 29.333 -294.667 88 -372
c57.333 -78 148 -117 272 -117c120 0 210.333 39 271 117c60 76 90 196 90 360z" />
    <glyph glyph-name="Oacute" unicode="&#xd3;" 
d="M1158 1880l-402 -329h-199l230 329h371zM1506 721c0 -260.667 -61 -455.333 -183 -584c-121.333 -129.333 -306.333 -194 -555 -194c-254 0 -440.333 64.5 -559 193.5s-178 328.5 -178 598.5c0 255.333 60.667 446 182 572c120 124 305 186 555 186
s435.667 -63.333 557 -190c120.667 -128.667 181 -322.667 181 -582zM1129 721.001c0 164 -29.333 285 -88 363c-58.667 76 -149.667 114 -273 114c-120 0 -210 -37.333 -270 -112c-30 -40 -52.5 -88.667 -67.5 -146s-22.5 -126.333 -22.5 -207
c0 -170.667 29.333 -294.667 88 -372c57.333 -78 148 -117 272 -117c120 0 210.333 39 271 117c60 76 90 196 90 360z" />
    <glyph glyph-name="Ocircumflex" unicode="&#xd4;" 
d="M1121 1551h-193l-164 141l-162 -141h-194l227 329h260zM1506 721c0 -260.667 -61 -455.333 -183 -584c-121.333 -129.333 -306.333 -194 -555 -194c-254 0 -440.333 64.5 -559 193.5s-178 328.5 -178 598.5c0 255.333 60.667 446 182 572c120 124 305 186 555 186
s435.667 -63.333 557 -190c120.667 -128.667 181 -322.667 181 -582zM1129 721.001c0 164 -29.333 285 -88 363c-58.667 76 -149.667 114 -273 114c-120 0 -210 -37.333 -270 -112c-30 -40 -52.5 -88.667 -67.5 -146s-22.5 -126.333 -22.5 -207
c0 -170.667 29.333 -294.667 88 -372c57.333 -78 148 -117 272 -117c120 0 210.333 39 271 117c60 76 90 196 90 360z" />
    <glyph glyph-name="Otilde" unicode="&#xd5;" 
d="M1106 1868c-8 -52 -18.502 -94.999 -31.502 -128.999s-30.5 -62 -52.5 -84c-39.333 -46.667 -89.666 -70 -150.999 -70l-33 4l-35 7l-131 32l-16 5h-17c-17.333 0 -31.666 -4.33301 -42.999 -13c-8 -4 -16 -23 -24 -57h-150c20.667 100.667 48.667 172.167 84 214.5
s84 63.5 146 63.5l38 -2l33 -6l125 -33l23 -4l26 -2c15.333 2.66699 27 7.66699 35 15c6.66699 5.33301 12 12.666 16 21.999c3.33301 8 7 20.333 11 37h147zM1506 721.001c0 -260.667 -61 -455.333 -183 -584c-121.333 -129.333 -306.333 -194 -555 -194
c-254 0 -440.333 64.5 -559 193.5s-178 328.5 -178 598.5c0 255.333 60.667 446 182 572c120 124 305 186 555 186s435.667 -63.333 557 -190c120.667 -128.667 181 -322.667 181 -582zM1129 721.002c0 164 -29.333 285 -88 363c-58.667 76 -149.667 114 -273 114
c-120 0 -210 -37.333 -270 -112c-30 -40 -52.5 -88.667 -67.5 -146s-22.5 -126.333 -22.5 -207c0 -170.667 29.333 -294.667 88 -372c57.333 -78 148 -117 272 -117c120 0 210.333 39 271 117c60 76 90 196 90 360z" />
    <glyph glyph-name="Ugrave" unicode="&#xd9;" horiz-adv-x="1526" 
d="M969 1551h-197l-403 329h373zM1409 570c0 -50.667 -1.99902 -95.499 -5.99902 -134.499s-9.33301 -76.833 -16 -113.5c-14 -68.667 -37.333 -120.667 -70 -156c-58.667 -70.667 -133 -122.834 -223 -156.501s-200.667 -50.5 -332 -50.5s-241.333 16.333 -330 49
c-90 33.333 -166.333 86 -229 158c-30 41.333 -51 92 -63 152c-14 60 -21 144 -21 252v897h348v-889c0 -126 21.333 -214 64 -264c44.667 -48.667 121.667 -73 231 -73s186.666 24.333 231.999 73c43.333 50 65 138 65 264v889h350v-897z" />
    <glyph glyph-name="Uacute" unicode="&#xda;" horiz-adv-x="1526" 
d="M1155 1880l-401 -329h-199l230 329h370zM1409 570c0 -50.667 -1.99902 -95.499 -5.99902 -134.499s-9.33301 -76.833 -16 -113.5c-14 -68.667 -37.333 -120.667 -70 -156c-58.667 -70.667 -133 -122.834 -223 -156.501s-200.667 -50.5 -332 -50.5
s-241.333 16.333 -330 49c-90 33.333 -166.333 86 -229 158c-30 41.333 -51 92 -63 152c-14 60 -21 144 -21 252v897h348v-889c0 -126 21.333 -214 64 -264c44.667 -48.667 121.667 -73 231 -73s186.666 24.333 231.999 73c43.333 50 65 138 65 264v889h350v-897z" />
    <glyph glyph-name="Yacute" unicode="&#xdd;" horiz-adv-x="1233" 
d="M1010 1880l-404 -329h-196l227 329h373zM1360 1467l-571 -836v-658h-350v656l-568 838h402l338 -529l340 529h409z" />
    <glyph glyph-name="agrave" unicode="&#xe0;" horiz-adv-x="1262" 
d="M817 1157h-196l-404 330h371zM1166 -26l-769.999 0.000976562c-106.667 0 -191.334 28.667 -254.001 86c-63.333 56 -95 137.667 -95 245c0 128.667 34.833 221 104.5 277s182.5 84 338.5 84h340c0 53.333 -15.667 91.666 -47 114.999c-32 21.333 -92.333 32 -181 32
h-485v268h590c150 0 264 -34.667 342 -104s117 -174.333 117 -315v-688zM830.001 238.001l-0.000976562 166.001h-301c-60 0 -99 -5.83301 -117 -17.5s-27 -35.834 -27 -72.501c0 -27.333 6.33301 -47.333 19 -60c6.66699 -5.33301 18.834 -9.33301 36.501 -12
s40.167 -4 67.5 -4h322z" />
    <glyph glyph-name="aacute" unicode="&#xe1;" horiz-adv-x="1262" 
d="M1004 1487l-402 -330h-198l227 330h373zM1166 -26l-769.999 0.000976562c-106.667 0 -191.334 28.667 -254.001 86c-63.333 56 -95 137.667 -95 245c0 128.667 34.833 221 104.5 277s182.5 84 338.5 84h340c0 53.333 -15.667 91.666 -47 114.999
c-32 21.333 -92.333 32 -181 32h-485v268h590c150 0 264 -34.667 342 -104s117 -174.333 117 -315v-688zM830.001 238.001l-0.000976562 166.001h-301c-60 0 -99 -5.83301 -117 -17.5s-27 -35.834 -27 -72.501c0 -27.333 6.33301 -47.333 19 -60
c6.66699 -5.33301 18.834 -9.33301 36.501 -12s40.167 -4 67.5 -4h322z" />
    <glyph glyph-name="acircumflex" unicode="&#xe2;" horiz-adv-x="1262" 
d="M967 1157h-194l-162 142l-164 -142h-193l228 330h258zM1166 -26l-769.999 0.000976562c-106.667 0 -191.334 28.667 -254.001 86c-63.333 56 -95 137.667 -95 245c0 128.667 34.833 221 104.5 277s182.5 84 338.5 84h340c0 53.333 -15.667 91.666 -47 114.999
c-32 21.333 -92.333 32 -181 32h-485v268h590c150 0 264 -34.667 342 -104s117 -174.333 117 -315v-688zM830.001 238.001l-0.000976562 166.001h-301c-60 0 -99 -5.83301 -117 -17.5s-27 -35.834 -27 -72.501c0 -27.333 6.33301 -47.333 19 -60
c6.66699 -5.33301 18.834 -9.33301 36.501 -12s40.167 -4 67.5 -4h322z" />
    <glyph glyph-name="atilde" unicode="&#xe3;" horiz-adv-x="1262" 
d="M951 1475c-15.333 -98.667 -42.666 -168.999 -81.999 -210.999c-41.333 -48 -92 -72 -152 -72l-33 4l-35 6l-133 33l-14 4h-16c-19.333 0 -34.333 -3.33301 -45 -10c-7.33301 -6.66699 -16.333 -26.334 -27 -59.001h-145c9.33301 54.667 20.666 98.334 33.999 131.001
c12.667 31.333 28.334 58.666 47.001 81.999c37.333 43.333 86.666 65 147.999 65l39 -2l33 -6l127 -33l20 -4l27 -2c13.333 0 24 5.33301 32 16c6 4.66699 11.667 11 17 19c4 8 8.66699 21 14 39h144zM1166 -25.999l-769.999 0.000976562
c-106.667 0 -191.334 28.667 -254.001 86c-63.333 56 -95 137.667 -95 245c0 128.667 34.833 221 104.5 277s182.5 84 338.5 84h340c0 53.333 -15.667 91.666 -47 114.999c-32 21.333 -92.333 32 -181 32h-485v268h590c150 0 264 -34.667 342 -104s117 -174.333 117 -315
v-688zM830.001 238.002l-0.000976562 166.001h-301c-60 0 -99 -5.83301 -117 -17.5s-27 -35.834 -27 -72.501c0 -27.333 6.33301 -47.333 19 -60c6.66699 -5.33301 18.834 -9.33301 36.501 -12s40.167 -4 67.5 -4h322z" />
    <glyph glyph-name="egrave" unicode="&#xe8;" horiz-adv-x="1047" 
d="M817 1157h-194l-404 330h371zM1016 -26l-430.001 0.00195312c-180 0 -316.667 47 -410 141c-94 92.667 -141 230.667 -141 414c0 180 47 317 141 411c94.667 94 231.334 141 410.001 141h430v-270h-391c-94 0 -156 -11.667 -186 -35
c-30.667 -24.667 -46 -62.334 -46 -113.001h623v-272h-623c0 -48.667 13 -85.334 39 -110.001s89.667 -37 191 -37h393v-270z" />
    <glyph glyph-name="eacute" unicode="&#xe9;" horiz-adv-x="1047" 
d="M1006 1487l-402 -330h-198l227 330h373zM1016 -26l-430.001 0.00195312c-180 0 -316.667 47 -410 141c-94 92.667 -141 230.667 -141 414c0 180 47 317 141 411c94.667 94 231.334 141 410.001 141h430v-270h-391c-94 0 -156 -11.667 -186 -35
c-30.667 -24.667 -46 -62.334 -46 -113.001h623v-272h-623c0 -48.667 13 -85.334 39 -110.001s89.667 -37 191 -37h393v-270z" />
    <glyph glyph-name="ecircumflex" unicode="&#xea;" horiz-adv-x="1047" 
d="M969 1157h-195l-161 142l-164 -142h-193l228 330h258zM1016 -26l-430.001 0.00195312c-180 0 -316.667 47 -410 141c-94 92.667 -141 230.667 -141 414c0 180 47 317 141 411c94.667 94 231.334 141 410.001 141h430v-270h-391c-94 0 -156 -11.667 -186 -35
c-30.667 -24.667 -46 -62.334 -46 -113.001h623v-272h-623c0 -48.667 13 -85.334 39 -110.001s89.667 -37 191 -37h393v-270z" />
    <glyph glyph-name="igrave" unicode="&#xec;" horiz-adv-x="529" 
d="M471 1157h-198l-402 330h371zM436 -27h-342v1109h342v-1109z" />
    <glyph glyph-name="iacute" unicode="&#xed;" horiz-adv-x="529" 
d="M658 1487l-404 -330h-196l227 330h373zM436 -27h-342v1109h342v-1109z" />
    <glyph glyph-name="ograve" unicode="&#xf2;" horiz-adv-x="1211" 
d="M813 1157h-196l-403 330h370zM1186 529c0 -173.333 -52.667 -312 -158 -416c-104.667 -104 -245.334 -156 -422.001 -156c-177.333 0 -318.333 52 -423 156c-105.333 102 -158 240.667 -158 416c0 172 52.667 310.333 158 415c103.333 104 244.333 156 423 156
c176.667 0 317.334 -51.333 422.001 -154c105.333 -103.333 158 -242.333 158 -417zM846 529c0 92.667 -22.667 165 -68 217c-40.667 52 -98.667 78 -174 78c-74.667 0 -132.667 -26 -174 -78c-42 -48 -63 -120.333 -63 -217c0 -49.333 5 -91 15 -125
c9.33301 -36 25.333 -67.667 48 -95c42.667 -50.667 100.667 -76 174 -76c75.333 0 133.333 25.333 174 76c45.333 52 68 125.333 68 220z" />
    <glyph glyph-name="oacute" unicode="&#xf3;" horiz-adv-x="1211" 
d="M1000 1487l-402 -330h-198l227 330h373zM1186 529c0 -173.333 -52.667 -312 -158 -416c-104.667 -104 -245.334 -156 -422.001 -156c-177.333 0 -318.333 52 -423 156c-105.333 102 -158 240.667 -158 416c0 172 52.667 310.333 158 415c103.333 104 244.333 156 423 156
c176.667 0 317.334 -51.333 422.001 -154c105.333 -103.333 158 -242.333 158 -417zM846 529c0 92.667 -22.667 165 -68 217c-40.667 52 -98.667 78 -174 78c-74.667 0 -132.667 -26 -174 -78c-42 -48 -63 -120.333 -63 -217c0 -49.333 5 -91 15 -125
c9.33301 -36 25.333 -67.667 48 -95c42.667 -50.667 100.667 -76 174 -76c75.333 0 133.333 25.333 174 76c45.333 52 68 125.333 68 220z" />
    <glyph glyph-name="ocircumflex" unicode="&#xf4;" horiz-adv-x="1211" 
d="M963 1157h-195l-162 142l-163 -142h-192l226 330h261zM1186 529c0 -173.333 -52.667 -312 -158 -416c-104.667 -104 -245.334 -156 -422.001 -156c-177.333 0 -318.333 52 -423 156c-105.333 102 -158 240.667 -158 416c0 172 52.667 310.333 158 415
c103.333 104 244.333 156 423 156c176.667 0 317.334 -51.333 422.001 -154c105.333 -103.333 158 -242.333 158 -417zM846 529c0 92.667 -22.667 165 -68 217c-40.667 52 -98.667 78 -174 78c-74.667 0 -132.667 -26 -174 -78c-42 -48 -63 -120.333 -63 -217
c0 -49.333 5 -91 15 -125c9.33301 -36 25.333 -67.667 48 -95c42.667 -50.667 100.667 -76 174 -76c75.333 0 133.333 25.333 174 76c45.333 52 68 125.333 68 220z" />
    <glyph glyph-name="otilde" unicode="&#xf5;" horiz-adv-x="1211" 
d="M951 1475c-19.333 -100 -47.9961 -170.333 -85.9961 -211c-41.333 -48 -92 -72 -152 -72l-33 4l-35 6l-133 33l-14 4h-16c-20.667 0 -34.334 -2.66699 -41.001 -8c-8.66699 -5.33301 -14.334 -11.5 -17.001 -18.5s-7.33398 -21.167 -14.001 -42.5h-145
c9.33301 54.667 21 98.334 35 131.001c12 31.333 27.333 58.666 46 81.999c37.333 43.333 86.666 65 147.999 65l39 -2l32 -6l127 -33l21 -4l27 -2c13.333 1.33301 24.666 6 33.999 14c8.66699 8.66699 18.334 28.667 29.001 60h148zM1186 529
c0 -173.333 -52.667 -312 -158 -416c-104.667 -104 -245.334 -156 -422.001 -156c-177.333 0 -318.333 52 -423 156c-105.333 102 -158 240.667 -158 416c0 172 52.667 310.333 158 415c103.333 104 244.333 156 423 156c176.667 0 317.334 -51.333 422.001 -154
c105.333 -103.333 158 -242.333 158 -417zM846.004 529c0 92.667 -22.667 165 -68 217c-40.667 52 -98.667 78 -174 78c-74.667 0 -132.667 -26 -174 -78c-42 -48 -63 -120.333 -63 -217c0 -49.333 5 -91 15 -125c9.33301 -36 25.333 -67.667 48 -95
c42.667 -50.667 100.667 -76 174 -76c75.333 0 133.333 25.333 174 76c45.333 52 68 125.333 68 220z" />
    <glyph glyph-name="divide" unicode="&#xf7;" horiz-adv-x="1706" 
 />
    <glyph glyph-name="glyph216" unicode="&#xf9;" horiz-adv-x="1196" 
d="M803 1157h-199l-401 330h371zM1093 -26h-546c-160 0 -276 32.667 -348 98c-74 65.333 -111 170.333 -111 315v695h325v-672c0 -64 10 -105 30 -123c17.333 -19.333 59 -29 125 -29h198v824h327v-1108z" />
    <glyph glyph-name="glyph217" unicode="&#xfa;" horiz-adv-x="1196" 
d="M989 1487l-403 -330h-197l228 330h372zM1093 -26h-546c-160 0 -276 32.667 -348 98c-74 65.333 -111 170.333 -111 315v695h325v-672c0 -64 10 -105 30 -123c17.333 -19.333 59 -29 125 -29h198v824h327v-1108z" />
    <glyph glyph-name="glyph234" unicode="&#xfd;" horiz-adv-x="1196" 
d="M1093 29c0 -142.667 -34.668 -252.001 -104.001 -328.001c-73.333 -74 -178.333 -111 -315 -111h-567v264h520c45.333 0 80 11.667 104 35c23.333 22 35 53 35 93v-8h-219c-165.333 0 -282.666 34 -351.999 102c-71.333 66.667 -107 176.667 -107 330v676h323v-656
c0 -31.333 1.16699 -58.666 3.5 -81.999s11.833 -43 28.5 -59c16 -18 57.667 -27 125 -27h198v824h327v-1053zM988.999 1487l-403 -330h-197l228 330h372z" />
    <glyph glyph-name="Abreve" unicode="&#x102;" horiz-adv-x="1436" 
d="M1524 -27h-393l-131 343h-584l-127 -343h-377l625 1494h356zM881 625l-178 455l-170 -455h348zM563 1828c0 -30.667 14 -58.0029 42 -82.0029c28 -21.333 65.667 -32 113 -32c49.333 0 86 9.33301 110 28c22.667 18.667 38 47.334 46 86.001h160
c0 -95.333 -29 -167.666 -87 -216.999c-56.667 -48.667 -133 -73 -229 -73c-99.333 0 -176.333 23 -231 69c-56.667 46.667 -85 120.334 -85 221.001h161z" />
    <glyph glyph-name="abreve" unicode="&#x103;" horiz-adv-x="1262" 
d="M1166 -26l-769.999 0.000976562c-106.667 0 -191.334 28.667 -254.001 86c-63.333 56 -95 137.667 -95 245c0 128.667 34.833 221 104.5 277s182.5 84 338.5 84h340c0 53.333 -15.667 91.666 -47 114.999c-32 21.333 -92.333 32 -181 32h-485v268h590
c150 0 264 -34.667 342 -104s117 -174.333 117 -315v-688zM830.001 238.001l-0.000976562 166.001h-301c-60 0 -99 -5.83301 -117 -17.5s-27 -35.834 -27 -72.501c0 -27.333 6.33301 -47.333 19 -60c6.66699 -5.33301 18.834 -9.33301 36.501 -12s40.167 -4 67.5 -4h322z
M450 1443c0 -30.667 14 -58.0029 42 -82.0029c28 -21.333 65.667 -32 113 -32c49.333 0 86 9.33301 110 28c22.667 18.667 38 47.334 46 86.001h160c0 -95.333 -29 -167.666 -87 -216.999c-56.667 -48.667 -133 -73 -229 -73c-99.333 0 -176.333 23 -231 69
c-56.667 46.667 -85 120.334 -85 221.001h161z" />
    <glyph glyph-name="Ccaron" unicode="&#x10c;" horiz-adv-x="1274" 
 />
    <glyph glyph-name="ccaron" unicode="&#x10d;" horiz-adv-x="922" 
 />
    <glyph glyph-name="Dslash" unicode="&#x110;" horiz-adv-x="1549" 
d="M1520 695c0 -67.333 -4.66797 -129.001 -14.001 -185.001s-23.666 -110 -42.999 -162c-36 -96.667 -93.667 -177 -173 -241c-58.667 -45.333 -122.667 -79.333 -192 -102c-34 -10 -73 -17.667 -117 -23c-43.333 -5.33301 -95 -8 -155 -8h-684v655h-150v205h150v633h677
c238 0 414.333 -63 529 -189c114.667 -125.333 172 -319.666 172 -582.999zM1145 720.999c0 173.333 -22.832 290.5 -68.499 351.5s-130.834 91.5 -255.501 91.5h-329v-330h336v-205h-336v-352h329c123.333 0 208 30.667 254 92c46.667 60 70 177.333 70 352z" />
    <glyph glyph-name="dcroat" unicode="&#x111;" horiz-adv-x="1211" 
d="M789 250l0.000976562 552.999h-144c-104.667 0 -177.667 -20.333 -219 -61c-40.667 -42.667 -61 -116.667 -61 -222c0 -96.667 18.333 -166 55 -208c19.333 -19.333 46.666 -34.666 81.999 -45.999c34 -10.667 75 -16 123 -16h164zM1114 1143v-1169h-557
c-168 0 -299 49.667 -393 149c-94 100 -141 240 -141 420c0 76.667 9.66699 143 29 199c9.33301 30 21.333 59.333 36 88c15.333 28.667 33.333 56 54 82c50 61.333 107.333 105.333 172 132c68 24.667 155.333 37 262 37h213v62h-246v228h246v96h325v-96h110v-228h-110z
" />
    <glyph glyph-name="Itilde" unicode="&#x128;" horiz-adv-x="613" 
d="M490 -27h-365v1494h365v-1494zM687 1868c-8 -52 -18.502 -94.999 -31.502 -128.999s-30.5 -62 -52.5 -84c-39.333 -46.667 -89.666 -70 -150.999 -70l-33 4l-35 7l-131 32l-16 5h-17c-17.333 0 -31.666 -4.33301 -42.999 -13c-8 -4 -16 -23 -24 -57h-150
c20.667 100.667 48.667 172.167 84 214.5s84 63.5 146 63.5l38 -2l33 -6l125 -33l23 -4l26 -2c15.333 2.66699 27 7.66699 35 15c6.66699 5.33301 12 12.666 16 21.999c3.33301 8 7 20.333 11 37h147z" />
    <glyph glyph-name="itilde" unicode="&#x129;" horiz-adv-x="529" 
d="M436 -27h-342v1109h342v-1109zM633 1475c-15.333 -98.667 -42.666 -168.999 -81.999 -210.999c-41.333 -48 -92 -72 -152 -72l-33 4l-35 6l-133 33l-14 4h-16c-19.333 0 -34.333 -3.33301 -45 -10c-7.33301 -6.66699 -16.333 -26.334 -27 -59.001h-145
c9.33301 54.667 20.666 98.334 33.999 131.001c12.667 31.333 28.334 58.666 47.001 81.999c37.333 43.333 86.666 65 147.999 65l39 -2l33 -6l127 -33l20 -4l27 -2c13.333 0 24 5.33301 32 16c6 4.66699 11.667 11 17 19c4 8 8.66699 21 14 39h144z" />
    <glyph glyph-name="Utilde" unicode="&#x168;" horiz-adv-x="1526" 
d="M1409 570c0 -50.667 -1.99902 -95.499 -5.99902 -134.499s-9.33301 -76.833 -16 -113.5c-14 -68.667 -37.333 -120.667 -70 -156c-58.667 -70.667 -133 -122.834 -223 -156.501s-200.667 -50.5 -332 -50.5s-241.333 16.333 -330 49c-90 33.333 -166.333 86 -229 158
c-30 41.333 -51 92 -63 152c-14 60 -21 144 -21 252v897h348v-889c0 -126 21.333 -214 64 -264c44.667 -48.667 121.667 -73 231 -73s186.666 24.333 231.999 73c43.333 50 65 138 65 264v889h350v-897zM1106 1868c-8 -52 -18.502 -94.999 -31.502 -128.999
s-30.5 -62 -52.5 -84c-39.333 -46.667 -89.666 -70 -150.999 -70l-33 4l-35 7l-131 32l-16 5h-17c-17.333 0 -31.666 -4.33301 -42.999 -13c-8 -4 -16 -23 -24 -57h-150c20.667 100.667 48.667 172.167 84 214.5s84 63.5 146 63.5l38 -2l33 -6l125 -33l23 -4l26 -2
c15.333 2.66699 27 7.66699 35 15c6.66699 5.33301 12 12.666 16 21.999c3.33301 8 7 20.333 11 37h147z" />
    <glyph glyph-name="utilde" unicode="&#x169;" horiz-adv-x="1196" 
d="M1093 -26h-546c-160 0 -276 32.667 -348 98c-74 65.333 -111 170.333 -111 315v695h325v-672c0 -64 10 -105 30 -123c17.333 -19.333 59 -29 125 -29h198v824h327v-1108zM951 1475c-19.333 -100 -47.9961 -170.333 -85.9961 -211c-41.333 -48 -92 -72 -152 -72l-33 4
l-35 6l-133 33l-14 4h-16c-20.667 0 -34.334 -2.66699 -41.001 -8c-8.66699 -5.33301 -14.334 -11.5 -17.001 -18.5s-7.33398 -21.167 -14.001 -42.5h-145c9.33301 54.667 21 98.334 35 131.001c12 31.333 27.333 58.666 46 81.999c37.333 43.333 86.666 65 147.999 65
l39 -2l32 -6l127 -33l21 -4l27 -2c13.333 1.33301 24.666 6 33.999 14c8.66699 8.66699 18.334 28.667 29.001 60h148z" />
    <glyph glyph-name="Ohorn" unicode="&#x1a0;" 
d="M1129 721c0 164 -29.333 285 -88 363c-58.667 76 -149.667 114 -273 114c-120 0 -210 -37.333 -270 -112c-30 -40 -52.5 -88.667 -67.5 -146s-22.5 -126.333 -22.5 -207c0 -170.667 29.333 -294.667 88 -372c57.333 -78 148 -117 272 -117c120 0 210.333 39 271 117
c60 76 90 196 90 360zM1461 1732l0.000976562 -113.999c0 -60 -11.667 -111.333 -35 -154c-14.667 -38 -55.334 -85 -122.001 -141l21 -20c120.667 -128.667 181 -322.667 181 -582c0 -260.667 -61 -455.334 -183 -584.001c-121.333 -129.333 -306.333 -194 -555 -194
c-254 0 -440.333 64.5 -559 193.5s-178 328.5 -178 598.5c0 255.333 60.667 446 182 572c120 124 305 186 555 186c178 0 323.333 -32 436 -96l79 77v48h-109v210h287z" />
    <glyph glyph-name="ohorn" unicode="&#x1a1;" horiz-adv-x="1211" 
d="M846 529c0 92.667 -22.667 165 -68 217c-40.667 52 -98.667 78 -174 78c-74.667 0 -132.667 -26 -174 -78c-42 -48 -63 -120.333 -63 -217c0 -49.333 5 -91 15 -125c9.33301 -36 25.333 -67.667 48 -95c42.667 -50.667 100.667 -76 174 -76
c75.333 0 133.333 25.333 174 76c45.333 52 68 125.333 68 220zM1029 945c104.667 -103.333 157.001 -241.999 157.001 -415.999c0 -173.333 -52.667 -312 -158 -416c-104.667 -104 -245.334 -156 -422.001 -156c-177.333 0 -318.333 52 -423 156
c-105.333 102 -158 240.667 -158 416c0 172 52.667 310.333 158 415c103.333 104 244.333 156 423 156c126.667 0 234.667 -26.333 324 -79l69 68v48h-109v199h287v-103c0 -60 -11.667 -111.333 -35 -154c-14 -36.667 -51.667 -81.334 -113 -134.001z" />
    <glyph glyph-name="Uhorn" unicode="&#x1af;" horiz-adv-x="1526" 
d="M1575 1732l0.000976562 -113.999c0 -60 -11.667 -111.333 -35 -154c-15.333 -40 -59 -89.333 -131 -148v-746c0 -50.667 -2 -95.5 -6 -134.5s-9.33301 -76.833 -16 -113.5c-14 -68.667 -37.333 -120.667 -70 -156c-58.667 -70.667 -133 -122.834 -223 -156.501
s-200.667 -50.5 -332 -50.5s-241.333 16.333 -330 49c-90 33.333 -166.333 86 -229 158c-30 41.333 -51 92 -63 152c-14 60 -21 144 -21 252v897h348v-889c0 -126 21.333 -214 64 -264c44.667 -48.667 121.667 -73 231 -73s186.666 24.333 231.999 73
c43.333 50 65 138 65 264v889h338v55h-109v210h287z" />
    <glyph glyph-name="uhorn" unicode="&#x1b0;" horiz-adv-x="1196" 
d="M1093 923v-949h-546c-160 0 -276 32.667 -348 98c-74 65.333 -111 170.333 -111 315v695h325v-672c0 -64 10 -105 30 -123c17.333 -19.333 59 -29 125 -29h198v824h317l7 7v48h-109v199h287v-103c0 -60 -11.667 -111.333 -35 -154c-16 -41.333 -62.667 -93.333 -140 -156
z" />
    <glyph glyph-name="uni1EA0" unicode="&#x1ea0;" horiz-adv-x="1436" 
d="M862 -437h-288v308h288v-308zM1524 -27h-393l-131 343h-584l-127 -343h-377l625 1494h356zM881 625l-178 455l-170 -455h348z" />
    <glyph glyph-name="uni1EA1" unicode="&#x1ea1;" horiz-adv-x="1262" 
d="M1166 -26l-769.999 0.000976562c-106.667 0 -191.334 28.667 -254.001 86c-63.333 56 -95 137.667 -95 245c0 128.667 34.833 221 104.5 277s182.5 84 338.5 84h340c0 53.333 -15.667 91.666 -47 114.999c-32 21.333 -92.333 32 -181 32h-485v268h590
c150 0 264 -34.667 342 -104s117 -174.333 117 -315v-688zM830.001 238.001l-0.000976562 166.001h-301c-60 0 -99 -5.83301 -117 -17.5s-27 -35.834 -27 -72.501c0 -27.333 6.33301 -47.333 19 -60c6.66699 -5.33301 18.834 -9.33301 36.501 -12s40.167 -4 67.5 -4h322z
M755 -436.998h-288v308h288v-308z" />
    <glyph glyph-name="uni1EA2" unicode="&#x1ea2;" horiz-adv-x="1436" 
d="M1524 -27h-393l-131 343h-584l-127 -343h-377l625 1494h356zM881 625l-178 455l-170 -455h348zM998 1777c0 -49.333 -12.334 -87.666 -37.001 -114.999c-26.667 -28 -63.667 -42 -111 -42l-75 -1c-19.333 0 -32 -2.66699 -38 -8c-6 -6.66699 -9 -20.334 -9 -41.001v-31
h-138v44c0 54 13.333 93.667 40 119c14 12.667 31.667 22.667 53 30c21.333 6 46 9 74 9h51c20.667 0 34 2.66699 40 8c5.33301 4.66699 8 14.334 8 29.001c0 15.333 -3 26 -9 32c-6 5.33301 -19 8 -39 8l-227 -1v119h246c31.333 0 54 -1.33301 68 -4
c16.667 -2.66699 30.334 -8 41.001 -16c21.333 -12.667 37.333 -31.334 48 -56.001c9.33301 -23.333 14 -51 14 -83z" />
    <glyph glyph-name="uni1EA3" unicode="&#x1ea3;" horiz-adv-x="1262" 
d="M1166 -26l-769.999 0.000976562c-106.667 0 -191.334 28.667 -254.001 86c-63.333 56 -95 137.667 -95 245c0 128.667 34.833 221 104.5 277s182.5 84 338.5 84h340c0 53.333 -15.667 91.666 -47 114.999c-32 21.333 -92.333 32 -181 32h-485v268h590
c150 0 264 -34.667 342 -104s117 -174.333 117 -315v-688zM830.001 238.001l-0.000976562 166.001h-301c-60 0 -99 -5.83301 -117 -17.5s-27 -35.834 -27 -72.501c0 -27.333 6.33301 -47.333 19 -60c6.66699 -5.33301 18.834 -9.33301 36.501 -12s40.167 -4 67.5 -4h322z
M892 1404c0 -49.333 -12.334 -87.666 -37.001 -114.999c-26.667 -28 -63.667 -42 -111 -42l-75 -1c-19.333 0 -32 -2.66699 -38 -8c-6 -6.66699 -9 -20.334 -9 -41.001v-31h-138v44c0 54 13.333 93.667 40 119c14 12.667 31.667 22.667 53 30c21.333 6 46 9 74 9h51
c20.667 0 34 2.66699 40 8c5.33301 4.66699 8 14.334 8 29.001c0 15.333 -3 26 -9 32c-6 5.33301 -19 8 -39 8l-227 -1v119h246c31.333 0 54 -1.33301 68 -4c16.667 -2.66699 30.334 -8 41.001 -16c21.333 -12.667 37.333 -31.334 48 -56.001c9.33301 -23.333 14 -51 14 -83
z" />
    <glyph glyph-name="uni1EA4" unicode="&#x1ea4;" horiz-adv-x="1436" 
d="M1070 1551h-193l-164 141l-162 -141h-194l227 329h258zM1524 -27h-393l-131 343h-584l-127 -343h-377l625 1494h356zM881 625l-178 455l-170 -455h348zM1183 2129h372l-402 -329h-198z" />
    <glyph glyph-name="uni1EA5" unicode="&#x1ea5;" horiz-adv-x="1262" 
d="M1166 -26l-769.999 0.000976562c-106.667 0 -191.334 28.667 -254.001 86c-63.333 56 -95 137.667 -95 245c0 128.667 34.833 221 104.5 277s182.5 84 338.5 84h340c0 53.333 -15.667 91.666 -47 114.999c-32 21.333 -92.333 32 -181 32h-485v268h590
c150 0 264 -34.667 342 -104s117 -174.333 117 -315v-688zM830.001 238.001l-0.000976562 166.001h-301c-60 0 -99 -5.83301 -117 -17.5s-27 -35.834 -27 -72.501c0 -27.333 6.33301 -47.333 19 -60c6.66699 -5.33301 18.834 -9.33301 36.501 -12s40.167 -4 67.5 -4h322z
M1082 1733h372l-402 -329h-198zM967 1157h-194l-162 142l-164 -142h-193l228 330h258z" />
    <glyph glyph-name="uni1EA6" unicode="&#x1ea6;" horiz-adv-x="1436" 
d="M1070 1551h-193l-164 141l-162 -141h-194l227 329h258zM1524 -27h-393l-131 343h-584l-127 -343h-377l625 1494h356zM881 625l-178 455l-170 -455h348zM1215 1800h-198l-402 329h372z" />
    <glyph glyph-name="uni1EA7" unicode="&#x1ea7;" horiz-adv-x="1262" 
d="M1166 -26l-769.999 0.000976562c-106.667 0 -191.334 28.667 -254.001 86c-63.333 56 -95 137.667 -95 245c0 128.667 34.833 221 104.5 277s182.5 84 338.5 84h340c0 53.333 -15.667 91.666 -47 114.999c-32 21.333 -92.333 32 -181 32h-485v268h590
c150 0 264 -34.667 342 -104s117 -174.333 117 -315v-688zM830.001 238.001l-0.000976562 166.001h-301c-60 0 -99 -5.83301 -117 -17.5s-27 -35.834 -27 -72.501c0 -27.333 6.33301 -47.333 19 -60c6.66699 -5.33301 18.834 -9.33301 36.501 -12s40.167 -4 67.5 -4h322z
M1113 1403h-198l-402 329h372zM967 1157h-194l-162 142l-164 -142h-193l228 330h258z" />
    <glyph glyph-name="uni1EA8" unicode="&#x1ea8;" horiz-adv-x="1436" 
d="M1070 1551h-193l-164 141l-162 -141h-194l227 329h258zM1524 -27h-393l-131 343h-584l-127 -343h-377l625 1494h356zM881 625l-178 455l-170 -455h348zM1363 1991c0 -49.333 -12.334 -87.667 -37.001 -115c-26.667 -28 -63.667 -42 -111 -42l-75 -1
c-19.333 0 -32 -2.66699 -38 -8c-6 -6.66699 -9 -20.334 -9 -41.001v-31h-138v44c0 54 13.333 93.667 40 119c14 12.667 31.667 22.667 53 30c21.333 6 46 9 74 9h51c20.667 0 34 2.66699 40 8c5.33301 4.66699 8 14.334 8 29.001c0 15.333 -3 26 -9 32
c-6 5.33301 -19 8 -39 8l-227 -1v119h246c31.333 0 54 -1.33301 68 -4c16.667 -2.66699 30.334 -8 41.001 -16c21.333 -12.667 37.333 -31.334 48 -56c9.33301 -23.333 14 -51 14 -83z" />
    <glyph glyph-name="uni1EA9" unicode="&#x1ea9;" horiz-adv-x="1262" 
d="M1166 -26l-769.999 0.000976562c-106.667 0 -191.334 28.667 -254.001 86c-63.333 56 -95 137.667 -95 245c0 128.667 34.833 221 104.5 277s182.5 84 338.5 84h340c0 53.333 -15.667 91.666 -47 114.999c-32 21.333 -92.333 32 -181 32h-485v268h590
c150 0 264 -34.667 342 -104s117 -174.333 117 -315v-688zM830.001 238.001l-0.000976562 166.001h-301c-60 0 -99 -5.83301 -117 -17.5s-27 -35.834 -27 -72.501c0 -27.333 6.33301 -47.333 19 -60c6.66699 -5.33301 18.834 -9.33301 36.501 -12s40.167 -4 67.5 -4h322z
M1266 1595c0 -49.333 -12.334 -87.666 -37.001 -114.999c-26.667 -28 -63.667 -42 -111 -42l-75 -1c-19.333 0 -32 -2.66699 -38 -8c-6 -6.66699 -9 -20.334 -9 -41.001v-31h-138v44c0 54 13.333 93.667 40 119c14 12.667 31.667 22.667 53 30c21.333 6 46 9 74 9h51
c20.667 0 34 2.66699 40 8c5.33301 4.66699 8 14.334 8 29.001c0 15.333 -3 26 -9 32c-6 5.33301 -19 8 -39 8l-227 -1v119h246c31.333 0 54 -1.33301 68 -4c16.667 -2.66699 30.334 -8 41.001 -16c21.333 -12.667 37.333 -31.334 48 -56.001c9.33301 -23.333 14 -51 14 -83
zM966.999 1157h-194l-162 142l-164 -142h-193l228 330h258z" />
    <glyph glyph-name="uni1EAA" unicode="&#x1eaa;" horiz-adv-x="1436" 
d="M1070 1551h-193l-164 141l-162 -141h-194l227 329h258zM1524 -27h-393l-131 343h-584l-127 -343h-377l625 1494h356zM881 625l-178 455l-170 -455h348zM1106 2206c-6.66699 -48 -16.6699 -89.668 -30.0029 -125.001c-15.333 -36.667 -32.666 -66 -51.999 -88
c-39.333 -46.667 -90 -70 -152 -70l-32 4l-35 7l-131 32l-17 5h-16c-18 0 -32.333 -4.33301 -43 -13c-8 -4 -16.333 -23 -25 -57h-149c9.33301 54.667 21 98.334 35 131.001c12 31.333 27.667 58.666 47 82c36.667 43.333 84.334 65 143.001 65l43 -2l33 -6l127 -33l20 -4
l27 -2c15.333 2.66699 27 7.66699 35 15c6.66699 5.33301 12 12.666 16 22c2.66699 8 6.33398 20.333 11.001 37h145z" />
    <glyph glyph-name="uni1EAB" unicode="&#x1eab;" horiz-adv-x="1262" 
d="M1166 -26l-769.999 0.000976562c-106.667 0 -191.334 28.667 -254.001 86c-63.333 56 -95 137.667 -95 245c0 128.667 34.833 221 104.5 277s182.5 84 338.5 84h340c0 53.333 -15.667 91.666 -47 114.999c-32 21.333 -92.333 32 -181 32h-485v268h590
c150 0 264 -34.667 342 -104s117 -174.333 117 -315v-688zM830.001 238.001l-0.000976562 166.001h-301c-60 0 -99 -5.83301 -117 -17.5s-27 -35.834 -27 -72.501c0 -27.333 6.33301 -47.333 19 -60c6.66699 -5.33301 18.834 -9.33301 36.501 -12s40.167 -4 67.5 -4h322z
M997 1798c-6.66699 -48 -16.6699 -89.666 -30.0029 -124.999c-15.333 -36.667 -32.666 -66 -51.999 -88c-39.333 -46.667 -90 -70 -152 -70l-32 4l-35 7l-131 32l-17 5h-16c-18 0 -32.333 -4.33301 -43 -13c-8 -4 -16.333 -23 -25 -57h-149
c9.33301 54.667 21 98.334 35 131.001c12 31.333 27.667 58.666 47 81.999c36.667 43.333 84.334 65 143.001 65l43 -2l33 -6l127 -33l20 -4l27 -2c15.333 2.66699 27 7.66699 35 15c6.66699 5.33301 12 12.666 16 21.999c2.66699 8 6.33398 20.333 11.001 37h145z
M966.997 1157h-194l-162 142l-164 -142h-193l228 330h258z" />
    <glyph glyph-name="uni1EAC" unicode="&#x1eac;" horiz-adv-x="1436" 
d="M1070 1551h-193l-164 141l-162 -141h-194l227 329h258zM1524 -27h-393l-131 343h-584l-127 -343h-377l625 1494h356zM881 625l-178 455l-170 -455h348zM862 -437h-288v308h288v-308z" />
    <glyph glyph-name="uni1EAD" unicode="&#x1ead;" horiz-adv-x="1262" 
d="M967 1157h-194l-162 142l-164 -142h-193l228 330h258zM1166 -26l-769.999 0.000976562c-106.667 0 -191.334 28.667 -254.001 86c-63.333 56 -95 137.667 -95 245c0 128.667 34.833 221 104.5 277s182.5 84 338.5 84h340c0 53.333 -15.667 91.666 -47 114.999
c-32 21.333 -92.333 32 -181 32h-485v268h590c150 0 264 -34.667 342 -104s117 -174.333 117 -315v-688zM830.001 238.001l-0.000976562 166.001h-301c-60 0 -99 -5.83301 -117 -17.5s-27 -35.834 -27 -72.501c0 -27.333 6.33301 -47.333 19 -60
c6.66699 -5.33301 18.834 -9.33301 36.501 -12s40.167 -4 67.5 -4h322zM755 -436.998h-288v308h288v-308z" />
    <glyph glyph-name="uni1EAE" unicode="&#x1eae;" horiz-adv-x="1436" 
d="M1524 -27h-393l-131 343h-584l-127 -343h-377l625 1494h356zM881 625l-178 455l-170 -455h348zM563 1828c0 -30.667 14 -58.0029 42 -82.0029c28 -21.333 65.667 -32 113 -32c49.333 0 86 9.33301 110 28c22.667 18.667 38 47.334 46 86.001h160
c0 -95.333 -29 -167.666 -87 -216.999c-56.667 -48.667 -133 -73 -229 -73c-99.333 0 -176.333 23 -231 69c-56.667 46.667 -85 120.334 -85 221.001h161zM1205 2165l-404 -329h-197l229 329h372z" />
    <glyph glyph-name="uni1EAF" unicode="&#x1eaf;" horiz-adv-x="1262" 
d="M1166 -26l-769.999 0.000976562c-106.667 0 -191.334 28.667 -254.001 86c-63.333 56 -95 137.667 -95 245c0 128.667 34.833 221 104.5 277s182.5 84 338.5 84h340c0 53.333 -15.667 91.666 -47 114.999c-32 21.333 -92.333 32 -181 32h-485v268h590
c150 0 264 -34.667 342 -104s117 -174.333 117 -315v-688zM830.001 238.001l-0.000976562 166.001h-301c-60 0 -99 -5.83301 -117 -17.5s-27 -35.834 -27 -72.501c0 -27.333 6.33301 -47.333 19 -60c6.66699 -5.33301 18.834 -9.33301 36.501 -12s40.167 -4 67.5 -4h322z
M450 1443c0 -30.667 14 -58.0029 42 -82.0029c28 -21.333 65.667 -32 113 -32c49.333 0 86 9.33301 110 28c22.667 18.667 38 47.334 46 86.001h160c0 -95.333 -29 -167.666 -87 -216.999c-56.667 -48.667 -133 -73 -229 -73c-99.333 0 -176.333 23 -231 69
c-56.667 46.667 -85 120.334 -85 221.001h161zM731 1767h372l-402 -329h-198z" />
    <glyph glyph-name="uni1EB0" unicode="&#x1eb0;" horiz-adv-x="1436" 
d="M1524 -27h-393l-131 343h-584l-127 -343h-377l625 1494h356zM881 625l-178 455l-170 -455h348zM563 1828c0 -30.667 14 -58.0029 42 -82.0029c28 -21.333 65.667 -32 113 -32c49.333 0 86 9.33301 110 28c22.667 18.667 38 47.334 46 86.001h160
c0 -95.333 -29 -167.666 -87 -216.999c-56.667 -48.667 -133 -73 -229 -73c-99.333 0 -176.333 23 -231 69c-56.667 46.667 -85 120.334 -85 221.001h161zM840 1845h-198l-402 329h372z" />
    <glyph glyph-name="uni1EB1" unicode="&#x1eb1;" horiz-adv-x="1262" 
d="M1166 -26l-769.999 0.000976562c-106.667 0 -191.334 28.667 -254.001 86c-63.333 56 -95 137.667 -95 245c0 128.667 34.833 221 104.5 277s182.5 84 338.5 84h340c0 53.333 -15.667 91.666 -47 114.999c-32 21.333 -92.333 32 -181 32h-485v268h590
c150 0 264 -34.667 342 -104s117 -174.333 117 -315v-688zM830.001 238.001l-0.000976562 166.001h-301c-60 0 -99 -5.83301 -117 -17.5s-27 -35.834 -27 -72.501c0 -27.333 6.33301 -47.333 19 -60c6.66699 -5.33301 18.834 -9.33301 36.501 -12s40.167 -4 67.5 -4h322z
M450 1443c0 -30.667 14 -58.0029 42 -82.0029c28 -21.333 65.667 -32 113 -32c49.333 0 86 9.33301 110 28c22.667 18.667 38 47.334 46 86.001h160c0 -95.333 -29 -167.666 -87 -216.999c-56.667 -48.667 -133 -73 -229 -73c-99.333 0 -176.333 23 -231 69
c-56.667 46.667 -85 120.334 -85 221.001h161zM728 1460h-198l-402 329h372z" />
    <glyph glyph-name="uni1EB2" unicode="&#x1eb2;" horiz-adv-x="1436" 
d="M1524 -27h-393l-131 343h-584l-127 -343h-377l625 1494h356zM881 625l-178 455l-170 -455h348zM563 1828c0 -30.667 14 -58.0029 42 -82.0029c28 -21.333 65.667 -32 113 -32c49.333 0 86 9.33301 110 28c22.667 18.667 38 47.334 46 86.001h160
c0 -95.333 -29 -167.666 -87 -216.999c-56.667 -48.667 -133 -73 -229 -73c-99.333 0 -176.333 23 -231 69c-56.667 46.667 -85 120.334 -85 221.001h161zM1069 2053c0 -49.333 -12.334 -87.666 -37.001 -114.999c-26.667 -28 -63.667 -42 -111 -42l-75 -1
c-19.333 0 -32 -2.66699 -38 -8c-6 -6.66699 -9 -20.334 -9 -41.001v-31h-138v44c0 54 13.333 93.667 40 119c14 12.667 31.667 22.667 53 30c21.333 6 46 9 74 9h51c20.667 0 34 2.66699 40 8c5.33301 4.66699 8 14.334 8 29.001c0 15.333 -3 26 -9 32
c-6 5.33301 -19 8 -39 8l-227 -1v119h246c31.333 0 54 -1.33301 68 -4c16.667 -2.66699 30.334 -8 41.001 -16c21.333 -12.667 37.333 -31.334 48 -56.001c9.33301 -23.333 14 -51 14 -83z" />
    <glyph glyph-name="uni1EB3" unicode="&#x1eb3;" horiz-adv-x="1262" 
d="M1166 -26l-769.999 0.000976562c-106.667 0 -191.334 28.667 -254.001 86c-63.333 56 -95 137.667 -95 245c0 128.667 34.833 221 104.5 277s182.5 84 338.5 84h340c0 53.333 -15.667 91.666 -47 114.999c-32 21.333 -92.333 32 -181 32h-485v268h590
c150 0 264 -34.667 342 -104s117 -174.333 117 -315v-688zM830.001 238.001l-0.000976562 166.001h-301c-60 0 -99 -5.83301 -117 -17.5s-27 -35.834 -27 -72.501c0 -27.333 6.33301 -47.333 19 -60c6.66699 -5.33301 18.834 -9.33301 36.501 -12s40.167 -4 67.5 -4h322z
M450 1443c0 -30.667 14 -58.0029 42 -82.0029c28 -21.333 65.667 -32 113 -32c49.333 0 86 9.33301 110 28c22.667 18.667 38 47.334 46 86.001h160c0 -95.333 -29 -167.666 -87 -216.999c-56.667 -48.667 -133 -73 -229 -73c-99.333 0 -176.333 23 -231 69
c-56.667 46.667 -85 120.334 -85 221.001h161zM950 1686c0 -49.333 -12.334 -87.666 -37.001 -114.999c-26.667 -28 -63.667 -42 -111 -42l-75 -1c-19.333 0 -32 -2.66699 -38 -8c-6 -6.66699 -9 -20.334 -9 -41.001v-31h-138v44c0 54 13.333 93.667 40 119
c14 12.667 31.667 22.667 53 30c21.333 6 46 9 74 9h51c20.667 0 34 2.66699 40 8c5.33301 4.66699 8 14.334 8 29.001c0 15.333 -3 26 -9 32c-6 5.33301 -19 8 -39 8l-227 -1v119h246c31.333 0 54 -1.33301 68 -4c16.667 -2.66699 30.334 -8 41.001 -16
c21.333 -12.667 37.333 -31.334 48 -56.001c9.33301 -23.333 14 -51 14 -83z" />
    <glyph glyph-name="uni1EB4" unicode="&#x1eb4;" horiz-adv-x="1436" 
d="M1524 -27h-393l-131 343h-584l-127 -343h-377l625 1494h356zM881 625l-178 455l-170 -455h348zM563 1828c0 -30.667 14 -58.0029 42 -82.0029c28 -21.333 65.667 -32 113 -32c49.333 0 86 9.33301 110 28c22.667 18.667 38 47.334 46 86.001h160
c0 -95.333 -29 -167.666 -87 -216.999c-56.667 -48.667 -133 -73 -229 -73c-99.333 0 -176.333 23 -231 69c-56.667 46.667 -85 120.334 -85 221.001h161zM1116 2180c-6.66699 -48 -16.6699 -89.666 -30.0029 -124.999c-15.333 -36.667 -32.666 -66 -51.999 -88
c-39.333 -46.667 -90 -70 -152 -70l-32 4l-35 7l-131 32l-17 5h-16c-18 0 -32.333 -4.33301 -43 -13c-8 -4 -16.333 -23 -25 -57h-149c9.33301 54.667 21 98.334 35 131.001c12 31.333 27.667 58.666 47 81.999c36.667 43.333 84.334 65 143.001 65l43 -2l33 -6l127 -33
l20 -4l27 -2c15.333 2.66699 27 7.66699 35 15c6.66699 5.33301 12 12.666 16 21.999c2.66699 8 6.33398 20.333 11.001 37h145z" />
    <glyph glyph-name="uni1EB5" unicode="&#x1eb5;" horiz-adv-x="1262" 
d="M1166 -26l-769.999 0.000976562c-106.667 0 -191.334 28.667 -254.001 86c-63.333 56 -95 137.667 -95 245c0 128.667 34.833 221 104.5 277s182.5 84 338.5 84h340c0 53.333 -15.667 91.666 -47 114.999c-32 21.333 -92.333 32 -181 32h-485v268h590
c150 0 264 -34.667 342 -104s117 -174.333 117 -315v-688zM830.001 238.001l-0.000976562 166.001h-301c-60 0 -99 -5.83301 -117 -17.5s-27 -35.834 -27 -72.501c0 -27.333 6.33301 -47.333 19 -60c6.66699 -5.33301 18.834 -9.33301 36.501 -12s40.167 -4 67.5 -4h322z
M450 1443c0 -30.667 14 -58.0029 42 -82.0029c28 -21.333 65.667 -32 113 -32c49.333 0 86 9.33301 110 28c22.667 18.667 38 47.334 46 86.001h160c0 -95.333 -29 -167.666 -87 -216.999c-56.667 -48.667 -133 -73 -229 -73c-99.333 0 -176.333 23 -231 69
c-56.667 46.667 -85 120.334 -85 221.001h161zM1054 1798c-6.66699 -48 -16.6699 -89.666 -30.0029 -124.999c-15.333 -36.667 -32.666 -66 -51.999 -88c-39.333 -46.667 -90 -70 -152 -70l-32 4l-35 7l-131 32l-17 5h-16c-18 0 -32.333 -4.33301 -43 -13
c-8 -4 -16.333 -23 -25 -57h-149c9.33301 54.667 21 98.334 35 131.001c12 31.333 27.667 58.666 47 81.999c36.667 43.333 84.334 65 143.001 65l43 -2l33 -6l127 -33l20 -4l27 -2c15.333 2.66699 27 7.66699 35 15c6.66699 5.33301 12 12.666 16 21.999
c2.66699 8 6.33398 20.333 11.001 37h145z" />
    <glyph glyph-name="uni1EB6" unicode="&#x1eb6;" horiz-adv-x="1436" 
d="M1524 -27h-393l-131 343h-584l-127 -343h-377l625 1494h356zM881 625l-178 455l-170 -455h348zM563 1828c0 -30.667 14 -58.0029 42 -82.0029c28 -21.333 65.667 -32 113 -32c49.333 0 86 9.33301 110 28c22.667 18.667 38 47.334 46 86.001h160
c0 -95.333 -29 -167.666 -87 -216.999c-56.667 -48.667 -133 -73 -229 -73c-99.333 0 -176.333 23 -231 69c-56.667 46.667 -85 120.334 -85 221.001h161zM862 -437.003h-288v308h288v-308z" />
    <glyph glyph-name="uni1EB7" unicode="&#x1eb7;" horiz-adv-x="1262" 
d="M1166 -26l-769.999 0.000976562c-106.667 0 -191.334 28.667 -254.001 86c-63.333 56 -95 137.667 -95 245c0 128.667 34.833 221 104.5 277s182.5 84 338.5 84h340c0 53.333 -15.667 91.666 -47 114.999c-32 21.333 -92.333 32 -181 32h-485v268h590
c150 0 264 -34.667 342 -104s117 -174.333 117 -315v-688zM830.001 238.001l-0.000976562 166.001h-301c-60 0 -99 -5.83301 -117 -17.5s-27 -35.834 -27 -72.501c0 -27.333 6.33301 -47.333 19 -60c6.66699 -5.33301 18.834 -9.33301 36.501 -12s40.167 -4 67.5 -4h322z
M450 1443c0 -30.667 14 -58.0029 42 -82.0029c28 -21.333 65.667 -32 113 -32c49.333 0 86 9.33301 110 28c22.667 18.667 38 47.334 46 86.001h160c0 -95.333 -29 -167.666 -87 -216.999c-56.667 -48.667 -133 -73 -229 -73c-99.333 0 -176.333 23 -231 69
c-56.667 46.667 -85 120.334 -85 221.001h161zM755 -437.001h-288v308h288v-308z" />
    <glyph glyph-name="uni1EB8" unicode="&#x1eb8;" horiz-adv-x="1342" 
d="M1256 -26l-535.002 -0.000976562c-113.333 0 -202.666 9.66699 -267.999 29c-66.667 18.667 -131 53.334 -193 104.001c-76 64 -132.667 144.333 -170 241c-38 97.333 -57 213 -57 347c0 262 56.667 456.333 170 583c112 126 287.333 189 526 189h527v-303h-521
c-99.333 0 -173.666 -24 -222.999 -72c-50.667 -48.667 -80 -119 -88 -211l832 -2v-301h-834c0 -50 6.33301 -94.333 19 -133c10.667 -38 27.667 -68.667 51 -92c48.667 -50.667 129.667 -76 243 -76h521v-303zM861.998 -437.001h-288v308h288v-308z" />
    <glyph glyph-name="uni1EB9" unicode="&#x1eb9;" horiz-adv-x="1047" 
d="M1016 -26l-430.001 0.00195312c-180 0 -316.667 47 -410 141c-94 92.667 -141 230.667 -141 414c0 180 47 317 141 411c94.667 94 231.334 141 410.001 141h430v-270h-391c-94 0 -156 -11.667 -186 -35c-30.667 -24.667 -46 -62.334 -46 -113.001h623v-272h-623
c0 -48.667 13 -85.334 39 -110.001s89.667 -37 191 -37h393v-270zM754.999 -436.998h-288v308h288v-308z" />
    <glyph glyph-name="uni1EBA" unicode="&#x1eba;" horiz-adv-x="1342" 
d="M1256 -26l-535.002 -0.000976562c-113.333 0 -202.666 9.66699 -267.999 29c-66.667 18.667 -131 53.334 -193 104.001c-76 64 -132.667 144.333 -170 241c-38 97.333 -57 213 -57 347c0 262 56.667 456.333 170 583c112 126 287.333 189 526 189h527v-303h-521
c-99.333 0 -173.666 -24 -222.999 -72c-50.667 -48.667 -80 -119 -88 -211l832 -2v-301h-834c0 -50 6.33301 -94.333 19 -133c10.667 -38 27.667 -68.667 51 -92c48.667 -50.667 129.667 -76 243 -76h521v-303zM1096 1777c0 -49.333 -12.334 -87.666 -37.001 -114.999
c-26.667 -28 -63.667 -42 -111 -42l-75 -1c-19.333 0 -32 -2.66699 -38 -8c-6 -6.66699 -9 -20.334 -9 -41.001v-31h-138v44c0 54 13.333 93.667 40 119c14 12.667 31.667 22.667 53 30c21.333 6 46 9 74 9h51c20.667 0 34 2.66699 40 8c5.33301 4.66699 8 14.334 8 29.001
c0 15.333 -3 26 -9 32c-6 5.33301 -19 8 -39 8l-227 -1v119h246c31.333 0 54 -1.33301 68 -4c16.667 -2.66699 30.334 -8 41.001 -16c21.333 -12.667 37.333 -31.334 48 -56.001c9.33301 -23.333 14 -51 14 -83z" />
    <glyph glyph-name="uni1EBB" unicode="&#x1ebb;" horiz-adv-x="1047" 
d="M1016 -26l-430.001 0.00195312c-180 0 -316.667 47 -410 141c-94 92.667 -141 230.667 -141 414c0 180 47 317 141 411c94.667 94 231.334 141 410.001 141h430v-270h-391c-94 0 -156 -11.667 -186 -35c-30.667 -24.667 -46 -62.334 -46 -113.001h623v-272h-623
c0 -48.667 13 -85.334 39 -110.001s89.667 -37 191 -37h393v-270zM993.999 1404c0 -49.333 -12.334 -87.666 -37.001 -114.999c-26.667 -28 -63.667 -42 -111 -42l-75 -1c-19.333 0 -32 -2.66699 -38 -8c-6 -6.66699 -9 -20.334 -9 -41.001v-31h-138v44
c0 54 13.333 93.667 40 119c14 12.667 31.667 22.667 53 30c21.333 6 46 9 74 9h51c20.667 0 34 2.66699 40 8c5.33301 4.66699 8 14.334 8 29.001c0 15.333 -3 26 -9 32c-6 5.33301 -19 8 -39 8l-227 -1v119h246c31.333 0 54 -1.33301 68 -4
c16.667 -2.66699 30.334 -8 41.001 -16c21.333 -12.667 37.333 -31.334 48 -56.001c9.33301 -23.333 14 -51 14 -83z" />
    <glyph glyph-name="uni1EBC" unicode="&#x1ebc;" horiz-adv-x="1342" 
d="M1256 -26l-535.002 -0.000976562c-113.333 0 -202.666 9.66699 -267.999 29c-66.667 18.667 -131 53.334 -193 104.001c-76 64 -132.667 144.333 -170 241c-38 97.333 -57 213 -57 347c0 262 56.667 456.333 170 583c112 126 287.333 189 526 189h527v-303h-521
c-99.333 0 -173.666 -24 -222.999 -72c-50.667 -48.667 -80 -119 -88 -211l832 -2v-301h-834c0 -50 6.33301 -94.333 19 -133c10.667 -38 27.667 -68.667 51 -92c48.667 -50.667 129.667 -76 243 -76h521v-303zM1053 1868c-6.66699 -48 -16.6699 -89.666 -30.0029 -124.999
c-15.333 -36.667 -32.666 -66 -51.999 -88c-39.333 -46.667 -90 -70 -152 -70l-32 4l-35 7l-131 32l-17 5h-16c-18 0 -32.333 -4.33301 -43 -13c-8 -4 -16.333 -23 -25 -57h-149c9.33301 54.667 21 98.334 35 131.001c12 31.333 27.667 58.666 47 81.999
c36.667 43.333 84.334 65 143.001 65l43 -2l33 -6l127 -33l20 -4l27 -2c15.333 2.66699 27 7.66699 35 15c6.66699 5.33301 12 12.666 16 21.999c2.66699 8 6.33398 20.333 11.001 37h145z" />
    <glyph glyph-name="uni1EBD" unicode="&#x1ebd;" horiz-adv-x="1047" 
d="M1016 -26l-430.001 0.00195312c-180 0 -316.667 47 -410 141c-94 92.667 -141 230.667 -141 414c0 180 47 317 141 411c94.667 94 231.334 141 410.001 141h430v-270h-391c-94 0 -156 -11.667 -186 -35c-30.667 -24.667 -46 -62.334 -46 -113.001h623v-272h-623
c0 -48.667 13 -85.334 39 -110.001s89.667 -37 191 -37h393v-270zM1041 1475c-15.333 -98.667 -42.666 -168.999 -81.999 -210.999c-41.333 -48 -92 -72 -152 -72l-33 4l-35 6l-133 33l-14 4h-16c-19.333 0 -34.333 -3.33301 -45 -10
c-7.33301 -6.66699 -16.333 -26.334 -27 -59.001h-145c9.33301 54.667 20.666 98.334 33.999 131.001c12.667 31.333 28.334 58.666 47.001 81.999c37.333 43.333 86.666 65 147.999 65l39 -2l33 -6l127 -33l20 -4l27 -2c13.333 0 24 5.33301 32 16
c6 4.66699 11.667 11 17 19c4 8 8.66699 21 14 39h144z" />
    <glyph glyph-name="uni1EBE" unicode="&#x1ebe;" horiz-adv-x="1342" 
d="M1256 -26l-535.002 -0.000976562c-113.333 0 -202.666 9.66699 -267.999 29c-66.667 18.667 -131 53.334 -193 104.001c-76 64 -132.667 144.333 -170 241c-38 97.333 -57 213 -57 347c0 262 56.667 456.333 170 583c112 126 287.333 189 526 189h527v-303h-521
c-99.333 0 -173.666 -24 -222.999 -72c-50.667 -48.667 -80 -119 -88 -211l832 -2v-301h-834c0 -50 6.33301 -94.333 19 -133c10.667 -38 27.667 -68.667 51 -92c48.667 -50.667 129.667 -76 243 -76h521v-303zM1240 2129h372l-402 -329h-198zM1117 1551h-193l-164 141
l-162 -141h-194l227 329h260z" />
    <glyph glyph-name="uni1EBF" unicode="&#x1ebf;" horiz-adv-x="1047" 
d="M969 1157h-195l-161 142l-164 -142h-193l228 330h258zM1016 -26l-430.001 0.00195312c-180 0 -316.667 47 -410 141c-94 92.667 -141 230.667 -141 414c0 180 47 317 141 411c94.667 94 231.334 141 410.001 141h430v-270h-391c-94 0 -156 -11.667 -186 -35
c-30.667 -24.667 -46 -62.334 -46 -113.001h623v-272h-623c0 -48.667 13 -85.334 39 -110.001s89.667 -37 191 -37h393v-270zM1082 1733h372l-402 -329h-198z" />
    <glyph glyph-name="uni1EC0" unicode="&#x1ec0;" horiz-adv-x="1342" 
d="M1256 -26l-535.002 -0.000976562c-113.333 0 -202.666 9.66699 -267.999 29c-66.667 18.667 -131 53.334 -193 104.001c-76 64 -132.667 144.333 -170 241c-38 97.333 -57 213 -57 347c0 262 56.667 456.333 170 583c112 126 287.333 189 526 189h527v-303h-521
c-99.333 0 -173.666 -24 -222.999 -72c-50.667 -48.667 -80 -119 -88 -211l832 -2v-301h-834c0 -50 6.33301 -94.333 19 -133c10.667 -38 27.667 -68.667 51 -92c48.667 -50.667 129.667 -76 243 -76h521v-303zM1260 1800h-198l-402 329h372zM1117 1551h-193l-164 141
l-162 -141h-194l227 329h260z" />
    <glyph glyph-name="uni1EC1" unicode="&#x1ec1;" horiz-adv-x="1047" 
d="M1016 -26l-430.001 0.00195312c-180 0 -316.667 47 -410 141c-94 92.667 -141 230.667 -141 414c0 180 47 317 141 411c94.667 94 231.334 141 410.001 141h430v-270h-391c-94 0 -156 -11.667 -186 -35c-30.667 -24.667 -46 -62.334 -46 -113.001h623v-272h-623
c0 -48.667 13 -85.334 39 -110.001s89.667 -37 191 -37h393v-270zM1113 1403h-198l-402 329h372zM968.999 1157h-195l-161 142l-164 -142h-193l228 330h258z" />
    <glyph glyph-name="uni1EC2" unicode="&#x1ec2;" horiz-adv-x="1342" 
d="M1256 -26l-535.002 -0.000976562c-113.333 0 -202.666 9.66699 -267.999 29c-66.667 18.667 -131 53.334 -193 104.001c-76 64 -132.667 144.333 -170 241c-38 97.333 -57 213 -57 347c0 262 56.667 456.333 170 583c112 126 287.333 189 526 189h527v-303h-521
c-99.333 0 -173.666 -24 -222.999 -72c-50.667 -48.667 -80 -119 -88 -211l832 -2v-301h-834c0 -50 6.33301 -94.333 19 -133c10.667 -38 27.667 -68.667 51 -92c48.667 -50.667 129.667 -76 243 -76h521v-303zM1413 1991c0 -49.333 -12.334 -87.666 -37.001 -114.999
c-26.667 -28 -63.667 -42 -111 -42l-75 -1c-19.333 0 -32 -2.66699 -38 -8c-6 -6.66699 -9 -20.334 -9 -41.001v-31h-138v44c0 54 13.333 93.667 40 119c14 12.667 31.667 22.667 53 30c21.333 6 46 9 74 9h51c20.667 0 34 2.66699 40 8c5.33301 4.66699 8 14.334 8 29.001
c0 15.333 -3 26 -9 32c-6 5.33301 -19 8 -39 8l-227 -1v119h246c31.333 0 54 -1.33301 68 -4c16.667 -2.66699 30.334 -8 41.001 -16c21.333 -12.667 37.333 -31.334 48 -56.001c9.33301 -23.333 14 -51 14 -83zM1117 1551h-193l-164 141l-162 -141h-194l227 329h260z" />
    <glyph glyph-name="uni1EC3" unicode="&#x1ec3;" horiz-adv-x="1047" 
d="M969 1157h-195l-161 142l-164 -142h-193l228 330h258zM1016 -26l-430.001 0.00195312c-180 0 -316.667 47 -410 141c-94 92.667 -141 230.667 -141 414c0 180 47 317 141 411c94.667 94 231.334 141 410.001 141h430v-270h-391c-94 0 -156 -11.667 -186 -35
c-30.667 -24.667 -46 -62.334 -46 -113.001h623v-272h-623c0 -48.667 13 -85.334 39 -110.001s89.667 -37 191 -37h393v-270zM1266 1595c0 -49.333 -12.334 -87.666 -37.001 -114.999c-26.667 -28 -63.667 -42 -111 -42l-75 -1c-19.333 0 -32 -2.66699 -38 -8
c-6 -6.66699 -9 -20.334 -9 -41.001v-31h-138v44c0 54 13.333 93.667 40 119c14 12.667 31.667 22.667 53 30c21.333 6 46 9 74 9h51c20.667 0 34 2.66699 40 8c5.33301 4.66699 8 14.334 8 29.001c0 15.333 -3 26 -9 32c-6 5.33301 -19 8 -39 8l-227 -1v119h246
c31.333 0 54 -1.33301 68 -4c16.667 -2.66699 30.334 -8 41.001 -16c21.333 -12.667 37.333 -31.334 48 -56.001c9.33301 -23.333 14 -51 14 -83z" />
    <glyph glyph-name="uni1EC4" unicode="&#x1ec4;" horiz-adv-x="1342" 
d="M1256 -26l-535.002 -0.000976562c-113.333 0 -202.666 9.66699 -267.999 29c-66.667 18.667 -131 53.334 -193 104.001c-76 64 -132.667 144.333 -170 241c-38 97.333 -57 213 -57 347c0 262 56.667 456.333 170 583c112 126 287.333 189 526 189h527v-303h-521
c-99.333 0 -173.666 -24 -222.999 -72c-50.667 -48.667 -80 -119 -88 -211l832 -2v-301h-834c0 -50 6.33301 -94.333 19 -133c10.667 -38 27.667 -68.667 51 -92c48.667 -50.667 129.667 -76 243 -76h521v-303zM1156 2206c-6.66699 -48 -16.6699 -89.667 -30.0029 -125
c-15.333 -36.667 -32.666 -66 -51.999 -88c-39.333 -46.667 -90 -70 -152 -70l-32 4l-35 7l-131 32l-17 5h-16c-18 0 -32.333 -4.33301 -43 -13c-8 -4 -16.333 -23 -25 -57h-149c9.33301 54.667 21 98.334 35 131.001c12 31.333 27.667 58.666 47 82
c36.667 43.333 84.334 65 143.001 65l43 -2l33 -6l127 -33l20 -4l27 -2c15.333 2.66699 27 7.66699 35 15c6.66699 5.33301 12 12.666 16 21.999c2.66699 8 6.33398 20.333 11.001 37h145zM1117 1551h-193l-164 141l-162 -141h-194l227 329h260z" />
    <glyph glyph-name="uni1EC5" unicode="&#x1ec5;" horiz-adv-x="1047" 
d="M969 1157h-195l-161 142l-164 -142h-193l228 330h258zM1016 -26l-430.001 0.00195312c-180 0 -316.667 47 -410 141c-94 92.667 -141 230.667 -141 414c0 180 47 317 141 411c94.667 94 231.334 141 410.001 141h430v-270h-391c-94 0 -156 -11.667 -186 -35
c-30.667 -24.667 -46 -62.334 -46 -113.001h623v-272h-623c0 -48.667 13 -85.334 39 -110.001s89.667 -37 191 -37h393v-270zM996.999 1798c-6.66699 -48 -16.6699 -89.666 -30.0029 -124.999c-15.333 -36.667 -32.666 -66 -51.999 -88c-39.333 -46.667 -90 -70 -152 -70
l-32 4l-35 7l-131 32l-17 5h-16c-18 0 -32.333 -4.33301 -43 -13c-8 -4 -16.333 -23 -25 -57h-149c9.33301 54.667 21 98.334 35 131.001c12 31.333 27.667 58.666 47 81.999c36.667 43.333 84.334 65 143.001 65l43 -2l33 -6l127 -33l20 -4l27 -2
c15.333 2.66699 27 7.66699 35 15c6.66699 5.33301 12 12.666 16 21.999c2.66699 8 6.33398 20.333 11.001 37h145z" />
    <glyph glyph-name="uni1EC6" unicode="&#x1ec6;" horiz-adv-x="1342" 
d="M1117 1551h-193l-164 141l-162 -141h-194l227 329h260zM1256 -26l-535.002 -0.000976562c-113.333 0 -202.666 9.66699 -267.999 29c-66.667 18.667 -131 53.334 -193 104.001c-76 64 -132.667 144.333 -170 241c-38 97.333 -57 213 -57 347
c0 262 56.667 456.333 170 583c112 126 287.333 189 526 189h527v-303h-521c-99.333 0 -173.666 -24 -222.999 -72c-50.667 -48.667 -80 -119 -88 -211l832 -2v-301h-834c0 -50 6.33301 -94.333 19 -133c10.667 -38 27.667 -68.667 51 -92
c48.667 -50.667 129.667 -76 243 -76h521v-303zM861.998 -437.001h-288v308h288v-308z" />
    <glyph glyph-name="uni1EC7" unicode="&#x1ec7;" horiz-adv-x="1047" 
d="M969 1157h-195l-161 142l-164 -142h-193l228 330h258zM1016 -26l-430.001 0.00195312c-180 0 -316.667 47 -410 141c-94 92.667 -141 230.667 -141 414c0 180 47 317 141 411c94.667 94 231.334 141 410.001 141h430v-270h-391c-94 0 -156 -11.667 -186 -35
c-30.667 -24.667 -46 -62.334 -46 -113.001h623v-272h-623c0 -48.667 13 -85.334 39 -110.001s89.667 -37 191 -37h393v-270zM754.999 -436.998h-288v308h288v-308z" />
    <glyph glyph-name="uni1EC8" unicode="&#x1ec8;" horiz-adv-x="613" 
d="M490 -27h-365v1494h365v-1494zM642 1777c0 -49.333 -12.334 -87.666 -37.001 -114.999c-26.667 -28 -63.667 -42 -111 -42l-75 -1c-19.333 0 -32 -2.66699 -38 -8c-6 -6.66699 -9 -20.334 -9 -41.001v-31h-138v44c0 54 13.333 93.667 40 119
c14 12.667 31.667 22.667 53 30c21.333 6 46 9 74 9h51c20.667 0 34 2.66699 40 8c5.33301 4.66699 8 14.334 8 29.001c0 15.333 -3 26 -9 32c-6 5.33301 -19 8 -39 8l-227 -1v119h246c31.333 0 54 -1.33301 68 -4c16.667 -2.66699 30.334 -8 41.001 -16
c21.333 -12.667 37.333 -31.334 48 -56.001c9.33301 -23.333 14 -51 14 -83z" />
    <glyph glyph-name="uni1EC9" unicode="&#x1ec9;" horiz-adv-x="529" 
d="M436 -27h-342v1109h342v-1109zM609 1404c0 -49.333 -12.334 -87.666 -37.001 -114.999c-26.667 -28 -63.667 -42 -111 -42l-75 -1c-19.333 0 -32 -2.66699 -38 -8c-6 -6.66699 -9 -20.334 -9 -41.001v-31h-138v44c0 54 13.333 93.667 40 119
c14 12.667 31.667 22.667 53 30c21.333 6 46 9 74 9h51c20.667 0 34 2.66699 40 8c5.33301 4.66699 8 14.334 8 29.001c0 15.333 -3 26 -9 32c-6 5.33301 -19 8 -39 8l-227 -1v119h246c31.333 0 54 -1.33301 68 -4c16.667 -2.66699 30.334 -8 41.001 -16
c21.333 -12.667 37.333 -31.334 48 -56.001c9.33301 -23.333 14 -51 14 -83z" />
    <glyph glyph-name="uni1ECA" unicode="&#x1eca;" horiz-adv-x="613" 
d="M490 -27h-365v1494h365v-1494zM452 -437h-288v308h288v-308z" />
    <glyph glyph-name="uni1ECB" unicode="&#x1ecb;" horiz-adv-x="529" 
d="M436 1151h-342v316h342v-316zM436 -27h-342v1109h342v-1109zM404 -437h-288v308h288v-308z" />
    <glyph glyph-name="uni1ECC" unicode="&#x1ecc;" 
d="M1506 721c0 -260.667 -61 -455.333 -183 -584c-121.333 -129.333 -306.333 -194 -555 -194c-254 0 -440.333 64.5 -559 193.5s-178 328.5 -178 598.5c0 255.333 60.667 446 182 572c120 124 305 186 555 186s435.667 -63.333 557 -190
c120.667 -128.667 181 -322.667 181 -582zM1129 721.001c0 164 -29.333 285 -88 363c-58.667 76 -149.667 114 -273 114c-120 0 -210 -37.333 -270 -112c-30 -40 -52.5 -88.667 -67.5 -146s-22.5 -126.333 -22.5 -207c0 -170.667 29.333 -294.667 88 -372
c57.333 -78 148 -117 272 -117c120 0 210.333 39 271 117c60 76 90 196 90 360zM913 -436.999h-288v308h288v-308z" />
    <glyph glyph-name="uni1ECD" unicode="&#x1ecd;" horiz-adv-x="1211" 
d="M1186 529c0 -173.333 -52.667 -312 -158 -416c-104.667 -104 -245.334 -156 -422.001 -156c-177.333 0 -318.333 52 -423 156c-105.333 102 -158 240.667 -158 416c0 172 52.667 310.333 158 415c103.333 104 244.333 156 423 156
c176.667 0 317.334 -51.333 422.001 -154c105.333 -103.333 158 -242.333 158 -417zM846 529c0 92.667 -22.667 165 -68 217c-40.667 52 -98.667 78 -174 78c-74.667 0 -132.667 -26 -174 -78c-42 -48 -63 -120.333 -63 -217c0 -49.333 5 -91 15 -125
c9.33301 -36 25.333 -67.667 48 -95c42.667 -50.667 100.667 -76 174 -76c75.333 0 133.333 25.333 174 76c45.333 52 68 125.333 68 220zM750 -437h-288v308h288v-308z" />
    <glyph glyph-name="uni1ECE" unicode="&#x1ece;" 
d="M1506 721c0 -260.667 -61 -455.333 -183 -584c-121.333 -129.333 -306.333 -194 -555 -194c-254 0 -440.333 64.5 -559 193.5s-178 328.5 -178 598.5c0 255.333 60.667 446 182 572c120 124 305 186 555 186s435.667 -63.333 557 -190
c120.667 -128.667 181 -322.667 181 -582zM1129 721.001c0 164 -29.333 285 -88 363c-58.667 76 -149.667 114 -273 114c-120 0 -210 -37.333 -270 -112c-30 -40 -52.5 -88.667 -67.5 -146s-22.5 -126.333 -22.5 -207c0 -170.667 29.333 -294.667 88 -372
c57.333 -78 148 -117 272 -117c120 0 210.333 39 271 117c60 76 90 196 90 360zM1096 1777c0 -49.333 -12.334 -87.666 -37.001 -114.999c-26.667 -28 -63.667 -42 -111 -42l-75 -1c-19.333 0 -32 -2.66699 -38 -8c-6 -6.66699 -9 -20.334 -9 -41.001v-31h-138v44
c0 54 13.333 93.667 40 119c14 12.667 31.667 22.667 53 30c21.333 6 46 9 74 9h51c20.667 0 34 2.66699 40 8c5.33301 4.66699 8 14.334 8 29.001c0 15.333 -3 26 -9 32c-6 5.33301 -19 8 -39 8l-227 -1v119h246c31.333 0 54 -1.33301 68 -4
c16.667 -2.66699 30.334 -8 41.001 -16c21.333 -12.667 37.333 -31.334 48 -56.001c9.33301 -23.333 14 -51 14 -83z" />
    <glyph glyph-name="uni1ECF" unicode="&#x1ecf;" horiz-adv-x="1211" 
d="M1186 529c0 -173.333 -52.667 -312 -158 -416c-104.667 -104 -245.334 -156 -422.001 -156c-177.333 0 -318.333 52 -423 156c-105.333 102 -158 240.667 -158 416c0 172 52.667 310.333 158 415c103.333 104 244.333 156 423 156
c176.667 0 317.334 -51.333 422.001 -154c105.333 -103.333 158 -242.333 158 -417zM846 529c0 92.667 -22.667 165 -68 217c-40.667 52 -98.667 78 -174 78c-74.667 0 -132.667 -26 -174 -78c-42 -48 -63 -120.333 -63 -217c0 -49.333 5 -91 15 -125
c9.33301 -36 25.333 -67.667 48 -95c42.667 -50.667 100.667 -76 174 -76c75.333 0 133.333 25.333 174 76c45.333 52 68 125.333 68 220zM938 1404c0 -49.333 -12.334 -87.666 -37.001 -114.999c-26.667 -28 -63.667 -42 -111 -42l-75 -1c-19.333 0 -32 -2.66699 -38 -8
c-6 -6.66699 -9 -20.334 -9 -41.001v-31h-138v44c0 54 13.333 93.667 40 119c14 12.667 31.667 22.667 53 30c21.333 6 46 9 74 9h51c20.667 0 34 2.66699 40 8c5.33301 4.66699 8 14.334 8 29.001c0 15.333 -3 26 -9 32c-6 5.33301 -19 8 -39 8l-227 -1v119h246
c31.333 0 54 -1.33301 68 -4c16.667 -2.66699 30.334 -8 41.001 -16c21.333 -12.667 37.333 -31.334 48 -56.001c9.33301 -23.333 14 -51 14 -83z" />
    <glyph glyph-name="uni1ED0" unicode="&#x1ed0;" 
d="M1121 1551h-193l-164 141l-162 -141h-194l227 329h260zM1506 721c0 -260.667 -61 -455.333 -183 -584c-121.333 -129.333 -306.333 -194 -555 -194c-254 0 -440.333 64.5 -559 193.5s-178 328.5 -178 598.5c0 255.333 60.667 446 182 572c120 124 305 186 555 186
s435.667 -63.333 557 -190c120.667 -128.667 181 -322.667 181 -582zM1129 721.001c0 164 -29.333 285 -88 363c-58.667 76 -149.667 114 -273 114c-120 0 -210 -37.333 -270 -112c-30 -40 -52.5 -88.667 -67.5 -146s-22.5 -126.333 -22.5 -207
c0 -170.667 29.333 -294.667 88 -372c57.333 -78 148 -117 272 -117c120 0 210.333 39 271 117c60 76 90 196 90 360zM1240 2129h372l-402 -329h-198z" />
    <glyph glyph-name="uni1ED1" unicode="&#x1ed1;" horiz-adv-x="1211" 
d="M963 1157h-195l-162 142l-163 -142h-192l226 330h261zM1186 529c0 -173.333 -52.667 -312 -158 -416c-104.667 -104 -245.334 -156 -422.001 -156c-177.333 0 -318.333 52 -423 156c-105.333 102 -158 240.667 -158 416c0 172 52.667 310.333 158 415
c103.333 104 244.333 156 423 156c176.667 0 317.334 -51.333 422.001 -154c105.333 -103.333 158 -242.333 158 -417zM846 529c0 92.667 -22.667 165 -68 217c-40.667 52 -98.667 78 -174 78c-74.667 0 -132.667 -26 -174 -78c-42 -48 -63 -120.333 -63 -217
c0 -49.333 5 -91 15 -125c9.33301 -36 25.333 -67.667 48 -95c42.667 -50.667 100.667 -76 174 -76c75.333 0 133.333 25.333 174 76c45.333 52 68 125.333 68 220zM1082 1733h372l-402 -329h-198z" />
    <glyph glyph-name="uni1ED2" unicode="&#x1ed2;" 
d="M1121 1551h-193l-164 141l-162 -141h-194l227 329h260zM1506 721c0 -260.667 -61 -455.333 -183 -584c-121.333 -129.333 -306.333 -194 -555 -194c-254 0 -440.333 64.5 -559 193.5s-178 328.5 -178 598.5c0 255.333 60.667 446 182 572c120 124 305 186 555 186
s435.667 -63.333 557 -190c120.667 -128.667 181 -322.667 181 -582zM1129 721.001c0 164 -29.333 285 -88 363c-58.667 76 -149.667 114 -273 114c-120 0 -210 -37.333 -270 -112c-30 -40 -52.5 -88.667 -67.5 -146s-22.5 -126.333 -22.5 -207
c0 -170.667 29.333 -294.667 88 -372c57.333 -78 148 -117 272 -117c120 0 210.333 39 271 117c60 76 90 196 90 360zM1260 1800h-198l-402 329h372z" />
    <glyph glyph-name="uni1ED3" unicode="&#x1ed3;" horiz-adv-x="1211" 
d="M963 1157h-195l-162 142l-163 -142h-192l226 330h261zM1186 529c0 -173.333 -52.667 -312 -158 -416c-104.667 -104 -245.334 -156 -422.001 -156c-177.333 0 -318.333 52 -423 156c-105.333 102 -158 240.667 -158 416c0 172 52.667 310.333 158 415
c103.333 104 244.333 156 423 156c176.667 0 317.334 -51.333 422.001 -154c105.333 -103.333 158 -242.333 158 -417zM846 529c0 92.667 -22.667 165 -68 217c-40.667 52 -98.667 78 -174 78c-74.667 0 -132.667 -26 -174 -78c-42 -48 -63 -120.333 -63 -217
c0 -49.333 5 -91 15 -125c9.33301 -36 25.333 -67.667 48 -95c42.667 -50.667 100.667 -76 174 -76c75.333 0 133.333 25.333 174 76c45.333 52 68 125.333 68 220zM1113 1403h-198l-402 329h372z" />
    <glyph glyph-name="uni1ED4" unicode="&#x1ed4;" 
d="M1121 1551h-193l-164 141l-162 -141h-194l227 329h260zM1506 721c0 -260.667 -61 -455.333 -183 -584c-121.333 -129.333 -306.333 -194 -555 -194c-254 0 -440.333 64.5 -559 193.5s-178 328.5 -178 598.5c0 255.333 60.667 446 182 572c120 124 305 186 555 186
s435.667 -63.333 557 -190c120.667 -128.667 181 -322.667 181 -582zM1129 721.001c0 164 -29.333 285 -88 363c-58.667 76 -149.667 114 -273 114c-120 0 -210 -37.333 -270 -112c-30 -40 -52.5 -88.667 -67.5 -146s-22.5 -126.333 -22.5 -207
c0 -170.667 29.333 -294.667 88 -372c57.333 -78 148 -117 272 -117c120 0 210.333 39 271 117c60 76 90 196 90 360zM1413 1991c0 -49.333 -12.334 -87.666 -37.001 -114.999c-26.667 -28 -63.667 -42 -111 -42l-75 -1c-19.333 0 -32 -2.66699 -38 -8
c-6 -6.66699 -9 -20.334 -9 -41.001v-31h-138v44c0 54 13.333 93.667 40 119c14 12.667 31.667 22.667 53 30c21.333 6 46 9 74 9h51c20.667 0 34 2.66699 40 8c5.33301 4.66699 8 14.334 8 29.001c0 15.333 -3 26 -9 32c-6 5.33301 -19 8 -39 8l-227 -1v119h246
c31.333 0 54 -1.33301 68 -4c16.667 -2.66699 30.334 -8 41.001 -16c21.333 -12.667 37.333 -31.334 48 -56.001c9.33301 -23.333 14 -51 14 -83z" />
    <glyph glyph-name="uni1ED5" unicode="&#x1ed5;" horiz-adv-x="1211" 
d="M963 1157h-195l-162 142l-163 -142h-192l226 330h261zM1186 529c0 -173.333 -52.667 -312 -158 -416c-104.667 -104 -245.334 -156 -422.001 -156c-177.333 0 -318.333 52 -423 156c-105.333 102 -158 240.667 -158 416c0 172 52.667 310.333 158 415
c103.333 104 244.333 156 423 156c176.667 0 317.334 -51.333 422.001 -154c105.333 -103.333 158 -242.333 158 -417zM846 529c0 92.667 -22.667 165 -68 217c-40.667 52 -98.667 78 -174 78c-74.667 0 -132.667 -26 -174 -78c-42 -48 -63 -120.333 -63 -217
c0 -49.333 5 -91 15 -125c9.33301 -36 25.333 -67.667 48 -95c42.667 -50.667 100.667 -76 174 -76c75.333 0 133.333 25.333 174 76c45.333 52 68 125.333 68 220zM1266 1595c0 -49.333 -12.334 -87.666 -37.001 -114.999c-26.667 -28 -63.667 -42 -111 -42l-75 -1
c-19.333 0 -32 -2.66699 -38 -8c-6 -6.66699 -9 -20.334 -9 -41.001v-31h-138v44c0 54 13.333 93.667 40 119c14 12.667 31.667 22.667 53 30c21.333 6 46 9 74 9h51c20.667 0 34 2.66699 40 8c5.33301 4.66699 8 14.334 8 29.001c0 15.333 -3 26 -9 32
c-6 5.33301 -19 8 -39 8l-227 -1v119h246c31.333 0 54 -1.33301 68 -4c16.667 -2.66699 30.334 -8 41.001 -16c21.333 -12.667 37.333 -31.334 48 -56.001c9.33301 -23.333 14 -51 14 -83z" />
    <glyph glyph-name="uni1ED6" unicode="&#x1ed6;" 
d="M1121 1551h-193l-164 141l-162 -141h-194l227 329h260zM1506 721c0 -260.667 -61 -455.333 -183 -584c-121.333 -129.333 -306.333 -194 -555 -194c-254 0 -440.333 64.5 -559 193.5s-178 328.5 -178 598.5c0 255.333 60.667 446 182 572c120 124 305 186 555 186
s435.667 -63.333 557 -190c120.667 -128.667 181 -322.667 181 -582zM1129 721.001c0 164 -29.333 285 -88 363c-58.667 76 -149.667 114 -273 114c-120 0 -210 -37.333 -270 -112c-30 -40 -52.5 -88.667 -67.5 -146s-22.5 -126.333 -22.5 -207
c0 -170.667 29.333 -294.667 88 -372c57.333 -78 148 -117 272 -117c120 0 210.333 39 271 117c60 76 90 196 90 360zM1156 2206c-6.66699 -48 -16.6699 -89.667 -30.0029 -125c-15.333 -36.667 -32.666 -66 -51.999 -88c-39.333 -46.667 -90 -70 -152 -70l-32 4l-35 7
l-131 32l-17 5h-16c-18 0 -32.333 -4.33301 -43 -13c-8 -4 -16.333 -23 -25 -57h-149c9.33301 54.667 21 98.334 35 131.001c12 31.333 27.667 58.666 47 82c36.667 43.333 84.334 65 143.001 65l43 -2l33 -6l127 -33l20 -4l27 -2c15.333 2.66699 27 7.66699 35 15
c6.66699 5.33301 12 12.666 16 21.999c2.66699 8 6.33398 20.333 11.001 37h145z" />
    <glyph glyph-name="uni1ED7" unicode="&#x1ed7;" horiz-adv-x="1211" 
d="M963 1157h-195l-162 142l-163 -142h-192l226 330h261zM1186 529c0 -173.333 -52.667 -312 -158 -416c-104.667 -104 -245.334 -156 -422.001 -156c-177.333 0 -318.333 52 -423 156c-105.333 102 -158 240.667 -158 416c0 172 52.667 310.333 158 415
c103.333 104 244.333 156 423 156c176.667 0 317.334 -51.333 422.001 -154c105.333 -103.333 158 -242.333 158 -417zM846 529c0 92.667 -22.667 165 -68 217c-40.667 52 -98.667 78 -174 78c-74.667 0 -132.667 -26 -174 -78c-42 -48 -63 -120.333 -63 -217
c0 -49.333 5 -91 15 -125c9.33301 -36 25.333 -67.667 48 -95c42.667 -50.667 100.667 -76 174 -76c75.333 0 133.333 25.333 174 76c45.333 52 68 125.333 68 220zM997 1798c-6.66699 -48 -16.6699 -89.666 -30.0029 -124.999c-15.333 -36.667 -32.666 -66 -51.999 -88
c-39.333 -46.667 -90 -70 -152 -70l-32 4l-35 7l-131 32l-17 5h-16c-18 0 -32.333 -4.33301 -43 -13c-8 -4 -16.333 -23 -25 -57h-149c9.33301 54.667 21 98.334 35 131.001c12 31.333 27.667 58.666 47 81.999c36.667 43.333 84.334 65 143.001 65l43 -2l33 -6l127 -33
l20 -4l27 -2c15.333 2.66699 27 7.66699 35 15c6.66699 5.33301 12 12.666 16 21.999c2.66699 8 6.33398 20.333 11.001 37h145z" />
    <glyph glyph-name="uni1ED8" unicode="&#x1ed8;" 
d="M1121 1551h-193l-164 141l-162 -141h-194l227 329h260zM1506 721c0 -260.667 -61 -455.333 -183 -584c-121.333 -129.333 -306.333 -194 -555 -194c-254 0 -440.333 64.5 -559 193.5s-178 328.5 -178 598.5c0 255.333 60.667 446 182 572c120 124 305 186 555 186
s435.667 -63.333 557 -190c120.667 -128.667 181 -322.667 181 -582zM1129 721.001c0 164 -29.333 285 -88 363c-58.667 76 -149.667 114 -273 114c-120 0 -210 -37.333 -270 -112c-30 -40 -52.5 -88.667 -67.5 -146s-22.5 -126.333 -22.5 -207
c0 -170.667 29.333 -294.667 88 -372c57.333 -78 148 -117 272 -117c120 0 210.333 39 271 117c60 76 90 196 90 360zM913 -436.999h-288v308h288v-308z" />
    <glyph glyph-name="uni1ED9" unicode="&#x1ed9;" horiz-adv-x="1211" 
d="M963 1157h-195l-162 142l-163 -142h-192l226 330h261zM1186 529c0 -173.333 -52.667 -312 -158 -416c-104.667 -104 -245.334 -156 -422.001 -156c-177.333 0 -318.333 52 -423 156c-105.333 102 -158 240.667 -158 416c0 172 52.667 310.333 158 415
c103.333 104 244.333 156 423 156c176.667 0 317.334 -51.333 422.001 -154c105.333 -103.333 158 -242.333 158 -417zM846 529c0 92.667 -22.667 165 -68 217c-40.667 52 -98.667 78 -174 78c-74.667 0 -132.667 -26 -174 -78c-42 -48 -63 -120.333 -63 -217
c0 -49.333 5 -91 15 -125c9.33301 -36 25.333 -67.667 48 -95c42.667 -50.667 100.667 -76 174 -76c75.333 0 133.333 25.333 174 76c45.333 52 68 125.333 68 220zM750 -437h-288v308h288v-308z" />
    <glyph glyph-name="uni1EDA" unicode="&#x1eda;" 
d="M1158 1880l-402 -329h-199l230 329h371zM1129 721c0 164 -29.333 285 -88 363c-58.667 76 -149.667 114 -273 114c-120 0 -210 -37.333 -270 -112c-30 -40 -52.5 -88.667 -67.5 -146s-22.5 -126.333 -22.5 -207c0 -170.667 29.333 -294.667 88 -372
c57.333 -78 148 -117 272 -117c120 0 210.333 39 271 117c60 76 90 196 90 360zM1461 1732l0.000976562 -113.999c0 -60 -11.667 -111.333 -35 -154c-14.667 -38 -55.334 -85 -122.001 -141l21 -20c120.667 -128.667 181 -322.667 181 -582
c0 -260.667 -61 -455.334 -183 -584.001c-121.333 -129.333 -306.333 -194 -555 -194c-254 0 -440.333 64.5 -559 193.5s-178 328.5 -178 598.5c0 255.333 60.667 446 182 572c120 124 305 186 555 186c178 0 323.333 -32 436 -96l79 77v48h-109v210h287z" />
    <glyph glyph-name="uni1EDB" unicode="&#x1edb;" horiz-adv-x="1211" 
d="M1000 1487l-402 -330h-198l227 330h373zM846 529c0 92.667 -22.667 165 -68 217c-40.667 52 -98.667 78 -174 78c-74.667 0 -132.667 -26 -174 -78c-42 -48 -63 -120.333 -63 -217c0 -49.333 5 -91 15 -125c9.33301 -36 25.333 -67.667 48 -95
c42.667 -50.667 100.667 -76 174 -76c75.333 0 133.333 25.333 174 76c45.333 52 68 125.333 68 220zM1029 945c104.667 -103.333 157.001 -241.999 157.001 -415.999c0 -173.333 -52.667 -312 -158 -416c-104.667 -104 -245.334 -156 -422.001 -156
c-177.333 0 -318.333 52 -423 156c-105.333 102 -158 240.667 -158 416c0 172 52.667 310.333 158 415c103.333 104 244.333 156 423 156c126.667 0 234.667 -26.333 324 -79l69 68v48h-109v199h287v-103c0 -60 -11.667 -111.333 -35 -154
c-14 -36.667 -51.667 -81.334 -113 -134.001z" />
    <glyph glyph-name="uni1EDC" unicode="&#x1edc;" 
d="M971 1551h-197l-403 329h371zM1129 721c0 164 -29.333 285 -88 363c-58.667 76 -149.667 114 -273 114c-120 0 -210 -37.333 -270 -112c-30 -40 -52.5 -88.667 -67.5 -146s-22.5 -126.333 -22.5 -207c0 -170.667 29.333 -294.667 88 -372c57.333 -78 148 -117 272 -117
c120 0 210.333 39 271 117c60 76 90 196 90 360zM1461 1732l0.000976562 -113.999c0 -60 -11.667 -111.333 -35 -154c-14.667 -38 -55.334 -85 -122.001 -141l21 -20c120.667 -128.667 181 -322.667 181 -582c0 -260.667 -61 -455.334 -183 -584.001
c-121.333 -129.333 -306.333 -194 -555 -194c-254 0 -440.333 64.5 -559 193.5s-178 328.5 -178 598.5c0 255.333 60.667 446 182 572c120 124 305 186 555 186c178 0 323.333 -32 436 -96l79 77v48h-109v210h287z" />
    <glyph glyph-name="uni1EDD" unicode="&#x1edd;" horiz-adv-x="1211" 
d="M813 1157h-196l-403 330h370zM846 529c0 92.667 -22.667 165 -68 217c-40.667 52 -98.667 78 -174 78c-74.667 0 -132.667 -26 -174 -78c-42 -48 -63 -120.333 -63 -217c0 -49.333 5 -91 15 -125c9.33301 -36 25.333 -67.667 48 -95c42.667 -50.667 100.667 -76 174 -76
c75.333 0 133.333 25.333 174 76c45.333 52 68 125.333 68 220zM1029 945c104.667 -103.333 157.001 -241.999 157.001 -415.999c0 -173.333 -52.667 -312 -158 -416c-104.667 -104 -245.334 -156 -422.001 -156c-177.333 0 -318.333 52 -423 156
c-105.333 102 -158 240.667 -158 416c0 172 52.667 310.333 158 415c103.333 104 244.333 156 423 156c126.667 0 234.667 -26.333 324 -79l69 68v48h-109v199h287v-103c0 -60 -11.667 -111.333 -35 -154c-14 -36.667 -51.667 -81.334 -113 -134.001z" />
    <glyph glyph-name="uni1EDE" unicode="&#x1ede;" 
d="M1129 721c0 164 -29.333 285 -88 363c-58.667 76 -149.667 114 -273 114c-120 0 -210 -37.333 -270 -112c-30 -40 -52.5 -88.667 -67.5 -146s-22.5 -126.333 -22.5 -207c0 -170.667 29.333 -294.667 88 -372c57.333 -78 148 -117 272 -117c120 0 210.333 39 271 117
c60 76 90 196 90 360zM1096 1777c0 -49.333 -12.334 -87.666 -37.001 -114.999c-26.667 -28 -63.667 -42 -111 -42l-75 -1c-19.333 0 -32 -2.66699 -38 -8c-6 -6.66699 -9 -20.334 -9 -41.001v-31h-138v44c0 54 13.333 93.667 40 119c14 12.667 31.667 22.667 53 30
c21.333 6 46 9 74 9h51c20.667 0 34 2.66699 40 8c5.33301 4.66699 8 14.334 8 29.001c0 15.333 -3 26 -9 32c-6 5.33301 -19 8 -39 8l-227 -1v119h246c31.333 0 54 -1.33301 68 -4c16.667 -2.66699 30.334 -8 41.001 -16c21.333 -12.667 37.333 -31.334 48 -56.001
c9.33301 -23.333 14 -51 14 -83zM1461 1732l0.000976562 -113.999c0 -60 -11.667 -111.333 -35 -154c-14.667 -38 -55.334 -85 -122.001 -141l21 -20c120.667 -128.667 181 -322.667 181 -582c0 -260.667 -61 -455.334 -183 -584.001
c-121.333 -129.333 -306.333 -194 -555 -194c-254 0 -440.333 64.5 -559 193.5s-178 328.5 -178 598.5c0 255.333 60.667 446 182 572c120 124 305 186 555 186c178 0 323.333 -32 436 -96l79 77v48h-109v210h287z" />
    <glyph glyph-name="uni1EDF" unicode="&#x1edf;" horiz-adv-x="1211" 
d="M846 529c0 92.667 -22.667 165 -68 217c-40.667 52 -98.667 78 -174 78c-74.667 0 -132.667 -26 -174 -78c-42 -48 -63 -120.333 -63 -217c0 -49.333 5 -91 15 -125c9.33301 -36 25.333 -67.667 48 -95c42.667 -50.667 100.667 -76 174 -76
c75.333 0 133.333 25.333 174 76c45.333 52 68 125.333 68 220zM938 1494c0 -49.333 -12.334 -87.666 -37.001 -114.999c-26.667 -28 -63.667 -42 -111 -42l-75 -1c-19.333 0 -32 -2.66699 -38 -8c-6 -6.66699 -9 -20.334 -9 -41.001v-31h-138v44c0 54 13.333 93.667 40 119
c14 12.667 31.667 22.667 53 30c21.333 6 46 9 74 9h51c20.667 0 34 2.66699 40 8c5.33301 4.66699 8 14.334 8 29.001c0 15.333 -3 26 -9 32c-6 5.33301 -19 8 -39 8l-227 -1v119h246c31.333 0 54 -1.33301 68 -4c16.667 -2.66699 30.334 -8 41.001 -16
c21.333 -12.667 37.333 -31.334 48 -56.001c9.33301 -23.333 14 -51 14 -83zM1029 945c104.667 -103.333 157.001 -241.999 157.001 -415.999c0 -173.333 -52.667 -312 -158 -416c-104.667 -104 -245.334 -156 -422.001 -156c-177.333 0 -318.333 52 -423 156
c-105.333 102 -158 240.667 -158 416c0 172 52.667 310.333 158 415c103.333 104 244.333 156 423 156c126.667 0 234.667 -26.333 324 -79l69 68v48h-109v199h287v-103c0 -60 -11.667 -111.333 -35 -154c-14 -36.667 -51.667 -81.334 -113 -134.001z" />
    <glyph glyph-name="uni1EE0" unicode="&#x1ee0;" 
d="M1106 1868c-8 -52 -18.502 -94.999 -31.502 -128.999s-30.5 -62 -52.5 -84c-39.333 -46.667 -89.666 -70 -150.999 -70l-33 4l-35 7l-131 32l-16 5h-17c-17.333 0 -31.666 -4.33301 -42.999 -13c-8 -4 -16 -23 -24 -57h-150c20.667 100.667 48.667 172.167 84 214.5
s84 63.5 146 63.5l38 -2l33 -6l125 -33l23 -4l26 -2c15.333 2.66699 27 7.66699 35 15c6.66699 5.33301 12 12.666 16 21.999c3.33301 8 7 20.333 11 37h147zM1129 721.001c0 164 -29.333 285 -88 363c-58.667 76 -149.667 114 -273 114c-120 0 -210 -37.333 -270 -112
c-30 -40 -52.5 -88.667 -67.5 -146s-22.5 -126.333 -22.5 -207c0 -170.667 29.333 -294.667 88 -372c57.333 -78 148 -117 272 -117c120 0 210.333 39 271 117c60 76 90 196 90 360zM1461 1732l0.000976562 -113.999c0 -60 -11.667 -111.333 -35 -154
c-14.667 -38 -55.334 -85 -122.001 -141l21 -20c120.667 -128.667 181 -322.667 181 -582c0 -260.667 -61 -455.334 -183 -584.001c-121.333 -129.333 -306.333 -194 -555 -194c-254 0 -440.333 64.5 -559 193.5s-178 328.5 -178 598.5c0 255.333 60.667 446 182 572
c120 124 305 186 555 186c178 0 323.333 -32 436 -96l79 77v48h-109v210h287z" />
    <glyph glyph-name="uni1EE1" unicode="&#x1ee1;" horiz-adv-x="1211" 
d="M951 1475c-19.333 -100 -47.9961 -170.333 -85.9961 -211c-41.333 -48 -92 -72 -152 -72l-33 4l-35 6l-133 33l-14 4h-16c-20.667 0 -34.334 -2.66699 -41.001 -8c-8.66699 -5.33301 -14.334 -11.5 -17.001 -18.5s-7.33398 -21.167 -14.001 -42.5h-145
c9.33301 54.667 21 98.334 35 131.001c12 31.333 27.333 58.666 46 81.999c37.333 43.333 86.666 65 147.999 65l39 -2l32 -6l127 -33l21 -4l27 -2c13.333 1.33301 24.666 6 33.999 14c8.66699 8.66699 18.334 28.667 29.001 60h148zM846.004 529
c0 92.667 -22.667 165 -68 217c-40.667 52 -98.667 78 -174 78c-74.667 0 -132.667 -26 -174 -78c-42 -48 -63 -120.333 -63 -217c0 -49.333 5 -91 15 -125c9.33301 -36 25.333 -67.667 48 -95c42.667 -50.667 100.667 -76 174 -76c75.333 0 133.333 25.333 174 76
c45.333 52 68 125.333 68 220zM1029 945c104.667 -103.333 157.001 -241.999 157.001 -415.999c0 -173.333 -52.667 -312 -158 -416c-104.667 -104 -245.334 -156 -422.001 -156c-177.333 0 -318.333 52 -423 156c-105.333 102 -158 240.667 -158 416
c0 172 52.667 310.333 158 415c103.333 104 244.333 156 423 156c126.667 0 234.667 -26.333 324 -79l69 68v48h-109v199h287v-103c0 -60 -11.667 -111.333 -35 -154c-14 -36.667 -51.667 -81.334 -113 -134.001z" />
    <glyph glyph-name="uni1EE2" unicode="&#x1ee2;" 
d="M1129 721c0 164 -29.333 285 -88 363c-58.667 76 -149.667 114 -273 114c-120 0 -210 -37.333 -270 -112c-30 -40 -52.5 -88.667 -67.5 -146s-22.5 -126.333 -22.5 -207c0 -170.667 29.333 -294.667 88 -372c57.333 -78 148 -117 272 -117c120 0 210.333 39 271 117
c60 76 90 196 90 360zM913 -437h-288v308h288v-308zM1461 1732l0.000976562 -113.999c0 -60 -11.667 -111.333 -35 -154c-14.667 -38 -55.334 -85 -122.001 -141l21 -20c120.667 -128.667 181 -322.667 181 -582c0 -260.667 -61 -455.334 -183 -584.001
c-121.333 -129.333 -306.333 -194 -555 -194c-254 0 -440.333 64.5 -559 193.5s-178 328.5 -178 598.5c0 255.333 60.667 446 182 572c120 124 305 186 555 186c178 0 323.333 -32 436 -96l79 77v48h-109v210h287z" />
    <glyph glyph-name="uni1EE3" unicode="&#x1ee3;" horiz-adv-x="1211" 
d="M846 529c0 92.667 -22.667 165 -68 217c-40.667 52 -98.667 78 -174 78c-74.667 0 -132.667 -26 -174 -78c-42 -48 -63 -120.333 -63 -217c0 -49.333 5 -91 15 -125c9.33301 -36 25.333 -67.667 48 -95c42.667 -50.667 100.667 -76 174 -76
c75.333 0 133.333 25.333 174 76c45.333 52 68 125.333 68 220zM750 -437h-288v308h288v-308zM1029 945c104.667 -103.333 157.001 -241.999 157.001 -415.999c0 -173.333 -52.667 -312 -158 -416c-104.667 -104 -245.334 -156 -422.001 -156
c-177.333 0 -318.333 52 -423 156c-105.333 102 -158 240.667 -158 416c0 172 52.667 310.333 158 415c103.333 104 244.333 156 423 156c126.667 0 234.667 -26.333 324 -79l69 68v48h-109v199h287v-103c0 -60 -11.667 -111.333 -35 -154
c-14 -36.667 -51.667 -81.334 -113 -134.001z" />
    <glyph glyph-name="uni1EE4" unicode="&#x1ee4;" horiz-adv-x="1526" 
d="M1409 570c0 -50.667 -1.99902 -95.499 -5.99902 -134.499s-9.33301 -76.833 -16 -113.5c-14 -68.667 -37.333 -120.667 -70 -156c-58.667 -70.667 -133 -122.834 -223 -156.501s-200.667 -50.5 -332 -50.5s-241.333 16.333 -330 49c-90 33.333 -166.333 86 -229 158
c-30 41.333 -51 92 -63 152c-14 60 -21 144 -21 252v897h348v-889c0 -126 21.333 -214 64 -264c44.667 -48.667 121.667 -73 231 -73s186.666 24.333 231.999 73c43.333 50 65 138 65 264v889h350v-897zM913.001 -436.999h-288v308h288v-308z" />
    <glyph glyph-name="uni1EE5" unicode="&#x1ee5;" horiz-adv-x="1196" 
d="M1093 -26h-546c-160 0 -276 32.667 -348 98c-74 65.333 -111 170.333 -111 315v695h325v-672c0 -64 10 -105 30 -123c17.333 -19.333 59 -29 125 -29h198v824h327v-1108zM750 -437h-288v308h288v-308z" />
    <glyph glyph-name="uni1EE6" unicode="&#x1ee6;" horiz-adv-x="1526" 
d="M1409 570c0 -50.667 -1.99902 -95.499 -5.99902 -134.499s-9.33301 -76.833 -16 -113.5c-14 -68.667 -37.333 -120.667 -70 -156c-58.667 -70.667 -133 -122.834 -223 -156.501s-200.667 -50.5 -332 -50.5s-241.333 16.333 -330 49c-90 33.333 -166.333 86 -229 158
c-30 41.333 -51 92 -63 152c-14 60 -21 144 -21 252v897h348v-889c0 -126 21.333 -214 64 -264c44.667 -48.667 121.667 -73 231 -73s186.666 24.333 231.999 73c43.333 50 65 138 65 264v889h350v-897zM1096 1777c0 -49.333 -12.334 -87.666 -37.001 -114.999
c-26.667 -28 -63.667 -42 -111 -42l-75 -1c-19.333 0 -32 -2.66699 -38 -8c-6 -6.66699 -9 -20.334 -9 -41.001v-31h-138v44c0 54 13.333 93.667 40 119c14 12.667 31.667 22.667 53 30c21.333 6 46 9 74 9h51c20.667 0 34 2.66699 40 8c5.33301 4.66699 8 14.334 8 29.001
c0 15.333 -3 26 -9 32c-6 5.33301 -19 8 -39 8l-227 -1v119h246c31.333 0 54 -1.33301 68 -4c16.667 -2.66699 30.334 -8 41.001 -16c21.333 -12.667 37.333 -31.334 48 -56.001c9.33301 -23.333 14 -51 14 -83z" />
    <glyph glyph-name="uni1EE7" unicode="&#x1ee7;" horiz-adv-x="1196" 
d="M1093 -26h-546c-160 0 -276 32.667 -348 98c-74 65.333 -111 170.333 -111 315v695h325v-672c0 -64 10 -105 30 -123c17.333 -19.333 59 -29 125 -29h198v824h327v-1108zM938 1404c0 -49.333 -12.334 -87.666 -37.001 -114.999c-26.667 -28 -63.667 -42 -111 -42l-75 -1
c-19.333 0 -32 -2.66699 -38 -8c-6 -6.66699 -9 -20.334 -9 -41.001v-31h-138v44c0 54 13.333 93.667 40 119c14 12.667 31.667 22.667 53 30c21.333 6 46 9 74 9h51c20.667 0 34 2.66699 40 8c5.33301 4.66699 8 14.334 8 29.001c0 15.333 -3 26 -9 32
c-6 5.33301 -19 8 -39 8l-227 -1v119h246c31.333 0 54 -1.33301 68 -4c16.667 -2.66699 30.334 -8 41.001 -16c21.333 -12.667 37.333 -31.334 48 -56.001c9.33301 -23.333 14 -51 14 -83z" />
    <glyph glyph-name="uni1EE8" unicode="&#x1ee8;" horiz-adv-x="1526" 
d="M1155 1880l-401 -329h-199l230 329h370zM1575 1732l0.000976562 -113.999c0 -60 -11.667 -111.333 -35 -154c-15.333 -40 -59 -89.333 -131 -148v-746c0 -50.667 -2 -95.5 -6 -134.5s-9.33301 -76.833 -16 -113.5c-14 -68.667 -37.333 -120.667 -70 -156
c-58.667 -70.667 -133 -122.834 -223 -156.501s-200.667 -50.5 -332 -50.5s-241.333 16.333 -330 49c-90 33.333 -166.333 86 -229 158c-30 41.333 -51 92 -63 152c-14 60 -21 144 -21 252v897h348v-889c0 -126 21.333 -214 64 -264c44.667 -48.667 121.667 -73 231 -73
s186.666 24.333 231.999 73c43.333 50 65 138 65 264v889h338v55h-109v210h287z" />
    <glyph glyph-name="uni1EE9" unicode="&#x1ee9;" horiz-adv-x="1196" 
d="M989 1487l-403 -330h-197l228 330h372zM1093 923v-949h-546c-160 0 -276 32.667 -348 98c-74 65.333 -111 170.333 -111 315v695h325v-672c0 -64 10 -105 30 -123c17.333 -19.333 59 -29 125 -29h198v824h317l7 7v48h-109v199h287v-103c0 -60 -11.667 -111.333 -35 -154
c-16 -41.333 -62.667 -93.333 -140 -156z" />
    <glyph glyph-name="uni1EEA" unicode="&#x1eea;" horiz-adv-x="1526" 
d="M969 1551h-197l-403 329h373zM1575 1732l0.000976562 -113.999c0 -60 -11.667 -111.333 -35 -154c-15.333 -40 -59 -89.333 -131 -148v-746c0 -50.667 -2 -95.5 -6 -134.5s-9.33301 -76.833 -16 -113.5c-14 -68.667 -37.333 -120.667 -70 -156
c-58.667 -70.667 -133 -122.834 -223 -156.501s-200.667 -50.5 -332 -50.5s-241.333 16.333 -330 49c-90 33.333 -166.333 86 -229 158c-30 41.333 -51 92 -63 152c-14 60 -21 144 -21 252v897h348v-889c0 -126 21.333 -214 64 -264c44.667 -48.667 121.667 -73 231 -73
s186.666 24.333 231.999 73c43.333 50 65 138 65 264v889h338v55h-109v210h287z" />
    <glyph glyph-name="uni1EEB" unicode="&#x1eeb;" horiz-adv-x="1196" 
d="M803 1157h-199l-401 330h371zM1093 923v-949h-546c-160 0 -276 32.667 -348 98c-74 65.333 -111 170.333 -111 315v695h325v-672c0 -64 10 -105 30 -123c17.333 -19.333 59 -29 125 -29h198v824h317l7 7v48h-109v199h287v-103c0 -60 -11.667 -111.333 -35 -154
c-16 -41.333 -62.667 -93.333 -140 -156z" />
    <glyph glyph-name="uni1EEC" unicode="&#x1eec;" horiz-adv-x="1526" 
d="M1096 1777c0 -49.333 -12.334 -87.666 -37.001 -114.999c-26.667 -28 -63.667 -42 -111 -42l-75 -1c-19.333 0 -32 -2.66699 -38 -8c-6 -6.66699 -9 -20.334 -9 -41.001v-31h-138v44c0 54 13.333 93.667 40 119c14 12.667 31.667 22.667 53 30c21.333 6 46 9 74 9h51
c20.667 0 34 2.66699 40 8c5.33301 4.66699 8 14.334 8 29.001c0 15.333 -3 26 -9 32c-6 5.33301 -19 8 -39 8l-227 -1v119h246c31.333 0 54 -1.33301 68 -4c16.667 -2.66699 30.334 -8 41.001 -16c21.333 -12.667 37.333 -31.334 48 -56.001c9.33301 -23.333 14 -51 14 -83
zM1575 1732l0.000976562 -113.999c0 -60 -11.667 -111.333 -35 -154c-15.333 -40 -59 -89.333 -131 -148v-746c0 -50.667 -2 -95.5 -6 -134.5s-9.33301 -76.833 -16 -113.5c-14 -68.667 -37.333 -120.667 -70 -156c-58.667 -70.667 -133 -122.834 -223 -156.501
s-200.667 -50.5 -332 -50.5s-241.333 16.333 -330 49c-90 33.333 -166.333 86 -229 158c-30 41.333 -51 92 -63 152c-14 60 -21 144 -21 252v897h348v-889c0 -126 21.333 -214 64 -264c44.667 -48.667 121.667 -73 231 -73s186.666 24.333 231.999 73
c43.333 50 65 138 65 264v889h338v55h-109v210h287z" />
    <glyph glyph-name="uni1EED" unicode="&#x1eed;" horiz-adv-x="1196" 
d="M938 1404c0 -49.333 -12.334 -87.666 -37.001 -114.999c-26.667 -28 -63.667 -42 -111 -42l-75 -1c-19.333 0 -32 -2.66699 -38 -8c-6 -6.66699 -9 -20.334 -9 -41.001v-31h-138v44c0 54 13.333 93.667 40 119c14 12.667 31.667 22.667 53 30c21.333 6 46 9 74 9h51
c20.667 0 34 2.66699 40 8c5.33301 4.66699 8 14.334 8 29.001c0 15.333 -3 26 -9 32c-6 5.33301 -19 8 -39 8l-227 -1v119h246c31.333 0 54 -1.33301 68 -4c16.667 -2.66699 30.334 -8 41.001 -16c21.333 -12.667 37.333 -31.334 48 -56.001c9.33301 -23.333 14 -51 14 -83
zM1093 923v-949h-546c-160 0 -276 32.667 -348 98c-74 65.333 -111 170.333 -111 315v695h325v-672c0 -64 10 -105 30 -123c17.333 -19.333 59 -29 125 -29h198v824h317l7 7v48h-109v199h287v-103c0 -60 -11.667 -111.333 -35 -154c-16 -41.333 -62.667 -93.333 -140 -156z
" />
    <glyph glyph-name="uni1EEE" unicode="&#x1eee;" horiz-adv-x="1526" 
d="M1106 1868c-8 -52 -18.502 -94.999 -31.502 -128.999s-30.5 -62 -52.5 -84c-39.333 -46.667 -89.666 -70 -150.999 -70l-33 4l-35 7l-131 32l-16 5h-17c-17.333 0 -31.666 -4.33301 -42.999 -13c-8 -4 -16 -23 -24 -57h-150c20.667 100.667 48.667 172.167 84 214.5
s84 63.5 146 63.5l38 -2l33 -6l125 -33l23 -4l26 -2c15.333 2.66699 27 7.66699 35 15c6.66699 5.33301 12 12.666 16 21.999c3.33301 8 7 20.333 11 37h147zM1575 1732l0.000976562 -113.999c0 -60 -11.667 -111.333 -35 -154c-15.333 -40 -59 -89.333 -131 -148v-746
c0 -50.667 -2 -95.5 -6 -134.5s-9.33301 -76.833 -16 -113.5c-14 -68.667 -37.333 -120.667 -70 -156c-58.667 -70.667 -133 -122.834 -223 -156.501s-200.667 -50.5 -332 -50.5s-241.333 16.333 -330 49c-90 33.333 -166.333 86 -229 158c-30 41.333 -51 92 -63 152
c-14 60 -21 144 -21 252v897h348v-889c0 -126 21.333 -214 64 -264c44.667 -48.667 121.667 -73 231 -73s186.666 24.333 231.999 73c43.333 50 65 138 65 264v889h338v55h-109v210h287z" />
    <glyph glyph-name="uni1EEF" unicode="&#x1eef;" horiz-adv-x="1196" 
d="M951 1475c-19.333 -100 -47.9961 -170.333 -85.9961 -211c-41.333 -48 -92 -72 -152 -72l-33 4l-35 6l-133 33l-14 4h-16c-20.667 0 -34.334 -2.66699 -41.001 -8c-8.66699 -5.33301 -14.334 -11.5 -17.001 -18.5s-7.33398 -21.167 -14.001 -42.5h-145
c9.33301 54.667 21 98.334 35 131.001c12 31.333 27.333 58.666 46 81.999c37.333 43.333 86.666 65 147.999 65l39 -2l32 -6l127 -33l21 -4l27 -2c13.333 1.33301 24.666 6 33.999 14c8.66699 8.66699 18.334 28.667 29.001 60h148zM1093 923v-949h-546
c-160 0 -276 32.667 -348 98c-74 65.333 -111 170.333 -111 315v695h325v-672c0 -64 10 -105 30 -123c17.333 -19.333 59 -29 125 -29h198v824h317l7 7v48h-109v199h287v-103c0 -60 -11.667 -111.333 -35 -154c-16 -41.333 -62.667 -93.333 -140 -156z" />
    <glyph glyph-name="uni1EF0" unicode="&#x1ef0;" horiz-adv-x="1526" 
d="M913 -437h-288v308h288v-308zM1575 1732l0.000976562 -113.999c0 -60 -11.667 -111.333 -35 -154c-15.333 -40 -59 -89.333 -131 -148v-746c0 -50.667 -2 -95.5 -6 -134.5s-9.33301 -76.833 -16 -113.5c-14 -68.667 -37.333 -120.667 -70 -156
c-58.667 -70.667 -133 -122.834 -223 -156.501s-200.667 -50.5 -332 -50.5s-241.333 16.333 -330 49c-90 33.333 -166.333 86 -229 158c-30 41.333 -51 92 -63 152c-14 60 -21 144 -21 252v897h348v-889c0 -126 21.333 -214 64 -264c44.667 -48.667 121.667 -73 231 -73
s186.666 24.333 231.999 73c43.333 50 65 138 65 264v889h338v55h-109v210h287z" />
    <glyph glyph-name="uni1EF1" unicode="&#x1ef1;" horiz-adv-x="1196" 
d="M750 -437h-288v308h288v-308zM1093 923v-949h-546c-160 0 -276 32.667 -348 98c-74 65.333 -111 170.333 -111 315v695h325v-672c0 -64 10 -105 30 -123c17.333 -19.333 59 -29 125 -29h198v824h317l7 7v48h-109v199h287v-103c0 -60 -11.667 -111.333 -35 -154
c-16 -41.333 -62.667 -93.333 -140 -156z" />
    <glyph glyph-name="Ygrave" unicode="&#x1ef2;" horiz-adv-x="1233" 
d="M557 1880l227 -329h-196l-404 329h373zM1360 1467l-571 -836v-658h-350v656l-568 838h402l338 -529l340 529h409z" />
    <glyph glyph-name="ygrave" unicode="&#x1ef3;" horiz-adv-x="1196" 
d="M1093 29c0 -142.667 -34.668 -252.001 -104.001 -328.001c-73.333 -74 -178.333 -111 -315 -111h-567v264h520c45.333 0 80 11.667 104 35c23.333 22 35 53 35 93v-8h-219c-165.333 0 -282.666 34 -351.999 102c-71.333 66.667 -107 176.667 -107 330v676h323v-656
c0 -31.333 1.16699 -58.666 3.5 -81.999s11.833 -43 28.5 -59c16 -18 57.667 -27 125 -27h198v824h327v-1053zM802.999 1157h-199l-401 330h371z" />
    <glyph glyph-name="uni1EF4" unicode="&#x1ef4;" horiz-adv-x="1233" 
d="M1360 1467l-571 -836v-658h-350v656l-568 838h402l338 -529l340 529h409zM753 -437h-288v308h288v-308z" />
    <glyph glyph-name="uni1EF5" unicode="&#x1ef5;" horiz-adv-x="1196" 
d="M1093 29c0 -142.667 -34.668 -252.001 -104.001 -328.001c-73.333 -74 -178.333 -111 -315 -111h-567v264h520c45.333 0 80 11.667 104 35c23.333 22 35 53 35 93v-8h-219c-165.333 0 -282.666 34 -351.999 102c-71.333 66.667 -107 176.667 -107 330v676h323v-656
c0 -31.333 1.16699 -58.666 3.5 -81.999s11.833 -43 28.5 -59c16 -18 57.667 -27 125 -27h198v824h327v-1053zM720.999 -799.001h-288v308h288v-308z" />
    <glyph glyph-name="uni1EF6" unicode="&#x1ef6;" horiz-adv-x="1233" 
d="M1360 1467l-571 -836v-658h-350v656l-568 838h402l338 -529l340 529h409zM948 1777c0 -49.333 -12.334 -87.666 -37.001 -114.999c-26.667 -28 -63.667 -42 -111 -42l-75 -1c-19.333 0 -32 -2.66699 -38 -8c-6 -6.66699 -9 -20.334 -9 -41.001v-31h-138v44
c0 54 13.333 93.667 40 119c14 12.667 31.667 22.667 53 30c21.333 6 46 9 74 9h51c20.667 0 34 2.66699 40 8c5.33301 4.66699 8 14.334 8 29.001c0 15.333 -3 26 -9 32c-6 5.33301 -19 8 -39 8l-227 -1v119h246c31.333 0 54 -1.33301 68 -4
c16.667 -2.66699 30.334 -8 41.001 -16c21.333 -12.667 37.333 -31.334 48 -56.001c9.33301 -23.333 14 -51 14 -83z" />
    <glyph glyph-name="uni1EF7" unicode="&#x1ef7;" horiz-adv-x="1196" 
d="M1093 29c0 -142.667 -34.668 -252.001 -104.001 -328.001c-73.333 -74 -178.333 -111 -315 -111h-567v264h520c45.333 0 80 11.667 104 35c23.333 22 35 53 35 93v-8h-219c-165.333 0 -282.666 34 -351.999 102c-71.333 66.667 -107 176.667 -107 330v676h323v-656
c0 -31.333 1.16699 -58.666 3.5 -81.999s11.833 -43 28.5 -59c16 -18 57.667 -27 125 -27h198v824h327v-1053zM937.999 1404c0 -49.333 -12.334 -87.666 -37.001 -114.999c-26.667 -28 -63.667 -42 -111 -42l-75 -1c-19.333 0 -32 -2.66699 -38 -8
c-6 -6.66699 -9 -20.334 -9 -41.001v-31h-138v44c0 54 13.333 93.667 40 119c14 12.667 31.667 22.667 53 30c21.333 6 46 9 74 9h51c20.667 0 34 2.66699 40 8c5.33301 4.66699 8 14.334 8 29.001c0 15.333 -3 26 -9 32c-6 5.33301 -19 8 -39 8l-227 -1v119h246
c31.333 0 54 -1.33301 68 -4c16.667 -2.66699 30.334 -8 41.001 -16c21.333 -12.667 37.333 -31.334 48 -56.001c9.33301 -23.333 14 -51 14 -83z" />
    <glyph glyph-name="uni1EF8" unicode="&#x1ef8;" horiz-adv-x="1233" 
d="M1360 1467l-571 -836v-658h-350v656l-568 838h402l338 -529l340 529h409zM993 1868c-8 -52 -18.502 -94.999 -31.502 -128.999s-30.5 -62 -52.5 -84c-39.333 -46.667 -89.666 -70 -150.999 -70l-33 4l-35 7l-131 32l-16 5h-17c-17.333 0 -31.666 -4.33301 -42.999 -13
c-8 -4 -16 -23 -24 -57h-150c20.667 100.667 48.667 172.167 84 214.5s84 63.5 146 63.5l38 -2l33 -6l125 -33l23 -4l26 -2c15.333 2.66699 27 7.66699 35 15c6.66699 5.33301 12 12.666 16 21.999c3.33301 8 7 20.333 11 37h147z" />
    <glyph glyph-name="uni1EF9" unicode="&#x1ef9;" horiz-adv-x="1196" 
d="M1093 29c0 -142.667 -34.668 -252.001 -104.001 -328.001c-73.333 -74 -178.333 -111 -315 -111h-567v264h520c45.333 0 80 11.667 104 35c23.333 22 35 53 35 93v-8h-219c-165.333 0 -282.666 34 -351.999 102c-71.333 66.667 -107 176.667 -107 330v676h323v-656
c0 -31.333 1.16699 -58.666 3.5 -81.999s11.833 -43 28.5 -59c16 -18 57.667 -27 125 -27h198v824h327v-1053zM950.999 1475c-19.333 -100 -47.9961 -170.333 -85.9961 -211c-41.333 -48 -92 -72 -152 -72l-33 4l-35 6l-133 33l-14 4h-16
c-20.667 0 -34.334 -2.66699 -41.001 -8c-8.66699 -5.33301 -14.334 -11.5 -17.001 -18.5s-7.33398 -21.167 -14.001 -42.5h-145c9.33301 54.667 21 98.334 35 131.001c12 31.333 27.333 58.666 46 81.999c37.333 43.333 86.666 65 147.999 65l39 -2l32 -6l127 -33l21 -4
l27 -2c13.333 1.33301 24.666 6 33.999 14c8.66699 8.66699 18.334 28.667 29.001 60h148z" />
    <glyph glyph-name="quoteleft" unicode="&#x2018;" horiz-adv-x="393" 
d="M340 1164h-108.001v-216c-45.333 34.667 -77.666 62.667 -96.999 84c-18.667 22 -35 45.333 -49 70c-22 42.667 -33 94 -33 154v211h287v-303z" />
    <glyph glyph-name="quoteright" unicode="&#x2019;" horiz-adv-x="393" 
d="M342 1256c0 -58.667 -11.668 -109 -35.001 -151c-9.33301 -23.333 -23.666 -45.333 -42.999 -66c-18.667 -22 -52 -53 -100 -93v218h-111v303h289v-211z" />
    <glyph glyph-name="quotedblleft" unicode="&#x201c;" horiz-adv-x="731" 
d="M678 1164h-108v-216c-41.333 32 -74.333 61.667 -99 89c-18.667 20 -35 42.333 -49 67c-20.667 41.333 -31 92 -31 152v211h287v-303zM340 1164h-108.001v-216c-45.333 34.667 -77.666 62.667 -96.999 84c-18.667 22 -35 45.333 -49 70c-22 42.667 -33 94 -33 154v211
h287v-303z" />
    <glyph glyph-name="quotedblright" unicode="&#x201d;" horiz-adv-x="731" 
d="M678 1256c0 -54.667 -11 -105.001 -33 -151.001c-12 -23.333 -28.333 -46 -49 -68c-20.667 -23.333 -52.667 -53.666 -96 -90.999v218h-109v303h287v-211zM340 1256c0 -58.667 -11.668 -109 -35.001 -151c-9.33301 -23.333 -23.666 -45.333 -42.999 -66
c-18.667 -22 -52 -53 -100 -93v218h-109v303h287v-211z" />
    <glyph glyph-name="ellipsis" unicode="&#x2026;" horiz-adv-x="1305" 
d="M342 -26h-289v303h289v-303zM773 -26h-289v303h289v-303zM1215 -25h-289v303h289v-303z" />
    <glyph glyph-name=".null" horiz-adv-x="0" 
 />
    <glyph glyph-name="nonmarkingreturn" horiz-adv-x="571" 
 />
    <glyph glyph-name="ugrave" horiz-adv-x="582" 
 />
    <glyph glyph-name="uacute" horiz-adv-x="580" 
 />
    <glyph glyph-name="yacute" horiz-adv-x="629" 
 />
  </font>
</defs>
</svg>
