<?xml version="1.0" standalone="no"?>
<!DOCTYPE svg PUBLIC "-//W3C//DTD SVG 1.1//EN" "http://www.w3.org/Graphics/SVG/1.1/DTD/svg11.dtd" >
<svg xmlns="http://www.w3.org/2000/svg" xmlns:xlink="http://www.w3.org/1999/xlink" version="1.1">
<metadata></metadata>
<defs>
<font id="bluehost_sans600" horiz-adv-x="1653" >
<font-face units-per-em="2048" ascent="1638" descent="-410" />
<missing-glyph horiz-adv-x="545" />
<glyph horiz-adv-x="0" />
<glyph horiz-adv-x="682" />
<glyph unicode=" "  horiz-adv-x="545" />
<glyph unicode="&#x09;" horiz-adv-x="545" />
<glyph unicode="&#xa0;" horiz-adv-x="545" />
<glyph unicode="!" horiz-adv-x="560" d="M92 1386h275l-46 -1014h-186zM114 -2v250h222v-250h-222z" />
<glyph unicode="&#x22;" horiz-adv-x="534" d="M7 1196v189h227v-189l-46 -249h-134zM301 1196v189h227v-189l-46 -249h-134z" />
<glyph unicode="#" horiz-adv-x="1333" d="M31 373v183h247l68 306h-253v184h292l74 340h182l-74 -340h324l74 340h185l-76 -340h228v-184h-266l-69 -306h273v-183h-311l-82 -373h-184l83 373h-324l-80 -373h-185l82 373h-208zM460 556h324l69 306h-324z" />
<glyph unicode="$" horiz-adv-x="1170" d="M80 228l171 150q115 -158 255 -192l10 433l-37 13q-356 131 -341 408q9 157 120.5 257t276.5 116l3 127h167l-3 -135q180 -35 301 -169l-140 -165q-76 83 -167 114l-8 -364q69 -24 120 -47t107.5 -60t92 -79.5t59 -104.5t23.5 -137q0 -179 -120.5 -290.5t-302.5 -133.5 l-3 -142h-167l3 142q-144 17 -252 90t-168 169zM403 1032q1 -53 31 -87.5t88 -61.5l8 311q-60 -16 -94 -59t-33 -103zM673 187q70 19 111 68t41 112q0 110 -144 186z" />
<glyph unicode="%" horiz-adv-x="1569" d="M28 1055q0 140 110 238t266 98t266.5 -97t110.5 -239q0 -143 -110.5 -245t-268.5 -102q-153 0 -263.5 102t-110.5 245zM64 0l1179 1386h244l-1172 -1386h-251zM234 1051q0 -76 49 -127.5t119 -51.5q69 0 118.5 51t49.5 128t-49.5 127.5t-118.5 50.5t-118.5 -50 t-49.5 -128zM784 334q0 141 109.5 243t271.5 102q154 0 265 -103t111 -242q0 -138 -109.5 -237.5t-266.5 -99.5q-159 0 -270 98.5t-111 238.5zM996 337q0 -78 50.5 -128.5t118.5 -50.5t118.5 50.5t50.5 128.5t-49.5 130t-119.5 52t-119.5 -52.5t-49.5 -129.5z" />
<glyph unicode="&#x26;" horiz-adv-x="1566" d="M96 357q0 115 79.5 216.5t238.5 178.5q-71 69 -110 138t-39 150q0 104 63 188t165 130t221 47q109 1 207 -42.5t159 -121.5t61 -171q0 -106 -83 -197.5t-240 -157.5l275 -258q95 84 166 207l216 -108q-105 -161 -224 -267l289 -289h-385l-115 109q-87 -61 -200.5 -98.5 t-231.5 -37.5q-229 0 -370.5 110t-141.5 274zM377 360q0 -76 73 -127.5t185 -51.5q72 0 130.5 23t122.5 67l-321 320q-90 -51 -140 -111t-50 -120zM547 1063q1 -46 37 -93.5t106 -105.5q101 52 154 101.5t53 107.5q0 60 -51 101.5t-119 39.5q-83 -2 -132.5 -46.5 t-47.5 -104.5z" />
<glyph unicode="'" horiz-adv-x="243" d="M8 1196v189h227v-189l-46 -249h-134z" />
<glyph unicode="(" horiz-adv-x="723" d="M146 531q0 502 389 874h237q-338 -416 -338 -874t338 -874h-237q-389 372 -389 874z" />
<glyph unicode=")" horiz-adv-x="724" d="M-22 -343q338 416 338 874t-338 874h237q389 -372 389 -874t-389 -874h-237z" />
<glyph unicode="*" horiz-adv-x="433" d="M-10 1203l44 123l91 -30v90h135v-91l93 28l40 -125l-91 -27l57 -75l-109 -79l-59 78l-56 -74l-110 77l59 75z" />
<glyph unicode="+" horiz-adv-x="1282" d="M83 614h443v-432h221v432h452v210h-452v431h-221v-431h-443v-210z" />
<glyph unicode="," horiz-adv-x="353" d="M43 -211q73 23 100.5 75.5t26.5 135.5h-126v266h266l-1 -237q-1 -121 -71 -210.5t-195 -106.5v77z" />
<glyph unicode="-" horiz-adv-x="753" d="M43 450v207h667v-207h-667z" />
<glyph unicode="." horiz-adv-x="327" d="M43 -2v270h241v-270h-241z" />
<glyph unicode="/" horiz-adv-x="1009" d="M-2 -19l784 1425h226l-786 -1425h-224z" />
<glyph unicode="0" horiz-adv-x="1386" d="M100 693q0 163 46 299t126 227.5t189.5 142.5t235.5 51q127 0 235 -50.5t186.5 -142t123 -227.5t44.5 -300q0 -219 -76.5 -382.5t-209 -248.5t-303.5 -85q-126 0 -235 49t-189.5 139.5t-126.5 226.5t-46 301zM378 693q0 -236 88 -373.5t231 -137.5t227 139.5t84 371.5 q0 225 -86.5 369.5t-224.5 144.5t-228.5 -143t-90.5 -371z" />
<glyph unicode="1" horiz-adv-x="686" d="M39 1189l228 197h250v-1386h-249v1117l-109 -93z" />
<glyph unicode="2" horiz-adv-x="1111" d="M77 0l1 193l453 491q53 59 80.5 91.5t60.5 78.5t47 84.5t14 76.5q0 75 -54 121.5t-132 46.5q-81 0 -146.5 -53t-90.5 -137l-222 101q58 148 182.5 232.5t283.5 84.5q188 0 313.5 -112t125.5 -291q0 -66 -18 -127.5t-53.5 -119t-70 -100.5t-85.5 -98l-347 -366l10 10h579 v-207h-931z" />
<glyph unicode="3" horiz-adv-x="1093" d="M68 148l125 165q143 -130 296 -129q105 1 172 62.5t67 149.5q0 91 -71.5 151.5t-176.5 60.5h-156l1 217h144q103 0 172.5 58t69.5 145q0 79 -59 130.5t-154 51.5q-123 0 -233 -98l-123 152q168 151 386 151q121 0 220.5 -45.5t158 -130.5t58.5 -193q0 -113 -63.5 -200.5 t-159.5 -117.5q47 -17 88.5 -43.5t79 -67.5t59.5 -100.5t22 -131.5q0 -97 -39 -175.5t-106 -128.5t-153 -77t-182 -27q-121 0 -235.5 42.5t-207.5 128.5z" />
<glyph unicode="4" horiz-adv-x="1214" d="M60 299v210l668 877h201v-880h178v-207h-178v-299h-259v299h-610zM279 506h391v499z" />
<glyph unicode="5" horiz-adv-x="1192" d="M121 134l108 169q145 -110 303 -110q125 0 205.5 71.5t80.5 174.5q0 114 -86 183.5t-234 69.5q-156 0 -306 -76v770h805l-1 -207h-546v-316q95 27 191 27q192 -1 314 -128.5t122 -314.5q0 -204 -150.5 -332.5t-369.5 -128.5q-238 0 -436 148z" />
<glyph unicode="6" horiz-adv-x="1203" d="M100 510q1 283 181 516t492 367l110 -205q-343 -159 -461 -388q112 79 265 79q196 -1 322.5 -127.5t125.5 -321.5q0 -139 -71 -249t-190 -169.5t-262 -59.5q-121 0 -219.5 45.5t-162 122.5t-97.5 177t-33 213zM358 421q0 -110 71.5 -181t182.5 -72q110 -1 186 67t77 182 q1 112 -72.5 185t-183.5 74q-109 1 -185 -70.5t-76 -184.5z" />
<glyph unicode="7" horiz-adv-x="1031" d="M53 1179v207h896v-175l-541 -1211h-259l523 1179h-619z" />
<glyph unicode="8" horiz-adv-x="1211" d="M83 382q0 73 25 135t65.5 102.5t81 66t82.5 38.5q-202 91 -202 289q0 165 133.5 279t342.5 114q206 0 335.5 -112.5t129.5 -279.5q0 -106 -54 -178.5t-147 -109.5q39 -17 70.5 -35t66.5 -48t59 -64.5t40 -85t16 -109.5q0 -82 -29 -150t-78.5 -114.5t-116.5 -78.5 t-141.5 -46.5t-154.5 -14.5q-106 0 -200.5 26.5t-167 76.5t-114.5 127t-42 172zM349 399q0 -99 74.5 -158t183.5 -59q110 0 182.5 60t72.5 157q0 100 -75 162t-182 62q-106 0 -181 -61.5t-75 -162.5zM395 1011q0 -86 58.5 -142t151.5 -56q94 0 152.5 56t58.5 143 q0 76 -49.5 134t-158.5 58q-106 0 -159.5 -56.5t-53.5 -136.5z" />
<glyph unicode="9" horiz-adv-x="1205" d="M68 939q3 195 153.5 330t369.5 135q229 0 373.5 -152t140.5 -381q-2 -139 -61.5 -277.5t-158 -251.5t-223 -204t-261.5 -149l-109 199q297 139 432 312q-85 -43 -188 -43q-128 0 -237.5 68.5t-171 179t-59.5 234.5zM327 943q-1 -113 74 -189t186 -79q110 -2 189.5 69.5 t81.5 186.5t-71 189.5t-187 76.5q-115 2 -193.5 -70t-79.5 -184z" />
<glyph unicode=":" horiz-adv-x="288" d="M43 -2v270h241v-270h-241zM43 659v270h241v-270h-241z" />
<glyph unicode=";" horiz-adv-x="307" d="M43 -211q73 23 100.5 75.5t26.5 135.5h-126v266h266l-1 -237q-1 -121 -71 -210.5t-195 -106.5v77zM62 662v270h241v-270h-241z" />
<glyph unicode="&#x3c;" horiz-adv-x="1299" d="M90 661v112l1126 534v-240l-772 -350l772 -350v-241z" />
<glyph unicode="=" horiz-adv-x="1096" d="M83 366h930v210h-930v-210zM83 730h930v220h-930v-220z" />
<glyph unicode="&#x3e;" horiz-adv-x="1292" d="M83 126v241l772 350l-772 350v240l1126 -534v-112z" />
<glyph unicode="?" horiz-adv-x="810" d="M-34 1104q54 144 169 224.5t264 84.5q184 5 307.5 -102t123.5 -279q0 -66 -20.5 -121t-53 -94t-72.5 -74.5t-79.5 -70.5t-72.5 -74t-53.5 -94.5t-20.5 -121.5v-20h-221v20q0 87 17.5 160t45.5 123t62 91.5t68.5 74t63 62t48 63t22.5 69.5q5 70 -45 117.5t-127 43.5 q-66 -4 -120 -48.5t-85 -120.5zM241 -2v245h218v-245h-218z" />
<glyph unicode="@" horiz-adv-x="2041" d="M75 408q0 279 132 501.5t365 347t523 124.5q198 0 362.5 -61t273.5 -166.5t168.5 -245.5t59.5 -299q0 -146 -50 -274t-129 -212t-173.5 -132.5t-186.5 -50.5q-107 -2 -170 53t-58 125q-56 -66 -134.5 -112t-173.5 -46q-65 0 -125 23t-112 70.5t-83 130.5t-30 192 q1 159 66.5 296.5t173 217t228.5 79.5q97 0 173 -48.5t120 -124.5l20 95l195 -2l-129 -613q-6 -33 -5 -66.5t22 -58.5t58 -25q35 0 75 21.5t78.5 64t70 98.5t50.5 132.5t19 158.5q0 175 -84 309.5t-233.5 207t-340.5 72.5q-173 0 -323.5 -61.5t-255 -166t-165 -246.5 t-60.5 -298q0 -163 65 -300t174 -226t249 -138t292 -49q342 0 612 239l129 -165q-326 -265 -744 -265q-149 0 -290.5 34t-269 106.5t-222.5 176t-151 252t-56 325.5zM757 397q-5 -122 41.5 -198t141.5 -78q66 -2 128 33.5t104 101.5l86 409q-28 62 -80.5 104.5t-122.5 43.5 q-81 2 -149.5 -58.5t-106.5 -155.5t-42 -202z" />
<glyph unicode="A" horiz-adv-x="1462" d="M13 0l580 1386h277l579 -1386h-296l-131 341h-582l-133 -341h-294zM520 548h423l-210 548z" />
<glyph unicode="B" horiz-adv-x="1279" d="M169 0v1386h455q215 0 346 -93.5t131 -253.5q0 -109 -60.5 -184t-158.5 -106q130 -25 218.5 -119.5t88.5 -234.5q0 -80 -32.5 -151t-94.5 -125.5t-159.5 -86.5t-219.5 -32h-514zM427 207h250q107 0 177.5 55t70.5 137q0 85 -75.5 144t-194.5 59h-228v-395zM427 809h149 q118 0 189.5 55t71.5 138q0 78 -64.5 127.5t-169.5 49.5h-176v-370z" />
<glyph unicode="C" horiz-adv-x="1393" d="M75 694q0 139 44.5 258t120.5 203.5t176.5 144.5t213.5 89t230 29q263 0 472 -143l-122 -190q-148 119 -341 119q-101 0 -195.5 -35.5t-169.5 -99t-120 -162.5t-45 -217q0 -152 75 -269.5t193.5 -177.5t257.5 -60q107 0 201 36.5t157 98.5l130 -195q-97 -71 -225 -112.5 t-274 -41.5q-122 0 -236 29.5t-212.5 89.5t-172 145t-116 203.5t-42.5 257.5z" />
<glyph unicode="D" horiz-adv-x="1429" d="M169 0v1386h337q261 0 451 -80.5t293.5 -239t103.5 -382.5q0 -171 -62 -303t-173 -214.5t-259.5 -124.5t-328.5 -42h-362zM427 207h111q252 0 401 125.5t149 355.5q0 122 -45 217.5t-123 154.5t-178 89t-216 30h-99v-972z" />
<glyph unicode="E" horiz-adv-x="1186" d="M169 0v1386h932v-206h-682v-373h558v-207h-558v-394h682v-206h-932z" />
<glyph unicode="F" horiz-adv-x="1156" d="M169 0v1386h892v-205h-632v-367h541v-205h-541v-609h-260z" />
<glyph unicode="G" horiz-adv-x="1547" d="M75 684q0 171 66.5 313t177 232.5t248 140.5t285.5 52h14q270 0 472 -146l-125 -189q-156 122 -350 122h-18q-140 -4 -255.5 -71t-183 -186.5t-67.5 -267.5q1 -223 147 -364t375 -141q152 0 277 61v319h-334v207h581v-659q-243 -140 -526 -140q-160 0 -301.5 48.5 t-249 137.5t-170.5 226.5t-63 304.5z" />
<glyph unicode="H" horiz-adv-x="1560" d="M169 0v1386h258v-583h706v583h258v-1386h-258v596h-706v-596h-258z" />
<glyph unicode="I" horiz-adv-x="596" d="M169 0v1385h258v-1385h-258z" />
<glyph unicode="J" horiz-adv-x="639" d="M-1 -145q111 4 161.5 76.5t50.5 209.5v1245h259v-1277q0 -237 -128 -354q-120 -109 -313 -109q-15 0 -30 1v208z" />
<glyph unicode="K" horiz-adv-x="1318" d="M169 0v1386h259v-588l499 588h299l-556 -650l628 -736h-325l-545 642v-642h-259z" />
<glyph unicode="L" horiz-adv-x="1073" d="M169 0v1386h259v-1179h640v-207h-899z" />
<glyph unicode="M" horiz-adv-x="1798" d="M169 0v1386h207l523 -632l523 632h207v-1386h-258v971l-472 -552l-472 552v-971h-258z" />
<glyph unicode="N" horiz-adv-x="1584" d="M169 0v1386h219l769 -975v975h258v-1386h-217l-771 964v-964h-258z" />
<glyph unicode="O" d="M75 694q0 170 61.5 309t166 228t238.5 137t283 48q158 0 296.5 -51.5t239.5 -144t159.5 -228.5t58.5 -298q0 -136 -41 -254t-112.5 -203t-166.5 -146t-205.5 -91t-228.5 -30q-150 0 -285.5 49.5t-238.5 139.5t-164 229t-61 306zM343 694q0 -224 132 -370.5t349 -146.5 q149 0 260.5 70.5t168 187t56.5 259.5q0 226 -136.5 370.5t-348.5 144.5q-213 0 -347 -145.5t-134 -369.5z" />
<glyph unicode="P" horiz-adv-x="1201" d="M169 0v1387h410q269 0 420.5 -127t151.5 -340q0 -221 -158 -347t-428 -126h-137v-447h-259zM428 654h144q141 0 230.5 73.5t89.5 192.5q0 117 -85.5 188.5t-217.5 71.5h-161v-526z" />
<glyph unicode="Q" d="M75 694q0 170 61.5 309t166 228t238.5 137t283 48q158 0 296.5 -51.5t239.5 -144t159.5 -228.5t58.5 -298q0 -143 -44.5 -264.5t-122.5 -208.5t-179 -145.5t-220 -85.5q104 -59 327 -59l1 -207q-450 0 -679 261q-124 23 -230 82t-185.5 147t-125 212t-45.5 268zM343 694 q0 -224 132 -370.5t349 -146.5q149 0 260.5 70.5t168 187t56.5 259.5q0 226 -136.5 370.5t-348.5 144.5q-213 0 -347 -145.5t-134 -369.5z" />
<glyph unicode="R" horiz-adv-x="1247" d="M169 0v1387h431q264 0 407.5 -123t143.5 -316q0 -135 -72 -239.5t-210 -156.5l323 -552h-283l-297 507h-12h-173v-507h-258zM427 714h193q115 0 191 64.5t76 167.5t-76 168.5t-191 65.5h-193v-466z" />
<glyph unicode="S" horiz-adv-x="1170" d="M80 228l171 150q141 -196 325 -202h15q101 0 165 52q70 56 69 139q0 29 -10.5 55.5t-23.5 46t-40.5 40t-46.5 32.5t-57 28t-56 23t-59.5 21.5t-52.5 18.5q-342 126 -342 386q0 11 1 22q6 115 71 202.5t167 131.5q98 42 213 41h11q113 -2 217.5 -45.5t185.5 -133.5 l-140 -165q-115 125 -258 131h-11q-85 0 -137 -44q-54 -46 -54 -121v-5q1 -28 9 -50.5t27 -41.5t37 -32.5t54 -28.5t61 -24.5t73 -25.5q60 -20 105 -38.5t98 -46t89.5 -60t69 -74.5t48.5 -97t16 -120q0 -104 -43.5 -188t-117 -136.5t-167.5 -80.5q-85 -25 -176 -24h-20 q-169 4 -294.5 80.5t-191.5 183.5z" />
<glyph unicode="T" horiz-adv-x="1276" d="M40 1179v207h1196v-207h-469v-1179h-258v1179h-469z" />
<glyph unicode="U" horiz-adv-x="1568" d="M154 578v808h258v-813q0 -183 104 -288.5t268 -105.5t268 105.5t104 288.5v813h258v-808q0 -148 -49 -265.5t-135 -192t-199.5 -114t-246.5 -39.5t-246.5 39.5t-199.5 114t-135 192t-49 265.5z" />
<glyph unicode="V" horiz-adv-x="1505" d="M28 1386h287l442 -1047l430 1047h290l-600 -1386h-239z" />
<glyph unicode="W" horiz-adv-x="2257" d="M28 1386h287l345 -972l376 972h189l368 -974l358 974h278l-521 -1386h-204l-375 1001l-382 -1001h-194z" />
<glyph unicode="X" horiz-adv-x="1417" d="M38 0l510 707l-474 679h306l324 -462l333 462h306l-480 -664l516 -722h-304l-366 508l-367 -508h-304z" />
<glyph unicode="Y" horiz-adv-x="1309" d="M-32 1386h283l400 -619l409 619h280l-555 -849v-537h-259v529z" />
<glyph unicode="Z" horiz-adv-x="1229" d="M85 0l2 172l732 1006h-706l2 207h998v-196l-722 -982h753l-2 -207h-1057z" />
<glyph unicode="[" horiz-adv-x="666" d="M169 -294v1699h407v-207h-149v-1285h149v-207h-407z" />
<glyph unicode="\" horiz-adv-x="1067" d="M29 1406h225l785 -1425h-226z" />
<glyph unicode="]" horiz-adv-x="666" d="M90 -87h149v1285h-149v207h407v-1699h-407v207z" />
<glyph unicode="_" horiz-adv-x="889" d="M-2 0h894v-133h-894v133z" />
<glyph unicode="`" horiz-adv-x="754" d="M486 1807h325l167 -292h-161z" />
<glyph unicode="a" horiz-adv-x="1000" d="M66 242q0 51 19 92.5t48 69.5t74.5 51t87 36t98.5 27q12 3 45 11t45.5 11t38 10.5t38 13.5t29 15t26 19.5t15.5 23.5v4q0 46 -50 81.5t-123 36.5h-7q-127 0 -223 -103l-97 143q172 130 371 130q103 0 187.5 -36t138 -112t53.5 -180v-586h-237l-7 119q-58 -63 -132.5 -100 t-156.5 -37q-118 0 -199.5 73t-81.5 187zM318 254q0 -45 36 -74q35 -28 87 -28h4q99 2 185 91v239q-29 -43 -117 -77q-105 -41 -133 -58q-62 -38 -62 -93z" />
<glyph unicode="b" horiz-adv-x="1150" d="M127 115v1310h250v-592q123 82 267 82q119 0 218 -56.5t159.5 -165.5t60.5 -250q0 -220 -144.5 -344.5t-372.5 -124.5q-233 0 -438 141zM376 185q77 -47 163 -47q128 0 210 88q83 89 83 231q0 125 -70 199q-71 76 -183 75q-108 0 -202 -71z" />
<glyph unicode="c" horiz-adv-x="921" d="M58 446q0 109 42 199t113 148t162 89t191 31q145 0 285 -69l-92 -176q-77 50 -169 50q-118 0 -200 -74t-82 -195q0 -118 80.5 -192.5t196.5 -74.5q110 0 192 68l110 -170q-146 -93 -327 -93q-99 0 -188.5 29.5t-160 85.5t-112 145t-41.5 199z" />
<glyph unicode="d" horiz-adv-x="1147" d="M68 450q0 109 37 198.5t100 147.5t144 89t171 31q146 0 250 -69v578h250v-1335q-198 -113 -426 -113q-237 0 -381.5 126t-144.5 347zM323 451v-7q0 -130 77 -214q79 -86 211 -86q82 0 159 34v496q-81 58 -182 58q-113 0 -188 -74t-77 -207z" />
<glyph unicode="e" horiz-adv-x="1058" d="M58 460q0 105 41 193t109 144.5t156 86.5q85 30 177 30h6q73 -1 141 -20.5t129.5 -61.5t104.5 -102t64 -150q14 -61 14 -130q0 -33 -3 -68h-694q20 -105 90 -156.5t177 -53.5h6q156 0 262 97l115 -154q-165 -130 -375 -130h-19q-142 4 -255.5 63.5t-179.5 167t-66 244.5z M305 544h458q-1 85 -60.5 139t-156.5 56h-7q-87 1 -149 -47q-66 -50 -85 -148z" />
<glyph unicode="f" horiz-adv-x="743" d="M85 701v199h122v137q0 164 97.5 262.5t255.5 98.5q113 0 221 -47l-71 -188q-68 28 -113 28q-57 0 -95.5 -42t-38.5 -117v-132h197l-2 -199h-195v-701h-256v701h-122z" />
<glyph unicode="g" horiz-adv-x="1136" d="M42 -334q0 105 72 175.5t192 87.5q-107 53 -107 142q0 56 43.5 99.5t119.5 58.5q-111 24 -191 106.5t-80 207.5q0 157 132 262t345 105h488v-184h-178q112 -79 112 -204q0 -137 -123 -227t-295 -98q-52 -7 -83.5 -29t-31.5 -57q0 -41 44.5 -58.5t132.5 -21.5q50 -2 96 -8 t102.5 -18.5t103 -35t86 -54t62 -79.5t22.5 -108q0 -168 -165.5 -271t-420.5 -103q-220 0 -349 83t-129 229zM288 -313q0 -65 57.5 -106t192.5 -41q148 0 244.5 49.5t96.5 128.5q0 134 -283 134q-148 0 -228 -43t-80 -122zM337 538q0 -70 53 -118.5t147 -48.5q90 0 147.5 50 t59.5 122v5q0 72 -54 120q-56 51 -147 51q-92 0 -149 -53t-57 -128z" />
<glyph unicode="h" horiz-adv-x="1158" d="M127 0v1425h250v-687q62 84 148.5 130t185.5 46q142 0 234.5 -94t92.5 -262v-558h-251l1 518q0 91 -50 142t-121 51q-64 0 -126.5 -42t-113.5 -116v-553h-250z" />
<glyph unicode="i" horiz-adv-x="502" d="M126 0v900h250v-900h-250zM126 1029v225h250v-225h-250z" />
<glyph unicode="j" horiz-adv-x="549" d="M-37 -211q111 4 160.5 72.5t49.5 205.5v833h250v-851q0 -238 -123 -355q-115 -108 -307 -108q-15 0 -30 1v202zM173 1029v225h250v-225h-250z" />
<glyph unicode="k" horiz-adv-x="1064" d="M127 0v1405h250v-870l346 365h314l-411 -424l436 -476h-315l-370 417v-417h-250z" />
<glyph unicode="l" horiz-adv-x="504" d="M127 0v1425h250v-1425h-250z" />
<glyph unicode="m" horiz-adv-x="1801" d="M131 0v900h250v-166q143 181 330 181q102 0 182.5 -51.5t116.5 -149.5q132 200 350 200q152 0 236.5 -99t84.5 -266v-549h-250v527q0 85 -42 132.5t-114 47.5q-129 0 -244 -156v-551h-250v527q0 83 -41.5 131.5t-115.5 48.5q-70 0 -133.5 -43.5t-109.5 -112.5v-551h-250z " />
<glyph unicode="n" horiz-adv-x="1161" d="M131 0v900h255v-168q135 182 332 182q141 0 232 -98t91 -273v-543h-254v511q0 98 -47 146.5t-118 48.5q-68 0 -130 -44.5t-106 -112.5v-549h-255z" />
<glyph unicode="o" horiz-adv-x="1148" d="M58 449q0 113 44 204.5t117 148.5t164.5 87t191.5 30q78 0 151.5 -18t140 -56t116 -92.5t78.5 -133.5t29 -172q0 -94 -30 -172.5t-80 -132t-117 -90t-140.5 -53.5t-150.5 -17q-103 0 -195.5 31t-163.5 89t-113 147.5t-42 199.5zM312 448q0 -119 73.5 -195.5t188.5 -76.5 t188.5 76.5t73.5 195.5q0 118 -73 197t-189 79t-189 -79.5t-73 -196.5z" />
<glyph unicode="p" horiz-adv-x="1154" d="M131 -497v1319q212 103 426 103q239 0 384 -123t145 -343q0 -110 -37.5 -200.5t-102 -149t-147 -90t-174.5 -31.5q-126 0 -244 57v-542h-250zM381 218q85 -46 174 -46q117 0 196 78t81 207v6q0 124 -76 209q-78 88 -213 88q-83 0 -162 -33v-509z" />
<glyph unicode="q" horiz-adv-x="1147" d="M68 450q0 221 144.5 347t381.5 126q228 0 426 -113v-1335h-250v578q-104 -69 -250 -69q-90 0 -171 31t-144 89t-100 147.5t-37 198.5zM323 449q2 -133 77 -207t188 -74q101 0 182 58v496q-77 34 -159 34q-132 0 -211 -86q-77 -83 -77 -214v-7z" />
<glyph unicode="r" horiz-adv-x="806" d="M131 0v900h250v-201q38 89 115.5 152t171.5 63q49 0 102 -19l-1 -240q-59 26 -124 26q-80 0 -151.5 -55t-112.5 -158v-468h-250z" />
<glyph unicode="s" horiz-adv-x="869" d="M63 110l89 159q130 -95 270 -95q57 0 91 21.5t34 55.5q0 16 -7 30t-22.5 25.5t-30.5 20.5t-40 18t-40.5 14.5t-43 14t-37.5 11.5q-233 74 -233 248v9q4 124 109 197.5t251 73.5q160 0 305 -92l-86 -161q-92 66 -194 66q-62 0 -97 -23.5t-35 -55.5q0 -35 45 -57.5 t135 -47.5q42 -12 74 -23t75 -34.5t70.5 -51t46.5 -71.5q17 -40 17 -87v-10q-4 -119 -105.5 -199.5t-264.5 -80.5q-201 0 -376 125z" />
<glyph unicode="t" horiz-adv-x="820" d="M43 705v195h153v280h250v-280h300l-2 -195h-298v-397q0 -121 136 -124h3q73 0 160 55l74 -181q-134 -73 -271 -73q-152 0 -251.5 86.5t-99.5 248.5v385h-154z" />
<glyph unicode="u" horiz-adv-x="1154" d="M115 310v589h250v-560q0 -71 43.5 -111t110.5 -40q64 0 132 38t121 104v570h250v-900h-242l-8 155q-73 -79 -165.5 -124.5t-188.5 -45.5q-130 0 -216.5 84t-86.5 241z" />
<glyph unicode="v" horiz-adv-x="1003" d="M2 900h252l238 -578l261 578h248l-420 -900h-190z" />
<glyph unicode="w" horiz-adv-x="1540" d="M2 900h254l203 -541l228 541h168l227 -542l204 542h252l-356 -900h-169l-244 571l-244 -571h-167z" />
<glyph unicode="x" horiz-adv-x="1051" d="M22 0l367 472l-334 428h275l197 -249l194 249h285l-339 -434l362 -466h-271l-230 288l-225 -288h-281z" />
<glyph unicode="y" horiz-adv-x="1077" d="M17 900h264l252 -590l274 590h262l-534 -1119q-61 -131 -171 -191q-93 -50 -209 -50q-20 0 -40 1v204h16q135 0 199 127l80 161z" />
<glyph unicode="z" horiz-adv-x="988" d="M61 0v39l498 667h-469v194h837v-40l-500 -667h471v-193h-837z" />
<glyph unicode="{" horiz-adv-x="757" d="M47 343v240q125 9 170 71.5t45 204.5v148q1 210 93.5 302t281.5 92h92v-230q-123 0 -168 -40.5t-45 -129.5v-147q-2 -173 -43.5 -262.5t-153.5 -128.5q112 -39 153.5 -128.5t43.5 -262.5v-147q0 -89 45 -129.5t168 -40.5v-230h-92q-189 0 -281.5 92t-93.5 302v148 q0 142 -45 204.5t-170 71.5z" />
<glyph unicode="|" horiz-adv-x="600" />
<glyph unicode="}" horiz-adv-x="773" d="M6 -245q123 0 168 40.5t45 129.5v147q2 173 43.5 262.5t153.5 128.5q-112 39 -153.5 128.5t-43.5 262.5v147q0 89 -45 129.5t-168 40.5v230h92q189 0 281.5 -92t93.5 -302v-148q0 -142 45 -204.5t170 -71.5v-240q-125 -9 -170 -71.5t-45 -204.5v-148q-1 -210 -93.5 -302 t-281.5 -92h-92v230z" />
<glyph unicode="&#xa1;" horiz-adv-x="560" d="M92 -449l46 1014h186l43 -1014h-275zM123 689v250h222v-250h-222z" />
<glyph unicode="&#xa2;" horiz-adv-x="921" d="M58 707q0 192 120 314t302 147l6 218h166l-6 -217q107 -15 205 -64l-92 -176q-53 35 -119 46l-14 -529q86 11 151 65l110 -170q-121 -76 -267 -90l-7 -251h-167l7 257q-172 30 -283.5 146.5t-111.5 303.5zM308 710q0 -83 41.5 -145.5t110.5 -94.5l14 487 q-75 -30 -120.5 -94t-45.5 -153z" />
<glyph unicode="&#xa3;" horiz-adv-x="1076" d="M25 -32l173 627h-125v211h182q93 295 242 454t337 159q66 0 161 -31l-70 -202q-47 20 -82 20q-177 0 -317 -400h341v-211h-402l-98 -355q48 6 95 6q71 0 176 -20t151 -20q121 0 210 75l80 -200q-121 -87 -279 -87q-55 0 -183.5 18.5t-216.5 18.5q-184 0 -375 -63z" />
<glyph unicode="&#xa4;" horiz-adv-x="626" />
<glyph unicode="&#xa5;" horiz-adv-x="1281" d="M-36 1386h283l400 -619l409 619h280l-442 -676h230v-190h-343v-70h343v-190h-343v-260h-259v260h-345v190h345v70h-345v190h227z" />
<glyph unicode="&#xa6;" horiz-adv-x="600" />
<glyph unicode="&#xa7;" horiz-adv-x="600" />
<glyph unicode="&#xa8;" horiz-adv-x="754" d="M454 1541v243h246v-243h-246zM872 1541v243h247v-243h-247z" />
<glyph unicode="&#xa9;" horiz-adv-x="1405" d="M0 693q0 138 57.5 266t152.5 221t225 149t268 56t267.5 -56t224.5 -149t152.5 -221t57.5 -266t-57.5 -266.5t-152.5 -221.5t-224.5 -149t-267.5 -56t-268 56t-225 149t-152.5 221.5t-57.5 266.5zM182 693q0 -222 150.5 -376.5t370.5 -154.5q144 0 264 71t188 192.5 t68 267.5q0 145 -68 266.5t-188 192.5t-264 71q-145 0 -265 -71t-188 -192.5t-68 -266.5z" />
<glyph unicode="&#xab;" horiz-adv-x="1115" d="M29 498l327 492h270l-327 -492l327 -498h-269zM474 498l327 492h270l-327 -492l327 -498h-269z" />
<glyph unicode="&#xad;" horiz-adv-x="753" d="M43 450v207h667v-207h-667z" />
<glyph unicode="&#xae;" horiz-adv-x="1405" d="M0 693q0 138 57.5 266t152.5 221t225 149t268 56t267.5 -56t224.5 -149t152.5 -221t57.5 -266t-57.5 -266.5t-152.5 -221.5t-224.5 -149t-267.5 -56t-268 56t-225 149t-152.5 221.5t-57.5 266.5zM182 693q0 -222 150.5 -376.5t370.5 -154.5q144 0 264 71t188 192.5 t68 267.5q0 145 -68 266.5t-188 192.5t-264 71q-145 0 -265 -71t-188 -192.5t-68 -266.5z" />
<glyph unicode="&#xaf;" horiz-adv-x="1135" d="M45 1560v114h983v-114h-983z" />
<glyph unicode="&#xb0;" horiz-adv-x="600" />
<glyph unicode="&#xb4;" horiz-adv-x="754" d="M640 1505l167 292h325l-331 -292h-161z" />
<glyph unicode="&#xb6;" horiz-adv-x="1201" d="M50 920q0 213 151.5 340t420.5 127h410v-1387h-259v447h-137q-270 0 -428 126t-158 347zM309 920q0 -119 89.5 -192.5t230.5 -73.5h144v526h-161q-132 0 -217.5 -71.5t-85.5 -188.5z" />
<glyph unicode="&#xb7;" horiz-adv-x="634" d="M39 527v270h241v-270h-241z" />
<glyph unicode="&#xb8;" horiz-adv-x="702" d="M665 -293q79 1 121.5 25t42.5 57q0 25 -27.5 46t-92.5 24l114 162h145l-41 -82q78 -16 122.5 -59t44.5 -105q0 -31 -11 -58t-41 -54.5t-76.5 -47t-123.5 -31.5t-177 -12v135z" />
<glyph unicode="&#xbb;" horiz-adv-x="1114" d="M36 0l327 498l-327 492h270l327 -492l-328 -498h-269zM481 0l327 498l-327 492h270l327 -492l-328 -498h-269z" />
<glyph unicode="&#xbc;" horiz-adv-x="1587" d="M-33 1225l175 159h261v-721h-258v463l-56 -50zM196 -19l784 1425h226l-786 -1425h-224zM891 131v203l355 387h199v-383h88v-207h-88v-131h-258v131h-296zM1082 338h105v113z" />
<glyph unicode="&#xbd;" horiz-adv-x="1624" d="M-33 1225l175 159h261v-721h-258v463l-56 -50zM196 -19l784 1425h226l-786 -1425h-224zM973 0v190l273 215q59 44 59 80q0 47 -44 47q-26 0 -42 -24.5t-21 -62.5l-225 96q18 51 45 88.5t54.5 57.5t63.5 32t64 15.5t63 3.5q126 0 208 -63t82 -173q0 -133 -135 -239 l-75 -56h225v-207h-595z" />
<glyph unicode="&#xbe;" horiz-adv-x="1762" d="M21 759l116 154q18 -22 50 -38.5t67 -15.5q30 1 47.5 13t17.5 30q0 17 -15 30.5t-43 13.5h-79l1 168h70q26 0 44 11t18 30q0 34 -55 34q-54 0 -81 -29l-113 145q97 94 230 94q109 0 191 -57t82 -151q0 -54 -29 -97t-70 -60q98 -34 98 -151q0 -114 -83.5 -173t-201.5 -59 q-155 0 -262 108zM371 -19l784 1425h226l-786 -1425h-224zM1066 131v203l355 387h199v-383h88v-207h-88v-131h-258v131h-296zM1257 338h105v113z" />
<glyph unicode="&#xbf;" horiz-adv-x="809" d="M-23 41q0 66 20.5 121t53 94t72.5 74.5t79.5 70.5t72.5 74t53.5 94.5t20.5 121.5v20h221v-20q0 -87 -17.5 -160t-45.5 -123t-62 -91.5t-68.5 -74t-63 -62t-48 -63t-22.5 -69.5q-5 -70 45 -117.5t127 -43.5q66 4 120 48.5t85 120.5l221 -87q-54 -144 -169 -224.5 t-264 -84.5q-184 -5 -307.5 102t-123.5 279zM348 830v245h218v-245h-218z" />
<glyph unicode="&#xc0;" horiz-adv-x="1462" d="M13 0l580 1386h277l579 -1386h-296l-131 341h-582l-133 -341h-294zM444 1827h325l167 -292h-161zM520 548h423l-210 548z" />
<glyph unicode="&#xc1;" horiz-adv-x="1462" d="M13 0l580 1386h277l579 -1386h-296l-131 341h-582l-133 -341h-294zM497 1506l167 292h325l-331 -292h-161zM520 548h423l-210 548z" />
<glyph unicode="&#xc2;" horiz-adv-x="1462" d="M13 0l580 1386h277l579 -1386h-296l-131 341h-582l-133 -341h-294zM378 1514l180 316h347l181 -316h-180l-174 182l-175 -182h-179zM520 548h423l-210 548z" />
<glyph unicode="&#xc3;" horiz-adv-x="1462" d="M13 0l580 1386h277l579 -1386h-296l-131 341h-582l-133 -341h-294zM338 1598q13 106 73.5 165.5t150.5 59.5q54 0 113.5 -23t113.5 -46t96 -23q85 0 104 78l137 -23q-7 -116 -71 -181.5t-161 -65.5q-66 0 -169 44.5t-152 44.5q-79 0 -98 -65zM520 548h423l-210 548z" />
<glyph unicode="&#xc4;" horiz-adv-x="1462" d="M13 0l580 1386h277l579 -1386h-296l-131 341h-582l-133 -341h-294zM396 1561v243h246v-243h-246zM520 548h423l-210 548zM814 1561v243h247v-243h-247z" />
<glyph unicode="&#xc5;" horiz-adv-x="1462" d="M13 0l580 1386h277l579 -1386h-296l-131 341h-582l-133 -341h-294zM520 548h423l-210 548zM535 1730q0 80 57 136t141 56q83 0 141.5 -56t58.5 -136q0 -81 -59 -138t-142 -57q-84 0 -140.5 58t-56.5 137zM631 1729q0 -41 30 -70.5t72 -29.5t73.5 29.5t31.5 70.5t-31 69.5 t-73 28.5t-72.5 -28.5t-30.5 -69.5z" />
<glyph unicode="&#xc6;" horiz-adv-x="1910" d="M13 0l792 1386h1020v-206h-682v-373h558v-207h-558v-394h682v-206h-932v438h-368l-240 -438h-272zM639 645h254v462z" />
<glyph unicode="&#xc7;" horiz-adv-x="1393" d="M75 694q0 139 44.5 258t120.5 203.5t176.5 144.5t213.5 89t230 29q263 0 472 -143l-122 -190q-148 119 -341 119q-101 0 -195.5 -35.5t-169.5 -99t-120 -162.5t-45 -217q0 -152 75 -269.5t193.5 -177.5t257.5 -60q107 0 201 36.5t157 98.5l130 -195q-173 -126 -405 -149 l-17 -35q78 -16 122.5 -59t44.5 -105q0 -31 -11 -58t-41 -54.5t-76.5 -47t-123.5 -31.5t-177 -12v135q79 1 121.5 25t42.5 57q0 25 -27.5 46t-92.5 24l79 112q-115 7 -220 40.5t-196 95t-158 145t-105 197t-38 245.5z" />
<glyph unicode="&#xc8;" horiz-adv-x="1186" d="M169 0v1386h932v-206h-682v-373h558v-207h-558v-394h682v-206h-932zM370 1837h325l167 -292h-161z" />
<glyph unicode="&#xc9;" horiz-adv-x="1186" d="M169 0v1386h932v-206h-682v-373h558v-207h-558v-394h682v-206h-932zM423 1516l167 292h325l-331 -292h-161z" />
<glyph unicode="&#xca;" horiz-adv-x="1186" d="M169 0v1386h932v-206h-682v-373h558v-207h-558v-394h682v-206h-932zM304 1524l180 316h347l181 -316h-180l-174 182l-175 -182h-179z" />
<glyph unicode="&#xcb;" horiz-adv-x="1186" d="M169 0v1386h932v-206h-682v-373h558v-207h-558v-394h682v-206h-932zM322 1571v243h246v-243h-246zM740 1571v243h247v-243h-247z" />
<glyph unicode="&#xcc;" horiz-adv-x="596" d="M7 1807h325l167 -292h-161zM169 0v1385h258v-1385h-258z" />
<glyph unicode="&#xcd;" horiz-adv-x="596" d="M60 1486l167 292h325l-331 -292h-161zM169 0v1385h258v-1385h-258z" />
<glyph unicode="&#xce;" horiz-adv-x="596" d="M-59 1494l180 316h347l181 -316h-180l-174 182l-175 -182h-179zM169 0v1385h258v-1385h-258z" />
<glyph unicode="&#xcf;" horiz-adv-x="596" d="M-41 1541v243h246v-243h-246zM169 0v1385h258v-1385h-258zM377 1541v243h247v-243h-247z" />
<glyph unicode="&#xd0;" horiz-adv-x="1429" d="M-33 717v207h202v462h337q261 0 451 -80.5t293.5 -239t103.5 -382.5q0 -171 -62 -303t-173 -214.5t-259.5 -124.5t-328.5 -42h-362v717h-202zM427 207h111q252 0 401 125.5t149 355.5q0 122 -45 217.5t-123 154.5t-178 89t-216 30h-99v-255h207v-207h-207v-510z" />
<glyph unicode="&#xd1;" horiz-adv-x="1584" d="M169 0v1386h219l769 -975v975h258v-1386h-217l-771 964v-964h-258zM400 1598q13 106 73.5 165.5t150.5 59.5q54 0 113.5 -23t113.5 -46t96 -23q85 0 104 78l137 -23q-7 -116 -71 -181.5t-161 -65.5q-66 0 -169 44.5t-152 44.5q-79 0 -98 -65z" />
<glyph unicode="&#xd2;" d="M75 694q0 170 61.5 309t166 228t238.5 137t283 48q158 0 296.5 -51.5t239.5 -144t159.5 -228.5t58.5 -298q0 -136 -41 -254t-112.5 -203t-166.5 -146t-205.5 -91t-228.5 -30q-150 0 -285.5 49.5t-238.5 139.5t-164 229t-61 306zM343 694q0 -224 132 -370.5t349 -146.5 q149 0 260.5 70.5t168 187t56.5 259.5q0 226 -136.5 370.5t-348.5 144.5q-213 0 -347 -145.5t-134 -369.5zM537 1886h325l167 -292h-161z" />
<glyph unicode="&#xd3;" d="M75 694q0 170 61.5 309t166 228t238.5 137t283 48q158 0 296.5 -51.5t239.5 -144t159.5 -228.5t58.5 -298q0 -136 -41 -254t-112.5 -203t-166.5 -146t-205.5 -91t-228.5 -30q-150 0 -285.5 49.5t-238.5 139.5t-164 229t-61 306zM343 694q0 -224 132 -370.5t349 -146.5 q149 0 260.5 70.5t168 187t56.5 259.5q0 226 -136.5 370.5t-348.5 144.5q-213 0 -347 -145.5t-134 -369.5zM590 1565l167 292h325l-331 -292h-161z" />
<glyph unicode="&#xd4;" d="M75 694q0 170 61.5 309t166 228t238.5 137t283 48q158 0 296.5 -51.5t239.5 -144t159.5 -228.5t58.5 -298q0 -136 -41 -254t-112.5 -203t-166.5 -146t-205.5 -91t-228.5 -30q-150 0 -285.5 49.5t-238.5 139.5t-164 229t-61 306zM343 694q0 -224 132 -370.5t349 -146.5 q149 0 260.5 70.5t168 187t56.5 259.5q0 226 -136.5 370.5t-348.5 144.5q-213 0 -347 -145.5t-134 -369.5zM471 1573l180 316h347l181 -316h-180l-174 182l-175 -182h-179z" />
<glyph unicode="&#xd5;" d="M75 694q0 170 61.5 309t166 228t238.5 137t283 48q158 0 296.5 -51.5t239.5 -144t159.5 -228.5t58.5 -298q0 -136 -41 -254t-112.5 -203t-166.5 -146t-205.5 -91t-228.5 -30q-150 0 -285.5 49.5t-238.5 139.5t-164 229t-61 306zM343 694q0 -224 132 -370.5t349 -146.5 q149 0 260.5 70.5t168 187t56.5 259.5q0 226 -136.5 370.5t-348.5 144.5q-213 0 -347 -145.5t-134 -369.5zM431 1657q13 106 73.5 165.5t150.5 59.5q54 0 113.5 -23t113.5 -46t96 -23q85 0 104 78l137 -23q-7 -116 -71 -181.5t-161 -65.5q-43 0 -89.5 14t-80 30.5 t-75.5 30.5t-76 14q-79 0 -98 -65z" />
<glyph unicode="&#xd6;" d="M75 694q0 170 61.5 309t166 228t238.5 137t283 48q158 0 296.5 -51.5t239.5 -144t159.5 -228.5t58.5 -298q0 -136 -41 -254t-112.5 -203t-166.5 -146t-205.5 -91t-228.5 -30q-150 0 -285.5 49.5t-238.5 139.5t-164 229t-61 306zM343 694q0 -224 132 -370.5t349 -146.5 q149 0 260.5 70.5t168 187t56.5 259.5q0 226 -136.5 370.5t-348.5 144.5q-213 0 -347 -145.5t-134 -369.5zM489 1620v243h246v-243h-246zM907 1620v243h247v-243h-247z" />
<glyph unicode="&#xd8;" d="M75 694q0 170 61.5 309t166 228t238.5 137t283 48q134 0 251 -36l38 69h239l-86 -156q146 -95 229 -249t83 -350q0 -136 -41 -254t-112.5 -203t-166.5 -146t-205.5 -91t-228.5 -30q-138 0 -264 41l-41 -74h-238l91 166q-139 95 -218 245.5t-79 345.5zM343 694 q0 -237 144 -383l483 878q-71 20 -146 20q-213 0 -347 -145.5t-134 -369.5zM665 201q72 -24 159 -24q149 0 260.5 70.5t168 187t56.5 259.5q0 120 -41 220.5t-116 170.5z" />
<glyph unicode="&#xd9;" horiz-adv-x="1568" d="M154 578v808h258v-813q0 -183 104 -288.5t268 -105.5t268 105.5t104 288.5v813h258v-808q0 -148 -49 -265.5t-135 -192t-199.5 -114t-246.5 -39.5t-246.5 39.5t-199.5 114t-135 192t-49 265.5zM496 1837h325l167 -292h-161z" />
<glyph unicode="&#xda;" horiz-adv-x="1568" d="M154 578v808h258v-813q0 -183 104 -288.5t268 -105.5t268 105.5t104 288.5v813h258v-808q0 -148 -49 -265.5t-135 -192t-199.5 -114t-246.5 -39.5t-246.5 39.5t-199.5 114t-135 192t-49 265.5zM549 1516l167 292h325l-331 -292h-161z" />
<glyph unicode="&#xdb;" horiz-adv-x="1568" d="M154 578v808h258v-813q0 -183 104 -288.5t268 -105.5t268 105.5t104 288.5v813h258v-808q0 -148 -49 -265.5t-135 -192t-199.5 -114t-246.5 -39.5t-246.5 39.5t-199.5 114t-135 192t-49 265.5zM430 1524l180 316h347l181 -316h-180l-174 182l-175 -182h-179z" />
<glyph unicode="&#xdc;" horiz-adv-x="1568" d="M154 578v808h258v-813q0 -183 104 -288.5t268 -105.5t268 105.5t104 288.5v813h258v-808q0 -148 -49 -265.5t-135 -192t-199.5 -114t-246.5 -39.5t-246.5 39.5t-199.5 114t-135 192t-49 265.5zM448 1571v243h246v-243h-246zM866 1571v243h247v-243h-247z" />
<glyph unicode="&#xdd;" horiz-adv-x="1309" d="M-32 1386h283l400 -619l409 619h280l-555 -849v-537h-259v529zM420 1516l167 292h325l-331 -292h-161z" />
<glyph unicode="&#xde;" horiz-adv-x="1203" d="M169 0v1386h259v-204h144q276 0 428.5 -125t152.5 -337q0 -102 -37.5 -188t-111 -151.5t-191.5 -102t-269 -36.5h-116v-242h-259zM428 449h125q75 0 134.5 16.5t97.5 43t63 62.5t35.5 73.5t10.5 77.5q-1 114 -87.5 184t-255.5 70h-123v-527z" />
<glyph unicode="&#xdf;" horiz-adv-x="1354" d="M167 0v935q0 218 140.5 351t374.5 133q205 0 342.5 -99.5t137.5 -258.5q0 -100 -52 -166.5t-124 -101.5q53 -16 99.5 -44.5t87 -72t64.5 -109t24 -144.5q0 -135 -65.5 -236.5t-171 -152.5t-233.5 -51q-90 0 -180 28l51 207q53 -14 100 -14q105 0 166 66.5t61 171.5 q0 119 -77 186t-198 74v167q79 6 126 56.5t47 115.5q0 73 -59 122t-143 49q-98 0 -164 -68t-66 -179v-965h-288z" />
<glyph unicode="&#xe0;" horiz-adv-x="1000" d="M66 242q0 51 19 92.5t48 69.5t74.5 51t87 36t98.5 27q12 3 45 11t45.5 11t38 10.5t38 13.5t29 15t26 19.5t15.5 23.5v4q0 46 -50 81.5t-123 36.5q-132 3 -230 -103l-97 143q172 130 371 130q103 0 187.5 -36t138 -112t53.5 -180v-586h-237l-7 119q-58 -63 -132.5 -100 t-156.5 -37q-118 0 -199.5 73t-81.5 187zM257 1386h325l167 -292h-161zM318 254q0 -45 36.5 -74t90.5 -28q99 2 185 91v239q-29 -43 -117 -77q-105 -41 -133 -58q-62 -38 -62 -93z" />
<glyph unicode="&#xe1;" horiz-adv-x="1000" d="M66 242q0 51 19 92.5t48 69.5t74.5 51t87 36t98.5 27q12 3 45 11t45.5 11t38 10.5t38 13.5t29 15t26 19.5t15.5 23.5v4q0 46 -50 81.5t-123 36.5q-132 3 -230 -103l-97 143q172 130 371 130q103 0 187.5 -36t138 -112t53.5 -180v-586h-237l-7 119q-58 -63 -132.5 -100 t-156.5 -37q-118 0 -199.5 73t-81.5 187zM310 1065l167 292h325l-331 -292h-161zM318 254q0 -45 36.5 -74t90.5 -28q99 2 185 91v239q-29 -43 -117 -77q-105 -41 -133 -58q-62 -38 -62 -93z" />
<glyph unicode="&#xe2;" horiz-adv-x="1000" d="M66 242q0 51 19 92.5t48 69.5t74.5 51t87 36t98.5 27q12 3 45 11t45.5 11t38 10.5t38 13.5t29 15t26 19.5t15.5 23.5v4q0 46 -50 81.5t-123 36.5q-132 3 -230 -103l-97 143q172 130 371 130q103 0 187.5 -36t138 -112t53.5 -180v-586h-237l-7 119q-58 -63 -132.5 -100 t-156.5 -37q-118 0 -199.5 73t-81.5 187zM191 1073l180 316h347l181 -316h-180l-174 182l-175 -182h-179zM318 254q0 -45 36.5 -74t90.5 -28q99 2 185 91v239q-29 -43 -117 -77q-105 -41 -133 -58q-62 -38 -62 -93z" />
<glyph unicode="&#xe3;" horiz-adv-x="1000" d="M66 242q0 51 19 92.5t48 69.5t74.5 51t87 36t98.5 27q12 3 45 11t45.5 11t38 10.5t38 13.5t29 15t26 19.5t15.5 23.5v4q0 46 -50 81.5t-123 36.5q-132 3 -230 -103l-97 143q172 130 371 130q103 0 187.5 -36t138 -112t53.5 -180v-586h-237l-7 119q-58 -63 -132.5 -100 t-156.5 -37q-118 0 -199.5 73t-81.5 187zM151 1157q13 106 73.5 165.5t150.5 59.5q54 0 113.5 -23t113.5 -46t96 -23q85 0 104 78l137 -23q-7 -116 -71 -181.5t-161 -65.5q-43 0 -89.5 14t-80 30.5t-75.5 30.5t-76 14q-79 0 -98 -65zM318 254q0 -45 36.5 -74t90.5 -28 q99 2 185 91v239q-29 -43 -117 -77q-105 -41 -133 -58q-62 -38 -62 -93z" />
<glyph unicode="&#xe4;" horiz-adv-x="1000" d="M66 242q0 51 19 92.5t48 69.5t74.5 51t87 36t98.5 27q12 3 45 11t45.5 11t38 10.5t38 13.5t29 15t26 19.5t15.5 23.5v4q0 46 -50 81.5t-123 36.5q-132 3 -230 -103l-97 143q172 130 371 130q103 0 187.5 -36t138 -112t53.5 -180v-586h-237l-7 119q-58 -63 -132.5 -100 t-156.5 -37q-118 0 -199.5 73t-81.5 187zM209 1120v243h246v-243h-246zM318 254q0 -45 36.5 -74t90.5 -28q99 2 185 91v239q-29 -43 -117 -77q-105 -41 -133 -58q-62 -38 -62 -93zM627 1120v243h247v-243h-247z" />
<glyph unicode="&#xe5;" horiz-adv-x="1000" d="M66 242q0 51 19 92.5t48 69.5t74.5 51t87 36t98.5 27q12 3 45 11t45.5 11t38 10.5t38 13.5t29 15t26 19.5t15.5 23.5v4q0 46 -50 81.5t-123 36.5q-132 3 -230 -103l-97 143q172 130 371 130q103 0 187.5 -36t138 -112t53.5 -180v-586h-237l-7 119q-58 -63 -132.5 -100 t-156.5 -37q-118 0 -199.5 73t-81.5 187zM318 254q0 -45 36.5 -74t90.5 -28q99 2 185 91v239q-29 -43 -117 -77q-105 -41 -133 -58q-62 -38 -62 -93zM348 1289q0 80 57 136t141 56q83 0 141.5 -56t58.5 -136q0 -81 -59 -138t-142 -57q-84 0 -140.5 58t-56.5 137zM444 1288 q0 -41 30 -70.5t72 -29.5t73.5 29.5t31.5 70.5t-31 69.5t-73 28.5t-72.5 -28.5t-30.5 -69.5z" />
<glyph unicode="&#xe6;" horiz-adv-x="1705" d="M66 242q0 51 19 92.5t48 69.5t74.5 51t87 36t98.5 27q12 3 45 11t45.5 11t38 10.5t38 13.5t29 15t26 19.5t15.5 23.5v4q0 46 -50 81.5t-123 36.5q-132 3 -230 -103l-97 143q172 130 371 130q102 0 188 -37.5t136 -107.5q68 71 165 109.5t204 36.5q73 -1 141 -20.5 t129.5 -61.5t104.5 -102.5t64 -150t11 -197.5h-694q20 -105 90 -156.5t177 -53.5q160 -2 268 97l115 -154q-172 -136 -394 -130q-192 6 -326 109v-95h-237l-7 119q-58 -63 -132.5 -100t-156.5 -37q-118 0 -199.5 73t-81.5 187zM318 254q0 -45 36.5 -74t90.5 -28q99 2 185 91 v239q-29 -43 -117 -77q-105 -41 -133 -58q-62 -38 -62 -93zM952 545h458q-1 85 -60.5 139t-156.5 56q-90 2 -155.5 -47.5t-85.5 -147.5z" />
<glyph unicode="&#xe7;" horiz-adv-x="921" d="M58 446q0 109 42 199t113 148t162 89t191 31q145 0 285 -69l-92 -176q-77 50 -169 50q-118 0 -200 -74t-82 -195q0 -118 80.5 -192.5t196.5 -74.5q110 0 192 68l110 -170q-116 -73 -251 -88l-26 -53q78 -16 122.5 -59t44.5 -105q0 -31 -11 -58t-41 -54.5t-76.5 -47 t-123.5 -31.5t-177 -12v135q79 1 121.5 25t42.5 57q0 25 -27.5 46t-92.5 24l93 132q-88 10 -164 44t-135.5 90t-93.5 138.5t-34 182.5z" />
<glyph unicode="&#xe8;" horiz-adv-x="1058" d="M58 460q0 105 41 193t109 144.5t156 87t183 29.5q73 -1 141 -20.5t129.5 -61.5t104.5 -102.5t64 -150t11 -197.5h-694q20 -105 90 -156.5t177 -53.5q160 -2 268 97l115 -154q-172 -136 -394 -130q-142 4 -255.5 63.5t-179.5 167t-66 244.5zM279 1395h325l167 -292h-161z M305 544h458q-1 85 -60.5 139t-156.5 56q-90 2 -155.5 -47.5t-85.5 -147.5z" />
<glyph unicode="&#xe9;" horiz-adv-x="1058" d="M58 460q0 105 41 193t109 144.5t156 87t183 29.5q73 -1 141 -20.5t129.5 -61.5t104.5 -102.5t64 -150t11 -197.5h-694q20 -105 90 -156.5t177 -53.5q160 -2 268 97l115 -154q-172 -136 -394 -130q-142 4 -255.5 63.5t-179.5 167t-66 244.5zM305 544h458q-1 85 -60.5 139 t-156.5 56q-90 2 -155.5 -47.5t-85.5 -147.5zM332 1074l167 292h325l-331 -292h-161z" />
<glyph unicode="&#xea;" horiz-adv-x="1058" d="M58 460q0 105 41 193t109 144.5t156 87t183 29.5q73 -1 141 -20.5t129.5 -61.5t104.5 -102.5t64 -150t11 -197.5h-694q20 -105 90 -156.5t177 -53.5q160 -2 268 97l115 -154q-172 -136 -394 -130q-142 4 -255.5 63.5t-179.5 167t-66 244.5zM213 1082l180 316h347 l181 -316h-180l-174 182l-175 -182h-179zM305 544h458q-1 85 -60.5 139t-156.5 56q-90 2 -155.5 -47.5t-85.5 -147.5z" />
<glyph unicode="&#xeb;" horiz-adv-x="1058" d="M58 460q0 105 41 193t109 144.5t156 87t183 29.5q73 -1 141 -20.5t129.5 -61.5t104.5 -102.5t64 -150t11 -197.5h-694q20 -105 90 -156.5t177 -53.5q160 -2 268 97l115 -154q-172 -136 -394 -130q-142 4 -255.5 63.5t-179.5 167t-66 244.5zM231 1129v243h246v-243h-246z M305 544h458q-1 85 -60.5 139t-156.5 56q-90 2 -155.5 -47.5t-85.5 -147.5zM649 1129v243h247v-243h-247z" />
<glyph unicode="&#xec;" horiz-adv-x="511" d="M-28 1395h325l167 -292h-161zM126 0v900h259v-900h-259z" />
<glyph unicode="&#xed;" horiz-adv-x="511" d="M25 1074l167 292h325l-331 -292h-161zM126 0v900h259v-900h-259z" />
<glyph unicode="&#xee;" horiz-adv-x="511" d="M-94 1082l180 316h347l181 -316h-180l-174 182l-175 -182h-179zM126 0v900h259v-900h-259z" />
<glyph unicode="&#xef;" horiz-adv-x="511" d="M-76 1129v243h246v-243h-246zM126 0v900h259v-900h-259zM342 1129v243h247v-243h-247z" />
<glyph unicode="&#xf0;" horiz-adv-x="1181" d="M40 519q29 192 173.5 298t338.5 76q150 -24 250 -120q-37 108 -109 200l-71 -71l-147 146l74 74q-66 56 -142 106l141 186q85 -53 169 -124l112 112l146 -147l-113 -113q130 -157 185.5 -337.5t27.5 -368.5q-17 -111 -66.5 -205t-124 -160t-179 -95.5t-223.5 -10.5 q-217 34 -345.5 190.5t-96.5 363.5zM295 465q-17 -112 47 -191t174 -96t191.5 42.5t98.5 168.5q18 112 -46 194t-172 98q-109 17 -193 -44t-100 -172z" />
<glyph unicode="&#xf1;" horiz-adv-x="1161" d="M131 0v900h255v-168q135 182 332 182q141 0 232 -98t91 -273v-543h-254v511q0 98 -47 146.5t-118 48.5q-68 0 -130 -44.5t-106 -112.5v-549h-255zM233 1166q13 106 73.5 165.5t150.5 59.5q54 0 113.5 -23t113.5 -46t96 -23q85 0 104 78l137 -23q-7 -116 -71 -181.5 t-161 -65.5q-54 0 -112.5 22.5t-112.5 44.5t-96 22q-79 0 -98 -65z" />
<glyph unicode="&#xf2;" horiz-adv-x="1148" d="M58 449q0 113 44 204.5t117 148.5t164.5 87t191.5 30q78 0 151.5 -18t140 -56t116 -92.5t78.5 -133.5t29 -172q0 -94 -30 -172.5t-80 -132t-117 -90t-140.5 -53.5t-150.5 -17q-103 0 -195.5 31t-163.5 89t-113 147.5t-42 199.5zM289 1395h325l167 -292h-161zM312 448 q0 -119 73.5 -195.5t188.5 -76.5t188.5 76.5t73.5 195.5q0 118 -73 197t-189 79t-189 -79.5t-73 -196.5z" />
<glyph unicode="&#xf3;" horiz-adv-x="1148" d="M58 449q0 113 44 204.5t117 148.5t164.5 87t191.5 30q78 0 151.5 -18t140 -56t116 -92.5t78.5 -133.5t29 -172q0 -94 -30 -172.5t-80 -132t-117 -90t-140.5 -53.5t-150.5 -17q-103 0 -195.5 31t-163.5 89t-113 147.5t-42 199.5zM312 448q0 -119 73.5 -195.5t188.5 -76.5 t188.5 76.5t73.5 195.5q0 118 -73 197t-189 79t-189 -79.5t-73 -196.5zM342 1074l167 292h325l-331 -292h-161z" />
<glyph unicode="&#xf4;" horiz-adv-x="1148" d="M58 449q0 113 44 204.5t117 148.5t164.5 87t191.5 30q78 0 151.5 -18t140 -56t116 -92.5t78.5 -133.5t29 -172q0 -94 -30 -172.5t-80 -132t-117 -90t-140.5 -53.5t-150.5 -17q-103 0 -195.5 31t-163.5 89t-113 147.5t-42 199.5zM223 1082l180 316h347l181 -316h-180 l-174 182l-175 -182h-179zM312 448q0 -119 73.5 -195.5t188.5 -76.5t188.5 76.5t73.5 195.5q0 118 -73 197t-189 79t-189 -79.5t-73 -196.5z" />
<glyph unicode="&#xf5;" horiz-adv-x="1148" d="M58 449q0 113 44 204.5t117 148.5t164.5 87t191.5 30q78 0 151.5 -18t140 -56t116 -92.5t78.5 -133.5t29 -172q0 -94 -30 -172.5t-80 -132t-117 -90t-140.5 -53.5t-150.5 -17q-103 0 -195.5 31t-163.5 89t-113 147.5t-42 199.5zM183 1166q13 106 73.5 165.5t150.5 59.5 q54 0 113.5 -23t113.5 -46t96 -23q85 0 104 78l137 -23q-7 -116 -71 -181.5t-161 -65.5q-54 0 -112.5 22.5t-112.5 44.5t-96 22q-79 0 -98 -65zM312 448q0 -119 73.5 -195.5t188.5 -76.5t188.5 76.5t73.5 195.5q0 118 -73 197t-189 79t-189 -79.5t-73 -196.5z" />
<glyph unicode="&#xf6;" horiz-adv-x="1148" d="M58 449q0 113 44 204.5t117 148.5t164.5 87t191.5 30q78 0 151.5 -18t140 -56t116 -92.5t78.5 -133.5t29 -172q0 -94 -30 -172.5t-80 -132t-117 -90t-140.5 -53.5t-150.5 -17q-103 0 -195.5 31t-163.5 89t-113 147.5t-42 199.5zM241 1129v243h246v-243h-246zM312 448 q0 -119 73.5 -195.5t188.5 -76.5t188.5 76.5t73.5 195.5q0 118 -73 197t-189 79t-189 -79.5t-73 -196.5zM659 1129v243h247v-243h-247z" />
<glyph unicode="&#xf8;" horiz-adv-x="1148" d="M58 449q0 113 44 204.5t117 148.5t164.5 87t191.5 30q70 0 136 -15l146 265h226l-188 -341q195 -131 195 -381q0 -94 -30 -172.5t-80 -132t-117 -90t-140.5 -53.5t-150.5 -17q-68 0 -136 14l-139 -252h-224l181 328q-92 61 -144 157t-52 220zM312 448q0 -99 54 -172 l245 446q-24 2 -37 2q-116 0 -189 -79.5t-73 -196.5zM537 178q24 -2 37 -2q115 0 188.5 76.5t73.5 195.5q0 101 -54 175z" />
<glyph unicode="&#xf9;" horiz-adv-x="1154" d="M115 310v589h250v-560q0 -71 43.5 -111t110.5 -40q64 0 132 38t121 104v570h250v-900h-242l-8 155q-73 -79 -165.5 -124.5t-188.5 -45.5q-130 0 -216.5 84t-86.5 241zM271 1395h325l167 -292h-161z" />
<glyph unicode="&#xfa;" horiz-adv-x="1154" d="M115 310v589h250v-560q0 -71 43.5 -111t110.5 -40q64 0 132 38t121 104v570h250v-900h-242l-8 155q-73 -79 -165.5 -124.5t-188.5 -45.5q-130 0 -216.5 84t-86.5 241zM324 1074l167 292h325l-331 -292h-161z" />
<glyph unicode="&#xfb;" horiz-adv-x="1154" d="M115 310v589h250v-560q0 -71 43.5 -111t110.5 -40q64 0 132 38t121 104v570h250v-900h-242l-8 155q-73 -79 -165.5 -124.5t-188.5 -45.5q-130 0 -216.5 84t-86.5 241zM205 1082l180 316h347l181 -316h-180l-174 182l-175 -182h-179z" />
<glyph unicode="&#xfc;" horiz-adv-x="1154" d="M115 310v589h250v-560q0 -71 43.5 -111t110.5 -40q64 0 132 38t121 104v570h250v-900h-242l-8 155q-73 -79 -165.5 -124.5t-188.5 -45.5q-130 0 -216.5 84t-86.5 241zM223 1129v243h246v-243h-246zM641 1129v243h247v-243h-247z" />
<glyph unicode="&#xfd;" horiz-adv-x="1077" d="M17 900h264l252 -590l274 590h262l-534 -1119q-61 -131 -170.5 -190.5t-249.5 -49.5v204q147 -8 215 127l80 161zM303 1074l167 292h325l-331 -292h-161z" />
<glyph unicode="&#xfe;" horiz-adv-x="1200" d="M127 -463v1849h288v-507q111 36 226 36q218 0 354.5 -123t136.5 -339q0 -144 -66.5 -252t-172.5 -161.5t-234 -53.5q-126 0 -244 57v-506h-288zM415 216q86 -46 174 -46q121 0 199.5 77.5t80.5 207.5q2 124 -72.5 209.5t-209.5 85.5q-85 0 -172 -35v-499z" />
<glyph unicode="&#xff;" horiz-adv-x="1077" d="M17 900h264l252 -590l274 590h262l-534 -1119q-61 -131 -170.5 -190.5t-249.5 -49.5v204q147 -8 215 127l80 161zM202 1129v243h246v-243h-246zM620 1129v243h247v-243h-247z" />
<glyph unicode="&#x152;" horiz-adv-x="2362" d="M75 694q0 170 61.5 309t166 228t238.5 137t283 48q153 0 286.5 -47t234.5 -136v153h932v-206h-682v-373h558v-207h-558v-394h682v-206h-932v155q-104 -90 -239 -137.5t-282 -47.5q-150 0 -285.5 49.5t-238.5 139.5t-164 229t-61 306zM343 694q0 -224 132 -370.5 t349 -146.5q149 0 260.5 70.5t168 187t56.5 259.5q0 226 -136.5 370.5t-348.5 144.5q-213 0 -347 -145.5t-134 -369.5z" />
<glyph unicode="&#x153;" horiz-adv-x="1842" d="M58 446q0 113 44 204.5t117 148.5t164.5 87t191.5 30q112 0 214.5 -37.5t174.5 -110.5q69 70 165 107.5t202 35.5q73 -1 141 -20.5t129.5 -61.5t104.5 -102.5t64 -150t11 -197.5h-694q20 -105 90 -156.5t177 -53.5q160 -2 268 97l115 -154q-172 -136 -394 -130 q-111 3 -207 41.5t-164 107.5q-73 -75 -179 -113.5t-221 -38.5q-103 0 -195.5 31t-163.5 89t-113 147.5t-42 199.5zM312 445q0 -119 73.5 -195.5t188.5 -76.5t188.5 76.5t73.5 195.5q0 118 -73 197t-189 79t-189 -79.5t-73 -196.5zM1089 541h458q-1 85 -60.5 139t-156.5 56 q-90 2 -155.5 -47.5t-85.5 -147.5z" />
<glyph unicode="&#x178;" horiz-adv-x="1309" d="M-32 1386h283l400 -619l409 619h280l-555 -849v-537h-259v529zM319 1571v243h246v-243h-246zM737 1571v243h247v-243h-247z" />
<glyph unicode="&#x2c6;" horiz-adv-x="754" d="M441 1494l180 316h347l181 -316h-180l-174 182l-175 -182h-179z" />
<glyph unicode="&#x2dc;" horiz-adv-x="703" d="M407 1578q13 106 73.5 165.5t150.5 59.5q54 0 113.5 -23t113.5 -46t96 -23q85 0 104 78l137 -23q-7 -116 -71 -181.5t-161 -65.5q-54 0 -112.5 22.5t-112.5 44.5t-96 22q-79 0 -98 -65z" />
<glyph unicode="&#x2000;" horiz-adv-x="961" />
<glyph unicode="&#x2001;" horiz-adv-x="1922" />
<glyph unicode="&#x2002;" horiz-adv-x="961" />
<glyph unicode="&#x2003;" horiz-adv-x="1922" />
<glyph unicode="&#x2004;" horiz-adv-x="640" />
<glyph unicode="&#x2005;" horiz-adv-x="480" />
<glyph unicode="&#x2006;" horiz-adv-x="320" />
<glyph unicode="&#x2007;" horiz-adv-x="320" />
<glyph unicode="&#x2008;" horiz-adv-x="240" />
<glyph unicode="&#x2009;" horiz-adv-x="384" />
<glyph unicode="&#x200a;" horiz-adv-x="106" />
<glyph unicode="&#x2010;" horiz-adv-x="753" d="M43 450v207h667v-207h-667z" />
<glyph unicode="&#x2011;" horiz-adv-x="753" d="M43 450v207h667v-207h-667z" />
<glyph unicode="&#x2012;" horiz-adv-x="753" d="M43 450v207h667v-207h-667z" />
<glyph unicode="&#x2013;" horiz-adv-x="1118" d="M43 450v207h1032v-207h-1032z" />
<glyph unicode="&#x2014;" horiz-adv-x="1845" d="M43 450v207h1759v-207h-1759z" />
<glyph unicode="&#x2018;" horiz-adv-x="317" d="M7 945l1 237q1 121 71 210.5t195 106.5v-77q-73 -23 -100.5 -75.5t-26.5 -135.5h126v-266h-266z" />
<glyph unicode="&#x2019;" horiz-adv-x="317" d="M43 893v77q73 23 100.5 75.5t26.5 135.5h-126v266h266l-1 -237q-1 -121 -71 -210.5t-195 -106.5z" />
<glyph unicode="&#x201a;" horiz-adv-x="353" d="M43 -211q73 23 100.5 75.5t26.5 135.5h-126v266h266l-1 -237q-1 -121 -71 -210.5t-195 -106.5v77z" />
<glyph unicode="&#x201c;" horiz-adv-x="649" d="M7 944l1 237q1 121 71 210.5t195 106.5v-77q-73 -23 -100.5 -75.5t-26.5 -135.5h126v-266h-266zM339 944l1 237q1 121 71 210.5t195 106.5v-77q-73 -23 -100.5 -75.5t-26.5 -135.5h126v-266h-266z" />
<glyph unicode="&#x201d;" horiz-adv-x="649" d="M43 893v77q73 23 100.5 75.5t26.5 135.5h-126v266h266l-1 -237q-1 -121 -71 -210.5t-195 -106.5zM375 893v77q73 23 100.5 75.5t26.5 135.5h-126v266h266l-1 -237q-1 -121 -71 -210.5t-195 -106.5z" />
<glyph unicode="&#x201e;" horiz-adv-x="685" d="M43 -211q73 23 100.5 75.5t26.5 135.5h-126v266h266l-1 -237q-1 -121 -71 -210.5t-195 -106.5v77zM375 -211q73 23 100.5 75.5t26.5 135.5h-126v266h266l-1 -237q-1 -121 -71 -210.5t-195 -106.5v77z" />
<glyph unicode="&#x2022;" horiz-adv-x="593" d="M122 558v342h349v-342h-349z" />
<glyph unicode="&#x2026;" horiz-adv-x="1673" d="M96 -45v270h241v-270h-241zM624 -45v270h241v-270h-241zM1150 -45v270h241v-270h-241z" />
<glyph unicode="&#x202f;" horiz-adv-x="384" />
<glyph unicode="&#x2039;" horiz-adv-x="670" d="M29 498l327 492h270l-327 -492l327 -498h-269z" />
<glyph unicode="&#x203a;" horiz-adv-x="669" d="M36 0l327 498l-327 492h270l327 -492l-328 -498h-269z" />
<glyph unicode="&#x205f;" horiz-adv-x="480" />
<glyph unicode="&#x20ac;" horiz-adv-x="1265" d="M-25 453v190h109q-1 17 -1 51v31h-108v190h136q27 100 78.5 183t119 141.5t149.5 98.5t169.5 59t178.5 19q199 1 383 -95l-89 -191q-140 80 -287 80q-152 0 -264.5 -79.5t-165.5 -215.5h438v-190h-477l-1 -31q0 -17 2 -51h476v-190h-431q56 -127 167 -199t251 -72 q162 -1 302 90l94 -198q-203 -101 -408 -99q-150 0 -284 52.5t-241 162.5t-154 263h-142z" />
<glyph unicode="&#x2122;" horiz-adv-x="1120" d="M-3 1234v152h635l139 -185l143 185h160v-530h-193v232l-96 -115h-30l-95 114v-231h-192v378h-110v-378h-192v378h-169z" />
<glyph unicode="&#x25fc;" horiz-adv-x="900" d="M0 0v900h900v-900h-900z" />
</font>
</defs>
</svg>
