<svg version="1.1"  xmlns="http://www.w3.org/2000/svg"  x="0px" y="0px"	 width="280px" height="50px" viewBox="0 0 280 50">
<path fill="#FFFFFF" d="M151.193,36.545h-0.608v-3.514h0.608V36.545z M150.882,31.559c0.117,0,0.226,0.039,0.312,0.135
	c0.076,0.084,0.123,0.193,0.123,0.316s-0.045,0.225-0.123,0.316c-0.094,0.098-0.194,0.133-0.323,0.133
	c-0.12,0-0.226-0.035-0.306-0.133c-0.094-0.092-0.137-0.193-0.137-0.316s0.043-0.232,0.137-0.316
	C150.645,31.598,150.759,31.559,150.882,31.559 M157.262,36.545h-0.611v-1.846c0-0.352-0.069-0.625-0.191-0.791
	c-0.182-0.227-0.402-0.336-0.695-0.336c-0.316,0-0.556,0.131-0.73,0.396c-0.108,0.166-0.16,0.418-0.16,0.767v1.811h-0.609V34.57
	c0-0.482,0.131-0.865,0.391-1.16c0.271-0.301,0.637-0.449,1.109-0.449c0.666,0,1.121,0.287,1.361,0.863
	c0.094,0.223,0.137,0.461,0.137,0.73V36.545L157.262,36.545z M162.607,33.031h0.647l-1.088,3.094
	c-0.056,0.174-0.114,0.281-0.177,0.344c-0.096,0.1-0.229,0.15-0.411,0.15c-0.198,0-0.335-0.059-0.435-0.168
	c-0.047-0.061-0.105-0.174-0.162-0.346l-1.078-3.074h0.64l0.923,2.729c0.029,0.082,0.066,0.123,0.1,0.123
	c0.041,0,0.082-0.043,0.104-0.123L162.607,33.031z M168.893,34.922l0.424,0.246c-0.119,0.408-0.284,0.723-0.514,0.951
	c-0.34,0.336-0.757,0.5-1.266,0.5c-0.534,0-0.975-0.195-1.332-0.576c-0.326-0.352-0.493-0.768-0.493-1.246
	c0-0.541,0.19-0.99,0.567-1.348c0.341-0.33,0.74-0.488,1.225-0.488c0.523,0,0.954,0.186,1.293,0.564
	c0.109,0.119,0.211,0.281,0.324,0.483l-2.213,1.461l-0.256-0.446l1.68-1.146c-0.188-0.24-0.46-0.357-0.828-0.357
	c-0.33,0-0.609,0.117-0.824,0.353c-0.22,0.242-0.328,0.528-0.328,0.862c0,0.359,0.115,0.668,0.354,0.927
	c0.241,0.271,0.542,0.403,0.879,0.403c0.231,0,0.472-0.067,0.685-0.198C168.564,35.686,168.77,35.367,168.893,34.922
	 M172.012,36.545V36.01h1.373c0.243,0,0.418-0.02,0.518-0.029c0.168-0.043,0.255-0.155,0.255-0.371c0-0.17-0.106-0.289-0.31-0.364
	l-1.291-0.463c-0.455-0.156-0.677-0.435-0.677-0.839c0-0.604,0.415-0.911,1.269-0.911h1.381v0.547h-1.48
	c-0.369,0-0.561,0.125-0.561,0.383c0,0.17,0.107,0.291,0.324,0.363l1.22,0.434c0.252,0.097,0.437,0.193,0.538,0.3
	c0.144,0.153,0.219,0.346,0.219,0.594c0,0.6-0.385,0.895-1.146,0.895h-1.631V36.545z M178.292,33.592v1.637
	c0,0.187,0.022,0.328,0.052,0.433c0.088,0.225,0.334,0.33,0.752,0.33h0.305v0.555h-0.338c-0.28,0-0.498-0.016-0.658-0.062
	c-0.282-0.077-0.473-0.227-0.59-0.463c-0.082-0.18-0.137-0.436-0.137-0.776v-3.271h0.614v1.082h1.108v0.535H178.292z
	 M186.982,36.545h-0.615v-2.104c0-0.256-0.061-0.465-0.178-0.621c-0.131-0.164-0.326-0.248-0.568-0.248
	c-0.258,0-0.459,0.102-0.605,0.311c-0.068,0.102-0.115,0.213-0.133,0.328c-0.005,0.061-0.02,0.176-0.02,0.348v1.986h-0.596V34.5
	c0-0.623-0.262-0.928-0.761-0.928c-0.278,0-0.478,0.107-0.62,0.32c-0.066,0.084-0.1,0.182-0.115,0.307
	c-0.004,0.053-0.014,0.162-0.014,0.328v2.018h-0.611v-2.111c0-0.289,0.039-0.521,0.097-0.674c0.194-0.535,0.603-0.799,1.22-0.799
	c0.497,0,0.862,0.215,1.104,0.648c0.254-0.435,0.615-0.648,1.094-0.648c0.251,0,0.488,0.059,0.707,0.184
	c0.4,0.228,0.615,0.646,0.615,1.226V36.545L186.982,36.545z M193.023,34.922l0.427,0.246c-0.121,0.408-0.284,0.723-0.519,0.953
	c-0.338,0.334-0.758,0.498-1.263,0.498c-0.528,0-0.969-0.195-1.332-0.576c-0.325-0.352-0.487-0.768-0.487-1.246
	c0-0.541,0.184-0.99,0.564-1.348c0.334-0.33,0.744-0.488,1.234-0.488c0.51,0,0.939,0.186,1.277,0.564
	c0.11,0.119,0.217,0.281,0.326,0.483l-2.212,1.461l-0.265-0.446l1.69-1.146c-0.187-0.24-0.468-0.357-0.821-0.357
	c-0.338,0-0.621,0.117-0.834,0.353c-0.222,0.242-0.322,0.528-0.322,0.862c0,0.359,0.109,0.668,0.348,0.927
	c0.241,0.271,0.536,0.403,0.882,0.403c0.245,0,0.466-0.067,0.681-0.198C192.695,35.686,192.904,35.367,193.023,34.922
	 M199.201,36.545h-0.598v-1.846c0-0.352-0.078-0.625-0.203-0.793c-0.174-0.225-0.408-0.334-0.696-0.334
	c-0.315,0-0.558,0.131-0.729,0.4c-0.104,0.161-0.16,0.413-0.16,0.762v1.811h-0.604V34.57c0-0.482,0.138-0.865,0.388-1.16
	c0.266-0.301,0.641-0.449,1.106-0.449c0.672,0,1.128,0.287,1.364,0.863c0.095,0.223,0.133,0.461,0.133,0.73V36.545z M202.887,33.592
	v1.637c0,0.187,0.012,0.328,0.049,0.433c0.084,0.225,0.332,0.33,0.758,0.33h0.289v0.555h-0.33c-0.28,0-0.502-0.016-0.66-0.062
	c-0.281-0.077-0.477-0.227-0.59-0.463c-0.094-0.18-0.129-0.436-0.129-0.776v-3.271h0.615v1.082h1.096v0.535H202.887z"/>
<polygon fill="#FFFFFF" points="126.372,36.52 147.818,14.717 147.773,25.434 136.92,36.494 "/>
<rect x="143.654" y="32.752" fill="#FFFFFF" width="1.611" height="1.645"/>
<rect x="145.807" y="32.752" fill="#FFFFFF" width="1.605" height="1.645"/>
<rect x="143.654" y="34.873" fill="#FFFFFF" width="1.611" height="1.646"/>
<rect x="145.807" y="34.873" fill="#FFFFFF" width="1.605" height="1.646"/>
<path fill="#FFFFFF" d="M174.423,21.943v-0.092v-0.009v-0.002v-0.034l0.009-0.062v-0.009v-0.065c0-0.112,0.014-0.213,0.021-0.293
	v-0.016l0.002-0.063l0.015-0.057c0.01-0.123,0.02-0.225,0.04-0.33V20.91c0.013-0.107,0.033-0.209,0.054-0.313
	c0.022-0.111,0.037-0.219,0.061-0.307c0.141-0.525,0.32-1.043,0.561-1.533h0.008c0.051-0.1,0.092-0.189,0.131-0.26
	c0.043-0.076,0.095-0.158,0.143-0.246h-0.002c0.25-0.424,0.541-0.813,0.867-1.166l0.008-0.002c0.061-0.07,0.129-0.141,0.196-0.203
	c0.055-0.053,0.12-0.125,0.198-0.191c0.275-0.258,0.578-0.492,0.9-0.707l0.063-0.031c0.06-0.043,0.115-0.076,0.18-0.123l0.041-0.023
	l0.002-0.01h0.014l0.063-0.039H178l0.075-0.045c0.12-0.068,0.253-0.137,0.358-0.197l0.069-0.035l0.073-0.027h0.01
	c0.13-0.066,0.25-0.129,0.364-0.172l0.012-0.004c0.129-0.055,0.254-0.102,0.372-0.145c0.127-0.043,0.256-0.088,0.387-0.123
	c0.672-0.193,1.35-0.293,2.059-0.293h0.264v0.006c0.938,0.031,1.823,0.246,2.667,0.625c0.144,0.07,0.296,0.133,0.451,0.229
	c0.757,0.402,1.472,0.949,2.149,1.639l0.115,0.123l0.18,0.182l-0.16,0.189l-0.117,0.121l-1.131,1.326h0.006l-0.107,0.137
	l-0.179,0.199l-0.196-0.172l-0.132-0.117l-0.006-0.006l-0.162-0.135l-0.157-0.129c-0.267-0.221-0.506-0.416-0.726-0.582v-0.006
	l-0.131-0.092l-0.108-0.08c-0.168-0.125-0.313-0.219-0.438-0.295l-0.065-0.041l-0.075-0.043h-0.012l-0.027-0.025l-0.043-0.016V17.75
	c-0.063-0.035-0.127-0.066-0.197-0.09l-0.043-0.023l-0.033-0.006c-0.069-0.043-0.135-0.064-0.195-0.092l-0.059-0.02
	c-0.061-0.021-0.116-0.049-0.188-0.07c-0.059-0.014-0.125-0.029-0.193-0.055c-0.314-0.082-0.643-0.119-0.963-0.109h-0.093
	l-0.028,0.004H181.6h-0.063c-0.077,0.014-0.152,0.014-0.229,0.02h-0.002l-0.052,0.004l-0.048,0.008v0.004
	c-0.087,0.008-0.172,0.016-0.247,0.037h-0.009c-0.073,0.014-0.15,0.02-0.242,0.047c-0.078,0.016-0.152,0.033-0.232,0.055
	c-0.396,0.109-0.781,0.271-1.144,0.492c-0.056,0.027-0.114,0.057-0.14,0.08c-0.057,0.035-0.1,0.066-0.153,0.098
	c-0.238,0.172-0.461,0.367-0.652,0.58l-0.009,0.002c-0.04,0.045-0.083,0.086-0.119,0.125c-0.039,0.051-0.076,0.1-0.102,0.139
	c-0.196,0.232-0.348,0.488-0.492,0.766v0.014h-0.001l-0.037,0.074l-0.039,0.076c-0.058,0.135-0.114,0.268-0.161,0.395l-0.033,0.078
	l-0.021,0.074c-0.051,0.143-0.082,0.268-0.119,0.393l-0.006,0.014c-0.006,0.043-0.021,0.104-0.025,0.146v0.004
	c-0.003,0.047-0.023,0.098-0.035,0.156c-0.05,0.26-0.063,0.531-0.063,0.805v0.109v0.008c0,0.146,0.009,0.297,0.026,0.441
	c0.008,0.049,0.012,0.098,0.012,0.137c0.035,0.225,0.08,0.438,0.14,0.658l0.009,0.037l0.008,0.033
	c0.018,0.051,0.041,0.104,0.045,0.146c0.017,0.056,0.033,0.099,0.048,0.142c0.015,0.047,0.038,0.09,0.062,0.146
	c0.096,0.233,0.204,0.459,0.336,0.68l0.03,0.058l0.006,0.006l0.003,0.002l0.025,0.045l0.033,0.045
	c0.045,0.076,0.094,0.152,0.145,0.23c0.041,0.047,0.072,0.092,0.115,0.147c0.04,0.058,0.084,0.097,0.113,0.14v0.01h0.007
	c0.051,0.07,0.116,0.129,0.177,0.195c0.07,0.077,0.129,0.137,0.189,0.188c0.322,0.307,0.707,0.563,1.121,0.764v0.01h0.004
	c0.055,0.012,0.094,0.031,0.137,0.053c0.035,0.027,0.083,0.043,0.137,0.062c0.223,0.097,0.447,0.162,0.678,0.22
	c0.043,0.01,0.084,0.022,0.146,0.03c0.054,0.013,0.102,0.021,0.128,0.021c0.235,0.039,0.481,0.059,0.71,0.059h0.014
	c0.189,0,0.387-0.014,0.584-0.025l0.092-0.022v-0.006c0.154-0.013,0.309-0.046,0.461-0.091c0.06-0.006,0.106-0.021,0.147-0.039
	c0.054-0.008,0.103-0.026,0.147-0.045c0.261-0.084,0.503-0.2,0.734-0.33c0.057-0.03,0.104-0.055,0.141-0.086
	c0.049-0.024,0.084-0.047,0.135-0.084c0.229-0.143,0.428-0.317,0.611-0.498l0.004-0.008c0.035-0.026,0.068-0.061,0.109-0.108
	c0.031-0.027,0.071-0.068,0.103-0.115c0.181-0.201,0.341-0.424,0.478-0.666l0.021-0.045l0.005-0.015h0.008l0.033-0.069
	c0.024-0.039,0.047-0.084,0.067-0.113c0.094-0.227,0.182-0.438,0.244-0.661c0.043-0.119,0.068-0.244,0.09-0.363l0.014-0.08h-4.071
	h-0.178h-0.267v-0.273v-0.18v-1.664v-0.18V20.74h0.267h0.178h6.372h0.18h0.266v0.279v0.18v1.068v0.27v0.016v0.262h-0.01
	c-0.008,0.229-0.025,0.468-0.057,0.679c-0.016,0.121-0.035,0.237-0.049,0.338c-0.021,0.119-0.055,0.231-0.083,0.344
	c-0.083,0.369-0.204,0.738-0.369,1.089l-0.021,0.053v0.006l-0.023,0.057c-0.059,0.098-0.1,0.189-0.15,0.277
	c-0.049,0.096-0.105,0.188-0.166,0.287c-0.055,0.09-0.112,0.184-0.168,0.272c-0.313,0.449-0.695,0.884-1.131,1.277l-0.004,0.014
	l-0.066,0.062H186.4l-0.065,0.051l-0.256,0.223v-0.004c-0.123,0.088-0.231,0.176-0.33,0.254h-0.007l-0.088,0.051l-0.076,0.062
	c-0.156,0.106-0.299,0.187-0.446,0.278h-0.008c-0.031,0.013-0.065,0.033-0.108,0.062c-0.148,0.08-0.295,0.151-0.447,0.215
	c-0.143,0.072-0.291,0.14-0.453,0.189c-0.756,0.276-1.555,0.418-2.405,0.418h-0.005l-0.083-0.005v0.005l-0.002-0.005h-0.038
	l-0.118-0.008h-0.011l-0.105-0.012c-0.188,0-0.367-0.027-0.539-0.043h-0.015l-0.101-0.023l-0.109-0.008
	c-0.189-0.028-0.372-0.067-0.553-0.104h-0.01c-0.172-0.045-0.351-0.1-0.526-0.154c-0.168-0.053-0.341-0.113-0.511-0.188
	c-0.868-0.353-1.66-0.883-2.366-1.578h-0.011V27.24l-0.191-0.182l0.008-0.015c-0.037-0.028-0.068-0.063-0.1-0.092v-0.009
	l-0.034-0.045l-0.04-0.041c-0.075-0.082-0.133-0.147-0.186-0.219c-0.066-0.078-0.123-0.162-0.188-0.229
	c-0.045-0.062-0.1-0.14-0.158-0.228c-0.279-0.408-0.516-0.834-0.695-1.287l-0.088-0.233h0.002c-0.028-0.06-0.049-0.125-0.08-0.195
	c-0.129-0.36-0.225-0.719-0.293-1.061v-0.009l-0.017-0.069c-0.012-0.056-0.024-0.121-0.041-0.201
	c-0.004-0.06-0.015-0.129-0.024-0.199c-0.043-0.323-0.065-0.649-0.065-0.975v-0.009H174.423z"/>
<path fill="#FFFFFF" d="M161.584,28.9V17.098c0-0.303,0.033-0.59,0.113-0.848l0.056-0.189h0.015l0.015-0.027
	c0.06-0.182,0.161-0.352,0.272-0.514c0.051-0.068,0.104-0.125,0.153-0.191c0.052-0.059,0.115-0.117,0.175-0.158
	c0.316-0.254,0.694-0.377,1.146-0.377h0.012h0.266v0.014c0.047,0.01,0.098,0.01,0.15,0.029c0.039,0.008,0.084,0.016,0.139,0.021
	c0.053,0.023,0.104,0.037,0.145,0.053c0.158,0.059,0.314,0.127,0.449,0.23c0.029,0.018,0.06,0.035,0.076,0.053h0.004
	c0.028,0.023,0.055,0.047,0.068,0.059v0.002l0.008,0.01c0.037,0.025,0.08,0.057,0.111,0.088c0.035,0.035,0.068,0.07,0.089,0.1
	c0.14,0.148,0.254,0.318,0.356,0.502h0.006l0.074,0.146l3.933,8.27v-9.133h-0.002v-0.184v-0.273h0.274h0.168h1.771h0.187h0.27v0.273
	v0.184v12.43c0,0.551-0.16,0.971-0.473,1.246c-0.297,0.279-0.739,0.428-1.309,0.428h-0.002c-0.223,0-0.443-0.029-0.628-0.086
	c-0.037-0.01-0.063-0.02-0.101-0.033c-0.174-0.053-0.329-0.117-0.48-0.215l-0.212-0.133v-0.012
	c-0.116-0.086-0.226-0.178-0.312-0.273h-0.004c-0.023-0.023-0.035-0.045-0.058-0.068h-0.009c-0.01-0.028-0.032-0.043-0.044-0.076
	c-0.093-0.125-0.158-0.25-0.216-0.391l-3.984-8.328V28.9v0.178v0.285h-0.273h-0.17h-1.773h-0.18h-0.267v-0.285V28.9H161.584z"/>
<path fill="#FFFFFF" d="M150.441,28.902v-8.9c0-0.232,0.017-0.463,0.045-0.686l0.012-0.119c0.031-0.182,0.07-0.379,0.117-0.562
	l0.052-0.209h0.011c0.01-0.053,0.031-0.104,0.053-0.166c0.108-0.32,0.248-0.631,0.406-0.93l0.055-0.094l0.051-0.092v-0.002
	c0.094-0.152,0.193-0.313,0.296-0.453h0.002l0.058-0.084l0.012-0.004l0.054-0.082c0.112-0.141,0.229-0.27,0.345-0.387v-0.008v-0.006
	l0.004,0.006c0.121-0.121,0.234-0.242,0.372-0.336c0.123-0.102,0.263-0.211,0.397-0.301c0.715-0.453,1.551-0.684,2.507-0.684h0.002
	c0.385,0,0.767,0.037,1.117,0.104c0.049,0.021,0.108,0.023,0.168,0.035c0.288,0.072,0.565,0.158,0.829,0.283v0.008
	c0.098,0.033,0.188,0.08,0.266,0.125c0.072,0.035,0.158,0.08,0.251,0.133c0.417,0.273,0.792,0.607,1.12,1.01h0.005l0.036,0.037
	v0.008h0.005l0.114,0.148h-0.012l0.028,0.029c0.132,0.195,0.255,0.385,0.371,0.605l0.007,0.008c0.022,0.053,0.043,0.082,0.064,0.123
	c0.031,0.059,0.043,0.096,0.064,0.123v0.004c0.09,0.211,0.183,0.438,0.262,0.68v0.008c0.025,0.092,0.052,0.191,0.082,0.277
	c0.018,0.1,0.043,0.184,0.062,0.285c0.115,0.502,0.169,1.029,0.169,1.586h-0.011V28.9h0.011v0.186v0.275h-0.273h-0.182h-1.753
	h-0.169h-0.277v-0.275V28.9v-5.629h-3.81v-2.625h3.81V20.6v-0.004v-0.188c-0.002-0.225-0.017-0.436-0.047-0.639
	c-0.004-0.086-0.021-0.148-0.027-0.188c-0.043-0.297-0.109-0.572-0.201-0.822l-0.029-0.066l-0.025-0.059
	c-0.053-0.111-0.098-0.211-0.154-0.297c-0.031-0.043-0.049-0.084-0.068-0.102c-0.02-0.023-0.046-0.061-0.076-0.104
	c-0.113-0.156-0.256-0.293-0.412-0.408l-0.021-0.006l-0.051-0.035l-0.01-0.006c-0.021-0.018-0.045-0.031-0.061-0.041h-0.004
	l-0.018-0.006l-0.018-0.01c-0.027-0.018-0.063-0.035-0.091-0.055h-0.002c-0.052-0.012-0.086-0.029-0.118-0.045
	c-0.033-0.014-0.076-0.021-0.107-0.033c-0.186-0.051-0.381-0.08-0.603-0.094h-0.126h-0.005h-0.125
	c-0.097,0.006-0.183,0.014-0.283,0.027c-0.035,0.012-0.086,0.016-0.123,0.02c-0.192,0.039-0.377,0.105-0.544,0.189l-0.057,0.029
	l-0.057,0.031c-0.1,0.059-0.184,0.125-0.27,0.203v0.008c-0.034,0.037-0.068,0.057-0.1,0.096c-0.033,0.037-0.065,0.078-0.092,0.107
	c-0.143,0.193-0.275,0.436-0.371,0.711l-0.01,0.016c-0.018,0.049-0.033,0.107-0.059,0.168c-0.01,0.037-0.026,0.096-0.039,0.156
	c-0.08,0.281-0.114,0.566-0.114,0.846v0.633h0.007v2.64h-0.007V28.9v0.186v0.275h-0.265h-0.178h-1.804h-0.172h-0.269v-0.275V28.902
	L150.441,28.902z"/>
<path fill="#FFFFFF" d="M194.068,28.902v-8.9c0-0.232,0.018-0.463,0.047-0.686l0.02-0.119c0.028-0.182,0.063-0.379,0.113-0.562
	l0.061-0.209c0.015-0.053,0.022-0.104,0.045-0.166c0.115-0.32,0.248-0.631,0.414-0.93l0.056-0.094l0.048-0.09v-0.006
	c0.098-0.15,0.195-0.311,0.297-0.451l0.061-0.084l0.006-0.004l0.057-0.082h0.008c0.108-0.141,0.219-0.27,0.338-0.387v-0.008
	l0.004-0.006v0.006c0.113-0.121,0.236-0.242,0.363-0.336c0.13-0.102,0.266-0.207,0.409-0.297c0.707-0.457,1.549-0.688,2.5-0.688
	c0.399,0,0.767,0.037,1.118,0.104c0.056,0.021,0.111,0.023,0.17,0.035c0.289,0.072,0.568,0.158,0.826,0.283v0.008h0.002
	c0.101,0.033,0.186,0.08,0.258,0.125c0.084,0.035,0.171,0.08,0.259,0.139c0.421,0.268,0.798,0.605,1.12,1.004l0.029,0.037
	l0.006,0.008h0.006l0.113,0.148l0.029,0.029c0.123,0.195,0.252,0.385,0.367,0.605l0.008,0.008c0.024,0.053,0.039,0.082,0.059,0.123
	c0.031,0.059,0.046,0.098,0.06,0.123v0.004c0.106,0.211,0.187,0.438,0.261,0.684l0.01,0.004c0.029,0.092,0.061,0.191,0.076,0.277
	c0.021,0.1,0.053,0.184,0.066,0.285c0.112,0.502,0.158,1.029,0.158,1.586V28.9v0.186v0.275h-0.266h-0.172h-1.764h-0.182h-0.26
	v-0.275V28.9v-5.629h-3.813v-2.625h3.813V20.6v-0.004v-0.188c-0.004-0.225-0.029-0.436-0.045-0.639
	c-0.013-0.086-0.018-0.148-0.024-0.188c-0.045-0.299-0.121-0.572-0.22-0.818l-0.014-0.066l-0.039-0.063
	c-0.045-0.111-0.102-0.211-0.141-0.297h-0.008c-0.025-0.043-0.055-0.084-0.067-0.102c-0.019-0.023-0.04-0.061-0.069-0.104
	c-0.135-0.154-0.266-0.293-0.42-0.408h-0.002l-0.012-0.006h-0.01l-0.051-0.035l-0.006-0.006c-0.028-0.016-0.039-0.031-0.057-0.041
	h-0.004l-0.018-0.006h-0.008l-0.017-0.01c-0.026-0.018-0.052-0.035-0.086-0.055h-0.011c-0.041-0.012-0.074-0.027-0.106-0.045
	c-0.048-0.014-0.085-0.021-0.116-0.033c-0.175-0.051-0.383-0.08-0.593-0.094h-0.144h-0.116c-0.095,0.006-0.187,0.014-0.289,0.027
	c-0.038,0.012-0.081,0.016-0.121,0.02c-0.206,0.039-0.378,0.105-0.537,0.189h-0.008l-0.056,0.031l-0.06,0.029
	c-0.097,0.059-0.184,0.125-0.269,0.203v0.008c-0.035,0.037-0.07,0.057-0.092,0.096c-0.041,0.037-0.078,0.078-0.092,0.109
	c-0.156,0.191-0.279,0.434-0.386,0.709v0.016c-0.017,0.049-0.034,0.107-0.062,0.168h-0.002c-0.002,0.041-0.025,0.096-0.043,0.156
	c-0.074,0.281-0.108,0.566-0.108,0.846v0.635h0.009v2.638h-0.009V28.9v0.186v0.275h-0.267h-0.183h-1.789h-0.174h-0.274v-0.275
	v-0.184H194.068z"/>
<rect x="190.104" y="14.795" fill="#FFFFFF" width="2.695" height="14.568"/>
<path fill="#FFFFFF" d="M226.159,33.717l0.222,1.008h-0.146l-0.019-0.035c-0.1-0.153-0.159-0.256-0.185-0.299
	c-0.078-0.121-0.158-0.215-0.221-0.285c-0.203-0.192-0.465-0.287-0.777-0.287c-0.355,0-0.631,0.14-0.817,0.41
	c-0.088,0.125-0.147,0.265-0.183,0.42c-0.045,0.156-0.063,0.314-0.063,0.49c0,0.158,0.018,0.316,0.063,0.471
	c0.037,0.152,0.109,0.285,0.203,0.402c0.101,0.121,0.225,0.215,0.392,0.283c0.161,0.072,0.326,0.105,0.5,0.105
	c0.231,0,0.454-0.06,0.663-0.17c0.208-0.119,0.375-0.273,0.491-0.461l0.192,0.102c-0.149,0.242-0.35,0.424-0.596,0.557
	c-0.242,0.131-0.521,0.191-0.832,0.191c-0.472,0-0.865-0.141-1.175-0.422c-0.306-0.283-0.46-0.646-0.46-1.084
	c0-0.41,0.143-0.76,0.434-1.053c0.307-0.304,0.687-0.455,1.129-0.455c0.18,0,0.346,0.028,0.506,0.076
	c0.154,0.051,0.295,0.125,0.429,0.229l0.1-0.193H226.159z M228.93,35.146l0.756,0.951c0.137,0.178,0.314,0.282,0.522,0.317v0.129
	h-0.78l-1.033-1.354h-0.652v0.69v0.109c0,0.139,0.023,0.239,0.061,0.303c0.055,0.082,0.153,0.123,0.303,0.123h0.094v0.129h-1.369
	v-0.119l0.054-0.01c0.104,0,0.187-0.006,0.229-0.031c0.052-0.021,0.084-0.057,0.111-0.096c0.021-0.037,0.035-0.084,0.043-0.131
	c0.008-0.05,0.01-0.109,0.01-0.168V34.23c0-0.174-0.032-0.289-0.09-0.34c-0.063-0.053-0.151-0.078-0.274-0.078h-0.083V33.68h1.854
	c0.314,0,0.564,0.051,0.752,0.148c0.24,0.121,0.354,0.318,0.354,0.586c0,0.217-0.084,0.391-0.257,0.529
	C229.361,35.082,229.163,35.146,228.93,35.146 M227.743,35.016h0.698c0.131,0,0.244-0.012,0.336-0.021
	c0.094-0.021,0.177-0.052,0.259-0.097c0.183-0.114,0.272-0.276,0.272-0.489c0-0.218-0.096-0.371-0.285-0.459
	c-0.147-0.074-0.355-0.109-0.615-0.109c-0.108,0-0.208,0.007-0.309,0.015c-0.107,0.012-0.184,0.033-0.236,0.059
	c-0.055,0.027-0.092,0.059-0.104,0.092c-0.01,0.033-0.017,0.082-0.017,0.145L227.743,35.016L227.743,35.016z M232.875,33.68
	l0.325,0.754l-0.152,0.056c-0.188-0.222-0.396-0.38-0.604-0.479c-0.213-0.104-0.467-0.156-0.773-0.156
	c-0.093,0-0.18,0.011-0.26,0.019c-0.083,0.012-0.146,0.033-0.188,0.065c-0.043,0.027-0.076,0.063-0.097,0.105
	c-0.021,0.043-0.028,0.117-0.028,0.215v0.641h0.303c0.231,0,0.389-0.026,0.463-0.092c0.076-0.063,0.125-0.205,0.154-0.416h0.16
	v1.254h-0.16c0-0.135-0.043-0.258-0.123-0.356c-0.055-0.082-0.121-0.129-0.194-0.147c-0.078-0.021-0.181-0.033-0.306-0.033h-0.297
	v0.834c0,0.063,0.004,0.125,0.01,0.174c0.009,0.049,0.025,0.088,0.058,0.123c0.039,0.045,0.101,0.082,0.188,0.1
	c0.092,0.02,0.181,0.025,0.277,0.025c0.348,0,0.645-0.066,0.9-0.195c0.225-0.117,0.445-0.313,0.667-0.582l0.147,0.061l-0.427,0.9
	h-2.71v-0.129l0.051-0.004c0.09,0,0.164-0.012,0.209-0.039c0.053-0.018,0.084-0.055,0.107-0.092c0.025-0.037,0.04-0.076,0.045-0.127
	s0.005-0.105,0.005-0.158v-1.764c0-0.139-0.017-0.236-0.05-0.293c-0.055-0.086-0.152-0.125-0.305-0.125h-0.063V33.68H232.875z
	 M236.254,33.68l0.322,0.754l-0.146,0.056c-0.193-0.222-0.4-0.38-0.615-0.479c-0.213-0.104-0.465-0.156-0.762-0.156
	c-0.1,0-0.187,0.011-0.269,0.019c-0.077,0.012-0.142,0.033-0.187,0.065c-0.041,0.027-0.074,0.063-0.095,0.105
	c-0.021,0.043-0.028,0.117-0.028,0.215v0.641h0.31c0.228,0,0.386-0.026,0.457-0.092c0.073-0.063,0.126-0.205,0.155-0.416h0.158
	v1.254h-0.158c0-0.135-0.041-0.258-0.125-0.356c-0.055-0.082-0.121-0.129-0.196-0.147c-0.074-0.021-0.175-0.033-0.308-0.033h-0.295
	v0.834c0,0.063,0.004,0.125,0.01,0.174c0.009,0.049,0.026,0.088,0.057,0.123c0.038,0.045,0.105,0.082,0.193,0.1
	c0.084,0.02,0.179,0.025,0.277,0.025c0.348,0,0.646-0.066,0.895-0.195c0.229-0.117,0.449-0.313,0.668-0.582l0.154,0.061l-0.433,0.9
	h-2.706v-0.129l0.046-0.004c0.097,0,0.165-0.012,0.214-0.039c0.051-0.018,0.09-0.055,0.108-0.092
	c0.021-0.037,0.034-0.076,0.043-0.127c0.002-0.051,0.011-0.105,0.011-0.158v-1.764c0-0.139-0.02-0.236-0.054-0.293
	c-0.058-0.086-0.158-0.125-0.304-0.125h-0.064V33.68H236.254z M236.969,36.545v-0.129l0.036-0.004c0.078,0,0.14-0.012,0.195-0.031
	c0.057-0.02,0.103-0.055,0.134-0.105c0.018-0.03,0.031-0.069,0.035-0.12c0.011-0.052,0.011-0.105,0.011-0.158v-1.781
	c0-0.129-0.015-0.225-0.048-0.276c-0.05-0.084-0.146-0.123-0.3-0.123h-0.063V33.68h1.381c0.365,0,0.662,0.027,0.875,0.078
	c0.184,0.047,0.34,0.113,0.483,0.207c0.19,0.125,0.34,0.295,0.454,0.508c0.104,0.215,0.16,0.433,0.16,0.662
	c0,0.225-0.053,0.436-0.15,0.629c-0.099,0.201-0.246,0.365-0.438,0.496c-0.143,0.096-0.307,0.166-0.506,0.213
	c-0.199,0.049-0.492,0.072-0.879,0.072H236.969z M237.846,34.293v1.658c0,0.066,0.006,0.129,0.02,0.193
	c0.015,0.057,0.037,0.106,0.074,0.137c0.026,0.023,0.088,0.045,0.178,0.061c0.091,0.02,0.197,0.025,0.316,0.025
	c0.43,0,0.762-0.113,0.988-0.332c0.229-0.227,0.337-0.537,0.337-0.945c0-0.186-0.022-0.348-0.069-0.5
	c-0.06-0.18-0.149-0.322-0.268-0.43c-0.127-0.105-0.279-0.188-0.458-0.238s-0.356-0.076-0.543-0.076
	c-0.103,0-0.202,0.008-0.305,0.021c-0.101,0.016-0.171,0.045-0.204,0.09c-0.025,0.031-0.044,0.08-0.055,0.145
	C237.852,34.166,237.846,34.232,237.846,34.293 M244.986,33.674l0.279,0.9l-0.178,0.041c-0.166-0.23-0.33-0.416-0.495-0.541
	c-0.229-0.17-0.474-0.256-0.723-0.256c-0.349,0-0.611,0.141-0.804,0.43c-0.146,0.232-0.223,0.52-0.223,0.857
	c0,0.162,0.018,0.313,0.055,0.451c0.035,0.141,0.093,0.272,0.178,0.399c0.097,0.137,0.225,0.244,0.379,0.324
	c0.146,0.079,0.314,0.118,0.488,0.118c0.252,0,0.461-0.057,0.643-0.164c0.197-0.129,0.296-0.307,0.296-0.524
	c0-0.14-0.036-0.24-0.108-0.297c-0.071-0.056-0.188-0.09-0.346-0.106v-0.123h1.264v0.123h-0.039c-0.053,0-0.11,0.012-0.166,0.032
	c-0.059,0.027-0.1,0.058-0.131,0.101c-0.018,0.041-0.032,0.088-0.041,0.141c-0.012,0.053-0.012,0.109-0.012,0.166v0.088v0.711
	h-0.222l-0.136-0.293c-0.313,0.244-0.66,0.367-1.041,0.367c-0.473,0-0.859-0.141-1.164-0.439c-0.303-0.289-0.453-0.646-0.453-1.074
	c0-0.2,0.029-0.387,0.096-0.559c0.063-0.168,0.166-0.332,0.307-0.471c0.143-0.139,0.313-0.256,0.517-0.338
	c0.206-0.086,0.414-0.133,0.626-0.133c0.342,0,0.652,0.09,0.916,0.27l0.086-0.201H244.986z M248.104,35.146l0.75,0.951
	c0.141,0.178,0.317,0.282,0.525,0.317v0.129h-0.781l-1.035-1.354h-0.646v0.69v0.109c0,0.139,0.018,0.239,0.057,0.303
	c0.057,0.082,0.16,0.123,0.303,0.123h0.095v0.129h-1.368v-0.119l0.059-0.01c0.103,0,0.182-0.006,0.23-0.031
	c0.05-0.021,0.082-0.057,0.107-0.096c0.021-0.037,0.037-0.084,0.043-0.131c0.004-0.05,0.009-0.109,0.009-0.168V34.23
	c0-0.174-0.031-0.289-0.089-0.34c-0.063-0.053-0.154-0.078-0.276-0.078h-0.082V33.68h1.853c0.319,0,0.569,0.051,0.756,0.148
	c0.236,0.121,0.353,0.318,0.353,0.586c0,0.217-0.081,0.391-0.252,0.529C248.533,35.082,248.332,35.146,248.104,35.146
	 M246.915,35.016h0.7c0.125,0,0.236-0.012,0.335-0.021c0.09-0.021,0.176-0.052,0.253-0.097c0.184-0.114,0.275-0.276,0.275-0.489
	c0-0.218-0.094-0.371-0.283-0.459c-0.154-0.074-0.355-0.109-0.623-0.109c-0.102,0-0.204,0.007-0.301,0.015
	c-0.108,0.012-0.183,0.033-0.239,0.059c-0.056,0.027-0.089,0.059-0.101,0.092c-0.015,0.033-0.017,0.082-0.017,0.145V35.016z
	 M250.918,33.605c-0.438,0-0.803,0.145-1.105,0.432c-0.291,0.293-0.44,0.65-0.44,1.076c0,0.422,0.149,0.777,0.44,1.066
	c0.295,0.299,0.656,0.438,1.084,0.438c0.432,0,0.797-0.142,1.092-0.429c0.3-0.28,0.449-0.639,0.449-1.063
	c0-0.439-0.144-0.805-0.426-1.092C251.732,33.75,251.366,33.605,250.918,33.605 M250.898,33.818h0.025
	c0.319,0,0.573,0.131,0.748,0.396c0.168,0.238,0.251,0.554,0.251,0.933c0,0.352-0.075,0.637-0.237,0.86
	c-0.182,0.265-0.445,0.394-0.776,0.394c-0.339,0-0.601-0.133-0.788-0.404c-0.157-0.232-0.237-0.516-0.237-0.867
	c0-0.404,0.089-0.725,0.263-0.959C250.322,33.938,250.572,33.818,250.898,33.818 M254.807,33.68h1.037v0.127h-0.027
	c-0.075,0-0.14,0.008-0.193,0.025c-0.053,0.021-0.094,0.061-0.114,0.105c-0.022,0.051-0.038,0.1-0.042,0.16
	c-0.002,0.063-0.009,0.135-0.009,0.237v1.301c0,0.191-0.009,0.328-0.041,0.421c-0.038,0.127-0.119,0.248-0.233,0.344
	c-0.117,0.08-0.25,0.143-0.406,0.178c-0.129,0.029-0.273,0.041-0.441,0.041c-0.169,0-0.314-0.012-0.436-0.037
	c-0.153-0.033-0.291-0.088-0.395-0.166c-0.148-0.09-0.251-0.201-0.303-0.332c-0.042-0.1-0.059-0.25-0.059-0.443V34.25
	c0-0.145-0.019-0.246-0.047-0.311c-0.046-0.09-0.138-0.133-0.272-0.133h-0.062V33.68h1.217v0.115l-0.051,0.012
	c-0.097,0-0.166,0.008-0.209,0.021c-0.046,0.018-0.084,0.055-0.111,0.111c-0.014,0.024-0.025,0.069-0.033,0.129
	c-0.01,0.063-0.012,0.108-0.012,0.158v0.098v1.035v0.281c0,0.09,0.004,0.18,0.02,0.266c0.023,0.084,0.048,0.152,0.08,0.207
	c0.072,0.111,0.18,0.191,0.324,0.231c0.107,0.039,0.25,0.056,0.4,0.056c0.152,0,0.287-0.017,0.401-0.056
	c0.135-0.047,0.25-0.12,0.329-0.227c0.043-0.074,0.083-0.168,0.097-0.285c0.019-0.113,0.022-0.244,0.022-0.396V34.25
	c0-0.148-0.018-0.258-0.049-0.313c-0.055-0.088-0.154-0.131-0.303-0.131h-0.08V33.68z M257.018,35.291v0.59v0.115
	c0,0.102,0.016,0.195,0.043,0.271c0.029,0.059,0.071,0.094,0.135,0.112c0.061,0.021,0.135,0.031,0.218,0.031h0.085v0.133h-1.357
	v-0.129l0.037-0.004c0.08,0,0.146-0.013,0.2-0.031c0.05-0.021,0.093-0.053,0.114-0.1c0.023-0.046,0.037-0.105,0.045-0.185
	c0.01-0.068,0.01-0.145,0.01-0.213V34.23c0-0.135-0.015-0.231-0.048-0.289c-0.054-0.084-0.153-0.129-0.293-0.129h-0.065V33.68h1.52
	c0.166,0,0.313,0.01,0.434,0.027c0.119,0.023,0.233,0.063,0.35,0.121c0.271,0.152,0.406,0.363,0.406,0.645
	c0,0.127-0.025,0.242-0.09,0.355c-0.062,0.111-0.144,0.201-0.25,0.268c-0.107,0.07-0.24,0.125-0.412,0.156
	c-0.127,0.023-0.272,0.039-0.438,0.039H257.018z M257.018,35.129h0.566c0.146,0,0.251-0.006,0.326-0.023
	c0.109-0.021,0.206-0.075,0.283-0.147c0.068-0.063,0.119-0.138,0.146-0.215c0.022-0.072,0.039-0.164,0.039-0.271
	c0-0.088-0.021-0.174-0.058-0.264c-0.03-0.086-0.088-0.154-0.151-0.209c-0.071-0.057-0.153-0.096-0.256-0.117
	c-0.108-0.023-0.207-0.037-0.304-0.037c-0.094,0-0.194,0.008-0.303,0.021c-0.104,0.01-0.174,0.026-0.216,0.057
	c-0.022,0.017-0.041,0.043-0.056,0.093c-0.014,0.041-0.018,0.084-0.018,0.116v0.045V35.129L257.018,35.129z"/>
<g>
	<path fill="#FFFFFF" d="M252.281,25.825c-0.547,0.575-1.074,0.882-1.553,0.985c-0.369,0.074-0.728,0.023-1.045-0.125
		c-0.369-0.168-0.707-0.465-0.978-0.856c-0.457-0.636-0.703-1.479-0.623-2.365c0.129-1.444,1.374-2.795,2.701-3.52
		c0.431-0.228,0.853-0.392,1.223-0.455h0.007c0.268-0.045,0.492-0.043,0.639,0.023c0.143,0.062,0.259,0.258,0.301,0.623
		c0.014,0.078,0.02,0.146,0.014,0.209c-0.014,0.334-0.156,0.688-0.459,0.975v-0.004c-0.322,0.317-0.839,0.559-1.58,0.641
		c-0.246,0.021-0.496,0.034-0.752,0.021c-0.677-0.019-1.242,0.457-1.263,1.063c-0.03,0.614,0.501,1.124,1.17,1.146
		c0.412,0.016,0.785,0,1.124-0.033c1.369-0.146,2.389-0.654,3.085-1.324v-0.002c0.718-0.706,1.074-1.563,1.115-2.395v-0.004
		c0.01-0.191,0-0.373-0.022-0.543c-0.154-1.204-0.775-1.959-1.664-2.35c-0.646-0.291-1.391-0.348-2.162-0.217
		c-0.674,0.113-1.375,0.369-2.035,0.734c-1.422,0.773-2.785,2.09-3.459,3.627c-0.377-0.027-0.756,0.106-1.021,0.385
		c-0.549,0.576-1.076,0.887-1.561,0.986c-0.365,0.074-0.723,0.021-1.041-0.123c-0.367-0.169-0.705-0.47-0.979-0.857
		c-0.451-0.638-0.701-1.479-0.621-2.368c0.127-1.442,1.371-2.791,2.698-3.514c0.435-0.238,0.853-0.394,1.226-0.457
		c0.274-0.05,0.5-0.046,0.644,0.018c0.144,0.066,0.256,0.266,0.308,0.629c0.006,0.074,0.012,0.144,0.006,0.207
		c-0.013,0.336-0.158,0.686-0.451,0.971h-0.004c-0.328,0.319-0.845,0.561-1.586,0.639c-0.235,0.023-0.488,0.033-0.748,0.023
		c-0.678-0.018-1.242,0.457-1.266,1.064c-0.023,0.61,0.504,1.124,1.174,1.145c0.409,0.012,0.783,0,1.117-0.037
		c1.374-0.144,2.396-0.652,3.092-1.316v-0.006c0.719-0.701,1.077-1.566,1.111-2.396v-0.002c0.012-0.195,0-0.371-0.018-0.543
		c-0.154-1.205-0.776-1.962-1.668-2.357c-0.644-0.285-1.385-0.342-2.158-0.207c-0.674,0.111-1.372,0.363-2.041,0.73
		c-1.896,1.033-3.684,3.035-3.879,5.238c0,0.039-0.004,0.078-0.008,0.123c-0.135,0.006-0.269,0.035-0.4,0.086
		c-1.221,0.482-2.119,1.056-2.805,1.734c-0.069-0.381-0.195-0.75-0.369-1.102c-0.274-0.559-0.998-0.803-1.615-0.555
		c-0.616,0.25-0.891,0.906-0.613,1.463c0.328,0.652,0.309,1.48,0.025,2.328c-0.26,0.785-0.746,1.57-1.4,2.254
		c-0.652,0.684-1.477,1.27-2.415,1.65c-1.209,0.496-2.626,0.648-4.126,0.236c-2.334-0.635-3.988-1.928-4.949-3.512
		c-1.045-1.729-1.287-3.826-0.697-5.82v-0.006c0.06-0.196,0.121-0.375,0.191-0.551c0.69-1.798,2.106-3.474,3.887-4.566
		c0.611-0.377,1.268-0.687,1.951-0.9c-0.013,0.341,0.006,0.683,0.051,1.025c0.313,2.481,1.961,4.893,5.06,5.639
		c1.159,0.283,2.126,0.125,2.912-0.363c0.798-0.494,1.337-1.299,1.659-2.297c0.433-1.312,0.084-2.607-0.795-3.707
		c-0.846-1.051-2.194-1.926-3.807-2.434c-0.217-0.063-0.427-0.125-0.625-0.174c-0.381-0.092-0.761-0.158-1.141-0.201
		c0.697-0.83,1.872-1.266,3.515-0.846c0.651,0.164,1.324-0.176,1.505-0.766c0.186-0.59-0.193-1.199-0.852-1.361
		c-2.794-0.718-4.869,0.129-6.145,1.675c-0.338,0.418-0.621,0.891-0.834,1.393c-1.365,0.25-2.658,0.765-3.828,1.49
		c-2.207,1.357-3.961,3.436-4.818,5.668c-0.098,0.244-0.18,0.482-0.244,0.711l-0.001-0.002c-0.753,2.541-0.438,5.226,0.912,7.459
		c1.258,2.072,3.392,3.75,6.383,4.566c2.127,0.584,4.125,0.364,5.843-0.339c1.176-0.48,2.215-1.188,3.057-2.018
		c-0.041,0.297-0.096,0.6-0.139,0.918c-0.053,0.334-0.103,0.682-0.197,1.268c-0.094,0.605,0.369,1.169,1.039,1.25
		c0.67,0.088,1.287-0.336,1.379-0.936c0.049-0.297,0.133-0.805,0.201-1.291c0.514-3.406,0.854-5.641,3.554-6.846
		c0.171,0.506,0.411,0.975,0.714,1.393c0.49,0.701,1.152,1.269,1.917,1.625c0.821,0.379,1.743,0.51,2.704,0.312
		c0.545-0.11,1.095-0.332,1.633-0.679c0.128,0.922,0.479,1.787,0.979,2.5c0.5,0.703,1.158,1.274,1.929,1.629
		c0.815,0.378,1.741,0.511,2.706,0.312c0.959-0.2,1.941-0.737,2.855-1.7c0.441-0.468,0.377-1.166-0.131-1.562
		C253.493,25.305,252.721,25.361,252.281,25.825z M227.521,12.037c0.449,0.014,0.903,0.072,1.357,0.179h0.002
		c0.158,0.039,0.303,0.082,0.447,0.125c1.141,0.36,2.07,0.95,2.628,1.645c0.452,0.555,0.635,1.182,0.437,1.789
		c-0.172,0.52-0.398,0.908-0.692,1.09c-0.204,0.127-0.497,0.155-0.904,0.057c-1.987-0.484-3.052-2.09-3.26-3.754
		C227.486,12.785,227.48,12.402,227.521,12.037z"/>
	<path fill="#FFFFFF" d="M265.92,15.417c0.237-0.566-0.083-1.207-0.711-1.416c-0.634-0.219-1.341,0.07-1.578,0.643
		c-0.896,2.164-1.681,4.59-2.205,6.979c-0.24-0.035-0.472-0.059-0.695-0.074c-0.359-0.023-0.717-0.018-1.057,0.012
		c-0.611,0.056-1.188,0.22-1.715,0.465c-1.214,0.574-2.154,1.605-2.756,2.783c-0.582,1.133-0.848,2.443-0.727,3.625
		c0.078,0.644,0.258,1.258,0.568,1.799c0.523,0.902,1.34,1.642,2.255,2.07c0.524,0.24,1.095,0.391,1.667,0.418
		c0.6,0.023,1.209-0.082,1.781-0.354c0.268-0.13,0.521-0.286,0.762-0.483c0.141,0.314,0.301,0.605,0.481,0.873
		c0.344,0.521,1.099,0.689,1.67,0.371c0.579-0.313,0.763-0.994,0.411-1.516c-0.885-1.322-1.074-3.588-0.809-6.188
		C263.589,22.206,264.619,18.538,265.92,15.417z M260.83,25.225c-0.145,1.418-0.158,2.762-0.016,3.98
		c-0.189,0.097-0.349,0.251-0.459,0.439c-0.225,0.398-0.478,0.645-0.738,0.768c-0.163,0.074-0.344,0.111-0.535,0.102
		c-0.212-0.006-0.432-0.074-0.66-0.176c-0.484-0.229-0.925-0.633-1.211-1.129c-0.166-0.279-0.264-0.615-0.305-0.98
		c-0.086-0.797,0.111-1.698,0.514-2.498c0.391-0.768,0.967-1.416,1.669-1.748c0.255-0.121,0.528-0.203,0.819-0.227
		c0.189-0.016,0.412-0.02,0.654,0c0.144,0.008,0.293,0.024,0.453,0.045C260.941,24.281,260.881,24.758,260.83,25.225z"/>
</g>
<path fill="#FFFFFF" d="M55.205,23.459v-7.68h4.481c2.212,0,3.045,0.809,3.045,2.814c0,2.16-0.561,2.896-3.045,2.896h-2.101v1.969
	L55.205,23.459L55.205,23.459z M59.211,19.711c0.943-0.029,1.069-0.123,1.069-1.117c0-0.787-0.138-1.035-1.069-1.035h-1.625v2.152
	H59.211z"/>
<polygon fill="#FFFFFF" points="71.832,23.459 69.447,23.459 69.447,20.445 66.346,20.445 66.346,23.459 63.969,23.459 
	63.969,15.777 66.346,15.777 66.346,18.668 69.447,18.668 69.447,15.777 71.832,15.777 "/>
<path fill="#FFFFFF" d="M75.826,22.135l-0.445,1.324H72.91l2.676-7.682h3.618l2.711,7.682h-2.426l-0.462-1.324H75.826z
	 M77.444,17.313h-0.025l-1.081,3.33h2.212L77.444,17.313z"/>
<polygon fill="#FFFFFF" points="85.97,23.459 83.587,23.459 83.587,17.561 81.306,17.561 81.306,15.777 88.373,15.777 
	88.373,17.561 85.97,17.561 "/>
<path fill="#FFFFFF" d="M89.705,15.777h4.52c2.486,0,3.589,0.801,3.589,2.982v1.607c0,2.098-0.781,3.092-3.269,3.092h-4.839
	L89.705,15.777L89.705,15.777z M92.084,21.678h2.081c0.877,0,1.2-0.504,1.2-1.311V18.76c0-0.998-0.368-1.201-1.2-1.201h-2.081
	V21.678z"/>
<path fill="#FFFFFF" d="M101.31,22.135l-0.439,1.324h-2.478l2.68-7.682h3.614l2.712,7.682h-2.426l-0.463-1.324H101.31z
	 M102.929,17.313h-0.024l-1.081,3.33h2.211L102.929,17.313z"/>
<polygon fill="#FFFFFF" points="111.457,23.459 109.077,23.459 109.077,17.561 106.794,17.561 106.794,15.777 113.86,15.777 
	113.86,17.561 111.457,17.561 "/>
<polygon fill="#FFFFFF" points="30.944,6 14.001,16.004 14.001,27.125 17.792,29.357 17.792,18.225 30.944,10.447 44.096,18.225 
	44.096,24.865 30.942,32.613 25.355,29.309 25.355,22.699 30.942,19.395 34.336,21.402 27.393,25.504 31.112,27.705 41.871,21.344 
	30.944,14.895 21.552,20.449 21.552,31.559 30.944,37.113 47.857,27.088 47.857,16.004 "/>
<polygon fill="#FFFFFF" points="14,31.605 14,35.984 30.925,45.998 30.925,41.551 "/>
<polygon fill="#FFFFFF" points="30.927,41.551 30.927,46 47.857,36.004 47.857,31.602 "/>
<path fill="#FFFFFF" d="M58.631,28.908v0.146c0.006,0.661-0.073,0.909-0.333,1.12c-0.257,0.191-0.525,0.236-1.396,0.236
	c-0.709,0-0.99-0.058-1.236-0.254c-0.318-0.242-0.43-0.595-0.447-1.384c-0.014-0.692-0.014-0.692-0.014-0.83
	c0-0.93,0.071-1.233,0.349-1.495c0.306-0.296,0.605-0.363,1.616-0.363c0.575,0,0.772,0.029,0.991,0.164
	c0.229,0.135,0.372,0.41,0.403,0.756c0.014,0.131,0.02,0.207,0.023,0.478h-0.631v-0.115c-0.014-0.627-0.126-0.721-0.847-0.721
	c-1.12,0-1.236,0.094-1.236,1.006c0,1.154,0.011,1.447,0.061,1.709c0.08,0.402,0.269,0.49,0.996,0.49
	c0.938,0,1.075-0.097,1.075-0.728c0-0.069,0-0.123-0.005-0.217L58.631,28.908L58.631,28.908z"/>
<path fill="#FFFFFF" d="M63.7,26.246c0.335,0.164,0.512,0.459,0.595,0.934c0.031,0.205,0.037,0.391,0.037,0.982
	c0,1.117-0.037,1.398-0.214,1.709c-0.166,0.295-0.518,0.484-0.941,0.518c-0.196,0.019-0.419,0.023-0.693,0.023
	c-0.671,0-0.966-0.049-1.226-0.207c-0.292-0.174-0.434-0.422-0.503-0.883c-0.037-0.223-0.041-0.396-0.041-1.076
	c0-1.051,0.041-1.338,0.247-1.66c0.248-0.387,0.614-0.498,1.583-0.498C63.186,26.088,63.459,26.127,63.7,26.246 M63.692,28.24
	v-0.592c0-0.392-0.068-0.678-0.2-0.812c-0.141-0.157-0.316-0.19-0.963-0.19c-0.523,0-0.704,0.021-0.847,0.094
	c-0.185,0.098-0.281,0.275-0.32,0.633c-0.008,0.139-0.008,0.186-0.008,0.879c0,0.982,0.003,1.064,0.112,1.285
	c0.123,0.262,0.31,0.314,1.068,0.314c0.628,0,0.802-0.031,0.949-0.185c0.131-0.142,0.208-0.444,0.208-0.838L63.692,28.24
	L63.692,28.24z"/>
<path fill="#FFFFFF" d="M66.411,26.125h2.009c0.952,0,1.28,0.324,1.28,1.242c0,0.816-0.155,1.057-0.731,1.166v0.018
	c0.463,0.039,0.682,0.301,0.682,0.822v1h-0.639v-0.859c0-0.299-0.042-0.445-0.175-0.553c-0.123-0.109-0.236-0.143-0.528-0.143
	h-1.265v1.555h-0.633V26.125z M68.275,28.258c0.295,0,0.482-0.045,0.601-0.139c0.142-0.115,0.185-0.256,0.185-0.613
	c0-0.51-0.043-0.654-0.234-0.752c-0.094-0.043-0.248-0.07-0.445-0.07h-1.337v1.574H68.275z"/>
<path fill="#FFFFFF" d="M71.781,26.125h1.708c0.621,0,0.755,0.01,0.961,0.107c0.383,0.172,0.541,0.555,0.541,1.254
	c0,0.799-0.183,1.166-0.667,1.313c-0.141,0.045-0.164,0.045-0.85,0.058h-1.057v1.516H71.78L71.781,26.125L71.781,26.125z
	 M73.417,28.297c0.802,0,0.933-0.107,0.933-0.758c0-0.582-0.06-0.744-0.307-0.828c-0.097-0.031-0.151-0.039-0.514-0.039h-1.112
	v1.625H73.417z"/>
<path fill="#FFFFFF" d="M80.064,26.246c0.326,0.164,0.509,0.459,0.593,0.934c0.029,0.205,0.035,0.391,0.035,0.982
	c0,1.117-0.035,1.398-0.21,1.709c-0.167,0.295-0.517,0.484-0.947,0.518c-0.191,0.019-0.416,0.023-0.69,0.023
	c-0.669,0-0.964-0.049-1.224-0.207c-0.291-0.174-0.437-0.422-0.505-0.883c-0.038-0.223-0.041-0.396-0.041-1.076
	c0-1.051,0.041-1.338,0.244-1.66c0.254-0.387,0.618-0.498,1.588-0.498C79.547,26.088,79.821,26.127,80.064,26.246 M80.05,28.24
	v-0.592c0-0.392-0.063-0.678-0.2-0.812c-0.143-0.157-0.315-0.19-0.961-0.19c-0.522,0-0.703,0.021-0.845,0.094
	c-0.191,0.098-0.281,0.275-0.32,0.633c-0.012,0.139-0.012,0.186-0.012,0.879c0,0.982,0.005,1.064,0.112,1.285
	c0.125,0.262,0.309,0.314,1.068,0.314c0.634,0,0.806-0.031,0.954-0.185c0.131-0.142,0.203-0.444,0.203-0.838L80.05,28.24
	L80.05,28.24z"/>
<path fill="#FFFFFF" d="M82.773,26.125h2.008c0.954,0,1.283,0.324,1.283,1.242c0,0.816-0.157,1.057-0.736,1.166v0.018
	c0.468,0.039,0.684,0.301,0.684,0.822v1h-0.638v-0.859c0-0.299-0.046-0.445-0.175-0.553c-0.126-0.109-0.235-0.143-0.529-0.143
	h-1.262v1.555h-0.634L82.773,26.125L82.773,26.125z M84.638,28.258c0.292,0,0.478-0.045,0.597-0.139
	c0.143-0.115,0.187-0.256,0.187-0.613c0-0.51-0.043-0.654-0.237-0.752c-0.093-0.043-0.246-0.07-0.442-0.07h-1.334v1.574H84.638z"/>
<path fill="#FFFFFF" d="M89.102,29.52l-0.287,0.854h-0.671l1.446-4.248h0.929l1.468,4.248h-0.659l-0.295-0.854H89.102z
	 M90.064,26.635l-0.8,2.387h1.614L90.064,26.635z"/>
<polygon fill="#FFFFFF" points="95.97,30.373 95.336,30.373 95.336,26.711 94.068,26.711 94.068,26.125 97.256,26.125 
	97.256,26.711 95.97,26.711 "/>
<rect x="99.337" y="26.125" fill="#FFFFFF" width="0.637" height="4.248"/>
<path fill="#FFFFFF" d="M105.042,26.246c0.333,0.164,0.512,0.459,0.592,0.934c0.034,0.205,0.039,0.391,0.039,0.982
	c0,1.117-0.039,1.398-0.211,1.709c-0.167,0.295-0.517,0.484-0.944,0.518c-0.194,0.019-0.416,0.023-0.688,0.023
	c-0.673,0-0.969-0.049-1.229-0.207c-0.292-0.174-0.435-0.422-0.502-0.883c-0.038-0.223-0.047-0.396-0.047-1.076
	c0-1.051,0.047-1.338,0.253-1.66c0.248-0.387,0.616-0.498,1.585-0.498C104.527,26.088,104.802,26.127,105.042,26.246 M105.031,28.24
	v-0.592c0-0.392-0.069-0.678-0.2-0.812c-0.142-0.157-0.314-0.19-0.963-0.19c-0.521,0-0.7,0.021-0.841,0.094
	c-0.191,0.098-0.283,0.275-0.323,0.633c-0.013,0.139-0.013,0.186-0.013,0.879c0,0.982,0.009,1.064,0.113,1.285
	c0.124,0.262,0.312,0.314,1.072,0.314c0.626,0,0.8-0.031,0.951-0.185c0.13-0.142,0.204-0.444,0.204-0.838V28.24z"/>
<path fill="#FFFFFF" d="M111.454,30.373h-1.065l-1.452-2.6c-0.069-0.135-0.157-0.306-0.368-0.726
	c-0.063-0.123-0.125-0.243-0.179-0.364h-0.027c0.015,0.385,0.021,0.678,0.021,0.887v2.803h-0.629v-4.248h1.058l1.287,2.336
	c0.142,0.264,0.271,0.512,0.717,1.359h0.02c-0.011-0.385-0.015-0.678-0.015-0.873v-2.822h0.634v4.248H111.454z"/>
<path fill="#FFFFFF" d="M57.813,33.904c0.004-0.301-0.071-0.529-0.228-0.662c-0.163-0.133-0.42-0.191-0.776-0.191h-1.606v2.916
	h0.048h0.414v-1.139h1.07h0.122c0.318,0.006,0.446,0.135,0.449,0.445v0.692h0.459V35.2c0.006-0.279-0.118-0.474-0.338-0.552
	c0.116-0.037,0.203-0.096,0.261-0.174C57.778,34.361,57.813,34.17,57.813,33.904 M57.375,33.98c0,0.196-0.052,0.319-0.133,0.381
	c-0.089,0.063-0.277,0.102-0.556,0.102h-1.022v-1.045h1.153c0.245-0.002,0.4,0.041,0.456,0.102
	C57.334,33.576,57.377,33.732,57.375,33.98"/>
<path fill="#FFFFFF" d="M60.526,35.275h-0.434v0.047v0.063c-0.002,0.127-0.034,0.189-0.094,0.219
	c-0.063,0.033-0.24,0.058-0.509,0.058c-0.278,0.004-0.449-0.045-0.506-0.113c-0.057-0.062-0.1-0.233-0.106-0.516h1.652v-0.203
	c-0.002-0.377-0.063-0.636-0.214-0.771c-0.148-0.131-0.437-0.184-0.858-0.188c-0.396,0.004-0.666,0.066-0.816,0.215
	c-0.149,0.156-0.212,0.428-0.212,0.83c0,0.428,0.063,0.717,0.212,0.867c0.15,0.15,0.437,0.213,0.863,0.213
	c0.368,0,0.625-0.039,0.785-0.125c0.163-0.094,0.244-0.26,0.242-0.477l-0.002-0.076L60.526,35.275z M60.089,34.67l0.002,0.045
	h-1.209c0.001-0.221,0.047-0.355,0.106-0.406c0.058-0.059,0.229-0.102,0.497-0.098c0.267-0.004,0.44,0.033,0.5,0.082
	C60.046,34.34,60.089,34.463,60.089,34.67"/>
<path fill="#FFFFFF" d="M62.969,34.025c-0.154-0.105-0.417-0.152-0.805-0.154c-0.357,0.002-0.598,0.039-0.735,0.129
	c-0.14,0.088-0.204,0.264-0.204,0.5v0.049h0.429L61.652,34.5v-0.059c0-0.154,0.16-0.25,0.57-0.252c0.241,0,0.391,0.037,0.44,0.086
	c0.054,0.049,0.094,0.186,0.094,0.406v0.135c-0.131-0.101-0.36-0.142-0.686-0.144c-0.345,0-0.586,0.043-0.731,0.146
	c-0.15,0.104-0.216,0.287-0.216,0.531c0.002,0.432,0.331,0.646,0.918,0.646c0.325,0,0.57-0.052,0.728-0.172l-0.012,0.092
	l-0.005,0.051h0.439v-1.35C63.191,34.338,63.12,34.137,62.969,34.025 M62.659,35.066c0.076,0.043,0.113,0.123,0.118,0.272
	c-0.005,0.203-0.195,0.318-0.669,0.32c-0.236,0-0.387-0.027-0.449-0.068c-0.056-0.039-0.094-0.125-0.094-0.276
	c0-0.146,0.038-0.228,0.094-0.258c0.058-0.037,0.227-0.063,0.484-0.063C62.409,34.994,62.583,35.021,62.659,35.066"/>
<polygon fill="#FFFFFF" points="64.008,33.051 63.962,33.051 63.962,35.967 64.395,35.967 64.395,33.051 64.349,33.051 "/>
<polygon fill="#FFFFFF" points="66.494,35.967 68.691,35.967 68.691,35.65 68.691,35.604 66.952,35.604 66.952,34.645 68.63,34.645 
	68.63,34.326 68.63,34.281 66.952,34.281 66.952,33.418 68.691,33.418 68.691,33.1 68.691,33.051 66.494,33.051 "/>
<path fill="#FFFFFF" d="M70.572,34.762l-0.346-0.014l-0.275-0.012c-0.21-0.017-0.288-0.09-0.292-0.269
	c0-0.129,0.031-0.192,0.072-0.211c0.052-0.028,0.212-0.051,0.458-0.047c0.271-0.004,0.44,0.019,0.485,0.041
	c0.043,0.021,0.072,0.08,0.072,0.211v0.049h0.428l0.002-0.049v-0.071c-0.002-0.359-0.351-0.517-0.959-0.521
	c-0.387,0.004-0.642,0.035-0.786,0.116c-0.147,0.087-0.215,0.257-0.215,0.484c0,0.244,0.089,0.422,0.27,0.502
	c0.177,0.08,0.516,0.117,1.031,0.119c0.208,0.006,0.278,0.076,0.285,0.262c0,0.14-0.036,0.209-0.104,0.244
	c-0.072,0.037-0.255,0.062-0.535,0.062c-0.222,0-0.366-0.021-0.434-0.058c-0.054-0.037-0.089-0.098-0.089-0.219v-0.092l0.004-0.049
	h-0.441L69.2,35.398c-0.002,0.219,0.075,0.389,0.237,0.475c0.154,0.086,0.417,0.123,0.797,0.123c0.369,0,0.626-0.037,0.78-0.131
	c0.156-0.09,0.23-0.262,0.23-0.492C71.252,34.992,71.004,34.775,70.572,34.762"/>
<path fill="#FFFFFF" d="M72.858,35.318l0.002,0.106c-0.002,0.166-0.073,0.229-0.274,0.234c-0.2-0.007-0.271-0.076-0.279-0.271v-1.15
	h0.879v-0.287V33.9h-0.048h-0.832v-0.482h-0.432V33.9H71.6h-0.045v0.291v0.047h0.32v1.15v0.073c0,0.354,0.263,0.533,0.709,0.533
	c0.223,0,0.391-0.05,0.511-0.154c0.119-0.11,0.174-0.274,0.174-0.479v-0.147l0.002-0.047h-0.397L72.858,35.318z"/>
<path fill="#FFFFFF" d="M75.479,34.025c-0.147-0.105-0.413-0.15-0.802-0.154C74.323,33.875,74.08,33.91,73.941,34
	c-0.141,0.088-0.204,0.264-0.201,0.5v0.049h0.426V34.5v-0.059c0-0.152,0.158-0.25,0.572-0.252c0.238,0,0.389,0.037,0.44,0.088
	c0.054,0.047,0.094,0.184,0.091,0.404v0.133c-0.131-0.099-0.357-0.14-0.687-0.142c-0.342,0-0.586,0.045-0.731,0.146
	c-0.146,0.104-0.217,0.287-0.214,0.533c0,0.43,0.332,0.645,0.917,0.645c0.326,0,0.571-0.051,0.726-0.172l-0.012,0.092l-0.006,0.051
	h0.443v-1.35C75.706,34.338,75.635,34.135,75.479,34.025 M75.292,35.34c-0.002,0.201-0.194,0.318-0.671,0.32
	c-0.231,0-0.387-0.027-0.445-0.068c-0.061-0.039-0.095-0.125-0.095-0.277c0-0.146,0.035-0.227,0.091-0.26
	c0.063-0.035,0.229-0.063,0.483-0.061c0.266,0,0.444,0.027,0.521,0.072C75.249,35.109,75.29,35.189,75.292,35.34"/>
<path fill="#FFFFFF" d="M77.458,35.318l0.002,0.106c-0.006,0.166-0.071,0.229-0.276,0.234c-0.2-0.007-0.269-0.076-0.277-0.271v-1.15
	h0.879v-0.287V33.9h-0.048h-0.832v-0.482h-0.432V33.9h-0.277h-0.046v0.291v0.047h0.323v1.15v0.073
	c0.002,0.354,0.26,0.533,0.709,0.533c0.22,0,0.391-0.05,0.511-0.154c0.121-0.11,0.177-0.274,0.177-0.479v-0.147v-0.047h-0.397
	L77.458,35.318z"/>
<path fill="#FFFFFF" d="M80.358,35.275h-0.439v0.047v0.063c0,0.125-0.033,0.189-0.095,0.219c-0.063,0.035-0.237,0.058-0.503,0.058
	c-0.283,0.004-0.456-0.045-0.514-0.113c-0.056-0.057-0.098-0.235-0.102-0.516h1.652v-0.203c0-0.377-0.066-0.636-0.212-0.771
	c-0.154-0.131-0.439-0.184-0.865-0.188c-0.392,0.004-0.661,0.066-0.812,0.215c-0.146,0.154-0.215,0.428-0.215,0.83
	c0,0.426,0.064,0.717,0.211,0.869c0.152,0.15,0.44,0.211,0.865,0.211c0.369,0,0.627-0.039,0.785-0.125
	c0.161-0.094,0.244-0.262,0.244-0.477l-0.002-0.076v-0.043H80.358z M78.709,34.715c0.006-0.221,0.048-0.355,0.106-0.408
	c0.06-0.057,0.232-0.1,0.5-0.096c0.265-0.004,0.435,0.033,0.497,0.084c0.063,0.045,0.106,0.168,0.106,0.375v0.045H78.709
	L78.709,34.715z"/>
<path fill="#FFFFFF" d="M84.096,33.051H82.53v2.916h0.045h1.609c0.446,0,0.76-0.102,0.928-0.326
	c0.158-0.225,0.226-0.637,0.229-1.252c-0.003-0.51-0.083-0.861-0.261-1.057C84.896,33.139,84.564,33.051,84.096,33.051
	 M84.898,34.547c0.004,0.461-0.059,0.76-0.156,0.869c-0.098,0.117-0.34,0.188-0.727,0.188h-1.021v-2.186h1.094
	c0.372-0.002,0.595,0.07,0.675,0.186C84.844,33.717,84.902,34.037,84.898,34.547"/>
<path fill="#FFFFFF" d="M88.004,35.275h-0.437v0.047v0.063c0,0.125-0.035,0.189-0.093,0.219c-0.067,0.033-0.242,0.058-0.508,0.058
	c-0.283,0.004-0.455-0.045-0.511-0.113c-0.056-0.057-0.102-0.235-0.104-0.516h1.654v-0.203c-0.002-0.377-0.062-0.636-0.214-0.771
	c-0.154-0.131-0.437-0.184-0.86-0.188c-0.395,0.004-0.663,0.066-0.817,0.215c-0.148,0.158-0.214,0.428-0.214,0.83
	c0,0.426,0.066,0.717,0.212,0.871c0.156,0.148,0.439,0.209,0.866,0.209c0.368,0,0.628-0.039,0.787-0.125
	c0.159-0.094,0.243-0.262,0.24-0.477v-0.076L88.004,35.275z M87.568,34.715h-1.207c0.002-0.221,0.043-0.355,0.103-0.408
	c0.058-0.059,0.231-0.1,0.497-0.1s0.441,0.037,0.503,0.088c0.057,0.045,0.104,0.168,0.102,0.375L87.568,34.715z"/>
<polygon fill="#FFFFFF" points="90.027,33.9 89.625,35.01 89.504,35.344 89.445,35.516 89.422,35.572 89.404,35.51 89.345,35.344 
	89.215,35.004 88.795,33.9 88.352,33.9 89.15,35.967 89.695,35.967 90.501,33.9 90.433,33.9 "/>
<path fill="#FFFFFF" d="M92.944,35.275h-0.437v0.047v0.063c-0.002,0.125-0.036,0.189-0.091,0.219
	c-0.069,0.033-0.241,0.058-0.512,0.058c-0.278,0.004-0.453-0.045-0.505-0.113c-0.063-0.059-0.103-0.235-0.108-0.516h1.653v-0.203
	c0-0.377-0.063-0.636-0.213-0.771c-0.153-0.131-0.434-0.184-0.86-0.188c-0.395,0.004-0.667,0.066-0.817,0.215
	c-0.147,0.154-0.209,0.428-0.212,0.83c0.002,0.426,0.063,0.719,0.212,0.869c0.15,0.15,0.437,0.211,0.868,0.211
	c0.366,0,0.623-0.039,0.781-0.125c0.165-0.094,0.243-0.262,0.242-0.477v-0.076L92.944,35.275L92.944,35.275z M91.299,34.715
	c0.002-0.221,0.045-0.355,0.104-0.408c0.058-0.059,0.229-0.1,0.497-0.096c0.268-0.004,0.44,0.033,0.503,0.084
	c0.058,0.045,0.101,0.168,0.101,0.375v0.045H91.299L91.299,34.715z"/>
<polygon fill="#FFFFFF" points="93.671,33.051 93.625,33.051 93.625,35.967 94.056,35.967 94.056,33.051 94.01,33.051 "/>
<path fill="#FFFFFF" d="M95.793,33.871c-0.43,0.004-0.713,0.059-0.856,0.205c-0.149,0.146-0.206,0.432-0.208,0.857
	c0.002,0.43,0.059,0.713,0.208,0.858c0.143,0.144,0.426,0.203,0.856,0.203c0.426,0,0.707-0.062,0.857-0.203
	c0.143-0.146,0.201-0.431,0.203-0.858c-0.002-0.427-0.06-0.711-0.203-0.857C96.5,33.93,96.219,33.875,95.793,33.871 M96.315,35.553
	c-0.046,0.062-0.225,0.111-0.522,0.107c-0.297,0.004-0.478-0.047-0.526-0.107c-0.054-0.061-0.097-0.272-0.096-0.619
	c-0.001-0.344,0.042-0.557,0.096-0.617c0.048-0.061,0.229-0.108,0.526-0.104c0.297-0.004,0.477,0.045,0.522,0.104
	c0.054,0.062,0.097,0.273,0.095,0.617C96.413,35.279,96.37,35.492,96.315,35.553"/>
<path fill="#FFFFFF" d="M98.662,33.871c-0.32,0-0.56,0.066-0.709,0.203l0.01-0.119l0.005-0.055H97.53v0.049v2.871h0.433v-1.016
	c0.148,0.131,0.39,0.19,0.711,0.19c0.334,0,0.579-0.072,0.723-0.229c0.145-0.16,0.207-0.428,0.207-0.803
	c0-0.406-0.063-0.689-0.202-0.854C99.258,33.945,99.008,33.875,98.662,33.871 M99.054,34.34c0.065,0.078,0.113,0.289,0.108,0.621
	c0.005,0.299-0.043,0.494-0.112,0.568c-0.063,0.08-0.215,0.131-0.462,0.131c-0.264,0-0.426-0.051-0.496-0.135
	c-0.073-0.084-0.122-0.275-0.122-0.574c0-0.324,0.046-0.533,0.111-0.611c0.066-0.08,0.226-0.133,0.492-0.129
	C98.836,34.207,98.994,34.26,99.054,34.34"/>
<path fill="#FFFFFF" d="M102.929,33.871c-0.355,0-0.623,0.096-0.786,0.297c-0.115-0.203-0.364-0.297-0.721-0.297
	c-0.316,0-0.56,0.08-0.708,0.246l0.002-0.166V33.9h-0.431v0.051v2.016h0.431v-1.164c0.006-0.408,0.197-0.584,0.64-0.592
	c0.33,0.008,0.458,0.107,0.461,0.33l0.004,0.094v1.332h0.435v-1.186c0-0.236,0.047-0.387,0.126-0.457
	c0.074-0.07,0.246-0.117,0.503-0.113c0.194-0.004,0.322,0.029,0.375,0.08c0.056,0.047,0.088,0.15,0.088,0.314v1.36h0.435V34.63
	c0.002-0.244-0.07-0.438-0.216-0.565C103.417,33.934,103.203,33.871,102.929,33.871"/>
<path fill="#FFFFFF" d="M106.625,35.275h-0.439v0.047v0.063c0,0.125-0.035,0.189-0.092,0.219c-0.065,0.033-0.242,0.058-0.508,0.058
	c-0.282,0.004-0.454-0.045-0.511-0.113c-0.055-0.057-0.1-0.235-0.1-0.516h1.65v-0.203c0-0.377-0.064-0.636-0.216-0.771
	c-0.149-0.131-0.43-0.184-0.855-0.188c-0.397,0.004-0.666,0.066-0.816,0.215c-0.152,0.154-0.214,0.428-0.214,0.83
	c0,0.426,0.062,0.717,0.21,0.869c0.151,0.15,0.437,0.211,0.866,0.211c0.366,0,0.626-0.039,0.784-0.129
	c0.161-0.09,0.241-0.258,0.241-0.473v-0.076V35.275L106.625,35.275z M104.977,34.715c0.005-0.221,0.048-0.355,0.106-0.408
	c0.06-0.059,0.231-0.1,0.499-0.096c0.267-0.004,0.441,0.033,0.498,0.084c0.063,0.045,0.105,0.168,0.105,0.375v0.045H104.977
	L104.977,34.715z"/>
<path fill="#FFFFFF" d="M108.443,33.871c-0.336,0-0.58,0.066-0.723,0.217l0.005-0.137V33.9h-0.423v0.049v2.018h0.435v-1.23
	c0.003-0.356,0.2-0.518,0.661-0.524c0.212-0.004,0.351,0.029,0.407,0.074c0.058,0.043,0.094,0.141,0.094,0.303v0.072v1.307h0.432
	v-1.329c0-0.287-0.057-0.49-0.192-0.604C109.009,33.92,108.777,33.875,108.443,33.871"/>
<path fill="#FFFFFF" d="M111.081,35.168l-0.015,0.15v0.106c-0.003,0.166-0.066,0.229-0.271,0.234c-0.2-0.007-0.27-0.076-0.277-0.271
	v-1.15h0.877v-0.287V33.9h-0.046h-0.832v-0.482h-0.43V33.9h-0.276h-0.048v0.291v0.047h0.325v1.15v0.073
	c0,0.354,0.258,0.533,0.707,0.533c0.22,0,0.393-0.05,0.509-0.154c0.117-0.11,0.174-0.274,0.174-0.479l0.005-0.147v-0.047
	L111.081,35.168L111.081,35.168z"/>
</svg>
