<svg xmlns="http://www.w3.org/2000/svg" viewBox="0 0 146.19 129.84"><defs><style>.cls-1{fill:#e8cd60;}.cls-2{fill:#5f433a;}</style></defs><title>logo-icon</title><g id="Layer_2" data-name="Layer 2"><g id="Logo"><path class="cls-1" d="M29.92,29.13c26.27,4.09,31.9,9.48,48.28,10a73.83,73.83,0,0,0,14.2-.78,70,70,0,0,1-12.13-.51C68.92,36.35,56.39,29.67,29.92,29.13Z"/><path class="cls-2" d="M8.77,29.8c26.28,3.3,35.89,10.24,54,10.61a66.07,66.07,0,0,0,13.44-.8s-5.63.62-14.47-1.52C48.87,35,31.4,29.14,8.77,29.8Z"/><path class="cls-1" d="M26.26,61.55c32.33-9.91,41.85-7.12,56.66-14.4a54,54,0,0,0,11.1-7,51.09,51.09,0,0,1-10.18,4.75C73,48.68,55.9,47.7,26.26,61.55Z"/><path class="cls-2" d="M0,75.74c36.21-12.79,52.65-10.92,70.28-20,7.94-4.07,11.28-7.2,11.28-7.2S77.12,51.83,67.66,54C52.69,57.32,28,60.69,0,75.74Z"/><path class="cls-1" d="M52,95.29c22.36-26.72,32.12-29,39.62-42.5a46.81,46.81,0,0,0,4.69-11.47,41,41,0,0,1-5.25,9C84.58,58.78,69.27,66.31,52,95.29Z"/><path class="cls-2" d="M37.74,123.49C62.42,90.56,77.95,83,86.69,66.46c3.88-7.36,4.7-11.73,4.7-11.73s-1.61,5-7.92,11.41C73.08,76.69,53,93.49,37.74,123.49Z"/><path class="cls-1" d="M94.73,105.62c2.19-30.45,8-36.77,6.56-51.55a58.15,58.15,0,0,0-2.56-12.6,48.57,48.57,0,0,1,.85,10.61C99.25,62.4,91.93,75.82,94.73,105.62Z"/><path class="cls-2" d="M98.77,129.84c.8-32.69,7.69-45.46,5.82-62a52.32,52.32,0,0,0-2.49-11.92s1.35,5,.08,13.1C100.13,82,94.54,103.9,98.77,129.84Z"/><path class="cls-1" d="M125.69,91.82c-10.39-21.72-9.36-29.06-16.92-40.69a74.62,74.62,0,0,0-8.16-10.5,64.31,64.31,0,0,1,6,9.45C111.23,59,112.38,72.74,125.69,91.82Z"/><path class="cls-2" d="M135.58,104c-10.18-19.64-10.87-31.2-18.52-42.82a55.56,55.56,0,0,0-6.88-8.81A38.47,38.47,0,0,1,116,63.11C120.07,73.79,125,90.83,135.58,104Z"/><path class="cls-1" d="M137.78,70.27c-13.21-11.62-15.43-17.85-25.26-24.76a75.58,75.58,0,0,0-10.94-6.45,70.4,70.4,0,0,1,9,6.37C117.62,51.35,123.83,61.84,137.78,70.27Z"/><path class="cls-2" d="M146.19,74.42c-10.9-9.17-15.15-17.36-24-23.59A47,47,0,0,0,114,46a35.93,35.93,0,0,1,8.28,6.78C128.73,59.6,137.1,69.88,146.19,74.42Z"/><path class="cls-1" d="M137.45,50.31c-11.67-4.43-15.5-8.91-25-11.37a58.5,58.5,0,0,0-11-1.81,59,59,0,0,1,9.63,2.5C118.47,42.25,126.55,48.79,137.45,50.31Z"/><path class="cls-2" d="M143.18,50.46c-8.76-3.16-14.1-8.29-22-10.39a31.23,31.23,0,0,0-7.43-1.22,26.57,26.57,0,0,1,8.32,2.92C128.64,45.12,137,50.25,143.18,50.46Z"/><path class="cls-1" d="M130.4,34.11c-9,.2-13.39-2.54-21-1.36a37.51,37.51,0,0,0-9,2.53,39.67,39.67,0,0,1,8.35-1.33C115.06,33.65,123.13,36.65,130.4,34.11Z"/><path class="cls-2" d="M133.83,32.27c-6.4.23-11.8-2.56-17.92-1.69a17.92,17.92,0,0,0-5.7,1.59,16.33,16.33,0,0,1,7-.33C123,32.59,130.09,34.23,133.83,32.27Z"/><path class="cls-1" d="M119.47,21.52c-6,3.36-10.48,2.2-15.51,6.27a25.9,25.9,0,0,0-5.46,6.08,25.7,25.7,0,0,1,5.61-4.62C108.6,26.55,115.69,26.57,119.47,21.52Z"/><path class="cls-2" d="M121,18.53c-4.2,2.43-9.28,1.49-13.26,4.59a12.11,12.11,0,0,0-3.39,3.76,9.9,9.9,0,0,1,5-3C113.7,22.61,119.31,21.75,121,18.53Z"/><path class="cls-1" d="M105.69,12.2c-2.79,5.8-6.89,6.18-8.55,12.47a28.77,28.77,0,0,0-.86,8.5,24.85,24.85,0,0,1,1.79-7C100.08,21.59,105.48,19,105.69,12.2Z"/><path class="cls-2" d="M105.24,8.36c-1.92,4.17-6.4,4.93-7.8,9.84a14,14,0,0,0-.55,5.37,8.57,8.57,0,0,1,2.28-5.08C101.87,15.44,105.69,12.51,105.24,8.36Z"/><path class="cls-1" d="M89.2,6.32c1.27,7.89-2,9.89.56,17.65a46.26,46.26,0,0,0,4.37,9.41,37.76,37.76,0,0,1-2.69-8.14C90.32,19.39,93.24,14.41,89.2,6.32Z"/><path class="cls-2" d="M86.33,1.75c1,5.82-2.39,8.4-.39,14.77a24.79,24.79,0,0,0,2.94,6.33,13,13,0,0,1-1.27-6.66C88,11.6,89.4,6.69,86.33,1.75Z"/><path class="cls-1" d="M69.94,5C77,14.49,75.41,18.2,83,26.16a70.81,70.81,0,0,0,9.5,8.29,59.8,59.8,0,0,1-7.23-7.58C80.46,20.71,79.67,13.64,69.94,5Z"/><path class="cls-2" d="M63.4,0c5.71,7.37,4.34,12,11,19.1a44.53,44.53,0,0,0,7.07,6.16A24.32,24.32,0,0,1,75.76,18C72.77,12.26,70.42,5.44,63.4,0Z"/><path class="cls-1" d="M48.69,11.09c15.59,9.28,16.94,14.48,29.89,20.34a84.49,84.49,0,0,0,13.3,4.81,75.54,75.54,0,0,1-10.81-5C72.37,26.34,66.25,18.19,48.69,11.09Z"/><path class="cls-2" d="M36.16,6.81c13.76,7.79,16.48,14.53,29.23,20.25a63.28,63.28,0,0,0,11.21,4A39.12,39.12,0,0,1,65.84,25.2C58.14,19.39,49.6,11.44,36.16,6.81Z"/></g></g></svg>