<?xml version="1.0" standalone="no"?>
<!DOCTYPE svg PUBLIC "-//W3C//DTD SVG 1.1//EN" "http://www.w3.org/Graphics/SVG/1.1/DTD/svg11.dtd" >
<svg xmlns="http://www.w3.org/2000/svg">
<metadata></metadata>
<defs>
<font id="bluehost_sans400" horiz-adv-x="1647" >
<font-face units-per-em="2048" ascent="1638" descent="-410" />
<missing-glyph horiz-adv-x="563" />
<glyph horiz-adv-x="0" />
<glyph horiz-adv-x="682" />
<glyph unicode=" "  horiz-adv-x="563" />
<glyph unicode="&#x09;" horiz-adv-x="563" />
<glyph unicode="&#xa0;" horiz-adv-x="563" />
<glyph unicode="!" horiz-adv-x="475" d="M111 -1v199h173v-199h-173zM114 1386h184l-35 -1060h-123z" />
<glyph unicode="&#x22;" horiz-adv-x="388" d="M11 1235v150h148v-150l-29 -227h-89zM231 1235v150h148v-150l-28 -227h-90z" />
<glyph unicode="#" horiz-adv-x="1292" d="M34 373v127h248l81 362h-267v128h293l78 359h127l-78 -359h378l78 359h130l-81 -359h237v-128h-262l-82 -362h282v-127h-307l-82 -373h-128l83 373h-379l-80 -373h-129l82 373h-222zM409 500h378l82 362h-379z" />
<glyph unicode="$" horiz-adv-x="1124" d="M80 207l105 104q147 -163 307 -198l12 553l-16 6q-61 23 -108.5 46t-97 58t-81.5 74t-51.5 93t-16.5 117q6 148 116 245t271 112l3 123h125l-2 -126q97 -13 182.5 -57t148.5 -109l-96 -111q-103 111 -238 135l-9 -482q52 -19 86 -33t82.5 -37.5t80 -46t66.5 -55.5t55 -69 t33 -83.5t12 -102.5q-4 -173 -125.5 -279.5t-305.5 -117.5l-3 -139h-129l3 144q-130 19 -234 83.5t-175 152.5zM300 1059q-1 -76 52 -127t156 -94l9 436q-96 -15 -156 -74t-61 -141zM620 106q112 12 186.5 80t76.5 166q1 50 -19 92t-58.5 74.5t-79.5 55t-96 45.5z" />
<glyph unicode="%" horiz-adv-x="1492" d="M37 1066q0 135 102.5 230.5t246.5 95.5t246 -94.5t102 -231.5q0 -136 -101.5 -233.5t-247.5 -97.5q-142 0 -245 96.5t-103 234.5zM79 0l1144 1386h167l-1140 -1386h-171zM178 1064q0 -89 59.5 -149t147.5 -60q87 0 147 60.5t60 148.5q0 87 -60.5 147.5t-146.5 60.5 t-146.5 -60t-60.5 -148zM755 323q0 136 101.5 233t248.5 97q143 0 246.5 -98t103.5 -232q0 -132 -102.5 -229t-247.5 -97t-247.5 94.5t-102.5 231.5zM897 325q0 -87 60.5 -148t147.5 -61t148 60t61 149q0 88 -61 148.5t-148 60.5t-147.5 -61t-60.5 -148z" />
<glyph unicode="&#x26;" horiz-adv-x="1515" d="M115 349q0 123 94 225.5t247 170.5q-78 72 -122.5 145t-44.5 166q0 148 112 247t277 102q163 4 271.5 -90.5t108.5 -226.5q0 -104 -80.5 -203.5t-253.5 -171.5l359 -342q88 93 141 221l145 -58q-73 -167 -181 -275l268 -259h-245l-147 141q-203 -168 -455 -168 q-217 0 -355.5 110t-138.5 266zM291 355q0 -102 95.5 -173.5t234.5 -71.5q183 0 341 139l-405 389q-114 -50 -190 -121t-76 -162zM463 1067q3 -68 47 -129t119 -124q273 123 275 274q2 78 -61 134.5t-162 52.5q-103 -4 -162 -65t-56 -143z" />
<glyph unicode="'" horiz-adv-x="189" d="M20 1234v150h149v-150l-29 -227h-89z" />
<glyph unicode="(" horiz-adv-x="622" d="M116 485q0 125 26 246.5t66.5 216t97.5 184.5t109 152.5t111 120.5h157q-393 -434 -393 -920q0 -484 393 -920h-157q-59 58 -111 121t-109 153t-97 184.5t-66.5 215.5t-26.5 246z" />
<glyph unicode=")" horiz-adv-x="622" d="M-44 -435q393 436 393 920q0 486 -393 920h157q59 -58 111 -120.5t109 -152.5t97.5 -184.5t66.5 -216t26 -246.5t-26.5 -246t-66.5 -215.5t-97 -184.5t-109 -153t-111 -121h-157z" />
<glyph unicode="*" horiz-adv-x="398" d="M1 1221l31 85l107 -37l1 117h94v-118l108 36l29 -86l-109 -35l68 -98l-75 -55l-69 100l-67 -97l-77 54l71 97z" />
<glyph unicode="+" horiz-adv-x="1361" d="M123 651h486v-469h140v469h490v136h-490v468h-140v-468h-486v-136z" />
<glyph unicode="," horiz-adv-x="288" d="M42 -196q101 35 99 196h-91v212h196l-1 -187q0 -108 -55.5 -188t-147.5 -92v59z" />
<glyph unicode="-" horiz-adv-x="738" d="M45 503v131h648v-131h-648z" />
<glyph unicode="." horiz-adv-x="272" d="M42 -1v215h187v-215h-187z" />
<glyph unicode="/" horiz-adv-x="1007" d="M21 -21l786 1428h151l-786 -1428h-151z" />
<glyph unicode="0" horiz-adv-x="1314" d="M126 695q0 321 149.5 518.5t386.5 197.5q234 0 380 -196t146 -520q0 -328 -145 -522t-382 -194t-386 194t-149 522zM294 695q0 -114 23.5 -217t68 -185t116 -130.5t160.5 -48.5q115 0 198 81t122 210t39 290q0 159 -40.5 289t-123.5 210.5t-195 80.5t-197.5 -82.5 t-128 -212.5t-42.5 -285z" />
<glyph unicode="1" horiz-adv-x="610" d="M81 1226l191 160h156v-1386h-157v1210l-110 -91z" />
<glyph unicode="2" horiz-adv-x="1037" d="M84 0l1 130l478 543q48 56 75.5 92t59.5 85.5t47 96t15 92.5q0 97 -66.5 160t-166.5 63q-95 0 -169 -59t-101 -152l-143 62q50 137 162.5 215.5t254.5 78.5q168 0 278.5 -104t110.5 -266q0 -63 -17 -122t-51.5 -116.5t-65 -98.5t-80.5 -99l-407 -464h629v-137h-844z" />
<glyph unicode="3" horiz-adv-x="1066" d="M89 163l89 108q62 -70 147 -113t176 -43q127 1 213 76.5t86 190.5q0 120 -90.5 199.5t-215.5 79.5h-150l1 140h144q116 0 194 70.5t78 175.5q0 100 -71.5 166t-185.5 66q-146 0 -263 -114l-87 100q68 66 162.5 108t202.5 42q172 0 288 -103.5t116 -257.5q0 -116 -68 -201 t-169 -113q55 -17 102.5 -46t88.5 -72.5t65 -106.5t24 -137q0 -123 -64 -215.5t-166.5 -139t-224.5 -46.5q-123 0 -234 49t-188 137z" />
<glyph unicode="4" horiz-adv-x="1171" d="M87 318v136l663 932h125v-931h182v-137h-182v-318h-160v318h-628zM241 455h474v671z" />
<glyph unicode="5" horiz-adv-x="1178" d="M139 130l71 115q165 -122 342 -122q153 0 245.5 90.5t92.5 214.5q0 131 -97.5 220t-267.5 89q-150 0 -308 -73v722h743v-137h-583v-416q125 39 230 37q201 -4 322 -127.5t121 -307.5q0 -192 -138.5 -320.5t-351.5 -128.5q-221 0 -421 144z" />
<glyph unicode="6" horiz-adv-x="1166" d="M126 473q-1 181 78 356t230.5 320t354.5 231l71 -134q-413 -178 -534 -530q55 55 137.5 91t180.5 37q191 1 312 -125.5t121 -309.5q0 -131 -65.5 -235.5t-174.5 -160t-239 -55.5q-210 1 -340 144.5t-132 370.5zM290 399q2 -126 90 -212.5t220 -86.5q134 -1 225 87t92 218 q0 128 -89.5 215.5t-219.5 86.5q-131 -1 -225 -89.5t-93 -218.5z" />
<glyph unicode="7" horiz-adv-x="1005" d="M80 1249l1 137h830v-122l-561 -1264h-160l554 1249h-664z" />
<glyph unicode="8" horiz-adv-x="1183" d="M109 375q0 73 26.5 137t69.5 107t87.5 71.5t88.5 42.5q-99 43 -155 120t-56 182q0 159 117.5 265.5t308.5 106.5q187 0 302 -104.5t115 -268.5q0 -108 -54.5 -183.5t-154.5 -113.5q48 -18 92 -47t86 -72t67 -105.5t25 -135.5q0 -121 -67 -213t-175 -138.5t-238 -46.5 q-133 0 -243 48t-176 139.5t-66 208.5zM277 381q0 -84 48 -146.5t119 -91.5t150 -29q128 0 220 75t92 194q0 121 -93.5 201.5t-221.5 80.5t-221 -80.5t-93 -203.5zM332 1037q0 -107 73 -174t186 -67t186.5 66.5t73.5 174.5q0 45 -14 85t-43 74.5t-80 55t-119 20.5 q-128 0 -195.5 -67.5t-67.5 -167.5z" />
<glyph unicode="9" horiz-adv-x="1157" d="M88 973q4 124 70 223.5t175 153.5t239 52q99 -2 184.5 -40.5t148 -105.5t96.5 -165.5t30 -215.5q-9 -250 -186.5 -478t-486.5 -403l-77 126q205 120 337 243.5t194 262.5q-122 -112 -293 -107q-123 3 -224 67t-155.5 167t-51.5 220zM248 973q-4 -128 80.5 -219t220.5 -95 q133 -4 227 78t96 216q2 128 -80 217.5t-217 94.5q-136 6 -229 -78.5t-98 -213.5z" />
<glyph unicode=":" horiz-adv-x="252" d="M42 -1v215h187v-215h-187zM42 719v215h187v-215h-187z" />
<glyph unicode=";" horiz-adv-x="267" d="M44 -196q101 35 99 196h-91v212h195v-187q0 -108 -55.5 -188t-147.5 -92v59zM54 718v215h188v-215h-188z" />
<glyph unicode="&#x3c;" horiz-adv-x="1312" d="M69 669v96l1118 482v-153l-907 -377l907 -377v-154z" />
<glyph unicode="=" horiz-adv-x="1147" d="M123 403h901v138h-901v-138zM123 749h901v141h-901v-141z" />
<glyph unicode="&#x3e;" horiz-adv-x="1365" d="M122 186v154l907 377l-907 377v153l1118 -482v-96z" />
<glyph unicode="?" horiz-adv-x="775" d="M-28 1115q46 133 152.5 214t245.5 85q166 5 278 -95.5t112 -259.5q0 -64 -20.5 -119t-53 -95.5t-72.5 -78.5t-79.5 -77t-73 -80.5t-54.5 -99.5t-22 -125l-1 -66h-146l2 71q1 80 21.5 148t51.5 116.5t68.5 91t75 78t68.5 70t51 75.5t21 86q2 93 -65 156t-167 59 q-84 -4 -151.5 -59t-98.5 -150zM227 -1v197h171v-197h-171z" />
<glyph unicode="@" horiz-adv-x="2057" d="M104 407q0 205 76 383t208 304.5t318 199t400 72.5q191 0 350.5 -58t266 -157.5t165.5 -234.5t59 -288q0 -140 -48.5 -265t-125 -209t-169.5 -133t-182 -50q-103 -1 -162.5 56.5t-53.5 129.5q-128 -179 -311 -179q-152 0 -241 122t-73 337q9 121 50 221.5t101 165.5 t134.5 100t152.5 34q96 -1 168.5 -49.5t117.5 -122.5l24 111l135 -1l-131 -614q-8 -26 -4 -57.5t14.5 -59t38 -46.5t65.5 -19q57 0 120 41t116 109t87.5 169t34.5 209q0 269 -195.5 437.5t-506.5 168.5q-183 0 -343 -63.5t-272 -173.5t-176.5 -261.5t-64.5 -322.5 q0 -145 46.5 -268.5t126 -210t185 -148t224 -90.5t242.5 -29q109 0 210 22t181.5 60t140.5 78t113 87l87 -111q-134 -115 -320.5 -191t-413.5 -76q-143 0 -279.5 32.5t-261.5 102.5t-219 170t-149.5 246t-55.5 320zM730 427q-13 -151 40 -237.5t158 -90.5q77 -2 143.5 44.5 t112.5 119.5l90 403q-29 70 -85.5 118.5t-132.5 53.5q-127 8 -219 -110.5t-107 -300.5z" />
<glyph unicode="A" horiz-adv-x="1407" d="M24 0l597 1388h164l598 -1388h-181l-164 392h-670l-165 -392h-179zM425 529h556l-277 664z" />
<glyph unicode="B" horiz-adv-x="1231" d="M182 0v1386h404q201 0 323.5 -96.5t122.5 -249.5q0 -111 -65.5 -191.5t-174.5 -106.5q142 -18 238 -116t96 -246q0 -164 -123 -272t-339 -108h-482zM342 136h317q134 0 217.5 71t83.5 176q0 110 -94 186.5t-255 76.5h-269v-510zM342 783h176q157 0 252.5 67.5t95.5 175.5 q0 99 -81 161.5t-212 62.5h-231v-467z" />
<glyph unicode="C" horiz-adv-x="1410" d="M87 692q0 135 43.5 253t118.5 203.5t174 147t211.5 92t229.5 31.5h4q267 0 465 -143l-79 -126q-162 128 -381 128q-120 0 -231 -41t-198 -115t-139 -187t-52 -247q0 -132 51 -243t136.5 -183t195.5 -112t231 -40q120 0 224 37.5t179 102.5l87 -124q-98 -73 -226.5 -115 t-271.5 -42q-121 0 -234.5 31t-211 92.5t-170.5 147t-114.5 202t-41.5 250.5z" />
<glyph unicode="D" horiz-adv-x="1380" d="M182 0v1386h278q380 0 606.5 -184.5t226.5 -509.5q0 -215 -105.5 -373t-290.5 -238.5t-427 -80.5h-288zM342 137h133q191 0 337.5 64.5t230 192t83.5 300.5q0 133 -50 239.5t-138.5 175t-207.5 104.5t-259 36h-129v-1112z" />
<glyph unicode="E" horiz-adv-x="1148" d="M182 0v1386h878v-136h-722v-472h593v-136h-593v-506h722v-136h-878z" />
<glyph unicode="F" horiz-adv-x="1119" d="M182 0v1386h839v-136h-678v-478h604v-136h-604v-636h-161z" />
<glyph unicode="G" horiz-adv-x="1523" d="M87 694q0 162 62 300t166.5 230t241.5 144t288 53h4q272 0 483 -148l-80 -125q-182 132 -403 132h-10q-164 -2 -298 -78t-211 -210t-77 -299q1 -251 172 -417.5t442 -166.5q204 0 358 94v397h-414v137h570v-624q-230 -144 -515 -144q-221 0 -398.5 92t-279 258 t-101.5 375z" />
<glyph unicode="H" horiz-adv-x="1471" d="M182 0v1386h160v-612h787v612h160v-1386h-160v638h-787v-638h-160z" />
<glyph unicode="I" horiz-adv-x="523" d="M182 0v1384h159v-1384h-159z" />
<glyph unicode="J" horiz-adv-x="546" d="M-23 -193q119 8 173 83.5t54 236.5v1259h160v-1292q0 -209 -101 -315t-286 -113v141z" />
<glyph unicode="K" horiz-adv-x="1208" d="M182 0v1386h160v-623l556 623h190l-582 -652l675 -734h-207l-632 689v-689h-160z" />
<glyph unicode="L" horiz-adv-x="1042" d="M182 0v1386h160v-1249h695v-137h-855z" />
<glyph unicode="M" horiz-adv-x="1779" d="M182 0v1386h135l573 -752l572 752h135v-1386h-160v1116l-547 -712l-548 712v-1116h-160z" />
<glyph unicode="N" horiz-adv-x="1537" d="M182 0v1386h142l871 -1124v1124h160v-1386h-141l-872 1121v-1121h-160z" />
<glyph unicode="O" d="M87 692q0 163 59 301t159.5 230t234 143.5t282.5 51.5q205 0 372.5 -89.5t266 -256.5t98.5 -380q0 -164 -59 -301.5t-160 -229t-235 -142.5t-283 -51q-120 0 -230.5 32t-202 95t-159 149.5t-105.5 201.5t-38 246zM255 692q0 -169 72 -303t201.5 -209.5t293.5 -75.5 q251 0 410 166.5t159 421.5q0 257 -161 423.5t-408 166.5q-122 0 -227.5 -44.5t-180 -122t-117 -187.5t-42.5 -236z" />
<glyph unicode="P" horiz-adv-x="1134" d="M182 0v1386h374q239 0 377.5 -117t138.5 -316q0 -203 -144.5 -322t-394.5 -119h-191v-512h-160zM342 649h195q161 0 267.5 83t106.5 222q0 135 -100 215t-251 80h-218v-600z" />
<glyph unicode="Q" d="M87 692q0 163 59 301t159 230t234 143.5t283 51.5q153 0 288 -52.5t234.5 -146t157 -230.5t57.5 -297q0 -151 -50.5 -280t-137.5 -219.5t-203.5 -147.5t-249.5 -72q125 -78 330 -78q28 0 57 1l2 -139q-28 -1 -55 -1q-177 0 -319 57q-163 66 -258 168q-125 22 -232 81.5 t-186.5 149.5t-124.5 213.5t-45 266.5zM255 692q0 -169 72 -303t201.5 -209.5t293.5 -75.5q251 0 410.5 166.5t159.5 421.5q0 257 -161.5 423.5t-408.5 166.5q-122 0 -227.5 -44.5t-180 -122t-117 -187.5t-42.5 -236z" />
<glyph unicode="R" horiz-adv-x="1186" d="M182 0v1386h399q228 0 359.5 -115t131.5 -291q0 -135 -81 -238.5t-227 -145.5l367 -596h-183l-350 572h-18h-238v-572h-160zM342 709h248q138 0 227 76t89 194t-89 194t-227 76h-248v-540z" />
<glyph unicode="S" horiz-adv-x="1124" d="M80 207l105 104q182 -202 382 -207h14q123 0 209 67q92 71 93 181q0 28 -6.5 54t-17 47t-30 41.5t-36 35t-45.5 31.5t-48 27t-53.5 24t-53 21t-55 20.5t-50.5 18.5q-61 23 -108.5 46t-97 58t-81.5 74q-31 39 -51 93q-17 47 -17 100v17q7 162 137 262q126 97 300 97h10 q116 -2 219.5 -48.5t177.5 -122.5l-96 -111q-128 138 -300 141h-7q-116 0 -194 -61q-80 -63 -80 -158q0 -47 20 -85t63 -68.5t88.5 -51.5t115.5 -47q169 -63 234 -97q184 -98 219 -253q9 -40 9 -85v-9q-3 -187 -143 -295q-133 -104 -326 -103h-18q-156 5 -278.5 73.5 t-203.5 168.5z" />
<glyph unicode="T" horiz-adv-x="1252" d="M46 1249v137h1160v-137h-500v-1249h-160v1249h-500z" />
<glyph unicode="U" horiz-adv-x="1484" d="M155 561v825h160v-827q0 -108 35.5 -195t95.5 -140.5t136 -82t160 -28.5q85 0 161 28.5t135.5 82.5t94.5 140.5t35 194.5v827h160v-825q0 -116 -32 -213.5t-87.5 -165.5t-130 -115.5t-159.5 -70t-177 -22.5q-116 0 -219.5 37t-186.5 108t-132 185t-49 257z" />
<glyph unicode="V" horiz-adv-x="1362" d="M26 1386h177l476 -1153l479 1153h179l-593 -1387h-131z" />
<glyph unicode="W" horiz-adv-x="2096" d="M26 1386h174l387 -1115l400 1115h123l402 -1115l388 1115h170l-487 -1386h-129l-406 1120l-404 -1120h-125z" />
<glyph unicode="X" horiz-adv-x="1276" d="M36 0l504 719l-459 667h189l366 -529l371 529h189l-460 -658l504 -728h-190l-411 591l-413 -591h-190z" />
<glyph unicode="Y" horiz-adv-x="1180" d="M-21 1386h177l430 -657l438 657h175l-529 -801v-585h-160v577z" />
<glyph unicode="Z" horiz-adv-x="1214" d="M91 0l1 119l800 1130h-762l1 137h949v-130l-798 -1119h842l-1 -137h-1032z" />
<glyph unicode="[" horiz-adv-x="583" d="M182 -224v1629h300v-137h-140v-1355h140v-137h-300z" />
<glyph unicode="\" horiz-adv-x="1013" d="M37 1407h153l786 -1428h-153z" />
<glyph unicode="]" horiz-adv-x="583" d="M101 -87h140v1355h-140v137h300v-1629h-300v137z" />
<glyph unicode="_" horiz-adv-x="901" d="M4 0h893v-101h-893v101z" />
<glyph unicode="`" horiz-adv-x="838" d="M447 1835h218l151 -252h-109z" />
<glyph unicode="a" horiz-adv-x="931" d="M69 242q0 113 83 177t248 107q20 5 59.5 14.5t56.5 13.5t45 13.5t42 18.5t29.5 22.5t24.5 31.5q-5 69 -64.5 110.5t-144.5 42.5h-3q-134 0 -238 -102l-71 100q152 122 333 122q146 0 245.5 -80.5t99.5 -220.5v-612h-151l-3 131q-138 -147 -308 -147q-118 0 -200.5 70.5 t-82.5 187.5zM229 247q0 -62 49 -102.5t123 -40.5q68 1 135.5 38.5t120.5 99.5v294q-22 -34 -63 -53.5t-124 -46.5q-45 -15 -71.5 -24.5t-63 -27t-56.5 -35t-35 -44.5t-15 -58z" />
<glyph unicode="b" horiz-adv-x="1081" d="M136 91v1334h157v-615q130 105 296 105q83 0 158.5 -29.5t135.5 -85.5t95.5 -146.5t35.5 -203.5q0 -119 -39.5 -211t-108.5 -147.5t-155.5 -83.5t-187.5 -28q-204 0 -387 111zM293 152q104 -54 216 -54q148 0 248 92t100 261q1 156 -85 246.5t-213 90.5q-146 0 -266 -117 v-519z" />
<glyph unicode="c" horiz-adv-x="906" d="M57 449q0 205 140.5 335t351.5 130q163 0 288 -79l-66 -119q-86 65 -210 65q-147 0 -245.5 -93.5t-98.5 -238.5q0 -144 98.5 -237t242.5 -93q138 0 238 86l77 -113q-61 -46 -146.5 -75t-181.5 -29q-98 0 -186 32t-155.5 90t-107 146t-39.5 193z" />
<glyph unicode="d" horiz-adv-x="1080" d="M67 451q0 110 36.5 199.5t98 146.5t140 88t164.5 31q160 0 281 -99v608h157v-1341q-189 -102 -382 -102q-141 0 -251 51.5t-177 159t-67 258.5zM226 451q0 -157 97 -253q98 -97 253 -97q111 0 211 50v529q-112 109 -252 109q-132 1 -220 -91q-89 -92 -89 -247z" />
<glyph unicode="e" horiz-adv-x="1013" d="M57 474q7 204 143 324q132 116 315 115h12q70 -2 134.5 -21t122 -60t98.5 -99.5t61 -144.5q14 -59 14 -127q0 -30 -3 -62l-740 2q14 -135 102 -210.5t224 -78.5h9q170 0 291 107l78 -108q-162 -127 -367 -127h-19q-217 6 -349 145q-126 133 -126 327v18zM216 519l587 -2 v9q-1 108 -73 182q-76 78 -203 81h-16q-113 0 -191 -66q-84 -71 -104 -204z" />
<glyph unicode="f" horiz-adv-x="649" d="M68 767v133h134v148q0 167 95 260t235 93q94 0 185 -42l-52 -124q-61 29 -117 29q-79 0 -133 -56t-54 -161v-147h212l-2 -133h-210v-767h-159v767h-134z" />
<glyph unicode="g" horiz-adv-x="1021" d="M39 -290q0 108 81 177.5t211 87.5q-68 21 -107.5 60t-39.5 89q0 57 46.5 99.5t121.5 53.5q-105 19 -182 96t-77 198q0 147 118 240t307 93h434v-127l-210 -1q143 -70 143 -218q0 -70 -33.5 -127.5t-89 -93t-121 -57t-137.5 -27.5q-43 -5 -77 -15.5t-61 -34.5 q-24 -22 -24 -53q0 -100 207 -109q461 -22 461 -275q0 -102 -72.5 -179.5t-193.5 -117t-270 -39.5q-201 0 -318 73.5t-117 206.5zM195 -277q0 -77 75 -120.5t215 -43.5q163 0 270 55t107 143q0 81 -95 123q-85 39 -212 39q-15 0 -30 -1q-159 -4 -244.5 -57t-85.5 -138z M250 570q0 -87 64 -141t168 -54q102 0 174 53q72 55 72 145q0 81 -62 141q-64 60 -175 60q-106 0 -173.5 -57t-67.5 -147z" />
<glyph unicode="h" horiz-adv-x="1076" d="M136 0v1425h157v-696q60 85 147 135t190 50q141 0 235 -93.5t94 -253.5v-567h-157v548q0 61 -19 107t-51.5 72t-69 39t-76.5 13q-86 0 -163 -52.5t-130 -133.5v-593h-157z" />
<glyph unicode="i" horiz-adv-x="411" d="M126 1051v147h159v-147h-159zM127 0v900h157v-900h-157z" />
<glyph unicode="j" horiz-adv-x="452" d="M-39 -261q111 7 159.5 75.5t48.5 210.5v875h157v-904q0 -190 -92 -289.5t-273 -107.5v140zM168 1051v147h158v-147h-158z" />
<glyph unicode="k" horiz-adv-x="949" d="M136 0v1405h157v-865l388 360h211l-435 -394l482 -506h-206l-440 472v-472h-157z" />
<glyph unicode="l" horiz-adv-x="427" d="M136 0v1425l155 1v-1426h-155z" />
<glyph unicode="m" horiz-adv-x="1706" d="M130 0v900h157v-173q60 86 145.5 136.5t187.5 50.5t184.5 -51t114.5 -154q59 95 148.5 150t199.5 55q142 0 231.5 -93t89.5 -265v-556h-156v531q0 128 -56 187t-146 59q-166 0 -293 -184v-593h-157v531q0 128 -55.5 187t-145.5 59q-167 0 -292 -184v-593h-157z" />
<glyph unicode="n" horiz-adv-x="1070" d="M130 0v900h159v-182q61 88 148.5 142t194.5 54q64 0 120.5 -21t102 -62.5t72 -110.5t26.5 -157v-563h-158v549q0 109 -59.5 169t-150.5 60q-88 0 -165 -55t-131 -143v-580h-159z" />
<glyph unicode="o" horiz-adv-x="1086" d="M57 451q0 141 67 248.5t177.5 163t244.5 55.5t242.5 -55t174.5 -163.5t66 -251.5q0 -142 -66.5 -249.5t-176 -162t-244.5 -54.5q-210 0 -347.5 131.5t-137.5 337.5zM218 450q0 -144 90.5 -240.5t233.5 -96.5q144 0 235 97t91 240q0 144 -90.5 240.5t-235.5 96.5 q-144 0 -234 -96.5t-90 -240.5z" />
<glyph unicode="p" horiz-adv-x="1069" d="M130 -491v1312q194 99 385 99q103 0 190.5 -28.5t154 -83.5t104.5 -145t38 -205q0 -109 -34.5 -199t-94 -149.5t-139 -91.5t-170.5 -32q-145 0 -277 78v-555h-157zM287 198q115 -84 246 -84q139 0 225 98q86 100 86 248q0 156 -96 248q-97 94 -245 94q-104 0 -216 -55 v-549z" />
<glyph unicode="q" horiz-adv-x="1080" d="M67 449q0 151 67 258.5t177 159t251 51.5q193 0 382 -102v-1341h-157v608q-121 -99 -281 -99q-86 0 -164.5 31t-140 88t-98 146.5t-36.5 199.5zM315 202q88 -91 220 -91q140 0 252 109v529q-100 50 -211 50q-155 0 -253 -97q-97 -96 -97 -253q0 -154 89 -247z" />
<glyph unicode="r" horiz-adv-x="710" d="M130 0v900h157v-195q47 93 126.5 151t173.5 58q48 0 101 -17l-3 -151q-50 18 -103 18q-88 0 -164.5 -59.5t-130.5 -170.5v-534h-157z" />
<glyph unicode="s" horiz-adv-x="828" d="M67 117l72 110q55 -49 127.5 -79.5t149.5 -31.5q81 0 133.5 35t52.5 90q0 30 -17.5 55.5t-51 45t-70 34t-84.5 28.5q-45 13 -75.5 24t-73.5 33.5t-69 46.5t-45 64q-18 38 -18 82q0 79 48 140q46 59 122 89q73 29 160 29h6q152 -1 282 -90l-67 -112q-93 70 -203 73h-9 q-79 -1 -127 -35q-52 -36 -51 -87q0 -28 17 -50t52 -39t65.5 -27.5t81.5 -24.5q45 -12 80 -24.5t78 -36t71 -51.5q30 -28 48 -71q17 -39 16 -84v-10q-3 -78 -50 -137q-46 -60 -124 -90q-75 -30 -167 -30h-6q-99 1 -191 36.5t-163 94.5z" />
<glyph unicode="t" horiz-adv-x="762" d="M47 773v127h163v294h157v-294h327l-1 -127h-326v-469q0 -89 49 -137t128 -50h8q76 0 156 54l55 -120q-115 -67 -237 -67q-137 0 -226.5 85.5t-89.5 241.5v462h-163z" />
<glyph unicode="u" horiz-adv-x="1055" d="M112 315v585h157v-572q0 -98 57 -153t142 -55q81 0 160 50.5t140 135.5v594h157v-900h-152l-5 168q-67 -83 -158.5 -132.5t-190.5 -49.5q-60 0 -114 19.5t-98 58t-69.5 103.5t-25.5 148z" />
<glyph unicode="v" horiz-adv-x="959" d="M11 900h168l292 -690l314 690h163l-418 -900h-122z" />
<glyph unicode="w" horiz-adv-x="1530" d="M11 900h163l256 -678l279 678h117l275 -680l260 680h158l-355 -900h-114l-284 694l-287 -694h-113z" />
<glyph unicode="x" horiz-adv-x="942" d="M18 0l362 469l-328 431h175l242 -316l243 316h183l-333 -428l362 -472h-174l-277 357l-277 -357h-178z" />
<glyph unicode="y" horiz-adv-x="1042" d="M24 900h168l316 -707l342 707h172l-548 -1119q-58 -117 -152 -175q-83 -52 -186 -52q-14 0 -28 1l1 135h12q147 0 221 149l85 175z" />
<glyph unicode="z" horiz-adv-x="946" d="M81 0v55l560 719h-534v126h757v-57l-564 -718h552v-125h-771z" />
<glyph unicode="{" horiz-adv-x="700" d="M51 385v163q133 21 179.5 80.5t47.5 200.5v185q1 204 80.5 292.5t246.5 88.5h59v-151q-130 1 -176.5 -48.5t-46.5 -179.5v-179q-2 -174 -47.5 -254t-163.5 -116q118 -36 163.5 -116t47.5 -254v-179q0 -131 46.5 -180.5t176.5 -48.5v-150h-59q-167 0 -246.5 88.5 t-80.5 291.5v186q-1 141 -47.5 200t-179.5 80z" />
<glyph unicode="|" horiz-adv-x="600" />
<glyph unicode="}" horiz-adv-x="716" d="M15 -311q130 -1 176.5 48.5t46.5 180.5v179q2 174 47.5 254t163.5 116q-118 36 -163.5 116t-47.5 254v179q0 130 -46.5 179.5t-176.5 48.5v151h59q167 0 246.5 -88.5t80.5 -292.5v-185q1 -141 47.5 -200t179.5 -81v-163q-133 -21 -179.5 -80t-47.5 -200v-186 q-1 -203 -80.5 -291.5t-246.5 -88.5h-59v150z" />
<glyph unicode="&#xa1;" horiz-adv-x="475" d="M103 -427l35 1060h123l26 -1060h-184zM117 761v199h173v-199h-173z" />
<glyph unicode="&#xa2;" horiz-adv-x="904" d="M57 703q0 183 114 308t294 151l6 224h124l-5 -219q137 -9 247 -77l-66 -119q-76 55 -184 63l-15 -660q131 4 224 85l77 -112q-130 -97 -304 -105l-6 -242h-129l7 252q-167 31 -275.5 151t-108.5 300zM217 703q0 -112 62.5 -195.5t164.5 -116.5l17 631 q-109 -29 -176.5 -114.5t-67.5 -204.5z" />
<glyph unicode="&#xa3;" horiz-adv-x="1015" d="M33 -25l177 652h-156v138h194q94 318 241 485.5t324 167.5q59 0 128 -26l-45 -132q-37 17 -78 17q-122 0 -224.5 -132.5t-180.5 -379.5h373v-138h-415l-127 -476q91 17 167 17q88 0 199.5 -20.5t158.5 -20.5q101 0 185 52l52 -131q-101 -61 -229 -61q-53 0 -180.5 20 t-225.5 20q-163 0 -338 -52z" />
<glyph unicode="&#xa4;" horiz-adv-x="625" />
<glyph unicode="&#xa5;" horiz-adv-x="1168" d="M-17 1386h177l430 -657l438 657h175l-454 -688h301v-128h-376v-83h376v-128h-376v-359h-160v359h-377v128h377v83h-377v128h298z" />
<glyph unicode="&#xa6;" horiz-adv-x="600" />
<glyph unicode="&#xa7;" horiz-adv-x="600" />
<glyph unicode="&#xa8;" horiz-adv-x="838" d="M437 1592v184h186v-184h-186zM788 1592v184h187v-184h-187z" />
<glyph unicode="&#xa9;" horiz-adv-x="1393" d="M0 693q0 138 56.5 266t150.5 221t223 149t267 56t266.5 -56t222.5 -149t150.5 -221t56.5 -266t-56.5 -266.5t-150.5 -221.5t-222.5 -149t-266.5 -56t-267 56t-223 149t-150.5 221.5t-56.5 266.5zM131 693q0 -156 75 -286.5t205.5 -206.5t285.5 -76t285 76t204.5 206.5 t74.5 286.5q0 155 -74.5 285.5t-204.5 206.5t-285 76t-285.5 -76t-205.5 -206.5t-75 -285.5z" />
<glyph unicode="&#xab;" horiz-adv-x="982" d="M32 498l326 491h170l-327 -492l328 -497h-169zM434 498l325 491h171l-327 -492l327 -497h-168z" />
<glyph unicode="&#xad;" horiz-adv-x="738" d="M45 503v131h648v-131h-648z" />
<glyph unicode="&#xae;" horiz-adv-x="1393" d="M0 693q0 138 56.5 266t150.5 221t223 149t267 56t266.5 -56t222.5 -149t150.5 -221t56.5 -266t-56.5 -266.5t-150.5 -221.5t-222.5 -149t-266.5 -56t-267 56t-223 149t-150.5 221.5t-56.5 266.5zM131 693q0 -156 75 -286.5t205.5 -206.5t285.5 -76t285 76t204.5 206.5 t74.5 286.5q0 155 -74.5 285.5t-204.5 206.5t-285 76t-285.5 -76t-205.5 -206.5t-75 -285.5z" />
<glyph unicode="&#xaf;" horiz-adv-x="1252" d="M100 1560v95h874v-95h-874z" />
<glyph unicode="&#xb0;" horiz-adv-x="600" />
<glyph unicode="&#xb4;" horiz-adv-x="838" d="M597 1573l150 252h218l-259 -252h-109z" />
<glyph unicode="&#xb6;" horiz-adv-x="1134" d="M62 953q0 199 138.5 316t377.5 117h374v-1386h-160v512h-191q-250 0 -394.5 119t-144.5 322zM223 954q0 -139 106.5 -222t267.5 -83h195v600h-218q-151 0 -251 -80t-100 -215z" />
<glyph unicode="&#xb7;" horiz-adv-x="707" d="M46 571v215h188v-215h-188z" />
<glyph unicode="&#xb8;" horiz-adv-x="718" d="M703 -293q193 10 193 85q0 32 -35.5 55.5t-111.5 26.5l93 148h106l-43 -87q69 -14 112.5 -51t43.5 -98q0 -77 -83.5 -125t-274.5 -47v93z" />
<glyph unicode="&#xbb;" horiz-adv-x="981" d="M43 0l327 497l-327 492h171l325 -491l-328 -498h-168zM444 0l328 497l-327 492h170l326 -491l-328 -498h-169z" />
<glyph unicode="&#xbc;" horiz-adv-x="1452" d="M0 1268l133 116h159v-721h-160v552l-54 -49zM156 -21l786 1428h151l-786 -1428h-151zM826 150v136l349 435h125v-434h92v-137h-92v-150h-160v150h-314zM961 287h179v230z" />
<glyph unicode="&#xbd;" horiz-adv-x="1445" d="M0 1268l133 116h159v-721h-160v552l-54 -49zM156 -21l786 1428h151l-786 -1428h-151zM889 0l1 127l257 245q41 40 63 72.5t22 69.5q0 38 -24 61t-62 23q-35 0 -60.5 -23.5t-36.5 -59.5l-141 61q59 158 241 158q103 0 171.5 -59t68.5 -156q0 -67 -32 -121t-89 -109 l-156 -152h285v-137h-508z" />
<glyph unicode="&#xbe;" horiz-adv-x="1654" d="M27 744l78 106q65 -62 147 -62q52 1 83 25t31 65q0 42 -34.5 69.5t-85.5 27.5h-76l1 122h70q48 0 79.5 24t31.5 64q0 36 -26.5 56.5t-72.5 20.5q-61 0 -112 -44l-74 99q90 82 206 82q99 0 168.5 -55t69.5 -141q0 -59 -33 -102.5t-81 -58.5q54 -17 89.5 -60.5t35.5 -113.5 q0 -103 -75 -160t-183 -57q-140 0 -237 93zM358 -21l786 1428h151l-786 -1428h-151zM1028 150v136l349 435h125v-434h92v-137h-92v-150h-160v150h-314zM1163 287h179v230z" />
<glyph unicode="&#xbf;" horiz-adv-x="773" d="M12 17q0 64 20.5 119t53 95.5t72.5 78.5t79.5 77t73 80.5t54.5 99.5t22 125l1 66h146l-2 -71q-1 -80 -21.5 -148t-51.5 -116.5t-68.5 -91t-75 -78t-68.5 -70t-51 -75.5t-21 -86q-2 -93 65 -156t167 -59q84 4 151.5 59t98.5 150l143 -55q-46 -133 -152.5 -214t-245.5 -85 q-166 -5 -278 95.5t-112 259.5zM374 880v197h171v-197h-171z" />
<glyph unicode="&#xc0;" horiz-adv-x="1407" d="M24 0l597 1388h165l598 -1388h-182l-164 392h-670l-164 -392h-180zM426 529h555l-277 664zM505 1836h218l150 -252h-109z" />
<glyph unicode="&#xc1;" horiz-adv-x="1407" d="M24 0l597 1388h165l598 -1388h-182l-164 392h-670l-164 -392h-180zM426 529h555l-277 664zM544 1555l150 252h218l-259 -252h-109z" />
<glyph unicode="&#xc2;" horiz-adv-x="1407" d="M24 0l597 1388h165l598 -1388h-182l-164 392h-670l-164 -392h-180zM424 1540l172 273h218l174 -273h-125l-157 184l-158 -184h-124zM426 529h555l-277 664z" />
<glyph unicode="&#xc3;" horiz-adv-x="1407" d="M24 0l597 1388h165l598 -1388h-182l-164 392h-670l-164 -392h-180zM348 1632q14 87 68.5 132t128.5 45q53 0 109 -24.5t107.5 -49t93.5 -24.5q84 0 111 83l96 -16q-9 -94 -65 -144.5t-137 -50.5q-42 0 -86 15t-75.5 32.5t-72 32t-75.5 14.5q-84 0 -106 -70zM426 529h555 l-277 664z" />
<glyph unicode="&#xc4;" horiz-adv-x="1407" d="M24 0l597 1388h165l598 -1388h-182l-164 392h-670l-164 -392h-180zM426 529h555l-277 664zM435 1593v184h186v-184h-186zM786 1593v184h187v-184h-187z" />
<glyph unicode="&#xc5;" horiz-adv-x="1407" d="M24 0l597 1388h165l598 -1388h-182l-164 392h-670l-164 -392h-180zM426 529h555l-277 664zM528 1753q0 72 51 122.5t126 50.5t127 -50t52 -123q0 -72 -52.5 -123t-126.5 -51q-75 0 -126 52t-51 122zM604 1753q0 -41 30 -70.5t71 -29.5q42 0 73 29.5t31 70.5t-31 69.5 t-72 28.5q-42 0 -72 -28.5t-30 -69.5z" />
<glyph unicode="&#xc6;" horiz-adv-x="1854" d="M24 0l827 1386h915v-136h-722v-472h593v-136h-593v-506h722v-136h-878v580h-348l-342 -580h-174zM620 716h268v455z" />
<glyph unicode="&#xc7;" horiz-adv-x="1410" d="M87 692q0 135 43.5 253t118.5 203.5t174 147t211 92t229 31.5q270 1 470 -143l-79 -126q-162 128 -382 128q-120 0 -231 -41t-197.5 -115t-138.5 -187t-52 -247q0 -132 51 -243t136.5 -183t195.5 -112t231 -40q120 0 224 37.5t178 102.5l88 -124q-185 -137 -437 -155 l-18 -36q69 -14 112.5 -51t43.5 -98q0 -77 -83.5 -125t-274.5 -47v93q193 10 193 85q0 32 -35.5 55.5t-111.5 26.5l61 97q-115 7 -221 41t-197 96.5t-158.5 146.5t-105.5 196.5t-38 240.5z" />
<glyph unicode="&#xc8;" horiz-adv-x="1148" d="M182 0v1386h878v-136h-722v-472h593v-136h-593v-506h722v-136h-878zM446 1846h218l150 -252h-109z" />
<glyph unicode="&#xc9;" horiz-adv-x="1148" d="M182 0v1386h878v-136h-722v-472h593v-136h-593v-506h722v-136h-878zM485 1565l150 252h218l-259 -252h-109z" />
<glyph unicode="&#xca;" horiz-adv-x="1148" d="M182 0v1386h878v-136h-722v-472h593v-136h-593v-506h722v-136h-878zM364 1550l172 273h218l174 -273h-125l-157 184l-158 -184h-124z" />
<glyph unicode="&#xcb;" horiz-adv-x="1148" d="M182 0v1386h878v-136h-722v-472h593v-136h-593v-506h722v-136h-878zM376 1603v184h186v-184h-186zM727 1603v184h187v-184h-187z" />
<glyph unicode="&#xcc;" horiz-adv-x="523" d="M60 1835h218l150 -252h-109zM182 0v1384h159v-1384h-159z" />
<glyph unicode="&#xcd;" horiz-adv-x="523" d="M99 1554l150 252h218l-259 -252h-109zM182 0v1384h159v-1384h-159z" />
<glyph unicode="&#xce;" horiz-adv-x="523" d="M-21 1539l172 273h218l174 -273h-125l-157 184l-158 -184h-124zM182 0v1384h159v-1384h-159z" />
<glyph unicode="&#xcf;" horiz-adv-x="523" d="M-9 1592v184h186v-184h-186zM182 0v1384h159v-1384h-159zM342 1592v184h187v-184h-187z" />
<glyph unicode="&#xd0;" horiz-adv-x="1380" d="M-51 776v131h233v479h278q380 0 606.5 -184.5t226.5 -509.5q0 -215 -105.5 -373t-290.5 -238.5t-427 -80.5h-288v776h-233zM342 137h133q191 0 337.5 64.5t230 192t83.5 300.5q0 133 -50 239.5t-138.5 175t-207.5 104.5t-259 36h-129v-342h255v-131h-255v-639z" />
<glyph unicode="&#xd1;" horiz-adv-x="1537" d="M182 0v1386h142l871 -1124v1124h160v-1386h-141l-872 1121v-1121h-160zM428 1632q14 87 68.5 132t128.5 45q53 0 109 -24.5t107.5 -49t93.5 -24.5q84 0 111 83l96 -16q-9 -94 -65 -144.5t-137 -50.5q-42 0 -86 15t-75.5 32.5t-72 32t-75.5 14.5q-84 0 -106 -70z" />
<glyph unicode="&#xd2;" d="M87 692q0 163 59 301t159 230t234 143.5t283 51.5q153 0 288 -52.5t234.5 -146t157 -230.5t57.5 -297q0 -164 -59.5 -301.5t-160.5 -229t-234.5 -142.5t-282.5 -51q-120 0 -230.5 32t-202 95t-159 149.5t-105.5 201.5t-38 246zM255 692q0 -169 72 -303t201.5 -209.5 t293.5 -75.5q251 0 410.5 166.5t159.5 421.5q0 257 -161.5 423.5t-408.5 166.5q-122 0 -227.5 -44.5t-180 -122t-117 -187.5t-42.5 -236zM619 1890h218l150 -252h-109z" />
<glyph unicode="&#xd3;" d="M87 692q0 163 59 301t159 230t234 143.5t283 51.5q153 0 288 -52.5t234.5 -146t157 -230.5t57.5 -297q0 -164 -59.5 -301.5t-160.5 -229t-234.5 -142.5t-282.5 -51q-120 0 -230.5 32t-202 95t-159 149.5t-105.5 201.5t-38 246zM255 692q0 -169 72 -303t201.5 -209.5 t293.5 -75.5q251 0 410.5 166.5t159.5 421.5q0 257 -161.5 423.5t-408.5 166.5q-122 0 -227.5 -44.5t-180 -122t-117 -187.5t-42.5 -236zM658 1609l150 252h218l-259 -252h-109z" />
<glyph unicode="&#xd4;" d="M87 692q0 163 59 301t159 230t234 143.5t283 51.5q153 0 288 -52.5t234.5 -146t157 -230.5t57.5 -297q0 -164 -59.5 -301.5t-160.5 -229t-234.5 -142.5t-282.5 -51q-120 0 -230.5 32t-202 95t-159 149.5t-105.5 201.5t-38 246zM255 692q0 -169 72 -303t201.5 -209.5 t293.5 -75.5q251 0 410.5 166.5t159.5 421.5q0 257 -161.5 423.5t-408.5 166.5q-122 0 -227.5 -44.5t-180 -122t-117 -187.5t-42.5 -236zM538 1594l172 273h218l174 -273h-125l-157 184l-158 -184h-124z" />
<glyph unicode="&#xd5;" d="M87 692q0 163 59 301t159 230t234 143.5t283 51.5q153 0 288 -52.5t234.5 -146t157 -230.5t57.5 -297q0 -164 -59.5 -301.5t-160.5 -229t-234.5 -142.5t-282.5 -51q-120 0 -230.5 32t-202 95t-159 149.5t-105.5 201.5t-38 246zM255 692q0 -169 72 -303t201.5 -209.5 t293.5 -75.5q251 0 410.5 166.5t159.5 421.5q0 257 -161.5 423.5t-408.5 166.5q-122 0 -227.5 -44.5t-180 -122t-117 -187.5t-42.5 -236zM463 1686q14 87 68.5 132t128.5 45q53 0 109 -24.5t107.5 -49t93.5 -24.5q84 0 111 83l96 -16q-9 -94 -65 -144.5t-137 -50.5 q-42 0 -86 15t-75.5 32.5t-72 32t-75.5 14.5q-84 0 -106 -70z" />
<glyph unicode="&#xd6;" d="M87 692q0 163 59 301t159 230t234 143.5t283 51.5q153 0 288 -52.5t234.5 -146t157 -230.5t57.5 -297q0 -164 -59.5 -301.5t-160.5 -229t-234.5 -142.5t-282.5 -51q-120 0 -230.5 32t-202 95t-159 149.5t-105.5 201.5t-38 246zM255 692q0 -169 72 -303t201.5 -209.5 t293.5 -75.5q251 0 410.5 166.5t159.5 421.5q0 257 -161.5 423.5t-408.5 166.5q-122 0 -227.5 -44.5t-180 -122t-117 -187.5t-42.5 -236zM550 1647v184h186v-184h-186zM901 1647v184h187v-184h-187z" />
<glyph unicode="&#xd8;" d="M87 692q0 163 59 301t159 230t234 143.5t283 51.5q153 0 289 -52l35 63h156l-68 -125q151 -95 238 -253.5t87 -358.5q0 -164 -59.5 -301.5t-160.5 -229t-234.5 -142.5t-282.5 -51q-154 0 -293 54l-40 -72h-157l74 134q-149 94 -234 250.5t-85 357.5zM255 692 q0 -151 58.5 -275t163.5 -203l566 1027q-102 41 -221 41q-122 0 -227.5 -44.5t-180 -122t-117 -187.5t-42.5 -236zM597 146q106 -42 225 -42q251 0 410.5 166.5t159.5 421.5q0 153 -61 278.5t-169 204.5z" />
<glyph unicode="&#xd9;" horiz-adv-x="1484" d="M155 561v825h160v-827q0 -108 35.5 -195t95.5 -140.5t136 -82t160 -28.5q85 0 161 28.5t135.5 82.5t94.5 140.5t35 194.5v827h160v-825q0 -116 -32 -213.5t-87.5 -165.5t-130 -115.5t-159.5 -70t-177 -22.5t-177.5 23t-160 70.5t-130 116t-87.5 165.5t-32 212zM541 1846 h218l150 -252h-109z" />
<glyph unicode="&#xda;" horiz-adv-x="1484" d="M155 561v825h160v-827q0 -108 35.5 -195t95.5 -140.5t136 -82t160 -28.5q85 0 161 28.5t135.5 82.5t94.5 140.5t35 194.5v827h160v-825q0 -116 -32 -213.5t-87.5 -165.5t-130 -115.5t-159.5 -70t-177 -22.5t-177.5 23t-160 70.5t-130 116t-87.5 165.5t-32 212zM580 1565 l150 252h218l-259 -252h-109z" />
<glyph unicode="&#xdb;" horiz-adv-x="1484" d="M155 561v825h160v-827q0 -108 35.5 -195t95.5 -140.5t136 -82t160 -28.5q85 0 161 28.5t135.5 82.5t94.5 140.5t35 194.5v827h160v-825q0 -116 -32 -213.5t-87.5 -165.5t-130 -115.5t-159.5 -70t-177 -22.5t-177.5 23t-160 70.5t-130 116t-87.5 165.5t-32 212zM459 1550 l172 273h218l174 -273h-125l-157 184l-158 -184h-124z" />
<glyph unicode="&#xdc;" horiz-adv-x="1484" d="M155 561v825h160v-827q0 -108 35.5 -195t95.5 -140.5t136 -82t160 -28.5q85 0 161 28.5t135.5 82.5t94.5 140.5t35 194.5v827h160v-825q0 -116 -32 -213.5t-87.5 -165.5t-130 -115.5t-159.5 -70t-177 -22.5t-177.5 23t-160 70.5t-130 116t-87.5 165.5t-32 212zM471 1603 v184h186v-184h-186zM822 1603v184h187v-184h-187z" />
<glyph unicode="&#xdd;" horiz-adv-x="1180" d="M-20 1386h177l430 -657l438 657h175l-529 -801v-585h-160v577zM435 1565l150 252h218l-259 -252h-109z" />
<glyph unicode="&#xde;" horiz-adv-x="1134" d="M182 0v1386h159v-244h155q281 0 428 -115.5t147 -321.5q0 -201 -145 -319.5t-442 -120.5l-142 -1l-1 -264h-159zM342 402h145q115 0 199.5 24.5t132.5 68t70 96.5t22 117q-1 142 -107.5 220t-318.5 78h-143v-604z" />
<glyph unicode="&#xdf;" horiz-adv-x="1250" d="M166 0v972q0 190 121.5 313t328.5 123q182 0 301.5 -96t119.5 -245q0 -99 -51 -167.5t-127 -100.5q59 -17 111 -48.5t96 -78.5t70 -114.5t26 -147.5q0 -183 -122.5 -302t-306.5 -123q-93 -2 -188 29l33 133q68 -19 133 -19q133 -1 208.5 82t75.5 205q0 125 -78.5 207 t-219.5 114v113q78 22 125.5 80t47.5 131q0 94 -75 154t-179 60q-119 0 -197.5 -81t-78.5 -208v-985h-174z" />
<glyph unicode="&#xe0;" horiz-adv-x="931" d="M69 242q0 113 83 177t248 107q20 5 58.5 14t56 14t45 14t42.5 17.5t30.5 22.5t24.5 31q-6 70 -65.5 111.5t-143.5 42.5q-136 1 -241 -102l-72 100q154 122 334 122q146 0 245.5 -80.5t99.5 -220.5v-612h-151l-3 131q-138 -147 -308 -147q-118 0 -200.5 70.5t-82.5 187.5z M229 247q0 -62 49 -102.5t123 -40.5q68 1 135.5 38.5t120.5 99.5v294q-22 -34 -62.5 -53.5t-124.5 -46.5q-45 -15 -71.5 -24.5t-63 -27t-56.5 -35t-35 -44.5t-15 -58zM307 1374h218l150 -252h-109z" />
<glyph unicode="&#xe1;" horiz-adv-x="931" d="M69 242q0 113 83 177t248 107q20 5 58.5 14t56 14t45 14t42.5 17.5t30.5 22.5t24.5 31q-6 70 -65.5 111.5t-143.5 42.5q-136 1 -241 -102l-72 100q154 122 334 122q146 0 245.5 -80.5t99.5 -220.5v-612h-151l-3 131q-138 -147 -308 -147q-118 0 -200.5 70.5t-82.5 187.5z M229 247q0 -62 49 -102.5t123 -40.5q68 1 135.5 38.5t120.5 99.5v294q-22 -34 -62.5 -53.5t-124.5 -46.5q-45 -15 -71.5 -24.5t-63 -27t-56.5 -35t-35 -44.5t-15 -58zM346 1093l150 252h218l-259 -252h-109z" />
<glyph unicode="&#xe2;" horiz-adv-x="931" d="M69 242q0 113 83 177t248 107q20 5 58.5 14t56 14t45 14t42.5 17.5t30.5 22.5t24.5 31q-6 70 -65.5 111.5t-143.5 42.5q-136 1 -241 -102l-72 100q154 122 334 122q146 0 245.5 -80.5t99.5 -220.5v-612h-151l-3 131q-138 -147 -308 -147q-118 0 -200.5 70.5t-82.5 187.5z M225 1078l172 273h218l174 -273h-125l-157 184l-158 -184h-124zM229 247q0 -62 49 -102.5t123 -40.5q68 1 135.5 38.5t120.5 99.5v294q-22 -34 -62.5 -53.5t-124.5 -46.5q-45 -15 -71.5 -24.5t-63 -27t-56.5 -35t-35 -44.5t-15 -58z" />
<glyph unicode="&#xe3;" horiz-adv-x="931" d="M69 242q0 113 83 177t248 107q20 5 58.5 14t56 14t45 14t42.5 17.5t30.5 22.5t24.5 31q-6 70 -65.5 111.5t-143.5 42.5q-136 1 -241 -102l-72 100q154 122 334 122q146 0 245.5 -80.5t99.5 -220.5v-612h-151l-3 131q-138 -147 -308 -147q-118 0 -200.5 70.5t-82.5 187.5z M150 1170q14 87 68.5 132t128.5 45q53 0 109 -24.5t107.5 -49t93.5 -24.5q84 0 111 83l96 -16q-9 -94 -65 -144.5t-137 -50.5q-42 0 -86 15t-75.5 32.5t-72 32t-75.5 14.5q-84 0 -106 -70zM229 247q0 -62 49 -102.5t123 -40.5q68 1 135.5 38.5t120.5 99.5v294 q-22 -34 -62.5 -53.5t-124.5 -46.5q-45 -15 -71.5 -24.5t-63 -27t-56.5 -35t-35 -44.5t-15 -58z" />
<glyph unicode="&#xe4;" horiz-adv-x="931" d="M69 242q0 113 83 177t248 107q20 5 58.5 14t56 14t45 14t42.5 17.5t30.5 22.5t24.5 31q-6 70 -65.5 111.5t-143.5 42.5q-136 1 -241 -102l-72 100q154 122 334 122q146 0 245.5 -80.5t99.5 -220.5v-612h-151l-3 131q-138 -147 -308 -147q-118 0 -200.5 70.5t-82.5 187.5z M229 247q0 -62 49 -102.5t123 -40.5q68 1 135.5 38.5t120.5 99.5v294q-22 -34 -62.5 -53.5t-124.5 -46.5q-45 -15 -71.5 -24.5t-63 -27t-56.5 -35t-35 -44.5t-15 -58zM237 1131v184h186v-184h-186zM588 1131v184h187v-184h-187z" />
<glyph unicode="&#xe5;" horiz-adv-x="931" d="M69 242q0 113 83 177t248 107q20 5 58.5 14t56 14t45 14t42.5 17.5t30.5 22.5t24.5 31q-6 70 -65.5 111.5t-143.5 42.5q-136 1 -241 -102l-72 100q154 122 334 122q146 0 245.5 -80.5t99.5 -220.5v-612h-151l-3 131q-138 -147 -308 -147q-118 0 -200.5 70.5t-82.5 187.5z M229 247q0 -62 49 -102.5t123 -40.5q68 1 135.5 38.5t120.5 99.5v294q-22 -34 -62.5 -53.5t-124.5 -46.5q-45 -15 -71.5 -24.5t-63 -27t-56.5 -35t-35 -44.5t-15 -58zM330 1291q0 72 51 122.5t126 50.5t127 -50t52 -123q0 -72 -52.5 -123t-126.5 -51q-75 0 -126 52t-51 122z M406 1291q0 -41 30 -70.5t71 -29.5q42 0 73 29.5t31 70.5t-31 69.5t-72 28.5q-42 0 -72 -28.5t-30 -69.5z" />
<glyph unicode="&#xe6;" horiz-adv-x="1641" d="M69 242q0 113 83 177t248 107q20 5 58.5 14t56 14t45 14t42.5 17.5t30.5 22.5t24.5 31q-6 70 -65.5 111.5t-143.5 42.5q-136 1 -241 -102l-72 100q154 122 334 122q104 0 188 -42.5t125 -121.5q65 82 164 125.5t210 41.5q70 -2 134.5 -21t122 -60t98.5 -99.5t61 -144.5 t11 -189l-740 1q15 -135 102.5 -210t223.5 -78q175 -3 301 107l77 -108q-169 -133 -386 -127q-215 6 -347 143v-130h-151l-3 131q-138 -147 -308 -147q-118 0 -200.5 70.5t-82.5 187.5zM229 247q0 -62 49 -102.5t123 -40.5q68 1 135.5 38.5t120.5 99.5v294 q-22 -34 -62.5 -53.5t-124.5 -46.5q-45 -15 -71.5 -24.5t-63 -27t-56.5 -35t-35 -44.5t-15 -58zM845 521l587 -1q3 113 -72.5 190t-203.5 81q-123 5 -208 -66t-103 -204z" />
<glyph unicode="&#xe7;" horiz-adv-x="906" d="M57 449q0 205 140.5 335t351.5 130q163 0 289 -79l-67 -119q-86 65 -209 65q-147 0 -245.5 -93.5t-98.5 -238.5q0 -144 98.5 -237t242.5 -93q139 0 237 86l78 -113q-116 -86 -270 -101l-28 -56q69 -14 112.5 -51t43.5 -98q0 -77 -83.5 -125t-274.5 -47v93q193 10 193 85 q0 32 -35.5 55.5t-111.5 26.5l73 116q-89 8 -168 43.5t-139 93t-94.5 141t-34.5 181.5z" />
<glyph unicode="&#xe8;" horiz-adv-x="1013" d="M57 474q7 204 143.5 323.5t326.5 115.5q70 -2 134.5 -21t122 -60t98.5 -99.5t61 -144.5t11 -189l-740 2q14 -135 102 -210.5t224 -78.5q175 -3 301 107l77 -108q-169 -133 -386 -127t-349 145t-126 345zM216 519l587 -2q3 113 -72.5 190.5t-203.5 81.5q-123 5 -207.5 -66 t-103.5 -204zM337 1377h218l150 -252h-109z" />
<glyph unicode="&#xe9;" horiz-adv-x="1013" d="M57 474q7 204 143.5 323.5t326.5 115.5q70 -2 134.5 -21t122 -60t98.5 -99.5t61 -144.5t11 -189l-740 2q14 -135 102 -210.5t224 -78.5q175 -3 301 107l77 -108q-169 -133 -386 -127t-349 145t-126 345zM216 519l587 -2q3 113 -72.5 190.5t-203.5 81.5q-123 5 -207.5 -66 t-103.5 -204zM376 1096l150 252h218l-259 -252h-109z" />
<glyph unicode="&#xea;" horiz-adv-x="1013" d="M57 474q7 204 143.5 323.5t326.5 115.5q70 -2 134.5 -21t122 -60t98.5 -99.5t61 -144.5t11 -189l-740 2q14 -135 102 -210.5t224 -78.5q175 -3 301 107l77 -108q-169 -133 -386 -127t-349 145t-126 345zM216 519l587 -2q3 113 -72.5 190.5t-203.5 81.5q-123 5 -207.5 -66 t-103.5 -204zM256 1081l172 273h218l174 -273h-125l-157 184l-158 -184h-124z" />
<glyph unicode="&#xeb;" horiz-adv-x="1013" d="M57 474q7 204 143.5 323.5t326.5 115.5q70 -2 134.5 -21t122 -60t98.5 -99.5t61 -144.5t11 -189l-740 2q14 -135 102 -210.5t224 -78.5q175 -3 301 107l77 -108q-169 -133 -386 -127t-349 145t-126 345zM216 519l587 -2q3 113 -72.5 190.5t-203.5 81.5q-123 5 -207.5 -66 t-103.5 -204zM268 1134v184h186v-184h-186zM619 1134v184h187v-184h-187z" />
<glyph unicode="&#xec;" horiz-adv-x="413" d="M4 1377h218l150 -252h-109zM126 0v900h161v-900h-161z" />
<glyph unicode="&#xed;" horiz-adv-x="413" d="M43 1096l150 252h218l-259 -252h-109zM126 0v900h161v-900h-161z" />
<glyph unicode="&#xee;" horiz-adv-x="413" d="M-78 1081l172 273h218l174 -273h-125l-157 184l-158 -184h-124zM126 0v900h161v-900h-161z" />
<glyph unicode="&#xef;" horiz-adv-x="413" d="M-66 1134v184h186v-184h-186zM126 0v900h161v-900h-161zM285 1134v184h187v-184h-187z" />
<glyph unicode="&#xf0;" horiz-adv-x="1111" d="M28 494q14 88 57.5 162t108 124t151 71t180.5 6q97 -16 172.5 -65t120.5 -112q-33 187 -153 346l-125 -102l-83 101l122 99q-91 91 -206 163l92 121q126 -77 232 -188l163 133l83 -101l-161 -131q123 -162 174 -348t22 -364q-37 -224 -188 -346t-358 -89q-129 20 -228 92 t-147.5 185t-28.5 243zM186 465q-20 -128 56.5 -229t208.5 -122q131 -20 231.5 51.5t121.5 195.5q22 129 -57 231t-208 123q-129 22 -231 -50.5t-122 -199.5z" />
<glyph unicode="&#xf1;" horiz-adv-x="1070" d="M130 0v900h158v-182q61 88 149 142t195 54q64 0 120.5 -21t102 -62.5t72 -110.5t26.5 -157v-563h-158v549q0 109 -59.5 169t-151.5 60q-87 0 -164 -55t-132 -143v-580h-158zM217 1173q14 87 68.5 132t128.5 45q53 0 109 -24.5t107.5 -49t93.5 -24.5q84 0 111 83l96 -16 q-9 -94 -65 -144.5t-137 -50.5q-42 0 -86 15t-75.5 32.5t-72 32t-75.5 14.5q-84 0 -106 -70z" />
<glyph unicode="&#xf2;" horiz-adv-x="1086" d="M57 451q0 141 67 248.5t177.5 163t244.5 55.5t242.5 -55t174.5 -163.5t66 -251.5q0 -142 -66.5 -249.5t-176 -162t-244.5 -54.5q-210 0 -347.5 131.5t-137.5 337.5zM218 450q0 -144 90.5 -240.5t233.5 -96.5q144 0 235 97t91 240q0 144 -90.5 240.5t-234.5 96.5 t-234.5 -96.5t-90.5 -240.5zM346 1377h218l150 -252h-109z" />
<glyph unicode="&#xf3;" horiz-adv-x="1086" d="M57 451q0 141 67 248.5t177.5 163t244.5 55.5t242.5 -55t174.5 -163.5t66 -251.5q0 -142 -66.5 -249.5t-176 -162t-244.5 -54.5q-210 0 -347.5 131.5t-137.5 337.5zM218 450q0 -144 90.5 -240.5t233.5 -96.5q144 0 235 97t91 240q0 144 -90.5 240.5t-234.5 96.5 t-234.5 -96.5t-90.5 -240.5zM385 1096l150 252h218l-259 -252h-109z" />
<glyph unicode="&#xf4;" horiz-adv-x="1086" d="M57 451q0 141 67 248.5t177.5 163t244.5 55.5t242.5 -55t174.5 -163.5t66 -251.5q0 -142 -66.5 -249.5t-176 -162t-244.5 -54.5q-210 0 -347.5 131.5t-137.5 337.5zM218 450q0 -144 90.5 -240.5t233.5 -96.5q144 0 235 97t91 240q0 144 -90.5 240.5t-234.5 96.5 t-234.5 -96.5t-90.5 -240.5zM265 1081l172 273h218l174 -273h-125l-157 184l-158 -184h-124z" />
<glyph unicode="&#xf5;" horiz-adv-x="1086" d="M57 451q0 141 67 248.5t177.5 163t244.5 55.5t242.5 -55t174.5 -163.5t66 -251.5q0 -142 -66.5 -249.5t-176 -162t-244.5 -54.5q-210 0 -347.5 131.5t-137.5 337.5zM190 1173q14 87 68.5 132t128.5 45q53 0 109 -24.5t107.5 -49t93.5 -24.5q84 0 111 83l96 -16 q-9 -94 -65 -144.5t-137 -50.5q-42 0 -86 15t-75.5 32.5t-72 32t-75.5 14.5q-84 0 -106 -70zM218 450q0 -144 90.5 -240.5t233.5 -96.5q144 0 235 97t91 240q0 144 -90.5 240.5t-234.5 96.5t-234.5 -96.5t-90.5 -240.5z" />
<glyph unicode="&#xf6;" horiz-adv-x="1086" d="M57 451q0 141 67 248.5t177.5 163t244.5 55.5t242.5 -55t174.5 -163.5t66 -251.5q0 -142 -66.5 -249.5t-176 -162t-244.5 -54.5q-210 0 -347.5 131.5t-137.5 337.5zM218 450q0 -144 90.5 -240.5t233.5 -96.5q144 0 235 97t91 240q0 144 -90.5 240.5t-234.5 96.5 t-234.5 -96.5t-90.5 -240.5zM277 1134v184h186v-184h-186zM628 1134v184h187v-184h-187z" />
<glyph unicode="&#xf8;" horiz-adv-x="1086" d="M57 451q0 141 67 248.5t177.5 163t244.5 55.5q90 0 166 -25l150 273h151l-181 -330q92 -61 144.5 -160.5t52.5 -227.5q0 -142 -66.5 -249.5t-176 -162t-244.5 -54.5q-86 0 -167 25l-148 -269h-151l180 326q-94 63 -146.5 163t-52.5 224zM218 450q0 -160 108 -258l319 580 q-47 15 -102 15q-144 0 -234.5 -96.5t-90.5 -240.5zM441 127q48 -14 101 -14q144 0 235 97t91 240q0 162 -108 257z" />
<glyph unicode="&#xf9;" horiz-adv-x="1055" d="M112 315v585h157v-572q0 -98 57 -153t142 -55q81 0 160 50.5t140 135.5v594h157v-900h-152l-5 168q-67 -83 -158.5 -132.5t-190.5 -49.5q-60 0 -114 19.5t-98 58t-69.5 103.5t-25.5 148zM321 1377h218l150 -252h-109z" />
<glyph unicode="&#xfa;" horiz-adv-x="1055" d="M112 315v585h157v-572q0 -98 57 -153t142 -55q81 0 160 50.5t140 135.5v594h157v-900h-152l-5 168q-67 -83 -158.5 -132.5t-190.5 -49.5q-60 0 -114 19.5t-98 58t-69.5 103.5t-25.5 148zM360 1096l150 252h218l-259 -252h-109z" />
<glyph unicode="&#xfb;" horiz-adv-x="1055" d="M112 315v585h157v-572q0 -98 57 -153t142 -55q81 0 160 50.5t140 135.5v594h157v-900h-152l-5 168q-67 -83 -158.5 -132.5t-190.5 -49.5q-60 0 -114 19.5t-98 58t-69.5 103.5t-25.5 148zM239 1081l172 273h218l174 -273h-125l-157 184l-158 -184h-124z" />
<glyph unicode="&#xfc;" horiz-adv-x="1055" d="M112 315v585h157v-572q0 -98 57 -153t142 -55q81 0 160 50.5t140 135.5v594h157v-900h-152l-5 168q-67 -83 -158.5 -132.5t-190.5 -49.5q-60 0 -114 19.5t-98 58t-69.5 103.5t-25.5 148zM251 1134v184h186v-184h-186zM602 1134v184h187v-184h-187z" />
<glyph unicode="&#xfd;" horiz-adv-x="1042" d="M24 900h169l315 -707l342 707h172l-548 -1119q-58 -118 -152 -176t-214 -50l1 135q156 -6 233 149l86 175zM349 1096l150 252h218l-259 -252h-109z" />
<glyph unicode="&#xfe;" horiz-adv-x="1100" d="M136 -462v1848h174v-536q130 66 254 66q94 0 177 -28.5t149 -83.5t104.5 -145t38.5 -204q0 -216 -127.5 -343t-319.5 -127q-145 0 -276 78v-525h-174zM310 197q114 -84 245 -84q142 0 228.5 98t87.5 244q1 156 -97 249.5t-242 93.5q-110 0 -222 -72v-529z" />
<glyph unicode="&#xff;" horiz-adv-x="1042" d="M24 900h169l315 -707l342 707h172l-548 -1119q-58 -118 -152 -176t-214 -50l1 135q156 -6 233 149l86 175zM241 1134v184h186v-184h-186zM592 1134v184h187v-184h-187z" />
<glyph unicode="&#x152;" horiz-adv-x="2364" d="M87 692q0 163 59 301t159 230t234 143.5t283 51.5q174 0 324 -67.5t252 -189.5v225h878v-136h-723v-457l2 -15h592v-136h-589q-1 -17 -5 -51v-455h723v-136h-878v224q-102 -123 -253 -189.5t-323 -66.5q-120 0 -230.5 32t-202 95t-159 149.5t-105.5 201.5t-38 246z M255 692q0 -169 72 -303t201.5 -209.5t293.5 -75.5q251 0 410.5 166.5t159.5 421.5q0 257 -161.5 423.5t-408.5 166.5q-122 0 -227.5 -44.5t-180 -122t-117 -187.5t-42.5 -236z" />
<glyph unicode="&#x153;" horiz-adv-x="1821" d="M57 444q0 141 67 249t177.5 163.5t244.5 55.5q124 0 229 -50t170 -142q64 91 167.5 139.5t222.5 46.5q70 -2 134.5 -21t122 -60t98 -99.5t60.5 -144.5t11 -189l-734 2l-2 -20q19 -126 105 -196t217 -72q177 -3 301 107l78 -109q-168 -132 -387 -127q-126 4 -226 55 t-163 140q-65 -94 -172 -145.5t-236 -51.5q-210 0 -347.5 131.5t-137.5 337.5zM218 443q0 -144 90.5 -240t233.5 -96q135 0 224 85.5t100 216.5q-2 38 -1 59l1 18q-14 129 -102.5 211.5t-221.5 82.5q-144 0 -234 -96.5t-90 -240.5zM1024 514l1 -2l586 -2q3 113 -72.5 190.5 t-203.5 81.5q-122 4 -207 -66t-104 -202z" />
<glyph unicode="&#x178;" horiz-adv-x="1180" d="M-20 1386h177l430 -657l438 657h175l-529 -801v-585h-160v577zM327 1603v184h186v-184h-186zM678 1603v184h187v-184h-187z" />
<glyph unicode="&#x2c6;" horiz-adv-x="838" d="M419 1539l172 273h218l174 -273h-125l-157 184l-158 -184h-124z" />
<glyph unicode="&#x2dc;" horiz-adv-x="719" d="M353 1631q14 87 68.5 132t128.5 45q53 0 109 -24.5t107.5 -49t93.5 -24.5q84 0 111 83l96 -16q-9 -94 -65 -144.5t-137 -50.5q-42 0 -86 15t-75.5 32.5t-72 32t-75.5 14.5q-84 0 -106 -70z" />
<glyph unicode="&#x2000;" horiz-adv-x="963" />
<glyph unicode="&#x2001;" horiz-adv-x="1926" />
<glyph unicode="&#x2002;" horiz-adv-x="963" />
<glyph unicode="&#x2003;" horiz-adv-x="1926" />
<glyph unicode="&#x2004;" horiz-adv-x="642" />
<glyph unicode="&#x2005;" horiz-adv-x="481" />
<glyph unicode="&#x2006;" horiz-adv-x="321" />
<glyph unicode="&#x2007;" horiz-adv-x="321" />
<glyph unicode="&#x2008;" horiz-adv-x="240" />
<glyph unicode="&#x2009;" horiz-adv-x="385" />
<glyph unicode="&#x200a;" horiz-adv-x="107" />
<glyph unicode="&#x2010;" horiz-adv-x="738" d="M45 503v131h648v-131h-648z" />
<glyph unicode="&#x2011;" horiz-adv-x="738" d="M45 503v131h648v-131h-648z" />
<glyph unicode="&#x2012;" horiz-adv-x="738" d="M45 503v131h648v-131h-648z" />
<glyph unicode="&#x2013;" horiz-adv-x="1116" d="M45 503v131h1025v-131h-1025z" />
<glyph unicode="&#x2014;" horiz-adv-x="1838" d="M45 503v131h1748v-131h-1748z" />
<glyph unicode="&#x2018;" horiz-adv-x="269" d="M18 1037l1 187q0 108 55 188t147 93v-60q-101 -36 -99 -196h91v-212h-195z" />
<glyph unicode="&#x2019;" horiz-adv-x="269" d="M47 970v60q101 34 99 195h-91v212h195v-187q0 -108 -55.5 -188t-147.5 -92z" />
<glyph unicode="&#x201a;" horiz-adv-x="288" d="M42 -196q101 35 99 196h-91v212h195v-187q-1 -108 -56 -188t-147 -92v59z" />
<glyph unicode="&#x201c;" horiz-adv-x="528" d="M18 1036l1 187q0 108 55 188t147 93v-60q-101 -36 -99 -196h91v-212h-195zM278 1036v187q0 109 55.5 188.5t147.5 92.5v-60q-101 -35 -99 -196h91v-212h-195z" />
<glyph unicode="&#x201d;" horiz-adv-x="528" d="M47 970v60q101 35 99 196h-91v212h195v-187q0 -109 -55.5 -188.5t-147.5 -92.5zM307 970v60q101 36 99 196h-91v212h195l-1 -187q0 -108 -55 -188t-147 -93z" />
<glyph unicode="&#x201e;" horiz-adv-x="547" d="M42 -196q101 35 99 196h-91v212h195v-187q-1 -108 -56 -188t-147 -92v59zM301 -196q101 35 99 196h-91v212h196l-1 -187q0 -108 -55.5 -188t-147.5 -92v59z" />
<glyph unicode="&#x2022;" horiz-adv-x="555" d="M138 588v275h279v-275h-279z" />
<glyph unicode="&#x2026;" horiz-adv-x="1321" d="M110 102h187v-215h-187v215zM504 102h187v-215h-187v215zM898 102h187v-215h-187v215z" />
<glyph unicode="&#x202f;" horiz-adv-x="385" />
<glyph unicode="&#x2039;" horiz-adv-x="580" d="M32 498l326 491h170l-327 -492l328 -497h-169z" />
<glyph unicode="&#x203a;" horiz-adv-x="580" d="M43 0l327 497l-327 492h171l325 -491l-328 -498h-168z" />
<glyph unicode="&#x205f;" horiz-adv-x="481" />
<glyph unicode="&#x20ac;" horiz-adv-x="1225" d="M0 515v128h97q-1 16 -1 50l1 37h-97v128h110q32 178 132.5 307t238 191t296.5 62q183 4 359 -83l-57 -129q-148 77 -299 76q-198 0 -330 -116t-174 -308h509v-128h-526q-1 -13 -1 -39q0 -32 1 -48h526v-128h-508q44 -190 177 -298t321 -108q177 -3 329 90l62 -129 q-191 -102 -400 -97q-162 0 -297 61.5t-229.5 185.5t-127.5 295h-112z" />
<glyph unicode="&#x2122;" horiz-adv-x="1159" d="M-3 1270v116h504v-116h-185v-412h-134v412h-185zM510 858v528h120l173 -230l178 230h115v-528h-135v306l-139 -179h-38l-139 178v-305h-135z" />
<glyph unicode="&#x25fc;" horiz-adv-x="900" d="M0 0v900h900v-900h-900z" />
</font>
</defs>
</svg>
