<?xml version="1.0" standalone="no"?>
<!DOCTYPE svg PUBLIC "-//W3C//DTD SVG 1.1//EN" "http://www.w3.org/Graphics/SVG/1.1/DTD/svg11.dtd" >
<svg xmlns="http://www.w3.org/2000/svg" xmlns:xlink="http://www.w3.org/1999/xlink" version="1.1">
<metadata></metadata>
<defs>
<font id="bluehost_sans100" horiz-adv-x="1080" >
<font-face units-per-em="2048" ascent="1638" descent="-410" />
<missing-glyph horiz-adv-x="614" />
<glyph horiz-adv-x="0" />
<glyph horiz-adv-x="682" />
<glyph unicode=" "  horiz-adv-x="614" />
<glyph unicode="&#x09;" horiz-adv-x="614" />
<glyph unicode="&#xa0;" horiz-adv-x="614" />
<glyph unicode="!" horiz-adv-x="416" d="M170 1v118h74v-118h-74zM193 1388h39l-1 -1168h-36z" />
<glyph unicode="&#x22;" horiz-adv-x="180" d="M20 1290v95h43v-94l-9 -192h-23zM150 1290v95h43v-94l-9 -192h-23z" />
<glyph unicode="#" horiz-adv-x="1294" d="M75 373v40h253l99 441h-300v41h309l81 372h39l-81 -372h428l80 372h42l-83 -372h277v-41h-286l-98 -441h332v-40h-341l-81 -373h-41l83 373h-428l-80 -373h-41l82 373h-245zM368 413h427l99 441h-428z" />
<glyph unicode="$" horiz-adv-x="1111" d="M98 215l32 24q65 -88 166 -150t230 -72l9 716q-34 10 -62 19.5t-71.5 28t-77 38.5t-69 50t-57.5 63.5t-33.5 78.5t-5.5 95q16 127 122 213.5t261 93.5l2 157h40l-2 -157q216 -7 367 -163l-30 -28q-58 61 -143 104.5t-194 46.5l-7 -611q51 -15 90 -28.5t90 -36t87 -46 t73 -58t58.5 -73.5t32 -91t4.5 -111q-8 -71 -36.5 -129t-71 -97.5t-97.5 -66.5t-115 -39t-124 -11l-2 -178h-40l2 180q-138 10 -248.5 77t-179.5 161zM199 1107q-6 -50 6 -93.5t40 -76t60 -58.5t76.5 -46.5t78 -33t75.5 -25.5l7 599q-135 -7 -231.5 -78.5t-111.5 -187.5z M566 15q54 0 106 9t103 31.5t90.5 56.5t67.5 86.5t36 118.5q6 54 -3.5 101.5t-29.5 83t-54 67t-67.5 53t-79.5 42t-81 32.5t-80 25z" />
<glyph unicode="%" horiz-adv-x="1433" d="M68 1086q0 127 93.5 216.5t225.5 89.5q131 0 224 -89t93 -217q0 -126 -93.5 -217t-223.5 -91t-224.5 90t-94.5 218zM109 1086q0 -110 81.5 -188.5t196.5 -78.5q116 0 196.5 79t80.5 188q0 108 -81.5 186.5t-195.5 78.5q-113 0 -195.5 -77.5t-82.5 -187.5zM121 0 l1130 1386h52l-1128 -1386h-54zM726 303q0 127 93.5 217t224.5 90t226 -90.5t95 -216.5q0 -123 -95 -214.5t-226 -91.5q-130 0 -224 89.5t-94 216.5zM767 303q0 -108 80.5 -187t196.5 -79q117 0 197.5 77.5t80.5 188.5t-81 190.5t-197 79.5q-115 0 -196 -80.5t-81 -189.5z " />
<glyph unicode="&#x26;" horiz-adv-x="1380" d="M151 337q0 64 29 127t73.5 111t104.5 92.5t113 74.5t108 54q-112 107 -161 181t-48 152q1 113 88.5 190.5t219.5 77.5q133 0 214 -79.5t81 -189.5q0 -97 -77.5 -180t-248.5 -168l465 -506q59 71 115 179t77 193l36 -13q-19 -82 -78 -198.5t-122 -191.5l218 -243h-51 l-194 213q-232 -242 -506 -242q-200 0 -328 110t-128 256zM191 334q0 -92 57.5 -167t152.5 -115.5t205 -40.5q254 0 480 233l-481 522q-214 -98 -314 -203.5t-100 -228.5zM410 1129q0 -72 51 -147t160 -171q161 79 236 152.5t76 163.5q1 93 -68.5 161.5t-188.5 68.5 q-117 0 -191.5 -66.5t-74.5 -161.5z" />
<glyph unicode="'" horiz-adv-x="157" d="M57 1281v95h43v-94l-9 -192h-23z" />
<glyph unicode="(" horiz-adv-x="543" d="M102 478q0 126 26 249.5t65 219.5t94.5 189.5t103 156t101.5 121.5h49q-399 -444 -399 -938q0 -124 26 -242.5t63.5 -207t94 -176.5t102.5 -143t103 -116h-50q-379 397 -379 887z" />
<glyph unicode=")" horiz-adv-x="542" d="M-22 1414h49q54 -59 101.5 -121.5t103 -156t94.5 -189.5t65 -219.5t26 -249.5q0 -490 -379 -887h-50q57 61 103 116t102.5 143t94 176.5t63.5 207t26 242.5q0 494 -399 938z" />
<glyph unicode="*" horiz-adv-x="385" d="M36 1255l9 27l131 -44l4 148h29l1 -148l130 44l10 -26l-134 -46l84 -120l-23 -19l-84 122l-86 -122l-24 19l89 120z" />
<glyph unicode="+" horiz-adv-x="1470" d="M177 699h538v-517h40v517h538v40h-538v516h-40v-516h-538v-40z" />
<glyph unicode="," horiz-adv-x="215" d="M57 -150q25 7 41.5 46.5t16.5 103.5h-40v131h83v-129q0 -72 -31.5 -126.5t-69.5 -58.5v33z" />
<glyph unicode="-" horiz-adv-x="742" d="M57 559v40h628v-40h-628z" />
<glyph unicode="." horiz-adv-x="196" d="M57 1v130h82v-130h-82z" />
<glyph unicode="/" horiz-adv-x="903" d="M49 -23l785 1428h45l-784 -1428h-46z" />
<glyph unicode="0" horiz-adv-x="1352" d="M169 695q0 324 143 514.5t363 190.5q106 0 198.5 -48t161.5 -136t108.5 -221.5t39.5 -296.5q0 -165 -40.5 -302.5t-110 -228.5t-163 -141.5t-198.5 -50.5t-197 50.5t-159.5 142t-106.5 228t-39 299.5zM210 694q0 -154 36.5 -282.5t99.5 -215t147.5 -134t181.5 -47.5 q132 0 238.5 85t167.5 241t61 356q0 300 -132 481.5t-335 181.5t-334 -181t-131 -485z" />
<glyph unicode="1" horiz-adv-x="527" d="M138 1262l146 124h34v-1386h-40v1328l-117 -96z" />
<glyph unicode="2" horiz-adv-x="1009" d="M117 0l1 43l591 724q126 155 126 307q0 131 -86.5 211t-210.5 80q-112 0 -201 -65t-129 -169l-36 17q43 115 143.5 186t225.5 71q141 0 237.5 -90t96.5 -239q0 -163 -141 -341l-568 -695h725v-40h-774z" />
<glyph unicode="3" horiz-adv-x="1100" d="M133 197l30 26q59 -89 158.5 -144.5t223.5 -55.5q103 0 190 39.5t142.5 119.5t55.5 186q0 82 -36.5 151.5t-94.5 114t-127.5 69t-139.5 24.5h-138v40h141q136 0 241 87.5t105 221.5q0 131 -94.5 211.5t-233.5 80.5q-93 0 -172.5 -36t-134.5 -98l-30 26q62 65 151 106 t192 41q156 0 259 -93t103 -238q0 -135 -87 -222.5t-209 -104.5q60 -5 119.5 -33.5t110.5 -75t83 -118t32 -154.5q0 -114 -61 -203t-158 -134.5t-211 -45.5q-130 0 -236.5 59.5t-173.5 152.5z" />
<glyph unicode="4" horiz-adv-x="1153" d="M116 339v39l663 1008h32v-1007h191v-40h-191v-339h-40v339h-655zM164 379h607v921z" />
<glyph unicode="5" horiz-adv-x="1145" d="M158 130l23 33q174 -127 367 -127q97 0 177 33.5t131.5 90t80 129.5t28.5 152q0 171 -112 280t-303 113q-164 4 -315 -79v631h670v-40h-630v-533q141 64 279 61q205 -4 328 -126t123 -307q0 -86 -31 -165t-87.5 -142t-144.5 -100.5t-195 -37.5q-203 0 -389 134z" />
<glyph unicode="6" horiz-adv-x="1158" d="M170 418q-4 86 10 176.5t45.5 183t86 180.5t126.5 165.5t171.5 141t216.5 103.5l16 -36q-152 -53 -271 -144t-193 -202.5t-115.5 -229.5t-52.5 -241q46 107 159.5 181t250.5 74q175 0 290 -111.5t115 -282.5q0 -113 -51 -208.5t-150 -154t-226 -58.5q-186 0 -302 122 t-126 341zM221 358q0 -150 110 -256.5t272 -106.5q165 0 273.5 112.5t108.5 270.5q0 154 -103.5 253t-260.5 99q-167 0 -283.5 -108.5t-116.5 -263.5z" />
<glyph unicode="7" horiz-adv-x="977" d="M101 1346l1 40h778v-38l-589 -1348h-44l592 1346h-738z" />
<glyph unicode="8" horiz-adv-x="1180" d="M159 379q0 88 33.5 159.5t87 115t104 68.5t101.5 38q-44 10 -87 34t-80.5 61t-60.5 91t-23 116t22.5 120.5t65.5 107t112.5 77.5t155.5 29q164 0 259 -97t95 -234q0 -123 -75.5 -202.5t-171.5 -99.5q37 -10 76.5 -28t85 -51.5t80.5 -75t58.5 -102t23.5 -129.5 q0 -168 -123.5 -277t-307.5 -109q-116 0 -213 44.5t-157.5 134.5t-60.5 209zM199 375q0 -82 33.5 -149t89.5 -109t125 -64t143 -22q160 0 275 95.5t115 247.5q0 107 -61.5 192.5t-150 128t-179.5 42.5q-68 0 -135.5 -24t-125 -68t-93.5 -114.5t-36 -155.5zM274 1062 q0 -126 93 -201.5t222 -75.5q130 0 222.5 75.5t92.5 202.5q0 76 -33.5 141t-106 108.5t-172.5 43.5q-149 0 -233.5 -87t-84.5 -207z" />
<glyph unicode="9" horiz-adv-x="1124" d="M133 1009q1 163 119.5 276t296.5 112q85 -1 159.5 -31.5t131 -86.5t88 -144t27.5 -195q-2 -243 -174 -491.5t-460 -448.5l-23 33q241 165 402 374.5t206 410.5q-48 -102 -145 -157t-212 -56q-87 0 -165 32.5t-132.5 87.5t-86.5 129t-32 155zM173 1010 q-2 -148 106.5 -256.5t271.5 -108.5q148 0 254 92t108 248q2 160 -103.5 266t-266.5 106q-157 0 -262.5 -100.5t-107.5 -246.5z" />
<glyph unicode=":" horiz-adv-x="178" d="M57 1v130h82v-130h-82zM57 787v130h82v-130h-82z" />
<glyph unicode=";" horiz-adv-x="204" d="M57 -150q25 7 41.5 46.5t16.5 103.5h-40v131h83v-129q0 -72 -31.5 -126.5t-69.5 -58.5v33zM66 782v130h82v-130h-82z" />
<glyph unicode="&#x3c;" horiz-adv-x="1384" d="M90 703v28l1063 429v-50l-989 -393l989 -393v-51z" />
<glyph unicode="=" horiz-adv-x="1268" d="M177 468h914v40h-914v-40zM177 782h914v40h-914v-40z" />
<glyph unicode="&#x3e;" horiz-adv-x="1471" d="M177 273v51l989 393l-989 393v50l1063 -429v-28z" />
<glyph unicode="?" horiz-adv-x="778" d="M8 1114q34 121 133.5 201.5t225.5 84.5q143 5 249.5 -89t106.5 -238q0 -61 -22 -113.5t-57.5 -93t-78.5 -79.5t-86 -82.5t-79 -92t-59 -117.5t-24 -150l-1 -87h-40l1 87q1 85 24 157.5t59 123t79 95t86 83.5t78.5 77.5t57.5 87.5t22 104q0 121 -90.5 206t-223.5 81 q-120 -4 -207.5 -79t-114.5 -183zM259 1v120h75v-120h-75z" />
<glyph unicode="@" horiz-adv-x="2110" d="M195 403q0 190 70.5 361t194 296t300.5 198.5t379 73.5q181 0 333 -59t250.5 -158t152.5 -226t54 -266q0 -162 -69.5 -310.5t-175.5 -235.5t-213 -87q-93 0 -152 64.5t-52 137.5q-121 -207 -298 -207q-73 0 -130 34.5t-90.5 92t-50.5 131t-14 154t24 157.5 q46 170 159 266.5t244 96.5q99 0 166 -53t95 -129l28 138h42l-128 -583q-21 -118 19.5 -189t134.5 -71q105 0 203 85t158 223t60 285q0 103 -31 200.5t-94.5 182.5t-152 148.5t-211.5 100t-266 35.5q-157 -1 -297.5 -46t-249.5 -126.5t-188.5 -190.5t-121.5 -242.5 t-42 -278.5q0 -154 48.5 -284.5t132 -221.5t196 -155t239 -94.5t262.5 -30.5q118 0 228.5 23t195 62t145 77t109.5 81l26 -32q-51 -42 -110.5 -80t-148.5 -79.5t-204.5 -66.5t-239.5 -25q-140 0 -272.5 32t-250 99t-205.5 162.5t-139.5 232t-51.5 297.5zM724 359.5 q5 -91.5 31 -166t83 -121.5t134 -47q48 0 92 19t81 54t64.5 72t57.5 86l91 427q-36 93 -97.5 145t-149.5 51q-118 0 -220.5 -91.5t-144.5 -247.5q-27 -89 -22 -180.5z" />
<glyph unicode="A" horiz-adv-x="1322" d="M40 0l602 1395h38l602 -1395h-44l-206 478h-742l-206 -478h-44zM307 518h708l-354 823z" />
<glyph unicode="B" horiz-adv-x="1225" d="M209 0v1386h331q111 0 197 -28t135.5 -75.5t74.5 -104.5t25 -121q0 -92 -50 -163t-121 -107t-151 -44q199 -7 315.5 -107t116.5 -262q0 -165 -119 -269.5t-323 -104.5h-431zM249 40h391q177 0 289.5 93t112.5 240q0 157 -125 249.5t-335 92.5h-333v-675zM249 755h226 q222 0 339.5 85t117.5 217q0 55 -21.5 104.5t-66 92t-122 67.5t-178.5 25h-295v-591z" />
<glyph unicode="C" horiz-adv-x="1442" d="M119 691q0 128 40 242t111 200.5t164.5 150t204 96t225.5 32.5q150 0 278.5 -51.5t220.5 -130.5l-24 -30q-208 172 -472 172h-3q-139 -1 -267 -51t-225 -137t-155 -215.5t-58 -277.5q0 -194 94.5 -349t253 -239.5t349.5 -84.5q145 0 274 49.5t227 128.5l25 -30 q-105 -87 -241.5 -138.5t-283.5 -51.5q-202 0 -370.5 90.5t-268 255.5t-99.5 369z" />
<glyph unicode="D" horiz-adv-x="1323" d="M209 0v1386h191q384 0 594 -178t210 -505q0 -329 -210.5 -516t-577.5 -187h-207zM248 40h167q115 0 220.5 21.5t203.5 72t169.5 125.5t114 189t42.5 256q0 137 -40.5 246.5t-110 182.5t-167.5 121.5t-208 70t-236 21.5h-155v-1306z" />
<glyph unicode="E" horiz-adv-x="1115" d="M209 0v1386h806v-37h-766v-616h629v-37h-629v-659h766v-37h-806z" />
<glyph unicode="F" horiz-adv-x="1108" d="M209 0v1386h777v-40h-737v-620h669v-41h-669v-685h-40z" />
<glyph unicode="G" horiz-adv-x="1509" d="M119 698q0 204 100 368.5t266.5 254t364.5 89.5q284 0 497 -177l-23 -33q-83 72 -203.5 121t-269.5 49q-192 0 -350 -85.5t-250 -240t-92 -346.5q0 -196 97 -353t259.5 -242.5t357.5 -85.5q132 0 258 45t207 107v472h-493v40h533v-538q-232 -166 -505 -166 q-208 0 -380.5 92.5t-273 258.5t-100.5 370z" />
<glyph unicode="H" horiz-adv-x="1384" d="M209 0v1386h40v-671h886v671h40v-1386h-40v675h-886v-675h-40z" />
<glyph unicode="I" horiz-adv-x="457" d="M209 0v1386h39v-1386h-39z" />
<glyph unicode="J" horiz-adv-x="463" d="M-25 -262q117 2 178 85t61 226v1337h40v-1344q0 -158 -73 -249.5t-206 -94.5v40z" />
<glyph unicode="K" horiz-adv-x="1075" d="M209 0v1386h39v-627h2l4 -5l-4 -4l-2 6v-756h-39zM254 754l590 632h52l-589 -629l700 -757h-53z" />
<glyph unicode="L" horiz-adv-x="1039" d="M209 0v1386h40v-1346h800v-40h-840z" />
<glyph unicode="M" horiz-adv-x="1744" d="M209 0v1386h45l619 -925l622 925h40v-1386h-40v1313l-623 -924l-623 924v-1313h-40z" />
<glyph unicode="N" horiz-adv-x="1486" d="M209 0v1386h39l989 -1314v1314h40v-1386h-35l-993 1318v-1318h-40z" />
<glyph unicode="O" horiz-adv-x="1639" d="M119 693q0 156 56 291.5t150 228.5t221 146.5t266 53.5q140 0 269 -53t226 -146t155 -229t58 -292q0 -205 -93.5 -371t-255.5 -258.5t-359 -92.5q-196 0 -355.5 96t-248.5 261t-89 365zM160 693q0 -187 83.5 -342.5t234 -246.5t336.5 -91q187 0 339 88t238.5 243.5 t86.5 348.5q0 148 -54.5 276.5t-146.5 215.5t-212.5 136.5t-250.5 49.5q-178 0 -327.5 -86t-238 -242t-88.5 -350z" />
<glyph unicode="P" d="M209 0v1386h276q135 0 235 -32.5t157.5 -89.5t85 -127t27.5 -153q0 -85 -27.5 -156t-85.5 -129t-158 -91t-234 -33h-236v-575h-40zM249 615h237q100 0 179 19.5t132 53t88 81t50 100.5t15 115q0 75 -24.5 137.5t-76.5 114.5t-144.5 81t-218.5 29h-237v-731z" />
<glyph unicode="Q" horiz-adv-x="1639" d="M119 693q0 156 56 291.5t150 228.5t221 146.5t266 53.5q140 0 269 -53t226 -146t155 -229t58 -292q0 -205 -93.5 -371t-255.5 -258.5t-359 -92.5l-36 1q154 -118 522 -118l1 -40h-5q-419 0 -587 165q-170 25 -304.5 124.5t-209 253.5t-74.5 336zM160 693 q0 -187 83.5 -342.5t234 -246.5t336.5 -91q187 0 339 88t238.5 243.5t86.5 348.5q0 148 -54.5 276.5t-146.5 215.5t-212.5 136.5t-250.5 49.5q-178 0 -327.5 -86t-238 -242t-88.5 -350z" />
<glyph unicode="R" horiz-adv-x="1135" d="M209 0v1386h316q226 0 345.5 -105.5t119.5 -266.5q0 -141 -88.5 -242t-258.5 -128l432 -644h-49l-426 638q-35 -3 -74 -3h-277v-635h-40zM249 675h278q205 0 314 95t109 244q0 144 -108 238t-316 94h-277v-671z" />
<glyph unicode="S" horiz-adv-x="1111" d="M98 215l32 24q70 -94 180.5 -157.5t250.5 -66.5h8q65 1 126 15q65 16 124.5 49t99.5 94.5t50 143.5q3 22 3 42q0 35 -8 65q-12 50 -32.5 85.5t-58.5 68t-72 53t-85.5 41.5t-84 31.5t-82.5 25.5q-36 11 -60.5 18.5t-72 26.5t-80.5 38t-72.5 50t-61.5 65q-23 35 -36 81 q-9 32 -9 66q0 16 2 32q17 136 135 224q112 84 270 83h18q216 -7 367 -163l-30 -28q-58 61 -143 104.5t-194 46.5h-17q-86 1 -162 -27q-83 -30 -138.5 -93t-65.5 -146q-2 -16 -2 -31q-1 -29 7 -56q12 -41 32 -71t55 -58t65 -45t74.5 -35t70 -26.5t64.5 -19.5 q53 -16 91.5 -29t91 -35.5t89 -46t75 -58t60.5 -73.5t34 -92q7 -33 7 -69q0 -22 -3 -44q-13 -117 -81.5 -197t-162.5 -114q-89 -32 -192 -32h-12q-150 3 -270 71.5t-194 168.5z" />
<glyph unicode="T" horiz-adv-x="1214" d="M65 1346v40h1084v-40h-522v-1346h-40v1346h-522z" />
<glyph unicode="U" horiz-adv-x="1421" d="M168 532v854h40v-853q0 -121 43.5 -219.5t116.5 -160t163 -94.5t187 -33q98 0 186.5 33t157.5 94.5t110 159t41 217.5v856h40v-854q0 -130 -44.5 -235.5t-119.5 -172.5t-170.5 -102.5t-200.5 -35.5t-202.5 35.5t-175.5 102t-125 172.5t-47 236z" />
<glyph unicode="V" horiz-adv-x="1252" d="M9 1386h44l562 -1323l584 1323h44l-616 -1390h-26z" />
<glyph unicode="W" horiz-adv-x="1834" d="M9 1386h43l396 -1324l452 1325h35l454 -1325l393 1324h43l-415 -1386h-44l-449 1321l-449 -1321h-44z" />
<glyph unicode="X" horiz-adv-x="1177" d="M32 0l530 718l-492 668h47l470 -634l468 634h47l-490 -664l533 -722h-48l-510 688l-507 -688h-48z" />
<glyph unicode="Y" horiz-adv-x="1097" d="M32 1386h47l471 -734l469 734h47l-495 -777v-609h-40v606z" />
<glyph unicode="Z" horiz-adv-x="1168" d="M109 0v41l892 1305h-861v40h911v-39l-894 -1307h902l-1 -40h-949z" />
<glyph unicode="[" horiz-adv-x="556" d="M209 -78v1483h234v-40h-194v-1403h194v-40h-234z" />
<glyph unicode="\" horiz-adv-x="988" d="M69 1399h47l777 -1413h-45z" />
<glyph unicode="]" horiz-adv-x="556" d="M113 -38h194v1403h-194v40h234v-1483h-234v40z" />
<glyph unicode="_" horiz-adv-x="914" d="M29 0h855v-40h-855v40z" />
<glyph unicode="`" horiz-adv-x="967" d="M431 1848h74l123 -192h-40z" />
<glyph unicode="a" horiz-adv-x="915" d="M97 245q0 63 26.5 111.5t75 79.5t100 49.5t118.5 31.5q27 5 67 12t64 11t54.5 11.5t50.5 16.5t39.5 24t33.5 35v27q0 101 -74.5 160t-182.5 60h-3q-131 0 -255 -87l-21 35q140 92 278 92q124 0 211 -68.5t87 -187.5v-658h-36l-2 175q-62 -82 -150 -136.5t-185 -54.5 q-127 0 -211.5 72.5t-84.5 188.5zM139 247q0 -97 70.5 -160t183.5 -63q91 0 179 55t154 145v351q-17 -19 -40.5 -32.5t-57.5 -23.5t-58 -15t-72 -13.5t-71 -12.5q-62 -12 -108.5 -27.5t-90 -42t-66.5 -67t-23 -94.5z" />
<glyph unicode="b" horiz-adv-x="1064" d="M167 77v1348h40v-670q68 70 160 115t197 45q77 0 146.5 -27t128 -80t93.5 -144.5t35 -208.5q0 -119 -37 -211.5t-101.5 -149t-146.5 -85.5t-177 -29q-178 0 -338 97zM207 100q150 -80 299 -80q83 0 156.5 25t134 75t95.5 135.5t35 196.5q0 91 -21.5 164.5t-57 120.5 t-83 79t-97.5 45.5t-103 13.5q-99 0 -191.5 -46.5t-166.5 -131.5v-597z" />
<glyph unicode="c" horiz-adv-x="923" d="M87 450q0 200 135.5 332t342.5 132q152 0 288 -95l-21 -34q-125 89 -267 89q-189 0 -313.5 -120t-124.5 -305q0 -183 121 -302t310 -119q92 0 175.5 37.5t136.5 92.5l26 -31q-58 -57 -146.5 -98t-193.5 -41q-210 0 -339.5 133t-129.5 329z" />
<glyph unicode="d" horiz-adv-x="1065" d="M97 445q0 105 36 194.5t96 149t139 92.5t165 33q98 0 181.5 -40t143.5 -102v653h40v-1341q-156 -105 -336 -105q-199 0 -332 127t-133 339zM137 445q0 -196 123.5 -311t301.5 -115q158 0 296 85v611q-59 75 -145 117t-180 42q-78 0 -148.5 -29t-126 -82.5t-88.5 -136 t-33 -181.5z" />
<glyph unicode="e" horiz-adv-x="1021" d="M87 453q0 108 36.5 197.5t97.5 146t139 87t163 30.5q62 0 121.5 -15.5t115.5 -52t96 -89.5t62 -135q16 -60 16 -129q0 -26 -2 -53l-804 1q5 -184 118 -298.5t297 -116.5h6q193 0 330 120l24 -33q-151 -127 -353 -127h-9q-206 2 -330 132t-124 335zM130 481l761 -1 q1 16 1 31q0 73 -24 136q-29 76 -82.5 125t-122.5 75.5t-145 26.5q-72 0 -137 -24.5t-118.5 -71.5t-89 -123.5t-43.5 -173.5z" />
<glyph unicode="f" horiz-adv-x="507" d="M77 860v40h120v189q0 71 22.5 126t60 86t79.5 46.5t87 15.5q64 0 132 -36l-18 -36q-57 32 -115 32q-37 0 -72 -12.5t-66.5 -38t-50.5 -72.5t-19 -109v-191h183v-40h-183v-860h-40v860h-120z" />
<glyph unicode="g" horiz-adv-x="880" d="M41 -218q0 55 22 101t55 74t75 48t77 29t67 12q-71 13 -119.5 50t-48.5 96q0 61 53.5 102.5t130.5 48.5q-99 10 -174 79.5t-75 189.5q0 135 98.5 211.5t268.5 76.5h333v-40l-221 -1q78 -29 130.5 -94.5t52.5 -161.5q0 -57 -21.5 -103t-55.5 -75t-81 -49.5t-93 -30 t-97 -13.5q-94 -6 -151 -43q-56 -36 -56 -96q0 -23 12 -45q11 -19 25 -31.5t40 -22t42.5 -14.5t46 -9t38 -4.5t31.5 -2.5q88 -5 157.5 -18.5t135.5 -40.5t102.5 -76t36.5 -117q0 -130 -124 -210.5t-320 -80.5q-179 0 -286 69.5t-107 191.5zM83 -219q0 -104 93.5 -162 t257.5 -58q181 0 291.5 69t110.5 177q0 58 -33.5 100.5t-91 66.5t-121.5 36t-139 14q-159 0 -263.5 -63.5t-104.5 -179.5zM143 612q0 -111 80.5 -176.5t199.5 -65.5q55 0 107.5 14.5t96.5 43t71 76t27 107.5q0 104 -77 176.5t-209 72.5q-127 0 -211.5 -67.5t-84.5 -180.5z " />
<glyph unicode="h" horiz-adv-x="1061" d="M167 0v1425h40v-726q40 57 88 101.5t121.5 79t152.5 34.5q85 0 161.5 -35.5t129 -112.5t52.5 -181v-585h-40v580q0 73 -28.5 131.5t-74.5 93t-98 52t-105 17.5q-105 0 -197.5 -66.5t-161.5 -170.5v-637h-40z" />
<glyph unicode="i" horiz-adv-x="381" d="M162 1096v59h57v-59h-57zM168 0v900h40v-900h-40z" />
<glyph unicode="j" horiz-adv-x="401" d="M-47 -312q117 2 178.5 85t61.5 226v901h40v-908q0 -157 -73.5 -249t-206.5 -95v40zM182 1096v59h57v-59h-57z" />
<glyph unicode="k" horiz-adv-x="862" d="M167 0v1405h40v-871l450 366h67l-460 -372l562 -528h-67l-552 525v-525h-40z" />
<glyph unicode="l" horiz-adv-x="374" d="M167 0v1425h40v-1425h-40z" />
<glyph unicode="m" horiz-adv-x="1664" d="M162 0v900h40v-206q56 97 147 158.5t202 61.5q110 0 195.5 -63t106.5 -149q55 93 148 152.5t204 59.5q132 0 221 -83t89 -196v-635h-40v634q0 99 -77 169.5t-192 70.5q-210 0 -348 -225v-649h-40v638q-1 106 -81.5 171t-184.5 65t-196 -65t-154 -175v-634h-40z" />
<glyph unicode="n" horiz-adv-x="1023" d="M162 0v900h40v-213q49 101 144 164t208 63q135 0 227.5 -85.5t92.5 -233.5v-595h-40v594q0 134 -82.5 207t-199.5 73q-109 0 -204 -67.5t-146 -175.5v-631h-40z" />
<glyph unicode="o" d="M87 454q0 203 128.5 334t325.5 131q194 0 323 -130t129 -336q0 -204 -125.5 -337.5t-326.5 -133.5q-135 0 -239.5 63.5t-159.5 170.5t-55 238zM127 452q0 -184 114 -307t299 -123t299 122.5t114 307.5q0 188 -117 308q-115 119 -291 119h-6q-177 -2 -294.5 -121.5 t-117.5 -305.5z" />
<glyph unicode="p" horiz-adv-x="1062" d="M162 -486v1299q175 107 344 107q92 0 175 -31t146.5 -87.5t100.5 -144t37 -193.5q0 -140 -63 -251t-165.5 -169.5t-222.5 -58.5q-85 0 -170 36t-142 93v-600h-40zM202 165q60 -63 146 -101.5t170 -38.5q80 0 152.5 29.5t129.5 83.5t91 139t34 187q0 108 -37.5 191.5 t-100 130.5t-134 70.5t-149.5 23.5q-158 0 -302 -89v-626z" />
<glyph unicode="q" horiz-adv-x="1065" d="M97 455q0 212 133 339t332 127q180 0 336 -105v-1341h-40v653q-60 -62 -143.5 -102t-181.5 -40q-86 0 -165 33t-139 92.5t-96 149t-36 194.5zM137 455q0 -99 33 -181.5t88.5 -136t126 -82.5t148.5 -29q94 0 180 42t145 117v611q-138 85 -296 85q-178 0 -301.5 -115 t-123.5 -311z" />
<glyph unicode="r" horiz-adv-x="683" d="M162 0v900h40l-1 -231q65 122 156 184t195 62q47 0 97 -12v-42q-50 14 -99 14q-202 0 -348 -267v-608h-40z" />
<glyph unicode="s" horiz-adv-x="845" d="M93 119l27 30q58 -58 137 -91t166 -33q124 0 203.5 59.5t79.5 147.5q0 159 -305 234q-65 16 -112 34.5t-85 45.5q-39 28 -58 64q-18 35 -18 78q0 104 94 166q92 60 209 60q157 0 270 -103l-25 -30q-44 42 -108.5 67.5t-135.5 25.5q-105 0 -182.5 -50.5t-81.5 -128.5v-8 q0 -68 66 -112q70 -47 206 -80q145 -35 225.5 -101t80.5 -161q0 -104 -91 -176t-233 -72q-98 0 -184 37t-145 97z" />
<glyph unicode="t" horiz-adv-x="692" d="M41 861v39h181v313h40v-313h362l-1 -39h-361v-581q0 -124 66.5 -188t158.5 -68h12q86 0 159 53l24 -34q-89 -59 -187 -59h-9q-109 3 -186.5 77.5t-77.5 217.5v582h-181z" />
<glyph unicode="u" horiz-adv-x="988" d="M120 290v610l40 -1v-608q0 -125 77 -195t185 -70q113 0 212 73.5t163 173.5v627h40v-900h-40v217q-60 -94 -158.5 -162.5t-219.5 -68.5q-57 0 -109 17.5t-95.5 52.5t-69 95.5t-25.5 138.5z" />
<glyph unicode="v" horiz-adv-x="965" d="M37 900h46l394 -850l405 850h46l-430 -900h-44z" />
<glyph unicode="w" horiz-adv-x="1516" d="M37 900h47l325 -851l328 851h47l325 -854l323 854h47l-346 -900h-52l-322 852l-325 -852h-51z" />
<glyph unicode="x" horiz-adv-x="870" d="M31 0l381 481l-321 419h50l297 -386l306 386h51l-329 -415l373 -485h-51l-347 452l-358 -452h-52z" />
<glyph unicode="y" horiz-adv-x="924" d="M56 900h44l354 -817l380 817h44l-511 -1100q-50 -106 -123 -154q-68 -46 -167 -46h-12l1 40h4q95 0 154 42q61 42 110 143l98 207z" />
<glyph unicode="z" horiz-adv-x="937" d="M109 0v36l664 824h-636v40h683v-41l-662 -819h670v-40h-719z" />
<glyph unicode="{" horiz-adv-x="671" d="M75 449v45q134 34 186 124t52 261v131q2 114 21.5 188.5t58.5 113.5t86.5 53.5t118.5 14.5h12v-42q-67 0 -111 -13t-78.5 -48.5t-50 -101t-16.5 -166.5v-130q0 -362 -233 -407q233 -47 233 -408v-130q1 -101 16.5 -166.5t50 -101t78.5 -48.5t111 -13v-42h-12 q-71 0 -118.5 14.5t-86.5 53.5t-58.5 113.5t-21.5 188.5v131q0 171 -52 261t-186 124z" />
<glyph unicode="|" horiz-adv-x="600" />
<glyph unicode="}" horiz-adv-x="674" d="M39 -395q67 0 111 13t78.5 48.5t50 101t16.5 166.5v130q0 361 233 408q-233 45 -233 407v130q-1 101 -16.5 166.5t-50 101t-78.5 48.5t-111 13v42h12q71 0 118.5 -14.5t86.5 -53.5t58.5 -113.5t21.5 -188.5v-131q0 -171 52 -261t186 -124v-45q-134 -34 -186 -124 t-52 -261v-131q-2 -114 -21.5 -188.5t-58.5 -113.5t-86.5 -53.5t-118.5 -14.5h-12v42z" />
<glyph unicode="&#xa1;" horiz-adv-x="416" d="M170 865v118h74v-118h-74zM182 -404l1 1168h36l2 -1168h-39z" />
<glyph unicode="&#xa2;" horiz-adv-x="923" d="M87 698q0 189 122 318t312 144l3 226h42l-3 -224h2q152 0 288 -95l-21 -34q-125 89 -267 89h-3l-13 -846h9q92 0 175.5 37.5t136.5 92.5l26 -31q-58 -57 -146.5 -98t-193.5 -41h-7l-4 -236h-41l3 238q-190 16 -305 146.5t-115 313.5zM127 697q0 -170 105.5 -286 t275.5 -133l12 842q-172 -15 -282.5 -132.5t-110.5 -290.5z" />
<glyph unicode="&#xa3;" horiz-adv-x="990" d="M47 663v40h210q95 344 237.5 521t308.5 177q41 0 79 -11l-15 -37q-29 8 -61 8q-151 0 -284.5 -167t-224.5 -491h482v-40h-495l-164 -618q121 23 232 23q98 0 224 -24.5t184 -24.5q94 0 161 30l17 -37q-80 -33 -171 -33q-64 0 -191.5 24.5t-224.5 24.5q-112 0 -288 -35 l183 670h-199z" />
<glyph unicode="&#xa4;" horiz-adv-x="634" />
<glyph unicode="&#xa5;" horiz-adv-x="1052" d="M58 1386h47l471 -734l469 734h47l-469 -736h386v-40h-411l-1 -1v-119h412v-40h-412v-450h-40v450h-412v40h412v116l-3 4h-409v40h384z" />
<glyph unicode="&#xa6;" horiz-adv-x="600" />
<glyph unicode="&#xa7;" horiz-adv-x="600" />
<glyph unicode="&#xa8;" horiz-adv-x="967" d="M450 1681v78h79v-78h-79zM719 1681v78h81v-78h-81z" />
<glyph unicode="&#xa9;" horiz-adv-x="1387" d="M0 693q0 140 55.5 268t148.5 221t221.5 148.5t268.5 55.5t268 -55.5t221 -148.5t148.5 -221t55.5 -268t-55.5 -268.5t-148.5 -221.5t-221 -148.5t-268 -55.5t-268.5 55.5t-221.5 148.5t-148.5 221.5t-55.5 268.5zM40 693q0 -178 87.5 -328.5t238 -238t328.5 -87.5 t328 87.5t237.5 238t87.5 328.5t-87.5 328t-237.5 237.5t-328 87.5t-328.5 -87.5t-238 -237.5t-87.5 -328z" />
<glyph unicode="&#xab;" horiz-adv-x="870" d="M65 498l321 490h48l-321 -490l324 -498h-49zM420 498l321 490h48l-321 -490l324 -498h-49z" />
<glyph unicode="&#xad;" horiz-adv-x="742" d="M57 559v40h628v-40h-628z" />
<glyph unicode="&#xae;" horiz-adv-x="1387" d="M0 693q0 140 55.5 268t148.5 221t221.5 148.5t268.5 55.5t268 -55.5t221 -148.5t148.5 -221t55.5 -268t-55.5 -268.5t-148.5 -221.5t-221 -148.5t-268 -55.5t-268.5 55.5t-221.5 148.5t-148.5 221.5t-55.5 268.5zM40 693q0 -178 87.5 -328.5t238 -238t328.5 -87.5 t328 87.5t237.5 238t87.5 328.5t-87.5 328t-237.5 237.5t-328 87.5t-328.5 -87.5t-238 -237.5t-87.5 -328z" />
<glyph unicode="&#xaf;" horiz-adv-x="1420" d="M182 1558v40h751v-40h-751z" />
<glyph unicode="&#xb0;" horiz-adv-x="600" />
<glyph unicode="&#xb4;" horiz-adv-x="967" d="M572 1656l123 192h74l-157 -192h-40z" />
<glyph unicode="&#xb6;" d="M90 984q0 83 27.5 153t85 127t157.5 89.5t235 32.5h276v-1386h-40v575h-236q-134 0 -234 33t-158 91t-85.5 129t-27.5 156zM130 984q0 -62 15 -115t50 -100.5t88 -81t132 -53t179 -19.5h237v731h-237q-126 0 -218.5 -29t-144.5 -81t-76.5 -114.5t-24.5 -137.5z" />
<glyph unicode="&#xb7;" horiz-adv-x="825" d="M83 620v130h82v-130h-82z" />
<glyph unicode="&#xb8;" horiz-adv-x="772" d="M781 -291q221 5 221 95q0 83 -167 88l63 123h41l-45 -92q68 -5 108.5 -35t40.5 -84q0 -69 -69.5 -102t-192.5 -33v40z" />
<glyph unicode="&#xbb;" horiz-adv-x="870" d="M75 0l324 498l-321 490h48l321 -490l-323 -498h-49zM430 0l324 498l-321 490h48l321 -490l-323 -498h-49z" />
<glyph unicode="&#xbc;" horiz-adv-x="1251" d="M36 1311l85 74h31v-722h-40v661l-52 -43zM82 -23l785 1428h45l-784 -1428h-46zM692 167v33l348 522l33 1v-516h100v-40h-100v-167h-40v167h-341zM744 207h289v428z" />
<glyph unicode="&#xbd;" horiz-adv-x="1236" d="M36 1311l85 74h31v-722h-40v661l-52 -43zM82 -23l785 1428h45l-784 -1428h-46zM744 0l2 35l314 365q62 74 62 153q0 66 -44.5 104.5t-104.5 38.5q-55 0 -95.5 -31t-60.5 -84l-36 16q23 63 74 101t119 38q76 0 132 -48t56 -133q0 -92 -76 -184l-286 -330h366v-41h-422z " />
<glyph unicode="&#xbe;" horiz-adv-x="1555" d="M47 729l23 32q81 -76 193 -76q81 0 135.5 44.5t54.5 120.5q0 81 -61.5 132t-137.5 50h-77v40h79q66 0 118 42.5t52 109.5q0 63 -47.5 102t-117.5 39q-83 0 -147 -57l-25 31q81 66 177 66q84 0 142 -52t59 -130q1 -59 -33.5 -103t-99.5 -65q76 -27 117.5 -80t40.5 -125 q-1 -93 -68.5 -149t-161.5 -56q-122 0 -215 84zM386 -23l785 1428h45l-784 -1428h-46zM996 167v33l348 522l33 1v-516h100v-40h-100v-167h-40v167h-341zM1048 207h289v428z" />
<glyph unicode="&#xbf;" horiz-adv-x="778" d="M45 3q0 61 22 113.5t57.5 93t78.5 79.5t86 82.5t79 92t59 117.5t24 150l1 87h40l-1 -87q-1 -85 -24 -157.5t-59 -123t-79 -95t-86 -83.5t-78.5 -77.5t-57.5 -87.5t-22 -104q0 -121 90.5 -206t223.5 -81q120 4 207.5 79t114.5 183l39 -16q-34 -121 -133.5 -201.5 t-225.5 -84.5q-143 -5 -249.5 89t-106.5 238zM434 955v120h75v-120h-75z" />
<glyph unicode="&#xc0;" horiz-adv-x="1322" d="M40 0l602 1395h38l602 -1395h-44l-206 478h-742l-206 -478h-44zM307 518h708l-354 823zM552 1795h74l123 -192h-40z" />
<glyph unicode="&#xc1;" horiz-adv-x="1322" d="M40 0l602 1395h38l602 -1395h-44l-206 478h-742l-206 -478h-44zM307 518h708l-354 823zM572 1584l123 192h74l-157 -192h-40z" />
<glyph unicode="&#xc2;" horiz-adv-x="1322" d="M40 0l602 1395h38l602 -1395h-44l-206 478h-742l-206 -478h-44zM307 518h708l-354 823zM460 1507l167 256h67l168 -256h-47l-155 219l-154 -219h-46z" />
<glyph unicode="&#xc3;" horiz-adv-x="1322" d="M40 0l602 1395h38l602 -1395h-44l-206 478h-742l-206 -478h-44zM307 518h708l-354 823zM389 1645q35 100 139 100q35 0 73 -15t65 -32.5t61 -32.5t62 -15q75 0 110 87l34 -11q-12 -49 -52 -81.5t-95 -32.5q-52 0 -132.5 47.5t-128.5 47.5q-74 0 -101 -72z" />
<glyph unicode="&#xc4;" horiz-adv-x="1322" d="M40 0l602 1395h38l602 -1395h-44l-206 478h-742l-206 -478h-44zM307 518h708l-354 823zM486 1628v78h79v-78h-79zM755 1628v78h81v-78h-81z" />
<glyph unicode="&#xc5;" horiz-adv-x="1322" d="M40 0l602 1395h38l602 -1395h-44l-206 478h-742l-206 -478h-44zM307 518h708l-354 823zM534 1724q0 51 37 87t90 36t90 -36t37 -87t-37 -87t-90 -36t-90 36t-37 87zM575 1724q0 -35 25 -59t61 -24t61 24t25 59t-25 59t-61 24t-61 -24t-25 -59z" />
<glyph unicode="&#xc6;" horiz-adv-x="1887" d="M40 0l939 1386h808v-37h-766v-616h629v-37h-629v-659h766v-37h-806v696h-425l-472 -696h-44zM580 732h401v592z" />
<glyph unicode="&#xc7;" horiz-adv-x="1442" d="M119 691q0 128 40 242t111 200.5t164.5 150t204 96t225.5 32.5q150 0 278.5 -51.5t220.5 -130.5l-24 -30q-209 173 -475 172q-139 -1 -267 -51t-225 -137t-155 -215.5t-58 -277.5q0 -194 94.5 -349t253 -239.5t349.5 -84.5q145 0 274 49.5t227 128.5l25 -30 q-101 -84 -230.5 -135t-270.5 -55l-26 -53q68 -5 108.5 -35t40.5 -84q0 -69 -69.5 -102t-192.5 -33v40q221 5 221 95q0 83 -167 88l43 84q-148 3 -280.5 58t-229.5 148t-153.5 225.5t-56.5 283.5z" />
<glyph unicode="&#xc8;" horiz-adv-x="1115" d="M209 0v1386h806v-37h-766v-616h629v-37h-629v-659h766v-37h-806zM509 1838h74l123 -192h-40z" />
<glyph unicode="&#xc9;" horiz-adv-x="1115" d="M209 0v1386h806v-37h-766v-616h629v-37h-629v-659h766v-37h-806zM529 1627l123 192h74l-157 -192h-40z" />
<glyph unicode="&#xca;" horiz-adv-x="1115" d="M209 0v1386h806v-37h-766v-616h629v-37h-629v-659h766v-37h-806zM417 1550l167 256h67l168 -256h-47l-155 219l-154 -219h-46z" />
<glyph unicode="&#xcb;" horiz-adv-x="1115" d="M209 0v1386h806v-37h-766v-616h629v-37h-629v-659h766v-37h-806zM443 1671v78h79v-78h-79zM712 1671v78h81v-78h-81z" />
<glyph unicode="&#xcc;" horiz-adv-x="457" d="M120 1848h74l123 -192h-40zM209 0v1386h39v-1386h-39z" />
<glyph unicode="&#xcd;" horiz-adv-x="457" d="M140 1637l123 192h74l-157 -192h-40zM209 0v1386h39v-1386h-39z" />
<glyph unicode="&#xce;" horiz-adv-x="457" d="M28 1560l167 256h67l168 -256h-47l-155 219l-154 -219h-46zM209 0v1386h39v-1386h-39z" />
<glyph unicode="&#xcf;" horiz-adv-x="457" d="M54 1681v78h79v-78h-79zM209 0v1386h39v-1386h-39zM323 1681v78h81v-78h-81z" />
<glyph unicode="&#xd0;" horiz-adv-x="1323" d="M-53 839v40h262v507h191q384 0 594 -178t210 -505q0 -329 -210.5 -516t-577.5 -187h-207v839h-262zM248 40h167q115 0 220.5 21.5t203.5 72t169.5 125.5t114 189t42.5 256q0 137 -40.5 246.5t-110 182.5t-167.5 121.5t-208 70t-236 21.5h-155v-467h327v-40h-327v-799z " />
<glyph unicode="&#xd1;" horiz-adv-x="1486" d="M209 0v1386h39l989 -1314v1314h40v-1386h-35l-993 1318v-1318h-40zM492 1648q35 100 139 100q44 0 91.5 -24t91 -47.5t78.5 -23.5q76 0 110 87l34 -11q-12 -49 -52 -81.5t-95 -32.5q-52 0 -132.5 47.5t-128.5 47.5q-74 0 -101 -72z" />
<glyph unicode="&#xd2;" horiz-adv-x="1639" d="M119 693q0 156 56 291.5t150 228.5t221 146.5t266 53.5q140 0 269 -53t226 -146t155 -229t58 -292q0 -205 -93.5 -371t-255.5 -258.5t-359 -92.5q-196 0 -355.5 96t-248.5 261t-89 365zM160 693q0 -187 83.5 -342.5t234 -246.5t336.5 -91q187 0 339 88t238.5 243.5 t86.5 348.5q0 148 -54.5 276.5t-146.5 215.5t-212.5 136.5t-250.5 49.5q-178 0 -327.5 -86t-238 -242t-88.5 -350zM704 1849h74l123 -192h-40z" />
<glyph unicode="&#xd3;" horiz-adv-x="1639" d="M119 693q0 156 56 291.5t150 228.5t221 146.5t266 53.5q140 0 269 -53t226 -146t155 -229t58 -292q0 -205 -93.5 -371t-255.5 -258.5t-359 -92.5q-196 0 -355.5 96t-248.5 261t-89 365zM160 693q0 -187 83.5 -342.5t234 -246.5t336.5 -91q187 0 339 88t238.5 243.5 t86.5 348.5q0 148 -54.5 276.5t-146.5 215.5t-212.5 136.5t-250.5 49.5q-178 0 -327.5 -86t-238 -242t-88.5 -350zM724 1638l123 192h74l-157 -192h-40z" />
<glyph unicode="&#xd4;" horiz-adv-x="1639" d="M119 693q0 156 56 291.5t150 228.5t221 146.5t266 53.5q140 0 269 -53t226 -146t155 -229t58 -292q0 -205 -93.5 -371t-255.5 -258.5t-359 -92.5q-196 0 -355.5 96t-248.5 261t-89 365zM160 693q0 -187 83.5 -342.5t234 -246.5t336.5 -91q187 0 339 88t238.5 243.5 t86.5 348.5q0 148 -54.5 276.5t-146.5 215.5t-212.5 136.5t-250.5 49.5q-178 0 -327.5 -86t-238 -242t-88.5 -350zM612 1561l167 256h67l168 -256h-47l-155 219l-154 -219h-46z" />
<glyph unicode="&#xd5;" horiz-adv-x="1639" d="M119 693q0 156 56 291.5t150 228.5t221 146.5t266 53.5q140 0 269 -53t226 -146t155 -229t58 -292q0 -205 -93.5 -371t-255.5 -258.5t-359 -92.5q-196 0 -355.5 96t-248.5 261t-89 365zM160 693q0 -187 83.5 -342.5t234 -246.5t336.5 -91q187 0 339 88t238.5 243.5 t86.5 348.5q0 148 -54.5 276.5t-146.5 215.5t-212.5 136.5t-250.5 49.5q-178 0 -327.5 -86t-238 -242t-88.5 -350zM541 1699q35 100 139 100q35 0 73 -15t65 -32.5t61 -32.5t62 -15q75 0 110 87l34 -11q-12 -49 -52 -81.5t-95 -32.5q-52 0 -132.5 47.5t-128.5 47.5 q-74 0 -101 -72z" />
<glyph unicode="&#xd6;" horiz-adv-x="1639" d="M119 693q0 156 56 291.5t150 228.5t221 146.5t266 53.5q140 0 269 -53t226 -146t155 -229t58 -292q0 -205 -93.5 -371t-255.5 -258.5t-359 -92.5q-196 0 -355.5 96t-248.5 261t-89 365zM160 693q0 -187 83.5 -342.5t234 -246.5t336.5 -91q187 0 339 88t238.5 243.5 t86.5 348.5q0 148 -54.5 276.5t-146.5 215.5t-212.5 136.5t-250.5 49.5q-178 0 -327.5 -86t-238 -242t-88.5 -350zM638 1682v78h79v-78h-79zM907 1682v78h81v-78h-81z" />
<glyph unicode="&#xd8;" horiz-adv-x="1639" d="M119 693q0 156 56 291.5t150 228.5t221 146.5t266 53.5q175 0 331 -81l52 95h47l-63 -115q156 -94 248.5 -255.5t92.5 -363.5q0 -205 -93.5 -371t-255.5 -258.5t-359 -92.5q-174 0 -326 79l-59 -108h-48l71 129q-154 95 -242.5 259.5t-88.5 362.5zM160 693 q0 -186 83 -340.5t227 -244.5l653 1187q-146 76 -309 76q-178 0 -327.5 -86t-238 -242t-88.5 -350zM507 88q141 -75 307 -75q187 0 339 88t238.5 243.5t86.5 348.5q0 191 -86.5 342.5t-232.5 239.5z" />
<glyph unicode="&#xd9;" horiz-adv-x="1421" d="M168 532v854h40v-853q0 -121 43.5 -219.5t116.5 -160t163 -94.5t187 -33q98 0 186.5 33t157.5 94.5t110 159t41 217.5v856h40v-854q0 -130 -44.5 -235.5t-119.5 -172.5t-170.5 -102.5t-200.5 -35.5t-202.5 35.5t-175.5 102t-125 172.5t-47 236zM601 1828h74l123 -192h-40 z" />
<glyph unicode="&#xda;" horiz-adv-x="1421" d="M168 532v854h40v-853q0 -121 43.5 -219.5t116.5 -160t163 -94.5t187 -33q98 0 186.5 33t157.5 94.5t110 159t41 217.5v856h40v-854q0 -130 -44.5 -235.5t-119.5 -172.5t-170.5 -102.5t-200.5 -35.5t-202.5 35.5t-175.5 102t-125 172.5t-47 236zM621 1617l123 192h74 l-157 -192h-40z" />
<glyph unicode="&#xdb;" horiz-adv-x="1421" d="M168 532v854h40v-853q0 -121 43.5 -219.5t116.5 -160t163 -94.5t187 -33q98 0 186.5 33t157.5 94.5t110 159t41 217.5v856h40v-854q0 -130 -44.5 -235.5t-119.5 -172.5t-170.5 -102.5t-200.5 -35.5t-202.5 35.5t-175.5 102t-125 172.5t-47 236zM509 1540l167 256h67 l168 -256h-47l-155 219l-154 -219h-46z" />
<glyph unicode="&#xdc;" horiz-adv-x="1421" d="M168 532v854h40v-853q0 -121 43.5 -219.5t116.5 -160t163 -94.5t187 -33q98 0 186.5 33t157.5 94.5t110 159t41 217.5v856h40v-854q0 -130 -44.5 -235.5t-119.5 -172.5t-170.5 -102.5t-200.5 -35.5t-202.5 35.5t-175.5 102t-125 172.5t-47 236zM535 1661v78h79v-78h-79z M804 1661v78h81v-78h-81z" />
<glyph unicode="&#xdd;" horiz-adv-x="1097" d="M32 1386h47l471 -734l469 734h47l-495 -777v-609h-40v606zM459 1627l123 192h74l-157 -192h-40z" />
<glyph unicode="&#xde;" horiz-adv-x="1073" d="M209 0v1386h40v-284h182q261 0 406.5 -105t145.5 -303q0 -190 -137.5 -297.5t-398.5 -110.5l-198 -2v-284h-40zM249 325h196q241 0 369.5 95.5t128.5 273.5t-136.5 273t-364.5 95h-193v-737z" />
<glyph unicode="&#xdf;" horiz-adv-x="1178" d="M194 0v993q0 176 105.5 288t272.5 112q148 0 248.5 -90.5t100.5 -228.5q0 -105 -57 -174.5t-139 -95.5q46 -9 91 -26.5t94 -51t86 -77.5t61 -110t24 -145q0 -185 -119.5 -297t-295.5 -112q-103 0 -198 41l12 38q91 -39 185 -39q157 0 266.5 100.5t109.5 267.5 q0 82 -29.5 150t-80.5 114.5t-114.5 77t-138.5 46.5v37q89 26 146 93t57 161q0 124 -90 202.5t-220 78.5q-152 0 -244.5 -102.5t-92.5 -257.5v-993h-40z" />
<glyph unicode="&#xe0;" horiz-adv-x="915" d="M97 245q0 63 26.5 111.5t75 79.5t100 49.5t118.5 31.5q27 5 67 12t64 11t54.5 11.5t50.5 16.5t39.5 24t33.5 35v27q0 101 -74.5 160t-182.5 60q-133 1 -258 -87l-21 35q140 92 278 92q124 0 211 -68.5t87 -187.5v-658h-36l-2 175q-62 -82 -150 -136.5t-185 -54.5 q-127 0 -211.5 72.5t-84.5 188.5zM139 247q0 -97 70.5 -160t183.5 -63q91 0 179 55t154 145v351q-17 -19 -40.5 -32.5t-57.5 -23.5t-58 -15t-72 -13.5t-71 -12.5q-62 -12 -108.5 -27.5t-90 -42t-66.5 -67t-23 -94.5zM383 1362h74l123 -192h-40z" />
<glyph unicode="&#xe1;" horiz-adv-x="915" d="M97 245q0 63 26.5 111.5t75 79.5t100 49.5t118.5 31.5q27 5 67 12t64 11t54.5 11.5t50.5 16.5t39.5 24t33.5 35v27q0 101 -74.5 160t-182.5 60q-133 1 -258 -87l-21 35q140 92 278 92q124 0 211 -68.5t87 -187.5v-658h-36l-2 175q-62 -82 -150 -136.5t-185 -54.5 q-127 0 -211.5 72.5t-84.5 188.5zM139 247q0 -97 70.5 -160t183.5 -63q91 0 179 55t154 145v351q-17 -19 -40.5 -32.5t-57.5 -23.5t-58 -15t-72 -13.5t-71 -12.5q-62 -12 -108.5 -27.5t-90 -42t-66.5 -67t-23 -94.5zM403 1151l123 192h74l-157 -192h-40z" />
<glyph unicode="&#xe2;" horiz-adv-x="915" d="M97 245q0 63 26.5 111.5t75 79.5t100 49.5t118.5 31.5q27 5 67 12t64 11t54.5 11.5t50.5 16.5t39.5 24t33.5 35v27q0 101 -74.5 160t-182.5 60q-133 1 -258 -87l-21 35q140 92 278 92q124 0 211 -68.5t87 -187.5v-658h-36l-2 175q-62 -82 -150 -136.5t-185 -54.5 q-127 0 -211.5 72.5t-84.5 188.5zM139 247q0 -97 70.5 -160t183.5 -63q91 0 179 55t154 145v351q-17 -19 -40.5 -32.5t-57.5 -23.5t-58 -15t-72 -13.5t-71 -12.5q-62 -12 -108.5 -27.5t-90 -42t-66.5 -67t-23 -94.5zM291 1074l167 256h67l168 -256h-47l-155 219l-154 -219 h-46z" />
<glyph unicode="&#xe3;" horiz-adv-x="915" d="M97 245q0 63 26.5 111.5t75 79.5t100 49.5t118.5 31.5q27 5 67 12t64 11t54.5 11.5t50.5 16.5t39.5 24t33.5 35v27q0 101 -74.5 160t-182.5 60q-133 1 -258 -87l-21 35q140 92 278 92q124 0 211 -68.5t87 -187.5v-658h-36l-2 175q-62 -82 -150 -136.5t-185 -54.5 q-127 0 -211.5 72.5t-84.5 188.5zM139 247q0 -97 70.5 -160t183.5 -63q91 0 179 55t154 145v351q-17 -19 -40.5 -32.5t-57.5 -23.5t-58 -15t-72 -13.5t-71 -12.5q-62 -12 -108.5 -27.5t-90 -42t-66.5 -67t-23 -94.5zM220 1212q35 100 139 100q44 0 91.5 -24t91 -47.5 t78.5 -23.5q76 0 110 87l34 -11q-12 -49 -52 -81.5t-95 -32.5q-52 0 -132.5 47.5t-128.5 47.5q-74 0 -101 -72z" />
<glyph unicode="&#xe4;" horiz-adv-x="915" d="M97 245q0 63 26.5 111.5t75 79.5t100 49.5t118.5 31.5q27 5 67 12t64 11t54.5 11.5t50.5 16.5t39.5 24t33.5 35v27q0 101 -74.5 160t-182.5 60q-133 1 -258 -87l-21 35q140 92 278 92q124 0 211 -68.5t87 -187.5v-658h-36l-2 175q-62 -82 -150 -136.5t-185 -54.5 q-127 0 -211.5 72.5t-84.5 188.5zM139 247q0 -97 70.5 -160t183.5 -63q91 0 179 55t154 145v351q-17 -19 -40.5 -32.5t-57.5 -23.5t-58 -15t-72 -13.5t-71 -12.5q-62 -12 -108.5 -27.5t-90 -42t-66.5 -67t-23 -94.5zM317 1195v78h79v-78h-79zM586 1195v78h81v-78h-81z" />
<glyph unicode="&#xe5;" horiz-adv-x="915" d="M97 245q0 63 26.5 111.5t75 79.5t100 49.5t118.5 31.5q27 5 67 12t64 11t54.5 11.5t50.5 16.5t39.5 24t33.5 35v27q0 101 -74.5 160t-182.5 60q-133 1 -258 -87l-21 35q140 92 278 92q124 0 211 -68.5t87 -187.5v-658h-36l-2 175q-62 -82 -150 -136.5t-185 -54.5 q-127 0 -211.5 72.5t-84.5 188.5zM139 247q0 -97 70.5 -160t183.5 -63q91 0 179 55t154 145v351q-17 -19 -40.5 -32.5t-57.5 -23.5t-58 -15t-72 -13.5t-71 -12.5q-62 -12 -108.5 -27.5t-90 -42t-66.5 -67t-23 -94.5zM365 1291q0 51 37 87t90 36t90 -36t37 -87t-37 -87 t-90 -36t-90 36t-37 87zM406 1291q0 -35 25 -59t61 -24t61 24t25 59t-25 59t-61 24t-61 -24t-25 -59z" />
<glyph unicode="&#xe6;" horiz-adv-x="1661" d="M97 245q0 63 26.5 111.5t75 79.5t100 49.5t118.5 31.5q27 5 67 12t64 11t54.5 11.5t50.5 16.5t39.5 24t33.5 35v27q0 101 -74.5 160t-182.5 60q-133 1 -258 -87l-21 35q140 92 278 92q123 0 210 -67.5t88 -184.5q52 122 160 189.5t237 67.5q62 0 121.5 -15.5t115.5 -52 t96.5 -89.5t62 -135t13.5 -182l-804 1q5 -184 118 -298.5t297 -116.5q197 -2 336 120l24 -33q-154 -130 -362 -127q-148 1 -256.5 71t-158.5 191v-253h-36l-2 175q-62 -82 -150 -136.5t-185 -54.5q-127 0 -211.5 72.5t-84.5 188.5zM139 247q0 -97 70.5 -160t183.5 -63 q91 0 179 55t154 145v351q-17 -19 -40.5 -32.5t-57.5 -23.5t-58 -15t-72 -13.5t-71 -12.5q-62 -12 -108.5 -27.5t-90 -42t-66.5 -67t-23 -94.5zM770 486l761 -1q6 91 -23 167t-82.5 125t-122.5 75.5t-145 26.5q-72 0 -137 -24.5t-118.5 -71.5t-89 -123.5t-43.5 -173.5z" />
<glyph unicode="&#xe7;" horiz-adv-x="923" d="M87 450q0 200 135.5 332t342.5 132q152 0 288 -95l-21 -34q-125 89 -267 89q-189 0 -313.5 -120t-124.5 -305q0 -183 121 -302t310 -119q92 0 175.5 37.5t136.5 92.5l26 -31q-56 -55 -141.5 -95.5t-187.5 -43.5l-32 -65q68 -5 108.5 -35t40.5 -84q0 -69 -69.5 -102 t-192.5 -33v40q221 5 221 95q0 83 -167 88l50 97q-198 10 -318.5 141.5t-120.5 319.5z" />
<glyph unicode="&#xe8;" horiz-adv-x="1021" d="M87 453q0 108 36.5 197.5t97.5 146t139 87t163 30.5q62 0 121.5 -15.5t115.5 -52t96.5 -89.5t62 -135t13.5 -182l-804 1q5 -184 118 -298.5t297 -116.5q197 -2 336 120l24 -33q-154 -130 -362 -127q-206 2 -330 132t-124 335zM130 481l761 -1q6 91 -23 167t-82.5 125 t-122.5 75.5t-145 26.5q-72 0 -137 -24.5t-118.5 -71.5t-89 -123.5t-43.5 -173.5zM440 1362h74l123 -192h-40z" />
<glyph unicode="&#xe9;" horiz-adv-x="1021" d="M87 453q0 108 36.5 197.5t97.5 146t139 87t163 30.5q62 0 121.5 -15.5t115.5 -52t96.5 -89.5t62 -135t13.5 -182l-804 1q5 -184 118 -298.5t297 -116.5q197 -2 336 120l24 -33q-154 -130 -362 -127q-206 2 -330 132t-124 335zM130 481l761 -1q6 91 -23 167t-82.5 125 t-122.5 75.5t-145 26.5q-72 0 -137 -24.5t-118.5 -71.5t-89 -123.5t-43.5 -173.5zM460 1151l123 192h74l-157 -192h-40z" />
<glyph unicode="&#xea;" horiz-adv-x="1021" d="M87 453q0 108 36.5 197.5t97.5 146t139 87t163 30.5q62 0 121.5 -15.5t115.5 -52t96.5 -89.5t62 -135t13.5 -182l-804 1q5 -184 118 -298.5t297 -116.5q197 -2 336 120l24 -33q-154 -130 -362 -127q-206 2 -330 132t-124 335zM130 481l761 -1q6 91 -23 167t-82.5 125 t-122.5 75.5t-145 26.5q-72 0 -137 -24.5t-118.5 -71.5t-89 -123.5t-43.5 -173.5zM348 1074l167 256h67l168 -256h-47l-155 219l-154 -219h-46z" />
<glyph unicode="&#xeb;" horiz-adv-x="1021" d="M87 453q0 108 36.5 197.5t97.5 146t139 87t163 30.5q62 0 121.5 -15.5t115.5 -52t96.5 -89.5t62 -135t13.5 -182l-804 1q5 -184 118 -298.5t297 -116.5q197 -2 336 120l24 -33q-154 -130 -362 -127q-206 2 -330 132t-124 335zM130 481l761 -1q6 91 -23 167t-82.5 125 t-122.5 75.5t-145 26.5q-72 0 -137 -24.5t-118.5 -71.5t-89 -123.5t-43.5 -173.5zM374 1195v78h79v-78h-79zM643 1195v78h81v-78h-81z" />
<glyph unicode="&#xec;" horiz-adv-x="365" d="M32 1329h74l123 -192h-40zM162 0l1 900h40l-1 -900h-40z" />
<glyph unicode="&#xed;" horiz-adv-x="365" d="M142 1125l123 192h74l-157 -192h-40zM162 0l1 900h40l-1 -900h-40z" />
<glyph unicode="&#xee;" horiz-adv-x="365" d="M11 983l167 256h67l168 -256h-47l-155 219l-154 -219h-46zM162 0l1 900h40l-1 -900h-40z" />
<glyph unicode="&#xef;" horiz-adv-x="365" d="M31 1158v78h79v-78h-79zM162 0l1 900h40l-1 -900h-40zM300 1158v78h81v-78h-81z" />
<glyph unicode="&#xf0;" horiz-adv-x="1059" d="M8 457q27 170 157.5 262t304.5 64q135 -21 235.5 -111.5t129.5 -202.5q11 158 -29.5 318t-137.5 298l-169 -123l-24 33l169 123q-121 156 -306 255l21 33q193 -102 318 -264l255 185l24 -32l-255 -186q80 -114 125 -248t49.5 -256t-16.5 -239q-44 -215 -177.5 -317.5 t-317.5 -73.5q-126 20 -214 93t-124 175t-18 214zM48 453q-25 -156 64.5 -284t252.5 -154q160 -25 285.5 63t149.5 236q24 154 -74.5 279t-263.5 151q-155 25 -272.5 -57t-141.5 -234z" />
<glyph unicode="&#xf1;" horiz-adv-x="1023" d="M162 0v900h40v-213q49 101 144 164t208 63q135 0 227.5 -85.5t92.5 -233.5v-595h-40v594q0 134 -82.5 207t-199.5 73q-109 0 -204 -67.5t-146 -175.5v-631h-40zM270 1212q35 100 139 100q44 0 91.5 -24t91 -47.5t78.5 -23.5q76 0 110 87l34 -11q-12 -49 -52 -81.5 t-95 -32.5q-52 0 -132.5 47.5t-128.5 47.5q-74 0 -101 -72z" />
<glyph unicode="&#xf2;" d="M87 454q0 203 128.5 334t325.5 131q194 0 323 -130t129 -336q0 -204 -125.5 -337.5t-326.5 -133.5q-135 0 -239.5 63.5t-159.5 170.5t-55 238zM127 452q0 -184 114 -307t299 -123t299 122.5t114 307.5q0 188 -117 308.5t-297 118.5q-177 -2 -294.5 -121.5t-117.5 -305.5z M430 1362h74l123 -192h-40z" />
<glyph unicode="&#xf3;" d="M87 454q0 203 128.5 334t325.5 131q194 0 323 -130t129 -336q0 -204 -125.5 -337.5t-326.5 -133.5q-135 0 -239.5 63.5t-159.5 170.5t-55 238zM127 452q0 -184 114 -307t299 -123t299 122.5t114 307.5q0 188 -117 308.5t-297 118.5q-177 -2 -294.5 -121.5t-117.5 -305.5z M450 1151l123 192h74l-157 -192h-40z" />
<glyph unicode="&#xf4;" d="M87 454q0 203 128.5 334t325.5 131q194 0 323 -130t129 -336q0 -204 -125.5 -337.5t-326.5 -133.5q-135 0 -239.5 63.5t-159.5 170.5t-55 238zM127 452q0 -184 114 -307t299 -123t299 122.5t114 307.5q0 188 -117 308.5t-297 118.5q-177 -2 -294.5 -121.5t-117.5 -305.5z M338 1074l167 256h67l168 -256h-47l-155 219l-154 -219h-46z" />
<glyph unicode="&#xf5;" d="M87 454q0 203 128.5 334t325.5 131q194 0 323 -130t129 -336q0 -204 -125.5 -337.5t-326.5 -133.5q-135 0 -239.5 63.5t-159.5 170.5t-55 238zM127 452q0 -184 114 -307t299 -123t299 122.5t114 307.5q0 188 -117 308.5t-297 118.5q-177 -2 -294.5 -121.5t-117.5 -305.5z M267 1212q35 100 139 100q44 0 91.5 -24t91 -47.5t78.5 -23.5q75 0 110 87l34 -11q-12 -49 -52 -81.5t-95 -32.5q-52 0 -132.5 47.5t-128.5 47.5q-74 0 -101 -72z" />
<glyph unicode="&#xf6;" d="M87 454q0 203 128.5 334t325.5 131q194 0 323 -130t129 -336q0 -204 -125.5 -337.5t-326.5 -133.5q-135 0 -239.5 63.5t-159.5 170.5t-55 238zM127 452q0 -184 114 -307t299 -123t299 122.5t114 307.5q0 188 -117 308.5t-297 118.5q-177 -2 -294.5 -121.5t-117.5 -305.5z M364 1195v78h79v-78h-79zM633 1195v78h81v-78h-81z" />
<glyph unicode="&#xf8;" d="M87 454q0 203 128.5 334t325.5 131q108 0 200 -43l151 274h45l-161 -293q101 -59 159 -164t58 -240q0 -204 -125.5 -337.5t-326.5 -133.5q-121 0 -217 51l-171 -311h-46l182 332q-95 62 -148.5 167.5t-53.5 232.5zM127 452q0 -115 47.5 -211t133.5 -153l414 753 q-85 39 -183 38q-177 -2 -294.5 -121.5t-117.5 -305.5zM343 68q90 -46 197 -46q185 0 299 122.5t114 307.5q0 122 -52 219t-144 152z" />
<glyph unicode="&#xf9;" horiz-adv-x="988" d="M120 290v610l40 -1v-608q0 -125 77 -195t185 -70q113 0 212 73.5t163 173.5v627h40v-900h-40v217q-60 -94 -158.5 -162.5t-219.5 -68.5q-57 0 -109 17.5t-95.5 52.5t-69 95.5t-25.5 138.5zM385 1362h74l123 -192h-40z" />
<glyph unicode="&#xfa;" horiz-adv-x="988" d="M120 290v610l40 -1v-608q0 -125 77 -195t185 -70q113 0 212 73.5t163 173.5v627h40v-900h-40v217q-60 -94 -158.5 -162.5t-219.5 -68.5q-57 0 -109 17.5t-95.5 52.5t-69 95.5t-25.5 138.5zM405 1151l123 192h74l-157 -192h-40z" />
<glyph unicode="&#xfb;" horiz-adv-x="988" d="M120 290v610l40 -1v-608q0 -125 77 -195t185 -70q113 0 212 73.5t163 173.5v627h40v-900h-40v217q-60 -94 -158.5 -162.5t-219.5 -68.5q-57 0 -109 17.5t-95.5 52.5t-69 95.5t-25.5 138.5zM293 1074l167 256h67l168 -256h-47l-155 219l-154 -219h-46z" />
<glyph unicode="&#xfc;" horiz-adv-x="988" d="M120 290v610l40 -1v-608q0 -125 77 -195t185 -70q113 0 212 73.5t163 173.5v627h40v-900h-40v217q-60 -94 -158.5 -162.5t-219.5 -68.5q-57 0 -109 17.5t-95.5 52.5t-69 95.5t-25.5 138.5zM319 1195v78h79v-78h-79zM588 1195v78h81v-78h-81z" />
<glyph unicode="&#xfd;" horiz-adv-x="924" d="M56 900h44l354 -817l380 817h44l-511 -1100q-50 -106 -122.5 -154.5t-179.5 -45.5l1 40q98 -1 158.5 41.5t109.5 143.5l98 207zM376 1151l123 192h74l-157 -192h-40z" />
<glyph unicode="&#xfe;" horiz-adv-x="1052" d="M167 -454v1840h40v-579q67 56 148.5 84.5t155.5 28.5q125 0 225 -52.5t159.5 -157.5t59.5 -247q0 -212 -125.5 -345t-312.5 -133q-82 0 -163.5 30.5t-146.5 88.5v-558h-40zM207 153q67 -64 150 -96t164 -32q168 0 281 117t113 319q0 110 -35 194t-94 131.5t-128.5 70.5 t-147.5 23q-72 0 -155 -29.5t-148 -88.5v-609z" />
<glyph unicode="&#xff;" horiz-adv-x="924" d="M56 900h44l354 -817l380 817h44l-511 -1100q-50 -106 -122.5 -154.5t-179.5 -45.5l1 40q98 -1 158.5 41.5t109.5 143.5l98 207zM290 1195v78h79v-78h-79zM559 1195v78h81v-78h-81z" />
<glyph unicode="&#x152;" horiz-adv-x="2387" d="M119 693q0 156 56 291.5t150 228.5t221 146.5t266 53.5q226 0 411 -130t258 -346v449h806v-37h-766v-616h629v-37h-629v-659h766v-37h-806v446q-72 -215 -253 -345t-416 -130q-196 0 -355.5 96t-248.5 261t-89 365zM160 693q0 -187 83.5 -342.5t234 -246.5t336.5 -91 q187 0 339 88t238.5 243.5t86.5 348.5q0 148 -54.5 276.5t-146.5 215.5t-212.5 136.5t-250.5 49.5q-178 0 -327.5 -86t-238 -242t-88.5 -350z" />
<glyph unicode="&#x153;" horiz-adv-x="1881" d="M87 443q0 203 128.5 334t325.5 131q153 0 268.5 -83t160.5 -224q44 143 158.5 222.5t254.5 79.5q62 0 121.5 -15.5t115.5 -52t96.5 -89.5t62 -135t13.5 -182l-799 1q0 -13 -2 -41q16 -168 127 -270t285 -104q197 -2 336 120l24 -33q-154 -130 -362 -127q-162 1 -275 83.5 t-156 223.5q-44 -141 -157.5 -226t-271.5 -85q-135 0 -239.5 63.5t-159.5 170.5t-55 238zM127 441q0 -184 114 -307t299 -123q170 0 281 104.5t129 267.5q-3 28 -3 59q0 30 3 58q-19 165 -132.5 267.5t-278.5 100.5q-177 -2 -294.5 -121.5t-117.5 -305.5zM991 486l1 -16 l759 -1q6 91 -23 167t-82.5 125t-122.5 75.5t-145 26.5q-147 0 -256.5 -97t-130.5 -280z" />
<glyph unicode="&#x178;" horiz-adv-x="1097" d="M32 1386h47l471 -734l469 734h47l-495 -777v-609h-40v606zM373 1671v78h79v-78h-79zM642 1671v78h81v-78h-81z" />
<glyph unicode="&#x2c6;" horiz-adv-x="967" d="M412 1560l167 256h67l168 -256h-47l-155 219l-154 -219h-46z" />
<glyph unicode="&#x2dc;" horiz-adv-x="773" d="M344 1698q35 100 139 100q44 0 91.5 -24t91 -47.5t78.5 -23.5q76 0 110 87l34 -11q-12 -49 -52 -81.5t-95 -32.5q-52 0 -132.5 47.5t-128.5 47.5q-74 0 -101 -72z" />
<glyph unicode="&#x2000;" horiz-adv-x="924" />
<glyph unicode="&#x2001;" horiz-adv-x="1849" />
<glyph unicode="&#x2002;" horiz-adv-x="924" />
<glyph unicode="&#x2003;" horiz-adv-x="1849" />
<glyph unicode="&#x2004;" horiz-adv-x="616" />
<glyph unicode="&#x2005;" horiz-adv-x="462" />
<glyph unicode="&#x2006;" horiz-adv-x="308" />
<glyph unicode="&#x2007;" horiz-adv-x="308" />
<glyph unicode="&#x2008;" horiz-adv-x="231" />
<glyph unicode="&#x2009;" horiz-adv-x="369" />
<glyph unicode="&#x200a;" horiz-adv-x="102" />
<glyph unicode="&#x2010;" horiz-adv-x="742" d="M57 559v40h628v-40h-628z" />
<glyph unicode="&#x2011;" horiz-adv-x="742" d="M57 559v40h628v-40h-628z" />
<glyph unicode="&#x2012;" horiz-adv-x="742" d="M57 559v40h628v-40h-628z" />
<glyph unicode="&#x2013;" horiz-adv-x="1171" d="M57 559v40h1057v-40h-1057z" />
<glyph unicode="&#x2014;" horiz-adv-x="1842" d="M57 559v40h1728v-40h-1728z" />
<glyph unicode="&#x2018;" horiz-adv-x="203" d="M32 1203v129q0 72 31.5 126.5t69.5 58.5v-33q-25 -7 -41.5 -46.5t-16.5 -103.5h40v-131h-83z" />
<glyph unicode="&#x2019;" horiz-adv-x="203" d="M70 1141v33q25 7 41.5 46.5t16.5 103.5h-40v131h83v-129q0 -72 -31.5 -126.5t-69.5 -58.5z" />
<glyph unicode="&#x201a;" horiz-adv-x="215" d="M57 -150q25 7 41.5 46.5t16.5 103.5h-40v131h83v-129q0 -72 -31.5 -126.5t-69.5 -58.5v33z" />
<glyph unicode="&#x201c;" horiz-adv-x="348" d="M32 1201v129q0 72 31.5 126.5t69.5 58.5v-33q-25 -7 -41.5 -46.5t-16.5 -103.5h40v-131h-83zM177 1201v129q0 72 31.5 126.5t69.5 58.5v-33q-25 -7 -41.5 -46.5t-16.5 -103.5h40v-131h-83z" />
<glyph unicode="&#x201d;" horiz-adv-x="348" d="M70 1141v33q25 7 41.5 46.5t16.5 103.5h-40v131h83v-129q0 -72 -31.5 -126.5t-69.5 -58.5zM215 1141v33q25 7 41.5 46.5t16.5 103.5h-40v131h83v-129q0 -72 -31.5 -126.5t-69.5 -58.5z" />
<glyph unicode="&#x201e;" horiz-adv-x="360" d="M57 -151q25 7 41.5 46.5t16.5 103.5h-40v131h83v-129q0 -72 -31.5 -126.5t-69.5 -58.5v33zM202 -151q25 7 41.5 46.5t16.5 103.5h-40v131h83v-129q0 -72 -31.5 -126.5t-69.5 -58.5v33z" />
<glyph unicode="&#x2022;" horiz-adv-x="455" d="M168 662v118h120v-118h-120z" />
<glyph unicode="&#x2026;" horiz-adv-x="962" d="M153 -60h82v-130h-82v130zM398 -60h82v-130h-82v130zM642 -60h82v-130h-82v130z" />
<glyph unicode="&#x202f;" horiz-adv-x="369" />
<glyph unicode="&#x2039;" horiz-adv-x="515" d="M65 498l321 490h48l-321 -490l324 -498h-49z" />
<glyph unicode="&#x203a;" horiz-adv-x="515" d="M75 0l324 498l-321 490h48l321 -490l-323 -498h-49z" />
<glyph unicode="&#x205f;" horiz-adv-x="462" />
<glyph unicode="&#x20ac;" horiz-adv-x="1372" d="M40 570v40h198q-3 36 -3 75q0 48 5 105h-200v40h205q21 141 82.5 253.5t148.5 182t188 107t208 40.5q167 5 311 -62l-17 -41q-144 65 -290 61q-223 -6 -385.5 -149.5t-203.5 -391.5h680v-40h-686q-6 -54 -6 -112q0 -24 2 -68h690v-40h-686q29 -255 187 -401.5t400 -149.5 q189 -3 348 95l20 -36q-161 -102 -378 -102q-246 0 -415.5 158t-201.5 436h-201z" />
<glyph unicode="&#x2122;" horiz-adv-x="1154" d="M23 1348v38h434v-38h-197v-489h-40v489h-197zM552 859v527h41l224 -324l227 324h38v-527h-40v455l-214 -305h-22l-214 305v-455h-40z" />
<glyph unicode="&#x25fc;" horiz-adv-x="900" d="M0 0v900h900v-900h-900z" />
</font>
</defs>
</svg>
